<svg width="32" height="32" viewBox="0 0 32 32" fill="none" xmlns="http://www.w3.org/2000/svg">
<path d="M14.7072 25.7071C14.8946 25.5195 14.9999 25.2652 14.9999 25C14.9999 24.7348 14.8946 24.4805 14.7072 24.2929L7.41419 17H27C27.2652 17 27.5196 16.8946 27.7071 16.7071C27.8946 16.5196 28 16.2652 28 16C28 15.7348 27.8946 15.4804 27.7071 15.2929C27.5196 15.1053 27.2652 15 27 15H7.41419L14.7072 7.70708C14.8947 7.51954 15 7.26517 15 6.99995C15 6.73473 14.8946 6.48037 14.7071 6.29284C14.5195 6.10531 14.2652 5.99996 14 5.99997C13.7347 5.99998 13.4804 6.10535 13.2928 6.2929L4.29285 15.2929C4.28958 15.2961 4.2869 15.2997 4.28369 15.303C4.26394 15.3233 4.24478 15.3441 4.22681 15.366C4.21677 15.3782 4.20801 15.3911 4.19864 15.4037C4.18851 15.4172 4.17798 15.4305 4.16851 15.4446C4.15878 15.4592 4.15033 15.4743 4.14142 15.4893C4.13363 15.5023 4.12542 15.5151 4.11819 15.5286C4.11016 15.5436 4.10333 15.5591 4.0961 15.5744C4.08935 15.5887 4.08224 15.6027 4.07617 15.6173C4.07006 15.6321 4.06512 15.6472 4.05975 15.6622C4.05407 15.678 4.04803 15.6936 4.04315 15.7097C4.03863 15.7247 4.0353 15.7399 4.03149 15.755C4.02734 15.7715 4.0227 15.7878 4.01937 15.8046C4.01593 15.8221 4.01385 15.8397 4.01135 15.8572C4.00924 15.8719 4.00644 15.8864 4.00497 15.9013C4.00174 15.9341 4 15.967 4 16C4 16.033 4.00174 16.0658 4.00497 16.0987C4.00644 16.1136 4.00925 16.128 4.01135 16.1428C4.01385 16.1603 4.01593 16.1779 4.01937 16.1954C4.0227 16.2121 4.02734 16.2285 4.03149 16.245C4.0353 16.2601 4.03863 16.2753 4.04315 16.2903C4.04803 16.3064 4.05407 16.322 4.05975 16.3378C4.06513 16.3528 4.07006 16.3679 4.07617 16.3827C4.08224 16.3973 4.08935 16.4113 4.0961 16.4256C4.10333 16.4409 4.11016 16.4564 4.11819 16.4714C4.12542 16.4849 4.13363 16.4977 4.14142 16.5107C4.15033 16.5257 4.15878 16.5408 4.16851 16.5554C4.17798 16.5695 4.1885 16.5828 4.19864 16.5963C4.20801 16.6089 4.21676 16.6218 4.22681 16.634C4.24509 16.6563 4.26459 16.6775 4.28473 16.6981C4.28757 16.701 4.28995 16.7042 4.29285 16.7071L13.2928 25.7071C13.3857 25.8 13.496 25.8736 13.6173 25.9239C13.7386 25.9741 13.8687 26 14 26C14.1313 26 14.2614 25.9741 14.3827 25.9239C14.504 25.8736 14.6143 25.8 14.7072 25.7071V25.7071Z" fill="#23372B"/>
</svg>
