<svg width="25" height="25" viewBox="0 0 25 25" fill="none" xmlns="http://www.w3.org/2000/svg">
<g clip-path="url(#clip0_401_374705)">
<path fill-rule="evenodd" clip-rule="evenodd" d="M15.435 0.83918C15.7057 1.43395 15.5893 3.07959 15.156 4.78113C15.0559 5.17424 14.9396 5.55406 14.8975 5.62523C14.8355 5.73007 14.77 5.7704 14.5514 5.83822C13.9855 6.0138 13.4957 5.97317 13.3163 5.73576C13.1519 5.51822 13.1523 5.30579 13.3182 4.66397C13.4828 4.02739 13.6483 3.64628 14.1653 2.71362C14.4501 2.19972 15.3242 0.72078 15.3545 0.701525C15.3621 0.69671 15.3983 0.758634 15.435 0.83918ZM10.7816 0.891714C10.7941 0.928681 10.4387 1.87851 10.2123 2.41304C10.0638 2.76374 9.9053 3.41456 9.76795 4.23822C9.64297 4.9877 9.44175 5.6647 9.32465 5.72978C9.29492 5.74629 9.16398 5.72973 9.03093 5.69258C8.75667 5.616 8.0241 5.28091 7.93284 5.19028C7.89928 5.15698 7.85218 5.04567 7.82809 4.94293C7.78904 4.77618 7.79855 4.70113 7.9167 4.24342C8.04149 3.75982 8.19314 3.39032 8.41698 3.02434C8.49817 2.89161 8.98638 2.3043 9.43412 1.80083C9.79578 1.39411 10.2696 0.976053 10.4734 0.883928C10.6251 0.815346 10.7568 0.818688 10.7816 0.891714ZM20.0642 3.96215C20.3079 4.29906 20.3624 4.92884 20.217 5.72843C20.085 6.4548 19.8496 7.12413 19.3728 8.1299C19.1302 8.64149 19.0523 8.7318 18.8088 8.78328C18.6439 8.81818 18.2808 8.73367 18.1621 8.63276C17.6302 8.18093 17.7317 7.22545 18.4088 6.30855C19.0299 5.46764 19.5127 4.67059 19.7323 4.12368C19.8202 3.90479 19.8803 3.79955 19.9128 3.80784C19.9396 3.81467 20.0077 3.8841 20.0642 3.96215ZM5.9911 2.35721C5.97697 2.41266 5.91023 2.56692 5.84278 2.69996C5.75013 2.88282 5.65097 3.21262 5.43695 4.05018C5.17135 5.08958 5.15226 5.18979 5.13001 5.66238C5.11045 6.07792 5.08768 6.21981 5.0001 6.47149C4.93493 6.65878 4.86746 6.79155 4.82543 6.81502C4.70754 6.88096 4.17207 6.72054 3.87895 6.5315C3.32368 6.17334 3.27321 5.93701 3.57089 5.08865C3.72051 4.66231 3.77253 4.56499 4.16842 3.97106C4.59967 3.32408 4.80665 3.0784 5.21071 2.73401C5.43233 2.54514 5.9279 2.23376 5.98406 2.24807C6.00205 2.25266 6.00523 2.30179 5.9911 2.35721ZM22.641 8.281C22.7124 8.44782 22.7888 8.65734 22.8109 8.74658C22.8804 9.02756 22.9267 9.60162 22.9113 9.99023C22.8983 10.3145 22.8761 10.4246 22.7449 10.8139C22.6462 11.1069 22.5736 11.4007 22.5363 11.6584C22.4163 12.4876 22.3481 12.6243 22.0092 12.7145C21.8826 12.7483 21.7907 12.7368 21.4157 12.6408C21.0789 12.5545 20.9477 12.5056 20.8713 12.4377C20.6234 12.2174 20.6101 11.9809 20.8324 11.7428C21.0029 11.5601 21.1308 11.3507 21.4059 10.8043C21.8234 9.97501 22.0461 9.40797 22.2313 8.70309C22.3437 8.27481 22.4252 8.02586 22.4589 8.00701C22.4969 7.98575 22.5471 8.06127 22.641 8.281ZM13.6584 7.04928C14.0153 7.23942 14.3954 7.71675 14.5736 8.19852C14.795 8.7969 14.8079 9.4182 14.6152 10.1858C14.4044 11.0247 14.2119 11.3404 13.7551 11.5958C12.9322 12.0561 11.7397 12.0877 11.1803 11.6642C10.85 11.414 10.6738 11.0033 10.6904 10.5218C10.7028 10.16 10.9569 9.35851 11.214 8.86999C11.4691 8.3854 11.9828 7.58777 12.1857 7.36125C12.361 7.16568 12.6722 6.97837 12.9017 6.93036C13.0902 6.8909 13.4745 6.95127 13.6584 7.04928ZM8.84416 6.763C9.23713 7.09123 9.48573 7.68926 9.62453 8.64049C9.79269 9.79263 9.67706 10.7151 9.29258 11.2881C9.09779 11.5785 8.72632 11.7974 8.36404 11.8355C8.1461 11.8584 8.04306 11.8448 7.6283 11.7385C7.23149 11.6367 7.07199 11.5765 6.72844 11.3983C6.34234 11.1982 6.30204 11.1672 6.19317 10.9878C5.85922 10.4376 5.72167 9.20167 5.89344 8.29444C5.98154 7.82915 6.16954 7.41267 6.4166 7.1354C6.66072 6.86148 7.14848 6.61606 7.63515 6.52232C7.96089 6.45956 8.04007 6.45921 8.31835 6.51906C8.6067 6.58105 8.65089 6.60156 8.84416 6.763ZM18.1744 9.46177C18.3793 9.56057 18.5026 9.72709 18.6377 10.0876C18.9015 10.7911 18.9318 11.4518 18.7361 12.2315C18.5943 12.7962 18.4225 13.1646 18.1026 13.59C17.6945 14.1326 17.2847 14.4504 16.9106 14.5144C16.6871 14.5527 16.6381 14.5461 16.0749 14.4025C15.5916 14.2793 15.4392 14.2264 15.2818 14.1273C14.7681 13.8036 14.4547 13.392 14.403 12.9727C14.3827 12.8084 14.3998 12.6718 14.4775 12.3755C14.5643 12.0448 14.6071 11.9489 14.7855 11.6853C15.057 11.2842 15.4378 10.8672 15.9074 10.4567C16.9594 9.5371 17.6773 9.22207 18.1744 9.46177ZM4.1732 7.73421C4.68144 8.06481 4.98038 8.77356 4.97771 9.64181C4.97702 9.86705 4.98162 10.2812 4.98789 10.5622C5.0034 11.2555 4.96458 11.7587 4.88037 11.9565C4.67383 12.4415 4.25083 12.6431 3.437 12.6446C2.03796 12.647 1.3141 12.1054 1.32195 11.062C1.3247 10.6942 1.5842 9.80027 1.82465 9.33011C2.05741 8.87511 2.42832 8.32438 2.65748 8.09349C3.1728 7.57433 3.72589 7.44322 4.1732 7.73421ZM21.2577 13.7522C21.789 13.9768 22.0907 14.2992 22.1786 14.7363C22.2256 14.9701 22.2211 15.0321 22.1335 15.3614C22.0119 15.8179 21.8251 16.1501 21.4422 16.5905C20.4862 17.69 19.2072 18.2796 18.5305 17.9329C18.0783 17.7011 17.8643 16.8803 17.998 15.8899C18.1509 14.7577 18.8313 13.8014 19.6352 13.5891C20.0847 13.4703 20.7488 13.5371 21.2577 13.7522ZM11.8723 13.4729C12.3273 13.6436 12.7472 13.8802 13.1158 14.1733C13.5366 14.5079 13.7903 14.7787 14.4377 15.5845C15.3095 16.6696 15.8388 17.1723 16.6565 17.6918C17.1938 18.0332 17.3735 18.1954 17.5925 18.5364C18.0482 19.2463 18.139 20.3352 17.8402 21.5074C17.4825 22.9106 16.7564 23.913 15.8287 24.2841C15.0598 24.5916 14.4057 24.6149 13.4383 24.3691C12.555 24.1447 11.9723 23.8813 10.2256 22.9168C9.04946 22.2673 8.54318 22.0146 8.00544 21.8084C7.56801 21.6408 7.28635 21.5854 5.98258 21.4111C4.30375 21.1865 3.34201 20.9864 2.63931 20.7154C0.549395 19.9095 0.16542 18.4553 1.4425 16.1833C2.35017 14.5685 3.59346 13.8879 5.85765 13.7663C6.32432 13.7413 6.73944 13.686 7.24058 13.5821C8.7531 13.2686 8.96642 13.229 9.37646 13.1855C10.319 13.0854 11.0703 13.1719 11.8723 13.4729Z" fill="#23372B"/>
</g>
<defs>
<clipPath id="clip0_401_374705">
<rect width="24" height="24" fill="white" transform="translate(0.0722656 0.756836) rotate(-0.7)"/>
</clipPath>
</defs>
</svg>
