<svg width="1920" height="960" viewBox="0 0 1920 960" fill="none" xmlns="http://www.w3.org/2000/svg">
<g opacity="0.1">
<mask id="mask0_188_472612" style="mask-type:alpha" maskUnits="userSpaceOnUse" x="0" y="-40" width="1920" height="1000">
<rect y="-40" width="1920" height="1000" fill="#D9D9D9"/>
</mask>
<g mask="url(#mask0_188_472612)">
<g opacity="0.1">
<path fill-rule="evenodd" clip-rule="evenodd" d="M1581.02 2693.2C1579.82 2693.2 1578.61 2693.15 1577.4 2693.04L210.945 2586.85C198.113 2585.82 186.147 2579.37 178.275 2569.21C170.324 2559.06 167.018 2545.91 169.143 2533.16C182.605 2453.57 215.668 2261.57 233.774 2198.51C255.895 2121.68 315.409 1957.39 341.702 1914.88C360.044 1885.28 380.748 1858.67 391.455 1845.44C393.423 1843 394.525 1840.01 394.525 1836.7C394.603 1831.98 392.872 1827.57 390.825 1822.46C384.055 1805.37 374.687 1782.07 416.331 1714.61C419.558 1709.25 441.6 1665.56 443.962 1659.58C446.088 1654.31 446.009 1648.48 445.694 1643.52C445.537 1641.24 445.143 1638.8 444.513 1636.36C441.837 1626.2 437.035 1616.36 432.39 1606.76C424.203 1589.83 416.409 1573.85 420.188 1557.24C422.156 1548.35 422.235 1539.69 420.267 1530.79C415.937 1511.19 403.027 1494.74 391.612 1480.25C378.859 1464.11 367.838 1450.1 369.963 1434.59C370.593 1429.87 371.066 1425.46 371.538 1421.37C373.348 1405.46 374.608 1388.46 375.868 1372.01C376.891 1358.23 377.993 1343.9 379.41 1330.52C381.378 1311.63 383.976 1293.76 387.282 1277.62C387.755 1275.26 388.227 1272.74 388.621 1270.3C389.172 1267.07 389.801 1263.69 390.51 1260.3C407.435 1183.86 432.233 1131.43 448.371 1109.71C462.147 1091.13 479.545 1070.58 511.112 1061.29C538.901 1053.18 564.092 1046.65 585.819 1041.93C617.544 1035.08 647.223 1020.44 674.145 998.393C697.132 979.579 738.383 958.245 804.352 963.755C858.985 968.321 899.763 963.834 935.739 959.898C976.989 955.411 1009.5 951.79 1044.77 963.677C1095.07 980.681 1173.32 1016.34 1204.57 1030.91C1207.17 1032.09 1210.01 1032.48 1212.76 1032.01C1263.22 1023.51 1384.77 1008.55 1424.13 1053.73C1431.14 1061.76 1438.38 1068.53 1445.46 1074.99C1450.19 1079.48 1456.01 1084.36 1462.15 1089.55C1493.17 1115.77 1540.01 1155.36 1557.17 1219.29C1567.64 1258.41 1568.11 1291 1558.67 1321.78C1554.18 1336.27 1544.81 1361.62 1534.03 1390.98C1530.25 1401.21 1526.23 1412 1522.22 1423.1C1503.48 1474.27 1480.57 1541.42 1463.81 1590.38C1459.63 1602.58 1455.93 1613.53 1452.86 1622.5C1450.03 1630.61 1447.35 1638.72 1446.72 1642.97C1444.91 1655.49 1446.49 1668.95 1451.53 1684.06C1454.36 1692.49 1458.06 1701.85 1462 1711.85C1469.63 1731.14 1478.29 1753.02 1485.14 1778.92C1491.83 1804.59 1502.62 1827.97 1514.03 1852.68C1526.23 1879.21 1538.91 1906.61 1548.43 1940.22C1561.58 1986.2 1597 2048.7 1622.51 2091.69C1640.62 2122.15 1655.42 2148.21 1666.44 2169.23C1677.22 2189.77 1685.96 2208.51 1691.71 2223.47C1730.04 2323.29 1742.95 2528.44 1746.73 2611.96C1746.84 2614.37 1746.92 2616.71 1746.97 2618.97C1747.21 2640.38 1732.25 2659.43 1711.39 2664.23L1591.34 2692.02C1587.95 2692.73 1584.41 2693.2 1581.02 2693.2ZM456.243 1115.61C440.735 1136.47 416.724 1187.48 400.193 1262.43C399.484 1265.65 398.933 1268.88 398.382 1272.03C397.91 1274.55 397.437 1277.07 396.965 1279.59C393.738 1295.41 391.14 1312.97 389.172 1331.54C387.833 1344.77 386.731 1359.02 385.708 1372.8C384.448 1389.33 383.189 1406.41 381.299 1422.47C380.827 1426.64 380.355 1431.13 379.725 1435.85C378.229 1447.27 387.991 1459.7 399.405 1474.19C411.45 1489.46 425.148 1506.86 429.871 1528.66C432.154 1539.06 432.154 1549.13 429.792 1559.45C426.801 1572.59 433.807 1587.16 441.286 1602.51C446.166 1612.5 451.126 1622.82 454.039 1633.84C454.905 1636.91 455.377 1639.98 455.534 1642.89C455.928 1649.42 455.849 1656.43 453.173 1663.28C450.417 1669.97 428.375 1713.82 424.754 1719.8C385.708 1783.02 393.659 1802.85 400.035 1818.83C402.318 1824.66 404.522 1830.09 404.444 1836.86C404.365 1842.37 402.476 1847.49 399.091 1851.66C388.542 1864.73 368.153 1890.94 350.126 1920.07C324.226 1961.95 265.263 2124.91 243.3 2201.27C225.351 2263.85 192.288 2455.38 178.905 2534.81C177.252 2544.81 179.85 2555.12 186.069 2563.15C192.288 2571.18 201.656 2576.22 211.732 2577.01L1578.19 2683.2C1581.89 2683.52 1585.51 2683.2 1589.05 2682.34L1709.18 2654.63C1725.48 2650.85 1737.29 2635.89 1737.05 2619.04C1737.05 2616.89 1737 2614.69 1736.89 2612.43C1733.11 2529.38 1720.28 2325.49 1682.5 2227.01C1676.91 2212.37 1668.33 2194.02 1657.7 2173.87C1646.76 2153.01 1632.04 2127.03 1614.01 2096.72C1588.27 2053.27 1552.37 1989.98 1538.99 1942.98C1529.62 1909.99 1517.1 1882.99 1505.06 1856.86C1493.48 1831.67 1482.54 1807.89 1475.54 1781.44C1468.92 1756.09 1460.34 1734.52 1452.79 1715.47C1448.85 1705.4 1445.07 1695.87 1442.16 1687.21C1436.65 1670.52 1434.92 1655.64 1436.96 1641.55C1437.67 1636.75 1440.03 1629.43 1443.5 1619.27C1446.57 1610.3 1450.34 1599.44 1454.52 1587.23C1471.28 1538.19 1494.19 1470.96 1512.93 1419.71C1517.02 1408.61 1520.96 1397.83 1524.74 1387.6C1535.52 1358.31 1544.81 1333.12 1549.22 1318.95C1558.12 1289.9 1557.64 1259.12 1547.65 1221.89C1531.35 1160.88 1487.66 1123.95 1455.78 1097.03C1449.56 1091.84 1443.65 1086.88 1438.77 1082.31C1431.53 1075.54 1424.05 1068.61 1416.65 1060.19C1379.57 1017.6 1252.52 1035.31 1214.41 1041.77C1209.61 1042.56 1204.81 1041.93 1200.4 1039.88C1169.31 1025.39 1091.45 989.891 1041.62 973.045C1008.4 961.866 976.832 965.33 936.841 969.738C900.393 973.753 859.142 978.24 803.565 973.596C740.902 968.4 702.013 988.395 680.365 1006.03C652.261 1029.09 621.166 1044.37 587.866 1051.61C566.375 1056.25 541.499 1062.71 513.867 1070.82C488.047 1078.37 472.617 1093.57 456.243 1115.61Z" fill="#FFF8D9"/>
<path fill-rule="evenodd" clip-rule="evenodd" d="M1602.75 2722.8C1601.55 2722.8 1600.31 2722.75 1599.05 2722.64L185.125 2612.82C171.9 2611.8 159.619 2605.19 151.432 2594.64C143.245 2584.17 139.86 2570.63 142.064 2557.48C155.919 2475.14 190.164 2276.68 208.899 2211.42C231.729 2131.99 293.368 1962.03 320.527 1918.1C339.578 1887.48 360.912 1859.93 372.011 1846.31C374.058 1843.71 375.239 1840.56 375.239 1837.18C375.318 1832.14 373.507 1827.81 371.224 1822.3C363.903 1804.82 353.827 1780.97 397.439 1710.91C400.666 1705.55 423.653 1659.74 425.936 1653.91C427.904 1648.87 427.983 1643.6 427.511 1637.14C427.353 1634.7 426.881 1632.18 426.172 1629.67C423.26 1619.2 418.143 1608.96 413.104 1599.04C404.288 1581.57 395.943 1565.03 399.8 1547.95C401.926 1538.74 401.926 1529.77 399.8 1520.48C395.077 1500.32 381.222 1483.48 369.02 1468.68C355.322 1451.99 343.514 1437.58 345.718 1421.45C346.348 1416.56 346.899 1412 347.372 1407.75C349.182 1392.16 350.678 1375.71 352.016 1359.73C353.354 1344.38 354.771 1328.4 356.503 1313.6C358.786 1293.99 361.778 1275.57 365.399 1258.73C365.95 1256.29 366.422 1253.77 366.895 1251.25C367.603 1247.86 368.233 1244.32 369.02 1240.86C387.441 1162.13 413.892 1107.82 430.896 1085.22C446.089 1065.15 463.644 1044.68 495.763 1035.31C524.496 1026.89 550.553 1020.12 573.068 1015.24C605.895 1008.15 636.675 993.04 664.464 970.21C688.317 950.687 730.984 928.645 799.157 934.392C855.68 939.115 897.875 934.471 935.11 930.377C977.699 925.732 1011.39 922.032 1047.84 934.313C1099.88 951.868 1180.8 988.789 1213.16 1003.82C1215.91 1005.08 1218.82 1005.48 1221.74 1005.01C1273.93 996.189 1399.57 980.68 1440.27 1027.36C1447.51 1035.71 1455.07 1042.71 1462.39 1049.4C1467.51 1054.21 1473.57 1059.25 1480.58 1065.15C1512.85 1092.15 1561.58 1132.93 1580.24 1197.48C1591.89 1237.47 1592.68 1271.09 1582.76 1303.36C1577.88 1319.26 1566.62 1348.94 1553.63 1383.27C1550.56 1391.22 1547.41 1399.48 1544.26 1407.91C1522.53 1465.45 1495.45 1541.73 1477.51 1592.19L1469.87 1613.68C1466.41 1623.45 1463.97 1630.77 1463.34 1634.86C1461.21 1647.69 1462.71 1661.63 1467.9 1677.53C1470.81 1686.5 1474.67 1696.58 1478.84 1707.21C1486.56 1726.97 1495.3 1749.4 1502.15 1775.77C1509.07 1802.62 1520.57 1826.94 1532.69 1852.76C1545.36 1879.84 1558.59 1907.87 1568.51 1942.27C1579.37 1980.21 1603.7 2030.2 1644.87 2099.56C1663.53 2131.12 1678.88 2158.13 1690.45 2180.01C1701.71 2201.42 1710.84 2220.79 1716.82 2236.06C1756.73 2339.03 1770.12 2552.05 1774.05 2638.88C1774.16 2641.35 1774.23 2643.76 1774.29 2646.12C1774.6 2668.25 1759.17 2687.93 1737.6 2692.89L1613.38 2721.62C1609.92 2722.41 1606.29 2722.8 1602.75 2722.8ZM378.624 1243.06C377.916 1246.37 377.286 1249.75 376.577 1253.06C376.105 1255.66 375.633 1258.25 375.082 1260.85C371.539 1277.38 368.548 1295.49 366.344 1314.7C364.612 1329.42 363.195 1345.24 361.856 1360.59C360.439 1376.57 359.022 1393.18 357.133 1408.93C356.661 1413.18 356.11 1417.82 355.48 1422.7C353.905 1434.59 364.454 1447.5 376.656 1462.38C389.567 1478.13 404.209 1495.92 409.404 1518.27C411.845 1528.98 411.924 1539.37 409.483 1550.16C406.334 1563.77 413.892 1578.73 421.921 1594.63C427.117 1604.95 432.549 1615.57 435.698 1626.99C436.564 1630.22 437.115 1633.37 437.351 1636.36C437.902 1643.13 437.981 1650.37 435.147 1657.45C432.628 1663.83 409.326 1710.36 405.783 1716.1C364.927 1781.83 373.428 1802.15 380.277 1818.52C382.875 1824.5 385.237 1830.25 385.158 1837.33C385.001 1842.92 383.111 1848.2 379.648 1852.53C368.784 1865.99 347.686 1893.15 328.951 1923.3C302.185 1966.6 241.097 2135.14 218.425 2214.1C199.768 2278.89 165.602 2476.95 151.747 2559.14C150.015 2569.53 152.771 2580.31 159.226 2588.58C165.681 2596.92 175.364 2602.2 185.913 2602.98L1599.84 2712.8C1603.7 2713.12 1607.48 2712.8 1611.18 2712.01L1735.4 2683.28C1752.48 2679.34 1764.68 2663.76 1764.45 2646.2C1764.39 2644 1764.32 2641.69 1764.21 2639.28C1760.28 2553 1746.97 2341.23 1707.61 2239.68C1701.78 2224.73 1692.81 2205.67 1681.71 2184.58C1670.22 2162.93 1654.94 2136.01 1636.37 2104.6C1594.72 2034.45 1570.16 1983.76 1558.98 1945.03C1549.3 1911.33 1536.31 1883.7 1523.72 1856.94C1511.43 1830.72 1499.78 1806 1492.54 1778.21C1485.85 1752.47 1477.27 1730.35 1469.63 1710.83C1465.46 1700.04 1461.52 1689.81 1458.45 1680.6C1452.87 1663.2 1451.21 1647.69 1453.57 1633.29C1454.36 1628.41 1456.88 1620.93 1460.58 1610.38L1468.22 1588.89C1486.16 1538.43 1513.25 1462.07 1535.05 1404.44C1538.2 1396.02 1541.35 1387.75 1544.34 1379.8C1557.33 1345.64 1568.51 1316.12 1573.31 1300.45C1582.6 1270.14 1581.81 1238.26 1570.79 1200.24C1552.92 1138.6 1505.61 1098.92 1474.28 1072.71C1467.43 1066.96 1460.97 1061.61 1455.7 1056.73C1448.22 1049.72 1440.43 1042.63 1432.87 1033.9C1420.35 1019.57 1375.01 989.104 1223.39 1014.77C1218.51 1015.55 1213.55 1014.92 1209.06 1012.8C1176.79 997.842 1096.25 961.079 1044.69 943.681C1010.29 932.109 977.62 935.651 936.213 940.217C898.505 944.39 855.759 949.034 798.291 944.232C733.424 938.8 693.119 959.504 670.762 977.846C641.713 1001.62 609.516 1017.44 575.114 1024.92C552.836 1029.72 527.094 1036.42 498.518 1044.76C469.312 1053.34 453.017 1072.39 438.768 1091.21C422.315 1113.01 396.73 1165.83 378.624 1243.06Z" fill="#FFF8D9"/>
<path fill-rule="evenodd" clip-rule="evenodd" d="M1624.48 2752.48C1623.22 2752.48 1621.96 2752.43 1620.7 2752.32L159.305 2638.8C145.686 2637.78 133.011 2630.93 124.588 2620.15C116.165 2609.36 112.622 2595.35 114.905 2581.89C129.233 2496.79 164.658 2291.64 184.023 2224.33C207.64 2142.22 271.326 1966.6 299.43 1921.33C319.032 1889.68 341.153 1861.27 352.567 1847.1C354.693 1844.42 355.874 1841.11 355.952 1837.57C356.031 1832.3 354.063 1827.81 351.544 1822.14C343.75 1804.27 332.965 1779.87 378.467 1707.13C381.773 1701.85 405.783 1653.91 407.988 1648.17C410.113 1642.58 409.877 1636.51 409.405 1630.77C409.168 1628.25 408.617 1625.65 407.909 1622.97C404.76 1612.11 399.171 1601.56 393.896 1591.33C384.45 1573.3 375.475 1556.3 379.49 1538.66C381.694 1529.06 381.616 1519.77 379.254 1510.24C374.216 1489.54 359.495 1472.22 346.506 1457.03C331.785 1439.87 319.189 1425.07 321.393 1408.3C322.102 1403.5 322.653 1398.93 323.125 1394.68L323.204 1394.13C325.014 1379.01 326.589 1363.35 328.085 1348.16C329.738 1330.92 331.47 1313.12 333.674 1296.59C336.272 1276.44 339.578 1257.39 343.593 1239.91C344.144 1237.31 344.695 1234.8 345.167 1232.2C345.955 1228.58 346.663 1224.96 347.529 1221.33C367.446 1140.33 395.471 1084.28 413.498 1060.82C429.479 1039.96 447.821 1018.78 480.412 1009.26C510.09 1000.52 537.013 993.591 560.236 988.553C594.244 981.232 626.048 965.566 654.86 942.028C679.421 921.876 723.506 899.125 793.883 905.029C852.295 909.91 895.986 905.108 934.481 900.935C978.486 896.055 1013.28 892.276 1050.91 904.95C1104.68 923.056 1188.36 961.237 1221.82 976.745C1224.57 978.083 1227.72 978.477 1230.71 978.004C1284.64 968.873 1414.45 952.892 1456.49 1001.07C1463.97 1009.65 1471.76 1016.89 1479.32 1023.82C1484.75 1028.94 1491.36 1034.37 1499 1040.75C1532.53 1068.53 1583.15 1110.57 1603.38 1175.6C1616.06 1216.45 1617.16 1251.17 1606.92 1284.86C1601.57 1302.26 1588.35 1336.19 1573 1375.55L1566.3 1392.79C1540.09 1460.1 1506.55 1551.42 1488.61 1600.46L1486.95 1604.87C1483.72 1613.61 1480.65 1622.27 1479.87 1626.75C1477.51 1639.9 1478.92 1654.38 1484.2 1670.92C1487.27 1680.52 1491.36 1691.23 1495.69 1702.64C1503.48 1722.87 1512.22 1745.78 1519.15 1772.62C1526.39 1800.73 1538.44 1826 1551.27 1852.76C1564.49 1880.47 1578.19 1909.13 1588.5 1944.32C1600.23 1984.7 1625.98 2038 1667.15 2107.51C1686.43 2140.02 1702.34 2168.05 1714.38 2190.72C1726.27 2213 1735.71 2233.07 1741.85 2248.74C1783.34 2354.62 1797.35 2575.67 1801.37 2665.73C1801.53 2668.3 1801.6 2670.79 1801.6 2673.21C1802 2696.11 1786.1 2716.42 1763.82 2721.54L1635.42 2751.22C1631.88 2752.01 1628.18 2752.48 1624.48 2752.48ZM771.762 913.925C716.972 913.925 681.704 932.739 661.079 949.664C631.086 974.226 597.865 990.521 562.362 998.236C539.296 1003.2 512.688 1010.12 483.167 1018.7C453.41 1027.44 436.957 1046.41 421.292 1066.8C403.894 1089.47 376.656 1144.19 357.133 1223.7C356.267 1227.16 355.559 1230.7 354.85 1234.17C354.299 1236.84 353.748 1239.44 353.197 1242.04C349.261 1259.28 346.033 1278.01 343.436 1297.85C341.31 1314.23 339.578 1331.94 337.846 1349.1C336.35 1364.37 334.855 1380.12 332.965 1395.31V1395.86C332.414 1400.11 331.863 1404.76 331.234 1409.56C329.502 1422 340.838 1435.22 353.984 1450.65C367.682 1466.71 383.269 1484.9 388.858 1507.88C391.613 1518.9 391.692 1529.69 389.094 1540.87C385.945 1554.96 394.054 1570.39 402.634 1586.76C408.145 1597.39 413.97 1608.41 417.355 1620.22C418.3 1623.53 418.93 1626.75 419.245 1629.82C419.875 1636.83 420.032 1644.23 417.198 1651.71C414.758 1657.93 390.433 1706.73 386.89 1712.4C344.144 1780.65 353.276 1801.44 360.597 1818.2C363.352 1824.42 365.95 1830.33 365.871 1837.73C365.714 1843.47 363.824 1848.91 360.203 1853.31C348.946 1867.25 327.14 1895.27 307.774 1926.53C280.064 1971.24 217.008 2145.45 193.549 2227.01C174.341 2293.92 138.994 2498.6 124.667 2583.46C122.856 2594.33 125.69 2605.43 132.382 2614.08C139.073 2622.67 149.149 2628.18 160.092 2628.96L1621.49 2742.48C1625.42 2742.8 1629.36 2742.48 1633.22 2741.61L1761.61 2711.94C1779.4 2707.84 1792.08 2691.63 1791.76 2673.36C1791.71 2671.05 1791.63 2668.67 1791.53 2666.2C1787.51 2576.61 1773.58 2356.9 1732.64 2252.36C1726.66 2237.01 1717.37 2217.33 1705.72 2195.36C1693.68 2172.77 1677.93 2144.9 1658.64 2112.55C1617 2042.33 1590.94 1988.24 1578.98 1947.07C1568.98 1912.59 1555.44 1884.33 1542.37 1857.01C1529.3 1829.78 1517.02 1804.11 1509.55 1775.07C1502.85 1748.85 1494.12 1726.18 1486.48 1706.1C1482.07 1694.61 1477.9 1683.83 1474.75 1673.91C1469.08 1655.8 1467.51 1639.82 1470.18 1625.02C1471.05 1620.06 1473.73 1612.35 1477.66 1601.4L1479.32 1597.07C1497.34 1547.95 1530.8 1456.63 1557.09 1389.17L1563.78 1371.93C1579.06 1332.8 1592.28 1298.95 1597.48 1281.95C1607.16 1250.3 1605.98 1217.4 1593.94 1178.51C1574.65 1116.24 1525.37 1075.38 1492.7 1048.3C1484.98 1041.85 1478.29 1036.34 1472.62 1031.14C1464.83 1023.9 1456.88 1016.5 1449.01 1007.53C1436.1 992.725 1389.18 961.237 1232.36 987.687C1227.41 988.553 1222.29 987.845 1217.64 985.719C1184.34 970.211 1101.06 932.267 1047.76 914.318C1012.18 902.274 978.329 905.974 935.583 910.697C896.615 914.948 852.452 919.829 793.096 914.869C785.644 914.239 778.532 913.925 771.762 913.925Z" fill="#FFF8D9"/>
<path fill-rule="evenodd" clip-rule="evenodd" d="M1646.21 2782.08C1644.95 2782.08 1643.66 2782.03 1642.35 2781.92L133.483 2664.86C119.392 2663.76 106.403 2656.75 97.7433 2645.57C89.0839 2634.47 85.4626 2620.15 87.8243 2606.21C102.624 2518.44 139.151 2306.75 159.146 2237.16C183.55 2152.46 249.283 1971.24 278.253 1924.48C298.485 1891.81 321.314 1862.53 333.122 1847.96C335.405 1845.13 336.586 1841.66 336.665 1837.96C336.743 1832.45 334.618 1827.89 331.941 1821.98C323.518 1803.72 312.103 1778.77 359.573 1703.43C362.879 1698.23 387.834 1648.09 389.96 1642.5C392.085 1636.67 391.849 1630.3 391.219 1624.39C390.983 1621.79 390.353 1619.04 389.566 1616.28C386.181 1605.1 380.277 1594.16 374.609 1583.61C364.532 1565.03 355.007 1547.48 359.179 1529.29C361.462 1519.38 361.305 1509.77 358.786 1499.93C353.354 1478.68 337.688 1460.96 323.912 1445.38C308.325 1427.74 294.785 1412.47 297.146 1395.15C297.776 1390.82 298.248 1386.73 298.721 1382.87L299.036 1380.43C300.767 1366.26 302.342 1351.62 303.916 1337.45C305.963 1318.08 308.167 1298.09 310.765 1279.59C313.678 1258.88 317.378 1239.13 321.708 1221.02C322.337 1218.42 322.888 1215.82 323.439 1213.23C324.305 1209.45 325.093 1205.59 326.037 1201.81C347.45 1118.6 377.128 1060.66 396.021 1036.34C413.497 1013.9 431.918 992.961 465.06 983.2C495.683 974.226 523.472 967.062 547.482 961.866C582.592 954.309 615.419 938.092 645.176 913.767C670.525 893.063 716.026 869.604 788.687 875.666C848.988 880.704 894.096 875.744 933.85 871.415C979.273 866.376 1015.17 862.44 1053.98 875.587C1109.56 894.323 1195.84 933.605 1230.4 949.664C1233.31 951.081 1236.54 951.475 1239.76 950.924C1295.34 941.556 1429.33 925.024 1472.62 974.698C1480.42 983.593 1488.45 991.072 1496.24 998.314C1502.07 1003.59 1509.23 1009.49 1517.5 1016.34C1552.29 1044.92 1604.8 1088.14 1626.45 1153.79C1640.07 1194.96 1641.56 1231.8 1631.01 1266.36C1625.34 1285.1 1609.99 1323.44 1592.28 1367.76L1588.35 1377.6C1559.77 1449 1523.24 1545.04 1504.03 1595.97C1500.57 1605.03 1497.34 1614.08 1496.48 1618.64C1493.88 1632.11 1495.22 1647.06 1500.49 1664.38C1503.64 1674.54 1507.97 1685.95 1512.54 1698C1520.33 1718.7 1529.22 1742.16 1536.15 1769.4C1543.63 1798.76 1556.38 1824.97 1569.85 1852.76C1583.62 1881.03 1597.87 1910.31 1608.5 1946.44C1621.17 1989.66 1647.7 2045 1689.5 2115.38C1709.42 2149.07 1725.87 2177.96 1738.39 2201.5C1750.75 2224.65 1760.59 2245.35 1766.89 2261.33C1810.03 2370.28 1824.51 2599.29 1828.76 2692.65C1828.87 2695.27 1828.95 2697.85 1829 2700.36C1829.39 2723.9 1813.1 2744.92 1790.11 2750.2L1657.54 2780.82C1653.84 2781.68 1650.06 2782.08 1646.21 2782.08ZM403.815 1042.4C385.472 1065.94 356.66 1122.46 335.641 1204.25C334.697 1207.95 333.909 1211.65 333.122 1215.35C332.545 1217.98 331.941 1220.63 331.312 1223.3C327.061 1241.09 323.439 1260.54 320.527 1280.93C317.929 1299.27 315.803 1319.26 313.757 1338.55C312.182 1352.72 310.608 1367.44 308.797 1381.69L308.561 1384.05C308.036 1387.99 307.511 1392.11 306.987 1396.41C305.176 1409.32 317.299 1423.02 331.312 1438.84C345.797 1455.3 362.328 1473.95 368.39 1497.49C371.302 1508.91 371.381 1520.01 368.783 1531.5C365.477 1546.06 374.136 1562.04 383.268 1578.89C389.172 1589.91 395.313 1601.25 399.013 1613.37C400.036 1616.76 400.666 1620.06 401.059 1623.29C401.768 1630.53 402.083 1638.17 399.17 1645.96C396.887 1652.02 371.539 1703.03 367.917 1708.7C323.282 1779.47 333.043 1800.81 340.916 1817.89C343.828 1824.35 346.662 1830.41 346.505 1838.12C346.426 1844.1 344.458 1849.61 340.758 1854.18C329.107 1868.51 306.593 1897.48 286.676 1929.68C258.021 1975.89 192.84 2155.69 168.672 2239.92C148.755 2308.96 112.307 2520.25 97.5071 2607.87C95.6178 2619.04 98.5305 2630.62 105.537 2639.51C112.464 2648.49 122.934 2654.08 134.27 2655.02L1643.14 2772.08C1647.23 2772.47 1651.32 2772.08 1655.26 2771.21L1787.83 2740.59C1806.33 2736.34 1819.47 2719.49 1819.08 2700.52C1819.08 2698.11 1819 2695.61 1818.84 2693.04C1814.67 2600.23 1800.27 2372.57 1757.76 2265.03C1751.54 2249.37 1741.85 2228.98 1729.65 2206.15C1717.21 2182.77 1700.84 2153.95 1681 2120.42C1638.81 2049.25 1611.96 1993.28 1599.05 1949.2C1588.66 1913.93 1574.57 1884.96 1560.95 1857.01C1547.25 1828.83 1534.26 1802.22 1526.55 1771.84C1519.78 1745.15 1511.04 1721.93 1503.25 1701.46C1498.68 1689.26 1494.35 1677.76 1491.12 1667.29C1485.3 1648.4 1483.88 1631.87 1486.72 1616.76C1487.74 1611.72 1490.57 1603.77 1494.82 1592.51C1514.03 1541.58 1550.56 1445.38 1579.13 1373.9L1583.07 1364.14C1600.78 1319.97 1616.06 1281.79 1621.57 1263.53C1631.64 1230.47 1630.15 1196.62 1617.08 1156.86C1596.3 1093.96 1545.13 1051.85 1511.2 1023.98C1502.85 1017.05 1495.53 1011.07 1489.55 1005.56C1481.6 998.157 1473.33 990.521 1465.22 981.232C1451.84 965.881 1403.35 933.29 1241.34 960.685C1236.22 961.551 1230.95 960.843 1226.22 958.639C1191.82 942.658 1105.94 903.454 1050.83 884.876C1014.07 872.517 979.115 876.374 934.874 881.176C894.725 885.584 849.145 890.623 787.821 885.506C718.467 879.68 675.406 901.801 651.474 921.403C620.458 946.752 586.214 963.598 549.529 971.549C525.755 976.666 498.281 983.751 467.816 992.725C437.508 1001.54 420.897 1020.44 403.815 1042.4Z" fill="#FFF8D9"/>
<path fill-rule="evenodd" clip-rule="evenodd" d="M1668.01 2811.76C1666.65 2811.76 1665.31 2811.7 1664 2811.6L107.663 2690.84C93.1781 2689.74 79.7953 2682.49 70.8997 2671.08C62.0041 2659.59 58.3042 2644.86 60.6659 2630.54C75.938 2540.09 113.646 2321.79 134.271 2250.07C159.383 2162.69 227.242 1975.89 257.077 1927.71C278.017 1894.01 301.477 1863.78 313.679 1848.75C316.04 1845.84 317.3 1842.29 317.378 1838.44C317.457 1832.69 315.174 1827.89 312.262 1821.83C303.366 1803.17 291.164 1777.66 340.68 1699.73C343.987 1694.61 369.965 1642.18 371.933 1636.75C374.137 1630.61 373.822 1624.15 373.114 1618.01C372.72 1615.26 372.169 1612.43 371.224 1609.51C367.603 1598.02 361.384 1586.76 355.323 1575.9C344.616 1556.77 334.54 1538.74 338.87 1520.01C341.153 1509.69 340.995 1499.77 338.319 1489.62C332.493 1467.81 315.883 1449.71 301.319 1433.73C284.788 1415.62 270.46 1399.95 272.901 1382.01C273.478 1377.86 274.003 1373.87 274.475 1370.04L274.869 1366.81C276.522 1353.98 278.017 1340.76 279.513 1328C282.111 1306.04 284.709 1283.37 287.936 1262.58C291.164 1241.25 295.179 1220.94 299.824 1202.13C300.453 1199.55 301.083 1196.96 301.713 1194.33C302.579 1190.32 303.523 1186.3 304.547 1182.37C327.455 1096.8 358.786 1037.05 378.624 1011.93C397.596 987.766 416.096 967.062 449.632 957.221C481.278 947.932 509.933 940.532 534.651 935.179C570.942 927.386 604.871 910.697 635.573 885.584C661.709 864.172 708.548 840.004 783.413 846.302C845.682 851.498 892.128 846.381 933.142 841.894C980.061 836.777 1017.06 832.683 1057.05 846.145C1114.36 865.51 1203.4 906.052 1238.98 922.584C1242.05 924.001 1245.43 924.473 1248.74 923.922C1306.05 914.239 1444.21 897.235 1488.84 948.405C1496.79 957.536 1505.14 965.172 1513.17 972.651C1519.31 978.319 1527.02 984.617 1536 991.938C1571.97 1021.3 1626.45 1065.7 1649.51 1131.91C1664.23 1174.02 1666.04 1211.89 1655.18 1247.86C1649.12 1267.94 1631.49 1310.92 1611.1 1360.59L1610.39 1362.4C1578.51 1440.02 1538.04 1543.39 1521.12 1587.16C1517.5 1596.52 1513.95 1605.81 1513.01 1610.54C1510.18 1624.31 1511.43 1639.74 1516.87 1657.77C1520.09 1668.55 1524.58 1680.6 1529.3 1693.35C1537.26 1714.53 1546.23 1738.54 1553.16 1766.25C1560.87 1796.87 1574.25 1823.95 1588.42 1852.68C1602.75 1881.58 1617.55 1911.57 1628.49 1948.49C1642.03 1994.07 1670.06 2052.95 1711.78 2123.33C1732.33 2157.97 1749.33 2187.88 1762.32 2212.21C1775.23 2236.38 1785.47 2257.71 1792 2274.01C1836.64 2385.95 1851.67 2622.9 1856.08 2719.49C1856.18 2722.22 1856.26 2724.87 1856.32 2727.44C1856.87 2751.77 1840.02 2773.42 1816.33 2778.85L1679.58 2810.42C1675.81 2811.28 1671.87 2811.76 1668.01 2811.76ZM759.796 855.119C701.385 855.119 663.756 875.193 641.792 893.22C609.91 919.277 574.563 936.675 536.777 944.862C512.216 950.136 483.876 957.458 452.466 966.668C421.685 975.642 404.288 995.244 386.339 1017.99C382.088 1023.43 343.75 1074.12 314.151 1184.89C313.049 1188.74 312.183 1192.6 311.317 1196.54C310.687 1199.21 310.057 1201.86 309.428 1204.49C304.862 1222.99 300.847 1243.06 297.698 1264.08C294.47 1284.71 291.873 1307.3 289.353 1329.1C287.858 1341.94 286.283 1355.16 284.63 1368.07L284.236 1371.3C283.764 1375.13 283.239 1379.12 282.662 1383.27C280.851 1396.73 293.683 1410.82 308.64 1427.11C323.991 1443.88 341.389 1462.93 347.844 1487.1C350.993 1498.83 351.15 1510.32 348.474 1522.21C345.01 1537.25 354.22 1553.7 363.903 1571.1C370.201 1582.43 376.735 1594.08 380.671 1606.6C381.694 1610.06 382.482 1613.45 382.875 1616.83C383.741 1623.84 384.135 1632.03 381.222 1640.14C379.018 1646.12 352.567 1699.41 349.025 1705C302.421 1778.37 312.813 1800.1 321.157 1817.57C324.385 1824.19 327.376 1830.49 327.219 1838.59C327.14 1844.66 325.093 1850.32 321.315 1854.97C309.349 1869.85 286.126 1899.68 265.501 1932.9C235.98 1980.53 168.751 2165.92 143.796 2252.83C123.25 2323.99 85.6208 2541.82 70.4274 2632.19C68.4594 2643.76 71.4508 2655.73 78.6932 2665.02C85.857 2674.23 96.7206 2680.05 108.371 2681L1664.79 2801.76C1669.04 2802.07 1673.29 2801.76 1677.38 2800.81L1814.12 2769.25C1833.25 2764.84 1846.87 2747.36 1846.48 2727.68C1846.42 2725.16 1846.32 2722.59 1846.16 2719.97C1841.83 2623.85 1826.95 2388.23 1782.79 2277.63C1776.49 2261.72 1766.42 2240.71 1753.66 2216.85C1740.75 2192.61 1723.75 2162.85 1703.28 2128.37C1661.16 2057.28 1632.75 1997.69 1619.05 1951.24C1608.34 1915.19 1593.7 1885.59 1579.61 1857.01C1565.2 1827.81 1551.5 1800.26 1543.63 1768.69C1536.78 1741.45 1527.89 1717.76 1520.09 1696.82C1515.29 1683.9 1510.73 1671.7 1507.42 1660.6C1501.52 1641 1500.18 1623.92 1503.33 1608.57C1504.43 1603.45 1507.42 1595.19 1511.91 1583.61C1528.83 1539.76 1569.37 1436.4 1601.26 1358.7L1601.96 1356.89C1622.28 1307.38 1639.75 1264.63 1645.73 1245.03C1655.97 1211.1 1654.16 1175.2 1640.22 1135.13C1618.02 1071.6 1564.89 1028.31 1529.78 999.574C1520.65 992.174 1512.85 985.798 1506.48 979.972C1498.21 972.257 1489.71 964.385 1481.36 954.86C1467.59 939.037 1417.52 905.422 1250.39 933.684C1245.04 934.55 1239.69 933.841 1234.81 931.558C1199.38 915.105 1110.74 874.721 1053.9 855.513C1015.96 842.76 979.903 846.696 934.245 851.734C892.758 856.221 845.761 861.417 782.626 856.142C774.701 855.46 767.091 855.119 759.796 855.119Z" fill="#FFF8D9"/>
<path fill-rule="evenodd" clip-rule="evenodd" d="M1689.74 2841.43C1688.38 2841.43 1687.01 2841.38 1685.65 2841.28L81.8428 2716.82C66.9643 2715.64 53.188 2708.24 44.0562 2696.51C34.9244 2684.78 31.0671 2669.58 33.5862 2654.94C49.2519 2561.66 88.1405 2336.83 109.396 2262.98C135.295 2173.01 205.122 1980.53 235.981 1930.86C257.472 1896.22 281.718 1865.12 294.235 1849.62C296.675 1846.55 298.014 1842.85 298.092 1838.83C298.171 1832.85 295.731 1827.89 292.66 1821.67C283.135 1802.62 270.225 1776.56 321.788 1696.03C325.015 1690.91 352.017 1636.36 353.906 1631.08C356.189 1624.63 355.796 1617.94 354.93 1611.56C354.536 1608.8 353.906 1605.81 352.883 1602.82C349.104 1590.93 342.413 1579.36 336.036 1568.18C324.779 1548.5 314.152 1529.93 318.481 1510.72C320.922 1500.09 320.686 1489.78 317.852 1479.39C311.632 1456.95 294.156 1438.45 278.727 1422.08C261.25 1403.5 246.136 1387.44 248.655 1368.78C249.18 1364.9 249.678 1361.12 250.151 1357.44L250.702 1353.19C252.119 1342.09 253.536 1330.99 254.874 1319.97C258.023 1294.94 261.172 1269.12 265.029 1245.58C268.65 1223.7 272.98 1202.68 277.939 1183.23C278.622 1180.66 279.278 1178.06 279.907 1175.44C280.931 1171.19 281.954 1167.02 283.056 1162.84C307.46 1074.91 340.366 1013.43 361.149 987.451C378.231 966.118 397.597 941.95 434.281 931.165C466.872 921.64 496.393 914.004 521.899 908.493C559.292 900.463 594.245 883.223 625.891 857.324C652.814 835.36 701.07 810.484 778.139 816.939C842.298 822.292 890.239 817.018 932.513 812.373C980.77 807.099 1018.87 802.927 1060.12 816.782C1119.16 836.699 1210.87 878.5 1247.56 895.504C1250.79 897 1254.25 897.472 1257.71 896.921C1316.76 886.923 1459.01 869.368 1504.98 922.033C1513.25 931.48 1521.83 939.431 1530.09 947.067C1536.55 953.05 1544.89 959.82 1554.5 967.613C1591.81 997.764 1648.1 1043.27 1672.58 1110.1C1688.4 1153 1690.61 1192.05 1679.27 1229.36C1673.37 1249.2 1656.13 1290.69 1632.43 1347.21C1599.29 1426.17 1557.41 1529.85 1538.12 1578.34C1534.34 1588.02 1530.64 1597.63 1529.54 1602.43C1526.47 1616.68 1527.57 1632.18 1533.16 1651.24C1536.47 1662.57 1541.19 1675.25 1546.15 1688.71C1554.1 1710.36 1563.16 1734.92 1570.16 1763.1C1578.11 1794.9 1592.13 1822.93 1607 1852.61C1621.88 1882.13 1637.23 1912.75 1648.49 1950.54C1662.98 1999.11 1691.79 2059.88 1734.14 2131.2C1755.24 2166.87 1772.79 2197.72 1786.33 2222.99C1799.87 2248.26 1810.5 2270.31 1817.03 2286.68C1863.24 2400.91 1878.83 2646.28 1883.4 2746.42C1883.5 2749.25 1883.58 2751.98 1883.63 2754.6C1884.26 2779.64 1866.94 2801.92 1842.54 2807.51L1701.63 2840.02C1697.77 2840.96 1693.76 2841.43 1689.74 2841.43ZM753.893 825.756C693.592 825.756 654.861 846.46 632.189 864.96C599.283 891.883 562.913 909.753 524.024 918.176C498.676 923.608 469.47 931.165 437.037 940.612C403.344 950.531 385.001 973.439 368.863 993.592C364.376 999.181 324.228 1051.61 292.582 1165.52C291.48 1169.54 290.456 1173.63 289.512 1177.72C288.882 1180.4 288.226 1183.08 287.543 1185.75C282.584 1204.88 278.333 1225.59 274.791 1247.23C270.933 1270.54 267.942 1295.18 264.714 1321.15C263.297 1332.25 261.959 1343.35 260.463 1354.45L259.912 1358.7C259.44 1362.38 258.941 1366.18 258.416 1370.12C256.527 1384.05 270.146 1398.54 285.89 1415.31C302.107 1432.47 320.449 1451.99 327.298 1476.71C330.683 1488.75 330.919 1500.64 328.085 1512.92C324.622 1528.43 334.304 1545.35 344.617 1563.22C351.23 1574.88 358.157 1586.92 362.329 1599.83C363.432 1603.37 364.298 1606.92 364.691 1610.3C365.636 1617.46 366.187 1625.97 363.195 1634.39C360.834 1641.08 332.966 1696.74 330.053 1701.3C281.561 1777.11 292.582 1799.39 301.477 1817.26C304.862 1824.11 308.09 1830.64 307.933 1838.99C307.854 1845.21 305.728 1851.03 301.871 1855.83C289.512 1871.11 265.58 1901.89 244.325 1936.05C213.938 1985.17 144.663 2176.23 118.921 2265.66C97.7446 2339.03 59.0134 2563.47 43.269 2656.6C41.3009 2668.56 44.3711 2680.84 51.8497 2690.45C59.3283 2700.05 70.5068 2706.03 82.5513 2706.98L1686.43 2831.44C1690.76 2831.75 1695.17 2831.44 1699.42 2830.41L1840.34 2797.9C1860.17 2793.34 1874.27 2775.23 1873.79 2754.84C1873.74 2752.27 1873.66 2749.59 1873.56 2746.81C1868.99 2647.23 1853.56 2403.19 1807.9 2290.38C1801.53 2274.32 1791.06 2252.67 1777.59 2227.64C1764.21 2202.53 1746.66 2171.75 1725.64 2136.24C1682.89 2064.29 1653.76 2002.73 1639.04 1953.37C1628.02 1916.37 1612.83 1886.22 1598.19 1857.02C1583.07 1826.86 1568.82 1798.29 1560.64 1765.46C1553.71 1737.83 1544.73 1713.5 1536.86 1692.09C1531.82 1678.55 1527.1 1665.72 1523.72 1653.99C1517.73 1633.6 1516.47 1616.05 1519.94 1600.3C1521.04 1595.11 1524.35 1586.29 1528.99 1574.64C1548.2 1526.23 1590.24 1422.39 1623.3 1343.43C1643.06 1296.2 1663.53 1247.39 1669.82 1226.53C1680.45 1191.34 1678.33 1154.34 1663.37 1113.49C1639.75 1049.25 1584.73 1004.69 1548.28 975.249C1538.52 967.377 1530.09 960.528 1523.4 954.309C1514.9 946.516 1506.16 938.407 1497.5 928.488C1483.33 912.272 1431.69 877.477 1259.37 906.604C1253.94 907.548 1248.42 906.761 1243.47 904.478C1206.86 887.474 1115.54 845.909 1056.97 826.15C1017.85 813.003 980.691 817.018 933.615 822.214C890.869 826.858 842.455 832.211 777.352 826.78C769.165 826.097 761.345 825.756 753.893 825.756Z" fill="#FFF8D9"/>
<path fill-rule="evenodd" clip-rule="evenodd" d="M1711.47 2871.03C1710.05 2871.03 1708.66 2870.98 1707.29 2870.88L56.0206 2742.8C40.7486 2741.62 26.5786 2734.06 17.2107 2721.93C7.84275 2709.89 3.90664 2694.38 6.42575 2679.27C22.6425 2583.3 62.6333 2351.86 84.518 2275.82C111.205 2183.24 183.078 1985.17 214.803 1934.08C236.924 1898.42 261.879 1866.38 274.789 1850.48C277.308 1847.25 278.725 1843.4 278.804 1839.22C278.883 1833 276.285 1827.97 272.979 1821.51C262.981 1802.07 249.283 1775.38 302.893 1692.25C306.042 1687.37 334.146 1630.45 335.878 1625.41C338.239 1618.57 337.688 1611.4 336.822 1605.18C336.35 1602.27 335.641 1599.2 334.618 1596.13C330.524 1583.85 323.518 1571.88 316.669 1560.31C304.861 1540.16 293.682 1521.19 298.17 1501.43C300.689 1490.41 300.374 1479.78 297.304 1469.07C290.77 1446.09 272.349 1427.11 256.132 1410.42C237.711 1391.3 221.731 1374.84 224.407 1355.63C224.879 1352.07 225.352 1348.58 225.824 1345.16L226.533 1339.57C227.635 1330.99 228.816 1322.49 229.918 1313.99C233.618 1285.26 237.475 1255.5 242.198 1228.66C246.056 1206.14 250.779 1184.49 256.053 1164.42C256.736 1161.79 257.418 1159.2 258.1 1156.62C259.202 1152.14 260.383 1147.73 261.564 1143.4C295.651 1024.45 338.948 968.951 343.75 962.968C361.62 941.005 381.851 915.971 418.929 905.186C452.465 895.346 482.852 887.474 509.145 881.806C547.64 873.54 583.616 855.749 616.286 829.141C643.917 806.469 693.591 780.884 772.942 787.575C838.99 793.086 888.349 787.654 931.882 782.852C981.556 777.42 1020.76 773.169 1063.19 787.418C1123.89 807.886 1218.35 850.868 1256.22 868.423C1259.44 869.997 1263.14 870.47 1266.69 869.84C1327.46 859.606 1473.88 841.579 1521.12 895.661C1529.62 905.422 1538.44 913.61 1547.02 921.482C1553.87 927.779 1562.76 934.943 1573.07 943.209C1611.57 974.147 1669.74 1020.83 1695.72 1088.22C1712.57 1132.06 1715.09 1172.21 1703.44 1210.94C1697.22 1231.57 1677.54 1278.01 1654.47 1332.1C1619.76 1413.1 1575.99 1518.35 1555.2 1569.44C1551.19 1579.44 1547.25 1589.36 1546.15 1594.24C1542.77 1608.96 1543.79 1624.94 1549.46 1644.62C1552.92 1656.67 1557.8 1670.13 1563 1684.38C1571.03 1706.42 1580.16 1731.37 1587.16 1759.87C1595.35 1792.94 1610.07 1821.83 1625.58 1852.45C1641.01 1882.68 1656.91 1913.93 1668.48 1952.58C1683.99 2004.15 1713.59 2066.97 1756.42 2139.15C1778.22 2175.84 1796.33 2207.64 1810.34 2233.7C1824.59 2260.31 1835.3 2282.43 1842.15 2299.28C1889.93 2416.65 1905.99 2669.9 1910.71 2773.26C1910.82 2776.2 1910.92 2779.01 1911.03 2781.68C1911.66 2807.51 1893.94 2830.41 1868.75 2836.16L1723.75 2869.62C1719.73 2870.56 1715.56 2871.03 1711.47 2871.03ZM747.909 796.392C685.876 796.392 645.885 817.647 622.505 836.777C588.654 864.408 551.261 882.829 511.192 891.489C485.135 897.078 455.063 904.871 421.685 914.633C387.519 924.631 369.177 947.303 351.386 969.187C346.741 975.013 304.625 1029.09 271.089 1146.08C269.83 1150.41 268.728 1154.74 267.626 1159.07C266.996 1161.69 266.34 1164.31 265.657 1166.94C260.383 1186.78 255.738 1208.11 251.881 1230.31C247.236 1257 243.537 1285.26 239.679 1315.25C238.577 1323.75 237.475 1332.33 236.294 1340.83L235.586 1346.5C235.113 1349.91 234.641 1353.4 234.169 1356.97C232.201 1371.46 246.607 1386.34 263.296 1403.58C280.3 1421.13 299.508 1441.05 306.829 1466.4C310.372 1478.76 310.686 1490.96 307.774 1503.63C304.153 1519.53 314.386 1536.93 325.171 1555.27C332.256 1567.32 339.577 1579.76 343.986 1593.06C345.167 1596.6 346.033 1600.22 346.584 1603.77C347.607 1611.17 348.237 1619.83 345.245 1628.64C342.884 1635.41 314.229 1692.88 311.159 1697.6C260.619 1775.93 272.349 1798.68 281.717 1817.02C285.338 1824.03 288.802 1830.72 288.644 1839.38C288.566 1845.84 286.44 1851.74 282.425 1856.7C269.672 1872.44 245.032 1904.09 223.148 1939.28C191.895 1989.82 120.494 2186.47 94.0434 2278.57C72.2374 2354.07 32.3253 2585.12 16.1873 2680.92C14.0618 2693.28 17.2894 2706.03 25.0041 2715.87C32.7189 2725.79 44.291 2732.01 56.7291 2732.96L1708.08 2861.04C1712.57 2861.43 1717.06 2861.04 1721.46 2860.01L1866.55 2826.56C1887.17 2821.83 1901.66 2803.1 1901.11 2782C1901.06 2779.32 1900.98 2776.57 1900.87 2773.73C1896.15 2670.84 1880.17 2418.93 1833.01 2302.98C1826.4 2286.68 1815.54 2264.32 1801.6 2238.34C1787.75 2212.45 1769.64 2180.8 1747.99 2144.19C1704.7 2071.3 1674.78 2007.77 1659.04 1955.42C1647.7 1917.63 1631.96 1886.77 1616.84 1856.94C1600.94 1825.76 1585.98 1796.4 1577.64 1762.23C1570.71 1734.29 1561.66 1709.57 1553.71 1687.76C1548.51 1673.36 1543.55 1659.74 1540.01 1647.38C1533.95 1626.28 1532.77 1608.17 1536.55 1592.04C1537.73 1586.76 1541.19 1577.71 1546.07 1565.74C1566.85 1514.65 1610.7 1409.24 1645.34 1328.16C1668.41 1274.39 1687.93 1228.26 1693.99 1208.03C1705.01 1171.5 1702.49 1133.48 1686.43 1091.76C1661.48 1026.89 1604.56 981.153 1566.85 950.924C1556.46 942.501 1547.41 935.258 1540.32 928.724C1531.59 920.695 1522.53 912.35 1513.72 902.195C1499.07 885.427 1445.86 849.608 1268.34 879.602C1262.75 880.546 1257.16 879.759 1252.04 877.397C1214.42 859.921 1120.34 817.096 1059.96 796.786C1019.74 783.167 981.398 787.418 932.984 792.692C888.979 797.494 839.148 803.005 772.076 797.416C763.679 796.681 755.623 796.34 747.909 796.392Z" fill="#FFF8D9"/>
<path fill-rule="evenodd" clip-rule="evenodd" d="M1733.19 2900.71C1731.78 2900.71 1730.36 2900.66 1728.94 2900.55L30.2006 2768.85C14.5349 2767.59 0.0500278 2759.8 -9.63279 2747.44C-19.2369 2735.08 -23.2517 2719.1 -20.6539 2703.59C-4.04352 2604.87 37.1281 2366.9 59.6426 2288.73C87.0379 2193.47 161.037 1989.82 193.628 1937.31C216.378 1900.55 242.042 1867.64 255.346 1851.27C258.022 1848.04 259.439 1844.03 259.518 1839.7C259.597 1833.24 256.841 1827.97 253.299 1821.35C248.025 1811.43 241.491 1799.08 243.774 1778.53C246.371 1755.62 259.518 1726.18 283.922 1688.55C287.071 1683.75 316.277 1624.55 317.93 1619.67C320.291 1612.58 319.583 1605.1 318.638 1598.81C318.166 1595.74 317.379 1592.59 316.277 1589.44C312.026 1576.76 304.547 1564.48 297.383 1552.6C284.945 1531.89 273.216 1512.37 277.86 1492.14C280.458 1480.72 280.064 1469.86 276.837 1458.76C269.831 1435.22 250.622 1415.86 233.618 1398.7C214.174 1379.17 197.406 1362.33 200.162 1342.49L204.413 1310.84C209.136 1275.81 213.623 1242.67 219.291 1211.65C223.542 1188.51 228.58 1166.31 234.248 1145.53C234.93 1143.01 235.613 1140.46 236.295 1137.89C237.476 1133.17 238.735 1128.52 240.074 1123.88C276.128 1001.86 321.236 944.626 326.274 938.565L330.132 941.635L326.353 938.486C345.876 914.633 366.108 890.072 403.579 879.13C438.06 869.053 469.312 860.945 496.314 855.119C535.99 846.617 573.068 828.354 606.604 800.88C635.101 777.657 686.113 751.364 767.669 758.212C835.685 763.88 886.46 758.291 931.253 753.41C982.344 747.821 1022.65 743.334 1066.18 758.055C1128.77 779.074 1225.91 823.316 1264.8 841.343C1268.18 842.917 1271.96 843.468 1275.66 842.839C1338.17 832.29 1488.76 813.79 1537.33 869.368C1546.07 879.366 1555.13 887.789 1563.94 895.897C1571.11 902.51 1580.63 910.067 1591.65 918.805C1631.33 950.53 1691.39 998.393 1718.79 1066.41C1736.74 1111.12 1739.57 1152.3 1727.53 1192.44C1721.15 1213.93 1699.74 1263.53 1676.52 1316.9C1640.62 1399.17 1593.86 1508.51 1572.29 1560.63C1568.04 1570.86 1563.94 1581.09 1562.68 1586.13C1559.06 1601.09 1560.01 1617.62 1565.83 1638.01C1569.37 1650.68 1574.41 1664.78 1579.77 1679.73C1587.95 1702.25 1597.08 1727.75 1604.17 1756.72C1612.59 1790.97 1627.94 1820.8 1644.16 1852.37C1660.06 1883.23 1676.52 1915.11 1688.48 1954.63C1705.09 2009.26 1735.4 2073.97 1778.78 2147.11C1801.13 2184.74 1819.79 2217.48 1834.27 2244.41C1849.15 2271.96 1860.17 2294.71 1867.18 2311.95C1916.54 2432.32 1933.15 2693.52 1938.03 2800.18C1938.19 2803.18 1938.29 2806.06 1938.34 2808.84C1939.05 2835.37 1920.87 2858.91 1895.05 2864.89L1745.79 2899.3C1741.62 2900.24 1737.45 2900.71 1733.19 2900.71ZM330.132 941.635L333.91 944.784C329.03 950.767 285.103 1006.5 249.599 1126.71C248.261 1131.2 247.001 1135.84 245.82 1140.41C245.138 1142.98 244.456 1145.55 243.774 1148.12C238.184 1168.59 233.225 1190.63 228.974 1213.46C223.385 1244.24 218.897 1277.23 214.174 1312.18L209.923 1343.83C207.876 1358.78 222.991 1374.06 240.625 1391.77C258.416 1409.72 278.647 1430.03 286.283 1456C290.062 1468.68 290.456 1481.2 287.464 1494.34C283.686 1510.72 294.471 1528.59 305.885 1547.48C313.285 1559.84 321 1572.59 325.644 1586.29C326.904 1589.91 327.849 1593.61 328.4 1597.31C329.502 1604.32 330.368 1613.61 327.219 1622.82C325.015 1629.43 295.258 1689.26 292.266 1693.9C239.759 1774.75 252.118 1797.97 262.037 1816.71C265.894 1823.95 269.516 1830.8 269.358 1839.85C269.28 1846.39 267.075 1852.53 262.982 1857.49C249.914 1873.7 224.487 1906.22 202.051 1942.51C169.775 1994.39 96.4058 2196.7 69.0893 2291.48C46.7322 2369.1 5.63928 2606.69 -10.9711 2705.25C-13.0966 2718 -9.79021 2731.14 -1.83928 2741.38C6.11165 2751.53 18.0774 2757.99 30.9091 2759.01L1729.65 2890.71C1734.3 2891.03 1739.02 2890.71 1743.59 2889.61L1892.84 2855.21C1914.1 2850.33 1929.06 2830.96 1928.5 2809.08C1928.4 2806.35 1928.29 2803.54 1928.19 2800.66C1923.31 2694.46 1906.86 2434.68 1858.05 2315.65C1851.28 2298.96 1840.02 2275.97 1825.61 2249.13C1811.21 2222.29 1792.55 2189.69 1770.27 2152.14C1726.58 2078.38 1695.88 2012.88 1679.03 1957.46C1667.38 1918.89 1651.09 1887.32 1635.42 1856.86C1618.89 1824.74 1603.22 1794.43 1594.64 1759.08C1587.64 1730.59 1578.58 1705.32 1570.48 1683.04C1565.04 1667.92 1559.93 1653.68 1556.31 1640.69C1550.09 1618.57 1549.06 1600.54 1553.08 1583.77C1554.42 1578.42 1558.04 1569.13 1563.16 1556.85C1584.8 1504.66 1631.56 1395.23 1667.46 1312.97C1690.53 1259.91 1711.78 1210.55 1718.08 1189.61C1729.5 1151.67 1726.66 1112.62 1709.58 1070.11C1683.21 1004.46 1624.4 957.615 1585.43 926.599C1574.33 917.703 1564.65 909.989 1557.25 903.14C1548.28 894.795 1538.99 886.293 1529.86 875.823C1514.82 858.583 1459.95 821.741 1277.32 852.6C1271.65 853.545 1265.9 852.758 1260.63 850.317C1221.9 832.369 1125.15 788.284 1063.03 767.423C1021.55 753.41 982.187 757.74 932.277 763.172C887.09 768.131 835.763 773.799 766.882 768.053C688.553 761.44 639.903 786.474 612.901 808.516C578.106 837.013 539.611 855.907 498.439 864.802C471.595 870.549 440.657 878.579 406.335 888.576C371.776 898.731 353.433 921.088 333.989 944.705L330.132 941.635Z" fill="#FFF8D9"/>
<path fill-rule="evenodd" clip-rule="evenodd" d="M1755 2930.31C1753.48 2930.31 1751.98 2930.26 1750.51 2930.15L4.30014 2794.83C-11.6804 2793.57 -26.5589 2785.54 -36.4779 2772.87C-46.3181 2760.19 -50.4904 2743.82 -47.8139 2728C-30.6525 2626.52 11.6213 2381.93 34.7656 2301.64C62.9481 2203.79 138.994 1994.46 172.529 1940.46C195.91 1902.75 222.282 1868.9 235.9 1852.13C238.656 1848.75 240.151 1844.58 240.23 1840.09C240.309 1833.4 237.396 1827.97 233.617 1821.2C228.107 1811.04 221.179 1798.45 223.541 1777.35C226.06 1753.81 239.679 1723.58 265.028 1684.85C268.098 1680.21 298.327 1618.57 299.901 1614C302.342 1606.52 301.555 1598.89 300.453 1592.43C299.98 1589.28 299.114 1585.97 297.933 1582.75C293.446 1569.68 285.653 1557.08 278.095 1544.8C265.106 1523.63 252.747 1503.63 257.47 1482.85C260.147 1471.04 259.832 1459.86 256.368 1448.53C248.968 1424.36 228.815 1404.52 211.024 1387.04C190.635 1367.05 173.08 1349.73 175.914 1329.34L178.276 1311.86C184.023 1270.3 189.454 1231.02 196.382 1194.65C200.948 1170.95 206.38 1148.12 212.363 1126.71C213.045 1124.24 213.727 1121.78 214.409 1119.31C215.748 1114.27 217.086 1109.31 218.582 1104.43C256.683 979.107 303.601 920.38 308.876 914.082L309.978 912.744C329.816 888.891 350.362 864.172 388.228 853.073C423.731 842.681 455.771 834.415 483.56 828.433C524.259 819.616 562.44 800.88 596.999 772.697C626.204 748.845 678.633 721.843 762.472 728.849C832.377 734.675 884.57 728.928 930.623 723.89C983.051 718.143 1024.54 713.577 1069.25 728.613C1133.57 750.262 1233.39 795.763 1273.38 814.263C1276.92 815.916 1280.86 816.467 1284.71 815.837C1348.87 804.973 1503.64 785.923 1553.47 842.996C1562.45 853.309 1571.81 861.968 1580.87 870.313C1588.35 877.24 1598.5 885.191 1610.23 894.48C1651.17 926.914 1713.12 975.879 1741.85 1044.6C1760.9 1090.1 1764.13 1132.46 1751.69 1173.94C1745.71 1194.02 1726.9 1237.71 1698.56 1301.71C1661.56 1385.08 1612.2 1497.73 1589.37 1551.81C1585.12 1561.81 1580.55 1572.83 1579.29 1578.02C1575.36 1593.3 1576.3 1610.3 1582.13 1631.48C1585.75 1644.7 1591.02 1659.42 1596.53 1675.01C1604.8 1698 1614.09 1724.05 1621.25 1753.57C1629.83 1789 1645.81 1819.7 1662.74 1852.21C1679.19 1883.7 1696.19 1916.29 1708.48 1956.68C1726.11 2014.38 1757.28 2081.06 1801.05 2154.98C1824.04 2193.71 1843.33 2227.48 1858.28 2255.19C1873.63 2283.69 1885.05 2306.99 1892.29 2324.62C1943.22 2448.06 1960.39 2717.13 1965.35 2827.03C1965.5 2830.12 1965.61 2833.12 1965.66 2836C1966.53 2863.16 1947.79 2887.41 1921.26 2893.55L1767.83 2928.89C1763.66 2929.84 1759.33 2930.31 1755 2930.31ZM736.022 737.587C670.289 737.587 627.936 760.102 603.218 780.333C567.478 809.539 527.881 828.984 485.607 838.037C458.054 844.02 426.25 852.285 390.983 862.598C356.03 872.753 337.373 895.268 317.535 919.042L316.433 920.38C311.316 926.52 265.5 983.83 228.028 1107.27C226.611 1112.07 225.273 1117.03 223.935 1121.91C223.252 1124.37 222.57 1126.87 221.888 1129.39C215.905 1150.48 210.631 1173.08 206.144 1196.54C199.137 1232.67 193.784 1271.8 188.037 1313.2L185.676 1330.68C183.55 1346.19 199.452 1361.85 217.952 1380.04C236.609 1398.3 257.706 1419.08 265.815 1445.61C269.751 1458.68 270.223 1471.51 267.074 1484.97C263.296 1501.9 274.553 1520.24 286.519 1539.69C294.312 1552.36 302.421 1565.43 307.301 1579.44C308.64 1583.22 309.584 1587.08 310.214 1590.78C311.395 1598.02 312.418 1607.47 309.269 1617.07C307.065 1623.68 276.049 1686.03 273.293 1690.28C218.818 1773.49 231.807 1797.34 242.277 1816.39C246.37 1823.87 250.228 1830.96 250.07 1840.25C249.992 1846.94 247.709 1853.24 243.536 1858.35C230.075 1874.96 204.018 1908.42 180.874 1945.66C147.732 1999.03 72.316 2207.01 44.2122 2304.31C21.2254 2384.22 -20.9696 2628.33 -38.0523 2729.65C-40.2565 2742.8 -36.8715 2756.34 -28.6844 2766.81C-20.4973 2777.35 -8.21667 2783.97 5.08736 2784.99L1751.3 2920.31C1756.18 2920.71 1760.98 2920.31 1765.63 2919.29L1919.06 2883.87C1941.02 2878.83 1956.53 2858.83 1955.82 2836.24C1955.77 2833.4 1955.66 2830.49 1955.51 2827.5C1950.55 2718.08 1933.46 2450.42 1883.16 2328.32C1876.07 2311.08 1864.82 2288.02 1849.55 2259.84C1834.67 2232.28 1815.54 2198.67 1792.63 2160.02C1748.39 2085.47 1716.9 2018 1699.11 1959.59C1686.98 1920.07 1670.22 1887.87 1654 1856.78C1636.76 1823.72 1620.46 1792.46 1611.65 1755.86C1604.56 1726.89 1595.35 1701.07 1587.24 1678.32C1581.65 1662.57 1576.3 1647.69 1572.6 1634.07C1566.3 1611.17 1565.36 1592.59 1569.69 1575.58C1570.87 1570.86 1573.94 1562.83 1580.24 1547.95C1603.07 1493.87 1652.5 1381.14 1689.5 1297.69C1711.62 1247.78 1735.79 1192.76 1742.25 1171.11C1753.98 1131.91 1750.83 1091.76 1732.72 1048.38C1705.01 982.019 1644.24 933.999 1604.09 902.195C1592.2 892.827 1581.97 884.719 1574.18 877.555C1564.96 869.053 1555.36 860.236 1546.07 849.53C1530.56 831.739 1474.12 793.874 1286.29 825.52C1280.54 826.543 1274.56 825.756 1269.21 823.237C1229.45 804.737 1129.95 759.472 1066.1 737.981C1023.44 723.653 982.973 728.062 931.646 733.73C885.2 738.768 832.456 744.594 761.606 738.689C752.711 737.902 744.209 737.587 736.022 737.587Z" fill="#FFF8D9"/>
<path fill-rule="evenodd" clip-rule="evenodd" d="M1776.73 2959.99C1775.21 2959.99 1773.68 2959.94 1772.16 2959.83L-21.5196 2820.81C-37.8938 2819.55 -53.1659 2811.36 -63.3211 2798.37C-73.4762 2785.38 -77.6485 2768.62 -74.8932 2752.32C-57.3382 2648.17 -13.8836 2396.97 9.89043 2314.47C38.8601 2214.02 116.952 1999.11 151.354 1943.69C175.364 1904.96 202.445 1870.24 216.457 1852.92C219.291 1849.46 220.866 1845.13 220.944 1840.48C221.023 1833.56 217.874 1828.05 213.938 1820.96C208.113 1810.65 200.87 1797.82 203.232 1776.17C205.751 1752.08 219.842 1720.98 246.135 1681.15C249.284 1676.35 280.301 1613.06 281.875 1608.25C284.394 1600.38 283.45 1592.19 282.348 1585.97C281.796 1582.75 280.852 1579.36 279.671 1575.98C274.869 1562.59 266.76 1549.61 258.81 1537.09C245.191 1515.36 232.28 1494.81 237.161 1473.48C239.916 1461.36 239.523 1449.86 235.823 1438.21C228.108 1413.49 207.01 1393.26 188.432 1375.39C167.098 1354.85 148.677 1337.21 151.59 1316.19L152.299 1311.39C152.876 1307.04 153.453 1302.79 154.031 1298.64C159.62 1258.65 165.76 1216.37 173.554 1177.72C178.434 1153.4 184.102 1129.86 190.479 1107.82C191.161 1105.51 191.817 1103.2 192.447 1100.89C193.943 1095.62 195.517 1090.18 197.092 1084.91C237.161 956.434 285.969 896.133 291.401 889.599L293.526 887.08C313.758 863.07 334.619 838.273 372.799 827.094C409.247 816.388 442.232 807.886 470.808 801.745C512.609 792.692 551.892 773.484 587.317 744.436C617.31 719.953 671.156 692.243 757.199 699.486C828.993 705.468 882.603 699.564 929.915 694.369C983.84 688.464 1026.43 683.82 1072.32 699.249C1138.37 721.449 1240.95 768.131 1281.96 787.182C1285.66 788.914 1289.67 789.465 1293.69 788.756C1359.58 777.657 1518.44 758.133 1569.69 816.703C1578.9 827.251 1588.5 836.147 1597.79 844.649C1605.67 851.97 1616.37 860.393 1628.81 870.155C1671 903.297 1734.85 953.364 1764.92 1022.72C1785.07 1069.16 1788.62 1112.54 1775.86 1155.44C1769.64 1176.07 1749.25 1222.75 1720.6 1286.52C1688.87 1356.89 1631.88 1483.79 1606.37 1542.91C1601.97 1553.23 1597.24 1564.48 1595.82 1569.84C1591.65 1585.42 1592.52 1602.98 1598.42 1624.86C1602.12 1638.72 1607.55 1653.99 1613.3 1670.29C1621.65 1693.75 1631.01 1720.35 1638.26 1750.35C1647.07 1787.03 1663.68 1818.6 1681.32 1852.06C1698.32 1884.17 1715.88 1917.47 1728.55 1958.72C1747.21 2019.5 1779.09 2088.22 1823.41 2162.93C1847.03 2202.76 1866.79 2237.4 1882.22 2265.9C1898.12 2295.34 1909.93 2319.35 1917.33 2337.22C1969.83 2463.8 1987.55 2740.75 1992.66 2853.95C1992.82 2857.1 1992.95 2860.14 1993.06 2863.08C1993.92 2891.03 1974.79 2915.91 1947.48 2922.2L1789.95 2958.49C1785.62 2959.52 1781.14 2959.99 1776.73 2959.99ZM730.119 708.145C662.496 708.145 619.042 731.368 593.536 752.151C556.851 782.065 516.231 802.06 472.855 811.35C444.515 817.49 411.845 825.992 375.633 836.541C340.287 846.853 321.236 869.525 301.083 893.457L298.958 895.976C293.683 902.274 245.978 961.236 206.538 1087.9C204.964 1093.02 203.468 1098.29 201.972 1103.57C201.29 1105.88 200.634 1108.21 200.004 1110.57C193.706 1132.38 188.038 1155.6 183.236 1179.69C175.522 1218.03 169.381 1260.14 163.792 1299.98C163.215 1304.12 162.637 1308.37 162.06 1312.73L161.43 1317.53C159.147 1333.59 175.915 1349.65 195.281 1368.23C214.725 1386.97 236.767 1408.14 245.269 1435.22C249.442 1448.6 249.914 1461.83 246.765 1475.69C242.829 1493 254.637 1511.9 267.233 1531.81C275.341 1544.88 283.843 1558.26 288.96 1572.67C290.298 1576.61 291.401 1580.46 292.03 1584.24C293.369 1591.64 294.471 1601.33 291.243 1611.24C289.275 1617.62 257.078 1682.49 254.401 1686.58C197.8 1772.31 211.498 1796.64 222.519 1816.16C226.848 1823.79 230.942 1831.04 230.785 1840.64C230.706 1847.49 228.344 1853.94 224.093 1859.14C210.238 1876.22 183.473 1910.62 159.699 1948.88C125.691 2003.67 48.1493 2217.25 19.3371 2317.22C-4.27954 2399.25 -47.6554 2649.98 -65.2104 2753.97C-67.4933 2767.51 -63.9508 2781.45 -55.5276 2792.31C-47.1043 2803.1 -34.4301 2809.95 -20.7324 2810.97L1772.95 2949.99C1777.91 2950.39 1782.87 2949.99 1787.67 2948.89L1945.27 2912.52C1967.94 2907.32 1983.92 2886.62 1983.22 2863.4C1983.11 2860.51 1982.98 2857.52 1982.82 2854.42C1977.71 2741.69 1960.15 2466.09 1908.19 2341C1900.95 2323.44 1889.3 2299.75 1873.56 2270.62C1858.21 2242.2 1838.45 2207.64 1814.91 2167.97C1770.19 2092.55 1738 2023.12 1719.1 1961.64C1706.67 1921.25 1689.35 1888.43 1672.58 1856.62C1654.63 1822.61 1637.7 1790.57 1628.65 1752.71C1621.57 1723.19 1612.2 1696.82 1604.01 1673.59C1598.19 1657.14 1592.75 1641.63 1588.9 1627.46C1582.52 1603.77 1581.66 1584.64 1586.3 1567.32C1587.56 1562.52 1590.79 1554.33 1597.32 1539.06C1622.83 1479.78 1679.82 1352.88 1711.55 1282.42C1736.27 1227.63 1760.04 1173.94 1766.34 1152.61C1778.46 1112.07 1775 1070.82 1755.87 1026.65C1726.82 959.662 1664.16 910.461 1622.67 877.87C1610.07 868.029 1599.21 859.449 1591.1 851.97C1581.58 843.153 1571.81 834.179 1562.21 823.158C1546.23 804.894 1488.29 765.927 1295.34 798.518C1289.36 799.541 1283.3 798.675 1277.79 796.156C1236.93 777.184 1134.75 730.659 1069.17 708.617C1025.33 693.896 983.682 698.383 931.017 704.209C883.312 709.405 829.151 715.387 756.412 709.247C747.227 708.512 738.463 708.145 730.119 708.145Z" fill="#FFF8D9"/>
<path fill-rule="evenodd" clip-rule="evenodd" d="M1798.46 2989.67C1796.93 2989.67 1795.39 2989.59 1793.81 2989.43L-47.3399 2846.79C-64.1864 2845.53 -79.7734 2837.1 -90.1647 2823.8C-100.556 2810.5 -104.886 2793.33 -102.052 2776.65C-84.0244 2669.82 -39.389 2412.01 -14.9852 2327.38C14.693 2224.25 94.8321 2003.75 130.178 1946.84C154.818 1907.16 182.607 1871.5 197.013 1853.79C199.926 1850.17 201.579 1845.68 201.658 1840.96C201.737 1833.71 198.43 1828.05 194.258 1820.8C188.118 1810.25 180.56 1797.11 182.843 1774.91C185.441 1750.27 200.005 1718.39 227.243 1677.37C230.234 1672.88 262.431 1607.15 263.848 1602.59C265.816 1596.13 265.974 1589.04 264.163 1579.6C263.533 1576.21 262.589 1572.75 261.329 1569.29C256.291 1555.59 247.789 1542.21 239.523 1529.37C225.275 1507.1 211.813 1486.08 216.851 1464.19C219.685 1451.75 219.213 1439.87 215.356 1427.9C207.247 1402.63 185.284 1381.93 165.839 1363.66C143.561 1342.72 124.353 1324.62 127.344 1303.05L127.659 1301.08C128.394 1295.57 129.129 1290.22 129.863 1285.02C135.295 1246.68 142.065 1201.89 150.646 1160.72C155.92 1135.84 161.903 1111.67 168.595 1089L170.484 1082.55C172.137 1076.88 173.869 1071.05 175.601 1065.46C217.638 933.684 268.336 871.808 274.003 865.196L277.152 861.496C297.699 837.328 318.875 812.294 357.449 801.037C394.921 790.095 428.692 781.357 457.977 775.059C500.959 765.77 541.265 746.01 577.713 716.253C608.494 691.141 663.678 662.722 751.925 670.044C825.688 676.184 880.714 670.201 929.286 664.848C984.628 658.786 1028.32 654.063 1075.39 669.886C1143.17 692.716 1248.43 740.579 1290.54 760.102C1294.4 761.912 1298.57 762.463 1302.66 761.755C1370.29 750.34 1533.32 730.266 1585.83 790.331C1595.35 801.195 1605.19 810.326 1614.72 819.064C1622.91 826.622 1634.24 835.517 1647.39 845.751C1690.84 879.68 1756.58 930.928 1787.99 1000.91C1809.24 1048.15 1813.1 1092.7 1799.95 1136.94C1793.34 1159.22 1769.09 1213.23 1742.64 1271.32C1722.17 1315.72 1653.29 1466 1623.46 1534.1C1618.81 1544.65 1613.93 1556.22 1612.36 1561.73C1607.95 1577.63 1608.74 1595.58 1614.8 1618.33C1618.58 1632.74 1624.17 1648.79 1630.15 1665.8C1638.49 1689.73 1647.94 1716.81 1655.26 1747.2C1664.23 1785.14 1681.55 1817.65 1699.9 1852.06C1717.45 1884.8 1735.56 1918.73 1748.55 1960.77C1768.23 2024.61 1800.98 2095.31 1845.77 2170.8C1869.94 2211.66 1890.32 2247.32 1906.23 2276.68C1922.68 2306.99 1934.8 2331.63 1942.44 2349.89C1996.52 2479.47 2014.71 2764.36 2020.06 2880.87C2020.16 2884.07 2020.27 2887.2 2020.37 2890.24C2021.32 2918.9 2001.72 2944.4 1973.77 2950.86L1812 2988.09C1807.59 2989.12 1803.02 2989.67 1798.46 2989.67ZM281.482 871.572C275.972 878.027 226.455 938.486 185.048 1068.46C183.237 1073.97 181.663 1079.48 180.009 1085.3L178.12 1091.76C171.429 1114.27 165.525 1138.12 160.329 1162.76C151.827 1203.62 145.057 1248.18 139.625 1286.36C138.89 1291.55 138.155 1296.91 137.421 1302.42L137.106 1304.39C134.823 1320.92 152.378 1337.45 172.609 1356.5C192.92 1375.55 215.907 1397.2 224.723 1424.91C229.132 1438.53 229.683 1452.15 226.455 1466.4C222.362 1484.19 234.721 1503.55 247.868 1524.02C256.37 1537.32 265.265 1551.18 270.618 1565.9C272.035 1569.92 273.138 1573.93 273.925 1577.79C275.263 1585.27 276.444 1595.11 273.295 1605.5C271.327 1611.95 238.264 1678.63 235.43 1682.88C176.782 1771.05 191.188 1795.93 202.76 1815.84C207.326 1823.72 211.656 1831.12 211.498 1841.11C211.419 1848.12 209.058 1854.65 204.649 1860.01C190.479 1877.56 162.927 1912.83 138.602 1952.03C103.649 2008.32 24.061 2227.48 -5.53853 2330.13C-29.7849 2414.29 -74.2629 2671.63 -92.2903 2778.3C-94.6519 2792.23 -91.0307 2806.64 -82.3712 2817.74C-73.7118 2828.84 -60.644 2835.84 -46.5527 2836.95L1794.6 2979.59C1799.72 2979.98 1804.83 2979.59 1809.79 2978.49L1971.57 2941.17C1994.95 2935.82 2011.32 2914.49 2010.53 2890.56C2010.43 2887.57 2010.3 2884.47 2010.14 2881.27C2004.87 2765.31 1986.76 2481.83 1933.31 2353.67C1925.83 2335.72 1913.78 2311.4 1897.57 2281.41C1881.67 2252.12 1861.43 2216.62 1837.27 2175.84C1792.08 2099.71 1759.1 2028.31 1739.1 1963.68C1726.35 1922.51 1708.48 1889.05 1691.24 1856.7C1672.5 1821.67 1654.87 1788.68 1645.66 1749.48C1638.41 1719.57 1629.05 1692.72 1620.78 1669.11C1614.8 1651.87 1609.13 1635.65 1605.19 1620.85C1598.74 1596.37 1597.95 1576.76 1602.83 1559.05C1604.25 1554.17 1607.56 1545.83 1614.4 1530.16C1644.24 1461.99 1713.2 1311.63 1733.67 1267.23C1759.96 1209.45 1784.05 1155.76 1790.51 1134.19C1802.94 1092.23 1799.16 1049.96 1779.01 1005.01C1748.62 937.148 1684.07 886.844 1641.33 853.545C1628.02 843.153 1616.53 834.179 1608.03 826.386C1598.27 817.411 1588.27 808.122 1578.35 796.865C1561.98 778.05 1502.46 738.059 1304.32 771.516C1298.18 772.54 1292.04 771.674 1286.45 769.076C1244.49 749.632 1139.55 701.847 1072.25 679.254C1027.22 664.061 984.47 668.784 930.388 674.688C881.344 680.041 825.845 686.103 751.138 679.884C666.118 672.799 613.296 699.879 583.932 723.889C546.303 754.67 504.58 775.138 460.102 784.663C431.054 790.961 397.44 799.62 360.204 810.484C324.464 820.954 305.177 843.704 284.631 867.872L281.482 871.572Z" fill="#FFF8D9"/>
<path fill-rule="evenodd" clip-rule="evenodd" d="M1820.18 3019.27C1818.61 3019.27 1817.03 3019.21 1815.46 3019.11L-73.1626 2872.84C-90.4027 2871.51 -106.383 2862.93 -117.011 2849.23C-127.638 2835.69 -132.047 2818.05 -129.213 2801.05C-110.634 2691.39 -64.8968 2427.12 -39.8632 2340.29C-9.39772 2234.57 72.7881 2008.4 109 1950.06C134.349 1909.29 162.846 1872.76 177.567 1854.57C180.637 1850.87 182.29 1846.31 182.369 1841.35C182.448 1833.87 178.984 1828.04 174.576 1820.65C168.12 1809.86 160.17 1796.48 162.531 1773.73C165.129 1748.46 180.086 1715.79 208.347 1673.67C211.418 1669.03 244.323 1601.56 245.819 1596.92C247.866 1590.15 247.945 1582.83 246.055 1573.22C245.347 1569.76 244.323 1566.14 242.985 1562.59C237.789 1548.5 228.894 1534.81 220.234 1521.58C205.435 1498.83 191.343 1477.26 196.46 1454.9C199.452 1442.07 198.901 1429.87 194.886 1417.59C186.384 1391.77 163.476 1370.59 143.244 1352.01C120.1 1330.6 100.026 1312.1 103.096 1289.9C103.988 1283.55 104.854 1277.38 105.694 1271.4C111.047 1234.64 118.447 1186.85 127.815 1143.79C133.325 1118.29 139.702 1093.49 146.787 1070.11L148.361 1064.68C150.251 1058.54 152.14 1052.16 154.108 1046.02C198.114 910.854 250.7 847.483 256.525 840.713L260.698 835.832C281.559 811.507 303.129 786.395 342.096 774.98C380.513 763.801 415.15 754.827 445.222 748.372C489.306 738.846 530.635 718.536 568.028 688.071C599.596 662.25 656.197 633.123 746.728 640.68C822.379 646.978 878.823 640.838 928.654 635.406C985.413 629.187 1030.21 624.227 1078.46 640.523C1147.97 663.903 1255.98 713.026 1299.2 733.021C1303.06 734.832 1307.39 735.461 1311.64 734.753C1380.99 723.023 1548.2 702.477 1601.96 763.959C1611.73 775.137 1621.8 784.427 1631.56 793.48C1640.14 801.352 1652.11 810.641 1666.04 821.426C1710.76 856.064 1778.3 908.414 1811.13 979.106C1833.41 1027.21 1837.66 1072.79 1824.12 1118.52C1817.9 1139.31 1796.8 1186.54 1764.68 1256.13L1763.34 1258.96C1719.81 1352.48 1665.57 1468.91 1640.54 1525.2C1635.97 1535.44 1630.54 1547.95 1628.97 1553.62C1624.24 1569.76 1624.95 1588.26 1631.09 1611.72C1634.95 1626.75 1640.77 1643.44 1646.84 1661.08C1655.34 1685.48 1664.86 1713.03 1672.26 1744.05C1681.47 1783.17 1699.42 1816.47 1718.47 1851.82C1736.5 1885.28 1755.16 1919.91 1768.54 1962.82C1789.32 2029.81 1822.86 2102.47 1868.04 2178.75C1892.84 2220.55 1913.78 2257.16 1930.23 2287.39C1947.16 2318.64 1959.68 2343.91 1967.47 2362.57C2023.13 2495.21 2041.86 2787.98 2047.37 2907.72C2047.53 2911.02 2047.66 2914.23 2047.77 2917.32C2048.71 2946.76 2028.64 2972.9 1999.98 2979.51L1834.04 3017.69C1829.47 3018.72 1824.83 3019.27 1820.18 3019.27ZM264.004 847.168C258.336 853.781 206.93 915.814 163.555 1049.01C161.587 1055.07 159.776 1061.13 157.808 1067.51L156.233 1072.94C149.227 1096.09 142.929 1120.65 137.419 1145.84C128.13 1188.66 120.809 1236.21 115.455 1272.74C114.616 1278.72 113.75 1284.89 112.858 1291.24C110.496 1308.32 128.759 1325.17 149.936 1344.69C171.033 1364.21 194.965 1386.26 204.254 1414.52C208.82 1428.53 209.45 1442.46 206.064 1457.11C201.892 1475.37 214.881 1495.21 228.5 1516.23C237.475 1529.85 246.606 1544.02 252.274 1559.13C253.77 1563.22 254.951 1567.32 255.738 1571.33C257.076 1578.26 258.572 1588.81 255.266 1599.75C253.455 1605.81 219.29 1675.09 216.535 1679.18C155.761 1769.79 170.876 1795.14 183.078 1815.61C187.801 1823.64 192.367 1831.27 192.209 1841.51C192.131 1848.67 189.69 1855.36 185.282 1860.79C170.64 1878.82 142.457 1914.95 117.423 1955.26C81.6049 2012.96 -0.0298004 2237.79 -30.4165 2343.04C-55.2927 2429.32 -100.951 2693.2 -119.451 2802.7C-121.892 2816.95 -118.113 2831.75 -109.217 2843.17C-100.322 2854.66 -86.8603 2861.82 -72.3754 2863L1816.25 3009.27C1821.44 3009.66 1826.72 3009.27 1831.83 3008.09L1997.78 2969.91C2021.87 2964.32 2038.71 2942.36 2037.85 2917.72C2037.74 2914.62 2037.61 2911.44 2037.45 2908.19C2032.02 2789.01 2013.44 2497.58 1958.34 2366.35C1950.7 2348.08 1938.34 2323.05 1921.5 2292.11C1905.12 2261.96 1884.34 2225.51 1859.54 2183.79C1813.96 2106.8 1780.19 2033.51 1759.09 1965.73C1746.03 1923.69 1727.6 1889.53 1709.81 1856.54C1690.45 1820.57 1672.11 1786.72 1662.66 1746.33C1655.42 1715.87 1645.89 1688.47 1637.55 1664.3C1631.33 1646.43 1625.5 1629.59 1621.57 1614.16C1614.95 1588.97 1614.32 1568.81 1619.44 1550.86C1620.86 1545.91 1624.48 1537.01 1631.48 1521.19C1656.6 1464.82 1710.84 1348.39 1754.37 1254.79L1755.71 1251.96C1780.74 1197.8 1807.98 1138.12 1814.59 1115.69C1827.42 1072.39 1823.33 1029.09 1802.15 983.279C1770.43 914.712 1706.59 865.274 1659.98 829.219C1645.89 818.277 1633.77 808.909 1624.95 800.801C1614.95 791.512 1604.64 781.986 1594.56 770.493C1577.72 751.206 1516.63 710.192 1313.29 744.436C1307.07 745.538 1300.77 744.672 1295.03 741.995C1251.97 722 1144.35 673.114 1075.31 649.891C1029.1 634.304 985.255 639.106 929.756 645.167C879.453 650.678 822.458 656.897 745.862 650.52C658.638 643.278 604.398 671.067 574.247 695.707C535.674 727.196 492.928 748.136 447.269 757.976C417.512 764.431 383.032 773.327 344.851 784.505C308.718 795.054 289.038 817.962 268.255 842.287L264.004 847.168Z" fill="#FFF8D9"/>
<path fill-rule="evenodd" clip-rule="evenodd" d="M1841.99 3048.95C1840.36 3048.95 1838.74 3048.87 1837.11 3048.71L-98.9822 2898.82C-116.616 2897.41 -132.99 2888.67 -143.854 2874.73C-154.717 2860.8 -159.205 2842.77 -156.292 2825.37C-137.32 2713.04 -90.4015 2442.08 -64.7381 2353.12C-33.5641 2244.8 50.7472 2013.04 87.9041 1953.29C113.804 1911.49 143.01 1874.02 158.124 1855.44C161.273 1851.58 163.005 1846.86 163.084 1841.74C163.162 1834.11 159.462 1828.05 154.897 1820.41C148.126 1809.47 139.782 1795.77 142.144 1772.55C144.82 1746.65 160.25 1713.11 189.377 1669.97C192.526 1665.17 226.297 1595.89 227.872 1591.17C229.84 1584.16 229.84 1576.45 227.872 1566.77C227.163 1563.22 226.061 1559.52 224.644 1555.82C219.212 1541.42 209.923 1527.41 200.949 1513.87C185.519 1490.48 170.956 1468.44 176.151 1445.61C179.143 1432.39 178.592 1419.87 174.341 1407.28C165.524 1380.83 141.671 1359.33 120.731 1340.28C96.5635 1318.4 75.7021 1299.51 78.851 1276.75C79.7432 1270.25 80.6354 1263.9 81.5275 1257.7C89.3997 1204.49 96.8784 1162.92 104.908 1126.79C110.812 1100.73 117.504 1075.3 124.903 1051.29L126.084 1047.28C128.21 1040.43 130.414 1033.35 132.618 1026.5C178.671 888.025 233.068 823.237 239.129 816.309C240.861 814.315 242.593 812.321 244.325 810.326C265.501 785.844 287.386 760.495 326.747 749.002C366.108 737.508 401.612 728.298 432.392 721.685C477.657 711.924 520.088 691.141 558.426 659.81C590.702 633.438 648.72 603.602 741.455 611.317C819.075 617.772 876.935 611.474 928.026 605.885C986.123 599.509 1032.1 594.471 1081.53 611.16C1152.78 635.091 1263.46 685.394 1307.78 705.941C1311.8 707.83 1316.28 708.46 1320.61 707.673C1391.7 695.707 1563.08 674.61 1618.18 737.666C1628.1 749.081 1638.49 758.606 1648.49 767.895C1657.39 776.082 1670.06 785.765 1684.62 797.022C1730.6 832.447 1800.11 885.9 1834.2 957.3C1857.5 1006.27 1862.14 1052.95 1848.21 1100.02C1841.91 1121.44 1819.08 1171.82 1786.73 1240.94C1777.28 1260.85 1767.36 1281.95 1757.28 1303.36C1718.47 1385.47 1678.33 1470.41 1657.62 1516.38C1652.9 1526.85 1647.23 1539.61 1645.5 1545.43C1640.62 1561.96 1641.17 1580.86 1647.39 1605.1C1651.4 1620.69 1657.31 1638.01 1663.6 1656.35C1672.11 1681.15 1681.79 1709.33 1689.27 1740.82C1698.71 1781.13 1717.29 1815.37 1737.05 1851.58C1755.63 1885.75 1774.84 1921.02 1788.54 1964.86C1810.42 2035.01 1844.74 2109.63 1890.4 2186.62C1915.83 2229.53 1937.24 2267.08 1954.17 2298.17C1971.64 2330.37 1984.55 2356.27 1992.51 2375.16C2049.82 2510.88 2069.02 2811.6 2074.69 2934.64C2074.85 2938 2074.98 2941.28 2075.09 2944.48C2076.19 2974.63 2055.64 3001.4 2026.2 3008.17L1856.08 3047.29C1851.44 3048.39 1846.71 3048.95 1841.99 3048.95ZM246.529 822.764C240.625 829.535 187.409 892.985 141.986 1029.65C139.782 1036.34 137.735 1043.03 135.531 1050.19L134.35 1054.13C127.029 1077.98 120.338 1103.09 114.591 1128.99C106.561 1164.81 99.1613 1206.14 91.2891 1259.12C90.3969 1265.26 89.5047 1271.59 88.6125 1278.09C86.1721 1295.73 105.223 1312.97 127.344 1332.96C149.229 1352.8 174.026 1375.24 183.709 1404.21C188.511 1418.45 189.219 1432.78 185.756 1447.82C181.505 1466.55 194.966 1486.86 209.215 1508.43C218.504 1522.37 228.029 1536.85 233.934 1552.36C235.508 1556.53 236.689 1560.7 237.555 1564.8C239.838 1576.06 239.759 1585.34 237.319 1593.93C235.508 1600.22 199.847 1672.18 197.564 1675.48C134.744 1768.45 150.567 1794.43 163.32 1815.29C168.358 1823.56 173.081 1831.35 172.924 1841.9C172.766 1849.22 170.326 1856.07 165.839 1861.66C150.803 1880.08 121.912 1917.16 96.2486 1958.49C59.4854 2017.61 -24.1962 2248.03 -55.2914 2355.88C-80.7974 2444.36 -127.637 2714.85 -146.53 2827.03C-149.049 2841.75 -145.192 2856.86 -136.06 2868.67C-126.85 2880.4 -113.073 2887.8 -98.195 2888.98L1837.9 3038.87C1843.25 3039.34 1848.68 3038.95 1853.88 3037.69L2023.99 2998.56C2048.79 2992.82 2066.11 2970.22 2065.24 2944.8C2065.09 2941.65 2064.96 2938.39 2064.85 2935.03C2059.18 2812.62 2040.05 2513.24 1983.45 2379.02C1975.58 2360.36 1962.83 2334.78 1945.51 2302.9C1928.66 2271.88 1907.25 2234.49 1881.9 2191.66C1835.85 2114.04 1801.29 2038.71 1779.09 1967.86C1765.71 1924.87 1746.74 1890.08 1728.39 1856.31C1708.32 1819.46 1689.35 1784.67 1679.66 1743.1C1672.34 1712.09 1662.74 1684.14 1654.24 1659.5C1647.94 1641 1641.88 1623.53 1637.86 1607.54C1631.17 1581.57 1630.62 1560.94 1636.05 1542.6C1637.55 1537.56 1641.33 1528.51 1648.65 1512.29C1669.35 1466.32 1709.5 1381.3 1748.31 1299.11C1758.39 1277.78 1768.38 1256.68 1777.75 1236.76C1805.62 1177.33 1832.23 1119.23 1838.76 1097.19C1851.91 1052.55 1847.5 1008.15 1825.3 961.551C1792.24 892.276 1726.58 841.736 1678.64 804.895C1663.84 793.48 1651.01 783.64 1641.88 775.216C1631.64 765.691 1621.1 756.008 1610.7 744.121C1593.46 724.441 1530.8 682.246 1322.27 717.434C1315.89 718.536 1309.51 717.592 1303.61 714.915C1259.45 694.448 1149.16 644.302 1078.39 620.449C1030.99 604.547 986.044 609.428 929.049 615.725C877.565 621.315 819.153 627.691 740.667 621.157C651.16 613.679 595.583 642.255 564.645 667.446C525.048 699.722 481.278 721.213 434.517 731.289C403.973 737.902 368.627 747.034 329.502 758.449C292.896 769.155 272.901 792.299 251.803 816.782C250.072 818.776 248.313 820.77 246.529 822.764Z" fill="#FFF8D9"/>
<path fill-rule="evenodd" clip-rule="evenodd" d="M1863.72 3078.54C1862.04 3078.54 1860.38 3078.49 1858.76 3078.39L-124.803 2924.8C-142.83 2923.38 -159.519 2914.41 -170.698 2900.16C-181.798 2885.91 -186.442 2867.57 -183.451 2849.78C-164.007 2734.69 -115.907 2457.19 -89.6142 2366.03C-57.653 2255.03 28.7051 2017.69 66.7278 1956.44C93.3359 1913.69 123.25 1875.36 138.68 1856.31C141.907 1852.29 143.639 1847.41 143.718 1842.21C143.875 1834.26 140.018 1828.04 135.137 1820.25C120.338 1796.48 101.917 1766.96 170.483 1666.27C173.711 1661.31 208.27 1590.3 209.845 1585.5C211.813 1578.18 211.813 1570.15 209.766 1560.39C208.979 1556.69 207.798 1552.91 206.381 1549.13C200.634 1534.33 191.03 1520.01 181.662 1506.07C165.603 1482.22 150.488 1459.7 155.841 1436.32C158.911 1422.71 158.282 1409.87 153.873 1397.04C144.663 1369.96 119.944 1348 98.1379 1328.55C73.0256 1306.28 51.2983 1286.91 54.6047 1263.61C55.4968 1256.94 56.4153 1250.43 57.3599 1244.08C65.1534 1191.97 73.2617 1148.04 82.0786 1109.86C88.0615 1083.73 95.1465 1057.67 103.019 1032.4L104.436 1027.99C106.561 1021.07 108.844 1013.9 111.127 1007.05C159.226 865.195 215.434 798.912 221.653 791.827C223.752 789.465 225.825 787.103 227.872 784.742C249.363 760.102 271.563 734.596 311.396 722.945C351.702 711.215 388.071 701.769 419.639 694.998C466.006 685.001 509.461 663.667 548.743 631.627C581.885 604.547 641.242 574.081 736.259 581.954C815.69 588.566 875.046 582.111 927.396 576.364C986.91 569.83 1033.91 564.713 1084.6 581.717C1157.58 606.279 1271.02 657.842 1316.36 678.86C1320.53 680.828 1325.1 681.458 1329.59 680.671C1402.41 668.39 1577.88 646.821 1634.32 711.294C1644.55 723.023 1655.18 732.864 1665.49 742.31C1674.7 750.812 1687.93 760.968 1703.28 772.697C1750.51 808.831 1821.84 863.385 1857.26 935.494C1881.66 985.168 1886.55 1032.95 1872.38 1081.52C1865.29 1105.3 1836.24 1167.72 1808.77 1225.74C1794.6 1255.42 1779.25 1287.38 1763.98 1319.26C1729.42 1391.53 1693.6 1466.16 1674.7 1507.49C1670.14 1517.41 1663.92 1531.18 1662.03 1537.32C1656.91 1554.09 1657.46 1573.54 1663.76 1598.49C1667.78 1614.71 1673.84 1632.58 1680.37 1651.55C1688.95 1676.9 1698.79 1705.63 1706.27 1737.67C1715.88 1779.16 1735.16 1814.27 1755.55 1851.35C1774.68 1886.22 1794.44 1922.2 1808.53 1966.99C1831.6 2040.2 1866.63 2116.8 1912.68 2194.57C1938.74 2238.5 1960.78 2277 1978.18 2308.88C1996.21 2342.02 2009.51 2368.55 2017.62 2387.84C2076.42 2526.62 2096.26 2835.21 2102.01 2961.48C2102.17 2964.95 2102.3 2968.33 2102.4 2971.64C2103.58 3002.42 2082.56 3029.89 2052.49 3036.82L1878.2 3076.89C1873.4 3077.99 1868.6 3078.54 1863.72 3078.54ZM120.495 1010.2C118.212 1016.97 116.087 1023.74 113.804 1030.91L112.465 1035.39C104.672 1060.43 97.6656 1086.17 91.6827 1112.07C82.8659 1150.01 74.8362 1193.7 67.1214 1245.5C66.2293 1251.85 65.3108 1258.33 64.3662 1264.95C61.8471 1283.05 81.685 1300.76 104.672 1321.23C127.423 1341.39 153.165 1364.29 163.241 1393.81C168.201 1408.46 168.988 1423.1 165.445 1438.53C161.037 1457.74 175.049 1478.52 189.849 1500.56C199.532 1514.89 209.451 1529.77 215.591 1545.59C217.244 1549.84 218.504 1554.17 219.37 1558.34C221.81 1569.68 221.81 1579.2 219.37 1588.18C217.559 1594.56 180.954 1668.4 178.671 1671.78C113.646 1767.19 130.178 1793.72 143.482 1815.06C148.835 1823.48 153.794 1831.51 153.637 1842.37C153.48 1849.85 150.96 1856.78 146.395 1862.53C131.044 1881.34 101.366 1919.36 75.1511 1961.64C37.4432 2022.25 -48.2851 2258.26 -80.1675 2368.79C-106.303 2459.4 -154.245 2736.5 -173.689 2851.35C-176.208 2866.47 -172.272 2882.05 -162.904 2894.1C-153.458 2906.14 -139.288 2913.78 -124.016 2914.96L1859.54 3068.55C1865.05 3069.02 1870.57 3068.55 1876 3067.29L2050.21 3027.22C2075.71 3021.31 2093.51 2998.09 2092.56 2971.95C2092.46 2968.75 2092.32 2965.42 2092.17 2961.96C2086.42 2836.24 2066.74 2528.99 2008.49 2391.69C2000.54 2372.72 1987.39 2346.43 1969.52 2313.6C1952.2 2281.8 1930.24 2243.46 1904.18 2199.61C1857.73 2121.21 1822.39 2043.9 1799.16 1969.9C1785.39 1926.05 1765.79 1890.55 1746.97 1856.15C1726.19 1818.36 1706.59 1782.7 1696.67 1739.95C1689.27 1708.39 1679.59 1679.89 1671 1654.78C1664.47 1635.57 1658.33 1617.46 1654.16 1600.93C1647.39 1574.09 1646.92 1552.99 1652.66 1534.41C1654.24 1529.29 1658.25 1519.69 1665.73 1503.4C1684.62 1461.99 1720.44 1387.28 1755.08 1315.01C1770.35 1283.13 1785.7 1251.17 1799.87 1221.49C1827.19 1163.87 1856.08 1101.83 1862.85 1078.77C1876.39 1032.64 1871.67 987.215 1848.37 939.824C1814.04 869.761 1746.58 818.198 1697.3 780.491C1681.79 768.604 1668.33 758.37 1658.8 749.632C1648.33 739.949 1637.47 729.951 1626.92 717.828C1609.21 697.596 1544.97 654.378 1331.24 690.354C1324.79 691.456 1318.17 690.59 1312.19 687.835C1267 666.895 1153.96 615.489 1081.46 591.085C1032.88 574.79 986.753 579.828 928.42 586.205C875.676 591.951 815.847 598.485 735.393 591.794C643.682 584.158 586.687 613.364 554.962 639.263C514.499 672.326 469.627 694.29 421.686 704.603C390.433 711.373 354.221 720.741 314.151 732.47C277.152 743.255 256.842 766.557 235.351 791.197C233.251 793.611 231.152 795.999 229.053 798.36C222.991 805.288 167.964 870.155 120.495 1010.2Z" fill="#FFF8D9"/>
<path fill-rule="evenodd" clip-rule="evenodd" d="M1885.44 3108.22C1883.76 3108.22 1882.09 3108.14 1880.41 3107.99L-150.623 2950.78C-169.044 2949.36 -186.127 2940.23 -197.542 2925.67C-208.878 2911.1 -213.601 2892.29 -210.531 2874.1C-190.614 2756.26 -141.413 2472.23 -114.569 2378.94C-81.7416 2265.27 6.66327 2022.33 45.552 1959.67C72.7898 1915.9 103.413 1876.62 119.236 1857.09C122.542 1853 124.353 1848.04 124.431 1842.61C124.589 1834.42 120.574 1828.05 115.457 1820.02C99.9489 1795.85 80.7407 1765.62 151.591 1662.49C154.897 1657.45 190.243 1584.72 191.818 1579.76C193.864 1572.12 193.786 1563.85 191.581 1553.93C190.794 1550.23 189.535 1546.38 188.039 1542.44C182.135 1527.25 172.058 1512.53 162.375 1498.36C145.765 1473.95 130.021 1450.89 135.453 1426.96C138.68 1413.02 137.972 1399.8 133.406 1386.73C123.802 1359.02 98.1383 1336.58 75.5451 1316.82C49.4881 1293.99 26.9735 1274.39 30.3586 1250.46C31.3032 1243.64 32.2479 1236.97 33.1926 1230.47C40.9074 1179.22 49.6455 1132.93 59.1709 1092.86C65.5474 1066.09 72.9472 1039.41 81.1343 1013.59L81.6067 1012.01C84.3619 1003.51 86.8811 995.559 89.6363 987.608C139.704 842.287 197.8 774.587 204.256 767.423C206.67 764.694 209.058 761.965 211.419 759.236C233.225 734.359 255.819 708.696 296.046 696.967C337.296 684.843 374.531 675.239 406.886 668.312C454.356 658.078 498.834 636.193 539.139 603.366C572.99 575.735 633.763 544.482 730.985 552.59C812.384 559.36 873.157 552.748 926.688 546.844C987.698 540.231 1035.8 534.957 1087.67 552.354C1162.38 577.466 1278.5 630.289 1324.94 651.78C1329.27 653.748 1334 654.378 1338.64 653.669C1413.19 641.074 1592.76 618.953 1650.46 685.001C1661.01 696.967 1671.87 706.964 1682.34 716.647C1691.95 725.464 1705.88 736.091 1721.94 748.372C1773.34 787.339 1843.64 840.87 1880.33 913.688C1905.83 964.228 1911.11 1013.04 1896.47 1063.02C1890.8 1082.39 1871.12 1126.47 1830.81 1210.55C1813.33 1246.84 1794.05 1286.44 1775.23 1325.09C1741.54 1394.44 1709.66 1460.02 1691.71 1498.67C1687.06 1508.75 1680.61 1522.92 1678.64 1529.14C1673.21 1546.22 1673.68 1566.22 1680.06 1591.96C1684.15 1608.65 1690.45 1627.15 1697.06 1646.83C1705.8 1672.65 1715.72 1701.93 1723.28 1734.52C1733.12 1777.19 1753.03 1813.09 1774.13 1851.19C1793.81 1886.61 1814.12 1923.3 1828.53 1969.04C1852.7 2045.48 1888.51 2124.04 1935.04 2202.45C1961.73 2247.55 1984.32 2286.92 2002.11 2319.66C2020.69 2353.67 2034.39 2380.91 2042.65 2400.51C2103.11 2542.29 2123.42 2858.91 2129.33 2988.41C2129.48 2991.98 2129.64 2995.41 2129.8 2998.72C2130.98 3030.29 2109.49 3058.39 2078.71 3065.48L1900.24 3106.57C1895.36 3107.67 1890.4 3108.22 1885.44 3108.22ZM99.0042 990.836C96.249 998.629 93.7299 1006.58 91.0533 1015L90.581 1016.58C82.4726 1042.16 75.1515 1068.61 68.775 1095.14C59.3283 1134.98 50.6689 1180.95 42.9541 1231.88C42.0094 1238.39 41.0648 1245.03 40.1201 1251.8C37.5223 1270.46 58.1475 1288.48 82.0003 1309.35C105.538 1329.97 132.304 1353.35 142.695 1383.5C147.891 1398.14 148.678 1413.57 145.057 1429.16C140.569 1448.92 155.133 1470.25 170.563 1492.77C180.56 1507.41 190.873 1522.6 197.249 1538.82C198.981 1543.23 200.32 1547.56 201.264 1551.81C203.705 1563.15 203.783 1573.14 201.343 1582.35C199.768 1588.34 161.982 1664.85 159.699 1668.08C92.549 1765.85 109.868 1792.93 123.723 1814.74C129.312 1823.4 134.508 1831.59 134.35 1842.77C134.193 1850.4 131.674 1857.49 126.951 1863.31C111.206 1882.68 80.8194 1921.57 53.9752 1964.86C15.4014 2026.9 -72.4524 2268.5 -105.043 2381.7C-131.809 2474.51 -180.931 2758.07 -200.848 2875.76C-203.446 2891.19 -199.352 2907.17 -189.748 2919.61C-180.066 2931.96 -165.502 2939.76 -149.836 2940.94L1881.19 3098.23C1886.86 3098.62 1892.53 3098.23 1898.04 3096.89L2076.5 3055.87C2102.72 3049.81 2120.98 3025.96 2119.88 2999.11C2119.77 2995.81 2119.64 2992.4 2119.48 2988.88C2113.58 2859.86 2093.43 2544.73 2033.6 2404.37C2025.41 2385 2011.87 2358.16 1993.45 2324.39C1975.66 2291.8 1953.15 2252.44 1926.54 2207.49C1879.62 2128.37 1843.49 2049.18 1819.16 1971.95C1804.99 1927.23 1784.92 1891.02 1765.47 1855.91C1744.06 1817.26 1723.83 1780.73 1713.67 1736.73C1706.19 1704.61 1696.35 1675.56 1687.69 1649.98C1681 1630.14 1674.71 1611.4 1670.45 1594.32C1663.61 1566.69 1663.21 1545.04 1669.19 1526.15C1670.85 1520.95 1675.1 1511.19 1682.81 1494.5C1700.76 1455.77 1732.64 1390.19 1766.34 1320.76C1785.15 1282.11 1804.44 1242.51 1821.92 1206.22C1848.52 1150.8 1880.01 1084.04 1887.02 1060.27C1900.87 1012.8 1895.84 966.275 1871.51 918.097C1835.85 847.326 1766.57 794.661 1716.03 756.166C1699.66 743.806 1685.57 733.1 1675.73 723.968C1664.94 714.049 1653.92 703.894 1643.06 691.456C1624.95 670.752 1559.14 626.51 1340.22 663.352C1333.6 664.454 1326.91 663.588 1320.85 660.754C1274.48 639.263 1158.76 586.677 1084.53 561.722C1034.69 544.954 987.54 550.15 927.79 556.684C873.787 562.588 812.541 569.279 730.198 562.431C636.204 554.558 577.792 584.551 545.358 611.002C503.872 644.853 457.977 667.367 408.933 677.916C376.893 684.843 339.815 694.447 298.801 706.413C261.329 717.356 240.704 740.815 218.898 765.691C216.484 768.472 214.043 771.228 211.577 773.957C205.279 781.042 148.442 847.326 99.0042 990.836Z" fill="#FFF8D9"/>
<path fill-rule="evenodd" clip-rule="evenodd" d="M1907.25 3137.9C1905.47 3137.9 1903.73 3137.82 1902.05 3137.67L-176.444 2976.84C-195.259 2975.34 -212.735 2965.97 -224.386 2951.09C-235.958 2936.22 -240.839 2917.01 -237.69 2898.43C-217.301 2777.91 -166.919 2487.26 -139.445 2391.85C-105.909 2275.58 -15.4577 2026.98 24.4544 1962.82C52.2433 1918.1 83.5747 1877.88 99.7914 1857.96C103.255 1853.71 105.066 1848.59 105.145 1843.08C105.302 1834.58 101.051 1828.12 95.6979 1819.86C79.5599 1795.14 59.4857 1764.36 132.697 1658.79C136.082 1653.6 172.216 1579.13 173.79 1574.01C175.837 1566.14 175.68 1557.4 173.475 1547.56C172.531 1543.7 171.35 1539.69 169.697 1535.67C163.556 1520.16 153.165 1505.13 143.089 1490.56C125.848 1465.69 109.553 1442.15 115.142 1417.67C118.449 1403.34 117.661 1389.8 112.938 1376.42C102.94 1348.16 76.3323 1325.33 52.9518 1305.09C25.9502 1281.87 2.64845 1261.8 6.03349 1237.24C7.03064 1230.31 8.02779 1223.51 9.02493 1216.85C16.7397 1166.31 25.8715 1118.92 36.3415 1075.93C43.269 1047.83 50.9838 1020.51 59.2496 994.693C62.0836 986.034 65.075 976.902 68.1452 968.085C120.259 819.379 180.167 750.34 186.779 742.94C189.561 739.844 192.316 736.747 195.045 733.651C217.166 708.617 239.995 682.797 280.616 670.91C322.89 658.55 360.991 648.71 394.055 641.625C442.705 631.155 488.285 608.798 529.456 575.184C564.094 546.922 626.285 514.961 725.711 523.227C809.077 530.155 871.189 523.384 926.058 517.402C988.406 510.553 1037.69 505.121 1090.74 522.991C1167.18 548.654 1286.05 602.658 1333.6 624.7C1338.01 626.747 1342.81 627.376 1347.61 626.589C1423.9 613.757 1607.63 591.164 1666.68 658.629C1677.38 670.91 1688.56 681.222 1699.34 691.141C1709.19 700.194 1723.75 711.215 1740.67 723.968C1793.34 763.802 1865.45 818.277 1903.47 891.882C1929.61 942.579 1935.43 993.906 1920.63 1044.52C1914.89 1064.13 1893.95 1110.65 1852.85 1195.36C1832.78 1236.61 1810.5 1281.79 1788.93 1325.48C1756.65 1390.98 1726.19 1452.78 1708.79 1489.78C1701.08 1506.23 1696.83 1516.07 1695.17 1521.03C1689.43 1538.58 1689.82 1558.42 1696.35 1585.34C1700.53 1602.66 1706.98 1621.79 1713.75 1642.02C1722.65 1668.4 1732.64 1698.23 1740.28 1731.3C1750.36 1775.22 1770.9 1811.99 1792.71 1850.95C1812.86 1887.09 1833.8 1924.48 1848.52 1971.08C1873.79 2050.67 1910.4 2131.2 1957.32 2210.4C1984.63 2256.45 2007.78 2296.83 2026.12 2330.37C2045.25 2365.4 2059.26 2393.19 2067.76 2413.11C2129.72 2558.03 2150.58 2882.53 2156.64 3015.25C2156.8 3018.93 2156.96 3022.47 2157.11 3025.88C2158.37 3058.16 2136.49 3086.89 2104.92 3094.13L1922.29 3136.17C1917.4 3137.27 1912.29 3137.9 1907.25 3137.9ZM194.1 749.553C187.567 756.795 128.997 824.418 77.4344 971.392C74.443 980.051 71.4515 989.183 68.6962 997.764C60.4304 1023.27 52.7944 1050.35 45.8669 1078.3C35.5543 1120.96 26.4225 1168.12 18.7865 1218.26C17.7893 1224.93 16.8184 1231.73 15.8738 1238.65C13.1185 1257.86 34.6096 1276.28 59.407 1297.62C83.7321 1318.63 111.364 1342.41 122.227 1373.11C127.58 1388.15 128.446 1403.89 124.746 1419.87C120.18 1440.1 135.216 1461.91 151.197 1484.97C161.588 1499.93 172.294 1515.44 178.907 1532.05C180.639 1536.54 182.056 1541.02 183.079 1545.35C185.677 1556.77 185.756 1567 183.394 1576.53C181.82 1582.67 143.089 1661.08 140.806 1664.38C71.3728 1764.52 89.4789 1792.23 103.964 1814.43C109.789 1823.32 115.221 1831.74 115.064 1843.16C114.906 1850.95 112.308 1858.2 107.506 1864.18C91.4469 1883.94 60.3517 1923.77 32.799 1968.01C-6.64075 2031.54 -96.5414 2278.81 -129.919 2394.53C-157.315 2489.47 -207.618 2779.72 -227.928 2900.08C-230.605 2915.98 -226.511 2932.36 -216.592 2945.03C-206.673 2957.71 -191.795 2965.74 -175.657 2967L1902.76 3127.82C1908.59 3128.3 1914.41 3127.82 1920.08 3126.57L2102.72 3084.53C2129.64 3078.31 2148.38 3053.83 2147.27 3026.27C2147.12 3022.86 2146.96 3019.35 2146.8 3015.72C2140.74 2883.47 2120.04 2560.4 2058.71 2417.04C2050.29 2397.36 2036.43 2369.81 2017.46 2335.09C1999.2 2301.64 1976.05 2261.41 1948.82 2215.44C1901.58 2135.61 1864.66 2054.37 1839.16 1974.07C1824.67 1928.42 1804.05 1891.49 1784.05 1855.76C1761.93 1816.16 1741.07 1778.77 1730.68 1733.58C1723.12 1700.91 1713.2 1671.31 1704.46 1645.17C1697.53 1624.71 1691.08 1605.34 1686.75 1587.71C1679.82 1559.29 1679.59 1537.17 1685.8 1517.96C1687.54 1512.61 1691.87 1502.61 1699.9 1485.6C1717.29 1448.53 1747.76 1386.65 1780.11 1321.15C1801.6 1277.46 1823.88 1232.28 1843.96 1191.03C1871.51 1134.35 1903.94 1066.17 1911.19 1041.77C1925.36 992.962 1920 945.413 1894.65 896.37C1857.66 824.811 1786.57 771.123 1734.69 731.84C1717.61 718.93 1702.81 707.752 1692.65 698.384C1681.71 688.307 1670.38 677.837 1659.28 665.163C1635.34 637.846 1585.91 623.44 1512.3 622.259C1449.17 621.236 1383.04 630.683 1349.27 636.351C1342.5 637.453 1335.65 636.508 1329.43 633.674C1282.04 611.711 1163.56 557.865 1087.6 532.359C1036.58 515.197 988.327 520.472 927.16 527.163C871.819 533.225 809.156 540.074 724.923 533.067C628.725 525.038 568.975 555.661 535.675 582.82C493.244 617.457 446.326 640.444 396.18 651.229C363.353 658.314 325.409 668.154 283.371 680.356C245.506 691.456 224.566 715.151 202.445 740.264C199.664 743.36 196.882 746.457 194.1 749.553Z" fill="#FFF8D9"/>
<path fill-rule="evenodd" clip-rule="evenodd" d="M1928.98 3167.5C1927.19 3167.5 1925.41 3167.45 1923.62 3167.34L-202.267 3002.81C-221.475 3001.32 -239.345 2991.71 -251.232 2976.52C-263.04 2961.41 -268 2941.81 -264.772 2922.83C-243.911 2799.55 -192.426 2502.22 -164.323 2404.68C-130 2285.81 -37.5014 2031.62 3.27667 1966.05C31.6953 1920.23 63.8139 1879.21 80.3456 1858.75C83.888 1854.42 85.7774 1849.14 85.8561 1843.47C86.0135 1834.74 81.369 1827.73 75.9371 1819.62C59.1693 1794.43 38.2292 1763.02 113.802 1655.09C117.266 1649.74 154.187 1573.46 155.84 1568.34C157.808 1560.08 157.651 1551.1 155.289 1541.1C154.344 1537.17 153.085 1533.07 151.353 1528.98C144.976 1513.08 134.191 1497.73 123.8 1482.85C105.93 1457.34 89.0837 1433.33 94.8304 1408.38C98.1367 1393.66 97.3495 1379.8 92.3901 1366.1C81.9987 1337.29 54.6034 1313.99 30.357 1293.44C2.41071 1269.75 -21.7569 1249.2 -18.2144 1224.09C-17.2173 1217 -16.1939 1210.05 -15.1443 1203.23C-7.35083 1152.3 2.25327 1103.8 13.4318 1059.01C20.6742 1030.35 28.7039 1002.33 37.3633 975.879C41.0633 964.7 43.8972 956.356 46.6525 948.641C100.813 796.393 162.531 726.015 169.38 718.458C172.45 715.073 175.521 711.609 178.591 708.224C201.026 682.954 224.171 656.897 265.264 644.853C308.482 632.257 347.528 622.181 381.3 614.938C431.052 604.232 477.656 581.324 519.851 546.922C555.276 518.031 618.883 485.362 720.513 493.864C805.691 500.949 869.298 494.021 925.427 487.881C989.192 480.875 1039.57 475.364 1093.81 493.628C1171.98 519.921 1293.53 575.105 1342.18 597.619C1346.67 599.745 1351.71 600.375 1356.59 599.587C1434.6 586.441 1622.51 563.297 1682.81 632.336C1693.83 644.853 1705.17 655.323 1716.19 665.478C1726.42 674.924 1741.7 686.339 1759.33 699.643C1813.33 740.185 1887.25 795.763 1926.54 870.076C1953.77 921.561 1959.91 974.068 1944.72 1026.1C1938.9 1046.1 1917.33 1093.57 1874.89 1180.16C1852.54 1225.59 1827.74 1275.18 1803.81 1323.2C1772.48 1385.86 1742.88 1445.06 1725.87 1480.96C1718 1497.41 1713.43 1507.88 1711.78 1512.84C1705.72 1530.79 1706.04 1551.1 1712.65 1578.73C1716.98 1596.6 1723.51 1616.36 1730.52 1637.22C1739.41 1664.07 1749.57 1694.45 1757.28 1728.15C1767.6 1773.18 1788.77 1810.81 1811.21 1850.72C1831.99 1887.56 1853.4 1925.66 1868.6 1973.13C1894.97 2055.95 1932.36 2138.45 1979.67 2218.27C2007.62 2265.43 2031.31 2306.75 2050.13 2341.16C2069.73 2377.05 2084.14 2405.55 2092.8 2425.78C2156.4 2573.7 2177.74 2906.14 2183.96 3042.18C2184.17 3045.9 2184.32 3049.5 2184.43 3052.96C2185.85 3086.02 2163.41 3115.39 2131.13 3122.79L1944.41 3165.77C1939.37 3166.95 1934.17 3167.5 1928.98 3167.5ZM176.623 725.149C169.931 732.549 109.473 801.51 55.9417 951.947C53.2652 959.583 50.4312 967.849 46.81 978.949C38.1505 1005.24 30.1996 1032.95 23.0359 1061.37C11.9361 1105.85 2.332 1154.11 -5.38275 1204.65C-6.43237 1211.52 -7.45578 1218.47 -8.45294 1225.51C-11.2082 1245.19 10.9914 1264.08 36.7336 1285.89C61.9246 1307.22 90.422 1331.47 101.679 1362.72C107.269 1378.07 108.134 1394.21 104.435 1410.58C99.7112 1431.29 115.298 1453.56 131.909 1477.18C142.615 1492.45 153.715 1508.35 160.563 1525.28C162.374 1529.85 163.87 1534.41 164.893 1538.9C167.648 1550.39 167.806 1560.78 165.365 1570.78C164.027 1576.45 124.115 1657.53 121.911 1660.76C50.195 1763.1 69.0096 1791.44 84.2029 1814.19C90.1858 1823.24 95.9326 1831.82 95.7751 1843.63C95.6176 1851.58 92.9411 1858.9 88.0604 1864.97C71.6074 1885.2 39.8037 1925.9 11.6212 1971.24C-28.6845 2036.19 -120.632 2289.04 -154.797 2407.44C-182.822 2504.5 -234.228 2801.36 -255.089 2924.41C-257.766 2940.7 -253.593 2957.47 -243.438 2970.46C-233.283 2983.53 -218.011 2991.72 -201.479 2992.97L1924.41 3157.5C1930.39 3157.98 1936.38 3157.5 1942.2 3156.17L2128.93 3113.18C2156.56 3106.81 2175.77 3081.69 2174.59 3053.35C2174.43 3049.89 2174.27 3046.32 2174.12 3042.65C2167.9 2907.09 2146.72 2576.14 2083.74 2429.72C2075.16 2409.72 2060.91 2381.54 2041.47 2345.88C2022.66 2311.64 1999.04 2270.38 1971.17 2223.31C1923.47 2142.85 1885.76 2059.65 1859.15 1976.12C1844.35 1929.6 1823.09 1891.97 1802.63 1855.52C1779.8 1815.06 1758.31 1776.8 1747.68 1730.35C1740.04 1697.13 1730.05 1666.98 1721.15 1640.37C1714.06 1619.27 1707.45 1599.28 1703.04 1581.09C1695.96 1551.49 1695.8 1529.45 1702.41 1509.69C1704.22 1504.26 1708.87 1493.79 1716.98 1476.71C1734.06 1440.73 1763.66 1381.53 1794.99 1318.79C1818.92 1270.85 1843.72 1221.26 1866 1175.83C1892.21 1122.38 1927.87 1048.46 1935.27 1023.27C1949.92 973.202 1944.17 924.552 1917.8 874.642C1879.54 802.297 1806.64 747.506 1753.43 707.515C1735.56 694.133 1720.13 682.482 1709.58 672.799C1698.32 662.408 1686.75 651.78 1675.41 638.791C1650.93 610.845 1600.39 596.124 1525.05 594.864C1460.42 593.841 1392.8 603.524 1358.24 609.27C1351.39 610.451 1344.39 609.506 1338.01 606.594C1289.52 584.158 1168.44 529.052 1090.66 502.995C1038.47 485.44 989.034 490.872 926.529 497.642C869.928 503.861 805.848 510.868 719.648 503.704C621.245 495.517 560.078 526.848 526.07 554.558C482.694 589.983 434.674 613.521 383.347 624.542C349.811 631.785 311.001 641.783 268.019 654.378C229.681 665.557 208.426 689.409 185.991 714.758C182.842 718.222 179.772 721.685 176.623 725.149Z" fill="#FFF8D9"/>
<path fill-rule="evenodd" clip-rule="evenodd" d="M1950.7 3197.18C1948.92 3197.18 1947.11 3197.1 1945.27 3196.94L-228.086 3028.79C-247.767 3027.3 -265.952 3017.54 -278.075 3002.03C-290.119 2986.52 -295.158 2966.52 -291.93 2947.16C-270.596 2821.12 -217.931 2517.34 -189.198 2417.59C-154.088 2296.05 -59.5424 2036.26 -17.8985 1969.19C11.2287 1922.43 43.9771 1880.47 60.9023 1859.61C64.5236 1855.13 66.4916 1849.69 66.5703 1843.87C66.7278 1834.97 61.847 1827.73 56.179 1819.39C38.7027 1793.64 16.9754 1761.6 94.9102 1651.39C98.374 1645.88 136.161 1567.87 137.814 1562.59C139.782 1553.93 139.546 1544.72 137.184 1534.73C136.161 1530.71 134.822 1526.46 133.09 1522.21C126.399 1505.99 115.299 1490.25 104.514 1475.06C86.0934 1449.08 68.6171 1424.52 74.4425 1399.09C77.9063 1383.97 77.0404 1369.88 71.9234 1355.79C61.1385 1326.35 32.7986 1302.65 7.76495 1281.71C-21.126 1257.55 -46.081 1236.68 -42.4598 1210.94C-41.4101 1203.7 -40.3605 1196.56 -39.3109 1189.53C-31.36 1138.12 -21.3622 1088.53 -9.39648 1042.01C-1.91788 1012.88 6.42667 984.223 15.5584 957.064C18.6286 947.617 21.9349 938.249 25.1625 929.196C81.9998 772.776 144.899 701.611 151.905 694.054C155.369 690.275 158.754 686.496 162.139 682.718C184.89 657.29 208.427 630.997 249.914 618.874C294.077 605.964 333.989 595.651 368.469 588.251C419.403 577.309 467.108 553.928 510.169 518.74C546.381 489.219 611.327 455.841 715.24 464.5C802.385 471.742 867.41 464.657 924.798 458.36C989.98 451.196 1041.46 445.607 1096.88 464.264C1176.79 491.108 1301.09 547.552 1350.76 570.539C1355.41 572.664 1360.52 573.373 1365.56 572.585C1445.31 559.124 1637.31 535.507 1699.03 605.964C1710.21 618.795 1721.86 629.501 1733.12 639.893C1743.67 649.654 1759.65 661.541 1778.07 675.318C1833.41 716.568 1909.14 773.169 1949.6 848.27C1977.94 900.542 1984.48 954.151 1968.89 1007.6C1962.99 1027.76 1940.16 1077.74 1896.94 1164.97C1872.93 1213.38 1846.32 1265.97 1820.5 1316.9C1789.4 1378.46 1759.96 1436.64 1742.96 1472.06C1735.01 1488.44 1730.13 1499.46 1728.31 1504.73C1722.1 1522.92 1722.25 1543.7 1729.02 1572.2C1733.35 1590.54 1740.04 1610.93 1747.21 1632.5C1756.26 1659.82 1766.49 1690.75 1774.37 1725C1784.84 1771.13 1806.64 1809.55 1829.71 1850.24C1851.04 1887.79 1873.08 1926.68 1888.59 1975.18C1916.38 2061.69 1954.48 2146.08 2001.95 2226.22C2030.53 2274.4 2054.77 2316.67 2074.06 2351.86C2094.29 2388.7 2109.01 2417.83 2117.91 2438.46C2183.01 2589.44 2204.9 2929.76 2211.27 3069.02C2211.48 3072.85 2211.67 3076.55 2211.83 3080.12C2213.24 3113.89 2190.33 3143.88 2157.43 3151.44L1966.45 3195.37C1961.25 3196.55 1955.98 3197.18 1950.7 3197.18ZM682.492 473.002C600.306 473.002 547.405 501.106 516.388 526.376C472.068 562.509 423.024 586.598 370.595 597.855C336.272 605.255 296.596 615.489 252.669 628.321C213.859 639.657 192.289 663.746 169.539 689.252C166.075 693.109 162.69 696.966 159.147 700.745C134.271 727.747 80.0318 807.02 34.4517 932.581C31.2241 941.556 27.9965 950.845 24.9264 960.134C15.8733 987.136 7.60751 1015.55 0.128906 1044.45C-11.6794 1090.66 -21.6771 1139.94 -29.5493 1191.03C-30.5989 1198.06 -31.6486 1205.17 -32.6982 1212.36C-35.5322 1232.59 -12.5453 1251.88 14.1414 1274.16C40.1197 1295.88 69.4831 1320.52 81.2126 1352.41C86.9594 1368.07 87.904 1384.52 84.1254 1401.29C79.2446 1422.47 95.4613 1445.22 112.544 1469.39C123.644 1485.05 135.137 1501.19 142.222 1518.51C144.112 1523.23 145.686 1527.88 146.709 1532.36C149.543 1543.94 149.78 1554.56 147.418 1564.96C146.08 1570.7 105.223 1653.75 102.94 1657.06C29.0199 1761.76 48.6217 1790.65 64.3661 1813.87C70.6638 1823.16 76.6468 1831.98 76.4893 1844.03C76.3319 1852.13 73.5766 1859.61 68.6171 1865.83C51.7706 1886.54 19.2584 1928.1 -9.47519 1974.47C-50.8043 2040.83 -144.798 2299.27 -179.672 2420.35C-208.327 2519.54 -260.913 2822.93 -282.168 2948.81C-285.002 2965.42 -280.673 2982.66 -270.281 2995.97C-259.89 3009.27 -244.224 3017.69 -227.378 3018.95L1946.06 3187.1C1952.2 3187.57 1958.26 3187.1 1964.24 3185.76L2155.22 3141.84C2183.49 3135.3 2203.17 3109.56 2201.91 3080.51C2201.8 3077 2201.64 3073.32 2201.43 3069.49C2195.06 2930.78 2173.33 2591.88 2108.86 2442.31C2100.04 2422.08 2085.48 2393.19 2065.4 2356.58C2046.19 2321.47 2021.95 2279.36 1993.53 2231.26C1945.67 2150.49 1907.17 2065.39 1879.15 1978.17C1864.03 1930.62 1842.23 1892.28 1821.13 1855.13C1797.67 1813.8 1775.55 1774.75 1764.68 1727.2C1757.05 1693.43 1746.81 1662.65 1737.84 1635.57C1730.68 1613.84 1723.83 1593.3 1719.42 1574.4C1712.18 1544.02 1712.1 1521.58 1718.95 1501.51C1720.91 1495.76 1725.87 1484.74 1734.06 1467.81C1751.07 1432.23 1780.51 1374.05 1811.76 1312.42C1837.5 1261.56 1864.11 1208.97 1888.12 1160.56C1931.02 1073.89 1953.7 1024.37 1959.36 1004.85C1974.24 953.994 1968.02 902.903 1940.94 852.915C1901.5 779.782 1826.72 723.968 1772.16 683.19C1753.51 669.256 1737.37 657.212 1726.5 647.214C1715.01 636.586 1703.12 625.723 1691.55 612.419C1666.6 583.843 1614.8 568.728 1537.73 567.547C1471.68 566.445 1402.56 576.364 1367.22 582.268C1360.21 583.449 1353.13 582.504 1346.59 579.513C1297.08 556.526 1173.17 500.319 1093.74 473.553C1040.36 455.683 989.823 461.194 925.822 468.2C868.04 474.498 802.543 481.661 714.453 474.34C703.353 473.396 692.647 473.002 682.492 473.002Z" fill="#FFF8D9"/>
<path fill-rule="evenodd" clip-rule="evenodd" d="M1972.43 3226.78C1970.54 3226.78 1968.65 3226.7 1966.92 3226.62L-253.908 3054.77C-273.982 3053.28 -292.56 3043.28 -304.92 3027.45C-317.2 3011.71 -322.396 2991.24 -319.011 2971.48C-297.284 2842.77 -243.438 2532.37 -214.075 2430.51C-178.256 2306.36 -81.5854 2040.91 -38.9967 1972.42C-9.31854 1924.64 24.1383 1881.73 41.5359 1860.4C45.1571 1855.91 47.2039 1850.32 47.2826 1844.34C47.44 1835.13 42.3231 1827.73 36.419 1819.23C18.3129 1792.94 -4.28033 1760.27 76.0161 1647.61C79.3225 1642.5 118.29 1561.89 119.786 1556.93C126.634 1525.04 105.537 1495.68 85.2267 1467.34C66.1759 1440.81 48.2273 1415.78 54.1314 1389.8C66.2546 1336.9 23.1937 1301.39 -14.7504 1270.06C-44.6647 1245.42 -70.4069 1224.09 -66.7069 1197.8C-15.3014 834.258 128.366 676.184 134.507 669.571C138.285 665.478 141.985 661.384 145.685 657.212C168.751 631.548 192.604 605.098 234.562 592.817C279.67 579.671 320.448 569.122 355.716 561.565C407.751 550.307 456.48 526.455 500.564 490.479C537.485 460.328 603.926 426.241 710.044 435.137C799.078 442.537 865.52 435.294 924.168 428.839C990.766 421.597 1043.35 415.85 1099.95 434.822C1181.59 462.296 1308.57 519.921 1359.34 543.459C1364.15 545.663 1369.42 546.371 1374.54 545.505C1456.01 531.808 1652.19 507.64 1715.17 579.592C1726.66 592.739 1738.55 603.76 1750.12 614.308C1760.9 624.306 1777.51 636.665 1796.72 650.914C1887.33 718.3 2038.95 831.03 1992.98 989.104C1981.4 1029.02 1904.1 1180.08 1835.85 1313.28C1790.35 1402.16 1751.06 1478.91 1744.84 1496.55C1732.41 1531.97 1746.34 1574.17 1763.9 1627.7C1773.11 1655.49 1783.5 1687.05 1791.37 1721.77C1802.08 1769.16 1824.51 1808.52 1848.36 1850.17C1870.17 1888.43 1892.69 1927.94 1908.59 1977.22C1937.24 2066.49 1976.21 2152.93 2024.31 2234.09C2066.11 2304.71 2120.66 2399.72 2142.94 2451.05C2210.8 2607.71 2232.84 2962.12 2239.14 3107.28C2240.64 3141.76 2217.33 3172.38 2183.64 3180.1L1988.49 3224.97C1983.22 3226.23 1977.86 3226.78 1972.43 3226.78ZM676.508 443.56C592.59 443.56 538.43 472.372 506.783 498.193C461.518 535.114 411.372 559.675 357.762 571.169C322.731 578.726 282.189 589.196 237.318 602.264C198.035 613.757 176.229 638.082 153.006 663.825C149.306 667.997 145.528 672.169 141.67 676.341C135.688 682.797 -5.93347 838.666 -56.9454 1199.21C-59.8581 1220 -36.084 1239.68 -8.53131 1262.43C29.6489 1293.92 77.197 1333.2 63.7355 1392C58.776 1413.65 75.5439 1436.88 93.2563 1461.59C113.803 1490.25 137.183 1522.76 129.39 1559.21C128.209 1565.03 86.4075 1649.98 84.0458 1653.36C7.76416 1760.34 28.1532 1789.86 44.6061 1813.56C51.14 1823.09 57.3591 1832.06 57.2016 1844.5C57.0442 1852.69 54.2889 1860.4 49.172 1866.62C32.0106 1887.8 -1.21017 1930.31 -30.6522 1977.62C-72.8472 2045.48 -168.888 2309.59 -204.549 2433.18C-233.834 2534.58 -287.522 2844.58 -309.328 2973.14C-312.162 2990.22 -307.754 3007.77 -297.126 3021.39C-286.42 3035.01 -270.44 3043.59 -253.199 3044.93L1967.71 3216.78C1974.01 3217.25 1980.22 3216.78 1986.29 3215.36L2181.44 3170.49C2210.49 3163.8 2230.56 3137.43 2229.3 3107.67C2223 2963.14 2201.12 2610.15 2133.89 2454.99C2111.85 2404.13 2057.53 2309.51 2015.81 2239.13C1967.31 2157.34 1928.11 2070.27 1899.14 1980.29C1883.63 1931.88 1861.35 1892.83 1839.78 1855.05C1815.62 1812.77 1792.79 1772.78 1781.69 1723.97C1773.97 1689.65 1763.66 1658.4 1754.53 1630.77C1736.34 1575.5 1722.02 1531.89 1735.56 1493.24C1742.01 1474.98 1781.45 1397.99 1827.11 1308.79C1891.74 1182.52 1972.19 1025.4 1983.53 986.349C2027.54 834.888 1879.38 724.677 1790.9 658.865C1771.45 644.38 1754.61 631.942 1743.43 621.63C1731.7 610.845 1719.58 599.666 1707.77 586.126C1682.18 556.92 1629.28 541.412 1550.48 540.231C1482.94 539.129 1412.32 549.205 1376.19 555.267C1369.03 556.448 1361.78 555.503 1355.17 552.433C1304.55 528.974 1177.97 471.507 1096.81 444.19C1042.25 425.848 990.609 431.516 925.191 438.679C866.149 445.135 799.157 452.456 709.178 444.977C697.842 444.033 686.978 443.56 676.508 443.56Z" fill="#FFF8D9"/>
</g>
</g>
</g>
</svg>
