<svg width="50" height="32" viewBox="0 0 50 32" fill="none" xmlns="http://www.w3.org/2000/svg">
<path d="M34.1812 19.6787C30.9148 20.2072 27.8461 21.3205 25.0867 22.906C21.1302 20.6327 16.5373 19.3301 11.6379 19.3301C8.17407 19.3301 4.86309 19.9808 1.82206 21.1657C1.19019 21.412 0.698469 20.5897 1.21839 20.1561L19.5489 4.86574" stroke="white" stroke-width="1.2" stroke-miterlimit="10" stroke-linecap="round" stroke-linejoin="round"/>
<path d="M22.2617 2.82669L23.9042 1.44918C24.6183 0.850254 25.6599 0.850254 26.3739 1.44918L48.7836 20.2447C49.2987 20.6766 48.8116 21.4957 48.1856 21.2503C45.1731 20.0701 41.8933 19.422 38.4618 19.422C38.1365 19.422 37.8125 19.4277 37.49 19.4393" stroke="white" stroke-width="1.2" stroke-miterlimit="10" stroke-linecap="round" stroke-linejoin="round"/>
<path d="M39.6574 12.5973C34.2105 9.66603 28.5158 7.12078 25.1607 7.12078C21.8057 7.12078 16.1109 9.66603 10.6641 12.5973" stroke="white" stroke-width="1.2" stroke-miterlimit="10" stroke-linecap="round" stroke-linejoin="round"/>
<path d="M36.114 27.4161H14.208" stroke="white" stroke-width="1.2" stroke-miterlimit="10" stroke-linecap="round" stroke-linejoin="round"/>
<path d="M36.1143 25.3528V29.8014C36.1143 30.4411 36.6372 30.9597 37.2823 30.9597H38.4898C39.1349 30.9597 39.6579 30.4411 39.6579 29.8014V25.3528C39.6579 24.7131 39.1349 24.1946 38.4898 24.1946H37.2823C36.6372 24.1946 36.1143 24.7131 36.1143 25.3528Z" stroke="white" stroke-width="1.2" stroke-miterlimit="10" stroke-linecap="round" stroke-linejoin="round"/>
<path d="M10.6641 25.3528V29.8014C10.6641 30.4411 11.187 30.9597 11.8321 30.9597H13.0397C13.6847 30.9597 14.2077 30.4411 14.2077 29.8014V25.3528C14.2077 24.7131 13.6847 24.1946 13.0397 24.1946H11.8321C11.187 24.1946 10.6641 24.7131 10.6641 25.3528Z" stroke="white" stroke-width="1.2" stroke-miterlimit="10" stroke-linecap="round" stroke-linejoin="round"/>
<path d="M16.1406 27.4161L25.1608 12.9195L34.1809 27.4161" stroke="white" stroke-width="1.2" stroke-miterlimit="10" stroke-linecap="round" stroke-linejoin="round"/>
</svg>
