<svg width="39" height="39" viewBox="0 0 39 39" fill="none" xmlns="http://www.w3.org/2000/svg">
<path d="M14.9651 33.4852C18.1893 31.3328 21.6719 28.4698 25.0709 25.0709C34.7683 15.3737 40.1099 4.99282 37.0019 1.88477C33.8939 -1.22329 23.5131 4.11838 13.8157 13.8158C4.11838 23.5131 -1.22329 33.8939 1.88477 37.002C3.7939 38.9111 8.44749 37.6311 14.0009 34.1128" stroke="white" stroke-width="1.2" stroke-miterlimit="22.9256"/>
<path d="M21.1475 11.8542C19.4736 12.8858 17.6973 14.2915 15.9944 15.9944C11.0768 20.912 8.63447 26.4427 10.5392 28.3475M10.5392 28.3475C12.444 30.2524 17.9748 27.81 22.8923 22.8924C27.81 17.9748 30.2523 12.4441 28.3476 10.5393M10.5392 28.3475L7.55028 31.3365M28.3476 10.5393C27.235 9.42673 24.8853 9.79768 22.1434 11.2783M28.3476 10.5393L36.897 1.98972M5.18864 33.6981L2.19971 36.6871M27.8507 6.44061L27.0634 5.65338M29.8187 5.25979L29.0315 4.47263" stroke="white" stroke-width="1.2" stroke-miterlimit="22.9256"/>
<path d="M6.36963 34.1873C7.2919 34.1873 8.03955 33.4396 8.03955 32.5174C8.03955 31.5951 7.2919 30.8474 6.36963 30.8474C5.44736 30.8474 4.69971 31.5951 4.69971 32.5174C4.69971 33.4396 5.44736 34.1873 6.36963 34.1873Z" stroke="white" stroke-width="1.2" stroke-miterlimit="22.9256"/>
<path d="M6.40184 6.40201L32.4846 32.4848M6.00819 2.07231L9.94423 6.00835L9.55065 9.55074L6.00826 9.94439L2.07222 6.00835C1.63938 5.57551 1.6393 4.86694 2.07222 4.43395L4.43386 2.07231C4.86678 1.63939 5.57527 1.63939 6.00819 2.07231ZM36.8143 32.8784L32.8783 28.9423L29.3359 29.3359L28.9422 32.8783L32.8783 36.8143C33.3112 37.2472 34.0197 37.2472 34.4527 36.8143L36.8143 34.4527C37.2472 34.0198 37.2472 33.3114 36.8143 32.8784Z" stroke="white" stroke-width="1.2" stroke-miterlimit="22.9256"/>
</svg>
