<svg xmlns="http://www.w3.org/2000/svg" width="32" height="32" viewBox="0 0 32 32" fill="none">
<g clip-path="url(#clip0_835_47472)">
<path fill-rule="evenodd" clip-rule="evenodd" d="M14.7293 9.06331C13.7042 9.34658 12.9915 10.5386 12.869 12.1751L12.8381 12.5885L11.398 12.602C10.0025 12.6151 9.95211 12.6187 9.76865 12.7169C9.48638 12.868 9.29587 13.0533 9.14833 13.3202L9.01621 13.5592L9.00325 15.5789C8.99374 17.0551 9.00451 17.6331 9.04317 17.7267C9.11609 17.9031 9.2991 17.9853 9.61881 17.9853H9.88955L9.90135 24.5122L9.91314 31.0391L10.0143 31.2288C10.1651 31.5117 10.35 31.7026 10.6164 31.8504L10.8549 31.9828L20.2502 31.9947C29.5534 32.0065 29.6485 32.0057 29.9436 31.9162C30.4119 31.7741 30.7837 31.4611 30.9684 31.0535C31.0543 30.8636 31.0563 30.719 31.0572 24.4224L31.0582 17.9853H31.3252C31.6563 17.9853 31.7946 17.9246 31.91 17.7285C31.9964 17.5818 32 17.4969 32 15.5985C32 14.4745 31.983 13.6318 31.9606 13.6457C31.939 13.6591 31.91 13.614 31.8964 13.5456C31.8288 13.2068 31.3616 12.7466 30.9765 12.6395C30.8858 12.6142 30.4442 12.5935 29.9951 12.5933L29.1788 12.593L29.1565 12.447C29.1443 12.3667 29.1223 12.1431 29.1075 11.9502C29.0061 10.6203 28.3285 9.45685 27.4622 9.12518C27.1641 9.01109 26.6232 8.97043 26.3071 9.03837C25.8643 9.1335 25.5304 9.34631 24.1844 10.3911L22.8491 11.4276L22.7014 11.3147C22.1303 10.8783 21.0777 10.6888 20.2147 10.867C19.8679 10.9387 19.2585 11.1891 19.1999 11.2841C19.1827 11.312 19.1388 11.3348 19.1023 11.3348C19.0658 11.3348 18.4625 10.8894 17.7618 10.3451C17.061 9.80075 16.3706 9.2976 16.2276 9.22701C15.7717 9.00215 15.1834 8.93785 14.7293 9.06331ZM14.8803 9.96863C14.4392 10.1317 14.0567 10.7215 13.8734 11.5215C13.7356 12.1225 13.7352 13.1709 13.8724 13.7258C14.0017 14.2488 14.1903 14.6521 14.4245 14.9066C14.6702 15.1738 14.8048 15.2418 15.1502 15.2733C15.5389 15.3088 15.6838 15.2448 17.1104 14.4075C18.1335 13.807 18.3218 13.6805 18.3218 13.5941V13.4918H17.5616C16.7339 13.4918 16.6072 13.4641 16.5022 13.2606C16.4213 13.1038 16.4213 12.981 16.5022 12.8242C16.6072 12.6207 16.7339 12.593 17.5616 12.593C18.2554 12.593 18.3219 12.5862 18.3228 12.5144C18.3234 12.4711 18.3622 12.351 18.4091 12.2475L18.4945 12.0592L17.2533 11.0966C16.5707 10.5673 15.9257 10.09 15.8198 10.0361C15.5653 9.90652 15.1324 9.87543 14.8803 9.96863ZM26.3226 9.97627C26.1969 10.0213 26.0153 10.1195 25.919 10.1946C25.8227 10.2696 25.2174 10.7381 24.574 11.2357L23.404 12.1405L23.4752 12.3662L23.5465 12.5918L24.2955 12.5925C25.1111 12.5931 25.239 12.6214 25.3437 12.8242C25.4216 12.9753 25.4245 13.0909 25.354 13.2459C25.2562 13.461 25.1231 13.4918 24.2887 13.4918C23.7065 13.4918 23.5242 13.5052 23.5247 13.5479C23.5256 13.6241 26.0956 15.1282 26.3895 15.2245C26.6744 15.3179 27.0207 15.2926 27.2811 15.1595C27.6135 14.9896 27.8802 14.5761 28.0819 13.9177C28.1989 13.5358 28.2055 13.4675 28.2051 12.638C28.2046 11.6734 28.1469 11.3431 27.8781 10.7676C27.5471 10.0588 26.9459 9.75293 26.3226 9.97627ZM20.3574 11.7612C19.8401 11.874 19.4818 12.1264 19.289 12.514C19.0554 12.9837 19.1754 13.601 19.5673 13.9458C20.227 14.5261 21.6189 14.5261 22.2786 13.9458C22.8003 13.4869 22.8042 12.6014 22.2865 12.146C21.8446 11.7572 21.0776 11.6042 20.3574 11.7612ZM10.0432 13.6445L9.89072 13.7973V15.442V17.0866H12.932H15.9733L16.583 16.2665C16.9183 15.8155 17.1877 15.4413 17.1815 15.435C17.1753 15.4287 16.9602 15.5452 16.7034 15.6941C16.0925 16.0481 15.8208 16.1473 15.3844 16.1757C14.4786 16.2346 13.7807 15.7943 13.3302 14.88C13.203 14.6218 13.0846 14.2922 13.0253 14.031C12.9719 13.7962 12.9216 13.5788 12.9133 13.5479C12.9017 13.5046 12.5901 13.4918 11.5469 13.4918H10.1957L10.0432 13.6445ZM28.9858 13.9974C28.7467 14.9912 28.2845 15.6647 27.6133 15.9971C27.2822 16.1611 27.2607 16.1654 26.7778 16.1648C26.1692 16.1641 25.9735 16.0989 25.2152 15.6446C24.9227 15.4693 24.6769 15.3328 24.6691 15.3412C24.6612 15.3497 24.9379 15.7458 25.2837 16.2216L25.9125 17.0866H28.4854H31.0582V15.442V13.7973L30.9057 13.6445L30.7533 13.4918L29.9303 13.4918L29.1074 13.4919L28.9858 13.9974ZM9.01442 15.6711C9.01442 16.7833 9.02025 17.2318 9.02738 16.6679C9.03451 16.104 9.03451 15.194 9.02738 14.6458C9.02025 14.0976 9.01442 14.559 9.01442 15.6711ZM22.8039 14.6857C22.6736 14.825 22.0465 15.1358 21.8087 15.1789C21.7162 15.1956 21.6405 15.2302 21.6405 15.2558C21.6405 15.3049 24.3193 20.6332 24.375 20.6949C24.3929 20.7147 24.4851 20.4335 24.5799 20.0701C24.7613 19.3753 24.86 19.1883 25.0738 19.1346C25.1455 19.1165 25.4166 19.1662 25.7953 19.2669C26.1289 19.3556 26.418 19.422 26.4377 19.4145C26.4751 19.4002 23.0123 14.6018 22.9494 14.5806C22.9296 14.5739 22.8642 14.6212 22.8039 14.6857ZM17.1631 17.0006C16.1931 18.3125 15.4093 19.3959 15.4214 19.4079C15.4335 19.42 15.7172 19.3572 16.0519 19.2682C16.4265 19.1686 16.7038 19.1174 16.7737 19.135C16.9858 19.1883 17.0849 19.3766 17.2659 20.0701C17.3608 20.4335 17.453 20.7147 17.4708 20.6949C17.5265 20.6332 20.2054 15.3049 20.2054 15.2558C20.2054 15.2302 20.1305 15.1953 20.0391 15.1781C19.805 15.134 19.3167 14.9055 19.1205 14.748C19.0294 14.6749 18.9486 14.6152 18.9409 14.6152C18.9332 14.6152 18.1332 15.6886 17.1631 17.0006ZM20.4627 16.7948L20.026 17.6714V24.389V31.1065H20.9229H21.8199V24.389V17.6714L21.3831 16.7948C21.143 16.3127 20.9359 15.9183 20.9229 15.9183C20.91 15.9183 20.7029 16.3127 20.4627 16.7948ZM10.7876 24.3931V30.801L10.9401 30.9537L11.0926 31.1065H15.1108H19.1291L19.1267 25.2761L19.1242 19.4457L18.4116 20.8672C17.6906 22.3053 17.5768 22.4789 17.3545 22.4789C17.1922 22.4789 17.0319 22.4022 16.9595 22.2899C16.923 22.2332 16.7725 21.7354 16.6251 21.1838C16.4777 20.6321 16.3471 20.1706 16.3348 20.1584C16.3225 20.1461 15.8548 20.2588 15.2953 20.4087C14.7359 20.5587 14.231 20.6815 14.1732 20.6815C14.0284 20.6815 13.805 20.4819 13.7698 20.3212C13.7288 20.1341 13.775 20.057 14.5703 18.986C14.9564 18.4661 15.2723 18.0282 15.2723 18.013C15.2723 17.9978 14.2632 17.9853 13.03 17.9853H10.7876V24.3931ZM26.7211 18.1988C27.8092 19.6959 28.0245 20.0006 28.0603 20.0939C28.0832 20.1538 28.0897 20.2594 28.0745 20.3286C28.0406 20.483 27.8147 20.6815 27.6726 20.6815C27.6149 20.6815 27.11 20.5587 26.5505 20.4087C25.9911 20.2588 25.5231 20.1463 25.5106 20.1589C25.498 20.1714 25.3897 20.5494 25.2699 20.9988C24.9357 22.2519 24.9245 22.2845 24.7957 22.386C24.6442 22.5054 24.4207 22.5045 24.2676 22.3838C24.1885 22.3215 23.9014 21.799 23.4343 20.8672L22.7216 19.4457L22.7192 25.2761L22.7168 31.1065H26.1087C28.6183 31.1065 29.5474 31.0925 29.6804 31.0526C29.7792 31.0229 29.9279 30.9346 30.0107 30.8563L30.1613 30.714V24.3496V17.9853H28.3636H26.566L26.7211 18.1988Z" fill="white"/>
<path d="M4 14.5C4 14.2239 4.22386 14 4.5 14H7V15H4.5C4.22386 15 4 14.7761 4 14.5Z" fill="white"/>
<path d="M4 16.5C4 16.2239 4.22386 16 4.5 16H7V17H4.5C4.22386 17 4 16.7761 4 16.5Z" fill="white"/>
<path d="M4 18.5C4 18.2239 4.22386 18 4.5 18H7C7 18.5 7.5 18.5 8 18.5V19H4.5C4.22386 19 4 18.7761 4 18.5Z" fill="white"/>
<path d="M4 21C4 20.7239 4.22386 20.5 4.5 20.5H8V21.5H4.5C4.22386 21.5 4 21.2761 4 21Z" fill="white"/>
<path d="M4 12.5C4 12.2239 4.22386 12 4.5 12H8C7.54934 12.3587 7.31365 12.5692 7 13H4.5C4.22386 13 4 12.7761 4 12.5Z" fill="white"/>
<path d="M4 10C4 9.72386 4.22386 9.5 4.5 9.5H12C11.5447 9.86932 11.3145 10.0842 11 10.5H4.5C4.22386 10.5 4 10.2761 4 10Z" fill="white"/>
<path d="M4 7.5C4 7.22386 4.22386 7 4.5 7H14C14.2761 7 14.5 7.22386 14.5 7.5C14.5 7.77614 14.2761 8 14 8H4.5C4.22386 8 4 7.77614 4 7.5Z" fill="white"/>
<path fill-rule="evenodd" clip-rule="evenodd" d="M17.5 9V5.5H14C13.4477 5.5 13 5.05228 13 4.5V1H2C1.44772 1 1 1.44772 1 2V24C1 24.5523 1.44772 25 2 25H7.5C7.77614 25 8 25.2239 8 25.5C8 25.7761 7.77614 26 7.5 26H1C0.447715 26 0 25.5523 0 25V1C0 0.447716 0.447715 0 1 0H13.5714L18.5 4.85078V9.5L17.5 9ZM14 2V4.5H16.5L14 2Z" fill="white"/>
</g>
<defs>
<clipPath id="clip0_835_47472">
<rect width="32" height="32" fill="white"/>
</clipPath>
</defs>
</svg>