<svg width="736" height="275" viewBox="0 0 736 275" fill="none" xmlns="http://www.w3.org/2000/svg">
<g filter="url(#filter0_ddddd_510_403841)">
<ellipse cx="34" cy="60.5" rx="22" ry="5.5" fill="#DDBA63"/>
<path d="M33.999 7.74927C28.5309 7.75576 23.2886 9.93082 19.4221 13.7974C15.5556 17.6639 13.3805 22.9062 13.374 28.3743C13.374 46.022 32.124 59.3521 32.9224 59.9105C33.2381 60.131 33.6139 60.2493 33.999 60.2493C34.3841 60.2493 34.76 60.131 35.0757 59.9105C35.874 59.3521 54.624 46.022 54.624 28.3743C54.6175 22.9062 52.4425 17.6639 48.5759 13.7974C44.7094 9.93082 39.4671 7.75575 33.999 7.74927V7.74927ZM34.0004 20.8749C35.4838 20.8749 36.9338 21.3148 38.1672 22.1389C39.4005 22.963 40.3618 24.1344 40.9295 25.5048C41.4972 26.8753 41.6457 28.3833 41.3563 29.8381C41.0669 31.293 40.3526 32.6294 39.3037 33.6782C38.2548 34.7271 36.9184 35.4414 35.4636 35.7308C34.0087 36.0202 32.5007 35.8717 31.1303 35.304C29.7598 34.7364 28.5885 33.7751 27.7644 32.5417C26.9403 31.3084 26.5004 29.8583 26.5004 28.3749C26.5004 27.39 26.6943 26.4147 27.0712 25.5048C27.4481 24.5948 28.0006 23.768 28.697 23.0716C29.3935 22.3751 30.2203 21.8227 31.1302 21.4458C32.0402 21.0689 33.0155 20.8749 34.0004 20.8749V20.8749Z" fill="#FFF9DA"/>
<ellipse cx="34" cy="28.5" rx="13" ry="12.5" fill="#C74403"/>
<path d="M35.9498 36H33.7498V25.32H31.4498V23.76C32.3698 23.76 33.0365 23.64 33.4498 23.4C33.8765 23.1333 34.2165 22.6667 34.4698 22H35.9498V36Z" fill="white"/>
</g>
<path d="M91.28 27H89V13H92.62C95.0733 13 96.3 14.2133 96.3 16.64V17.68C96.3 20.1067 95.0733 21.32 92.62 21.32H91.28V27ZM91.28 15.02V19.32H92.62C93.1133 19.32 93.4667 19.2 93.68 18.96C93.9067 18.7067 94.02 18.3 94.02 17.74V16.56C94.02 16 93.9067 15.6067 93.68 15.38C93.4667 15.14 93.1133 15.02 92.62 15.02H91.28ZM104.828 27H102.508L102.048 24.28H98.9678L98.4878 27H96.3678L99.0478 13H102.128L104.828 27ZM100.508 15.36L99.3078 22.3H101.708L100.508 15.36ZM112.21 26.24C111.584 26.88 110.69 27.2 109.53 27.2C108.37 27.2 107.47 26.88 106.83 26.24C106.204 25.5867 105.89 24.6733 105.89 23.5V16.5C105.89 15.3267 106.204 14.42 106.83 13.78C107.47 13.1267 108.37 12.8 109.53 12.8C110.69 12.8 111.584 13.1267 112.21 13.78C112.837 14.42 113.15 15.3267 113.15 16.5V17.74H111.01V16.4C111.01 15.32 110.537 14.78 109.59 14.78C108.644 14.78 108.17 15.32 108.17 16.4V23.6C108.17 24.68 108.644 25.22 109.59 25.22C110.537 25.22 111.01 24.68 111.01 23.6V21.84H113.15V23.5C113.15 24.6733 112.837 25.5867 112.21 26.24ZM120.921 26.24C120.295 26.88 119.401 27.2 118.241 27.2C117.081 27.2 116.181 26.88 115.541 26.24C114.915 25.5867 114.601 24.6733 114.601 23.5V16.5C114.601 15.3267 114.915 14.42 115.541 13.78C116.181 13.1267 117.081 12.8 118.241 12.8C119.401 12.8 120.295 13.1267 120.921 13.78C121.548 14.42 121.861 15.3267 121.861 16.5V17.74H119.721V16.4C119.721 15.32 119.248 14.78 118.301 14.78C117.355 14.78 116.881 15.32 116.881 16.4V23.6C116.881 24.68 117.355 25.22 118.301 25.22C119.248 25.22 119.721 24.68 119.721 23.6V21.84H121.861V23.5C121.861 24.6733 121.548 25.5867 120.921 26.24ZM131.573 27H129.173L126.953 20.6L125.753 22.58V27H123.473V13H125.753V19.16L129.213 13H131.533L128.493 18.2L131.573 27ZM140.726 27H138.406L137.946 24.28H134.866L134.386 27H132.266L134.946 13H138.026L140.726 27ZM136.406 15.36L135.206 22.3H137.606L136.406 15.36ZM154.786 27H152.506L150.346 20.2L149.246 22.1V27H146.966V22.1L145.866 20.2L143.706 27H141.406L144.366 18.2L141.446 13H143.806L146.966 19.06V13H149.246V19.06L152.426 13H154.746L151.846 18.22L154.786 27ZM158.169 22.36L161.549 13H163.869V27H161.809V17.6L158.449 27H156.129V13H158.169V22.36ZM166.895 29.32H165.855L166.755 27H165.955V24.6H168.235V26.76L166.895 29.32ZM178.727 18.08V13H181.007V27H178.727V21.16C178.14 21.76 177.347 22.06 176.347 22.06C174.373 22.06 173.387 20.9333 173.387 18.68V13H175.647V18.38C175.647 19.46 176.113 20 177.047 20C177.58 20 177.993 19.84 178.287 19.52C178.58 19.1867 178.727 18.7067 178.727 18.08ZM187.324 27H185.064V15.02H182.384V13H190.004V15.02H187.324V27ZM191.125 23.44V16.56C191.125 15.36 191.445 14.4333 192.085 13.78C192.738 13.1267 193.665 12.8 194.865 12.8C196.078 12.8 197.005 13.1267 197.645 13.78C198.298 14.4333 198.625 15.36 198.625 16.56V23.44C198.625 24.64 198.298 25.5667 197.645 26.22C196.991 26.8733 196.065 27.2 194.865 27.2C193.665 27.2 192.738 26.8733 192.085 26.22C191.445 25.5667 191.125 24.64 191.125 23.44ZM194.865 25.18C195.851 25.18 196.345 24.64 196.345 23.56V16.44C196.345 15.36 195.851 14.82 194.865 14.82C193.891 14.82 193.405 15.36 193.405 16.44V23.56C193.405 24.64 193.891 25.18 194.865 25.18ZM207.644 27H203.844V13H210.384V15.02H206.124V18.5H207.644C210.097 18.5 211.324 19.7333 211.324 22.2V23.3C211.324 25.7667 210.097 27 207.644 27ZM206.124 20.52V24.98H207.644C208.124 24.98 208.477 24.86 208.704 24.62C208.93 24.3667 209.044 23.9667 209.044 23.42V22.08C209.044 21.5333 208.93 21.14 208.704 20.9C208.477 20.6467 208.124 20.52 207.644 20.52H206.124ZM216.468 27H212.828V13H215.108V18.4H216.468C218.921 18.4 220.148 19.6333 220.148 22.1V23.3C220.148 25.7667 218.921 27 216.468 27ZM223.948 27H221.668V13H223.948V27ZM215.108 20.42V24.98H216.468C216.948 24.98 217.301 24.86 217.528 24.62C217.755 24.3667 217.868 23.9667 217.868 23.42V21.98C217.868 21.4333 217.755 21.04 217.528 20.8C217.301 20.5467 216.948 20.42 216.468 20.42H215.108ZM233.691 27H231.431V15.02H228.751V13H236.371V15.02H233.691V27ZM241.39 27H237.75V13H240.03V18.4H241.39C243.843 18.4 245.07 19.6333 245.07 22.1V23.3C245.07 25.7667 243.843 27 241.39 27ZM248.87 27H246.59V13H248.87V27ZM240.03 20.42V24.98H241.39C241.87 24.98 242.223 24.86 242.45 24.62C242.677 24.3667 242.79 23.9667 242.79 23.42V21.98C242.79 21.4333 242.677 21.04 242.45 20.8C242.223 20.5467 241.87 20.42 241.39 20.42H240.03ZM255.793 27H253.633L256.593 19.82L253.753 13H256.193L257.993 17.7L259.853 13H262.053L259.213 19.82L262.173 27H259.753L257.793 21.94L255.793 27ZM262.961 23.44V16.56C262.961 15.36 263.281 14.4333 263.921 13.78C264.574 13.1267 265.501 12.8 266.701 12.8C267.914 12.8 268.841 13.1267 269.481 13.78C270.134 14.4333 270.461 15.36 270.461 16.56V23.44C270.461 24.64 270.134 25.5667 269.481 26.22C268.827 26.8733 267.901 27.2 266.701 27.2C265.501 27.2 264.574 26.8733 263.921 26.22C263.281 25.5667 262.961 24.64 262.961 23.44ZM266.701 25.18C267.687 25.18 268.181 24.64 268.181 23.56V16.44C268.181 15.36 267.687 14.82 266.701 14.82C265.727 14.82 265.241 15.36 265.241 16.44V23.56C265.241 24.64 265.727 25.18 266.701 25.18ZM276.504 27H274.244V15.02H271.564V13H279.184V15.02H276.504V27ZM287.283 27H280.563V13H287.283V15.02H282.843V18.78H286.403V20.8H282.843V24.98H287.283V27ZM288.825 27.02C288.545 27.02 288.325 26.9933 288.165 26.94V24.96C288.325 25 288.478 25.02 288.625 25.02C289.118 25.02 289.458 24.9 289.645 24.66C289.845 24.4067 289.958 23.9733 289.985 23.36L290.405 13H297.245V27H294.985V15.02H292.545L292.245 23.42C292.205 24.6733 291.918 25.5867 291.385 26.16C290.852 26.7333 289.998 27.02 288.825 27.02ZM88.82 53.44V46.56C88.82 45.36 89.14 44.4333 89.78 43.78C90.4333 43.1267 91.36 42.8 92.56 42.8C93.7733 42.8 94.7 43.1267 95.34 43.78C95.9933 44.4333 96.32 45.36 96.32 46.56V53.44C96.32 54.64 95.9933 55.5667 95.34 56.22C94.6867 56.8733 93.76 57.2 92.56 57.2C91.36 57.2 90.4333 56.8733 89.78 56.22C89.14 55.5667 88.82 54.64 88.82 53.44ZM92.56 55.18C93.5467 55.18 94.04 54.64 94.04 53.56V46.44C94.04 45.36 93.5467 44.82 92.56 44.82C91.5867 44.82 91.1 45.36 91.1 46.44V53.56C91.1 54.64 91.5867 55.18 92.56 55.18ZM102.363 57H100.103V45.02H97.423V43H105.043V45.02H102.363V57ZM114.522 57H112.122L109.902 50.6L108.702 52.58V57H106.422V43H108.702V49.16L112.162 43H114.482L111.442 48.2L114.522 57ZM118.135 57H115.855V43H119.475C121.929 43 123.155 44.2133 123.155 46.64V47.68C123.155 50.1067 121.929 51.32 119.475 51.32H118.135V57ZM118.135 45.02V49.32H119.475C119.969 49.32 120.322 49.2 120.535 48.96C120.762 48.7067 120.875 48.3 120.875 47.74V46.56C120.875 46 120.762 45.6067 120.535 45.38C120.322 45.14 119.969 45.02 119.475 45.02H118.135ZM128.304 57H124.664V43H126.944V48.4H128.304C130.757 48.4 131.984 49.6333 131.984 52.1V53.3C131.984 55.7667 130.757 57 128.304 57ZM135.784 57H133.504V43H135.784V57ZM126.944 50.42V54.98H128.304C128.784 54.98 129.137 54.86 129.364 54.62C129.591 54.3667 129.704 53.9667 129.704 53.42V51.98C129.704 51.4333 129.591 51.04 129.364 50.8C129.137 50.5467 128.784 50.42 128.304 50.42H126.944ZM142.109 57H139.849V45.02H137.169V43H144.789V45.02H142.109V57ZM149.808 57H146.168V43H148.448V48.4H149.808C152.261 48.4 153.488 49.6333 153.488 52.1V53.3C153.488 55.7667 152.261 57 149.808 57ZM148.448 50.42V54.98H149.808C150.288 54.98 150.641 54.86 150.868 54.62C151.095 54.3667 151.208 53.9667 151.208 53.42V51.98C151.208 51.4333 151.095 51.04 150.868 50.8C150.641 50.5467 150.288 50.42 149.808 50.42H148.448ZM166.894 43V54.98H168.094V58.88H165.814V57H160.074V58.88H157.814V54.98H159.114C159.407 54.6867 159.574 54.14 159.614 53.34L160.034 43H166.894ZM161.274 54.98H164.614V45.02H162.174L161.894 53.22C161.867 53.94 161.66 54.5267 161.274 54.98ZM169.489 57.02C169.209 57.02 168.989 56.9933 168.829 56.94V54.96C168.989 55 169.143 55.02 169.289 55.02C169.783 55.02 170.123 54.9 170.309 54.66C170.509 54.4067 170.623 53.9733 170.649 53.36L171.069 43H177.909V57H175.649V45.02H173.209L172.909 53.42C172.869 54.6733 172.583 55.5867 172.049 56.16C171.516 56.7333 170.663 57.02 169.489 57.02ZM187.118 43V57H184.838V51.08H183.798C183.158 51.08 182.705 51.22 182.438 51.5C182.185 51.78 182.058 52.2667 182.058 52.96V55.16C182.058 55.9467 181.985 56.56 181.838 57H179.538C179.711 56.5733 179.798 55.9667 179.798 55.18V53.1C179.798 52.18 179.931 51.4733 180.198 50.98C180.465 50.4733 180.898 50.1333 181.498 49.96V49.9C180.378 49.4867 179.818 48.5333 179.818 47.04V46.36C179.818 45.2133 180.111 44.3667 180.698 43.82C181.298 43.2733 182.225 43 183.478 43H187.118ZM183.758 49.06H184.838V45.02H183.518C183.025 45.02 182.665 45.1467 182.438 45.4C182.211 45.6533 182.098 46.0533 182.098 46.6V47.4C182.098 47.9867 182.231 48.4133 182.498 48.68C182.765 48.9333 183.185 49.06 183.758 49.06ZM198.675 56.24C198.048 56.88 197.155 57.2 195.995 57.2C194.835 57.2 193.935 56.88 193.295 56.24C192.668 55.5867 192.355 54.6733 192.355 53.5V46.5C192.355 45.3267 192.668 44.42 193.295 43.78C193.935 43.1267 194.835 42.8 195.995 42.8C197.155 42.8 198.048 43.1267 198.675 43.78C199.302 44.42 199.615 45.3267 199.615 46.5V47.74H197.475V46.4C197.475 45.32 197.002 44.78 196.055 44.78C195.108 44.78 194.635 45.32 194.635 46.4V53.6C194.635 54.68 195.108 55.22 196.055 55.22C197.002 55.22 197.475 54.68 197.475 53.6V51.84H199.615V53.5C199.615 54.6733 199.302 55.5867 198.675 56.24ZM207.947 57H201.227V43H207.947V45.02H203.507V48.78H207.067V50.8H203.507V54.98H207.947V57ZM213.249 57H209.449V43H215.989V45.02H211.729V48.5H213.249C215.703 48.5 216.929 49.7333 216.929 52.2V53.3C216.929 55.7667 215.703 57 213.249 57ZM211.729 50.52V54.98H213.249C213.729 54.98 214.083 54.86 214.309 54.62C214.536 54.3667 214.649 53.9667 214.649 53.42V52.08C214.649 51.5333 214.536 51.14 214.309 50.9C214.083 50.6467 213.729 50.52 213.249 50.52H211.729ZM225.634 43V57H223.354V51.08H222.314C221.674 51.08 221.22 51.22 220.954 51.5C220.7 51.78 220.574 52.2667 220.574 52.96V55.16C220.574 55.9467 220.5 56.56 220.354 57H218.054C218.227 56.5733 218.314 55.9667 218.314 55.18V53.1C218.314 52.18 218.447 51.4733 218.714 50.98C218.98 50.4733 219.414 50.1333 220.014 49.96V49.9C218.894 49.4867 218.334 48.5333 218.334 47.04V46.36C218.334 45.2133 218.627 44.3667 219.214 43.82C219.814 43.2733 220.74 43 221.994 43H225.634ZM222.274 49.06H223.354V45.02H222.034C221.54 45.02 221.18 45.1467 220.954 45.4C220.727 45.6533 220.614 46.0533 220.614 46.6V47.4C220.614 47.9867 220.747 48.4133 221.014 48.68C221.28 48.9333 221.7 49.06 222.274 49.06ZM230.611 53.5V52.56H232.751V53.6C232.751 54.68 233.244 55.22 234.231 55.22C235.204 55.22 235.691 54.68 235.691 53.6V50.76H233.051V48.7H235.691V46.4C235.691 45.32 235.204 44.78 234.231 44.78C233.244 44.78 232.751 45.32 232.751 46.4V47.02H230.611V46.5C230.611 45.3267 230.924 44.42 231.551 43.78C232.191 43.1267 233.104 42.8 234.291 42.8C235.477 42.8 236.384 43.1267 237.011 43.78C237.651 44.42 237.971 45.3267 237.971 46.5V53.5C237.971 54.6733 237.651 55.5867 237.011 56.24C236.384 56.88 235.477 57.2 234.291 57.2C233.104 57.2 232.191 56.88 231.551 56.24C230.924 55.5867 230.611 54.6733 230.611 53.5ZM244.023 57H241.763V45.02H239.083V43H246.703V45.02H244.023V57ZM250.122 52.36L253.502 43H255.822V57H253.762V47.6L250.402 57H248.082V43H250.122V52.36ZM259.828 57H257.828V43H261.048L262.928 53.28L264.788 43H268.008V57H265.848V46.16L263.788 57H261.888L259.828 46.16V57ZM273.474 57.02C273.194 57.02 272.974 56.9933 272.814 56.94V54.96C272.974 55 273.127 55.02 273.274 55.02C273.767 55.02 274.107 54.9 274.294 54.66C274.494 54.4067 274.607 53.9733 274.634 53.36L275.054 43H281.894V57H279.634V45.02H277.194L276.894 53.42C276.854 54.6733 276.567 55.5867 276.034 56.16C275.5 56.7333 274.647 57.02 273.474 57.02ZM290.622 57H283.902V43H290.622V45.02H286.182V48.78H289.742V50.8H286.182V54.98H290.622V57ZM296.445 57H294.185V45.02H291.505V43H299.125V45.02H296.445V57ZM300.246 53.44V46.56C300.246 45.36 300.566 44.4333 301.206 43.78C301.859 43.1267 302.786 42.8 303.986 42.8C305.199 42.8 306.126 43.1267 306.766 43.78C307.419 44.4333 307.746 45.36 307.746 46.56V53.44C307.746 54.64 307.419 55.5667 306.766 56.22C306.112 56.8733 305.186 57.2 303.986 57.2C302.786 57.2 301.859 56.8733 301.206 56.22C300.566 55.5667 300.246 54.64 300.246 53.44ZM303.986 55.18C304.972 55.18 305.466 54.64 305.466 53.56V46.44C305.466 45.36 304.972 44.82 303.986 44.82C303.012 44.82 302.526 45.36 302.526 46.44V53.56C302.526 54.64 303.012 55.18 303.986 55.18ZM311.547 57H309.547V43H312.767L314.647 53.28L316.507 43H319.727V57H317.567V46.16L315.507 57H313.607L311.547 46.16V57Z" fill="white"/>
<g filter="url(#filter1_ddddd_510_403841)">
<ellipse cx="58" cy="226.5" rx="22" ry="5.5" fill="#DDBA63"/>
<path d="M57.999 173.749C52.5309 173.756 47.2886 175.931 43.4221 179.797C39.5556 183.664 37.3805 188.906 37.374 194.374C37.374 212.022 56.124 225.352 56.9224 225.911C57.2381 226.131 57.6139 226.249 57.999 226.249C58.3841 226.249 58.76 226.131 59.0757 225.911C59.874 225.352 78.624 212.022 78.624 194.374C78.6175 188.906 76.4425 183.664 72.5759 179.797C68.7094 175.931 63.4671 173.756 57.999 173.749V173.749ZM58.0004 186.875C59.4838 186.875 60.9338 187.315 62.1672 188.139C63.4005 188.963 64.3618 190.134 64.9295 191.505C65.4972 192.875 65.6457 194.383 65.3563 195.838C65.0669 197.293 64.3526 198.629 63.3037 199.678C62.2548 200.727 60.9184 201.441 59.4636 201.731C58.0087 202.02 56.5007 201.872 55.1303 201.304C53.7598 200.736 52.5885 199.775 51.7644 198.542C50.9403 197.308 50.5004 195.858 50.5004 194.375C50.5004 193.39 50.6943 192.415 51.0712 191.505C51.4481 190.595 52.0006 189.768 52.697 189.072C53.3935 188.375 54.2203 187.823 55.1302 187.446C56.0402 187.069 57.0155 186.875 58.0004 186.875V186.875Z" fill="#FFF9DA"/>
<ellipse cx="58" cy="194.5" rx="13" ry="12.5" fill="#C74403"/>
<path d="M54.6598 198.72V197.58H56.7398V198.82C56.7398 199.74 57.1198 200.2 57.8798 200.2C58.2664 200.2 58.5531 200.08 58.7398 199.84C58.9264 199.6 59.0198 199.193 59.0198 198.62V197.48C59.0198 196.84 58.9064 196.387 58.6798 196.12C58.4531 195.84 58.0864 195.7 57.5798 195.7H56.8398V193.7H57.6398C58.0931 193.7 58.4264 193.587 58.6398 193.36C58.8531 193.12 58.9598 192.74 58.9598 192.22V191.2C58.9598 190.267 58.5931 189.8 57.8598 189.8C57.1531 189.8 56.7998 190.233 56.7998 191.1V192.02H54.7198V191.28C54.7198 190.16 54.9931 189.3 55.5398 188.7C56.0998 188.1 56.8998 187.8 57.9398 187.8C58.9931 187.8 59.7931 188.1 60.3398 188.7C60.8864 189.287 61.1598 190.14 61.1598 191.26V191.76C61.1598 193.253 60.6398 194.193 59.5998 194.58V194.62C60.6798 195.02 61.2198 195.98 61.2198 197.5V198.74C61.2198 199.86 60.9398 200.72 60.3798 201.32C59.8331 201.907 59.0198 202.2 57.9398 202.2C56.8598 202.2 56.0398 201.9 55.4798 201.3C54.9331 200.7 54.6598 199.84 54.6598 198.72Z" fill="white"/>
</g>
<path d="M116.74 186.56L118.54 179H120.72L117.7 190.62C117.46 191.54 117.08 192.2 116.56 192.6C116.04 193 115.307 193.2 114.36 193.2C113.813 193.2 113.353 193.127 112.98 192.98V191.02C113.3 191.127 113.647 191.18 114.02 191.18C114.447 191.18 114.767 191.12 114.98 191C115.193 190.867 115.353 190.64 115.46 190.32L115.56 189.96L112.4 179H114.76L116.74 186.56ZM126.984 184.08V179H129.264V193H126.984V187.16C126.398 187.76 125.604 188.06 124.604 188.06C122.631 188.06 121.644 186.933 121.644 184.68V179H123.904V184.38C123.904 185.46 124.371 186 125.304 186C125.838 186 126.251 185.84 126.544 185.52C126.838 185.187 126.984 184.707 126.984 184.08ZM139.082 193H136.762L136.302 190.28H133.222L132.742 193H130.622L133.302 179H136.382L139.082 193ZM134.762 181.36L133.562 188.3H135.962L134.762 181.36ZM146.464 192.24C145.838 192.88 144.944 193.2 143.784 193.2C142.624 193.2 141.724 192.88 141.084 192.24C140.458 191.587 140.144 190.673 140.144 189.5V182.5C140.144 181.327 140.458 180.42 141.084 179.78C141.724 179.127 142.624 178.8 143.784 178.8C144.944 178.8 145.838 179.127 146.464 179.78C147.091 180.42 147.404 181.327 147.404 182.5V183.74H145.264V182.4C145.264 181.32 144.791 180.78 143.844 180.78C142.898 180.78 142.424 181.32 142.424 182.4V189.6C142.424 190.68 142.898 191.22 143.844 191.22C144.791 191.22 145.264 190.68 145.264 189.6V187.84H147.404V189.5C147.404 190.673 147.091 191.587 146.464 192.24ZM153.336 193H151.076V181.02H148.396V179H156.016V181.02H153.336V193ZM161.315 193H157.395V179H161.115C162.368 179 163.288 179.273 163.875 179.82C164.475 180.367 164.775 181.207 164.775 182.34V182.76C164.775 184.187 164.221 185.113 163.115 185.54V185.6C164.381 185.987 165.015 187.02 165.015 188.7V189.42C165.015 191.807 163.781 193 161.315 193ZM159.675 181.02V184.74H160.815C161.388 184.74 161.808 184.613 162.075 184.36C162.355 184.093 162.495 183.68 162.495 183.12V182.6C162.495 182.04 162.381 181.64 162.155 181.4C161.928 181.147 161.555 181.02 161.035 181.02H159.675ZM159.675 186.76V190.98H161.315C161.808 190.98 162.168 190.86 162.395 190.62C162.621 190.367 162.735 189.96 162.735 189.4V188.62C162.735 187.927 162.601 187.447 162.335 187.18C162.068 186.9 161.601 186.76 160.935 186.76H159.675ZM170.295 186.56L172.095 179H174.275L171.255 190.62C171.015 191.54 170.635 192.2 170.115 192.6C169.595 193 168.861 193.2 167.915 193.2C167.368 193.2 166.908 193.127 166.535 192.98V191.02C166.855 191.127 167.201 191.18 167.575 191.18C168.001 191.18 168.321 191.12 168.535 191C168.748 190.867 168.908 190.64 169.015 190.32L169.115 189.96L165.955 179H168.315L170.295 186.56ZM179.399 177.86C178.612 177.86 177.992 177.64 177.539 177.2C177.086 176.747 176.846 176.133 176.819 175.36H178.199C178.266 176.027 178.666 176.36 179.399 176.36C180.132 176.36 180.552 176.027 180.659 175.36H181.999C181.972 176.133 181.732 176.747 181.279 177.2C180.826 177.64 180.199 177.86 179.399 177.86ZM177.579 188.36L180.959 179H183.279V193H181.219V183.6L177.859 193H175.539V179H177.579V188.36ZM192.623 193H188.703V179H192.423C193.676 179 194.596 179.273 195.183 179.82C195.783 180.367 196.083 181.207 196.083 182.34V182.76C196.083 184.187 195.53 185.113 194.423 185.54V185.6C195.69 185.987 196.323 187.02 196.323 188.7V189.42C196.323 191.807 195.09 193 192.623 193ZM190.983 181.02V184.74H192.123C192.696 184.74 193.116 184.613 193.383 184.36C193.663 184.093 193.803 183.68 193.803 183.12V182.6C193.803 182.04 193.69 181.64 193.463 181.4C193.236 181.147 192.863 181.02 192.343 181.02H190.983ZM190.983 186.76V190.98H192.623C193.116 190.98 193.476 190.86 193.703 190.62C193.93 190.367 194.043 189.96 194.043 189.4V188.62C194.043 187.927 193.91 187.447 193.643 187.18C193.376 186.9 192.91 186.76 192.243 186.76H190.983ZM203.62 193H201.34V179H204.96C207.413 179 208.64 180.213 208.64 182.64V183.68C208.64 186.107 207.413 187.32 204.96 187.32H203.62V193ZM203.62 181.02V185.32H204.96C205.453 185.32 205.807 185.2 206.02 184.96C206.247 184.707 206.36 184.3 206.36 183.74V182.56C206.36 182 206.247 181.607 206.02 181.38C205.807 181.14 205.453 181.02 204.96 181.02H203.62ZM209.968 189.44V182.56C209.968 181.36 210.288 180.433 210.928 179.78C211.582 179.127 212.508 178.8 213.708 178.8C214.922 178.8 215.848 179.127 216.488 179.78C217.142 180.433 217.468 181.36 217.468 182.56V189.44C217.468 190.64 217.142 191.567 216.488 192.22C215.835 192.873 214.908 193.2 213.708 193.2C212.508 193.2 211.582 192.873 210.928 192.22C210.288 191.567 209.968 190.64 209.968 189.44ZM213.708 191.18C214.695 191.18 215.188 190.64 215.188 189.56V182.44C215.188 181.36 214.695 180.82 213.708 180.82C212.735 180.82 212.248 181.36 212.248 182.44V189.56C212.248 190.64 212.735 191.18 213.708 191.18ZM222.49 193.2C221.29 193.2 220.376 192.887 219.75 192.26C219.123 191.62 218.81 190.7 218.81 189.5V188.56H220.95V189.54C220.95 190.633 221.443 191.18 222.43 191.18C222.95 191.18 223.323 191.047 223.55 190.78C223.79 190.5 223.91 190.047 223.91 189.42V188.66C223.91 187.967 223.77 187.473 223.49 187.18C223.223 186.873 222.776 186.72 222.15 186.72H221.29V184.7H222.21C223.303 184.7 223.85 184.133 223.85 183V182.38C223.85 181.34 223.376 180.82 222.43 180.82C221.496 180.82 221.03 181.32 221.03 182.32V183.02H218.89V182.5C218.89 181.3 219.196 180.387 219.81 179.76C220.423 179.12 221.323 178.8 222.51 178.8C223.683 178.8 224.576 179.107 225.19 179.72C225.803 180.333 226.11 181.22 226.11 182.38V182.76C226.11 184.213 225.516 185.153 224.33 185.58V185.6C225.556 186.027 226.17 187.053 226.17 188.68V189.48C226.17 191.96 224.943 193.2 222.49 193.2ZM231.464 193H227.824V179H230.104V184.4H231.464C233.918 184.4 235.144 185.633 235.144 188.1V189.3C235.144 191.767 233.918 193 231.464 193ZM238.944 193H236.664V179H238.944V193ZM230.104 186.42V190.98H231.464C231.944 190.98 232.298 190.86 232.524 190.62C232.751 190.367 232.864 189.967 232.864 189.42V187.98C232.864 187.433 232.751 187.04 232.524 186.8C232.298 186.547 231.944 186.42 231.464 186.42H230.104ZM243.229 193H240.949V179H247.229V181.02H243.229V193ZM250.905 193H248.625V179H252.245C254.698 179 255.925 180.213 255.925 182.64V183.68C255.925 186.107 254.698 187.32 252.245 187.32H250.905V193ZM250.905 181.02V185.32H252.245C252.738 185.32 253.092 185.2 253.305 184.96C253.532 184.707 253.645 184.3 253.645 183.74V182.56C253.645 182 253.532 181.607 253.305 181.38C253.092 181.14 252.738 181.02 252.245 181.02H250.905ZM261.074 193H257.434V179H259.714V184.4H261.074C263.527 184.4 264.754 185.633 264.754 188.1V189.3C264.754 191.767 263.527 193 261.074 193ZM268.554 193H266.274V179H268.554V193ZM259.714 186.42V190.98H261.074C261.554 190.98 261.907 190.86 262.134 190.62C262.36 190.367 262.474 189.967 262.474 189.42V187.98C262.474 187.433 262.36 187.04 262.134 186.8C261.907 186.547 261.554 186.42 261.074 186.42H259.714ZM282.119 193H270.559V179H272.839V190.98H275.219V179H277.479V190.98H279.839V179H282.119V193ZM290.833 193H284.113V179H290.833V181.02H286.393V184.78H289.953V186.8H286.393V190.98H290.833V193ZM298.034 193H295.754V179H303.334V193H301.054V181.02H298.034V193ZM307.604 193H305.324V179H308.944C311.398 179 312.624 180.213 312.624 182.64V183.68C312.624 186.107 311.398 187.32 308.944 187.32H307.604V193ZM307.604 181.02V185.32H308.944C309.438 185.32 309.791 185.2 310.004 184.96C310.231 184.707 310.344 184.3 310.344 183.74V182.56C310.344 182 310.231 181.607 310.004 181.38C309.791 181.14 309.438 181.02 308.944 181.02H307.604ZM316.173 188.36L319.553 179H321.873V193H319.813V183.6L316.453 193H314.133V179H316.173V188.36ZM327.099 193.2C325.899 193.2 324.986 192.887 324.359 192.26C323.732 191.62 323.419 190.7 323.419 189.5V188.56H325.559V189.54C325.559 190.633 326.052 191.18 327.039 191.18C327.559 191.18 327.932 191.047 328.159 190.78C328.399 190.5 328.519 190.047 328.519 189.42V188.66C328.519 187.967 328.379 187.473 328.099 187.18C327.832 186.873 327.386 186.72 326.759 186.72H325.899V184.7H326.819C327.912 184.7 328.459 184.133 328.459 183V182.38C328.459 181.34 327.986 180.82 327.039 180.82C326.106 180.82 325.639 181.32 325.639 182.32V183.02H323.499V182.5C323.499 181.3 323.806 180.387 324.419 179.76C325.032 179.12 325.932 178.8 327.119 178.8C328.292 178.8 329.186 179.107 329.799 179.72C330.412 180.333 330.719 181.22 330.719 182.38V182.76C330.719 184.213 330.126 185.153 328.939 185.58V185.6C330.166 186.027 330.779 187.053 330.779 188.68V189.48C330.779 191.96 329.552 193.2 327.099 193.2ZM332.254 189.44V182.56C332.254 181.36 332.574 180.433 333.214 179.78C333.867 179.127 334.794 178.8 335.994 178.8C337.207 178.8 338.134 179.127 338.774 179.78C339.427 180.433 339.754 181.36 339.754 182.56V189.44C339.754 190.64 339.427 191.567 338.774 192.22C338.12 192.873 337.194 193.2 335.994 193.2C334.794 193.2 333.867 192.873 333.214 192.22C332.574 191.567 332.254 190.64 332.254 189.44ZM335.994 191.18C336.98 191.18 337.474 190.64 337.474 189.56V182.44C337.474 181.36 336.98 180.82 335.994 180.82C335.02 180.82 334.534 181.36 334.534 182.44V189.56C334.534 190.64 335.02 191.18 335.994 191.18ZM345.475 193H341.555V179H345.275C346.528 179 347.448 179.273 348.035 179.82C348.635 180.367 348.935 181.207 348.935 182.34V182.76C348.935 184.187 348.381 185.113 347.275 185.54V185.6C348.541 185.987 349.175 187.02 349.175 188.7V189.42C349.175 191.807 347.941 193 345.475 193ZM343.835 181.02V184.74H344.975C345.548 184.74 345.968 184.613 346.235 184.36C346.515 184.093 346.655 183.68 346.655 183.12V182.6C346.655 182.04 346.541 181.64 346.315 181.4C346.088 181.147 345.715 181.02 345.195 181.02H343.835ZM343.835 186.76V190.98H345.475C345.968 190.98 346.328 190.86 346.555 190.62C346.781 190.367 346.895 189.96 346.895 189.4V188.62C346.895 187.927 346.761 187.447 346.495 187.18C346.228 186.9 345.761 186.76 345.095 186.76H343.835ZM121.46 209V220.98H122.66V224.88H120.38V223H114.64V224.88H112.38V220.98H113.68C113.973 220.687 114.14 220.14 114.18 219.34L114.6 209H121.46ZM115.84 220.98H119.18V211.02H116.74L116.46 219.22C116.433 219.94 116.227 220.527 115.84 220.98ZM124.056 223.02C123.776 223.02 123.556 222.993 123.396 222.94V220.96C123.556 221 123.709 221.02 123.856 221.02C124.349 221.02 124.689 220.9 124.876 220.66C125.076 220.407 125.189 219.973 125.216 219.36L125.636 209H132.476V223H130.216V211.02H127.776L127.476 219.42C127.436 220.673 127.149 221.587 126.616 222.16C126.082 222.733 125.229 223.02 124.056 223.02ZM141.684 209V223H139.404V217.08H138.364C137.724 217.08 137.271 217.22 137.004 217.5C136.751 217.78 136.624 218.267 136.624 218.96V221.16C136.624 221.947 136.551 222.56 136.404 223H134.104C134.278 222.573 134.364 221.967 134.364 221.18V219.1C134.364 218.18 134.498 217.473 134.764 216.98C135.031 216.473 135.464 216.133 136.064 215.96V215.9C134.944 215.487 134.384 214.533 134.384 213.04V212.36C134.384 211.213 134.678 210.367 135.264 209.82C135.864 209.273 136.791 209 138.044 209H141.684ZM138.324 215.06H139.404V211.02H138.084C137.591 211.02 137.231 211.147 137.004 211.4C136.778 211.653 136.664 212.053 136.664 212.6V213.4C136.664 213.987 136.798 214.413 137.064 214.68C137.331 214.933 137.751 215.06 138.324 215.06ZM149.382 223H147.102V209H150.722C153.175 209 154.402 210.213 154.402 212.64V213.68C154.402 216.107 153.175 217.32 150.722 217.32H149.382V223ZM149.382 211.02V215.32H150.722C151.215 215.32 151.568 215.2 151.782 214.96C152.008 214.707 152.122 214.3 152.122 213.74V212.56C152.122 212 152.008 211.607 151.782 211.38C151.568 211.14 151.215 211.02 150.722 211.02H149.382ZM162.63 223H155.91V209H162.63V211.02H158.19V214.78H161.75V216.8H158.19V220.98H162.63V223ZM171.992 223H169.672L169.212 220.28H166.132L165.652 223H163.532L166.212 209H169.292L171.992 223ZM167.672 211.36L166.472 218.3H168.872L167.672 211.36ZM173.45 223.02C173.17 223.02 172.95 222.993 172.79 222.94V220.96C172.95 221 173.103 221.02 173.25 221.02C173.743 221.02 174.083 220.9 174.27 220.66C174.47 220.407 174.583 219.973 174.61 219.36L175.03 209H181.87V223H179.61V211.02H177.17L176.87 219.42C176.83 220.673 176.543 221.587 176.01 222.16C175.477 222.733 174.623 223.02 173.45 223.02ZM185.919 218.36L189.299 209H191.619V223H189.559V213.6L186.199 223H183.879V209H185.919V218.36ZM196.845 223.2C195.645 223.2 194.732 222.887 194.105 222.26C193.478 221.62 193.165 220.7 193.165 219.5V218.56H195.305V219.54C195.305 220.633 195.798 221.18 196.785 221.18C197.305 221.18 197.678 221.047 197.905 220.78C198.145 220.5 198.265 220.047 198.265 219.42V218.66C198.265 217.967 198.125 217.473 197.845 217.18C197.578 216.873 197.132 216.72 196.505 216.72H195.645V214.7H196.565C197.658 214.7 198.205 214.133 198.205 213V212.38C198.205 211.34 197.732 210.82 196.785 210.82C195.852 210.82 195.385 211.32 195.385 212.32V213.02H193.245V212.5C193.245 211.3 193.552 210.387 194.165 209.76C194.778 209.12 195.678 208.8 196.865 208.8C198.038 208.8 198.932 209.107 199.545 209.72C200.158 210.333 200.465 211.22 200.465 212.38V212.76C200.465 214.213 199.872 215.153 198.685 215.58V215.6C199.912 216.027 200.525 217.053 200.525 218.68V219.48C200.525 221.96 199.298 223.2 196.845 223.2ZM209.843 223H207.523L207.063 220.28H203.983L203.503 223H201.383L204.063 209H207.143L209.843 223ZM205.523 211.36L204.323 218.3H206.723L205.523 211.36ZM220.084 224.88H217.804V223H211.184V209H213.464V220.98H216.484V209H218.764V220.98H220.084V224.88ZM223.478 218.36L226.858 209H229.178V223H227.118V213.6L223.758 223H221.438V209H223.478V218.36ZM233.224 218.36L236.604 209H238.924V223H236.864V213.6L233.504 223H231.184V209H233.224V218.36ZM250.488 222.24C249.861 222.88 248.968 223.2 247.808 223.2C246.648 223.2 245.748 222.88 245.108 222.24C244.481 221.587 244.168 220.673 244.168 219.5V212.5C244.168 211.327 244.481 210.42 245.108 209.78C245.748 209.127 246.648 208.8 247.808 208.8C248.968 208.8 249.861 209.127 250.488 209.78C251.114 210.42 251.428 211.327 251.428 212.5V213.74H249.288V212.4C249.288 211.32 248.814 210.78 247.868 210.78C246.921 210.78 246.448 211.32 246.448 212.4V219.6C246.448 220.68 246.921 221.22 247.868 221.22C248.814 221.22 249.288 220.68 249.288 219.6V217.84H251.428V219.5C251.428 220.673 251.114 221.587 250.488 222.24ZM256.959 223H253.039V209H256.759C258.012 209 258.932 209.273 259.519 209.82C260.119 210.367 260.419 211.207 260.419 212.34V212.76C260.419 214.187 259.866 215.113 258.759 215.54V215.6C260.026 215.987 260.659 217.02 260.659 218.7V219.42C260.659 221.807 259.426 223 256.959 223ZM255.319 211.02V214.74H256.459C257.032 214.74 257.452 214.613 257.719 214.36C257.999 214.093 258.139 213.68 258.139 213.12V212.6C258.139 212.04 258.026 211.64 257.799 211.4C257.572 211.147 257.199 211.02 256.679 211.02H255.319ZM255.319 216.76V220.98H256.959C257.452 220.98 257.812 220.86 258.039 220.62C258.266 220.367 258.379 219.96 258.379 219.4V218.62C258.379 217.927 258.246 217.447 257.979 217.18C257.712 216.9 257.246 216.76 256.579 216.76H255.319ZM262.078 219.44V212.56C262.078 211.36 262.398 210.433 263.038 209.78C263.691 209.127 264.618 208.8 265.818 208.8C267.031 208.8 267.958 209.127 268.598 209.78C269.251 210.433 269.578 211.36 269.578 212.56V219.44C269.578 220.64 269.251 221.567 268.598 222.22C267.944 222.873 267.018 223.2 265.818 223.2C264.618 223.2 263.691 222.873 263.038 222.22C262.398 221.567 262.078 220.64 262.078 219.44ZM265.818 221.18C266.804 221.18 267.298 220.64 267.298 219.56V212.44C267.298 211.36 266.804 210.82 265.818 210.82C264.844 210.82 264.358 211.36 264.358 212.44V219.56C264.358 220.64 264.844 221.18 265.818 221.18ZM273.419 218.36L276.799 209H279.119V223H277.059V213.6L273.699 223H271.379V209H273.419V218.36ZM282.625 223H280.465L283.425 215.82L280.585 209H283.025L284.825 213.7L286.685 209H288.885L286.045 215.82L289.005 223H286.585L284.625 217.94L282.625 223ZM296.042 223H293.762V209H301.342V223H299.062V211.02H296.042V223ZM303.372 223.02C303.092 223.02 302.872 222.993 302.712 222.94V220.96C302.872 221 303.025 221.02 303.172 221.02C303.665 221.02 304.005 220.9 304.192 220.66C304.392 220.407 304.505 219.973 304.532 219.36L304.952 209H311.792V223H309.532V211.02H307.092L306.792 219.42C306.752 220.673 306.465 221.587 305.932 222.16C305.399 222.733 304.545 223.02 303.372 223.02ZM321.621 223H319.301L318.841 220.28H315.761L315.281 223H313.161L315.841 209H318.921L321.621 223ZM317.301 211.36L316.101 218.3H318.501L317.301 211.36ZM325.241 223H322.961V209H325.241V214.78H328.261V209H330.541V223H328.261V216.8H325.241V223ZM332.351 219.44V212.56C332.351 211.36 332.671 210.433 333.311 209.78C333.965 209.127 334.891 208.8 336.091 208.8C337.305 208.8 338.231 209.127 338.871 209.78C339.525 210.433 339.851 211.36 339.851 212.56V219.44C339.851 220.64 339.525 221.567 338.871 222.22C338.218 222.873 337.291 223.2 336.091 223.2C334.891 223.2 333.965 222.873 333.311 222.22C332.671 221.567 332.351 220.64 332.351 219.44ZM336.091 221.18C337.078 221.18 337.571 220.64 337.571 219.56V212.44C337.571 211.36 337.078 210.82 336.091 210.82C335.118 210.82 334.631 211.36 334.631 212.44V219.56C334.631 220.64 335.118 221.18 336.091 221.18ZM345.572 223H341.652V209H345.372C346.626 209 347.546 209.273 348.132 209.82C348.732 210.367 349.032 211.207 349.032 212.34V212.76C349.032 214.187 348.479 215.113 347.372 215.54V215.6C348.639 215.987 349.272 217.02 349.272 218.7V219.42C349.272 221.807 348.039 223 345.572 223ZM343.932 211.02V214.74H345.072C345.646 214.74 346.066 214.613 346.332 214.36C346.612 214.093 346.752 213.68 346.752 213.12V212.6C346.752 212.04 346.639 211.64 346.412 211.4C346.186 211.147 345.812 211.02 345.292 211.02H343.932ZM343.932 216.76V220.98H345.572C346.066 220.98 346.426 220.86 346.652 220.62C346.879 220.367 346.992 219.96 346.992 219.4V218.62C346.992 217.927 346.859 217.447 346.592 217.18C346.326 216.9 345.859 216.76 345.192 216.76H343.932ZM353.231 223H350.951V220.6H353.231V223Z" fill="white"/>
<g filter="url(#filter2_ddddd_510_403841)">
<ellipse cx="465" cy="142.5" rx="22" ry="5.5" fill="#DDBA63"/>
<path d="M464.999 89.7493C459.531 89.7558 454.289 91.9308 450.422 95.7974C446.556 99.6639 444.381 104.906 444.374 110.374C444.374 128.022 463.124 141.352 463.922 141.911C464.238 142.131 464.614 142.249 464.999 142.249C465.384 142.249 465.76 142.131 466.076 141.911C466.874 141.352 485.624 128.022 485.624 110.374C485.618 104.906 483.442 99.6639 479.576 95.7974C475.709 91.9308 470.467 89.7558 464.999 89.7493V89.7493ZM465 102.875C466.484 102.875 467.934 103.315 469.167 104.139C470.401 104.963 471.362 106.134 471.929 107.505C472.497 108.875 472.646 110.383 472.356 111.838C472.067 113.293 471.353 114.629 470.304 115.678C469.255 116.727 467.918 117.441 466.464 117.731C465.009 118.02 463.501 117.872 462.13 117.304C460.76 116.736 459.588 115.775 458.764 114.542C457.94 113.308 457.5 111.858 457.5 110.375C457.5 109.39 457.694 108.415 458.071 107.505C458.448 106.595 459.001 105.768 459.697 105.072C460.393 104.375 461.22 103.823 462.13 103.446C463.04 103.069 464.015 102.875 465 102.875V102.875Z" fill="#FFF9DA"/>
<ellipse cx="465" cy="110.5" rx="13" ry="12.5" fill="#C74403"/>
<path d="M468.129 118H461.769V116.48C461.769 115.44 461.929 114.553 462.249 113.82C462.569 113.087 463.142 112.287 463.969 111.42C464.822 110.5 465.389 109.773 465.669 109.24C465.976 108.653 466.129 108.04 466.129 107.4C466.129 106.813 466.036 106.4 465.849 106.16C465.662 105.92 465.376 105.8 464.989 105.8C464.229 105.8 463.849 106.26 463.849 107.18V108.68H461.769V107.32C461.769 106.187 462.049 105.32 462.609 104.72C463.169 104.107 463.982 103.8 465.049 103.8C466.116 103.8 466.929 104.107 467.489 104.72C468.049 105.32 468.329 106.187 468.329 107.32C468.329 108.187 468.122 109.013 467.709 109.8C467.296 110.613 466.596 111.54 465.609 112.58C464.969 113.26 464.529 113.82 464.289 114.26C464.062 114.7 463.949 115.18 463.949 115.7V116H468.129V118Z" fill="white"/>
</g>
<path d="M522.28 109H520V95H527.58V109H525.3V97.02H522.28V109ZM529.39 105.44V98.56C529.39 97.36 529.71 96.4333 530.35 95.78C531.004 95.1267 531.93 94.8 533.13 94.8C534.344 94.8 535.27 95.1267 535.91 95.78C536.564 96.4333 536.89 97.36 536.89 98.56V105.44C536.89 106.64 536.564 107.567 535.91 108.22C535.257 108.873 534.33 109.2 533.13 109.2C531.93 109.2 531.004 108.873 530.35 108.22C529.71 107.567 529.39 106.64 529.39 105.44ZM533.13 107.18C534.117 107.18 534.61 106.64 534.61 105.56V98.44C534.61 97.36 534.117 96.82 533.13 96.82C532.157 96.82 531.67 97.36 531.67 98.44V105.56C531.67 106.64 532.157 107.18 533.13 107.18ZM541.911 109.2C540.711 109.2 539.798 108.887 539.171 108.26C538.545 107.62 538.231 106.7 538.231 105.5V104.56H540.371V105.54C540.371 106.633 540.865 107.18 541.851 107.18C542.371 107.18 542.745 107.047 542.971 106.78C543.211 106.5 543.331 106.047 543.331 105.42V104.66C543.331 103.967 543.191 103.473 542.911 103.18C542.645 102.873 542.198 102.72 541.571 102.72H540.711V100.7H541.631C542.725 100.7 543.271 100.133 543.271 99V98.38C543.271 97.34 542.798 96.82 541.851 96.82C540.918 96.82 540.451 97.32 540.451 98.32V99.02H538.311V98.5C538.311 97.3 538.618 96.3867 539.231 95.76C539.845 95.12 540.745 94.8 541.931 94.8C543.105 94.8 543.998 95.1067 544.611 95.72C545.225 96.3333 545.531 97.22 545.531 98.38V98.76C545.531 100.213 544.938 101.153 543.751 101.58V101.6C544.978 102.027 545.591 103.053 545.591 104.68V105.48C545.591 107.96 544.365 109.2 541.911 109.2ZM547.066 105.44V98.56C547.066 97.36 547.386 96.4333 548.026 95.78C548.679 95.1267 549.606 94.8 550.806 94.8C552.019 94.8 552.946 95.1267 553.586 95.78C554.239 96.4333 554.566 97.36 554.566 98.56V105.44C554.566 106.64 554.239 107.567 553.586 108.22C552.933 108.873 552.006 109.2 550.806 109.2C549.606 109.2 548.679 108.873 548.026 108.22C547.386 107.567 547.066 106.64 547.066 105.44ZM550.806 107.18C551.793 107.18 552.286 106.64 552.286 105.56V98.44C552.286 97.36 551.793 96.82 550.806 96.82C549.833 96.82 549.346 97.36 549.346 98.44V105.56C549.346 106.64 549.833 107.18 550.806 107.18ZM560.287 109H556.367V95H560.087C561.341 95 562.261 95.2733 562.847 95.82C563.447 96.3667 563.747 97.2067 563.747 98.34V98.76C563.747 100.187 563.194 101.113 562.087 101.54V101.6C563.354 101.987 563.987 103.02 563.987 104.7V105.42C563.987 107.807 562.754 109 560.287 109ZM558.647 97.02V100.74H559.787C560.361 100.74 560.781 100.613 561.047 100.36C561.327 100.093 561.467 99.68 561.467 99.12V98.6C561.467 98.04 561.354 97.64 561.127 97.4C560.901 97.1467 560.527 97.02 560.007 97.02H558.647ZM558.647 102.76V106.98H560.287C560.781 106.98 561.141 106.86 561.367 106.62C561.594 106.367 561.707 105.96 561.707 105.4V104.62C561.707 103.927 561.574 103.447 561.307 103.18C561.041 102.9 560.574 102.76 559.907 102.76H558.647ZM567.626 104.36L571.006 95H573.326V109H571.266V99.6L567.906 109H565.586V95H567.626V104.36ZM587.21 95V106.98H588.41V110.88H586.13V109H580.39V110.88H578.13V106.98H579.43C579.723 106.687 579.89 106.14 579.93 105.34L580.35 95H587.21ZM581.59 106.98H584.93V97.02H582.49L582.21 105.22C582.183 105.94 581.977 106.527 581.59 106.98ZM592.046 109H589.766V95H593.386C595.839 95 597.066 96.2133 597.066 98.64V99.68C597.066 102.107 595.839 103.32 593.386 103.32H592.046V109ZM592.046 97.02V101.32H593.386C593.879 101.32 594.232 101.2 594.446 100.96C594.672 100.707 594.786 100.3 594.786 99.74V98.56C594.786 98 594.672 97.6067 594.446 97.38C594.232 97.14 593.879 97.02 593.386 97.02H592.046ZM602.06 102.56L603.86 95H606.04L603.02 106.62C602.78 107.54 602.4 108.2 601.88 108.6C601.36 109 600.627 109.2 599.68 109.2C599.134 109.2 598.674 109.127 598.3 108.98V107.02C598.62 107.127 598.967 107.18 599.34 107.18C599.767 107.18 600.087 107.12 600.3 107C600.514 106.867 600.674 106.64 600.78 106.32L600.88 105.96L597.72 95H600.08L602.06 102.56ZM610.329 109.2C609.129 109.2 608.216 108.887 607.589 108.26C606.963 107.62 606.649 106.7 606.649 105.5V104.56H608.789V105.54C608.789 106.633 609.283 107.18 610.269 107.18C610.789 107.18 611.163 107.047 611.389 106.78C611.629 106.5 611.749 106.047 611.749 105.42V104.66C611.749 103.967 611.609 103.473 611.329 103.18C611.063 102.873 610.616 102.72 609.989 102.72H609.129V100.7H610.049C611.143 100.7 611.689 100.133 611.689 99V98.38C611.689 97.34 611.216 96.82 610.269 96.82C609.336 96.82 608.869 97.32 608.869 98.32V99.02H606.729V98.5C606.729 97.3 607.036 96.3867 607.649 95.76C608.263 95.12 609.163 94.8 610.349 94.8C611.523 94.8 612.416 95.1067 613.029 95.72C613.643 96.3333 613.949 97.22 613.949 98.38V98.76C613.949 100.213 613.356 101.153 612.169 101.58V101.6C613.396 102.027 614.009 103.053 614.009 104.68V105.48C614.009 107.96 612.783 109.2 610.329 109.2ZM622.384 109H615.664V95H622.384V97.02H617.944V100.78H621.504V102.8H617.944V106.98H622.384V109ZM627.747 93.86C626.96 93.86 626.34 93.64 625.887 93.2C625.433 92.7467 625.193 92.1333 625.167 91.36H626.547C626.613 92.0267 627.013 92.36 627.747 92.36C628.48 92.36 628.9 92.0267 629.007 91.36H630.347C630.32 92.1333 630.08 92.7467 629.627 93.2C629.173 93.64 628.547 93.86 627.747 93.86ZM625.927 104.36L629.307 95H631.627V109H629.567V99.6L626.207 109H623.887V95H625.927V104.36ZM639.331 109H637.051V95H644.631V109H642.351V97.02H639.331V109ZM646.441 105.44V98.56C646.441 97.36 646.761 96.4333 647.401 95.78C648.054 95.1267 648.981 94.8 650.181 94.8C651.394 94.8 652.321 95.1267 652.961 95.78C653.614 96.4333 653.941 97.36 653.941 98.56V105.44C653.941 106.64 653.614 107.567 652.961 108.22C652.308 108.873 651.381 109.2 650.181 109.2C648.981 109.2 648.054 108.873 647.401 108.22C646.761 107.567 646.441 106.64 646.441 105.44ZM650.181 107.18C651.168 107.18 651.661 106.64 651.661 105.56V98.44C651.661 97.36 651.168 96.82 650.181 96.82C649.208 96.82 648.721 97.36 648.721 98.44V105.56C648.721 106.64 649.208 107.18 650.181 107.18ZM664.105 95V106.98H665.305V110.88H663.025V109H657.285V110.88H655.025V106.98H656.325C656.618 106.687 656.785 106.14 656.825 105.34L657.245 95H664.105ZM658.485 106.98H661.825V97.02H659.385L659.105 105.22C659.078 105.94 658.871 106.527 658.485 106.98ZM675.12 95V106.98H676.32V110.88H674.04V109H668.3V110.88H666.04V106.98H667.34C667.633 106.687 667.8 106.14 667.84 105.34L668.26 95H675.12ZM669.5 106.98H672.84V97.02H670.4L670.12 105.22C670.093 105.94 669.887 106.527 669.5 106.98ZM684.396 109H677.676V95H684.396V97.02H679.956V100.78H683.516V102.8H679.956V106.98H684.396V109ZM688.178 109H685.898V95H689.518C691.972 95 693.198 96.2133 693.198 98.64V99.68C693.198 102.107 691.972 103.32 689.518 103.32H688.178V109ZM688.178 97.02V101.32H689.518C690.012 101.32 690.365 101.2 690.578 100.96C690.805 100.707 690.918 100.3 690.918 99.74V98.56C690.918 98 690.805 97.6067 690.578 97.38C690.365 97.14 690.012 97.02 689.518 97.02H688.178ZM706.861 109H704.581L702.421 102.2L701.321 104.1V109H699.041V104.1L697.941 102.2L695.781 109H693.481L696.441 100.2L693.521 95H695.881L699.041 101.06V95H701.321V101.06L704.501 95H706.821L703.921 100.22L706.861 109ZM716.023 109H713.703L713.243 106.28H710.163L709.683 109H707.563L710.243 95H713.323L716.023 109ZM711.703 97.36L710.503 104.3H712.903L711.703 97.36ZM720.57 109H718.31V97.02H715.63V95H723.25V97.02H720.57V109ZM728.269 109H724.629V95H726.909V100.4H728.269C730.722 100.4 731.949 101.633 731.949 104.1V105.3C731.949 107.767 730.722 109 728.269 109ZM726.909 102.42V106.98H728.269C728.749 106.98 729.102 106.86 729.329 106.62C729.556 106.367 729.669 105.967 729.669 105.42V103.98C729.669 103.433 729.556 103.04 729.329 102.8C729.102 102.547 728.749 102.42 728.269 102.42H726.909ZM524.32 139H522.06V127.02H519.38V125H527V127.02H524.32V139ZM532.299 139H528.379V125H532.099C533.352 125 534.272 125.273 534.859 125.82C535.459 126.367 535.759 127.207 535.759 128.34V128.76C535.759 130.187 535.206 131.113 534.099 131.54V131.6C535.366 131.987 535.999 133.02 535.999 134.7V135.42C535.999 137.807 534.766 139 532.299 139ZM530.659 127.02V130.74H531.799C532.372 130.74 532.792 130.613 533.059 130.36C533.339 130.093 533.479 129.68 533.479 129.12V128.6C533.479 128.04 533.366 127.64 533.139 127.4C532.912 127.147 532.539 127.02 532.019 127.02H530.659ZM530.659 132.76V136.98H532.299C532.792 136.98 533.152 136.86 533.379 136.62C533.606 136.367 533.719 135.96 533.719 135.4V134.62C533.719 133.927 533.586 133.447 533.319 133.18C533.052 132.9 532.586 132.76 531.919 132.76H530.659ZM537.418 135.44V128.56C537.418 127.36 537.738 126.433 538.378 125.78C539.031 125.127 539.958 124.8 541.158 124.8C542.371 124.8 543.298 125.127 543.938 125.78C544.591 126.433 544.918 127.36 544.918 128.56V135.44C544.918 136.64 544.591 137.567 543.938 138.22C543.284 138.873 542.358 139.2 541.158 139.2C539.958 139.2 539.031 138.873 538.378 138.22C537.738 137.567 537.418 136.64 537.418 135.44ZM541.158 137.18C542.144 137.18 542.638 136.64 542.638 135.56V128.44C542.638 127.36 542.144 126.82 541.158 126.82C540.184 126.82 539.698 127.36 539.698 128.44V135.56C539.698 136.64 540.184 137.18 541.158 137.18ZM548.759 134.36L552.139 125H554.459V139H552.399V129.6L549.039 139H546.719V125H548.759V134.36ZM562.163 139H559.883V125H567.463V139H565.183V127.02H562.163V139ZM569.493 139.02C569.213 139.02 568.993 138.993 568.833 138.94V136.96C568.993 137 569.146 137.02 569.293 137.02C569.786 137.02 570.126 136.9 570.313 136.66C570.513 136.407 570.626 135.973 570.653 135.36L571.073 125H577.913V139H575.653V127.02H573.213L572.913 135.42C572.873 136.673 572.586 137.587 572.053 138.16C571.52 138.733 570.666 139.02 569.493 139.02ZM587.742 139H585.422L584.962 136.28H581.882L581.402 139H579.282L581.962 125H585.042L587.742 139ZM583.422 127.36L582.222 134.3H584.622L583.422 127.36ZM591.362 139H589.082V125H591.362V130.78H594.382V125H596.662V139H594.382V132.8H591.362V139ZM602.292 139H598.652V125H600.932V130.4H602.292C604.746 130.4 605.972 131.633 605.972 134.1V135.3C605.972 137.767 604.746 139 602.292 139ZM609.772 139H607.492V125H609.772V139ZM600.932 132.42V136.98H602.292C602.772 136.98 603.126 136.86 603.352 136.62C603.579 136.367 603.692 135.967 603.692 135.42V133.98C603.692 133.433 603.579 133.04 603.352 132.8C603.126 132.547 602.772 132.42 602.292 132.42H600.932ZM613.977 135.26H612.277L611.997 130.76V125H614.257V130.76L613.977 135.26ZM614.257 139H611.997V136.76H614.257V139Z" fill="white"/>
<path opacity="0.4" d="M344 22.6147C384.534 15.2066 449.568 7.35221 413.5 39.2377C377.432 71.1231 465 37.4139 465 79.2377" stroke="#FFF8D9" stroke-width="2" stroke-linecap="round" stroke-dasharray="6 6"/>
<path opacity="0.4" d="M403 111C369.692 101.853 332.206 135.094 261.5 111C190.794 86.9056 118.995 137.073 123.67 155.813" stroke="#FFF8D9" stroke-width="2" stroke-linecap="round" stroke-dasharray="6 6"/>
<path opacity="0.4" d="M384 186C521 186 321.5 224.5 432.5 224.5" stroke="#FFF8D9" stroke-width="2" stroke-linecap="round" stroke-dasharray="6 6"/>
<defs>
<filter id="filter0_ddddd_510_403841" x="0" y="0" width="114" height="109" filterUnits="userSpaceOnUse" color-interpolation-filters="sRGB">
<feFlood flood-opacity="0" result="BackgroundImageFix"/>
<feColorMatrix in="SourceAlpha" type="matrix" values="0 0 0 0 0 0 0 0 0 0 0 0 0 0 0 0 0 0 127 0" result="hardAlpha"/>
<feOffset/>
<feColorMatrix type="matrix" values="0 0 0 0 0.0745098 0 0 0 0 0.12549 0 0 0 0 0.0823529 0 0 0 0.2 0"/>
<feBlend mode="normal" in2="BackgroundImageFix" result="effect1_dropShadow_510_403841"/>
<feColorMatrix in="SourceAlpha" type="matrix" values="0 0 0 0 0 0 0 0 0 0 0 0 0 0 0 0 0 0 127 0" result="hardAlpha"/>
<feOffset dx="2" dy="2"/>
<feGaussianBlur stdDeviation="3"/>
<feColorMatrix type="matrix" values="0 0 0 0 0.0745098 0 0 0 0 0.12549 0 0 0 0 0.0823529 0 0 0 0.2 0"/>
<feBlend mode="normal" in2="effect1_dropShadow_510_403841" result="effect2_dropShadow_510_403841"/>
<feColorMatrix in="SourceAlpha" type="matrix" values="0 0 0 0 0 0 0 0 0 0 0 0 0 0 0 0 0 0 127 0" result="hardAlpha"/>
<feOffset dx="8" dy="7"/>
<feGaussianBlur stdDeviation="5"/>
<feColorMatrix type="matrix" values="0 0 0 0 0.0745098 0 0 0 0 0.12549 0 0 0 0 0.0823529 0 0 0 0.17 0"/>
<feBlend mode="normal" in2="effect2_dropShadow_510_403841" result="effect3_dropShadow_510_403841"/>
<feColorMatrix in="SourceAlpha" type="matrix" values="0 0 0 0 0 0 0 0 0 0 0 0 0 0 0 0 0 0 127 0" result="hardAlpha"/>
<feOffset dx="18" dy="15"/>
<feGaussianBlur stdDeviation="7"/>
<feColorMatrix type="matrix" values="0 0 0 0 0.0745098 0 0 0 0 0.12549 0 0 0 0 0.0823529 0 0 0 0.1 0"/>
<feBlend mode="normal" in2="effect3_dropShadow_510_403841" result="effect4_dropShadow_510_403841"/>
<feColorMatrix in="SourceAlpha" type="matrix" values="0 0 0 0 0 0 0 0 0 0 0 0 0 0 0 0 0 0 127 0" result="hardAlpha"/>
<feOffset dx="33" dy="26"/>
<feGaussianBlur stdDeviation="8.5"/>
<feColorMatrix type="matrix" values="0 0 0 0 0.0745098 0 0 0 0 0.12549 0 0 0 0 0.0823529 0 0 0 0.03 0"/>
<feBlend mode="normal" in2="effect4_dropShadow_510_403841" result="effect5_dropShadow_510_403841"/>
<feBlend mode="normal" in="SourceGraphic" in2="effect5_dropShadow_510_403841" result="shape"/>
</filter>
<filter id="filter1_ddddd_510_403841" x="24" y="166" width="114" height="109" filterUnits="userSpaceOnUse" color-interpolation-filters="sRGB">
<feFlood flood-opacity="0" result="BackgroundImageFix"/>
<feColorMatrix in="SourceAlpha" type="matrix" values="0 0 0 0 0 0 0 0 0 0 0 0 0 0 0 0 0 0 127 0" result="hardAlpha"/>
<feOffset/>
<feColorMatrix type="matrix" values="0 0 0 0 0.0745098 0 0 0 0 0.12549 0 0 0 0 0.0823529 0 0 0 0.2 0"/>
<feBlend mode="normal" in2="BackgroundImageFix" result="effect1_dropShadow_510_403841"/>
<feColorMatrix in="SourceAlpha" type="matrix" values="0 0 0 0 0 0 0 0 0 0 0 0 0 0 0 0 0 0 127 0" result="hardAlpha"/>
<feOffset dx="2" dy="2"/>
<feGaussianBlur stdDeviation="3"/>
<feColorMatrix type="matrix" values="0 0 0 0 0.0745098 0 0 0 0 0.12549 0 0 0 0 0.0823529 0 0 0 0.2 0"/>
<feBlend mode="normal" in2="effect1_dropShadow_510_403841" result="effect2_dropShadow_510_403841"/>
<feColorMatrix in="SourceAlpha" type="matrix" values="0 0 0 0 0 0 0 0 0 0 0 0 0 0 0 0 0 0 127 0" result="hardAlpha"/>
<feOffset dx="8" dy="7"/>
<feGaussianBlur stdDeviation="5"/>
<feColorMatrix type="matrix" values="0 0 0 0 0.0745098 0 0 0 0 0.12549 0 0 0 0 0.0823529 0 0 0 0.17 0"/>
<feBlend mode="normal" in2="effect2_dropShadow_510_403841" result="effect3_dropShadow_510_403841"/>
<feColorMatrix in="SourceAlpha" type="matrix" values="0 0 0 0 0 0 0 0 0 0 0 0 0 0 0 0 0 0 127 0" result="hardAlpha"/>
<feOffset dx="18" dy="15"/>
<feGaussianBlur stdDeviation="7"/>
<feColorMatrix type="matrix" values="0 0 0 0 0.0745098 0 0 0 0 0.12549 0 0 0 0 0.0823529 0 0 0 0.1 0"/>
<feBlend mode="normal" in2="effect3_dropShadow_510_403841" result="effect4_dropShadow_510_403841"/>
<feColorMatrix in="SourceAlpha" type="matrix" values="0 0 0 0 0 0 0 0 0 0 0 0 0 0 0 0 0 0 127 0" result="hardAlpha"/>
<feOffset dx="33" dy="26"/>
<feGaussianBlur stdDeviation="8.5"/>
<feColorMatrix type="matrix" values="0 0 0 0 0.0745098 0 0 0 0 0.12549 0 0 0 0 0.0823529 0 0 0 0.03 0"/>
<feBlend mode="normal" in2="effect4_dropShadow_510_403841" result="effect5_dropShadow_510_403841"/>
<feBlend mode="normal" in="SourceGraphic" in2="effect5_dropShadow_510_403841" result="shape"/>
</filter>
<filter id="filter2_ddddd_510_403841" x="431" y="82" width="114" height="109" filterUnits="userSpaceOnUse" color-interpolation-filters="sRGB">
<feFlood flood-opacity="0" result="BackgroundImageFix"/>
<feColorMatrix in="SourceAlpha" type="matrix" values="0 0 0 0 0 0 0 0 0 0 0 0 0 0 0 0 0 0 127 0" result="hardAlpha"/>
<feOffset/>
<feColorMatrix type="matrix" values="0 0 0 0 0.0745098 0 0 0 0 0.12549 0 0 0 0 0.0823529 0 0 0 0.2 0"/>
<feBlend mode="normal" in2="BackgroundImageFix" result="effect1_dropShadow_510_403841"/>
<feColorMatrix in="SourceAlpha" type="matrix" values="0 0 0 0 0 0 0 0 0 0 0 0 0 0 0 0 0 0 127 0" result="hardAlpha"/>
<feOffset dx="2" dy="2"/>
<feGaussianBlur stdDeviation="3"/>
<feColorMatrix type="matrix" values="0 0 0 0 0.0745098 0 0 0 0 0.12549 0 0 0 0 0.0823529 0 0 0 0.2 0"/>
<feBlend mode="normal" in2="effect1_dropShadow_510_403841" result="effect2_dropShadow_510_403841"/>
<feColorMatrix in="SourceAlpha" type="matrix" values="0 0 0 0 0 0 0 0 0 0 0 0 0 0 0 0 0 0 127 0" result="hardAlpha"/>
<feOffset dx="8" dy="7"/>
<feGaussianBlur stdDeviation="5"/>
<feColorMatrix type="matrix" values="0 0 0 0 0.0745098 0 0 0 0 0.12549 0 0 0 0 0.0823529 0 0 0 0.17 0"/>
<feBlend mode="normal" in2="effect2_dropShadow_510_403841" result="effect3_dropShadow_510_403841"/>
<feColorMatrix in="SourceAlpha" type="matrix" values="0 0 0 0 0 0 0 0 0 0 0 0 0 0 0 0 0 0 127 0" result="hardAlpha"/>
<feOffset dx="18" dy="15"/>
<feGaussianBlur stdDeviation="7"/>
<feColorMatrix type="matrix" values="0 0 0 0 0.0745098 0 0 0 0 0.12549 0 0 0 0 0.0823529 0 0 0 0.1 0"/>
<feBlend mode="normal" in2="effect3_dropShadow_510_403841" result="effect4_dropShadow_510_403841"/>
<feColorMatrix in="SourceAlpha" type="matrix" values="0 0 0 0 0 0 0 0 0 0 0 0 0 0 0 0 0 0 127 0" result="hardAlpha"/>
<feOffset dx="33" dy="26"/>
<feGaussianBlur stdDeviation="8.5"/>
<feColorMatrix type="matrix" values="0 0 0 0 0.0745098 0 0 0 0 0.12549 0 0 0 0 0.0823529 0 0 0 0.03 0"/>
<feBlend mode="normal" in2="effect4_dropShadow_510_403841" result="effect5_dropShadow_510_403841"/>
<feBlend mode="normal" in="SourceGraphic" in2="effect5_dropShadow_510_403841" result="shape"/>
</filter>
</defs>
</svg>
