<svg width="578" height="384" viewBox="0 0 578 384" fill="none" xmlns="http://www.w3.org/2000/svg">
<g filter="url(#filter0_ddddd_201_30450)">
<ellipse cx="124" cy="60.5" rx="22" ry="5.5" fill="#DDBA63"/>
<path d="M123.999 7.74927C118.53 7.75576 113.288 9.93082 109.422 13.7974C105.555 17.6639 103.38 22.9062 103.374 28.3743C103.374 46.022 122.124 59.3521 122.922 59.9105C123.238 60.131 123.613 60.2493 123.999 60.2493C124.384 60.2493 124.759 60.131 125.075 59.9105C125.874 59.3521 144.624 46.022 144.624 28.3743C144.617 22.9062 142.442 17.6639 138.575 13.7974C134.709 9.93082 129.467 7.75575 123.999 7.74927V7.74927ZM124 20.8749C125.483 20.8749 126.933 21.3148 128.167 22.1389C129.4 22.963 130.361 24.1344 130.929 25.5048C131.497 26.8753 131.645 28.3833 131.356 29.8381C131.066 31.293 130.352 32.6294 129.303 33.6782C128.254 34.7271 126.918 35.4414 125.463 35.7308C124.008 36.0202 122.5 35.8717 121.13 35.304C119.759 34.7364 118.588 33.7751 117.764 32.5417C116.94 31.3084 116.5 29.8583 116.5 28.3749C116.5 27.39 116.694 26.4147 117.071 25.5048C117.448 24.5948 118 23.768 118.697 23.0716C119.393 22.3751 120.22 21.8227 121.13 21.4458C122.04 21.0689 123.015 20.8749 124 20.8749V20.8749Z" fill="#FFF9DA"/>
<ellipse cx="124" cy="28.5" rx="13" ry="12.5" fill="#C74403"/>
<path d="M125.95 36H123.75V25.32H121.45V23.76C122.37 23.76 123.037 23.64 123.45 23.4C123.877 23.1333 124.217 22.6667 124.47 22H125.95V36Z" fill="white"/>
</g>
<path d="M181.28 27H179V13H182.62C185.073 13 186.3 14.2133 186.3 16.64V17.68C186.3 20.1067 185.073 21.32 182.62 21.32H181.28V27ZM181.28 15.02V19.32H182.62C183.113 19.32 183.467 19.2 183.68 18.96C183.907 18.7067 184.02 18.3 184.02 17.74V16.56C184.02 16 183.907 15.6067 183.68 15.38C183.467 15.14 183.113 15.02 182.62 15.02H181.28ZM194.828 27H192.508L192.048 24.28H188.968L188.488 27H186.368L189.048 13H192.128L194.828 27ZM190.508 15.36L189.308 22.3H191.708L190.508 15.36ZM202.21 26.24C201.584 26.88 200.69 27.2 199.53 27.2C198.37 27.2 197.47 26.88 196.83 26.24C196.204 25.5867 195.89 24.6733 195.89 23.5V16.5C195.89 15.3267 196.204 14.42 196.83 13.78C197.47 13.1267 198.37 12.8 199.53 12.8C200.69 12.8 201.584 13.1267 202.21 13.78C202.837 14.42 203.15 15.3267 203.15 16.5V17.74H201.01V16.4C201.01 15.32 200.537 14.78 199.59 14.78C198.644 14.78 198.17 15.32 198.17 16.4V23.6C198.17 24.68 198.644 25.22 199.59 25.22C200.537 25.22 201.01 24.68 201.01 23.6V21.84H203.15V23.5C203.15 24.6733 202.837 25.5867 202.21 26.24ZM210.921 26.24C210.295 26.88 209.401 27.2 208.241 27.2C207.081 27.2 206.181 26.88 205.541 26.24C204.915 25.5867 204.601 24.6733 204.601 23.5V16.5C204.601 15.3267 204.915 14.42 205.541 13.78C206.181 13.1267 207.081 12.8 208.241 12.8C209.401 12.8 210.295 13.1267 210.921 13.78C211.548 14.42 211.861 15.3267 211.861 16.5V17.74H209.721V16.4C209.721 15.32 209.248 14.78 208.301 14.78C207.355 14.78 206.881 15.32 206.881 16.4V23.6C206.881 24.68 207.355 25.22 208.301 25.22C209.248 25.22 209.721 24.68 209.721 23.6V21.84H211.861V23.5C211.861 24.6733 211.548 25.5867 210.921 26.24ZM221.573 27H219.173L216.953 20.6L215.753 22.58V27H213.473V13H215.753V19.16L219.213 13H221.533L218.493 18.2L221.573 27ZM230.726 27H228.406L227.946 24.28H224.866L224.386 27H222.266L224.946 13H228.026L230.726 27ZM226.406 15.36L225.206 22.3H227.606L226.406 15.36ZM244.786 27H242.506L240.346 20.2L239.246 22.1V27H236.966V22.1L235.866 20.2L233.706 27H231.406L234.366 18.2L231.446 13H233.806L236.966 19.06V13H239.246V19.06L242.426 13H244.746L241.846 18.22L244.786 27ZM248.169 22.36L251.549 13H253.869V27H251.809V17.6L248.449 27H246.129V13H248.169V22.36ZM256.895 29.32H255.855L256.755 27H255.955V24.6H258.235V26.76L256.895 29.32ZM268.727 18.08V13H271.007V27H268.727V21.16C268.14 21.76 267.347 22.06 266.347 22.06C264.373 22.06 263.387 20.9333 263.387 18.68V13H265.647V18.38C265.647 19.46 266.113 20 267.047 20C267.58 20 267.993 19.84 268.287 19.52C268.58 19.1867 268.727 18.7067 268.727 18.08ZM277.324 27H275.064V15.02H272.384V13H280.004V15.02H277.324V27ZM281.125 23.44V16.56C281.125 15.36 281.445 14.4333 282.085 13.78C282.738 13.1267 283.665 12.8 284.865 12.8C286.078 12.8 287.005 13.1267 287.645 13.78C288.298 14.4333 288.625 15.36 288.625 16.56V23.44C288.625 24.64 288.298 25.5667 287.645 26.22C286.991 26.8733 286.065 27.2 284.865 27.2C283.665 27.2 282.738 26.8733 282.085 26.22C281.445 25.5667 281.125 24.64 281.125 23.44ZM284.865 25.18C285.851 25.18 286.345 24.64 286.345 23.56V16.44C286.345 15.36 285.851 14.82 284.865 14.82C283.891 14.82 283.405 15.36 283.405 16.44V23.56C283.405 24.64 283.891 25.18 284.865 25.18ZM296.124 27H293.844V13H296.124V18.78H299.144V13H301.424V27H299.144V20.8H296.124V27ZM303.234 23.44V16.56C303.234 15.36 303.554 14.4333 304.194 13.78C304.847 13.1267 305.774 12.8 306.974 12.8C308.187 12.8 309.114 13.1267 309.754 13.78C310.407 14.4333 310.734 15.36 310.734 16.56V23.44C310.734 24.64 310.407 25.5667 309.754 26.22C309.101 26.8733 308.174 27.2 306.974 27.2C305.774 27.2 304.847 26.8733 304.194 26.22C303.554 25.5667 303.234 24.64 303.234 23.44ZM306.974 25.18C307.961 25.18 308.454 24.64 308.454 23.56V16.44C308.454 15.36 307.961 14.82 306.974 14.82C306.001 14.82 305.514 15.36 305.514 16.44V23.56C305.514 24.64 306.001 25.18 306.974 25.18ZM316.455 27H312.535V13H316.255C317.508 13 318.428 13.2733 319.015 13.82C319.615 14.3667 319.915 15.2067 319.915 16.34V16.76C319.915 18.1867 319.362 19.1133 318.255 19.54V19.6C319.522 19.9867 320.155 21.02 320.155 22.7V23.42C320.155 25.8067 318.922 27 316.455 27ZM314.815 15.02V18.74H315.955C316.528 18.74 316.948 18.6133 317.215 18.36C317.495 18.0933 317.635 17.68 317.635 17.12V16.6C317.635 16.04 317.522 15.64 317.295 15.4C317.068 15.1467 316.695 15.02 316.175 15.02H314.815ZM314.815 20.76V24.98H316.455C316.948 24.98 317.308 24.86 317.535 24.62C317.762 24.3667 317.875 23.96 317.875 23.4V22.62C317.875 21.9267 317.742 21.4467 317.475 21.18C317.208 20.9 316.742 20.76 316.075 20.76H314.815ZM321.574 23.44V16.56C321.574 15.36 321.894 14.4333 322.534 13.78C323.187 13.1267 324.114 12.8 325.314 12.8C326.527 12.8 327.454 13.1267 328.094 13.78C328.747 14.4333 329.074 15.36 329.074 16.56V23.44C329.074 24.64 328.747 25.5667 328.094 26.22C327.441 26.8733 326.514 27.2 325.314 27.2C324.114 27.2 323.187 26.8733 322.534 26.22C321.894 25.5667 321.574 24.64 321.574 23.44ZM325.314 25.18C326.301 25.18 326.794 24.64 326.794 23.56V16.44C326.794 15.36 326.301 14.82 325.314 14.82C324.341 14.82 323.854 15.36 323.854 16.44V23.56C323.854 24.64 324.341 25.18 325.314 25.18ZM333.155 27H330.875V13H337.155V15.02H333.155V27ZM338.293 23.44V16.56C338.293 15.36 338.613 14.4333 339.253 13.78C339.906 13.1267 340.833 12.8 342.033 12.8C343.246 12.8 344.173 13.1267 344.813 13.78C345.466 14.4333 345.793 15.36 345.793 16.56V23.44C345.793 24.64 345.466 25.5667 344.813 26.22C344.159 26.8733 343.233 27.2 342.033 27.2C340.833 27.2 339.906 26.8733 339.253 26.22C338.613 25.5667 338.293 24.64 338.293 23.44ZM342.033 25.18C343.019 25.18 343.513 24.64 343.513 23.56V16.44C343.513 15.36 343.019 14.82 342.033 14.82C341.059 14.82 340.573 15.36 340.573 16.44V23.56C340.573 24.64 341.059 25.18 342.033 25.18ZM183.32 57H181.06V45.02H178.38V43H186V45.02H183.32V57ZM191.019 57H187.379V43H189.659V48.4H191.019C193.472 48.4 194.699 49.6333 194.699 52.1V53.3C194.699 55.7667 193.472 57 191.019 57ZM198.499 57H196.219V43H198.499V57ZM189.659 50.42V54.98H191.019C191.499 54.98 191.852 54.86 192.079 54.62C192.306 54.3667 192.419 53.9667 192.419 53.42V51.98C192.419 51.4333 192.306 51.04 192.079 50.8C191.852 50.5467 191.499 50.42 191.019 50.42H189.659ZM205.422 57H203.262L206.222 49.82L203.382 43H205.822L207.622 47.7L209.482 43H211.682L208.842 49.82L211.802 57H209.382L207.422 51.94L205.422 57ZM212.59 53.44V46.56C212.59 45.36 212.91 44.4333 213.55 43.78C214.203 43.1267 215.13 42.8 216.33 42.8C217.543 42.8 218.47 43.1267 219.11 43.78C219.763 44.4333 220.09 45.36 220.09 46.56V53.44C220.09 54.64 219.763 55.5667 219.11 56.22C218.456 56.8733 217.53 57.2 216.33 57.2C215.13 57.2 214.203 56.8733 213.55 56.22C212.91 55.5667 212.59 54.64 212.59 53.44ZM216.33 55.18C217.316 55.18 217.81 54.64 217.81 53.56V46.44C217.81 45.36 217.316 44.82 216.33 44.82C215.356 44.82 214.87 45.36 214.87 46.44V53.56C214.87 54.64 215.356 55.18 216.33 55.18ZM226.133 57H223.873V45.02H221.193V43H228.813V45.02H226.133V57ZM236.911 57H230.191V43H236.911V45.02H232.471V48.78H236.031V50.8H232.471V54.98H236.911V57ZM238.454 57.02C238.174 57.02 237.954 56.9933 237.794 56.94V54.96C237.954 55 238.107 55.02 238.254 55.02C238.747 55.02 239.087 54.9 239.274 54.66C239.474 54.4067 239.587 53.9733 239.614 53.36L240.034 43H246.874V57H244.614V45.02H242.174L241.874 53.42C241.834 54.6733 241.547 55.5867 241.014 56.16C240.481 56.7333 239.627 57.02 238.454 57.02ZM256.101 57H252.301V43H258.841V45.02H254.581V48.5H256.101C258.554 48.5 259.781 49.7333 259.781 52.2V53.3C259.781 55.7667 258.554 57 256.101 57ZM254.581 50.52V54.98H256.101C256.581 54.98 256.934 54.86 257.161 54.62C257.387 54.3667 257.501 53.9667 257.501 53.42V52.08C257.501 51.5333 257.387 51.14 257.161 50.9C256.934 50.6467 256.581 50.52 256.101 50.52H254.581ZM264.925 57H261.285V43H263.565V48.4H264.925C267.378 48.4 268.605 49.6333 268.605 52.1V53.3C268.605 55.7667 267.378 57 264.925 57ZM272.405 57H270.125V43H272.405V57ZM263.565 50.42V54.98H264.925C265.405 54.98 265.758 54.86 265.985 54.62C266.212 54.3667 266.325 53.9667 266.325 53.42V51.98C266.325 51.4333 266.212 51.04 265.985 50.8C265.758 50.5467 265.405 50.42 264.925 50.42H263.565ZM286.288 43V54.98H287.488V58.88H285.208V57H279.468V58.88H277.208V54.98H278.508C278.801 54.6867 278.968 54.14 279.008 53.34L279.428 43H286.288ZM280.668 54.98H284.008V45.02H281.568L281.288 53.22C281.261 53.94 281.055 54.5267 280.668 54.98ZM288.884 57.02C288.604 57.02 288.384 56.9933 288.224 56.94V54.96C288.384 55 288.537 55.02 288.684 55.02C289.177 55.02 289.517 54.9 289.704 54.66C289.904 54.4067 290.017 53.9733 290.044 53.36L290.464 43H297.304V57H295.044V45.02H292.604L292.304 53.42C292.264 54.6733 291.977 55.5867 291.444 56.16C290.91 56.7333 290.057 57.02 288.884 57.02ZM306.513 43V57H304.233V51.08H303.193C302.553 51.08 302.099 51.22 301.833 51.5C301.579 51.78 301.453 52.2667 301.453 52.96V55.16C301.453 55.9467 301.379 56.56 301.233 57H298.933C299.106 56.5733 299.193 55.9667 299.193 55.18V53.1C299.193 52.18 299.326 51.4733 299.593 50.98C299.859 50.4733 300.293 50.1333 300.893 49.96V49.9C299.773 49.4867 299.213 48.5333 299.213 47.04V46.36C299.213 45.2133 299.506 44.3667 300.093 43.82C300.693 43.2733 301.619 43 302.873 43H306.513ZM303.153 49.06H304.233V45.02H302.913C302.419 45.02 302.059 45.1467 301.833 45.4C301.606 45.6533 301.493 46.0533 301.493 46.6V47.4C301.493 47.9867 301.626 48.4133 301.893 48.68C302.159 48.9333 302.579 49.06 303.153 49.06ZM318.07 56.24C317.443 56.88 316.55 57.2 315.39 57.2C314.23 57.2 313.33 56.88 312.69 56.24C312.063 55.5867 311.75 54.6733 311.75 53.5V46.5C311.75 45.3267 312.063 44.42 312.69 43.78C313.33 43.1267 314.23 42.8 315.39 42.8C316.55 42.8 317.443 43.1267 318.07 43.78C318.696 44.42 319.01 45.3267 319.01 46.5V47.74H316.87V46.4C316.87 45.32 316.396 44.78 315.45 44.78C314.503 44.78 314.03 45.32 314.03 46.4V53.6C314.03 54.68 314.503 55.22 315.45 55.22C316.396 55.22 316.87 54.68 316.87 53.6V51.84H319.01V53.5C319.01 54.6733 318.696 55.5867 318.07 56.24ZM327.341 57H320.621V43H327.341V45.02H322.901V48.78H326.461V50.8H322.901V54.98H327.341V57ZM332.644 57H328.844V43H335.384V45.02H331.124V48.5H332.644C335.097 48.5 336.324 49.7333 336.324 52.2V53.3C336.324 55.7667 335.097 57 332.644 57ZM331.124 50.52V54.98H332.644C333.124 54.98 333.477 54.86 333.704 54.62C333.93 54.3667 334.044 53.9667 334.044 53.42V52.08C334.044 51.5333 333.93 51.14 333.704 50.9C333.477 50.6467 333.124 50.52 332.644 50.52H331.124ZM345.028 43V57H342.748V51.08H341.708C341.068 51.08 340.615 51.22 340.348 51.5C340.095 51.78 339.968 52.2667 339.968 52.96V55.16C339.968 55.9467 339.895 56.56 339.748 57H337.448C337.621 56.5733 337.708 55.9667 337.708 55.18V53.1C337.708 52.18 337.841 51.4733 338.108 50.98C338.375 50.4733 338.808 50.1333 339.408 49.96V49.9C338.288 49.4867 337.728 48.5333 337.728 47.04V46.36C337.728 45.2133 338.021 44.3667 338.608 43.82C339.208 43.2733 340.135 43 341.388 43H345.028ZM341.668 49.06H342.748V45.02H341.428C340.935 45.02 340.575 45.1467 340.348 45.4C340.121 45.6533 340.008 46.0533 340.008 46.6V47.4C340.008 47.9867 340.141 48.4133 340.408 48.68C340.675 48.9333 341.095 49.06 341.668 49.06ZM350.265 53.44V46.56C350.265 45.36 350.585 44.4333 351.225 43.78C351.879 43.1267 352.805 42.8 354.005 42.8C355.219 42.8 356.145 43.1267 356.785 43.78C357.439 44.4333 357.765 45.36 357.765 46.56V53.44C357.765 54.64 357.439 55.5667 356.785 56.22C356.132 56.8733 355.205 57.2 354.005 57.2C352.805 57.2 351.879 56.8733 351.225 56.22C350.585 55.5667 350.265 54.64 350.265 53.44ZM354.005 55.18C354.992 55.18 355.485 54.64 355.485 53.56V46.44C355.485 45.36 354.992 44.82 354.005 44.82C353.032 44.82 352.545 45.36 352.545 46.44V53.56C352.545 54.64 353.032 55.18 354.005 55.18ZM363.808 57H361.548V45.02H358.868V43H366.488V45.02H363.808V57ZM375.967 57H373.567L371.347 50.6L370.147 52.58V57H367.867V43H370.147V49.16L373.607 43H375.927L372.887 48.2L375.967 57ZM379.581 57H377.301V43H380.921C383.374 43 384.601 44.2133 384.601 46.64V47.68C384.601 50.1067 383.374 51.32 380.921 51.32H379.581V57ZM379.581 45.02V49.32H380.921C381.414 49.32 381.767 49.2 381.981 48.96C382.207 48.7067 382.321 48.3 382.321 47.74V46.56C382.321 46 382.207 45.6067 381.981 45.38C381.767 45.14 381.414 45.02 380.921 45.02H379.581ZM389.749 57H386.109V43H388.389V48.4H389.749C392.203 48.4 393.429 49.6333 393.429 52.1V53.3C393.429 55.7667 392.203 57 389.749 57ZM397.229 57H394.949V43H397.229V57ZM388.389 50.42V54.98H389.749C390.229 54.98 390.583 54.86 390.809 54.62C391.036 54.3667 391.149 53.9667 391.149 53.42V51.98C391.149 51.4333 391.036 51.04 390.809 50.8C390.583 50.5467 390.229 50.42 389.749 50.42H388.389ZM403.554 57H401.294V45.02H398.614V43H406.234V45.02H403.554V57ZM411.253 57H407.613V43H409.893V48.4H411.253C413.707 48.4 414.933 49.6333 414.933 52.1V53.3C414.933 55.7667 413.707 57 411.253 57ZM409.893 50.42V54.98H411.253C411.733 54.98 412.087 54.86 412.313 54.62C412.54 54.3667 412.653 53.9667 412.653 53.42V51.98C412.653 51.4333 412.54 51.04 412.313 50.8C412.087 50.5467 411.733 50.42 411.253 50.42H409.893Z" fill="white"/>
<g filter="url(#filter1_ddddd_201_30450)">
<ellipse cx="282" cy="182.5" rx="22" ry="5.5" fill="#DDBA63"/>
<path d="M281.999 129.749C276.53 129.756 271.288 131.931 267.422 135.797C263.555 139.664 261.38 144.906 261.374 150.374C261.374 168.022 280.124 181.352 280.922 181.911C281.238 182.131 281.613 182.249 281.999 182.249C282.384 182.249 282.759 182.131 283.075 181.911C283.874 181.352 302.624 168.022 302.624 150.374C302.617 144.906 300.442 139.664 296.575 135.797C292.709 131.931 287.467 129.756 281.999 129.749V129.749ZM282 142.875C283.483 142.875 284.933 143.315 286.167 144.139C287.4 144.963 288.361 146.134 288.929 147.505C289.497 148.875 289.645 150.383 289.356 151.838C289.066 153.293 288.352 154.629 287.303 155.678C286.254 156.727 284.918 157.442 283.463 157.731C282.008 158.02 280.5 157.872 279.13 157.304C277.759 156.736 276.588 155.775 275.764 154.542C274.94 153.308 274.5 151.858 274.5 150.375C274.5 149.39 274.694 148.415 275.071 147.505C275.448 146.595 276 145.768 276.697 145.072C277.393 144.375 278.22 143.823 279.13 143.446C280.04 143.069 281.015 142.875 282 142.875V142.875Z" fill="#FFF9DA"/>
<ellipse cx="282" cy="150.5" rx="13" ry="12.5" fill="#C74403"/>
<path d="M285.129 158H278.769V156.48C278.769 155.44 278.929 154.553 279.249 153.82C279.569 153.087 280.142 152.287 280.969 151.42C281.822 150.5 282.389 149.773 282.669 149.24C282.976 148.653 283.129 148.04 283.129 147.4C283.129 146.813 283.036 146.4 282.849 146.16C282.662 145.92 282.376 145.8 281.989 145.8C281.229 145.8 280.849 146.26 280.849 147.18V148.68H278.769V147.32C278.769 146.187 279.049 145.32 279.609 144.72C280.169 144.107 280.982 143.8 282.049 143.8C283.116 143.8 283.929 144.107 284.489 144.72C285.049 145.32 285.329 146.187 285.329 147.32C285.329 148.187 285.122 149.013 284.709 149.8C284.296 150.613 283.596 151.54 282.609 152.58C281.969 153.26 281.529 153.82 281.289 154.26C281.062 154.7 280.949 155.18 280.949 155.7V156H285.129V158Z" fill="white"/>
</g>
<path d="M340.74 142.56L342.54 135H344.72L341.7 146.62C341.46 147.54 341.08 148.2 340.56 148.6C340.04 149 339.307 149.2 338.36 149.2C337.813 149.2 337.353 149.127 336.98 148.98V147.02C337.3 147.127 337.647 147.18 338.02 147.18C338.447 147.18 338.767 147.12 338.98 147C339.193 146.867 339.353 146.64 339.46 146.32L339.56 145.96L336.4 135H338.76L340.74 142.56ZM350.984 140.08V135H353.264V149H350.984V143.16C350.398 143.76 349.604 144.06 348.604 144.06C346.631 144.06 345.644 142.933 345.644 140.68V135H347.904V140.38C347.904 141.46 348.371 142 349.304 142C349.838 142 350.251 141.84 350.544 141.52C350.838 141.187 350.984 140.707 350.984 140.08ZM363.082 149H360.762L360.302 146.28H357.222L356.742 149H354.622L357.302 135H360.382L363.082 149ZM358.762 137.36L357.562 144.3H359.962L358.762 137.36ZM370.464 148.24C369.838 148.88 368.944 149.2 367.784 149.2C366.624 149.2 365.724 148.88 365.084 148.24C364.458 147.587 364.144 146.673 364.144 145.5V138.5C364.144 137.327 364.458 136.42 365.084 135.78C365.724 135.127 366.624 134.8 367.784 134.8C368.944 134.8 369.838 135.127 370.464 135.78C371.091 136.42 371.404 137.327 371.404 138.5V139.74H369.264V138.4C369.264 137.32 368.791 136.78 367.844 136.78C366.898 136.78 366.424 137.32 366.424 138.4V145.6C366.424 146.68 366.898 147.22 367.844 147.22C368.791 147.22 369.264 146.68 369.264 145.6V143.84H371.404V145.5C371.404 146.673 371.091 147.587 370.464 148.24ZM377.336 149H375.076V137.02H372.396V135H380.016V137.02H377.336V149ZM385.315 149H381.395V135H385.115C386.368 135 387.288 135.273 387.875 135.82C388.475 136.367 388.775 137.207 388.775 138.34V138.76C388.775 140.187 388.221 141.113 387.115 141.54V141.6C388.381 141.987 389.015 143.02 389.015 144.7V145.42C389.015 147.807 387.781 149 385.315 149ZM383.675 137.02V140.74H384.815C385.388 140.74 385.808 140.613 386.075 140.36C386.355 140.093 386.495 139.68 386.495 139.12V138.6C386.495 138.04 386.381 137.64 386.155 137.4C385.928 137.147 385.555 137.02 385.035 137.02H383.675ZM383.675 142.76V146.98H385.315C385.808 146.98 386.168 146.86 386.395 146.62C386.621 146.367 386.735 145.96 386.735 145.4V144.62C386.735 143.927 386.601 143.447 386.335 143.18C386.068 142.9 385.601 142.76 384.935 142.76H383.675ZM394.295 142.56L396.095 135H398.275L395.255 146.62C395.015 147.54 394.635 148.2 394.115 148.6C393.595 149 392.861 149.2 391.915 149.2C391.368 149.2 390.908 149.127 390.535 148.98V147.02C390.855 147.127 391.201 147.18 391.575 147.18C392.001 147.18 392.321 147.12 392.535 147C392.748 146.867 392.908 146.64 393.015 146.32L393.115 145.96L389.955 135H392.315L394.295 142.56ZM403.399 133.86C402.612 133.86 401.992 133.64 401.539 133.2C401.086 132.747 400.846 132.133 400.819 131.36H402.199C402.266 132.027 402.666 132.36 403.399 132.36C404.132 132.36 404.552 132.027 404.659 131.36H405.999C405.972 132.133 405.732 132.747 405.279 133.2C404.826 133.64 404.199 133.86 403.399 133.86ZM401.579 144.36L404.959 135H407.279V149H405.219V139.6L401.859 149H399.539V135H401.579V144.36ZM416.623 149H412.703V135H416.423C417.676 135 418.596 135.273 419.183 135.82C419.783 136.367 420.083 137.207 420.083 138.34V138.76C420.083 140.187 419.53 141.113 418.423 141.54V141.6C419.69 141.987 420.323 143.02 420.323 144.7V145.42C420.323 147.807 419.09 149 416.623 149ZM414.983 137.02V140.74H416.123C416.696 140.74 417.116 140.613 417.383 140.36C417.663 140.093 417.803 139.68 417.803 139.12V138.6C417.803 138.04 417.69 137.64 417.463 137.4C417.236 137.147 416.863 137.02 416.343 137.02H414.983ZM414.983 142.76V146.98H416.623C417.116 146.98 417.476 146.86 417.703 146.62C417.93 146.367 418.043 145.96 418.043 145.4V144.62C418.043 143.927 417.91 143.447 417.643 143.18C417.376 142.9 416.91 142.76 416.243 142.76H414.983ZM427.62 149H425.34V135H428.96C431.413 135 432.64 136.213 432.64 138.64V139.68C432.64 142.107 431.413 143.32 428.96 143.32H427.62V149ZM427.62 137.02V141.32H428.96C429.453 141.32 429.807 141.2 430.02 140.96C430.247 140.707 430.36 140.3 430.36 139.74V138.56C430.36 138 430.247 137.607 430.02 137.38C429.807 137.14 429.453 137.02 428.96 137.02H427.62ZM433.968 145.44V138.56C433.968 137.36 434.288 136.433 434.928 135.78C435.582 135.127 436.508 134.8 437.708 134.8C438.922 134.8 439.848 135.127 440.488 135.78C441.142 136.433 441.468 137.36 441.468 138.56V145.44C441.468 146.64 441.142 147.567 440.488 148.22C439.835 148.873 438.908 149.2 437.708 149.2C436.508 149.2 435.582 148.873 434.928 148.22C434.288 147.567 433.968 146.64 433.968 145.44ZM437.708 147.18C438.695 147.18 439.188 146.64 439.188 145.56V138.44C439.188 137.36 438.695 136.82 437.708 136.82C436.735 136.82 436.248 137.36 436.248 138.44V145.56C436.248 146.64 436.735 147.18 437.708 147.18ZM446.49 149.2C445.29 149.2 444.376 148.887 443.75 148.26C443.123 147.62 442.81 146.7 442.81 145.5V144.56H444.95V145.54C444.95 146.633 445.443 147.18 446.43 147.18C446.95 147.18 447.323 147.047 447.55 146.78C447.79 146.5 447.91 146.047 447.91 145.42V144.66C447.91 143.967 447.77 143.473 447.49 143.18C447.223 142.873 446.776 142.72 446.15 142.72H445.29V140.7H446.21C447.303 140.7 447.85 140.133 447.85 139V138.38C447.85 137.34 447.376 136.82 446.43 136.82C445.496 136.82 445.03 137.32 445.03 138.32V139.02H442.89V138.5C442.89 137.3 443.196 136.387 443.81 135.76C444.423 135.12 445.323 134.8 446.51 134.8C447.683 134.8 448.576 135.107 449.19 135.72C449.803 136.333 450.11 137.22 450.11 138.38V138.76C450.11 140.213 449.516 141.153 448.33 141.58V141.6C449.556 142.027 450.17 143.053 450.17 144.68V145.48C450.17 147.96 448.943 149.2 446.49 149.2ZM455.464 149H451.824V135H454.104V140.4H455.464C457.918 140.4 459.144 141.633 459.144 144.1V145.3C459.144 147.767 457.918 149 455.464 149ZM462.944 149H460.664V135H462.944V149ZM454.104 142.42V146.98H455.464C455.944 146.98 456.298 146.86 456.524 146.62C456.751 146.367 456.864 145.967 456.864 145.42V143.98C456.864 143.433 456.751 143.04 456.524 142.8C456.298 142.547 455.944 142.42 455.464 142.42H454.104ZM467.229 149H464.949V135H471.229V137.02H467.229V149ZM474.905 149H472.625V135H476.245C478.698 135 479.925 136.213 479.925 138.64V139.68C479.925 142.107 478.698 143.32 476.245 143.32H474.905V149ZM474.905 137.02V141.32H476.245C476.738 141.32 477.092 141.2 477.305 140.96C477.532 140.707 477.645 140.3 477.645 139.74V138.56C477.645 138 477.532 137.607 477.305 137.38C477.092 137.14 476.738 137.02 476.245 137.02H474.905ZM485.074 149H481.434V135H483.714V140.4H485.074C487.527 140.4 488.754 141.633 488.754 144.1V145.3C488.754 147.767 487.527 149 485.074 149ZM492.554 149H490.274V135H492.554V149ZM483.714 142.42V146.98H485.074C485.554 146.98 485.907 146.86 486.134 146.62C486.36 146.367 486.474 145.967 486.474 145.42V143.98C486.474 143.433 486.36 143.04 486.134 142.8C485.907 142.547 485.554 142.42 485.074 142.42H483.714ZM506.119 149H494.559V135H496.839V146.98H499.219V135H501.479V146.98H503.839V135H506.119V149ZM514.833 149H508.113V135H514.833V137.02H510.393V140.78H513.953V142.8H510.393V146.98H514.833V149ZM522.034 149H519.754V135H527.334V149H525.054V137.02H522.034V149ZM531.604 149H529.324V135H532.944C535.398 135 536.624 136.213 536.624 138.64V139.68C536.624 142.107 535.398 143.32 532.944 143.32H531.604V149ZM531.604 137.02V141.32H532.944C533.438 141.32 533.791 141.2 534.004 140.96C534.231 140.707 534.344 140.3 534.344 139.74V138.56C534.344 138 534.231 137.607 534.004 137.38C533.791 137.14 533.438 137.02 532.944 137.02H531.604ZM540.173 144.36L543.553 135H545.873V149H543.813V139.6L540.453 149H538.133V135H540.173V144.36ZM551.099 149.2C549.899 149.2 548.986 148.887 548.359 148.26C547.732 147.62 547.419 146.7 547.419 145.5V144.56H549.559V145.54C549.559 146.633 550.052 147.18 551.039 147.18C551.559 147.18 551.932 147.047 552.159 146.78C552.399 146.5 552.519 146.047 552.519 145.42V144.66C552.519 143.967 552.379 143.473 552.099 143.18C551.832 142.873 551.386 142.72 550.759 142.72H549.899V140.7H550.819C551.912 140.7 552.459 140.133 552.459 139V138.38C552.459 137.34 551.986 136.82 551.039 136.82C550.106 136.82 549.639 137.32 549.639 138.32V139.02H547.499V138.5C547.499 137.3 547.806 136.387 548.419 135.76C549.032 135.12 549.932 134.8 551.119 134.8C552.292 134.8 553.186 135.107 553.799 135.72C554.412 136.333 554.719 137.22 554.719 138.38V138.76C554.719 140.213 554.126 141.153 552.939 141.58V141.6C554.166 142.027 554.779 143.053 554.779 144.68V145.48C554.779 147.96 553.552 149.2 551.099 149.2ZM556.254 145.44V138.56C556.254 137.36 556.574 136.433 557.214 135.78C557.867 135.127 558.794 134.8 559.994 134.8C561.207 134.8 562.134 135.127 562.774 135.78C563.427 136.433 563.754 137.36 563.754 138.56V145.44C563.754 146.64 563.427 147.567 562.774 148.22C562.12 148.873 561.194 149.2 559.994 149.2C558.794 149.2 557.867 148.873 557.214 148.22C556.574 147.567 556.254 146.64 556.254 145.44ZM559.994 147.18C560.98 147.18 561.474 146.64 561.474 145.56V138.44C561.474 137.36 560.98 136.82 559.994 136.82C559.02 136.82 558.534 137.36 558.534 138.44V145.56C558.534 146.64 559.02 147.18 559.994 147.18ZM569.475 149H565.555V135H569.275C570.528 135 571.448 135.273 572.035 135.82C572.635 136.367 572.935 137.207 572.935 138.34V138.76C572.935 140.187 572.381 141.113 571.275 141.54V141.6C572.541 141.987 573.175 143.02 573.175 144.7V145.42C573.175 147.807 571.941 149 569.475 149ZM567.835 137.02V140.74H568.975C569.548 140.74 569.968 140.613 570.235 140.36C570.515 140.093 570.655 139.68 570.655 139.12V138.6C570.655 138.04 570.541 137.64 570.315 137.4C570.088 137.147 569.715 137.02 569.195 137.02H567.835ZM567.835 142.76V146.98H569.475C569.968 146.98 570.328 146.86 570.555 146.62C570.781 146.367 570.895 145.96 570.895 145.4V144.62C570.895 143.927 570.761 143.447 570.495 143.18C570.228 142.9 569.761 142.76 569.095 142.76H567.835ZM345.46 165V176.98H346.66V180.88H344.38V179H338.64V180.88H336.38V176.98H337.68C337.973 176.687 338.14 176.14 338.18 175.34L338.6 165H345.46ZM339.84 176.98H343.18V167.02H340.74L340.46 175.22C340.433 175.94 340.227 176.527 339.84 176.98ZM348.056 179.02C347.776 179.02 347.556 178.993 347.396 178.94V176.96C347.556 177 347.709 177.02 347.856 177.02C348.349 177.02 348.689 176.9 348.876 176.66C349.076 176.407 349.189 175.973 349.216 175.36L349.636 165H356.476V179H354.216V167.02H351.776L351.476 175.42C351.436 176.673 351.149 177.587 350.616 178.16C350.082 178.733 349.229 179.02 348.056 179.02ZM365.684 165V179H363.404V173.08H362.364C361.724 173.08 361.271 173.22 361.004 173.5C360.751 173.78 360.624 174.267 360.624 174.96V177.16C360.624 177.947 360.551 178.56 360.404 179H358.104C358.278 178.573 358.364 177.967 358.364 177.18V175.1C358.364 174.18 358.498 173.473 358.764 172.98C359.031 172.473 359.464 172.133 360.064 171.96V171.9C358.944 171.487 358.384 170.533 358.384 169.04V168.36C358.384 167.213 358.678 166.367 359.264 165.82C359.864 165.273 360.791 165 362.044 165H365.684ZM362.324 171.06H363.404V167.02H362.084C361.591 167.02 361.231 167.147 361.004 167.4C360.778 167.653 360.664 168.053 360.664 168.6V169.4C360.664 169.987 360.798 170.413 361.064 170.68C361.331 170.933 361.751 171.06 362.324 171.06ZM373.382 179H371.102V165H374.722C377.175 165 378.402 166.213 378.402 168.64V169.68C378.402 172.107 377.175 173.32 374.722 173.32H373.382V179ZM373.382 167.02V171.32H374.722C375.215 171.32 375.568 171.2 375.782 170.96C376.008 170.707 376.122 170.3 376.122 169.74V168.56C376.122 168 376.008 167.607 375.782 167.38C375.568 167.14 375.215 167.02 374.722 167.02H373.382ZM386.63 179H379.91V165H386.63V167.02H382.19V170.78H385.75V172.8H382.19V176.98H386.63V179ZM395.992 179H393.672L393.212 176.28H390.132L389.652 179H387.532L390.212 165H393.292L395.992 179ZM391.672 167.36L390.472 174.3H392.872L391.672 167.36ZM397.45 179.02C397.17 179.02 396.95 178.993 396.79 178.94V176.96C396.95 177 397.103 177.02 397.25 177.02C397.743 177.02 398.083 176.9 398.27 176.66C398.47 176.407 398.583 175.973 398.61 175.36L399.03 165H405.87V179H403.61V167.02H401.17L400.87 175.42C400.83 176.673 400.543 177.587 400.01 178.16C399.477 178.733 398.623 179.02 397.45 179.02ZM409.919 174.36L413.299 165H415.619V179H413.559V169.6L410.199 179H407.879V165H409.919V174.36ZM420.845 179.2C419.645 179.2 418.732 178.887 418.105 178.26C417.478 177.62 417.165 176.7 417.165 175.5V174.56H419.305V175.54C419.305 176.633 419.798 177.18 420.785 177.18C421.305 177.18 421.678 177.047 421.905 176.78C422.145 176.5 422.265 176.047 422.265 175.42V174.66C422.265 173.967 422.125 173.473 421.845 173.18C421.578 172.873 421.132 172.72 420.505 172.72H419.645V170.7H420.565C421.658 170.7 422.205 170.133 422.205 169V168.38C422.205 167.34 421.732 166.82 420.785 166.82C419.852 166.82 419.385 167.32 419.385 168.32V169.02H417.245V168.5C417.245 167.3 417.552 166.387 418.165 165.76C418.778 165.12 419.678 164.8 420.865 164.8C422.038 164.8 422.932 165.107 423.545 165.72C424.158 166.333 424.465 167.22 424.465 168.38V168.76C424.465 170.213 423.872 171.153 422.685 171.58V171.6C423.912 172.027 424.525 173.053 424.525 174.68V175.48C424.525 177.96 423.298 179.2 420.845 179.2ZM433.843 179H431.523L431.063 176.28H427.983L427.503 179H425.383L428.063 165H431.143L433.843 179ZM429.523 167.36L428.323 174.3H430.723L429.523 167.36ZM444.084 180.88H441.804V179H435.184V165H437.464V176.98H440.484V165H442.764V176.98H444.084V180.88ZM447.478 174.36L450.858 165H453.178V179H451.118V169.6L447.758 179H445.438V165H447.478V174.36ZM457.224 174.36L460.604 165H462.924V179H460.864V169.6L457.504 179H455.184V165H457.224V174.36ZM474.488 178.24C473.861 178.88 472.968 179.2 471.808 179.2C470.648 179.2 469.748 178.88 469.108 178.24C468.481 177.587 468.168 176.673 468.168 175.5V168.5C468.168 167.327 468.481 166.42 469.108 165.78C469.748 165.127 470.648 164.8 471.808 164.8C472.968 164.8 473.861 165.127 474.488 165.78C475.114 166.42 475.428 167.327 475.428 168.5V169.74H473.288V168.4C473.288 167.32 472.814 166.78 471.868 166.78C470.921 166.78 470.448 167.32 470.448 168.4V175.6C470.448 176.68 470.921 177.22 471.868 177.22C472.814 177.22 473.288 176.68 473.288 175.6V173.84H475.428V175.5C475.428 176.673 475.114 177.587 474.488 178.24ZM480.959 179H477.039V165H480.759C482.012 165 482.932 165.273 483.519 165.82C484.119 166.367 484.419 167.207 484.419 168.34V168.76C484.419 170.187 483.866 171.113 482.759 171.54V171.6C484.026 171.987 484.659 173.02 484.659 174.7V175.42C484.659 177.807 483.426 179 480.959 179ZM479.319 167.02V170.74H480.459C481.032 170.74 481.452 170.613 481.719 170.36C481.999 170.093 482.139 169.68 482.139 169.12V168.6C482.139 168.04 482.026 167.64 481.799 167.4C481.572 167.147 481.199 167.02 480.679 167.02H479.319ZM479.319 172.76V176.98H480.959C481.452 176.98 481.812 176.86 482.039 176.62C482.266 176.367 482.379 175.96 482.379 175.4V174.62C482.379 173.927 482.246 173.447 481.979 173.18C481.712 172.9 481.246 172.76 480.579 172.76H479.319ZM486.078 175.44V168.56C486.078 167.36 486.398 166.433 487.038 165.78C487.691 165.127 488.618 164.8 489.818 164.8C491.031 164.8 491.958 165.127 492.598 165.78C493.251 166.433 493.578 167.36 493.578 168.56V175.44C493.578 176.64 493.251 177.567 492.598 178.22C491.944 178.873 491.018 179.2 489.818 179.2C488.618 179.2 487.691 178.873 487.038 178.22C486.398 177.567 486.078 176.64 486.078 175.44ZM489.818 177.18C490.804 177.18 491.298 176.64 491.298 175.56V168.44C491.298 167.36 490.804 166.82 489.818 166.82C488.844 166.82 488.358 167.36 488.358 168.44V175.56C488.358 176.64 488.844 177.18 489.818 177.18ZM497.419 174.36L500.799 165H503.119V179H501.059V169.6L497.699 179H495.379V165H497.419V174.36ZM506.625 179H504.465L507.425 171.82L504.585 165H507.025L508.825 169.7L510.685 165H512.885L510.045 171.82L513.005 179H510.585L508.625 173.94L506.625 179ZM519.802 174.36L523.182 165H525.502V179H523.442V169.6L520.082 179H517.762V165H519.802V174.36ZM535.968 165V176.98H537.168V180.88H534.888V179H529.148V180.88H526.888V176.98H528.188C528.481 176.687 528.648 176.14 528.688 175.34L529.108 165H535.968ZM530.348 176.98H533.688V167.02H531.248L530.968 175.22C530.941 175.94 530.734 176.527 530.348 176.98ZM545.243 179H538.523V165H545.243V167.02H540.803V170.78H544.363V172.8H540.803V176.98H545.243V179ZM550.606 163.86C549.819 163.86 549.199 163.64 548.746 163.2C548.293 162.747 548.053 162.133 548.026 161.36H549.406C549.473 162.027 549.873 162.36 550.606 162.36C551.339 162.36 551.759 162.027 551.866 161.36H553.206C553.179 162.133 552.939 162.747 552.486 163.2C552.033 163.64 551.406 163.86 550.606 163.86ZM548.786 174.36L552.166 165H554.486V179H552.426V169.6L549.066 179H546.746V165H548.786V174.36Z" fill="white"/>
<g filter="url(#filter2_ddddd_201_30450)">
<ellipse cx="34" cy="304.5" rx="22" ry="5.5" fill="#DDBA63"/>
<path d="M33.9985 251.749C28.5304 251.756 23.2882 253.931 19.4216 257.797C15.5551 261.664 13.38 266.906 13.3735 272.374C13.3735 290.022 32.1235 303.352 32.9219 303.911C33.2376 304.131 33.6134 304.249 33.9985 304.249C34.3836 304.249 34.7595 304.131 35.0752 303.911C35.8735 303.352 54.6235 290.022 54.6235 272.374C54.617 266.906 52.442 261.664 48.5754 257.797C44.7089 253.931 39.4666 251.756 33.9985 251.749V251.749ZM33.9999 264.875C35.4833 264.875 36.9333 265.315 38.1667 266.139C39.4001 266.963 40.3613 268.134 40.929 269.505C41.4967 270.875 41.6452 272.383 41.3558 273.838C41.0664 275.293 40.3521 276.629 39.3032 277.678C38.2543 278.727 36.9179 279.442 35.4631 279.731C34.0082 280.02 32.5002 279.872 31.1298 279.304C29.7593 278.736 28.588 277.775 27.7639 276.542C26.9398 275.308 26.4999 273.858 26.4999 272.375C26.4999 271.39 26.6939 270.415 27.0708 269.505C27.4477 268.595 28.0001 267.768 28.6965 267.072C29.393 266.375 30.2198 265.823 31.1297 265.446C32.0397 265.069 33.015 264.875 33.9999 264.875V264.875Z" fill="#FFF9DA"/>
<ellipse cx="34" cy="272.5" rx="13" ry="12.5" fill="#C74403"/>
<path d="M30.6598 276.72V275.58H32.7398V276.82C32.7398 277.74 33.1198 278.2 33.8798 278.2C34.2664 278.2 34.5531 278.08 34.7398 277.84C34.9264 277.6 35.0198 277.193 35.0198 276.62V275.48C35.0198 274.84 34.9064 274.387 34.6798 274.12C34.4531 273.84 34.0864 273.7 33.5798 273.7H32.8398V271.7H33.6398C34.0931 271.7 34.4264 271.587 34.6398 271.36C34.8531 271.12 34.9598 270.74 34.9598 270.22V269.2C34.9598 268.267 34.5931 267.8 33.8598 267.8C33.1531 267.8 32.7998 268.233 32.7998 269.1V270.02H30.7198V269.28C30.7198 268.16 30.9931 267.3 31.5398 266.7C32.0998 266.1 32.8998 265.8 33.9398 265.8C34.9931 265.8 35.7931 266.1 36.3398 266.7C36.8864 267.287 37.1598 268.14 37.1598 269.26V269.76C37.1598 271.253 36.6398 272.193 35.5998 272.58V272.62C36.6798 273.02 37.2198 273.98 37.2198 275.5V276.74C37.2198 277.86 36.9398 278.72 36.3798 279.32C35.8331 279.907 35.0198 280.2 33.9398 280.2C32.8598 280.2 32.0398 279.9 31.4798 279.3C30.9331 278.7 30.6598 277.84 30.6598 276.72Z" fill="white"/>
</g>
<path d="M91.28 271H89V257H96.58V271H94.3V259.02H91.28V271ZM98.3903 267.44V260.56C98.3903 259.36 98.7103 258.433 99.3503 257.78C100.004 257.127 100.93 256.8 102.13 256.8C103.344 256.8 104.27 257.127 104.91 257.78C105.564 258.433 105.89 259.36 105.89 260.56V267.44C105.89 268.64 105.564 269.567 104.91 270.22C104.257 270.873 103.33 271.2 102.13 271.2C100.93 271.2 100.004 270.873 99.3503 270.22C98.7103 269.567 98.3903 268.64 98.3903 267.44ZM102.13 269.18C103.117 269.18 103.61 268.64 103.61 267.56V260.44C103.61 259.36 103.117 258.82 102.13 258.82C101.157 258.82 100.67 259.36 100.67 260.44V267.56C100.67 268.64 101.157 269.18 102.13 269.18ZM110.911 271.2C109.711 271.2 108.798 270.887 108.171 270.26C107.545 269.62 107.231 268.7 107.231 267.5V266.56H109.371V267.54C109.371 268.633 109.865 269.18 110.851 269.18C111.371 269.18 111.745 269.047 111.971 268.78C112.211 268.5 112.331 268.047 112.331 267.42V266.66C112.331 265.967 112.191 265.473 111.911 265.18C111.645 264.873 111.198 264.72 110.571 264.72H109.711V262.7H110.631C111.725 262.7 112.271 262.133 112.271 261V260.38C112.271 259.34 111.798 258.82 110.851 258.82C109.918 258.82 109.451 259.32 109.451 260.32V261.02H107.311V260.5C107.311 259.3 107.618 258.387 108.231 257.76C108.845 257.12 109.745 256.8 110.931 256.8C112.105 256.8 112.998 257.107 113.611 257.72C114.225 258.333 114.531 259.22 114.531 260.38V260.76C114.531 262.213 113.938 263.153 112.751 263.58V263.6C113.978 264.027 114.591 265.053 114.591 266.68V267.48C114.591 269.96 113.365 271.2 110.911 271.2ZM116.066 267.44V260.56C116.066 259.36 116.386 258.433 117.026 257.78C117.679 257.127 118.606 256.8 119.806 256.8C121.019 256.8 121.946 257.127 122.586 257.78C123.239 258.433 123.566 259.36 123.566 260.56V267.44C123.566 268.64 123.239 269.567 122.586 270.22C121.933 270.873 121.006 271.2 119.806 271.2C118.606 271.2 117.679 270.873 117.026 270.22C116.386 269.567 116.066 268.64 116.066 267.44ZM119.806 269.18C120.793 269.18 121.286 268.64 121.286 267.56V260.44C121.286 259.36 120.793 258.82 119.806 258.82C118.833 258.82 118.346 259.36 118.346 260.44V267.56C118.346 268.64 118.833 269.18 119.806 269.18ZM129.287 271H125.367V257H129.087C130.341 257 131.261 257.273 131.847 257.82C132.447 258.367 132.747 259.207 132.747 260.34V260.76C132.747 262.187 132.194 263.113 131.087 263.54V263.6C132.354 263.987 132.987 265.02 132.987 266.7V267.42C132.987 269.807 131.754 271 129.287 271ZM127.647 259.02V262.74H128.787C129.361 262.74 129.781 262.613 130.047 262.36C130.327 262.093 130.467 261.68 130.467 261.12V260.6C130.467 260.04 130.354 259.64 130.127 259.4C129.901 259.147 129.527 259.02 129.007 259.02H127.647ZM127.647 264.76V268.98H129.287C129.781 268.98 130.141 268.86 130.367 268.62C130.594 268.367 130.707 267.96 130.707 267.4V266.62C130.707 265.927 130.574 265.447 130.307 265.18C130.041 264.9 129.574 264.76 128.907 264.76H127.647ZM136.626 266.36L140.006 257H142.326V271H140.266V261.6L136.906 271H134.586V257H136.626V266.36ZM156.21 257V268.98H157.41V272.88H155.13V271H149.39V272.88H147.13V268.98H148.43C148.723 268.687 148.89 268.14 148.93 267.34L149.35 257H156.21ZM150.59 268.98H153.93V259.02H151.49L151.21 267.22C151.183 267.94 150.977 268.527 150.59 268.98ZM161.046 271H158.766V257H162.386C164.839 257 166.066 258.213 166.066 260.64V261.68C166.066 264.107 164.839 265.32 162.386 265.32H161.046V271ZM161.046 259.02V263.32H162.386C162.879 263.32 163.232 263.2 163.446 262.96C163.672 262.707 163.786 262.3 163.786 261.74V260.56C163.786 260 163.672 259.607 163.446 259.38C163.232 259.14 162.879 259.02 162.386 259.02H161.046ZM171.06 264.56L172.86 257H175.04L172.02 268.62C171.78 269.54 171.4 270.2 170.88 270.6C170.36 271 169.627 271.2 168.68 271.2C168.134 271.2 167.674 271.127 167.3 270.98V269.02C167.62 269.127 167.967 269.18 168.34 269.18C168.767 269.18 169.087 269.12 169.3 269C169.514 268.867 169.674 268.64 169.78 268.32L169.88 267.96L166.72 257H169.08L171.06 264.56ZM179.329 271.2C178.129 271.2 177.216 270.887 176.589 270.26C175.963 269.62 175.649 268.7 175.649 267.5V266.56H177.789V267.54C177.789 268.633 178.283 269.18 179.269 269.18C179.789 269.18 180.163 269.047 180.389 268.78C180.629 268.5 180.749 268.047 180.749 267.42V266.66C180.749 265.967 180.609 265.473 180.329 265.18C180.063 264.873 179.616 264.72 178.989 264.72H178.129V262.7H179.049C180.143 262.7 180.689 262.133 180.689 261V260.38C180.689 259.34 180.216 258.82 179.269 258.82C178.336 258.82 177.869 259.32 177.869 260.32V261.02H175.729V260.5C175.729 259.3 176.036 258.387 176.649 257.76C177.263 257.12 178.163 256.8 179.349 256.8C180.523 256.8 181.416 257.107 182.029 257.72C182.643 258.333 182.949 259.22 182.949 260.38V260.76C182.949 262.213 182.356 263.153 181.169 263.58V263.6C182.396 264.027 183.009 265.053 183.009 266.68V267.48C183.009 269.96 181.783 271.2 179.329 271.2ZM191.384 271H184.664V257H191.384V259.02H186.944V262.78H190.504V264.8H186.944V268.98H191.384V271ZM196.747 255.86C195.96 255.86 195.34 255.64 194.887 255.2C194.433 254.747 194.193 254.133 194.167 253.36H195.547C195.613 254.027 196.013 254.36 196.747 254.36C197.48 254.36 197.9 254.027 198.007 253.36H199.347C199.32 254.133 199.08 254.747 198.627 255.2C198.173 255.64 197.547 255.86 196.747 255.86ZM194.927 266.36L198.307 257H200.627V271H198.567V261.6L195.207 271H192.887V257H194.927V266.36ZM208.331 271H206.051V257H213.631V271H211.351V259.02H208.331V271ZM215.441 267.44V260.56C215.441 259.36 215.761 258.433 216.401 257.78C217.054 257.127 217.981 256.8 219.181 256.8C220.394 256.8 221.321 257.127 221.961 257.78C222.614 258.433 222.941 259.36 222.941 260.56V267.44C222.941 268.64 222.614 269.567 221.961 270.22C221.308 270.873 220.381 271.2 219.181 271.2C217.981 271.2 217.054 270.873 216.401 270.22C215.761 269.567 215.441 268.64 215.441 267.44ZM219.181 269.18C220.168 269.18 220.661 268.64 220.661 267.56V260.44C220.661 259.36 220.168 258.82 219.181 258.82C218.208 258.82 217.721 259.36 217.721 260.44V267.56C217.721 268.64 218.208 269.18 219.181 269.18ZM233.105 257V268.98H234.305V272.88H232.025V271H226.285V272.88H224.025V268.98H225.325C225.618 268.687 225.785 268.14 225.825 267.34L226.245 257H233.105ZM227.485 268.98H230.825V259.02H228.385L228.105 267.22C228.078 267.94 227.871 268.527 227.485 268.98ZM244.12 257V268.98H245.32V272.88H243.04V271H237.3V272.88H235.04V268.98H236.34C236.633 268.687 236.8 268.14 236.84 267.34L237.26 257H244.12ZM238.5 268.98H241.84V259.02H239.4L239.12 267.22C239.093 267.94 238.887 268.527 238.5 268.98ZM253.396 271H246.676V257H253.396V259.02H248.956V262.78H252.516V264.8H248.956V268.98H253.396V271ZM257.178 271H254.898V257H258.518C260.972 257 262.198 258.213 262.198 260.64V261.68C262.198 264.107 260.972 265.32 258.518 265.32H257.178V271ZM257.178 259.02V263.32H258.518C259.012 263.32 259.365 263.2 259.578 262.96C259.805 262.707 259.918 262.3 259.918 261.74V260.56C259.918 260 259.805 259.607 259.578 259.38C259.365 259.14 259.012 259.02 258.518 259.02H257.178ZM275.861 271H273.581L271.421 264.2L270.321 266.1V271H268.041V266.1L266.941 264.2L264.781 271H262.481L265.441 262.2L262.521 257H264.881L268.041 263.06V257H270.321V263.06L273.501 257H275.821L272.921 262.22L275.861 271ZM285.023 271H282.703L282.243 268.28H279.163L278.683 271H276.563L279.243 257H282.323L285.023 271ZM280.703 259.36L279.503 266.3H281.903L280.703 259.36ZM289.57 271H287.31V259.02H284.63V257H292.25V259.02H289.57V271ZM297.269 271H293.629V257H295.909V262.4H297.269C299.722 262.4 300.949 263.633 300.949 266.1V267.3C300.949 269.767 299.722 271 297.269 271ZM295.909 264.42V268.98H297.269C297.749 268.98 298.102 268.86 298.329 268.62C298.556 268.367 298.669 267.967 298.669 267.42V265.98C298.669 265.433 298.556 265.04 298.329 264.8C298.102 264.547 297.749 264.42 297.269 264.42H295.909ZM93.32 301H91.06V289.02H88.38V287H96V289.02H93.32V301ZM101.299 301H97.3789V287H101.099C102.352 287 103.272 287.273 103.859 287.82C104.459 288.367 104.759 289.207 104.759 290.34V290.76C104.759 292.187 104.206 293.113 103.099 293.54V293.6C104.366 293.987 104.999 295.02 104.999 296.7V297.42C104.999 299.807 103.766 301 101.299 301ZM99.6589 289.02V292.74H100.799C101.372 292.74 101.792 292.613 102.059 292.36C102.339 292.093 102.479 291.68 102.479 291.12V290.6C102.479 290.04 102.366 289.64 102.139 289.4C101.912 289.147 101.539 289.02 101.019 289.02H99.6589ZM99.6589 294.76V298.98H101.299C101.792 298.98 102.152 298.86 102.379 298.62C102.606 298.367 102.719 297.96 102.719 297.4V296.62C102.719 295.927 102.586 295.447 102.319 295.18C102.052 294.9 101.586 294.76 100.919 294.76H99.6589ZM106.418 297.44V290.56C106.418 289.36 106.738 288.433 107.378 287.78C108.031 287.127 108.958 286.8 110.158 286.8C111.371 286.8 112.298 287.127 112.938 287.78C113.591 288.433 113.918 289.36 113.918 290.56V297.44C113.918 298.64 113.591 299.567 112.938 300.22C112.284 300.873 111.358 301.2 110.158 301.2C108.958 301.2 108.031 300.873 107.378 300.22C106.738 299.567 106.418 298.64 106.418 297.44ZM110.158 299.18C111.144 299.18 111.638 298.64 111.638 297.56V290.44C111.638 289.36 111.144 288.82 110.158 288.82C109.184 288.82 108.698 289.36 108.698 290.44V297.56C108.698 298.64 109.184 299.18 110.158 299.18ZM117.759 296.36L121.139 287H123.459V301H121.399V291.6L118.039 301H115.719V287H117.759V296.36ZM128.703 297.44V290.56C128.703 289.36 129.023 288.433 129.663 287.78C130.316 287.127 131.243 286.8 132.443 286.8C133.656 286.8 134.583 287.127 135.223 287.78C135.876 288.433 136.203 289.36 136.203 290.56V297.44C136.203 298.64 135.876 299.567 135.223 300.22C134.569 300.873 133.643 301.2 132.443 301.2C131.243 301.2 130.316 300.873 129.663 300.22C129.023 299.567 128.703 298.64 128.703 297.44ZM132.443 299.18C133.429 299.18 133.923 298.64 133.923 297.56V290.44C133.923 289.36 133.429 288.82 132.443 288.82C131.469 288.82 130.983 289.36 130.983 290.44V297.56C130.983 298.64 131.469 299.18 132.443 299.18ZM142.246 301H139.986V289.02H137.306V287H144.926V289.02H142.246V301ZM154.405 301H152.005L149.785 294.6L148.585 296.58V301H146.305V287H148.585V293.16L152.045 287H154.365L151.325 292.2L154.405 301ZM158.018 301H155.738V287H159.358C161.812 287 163.038 288.213 163.038 290.64V291.68C163.038 294.107 161.812 295.32 159.358 295.32H158.018V301ZM158.018 289.02V293.32H159.358C159.852 293.32 160.205 293.2 160.418 292.96C160.645 292.707 160.758 292.3 160.758 291.74V290.56C160.758 290 160.645 289.607 160.418 289.38C160.205 289.14 159.852 289.02 159.358 289.02H158.018ZM168.187 301H164.547V287H166.827V292.4H168.187C170.64 292.4 171.867 293.633 171.867 296.1V297.3C171.867 299.767 170.64 301 168.187 301ZM175.667 301H173.387V287H175.667V301ZM166.827 294.42V298.98H168.187C168.667 298.98 169.02 298.86 169.247 298.62C169.474 298.367 169.587 297.967 169.587 297.42V295.98C169.587 295.433 169.474 295.04 169.247 294.8C169.02 294.547 168.667 294.42 168.187 294.42H166.827ZM181.992 301H179.732V289.02H177.052V287H184.672V289.02H181.992V301ZM188.091 296.36L191.471 287H193.791V301H191.731V291.6L188.371 301H186.051V287H188.091V296.36ZM202.997 287V301H200.717V295.08H199.677C199.037 295.08 198.584 295.22 198.317 295.5C198.064 295.78 197.937 296.267 197.937 296.96V299.16C197.937 299.947 197.864 300.56 197.717 301H195.417C195.59 300.573 195.677 299.967 195.677 299.18V297.1C195.677 296.18 195.81 295.473 196.077 294.98C196.344 294.473 196.777 294.133 197.377 293.96V293.9C196.257 293.487 195.697 292.533 195.697 291.04V290.36C195.697 289.213 195.99 288.367 196.577 287.82C197.177 287.273 198.104 287 199.357 287H202.997ZM199.637 293.06H200.717V289.02H199.397C198.904 289.02 198.544 289.147 198.317 289.4C198.09 289.653 197.977 290.053 197.977 290.6V291.4C197.977 291.987 198.11 292.413 198.377 292.68C198.644 292.933 199.064 293.06 199.637 293.06Z" fill="white"/>
<path opacity="0.4" d="M233.5 150.5C200.192 141.353 190.305 206.416 119.599 182.321C48.8937 158.227 29.9953 199.26 34.6699 218" stroke="#FFF8D9" stroke-width="2" stroke-linecap="round" stroke-dasharray="6 6"/>
<path opacity="0.4" d="M355 271.766C600.176 264.828 382.864 294.496 426 382.5" stroke="#FFF8D9" stroke-width="2" stroke-linecap="round" stroke-dasharray="6 6"/>
<path opacity="0.4" d="M438.5 22C479.034 14.5919 527.568 43.6142 491.5 75.4997C455.432 107.385 283.5 68.6759 283.5 110.5" stroke="#FFF8D9" stroke-width="2" stroke-linecap="round" stroke-dasharray="6 6"/>
<defs>
<filter id="filter0_ddddd_201_30450" x="90" y="0" width="114" height="109" filterUnits="userSpaceOnUse" color-interpolation-filters="sRGB">
<feFlood flood-opacity="0" result="BackgroundImageFix"/>
<feColorMatrix in="SourceAlpha" type="matrix" values="0 0 0 0 0 0 0 0 0 0 0 0 0 0 0 0 0 0 127 0" result="hardAlpha"/>
<feOffset/>
<feColorMatrix type="matrix" values="0 0 0 0 0.0745098 0 0 0 0 0.12549 0 0 0 0 0.0823529 0 0 0 0.2 0"/>
<feBlend mode="normal" in2="BackgroundImageFix" result="effect1_dropShadow_201_30450"/>
<feColorMatrix in="SourceAlpha" type="matrix" values="0 0 0 0 0 0 0 0 0 0 0 0 0 0 0 0 0 0 127 0" result="hardAlpha"/>
<feOffset dx="2" dy="2"/>
<feGaussianBlur stdDeviation="3"/>
<feColorMatrix type="matrix" values="0 0 0 0 0.0745098 0 0 0 0 0.12549 0 0 0 0 0.0823529 0 0 0 0.2 0"/>
<feBlend mode="normal" in2="effect1_dropShadow_201_30450" result="effect2_dropShadow_201_30450"/>
<feColorMatrix in="SourceAlpha" type="matrix" values="0 0 0 0 0 0 0 0 0 0 0 0 0 0 0 0 0 0 127 0" result="hardAlpha"/>
<feOffset dx="8" dy="7"/>
<feGaussianBlur stdDeviation="5"/>
<feColorMatrix type="matrix" values="0 0 0 0 0.0745098 0 0 0 0 0.12549 0 0 0 0 0.0823529 0 0 0 0.17 0"/>
<feBlend mode="normal" in2="effect2_dropShadow_201_30450" result="effect3_dropShadow_201_30450"/>
<feColorMatrix in="SourceAlpha" type="matrix" values="0 0 0 0 0 0 0 0 0 0 0 0 0 0 0 0 0 0 127 0" result="hardAlpha"/>
<feOffset dx="18" dy="15"/>
<feGaussianBlur stdDeviation="7"/>
<feColorMatrix type="matrix" values="0 0 0 0 0.0745098 0 0 0 0 0.12549 0 0 0 0 0.0823529 0 0 0 0.1 0"/>
<feBlend mode="normal" in2="effect3_dropShadow_201_30450" result="effect4_dropShadow_201_30450"/>
<feColorMatrix in="SourceAlpha" type="matrix" values="0 0 0 0 0 0 0 0 0 0 0 0 0 0 0 0 0 0 127 0" result="hardAlpha"/>
<feOffset dx="33" dy="26"/>
<feGaussianBlur stdDeviation="8.5"/>
<feColorMatrix type="matrix" values="0 0 0 0 0.0745098 0 0 0 0 0.12549 0 0 0 0 0.0823529 0 0 0 0.03 0"/>
<feBlend mode="normal" in2="effect4_dropShadow_201_30450" result="effect5_dropShadow_201_30450"/>
<feBlend mode="normal" in="SourceGraphic" in2="effect5_dropShadow_201_30450" result="shape"/>
</filter>
<filter id="filter1_ddddd_201_30450" x="248" y="122" width="114" height="109" filterUnits="userSpaceOnUse" color-interpolation-filters="sRGB">
<feFlood flood-opacity="0" result="BackgroundImageFix"/>
<feColorMatrix in="SourceAlpha" type="matrix" values="0 0 0 0 0 0 0 0 0 0 0 0 0 0 0 0 0 0 127 0" result="hardAlpha"/>
<feOffset/>
<feColorMatrix type="matrix" values="0 0 0 0 0.0745098 0 0 0 0 0.12549 0 0 0 0 0.0823529 0 0 0 0.2 0"/>
<feBlend mode="normal" in2="BackgroundImageFix" result="effect1_dropShadow_201_30450"/>
<feColorMatrix in="SourceAlpha" type="matrix" values="0 0 0 0 0 0 0 0 0 0 0 0 0 0 0 0 0 0 127 0" result="hardAlpha"/>
<feOffset dx="2" dy="2"/>
<feGaussianBlur stdDeviation="3"/>
<feColorMatrix type="matrix" values="0 0 0 0 0.0745098 0 0 0 0 0.12549 0 0 0 0 0.0823529 0 0 0 0.2 0"/>
<feBlend mode="normal" in2="effect1_dropShadow_201_30450" result="effect2_dropShadow_201_30450"/>
<feColorMatrix in="SourceAlpha" type="matrix" values="0 0 0 0 0 0 0 0 0 0 0 0 0 0 0 0 0 0 127 0" result="hardAlpha"/>
<feOffset dx="8" dy="7"/>
<feGaussianBlur stdDeviation="5"/>
<feColorMatrix type="matrix" values="0 0 0 0 0.0745098 0 0 0 0 0.12549 0 0 0 0 0.0823529 0 0 0 0.17 0"/>
<feBlend mode="normal" in2="effect2_dropShadow_201_30450" result="effect3_dropShadow_201_30450"/>
<feColorMatrix in="SourceAlpha" type="matrix" values="0 0 0 0 0 0 0 0 0 0 0 0 0 0 0 0 0 0 127 0" result="hardAlpha"/>
<feOffset dx="18" dy="15"/>
<feGaussianBlur stdDeviation="7"/>
<feColorMatrix type="matrix" values="0 0 0 0 0.0745098 0 0 0 0 0.12549 0 0 0 0 0.0823529 0 0 0 0.1 0"/>
<feBlend mode="normal" in2="effect3_dropShadow_201_30450" result="effect4_dropShadow_201_30450"/>
<feColorMatrix in="SourceAlpha" type="matrix" values="0 0 0 0 0 0 0 0 0 0 0 0 0 0 0 0 0 0 127 0" result="hardAlpha"/>
<feOffset dx="33" dy="26"/>
<feGaussianBlur stdDeviation="8.5"/>
<feColorMatrix type="matrix" values="0 0 0 0 0.0745098 0 0 0 0 0.12549 0 0 0 0 0.0823529 0 0 0 0.03 0"/>
<feBlend mode="normal" in2="effect4_dropShadow_201_30450" result="effect5_dropShadow_201_30450"/>
<feBlend mode="normal" in="SourceGraphic" in2="effect5_dropShadow_201_30450" result="shape"/>
</filter>
<filter id="filter2_ddddd_201_30450" x="0" y="244" width="114" height="109" filterUnits="userSpaceOnUse" color-interpolation-filters="sRGB">
<feFlood flood-opacity="0" result="BackgroundImageFix"/>
<feColorMatrix in="SourceAlpha" type="matrix" values="0 0 0 0 0 0 0 0 0 0 0 0 0 0 0 0 0 0 127 0" result="hardAlpha"/>
<feOffset/>
<feColorMatrix type="matrix" values="0 0 0 0 0.0745098 0 0 0 0 0.12549 0 0 0 0 0.0823529 0 0 0 0.2 0"/>
<feBlend mode="normal" in2="BackgroundImageFix" result="effect1_dropShadow_201_30450"/>
<feColorMatrix in="SourceAlpha" type="matrix" values="0 0 0 0 0 0 0 0 0 0 0 0 0 0 0 0 0 0 127 0" result="hardAlpha"/>
<feOffset dx="2" dy="2"/>
<feGaussianBlur stdDeviation="3"/>
<feColorMatrix type="matrix" values="0 0 0 0 0.0745098 0 0 0 0 0.12549 0 0 0 0 0.0823529 0 0 0 0.2 0"/>
<feBlend mode="normal" in2="effect1_dropShadow_201_30450" result="effect2_dropShadow_201_30450"/>
<feColorMatrix in="SourceAlpha" type="matrix" values="0 0 0 0 0 0 0 0 0 0 0 0 0 0 0 0 0 0 127 0" result="hardAlpha"/>
<feOffset dx="8" dy="7"/>
<feGaussianBlur stdDeviation="5"/>
<feColorMatrix type="matrix" values="0 0 0 0 0.0745098 0 0 0 0 0.12549 0 0 0 0 0.0823529 0 0 0 0.17 0"/>
<feBlend mode="normal" in2="effect2_dropShadow_201_30450" result="effect3_dropShadow_201_30450"/>
<feColorMatrix in="SourceAlpha" type="matrix" values="0 0 0 0 0 0 0 0 0 0 0 0 0 0 0 0 0 0 127 0" result="hardAlpha"/>
<feOffset dx="18" dy="15"/>
<feGaussianBlur stdDeviation="7"/>
<feColorMatrix type="matrix" values="0 0 0 0 0.0745098 0 0 0 0 0.12549 0 0 0 0 0.0823529 0 0 0 0.1 0"/>
<feBlend mode="normal" in2="effect3_dropShadow_201_30450" result="effect4_dropShadow_201_30450"/>
<feColorMatrix in="SourceAlpha" type="matrix" values="0 0 0 0 0 0 0 0 0 0 0 0 0 0 0 0 0 0 127 0" result="hardAlpha"/>
<feOffset dx="33" dy="26"/>
<feGaussianBlur stdDeviation="8.5"/>
<feColorMatrix type="matrix" values="0 0 0 0 0.0745098 0 0 0 0 0.12549 0 0 0 0 0.0823529 0 0 0 0.03 0"/>
<feBlend mode="normal" in2="effect4_dropShadow_201_30450" result="effect5_dropShadow_201_30450"/>
<feBlend mode="normal" in="SourceGraphic" in2="effect5_dropShadow_201_30450" result="shape"/>
</filter>
</defs>
</svg>
