<svg width="675" height="439" viewBox="0 0 675 439" fill="none" xmlns="http://www.w3.org/2000/svg">
<g filter="url(#filter0_ddddd_201_30446)">
<ellipse cx="80" cy="60.5" rx="22" ry="5.5" fill="#DDBA63"/>
<path d="M79.998 7.74933C74.5299 7.75582 69.2877 9.93088 65.4211 13.7974C61.5546 17.6639 59.3795 22.9062 59.373 28.3743C59.373 46.022 78.123 59.3521 78.9214 59.9106C79.2371 60.1311 79.6129 60.2493 79.998 60.2493C80.3832 60.2493 80.759 60.1311 81.0747 59.9106C81.873 59.3521 100.623 46.022 100.623 28.3743C100.617 22.9062 98.4415 17.6639 94.575 13.7974C90.7084 9.93088 85.4661 7.75582 79.998 7.74933V7.74933ZM79.9994 20.875C81.4828 20.875 82.9328 21.3149 84.1662 22.139C85.3996 22.9631 86.3609 24.1344 86.9285 25.5049C87.4962 26.8753 87.6447 28.3833 87.3553 29.8382C87.0659 31.293 86.3516 32.6294 85.3027 33.6783C84.2538 34.7272 82.9175 35.4415 81.4626 35.7309C80.0077 36.0203 78.4997 35.8718 77.1293 35.3041C75.7588 34.7364 74.5875 33.7752 73.7634 32.5418C72.9393 31.3084 72.4994 29.8584 72.4994 28.375C72.4994 27.3901 72.6934 26.4148 73.0703 25.5048C73.4472 24.5949 73.9996 23.7681 74.6961 23.0716C75.3925 22.3752 76.2193 21.8228 77.1293 21.4459C78.0392 21.069 79.0145 20.875 79.9994 20.875V20.875Z" fill="#FFF9DA"/>
<ellipse cx="80" cy="28.5" rx="13" ry="12.5" fill="#C74403"/>
<path d="M81.9498 36H79.7498V25.32H77.4498V23.76C78.3698 23.76 79.0365 23.64 79.4498 23.4C79.8765 23.1333 80.2165 22.6667 80.4698 22H81.9498V36Z" fill="white"/>
</g>
<path d="M137.28 27H135V13H138.62C141.073 13 142.3 14.2133 142.3 16.64V17.68C142.3 20.1067 141.073 21.32 138.62 21.32H137.28V27ZM137.28 15.02V19.32H138.62C139.113 19.32 139.467 19.2 139.68 18.96C139.907 18.7067 140.02 18.3 140.02 17.74V16.56C140.02 16 139.907 15.6067 139.68 15.38C139.467 15.14 139.113 15.02 138.62 15.02H137.28ZM150.828 27H148.508L148.048 24.28H144.968L144.488 27H142.368L145.048 13H148.128L150.828 27ZM146.508 15.36L145.308 22.3H147.708L146.508 15.36ZM158.21 26.24C157.584 26.88 156.69 27.2 155.53 27.2C154.37 27.2 153.47 26.88 152.83 26.24C152.204 25.5867 151.89 24.6733 151.89 23.5V16.5C151.89 15.3267 152.204 14.42 152.83 13.78C153.47 13.1267 154.37 12.8 155.53 12.8C156.69 12.8 157.584 13.1267 158.21 13.78C158.837 14.42 159.15 15.3267 159.15 16.5V17.74H157.01V16.4C157.01 15.32 156.537 14.78 155.59 14.78C154.644 14.78 154.17 15.32 154.17 16.4V23.6C154.17 24.68 154.644 25.22 155.59 25.22C156.537 25.22 157.01 24.68 157.01 23.6V21.84H159.15V23.5C159.15 24.6733 158.837 25.5867 158.21 26.24ZM166.921 26.24C166.295 26.88 165.401 27.2 164.241 27.2C163.081 27.2 162.181 26.88 161.541 26.24C160.915 25.5867 160.601 24.6733 160.601 23.5V16.5C160.601 15.3267 160.915 14.42 161.541 13.78C162.181 13.1267 163.081 12.8 164.241 12.8C165.401 12.8 166.295 13.1267 166.921 13.78C167.548 14.42 167.861 15.3267 167.861 16.5V17.74H165.721V16.4C165.721 15.32 165.248 14.78 164.301 14.78C163.355 14.78 162.881 15.32 162.881 16.4V23.6C162.881 24.68 163.355 25.22 164.301 25.22C165.248 25.22 165.721 24.68 165.721 23.6V21.84H167.861V23.5C167.861 24.6733 167.548 25.5867 166.921 26.24ZM177.573 27H175.173L172.953 20.6L171.753 22.58V27H169.473V13H171.753V19.16L175.213 13H177.533L174.493 18.2L177.573 27ZM186.726 27H184.406L183.946 24.28H180.866L180.386 27H178.266L180.946 13H184.026L186.726 27ZM182.406 15.36L181.206 22.3H183.606L182.406 15.36ZM200.786 27H198.506L196.346 20.2L195.246 22.1V27H192.966V22.1L191.866 20.2L189.706 27H187.406L190.366 18.2L187.446 13H189.806L192.966 19.06V13H195.246V19.06L198.426 13H200.746L197.846 18.22L200.786 27ZM204.169 22.36L207.549 13H209.869V27H207.809V17.6L204.449 27H202.129V13H204.169V22.36ZM212.895 29.32H211.855L212.755 27H211.955V24.6H214.235V26.76L212.895 29.32ZM224.727 18.08V13H227.007V27H224.727V21.16C224.14 21.76 223.347 22.06 222.347 22.06C220.373 22.06 219.387 20.9333 219.387 18.68V13H221.647V18.38C221.647 19.46 222.113 20 223.047 20C223.58 20 223.993 19.84 224.287 19.52C224.58 19.1867 224.727 18.7067 224.727 18.08ZM233.324 27H231.064V15.02H228.384V13H236.004V15.02H233.324V27ZM237.125 23.44V16.56C237.125 15.36 237.445 14.4333 238.085 13.78C238.738 13.1267 239.665 12.8 240.865 12.8C242.078 12.8 243.005 13.1267 243.645 13.78C244.298 14.4333 244.625 15.36 244.625 16.56V23.44C244.625 24.64 244.298 25.5667 243.645 26.22C242.991 26.8733 242.065 27.2 240.865 27.2C239.665 27.2 238.738 26.8733 238.085 26.22C237.445 25.5667 237.125 24.64 237.125 23.44ZM240.865 25.18C241.851 25.18 242.345 24.64 242.345 23.56V16.44C242.345 15.36 241.851 14.82 240.865 14.82C239.891 14.82 239.405 15.36 239.405 16.44V23.56C239.405 24.64 239.891 25.18 240.865 25.18ZM252.124 27H249.844V13H252.124V18.78H255.144V13H257.424V27H255.144V20.8H252.124V27ZM259.234 23.44V16.56C259.234 15.36 259.554 14.4333 260.194 13.78C260.847 13.1267 261.774 12.8 262.974 12.8C264.187 12.8 265.114 13.1267 265.754 13.78C266.407 14.4333 266.734 15.36 266.734 16.56V23.44C266.734 24.64 266.407 25.5667 265.754 26.22C265.101 26.8733 264.174 27.2 262.974 27.2C261.774 27.2 260.847 26.8733 260.194 26.22C259.554 25.5667 259.234 24.64 259.234 23.44ZM262.974 25.18C263.961 25.18 264.454 24.64 264.454 23.56V16.44C264.454 15.36 263.961 14.82 262.974 14.82C262.001 14.82 261.514 15.36 261.514 16.44V23.56C261.514 24.64 262.001 25.18 262.974 25.18ZM272.455 27H268.535V13H272.255C273.508 13 274.428 13.2733 275.015 13.82C275.615 14.3667 275.915 15.2067 275.915 16.34V16.76C275.915 18.1867 275.362 19.1133 274.255 19.54V19.6C275.522 19.9867 276.155 21.02 276.155 22.7V23.42C276.155 25.8067 274.922 27 272.455 27ZM270.815 15.02V18.74H271.955C272.528 18.74 272.948 18.6133 273.215 18.36C273.495 18.0933 273.635 17.68 273.635 17.12V16.6C273.635 16.04 273.522 15.64 273.295 15.4C273.068 15.1467 272.695 15.02 272.175 15.02H270.815ZM270.815 20.76V24.98H272.455C272.948 24.98 273.308 24.86 273.535 24.62C273.762 24.3667 273.875 23.96 273.875 23.4V22.62C273.875 21.9267 273.742 21.4467 273.475 21.18C273.208 20.9 272.742 20.76 272.075 20.76H270.815ZM277.574 23.44V16.56C277.574 15.36 277.894 14.4333 278.534 13.78C279.187 13.1267 280.114 12.8 281.314 12.8C282.527 12.8 283.454 13.1267 284.094 13.78C284.747 14.4333 285.074 15.36 285.074 16.56V23.44C285.074 24.64 284.747 25.5667 284.094 26.22C283.441 26.8733 282.514 27.2 281.314 27.2C280.114 27.2 279.187 26.8733 278.534 26.22C277.894 25.5667 277.574 24.64 277.574 23.44ZM281.314 25.18C282.301 25.18 282.794 24.64 282.794 23.56V16.44C282.794 15.36 282.301 14.82 281.314 14.82C280.341 14.82 279.854 15.36 279.854 16.44V23.56C279.854 24.64 280.341 25.18 281.314 25.18ZM289.155 27H286.875V13H293.155V15.02H289.155V27ZM294.293 23.44V16.56C294.293 15.36 294.613 14.4333 295.253 13.78C295.906 13.1267 296.833 12.8 298.033 12.8C299.246 12.8 300.173 13.1267 300.813 13.78C301.466 14.4333 301.793 15.36 301.793 16.56V23.44C301.793 24.64 301.466 25.5667 300.813 26.22C300.159 26.8733 299.233 27.2 298.033 27.2C296.833 27.2 295.906 26.8733 295.253 26.22C294.613 25.5667 294.293 24.64 294.293 23.44ZM298.033 25.18C299.019 25.18 299.513 24.64 299.513 23.56V16.44C299.513 15.36 299.019 14.82 298.033 14.82C297.059 14.82 296.573 15.36 296.573 16.44V23.56C296.573 24.64 297.059 25.18 298.033 25.18ZM139.32 57H137.06V45.02H134.38V43H142V45.02H139.32V57ZM147.019 57H143.379V43H145.659V48.4H147.019C149.472 48.4 150.699 49.6333 150.699 52.1V53.3C150.699 55.7667 149.472 57 147.019 57ZM154.499 57H152.219V43H154.499V57ZM145.659 50.42V54.98H147.019C147.499 54.98 147.852 54.86 148.079 54.62C148.306 54.3667 148.419 53.9667 148.419 53.42V51.98C148.419 51.4333 148.306 51.04 148.079 50.8C147.852 50.5467 147.499 50.42 147.019 50.42H145.659ZM161.422 57H159.262L162.222 49.82L159.382 43H161.822L163.622 47.7L165.482 43H167.682L164.842 49.82L167.802 57H165.382L163.422 51.94L161.422 57ZM168.59 53.44V46.56C168.59 45.36 168.91 44.4333 169.55 43.78C170.203 43.1267 171.13 42.8 172.33 42.8C173.543 42.8 174.47 43.1267 175.11 43.78C175.763 44.4333 176.09 45.36 176.09 46.56V53.44C176.09 54.64 175.763 55.5667 175.11 56.22C174.456 56.8733 173.53 57.2 172.33 57.2C171.13 57.2 170.203 56.8733 169.55 56.22C168.91 55.5667 168.59 54.64 168.59 53.44ZM172.33 55.18C173.316 55.18 173.81 54.64 173.81 53.56V46.44C173.81 45.36 173.316 44.82 172.33 44.82C171.356 44.82 170.87 45.36 170.87 46.44V53.56C170.87 54.64 171.356 55.18 172.33 55.18ZM182.133 57H179.873V45.02H177.193V43H184.813V45.02H182.133V57ZM192.911 57H186.191V43H192.911V45.02H188.471V48.78H192.031V50.8H188.471V54.98H192.911V57ZM194.454 57.02C194.174 57.02 193.954 56.9933 193.794 56.94V54.96C193.954 55 194.107 55.02 194.254 55.02C194.747 55.02 195.087 54.9 195.274 54.66C195.474 54.4067 195.587 53.9733 195.614 53.36L196.034 43H202.874V57H200.614V45.02H198.174L197.874 53.42C197.834 54.6733 197.547 55.5867 197.014 56.16C196.481 56.7333 195.627 57.02 194.454 57.02ZM212.101 57H208.301V43H214.841V45.02H210.581V48.5H212.101C214.554 48.5 215.781 49.7333 215.781 52.2V53.3C215.781 55.7667 214.554 57 212.101 57ZM210.581 50.52V54.98H212.101C212.581 54.98 212.934 54.86 213.161 54.62C213.387 54.3667 213.501 53.9667 213.501 53.42V52.08C213.501 51.5333 213.387 51.14 213.161 50.9C212.934 50.6467 212.581 50.52 212.101 50.52H210.581ZM220.925 57H217.285V43H219.565V48.4H220.925C223.378 48.4 224.605 49.6333 224.605 52.1V53.3C224.605 55.7667 223.378 57 220.925 57ZM228.405 57H226.125V43H228.405V57ZM219.565 50.42V54.98H220.925C221.405 54.98 221.758 54.86 221.985 54.62C222.212 54.3667 222.325 53.9667 222.325 53.42V51.98C222.325 51.4333 222.212 51.04 221.985 50.8C221.758 50.5467 221.405 50.42 220.925 50.42H219.565ZM242.288 43V54.98H243.488V58.88H241.208V57H235.468V58.88H233.208V54.98H234.508C234.801 54.6867 234.968 54.14 235.008 53.34L235.428 43H242.288ZM236.668 54.98H240.008V45.02H237.568L237.288 53.22C237.261 53.94 237.055 54.5267 236.668 54.98ZM244.884 57.02C244.604 57.02 244.384 56.9933 244.224 56.94V54.96C244.384 55 244.537 55.02 244.684 55.02C245.177 55.02 245.517 54.9 245.704 54.66C245.904 54.4067 246.017 53.9733 246.044 53.36L246.464 43H253.304V57H251.044V45.02H248.604L248.304 53.42C248.264 54.6733 247.977 55.5867 247.444 56.16C246.91 56.7333 246.057 57.02 244.884 57.02ZM262.513 43V57H260.233V51.08H259.193C258.553 51.08 258.099 51.22 257.833 51.5C257.579 51.78 257.453 52.2667 257.453 52.96V55.16C257.453 55.9467 257.379 56.56 257.233 57H254.933C255.106 56.5733 255.193 55.9667 255.193 55.18V53.1C255.193 52.18 255.326 51.4733 255.593 50.98C255.859 50.4733 256.293 50.1333 256.893 49.96V49.9C255.773 49.4867 255.213 48.5333 255.213 47.04V46.36C255.213 45.2133 255.506 44.3667 256.093 43.82C256.693 43.2733 257.619 43 258.873 43H262.513ZM259.153 49.06H260.233V45.02H258.913C258.419 45.02 258.059 45.1467 257.833 45.4C257.606 45.6533 257.493 46.0533 257.493 46.6V47.4C257.493 47.9867 257.626 48.4133 257.893 48.68C258.159 48.9333 258.579 49.06 259.153 49.06ZM274.07 56.24C273.443 56.88 272.55 57.2 271.39 57.2C270.23 57.2 269.33 56.88 268.69 56.24C268.063 55.5867 267.75 54.6733 267.75 53.5V46.5C267.75 45.3267 268.063 44.42 268.69 43.78C269.33 43.1267 270.23 42.8 271.39 42.8C272.55 42.8 273.443 43.1267 274.07 43.78C274.696 44.42 275.01 45.3267 275.01 46.5V47.74H272.87V46.4C272.87 45.32 272.396 44.78 271.45 44.78C270.503 44.78 270.03 45.32 270.03 46.4V53.6C270.03 54.68 270.503 55.22 271.45 55.22C272.396 55.22 272.87 54.68 272.87 53.6V51.84H275.01V53.5C275.01 54.6733 274.696 55.5867 274.07 56.24ZM283.341 57H276.621V43H283.341V45.02H278.901V48.78H282.461V50.8H278.901V54.98H283.341V57ZM288.644 57H284.844V43H291.384V45.02H287.124V48.5H288.644C291.097 48.5 292.324 49.7333 292.324 52.2V53.3C292.324 55.7667 291.097 57 288.644 57ZM287.124 50.52V54.98H288.644C289.124 54.98 289.477 54.86 289.704 54.62C289.93 54.3667 290.044 53.9667 290.044 53.42V52.08C290.044 51.5333 289.93 51.14 289.704 50.9C289.477 50.6467 289.124 50.52 288.644 50.52H287.124ZM301.028 43V57H298.748V51.08H297.708C297.068 51.08 296.615 51.22 296.348 51.5C296.095 51.78 295.968 52.2667 295.968 52.96V55.16C295.968 55.9467 295.895 56.56 295.748 57H293.448C293.621 56.5733 293.708 55.9667 293.708 55.18V53.1C293.708 52.18 293.841 51.4733 294.108 50.98C294.375 50.4733 294.808 50.1333 295.408 49.96V49.9C294.288 49.4867 293.728 48.5333 293.728 47.04V46.36C293.728 45.2133 294.021 44.3667 294.608 43.82C295.208 43.2733 296.135 43 297.388 43H301.028ZM297.668 49.06H298.748V45.02H297.428C296.935 45.02 296.575 45.1467 296.348 45.4C296.121 45.6533 296.008 46.0533 296.008 46.6V47.4C296.008 47.9867 296.141 48.4133 296.408 48.68C296.675 48.9333 297.095 49.06 297.668 49.06ZM306.265 53.44V46.56C306.265 45.36 306.585 44.4333 307.225 43.78C307.879 43.1267 308.805 42.8 310.005 42.8C311.219 42.8 312.145 43.1267 312.785 43.78C313.439 44.4333 313.765 45.36 313.765 46.56V53.44C313.765 54.64 313.439 55.5667 312.785 56.22C312.132 56.8733 311.205 57.2 310.005 57.2C308.805 57.2 307.879 56.8733 307.225 56.22C306.585 55.5667 306.265 54.64 306.265 53.44ZM310.005 55.18C310.992 55.18 311.485 54.64 311.485 53.56V46.44C311.485 45.36 310.992 44.82 310.005 44.82C309.032 44.82 308.545 45.36 308.545 46.44V53.56C308.545 54.64 309.032 55.18 310.005 55.18ZM319.808 57H317.548V45.02H314.868V43H322.488V45.02H319.808V57ZM331.967 57H329.567L327.347 50.6L326.147 52.58V57H323.867V43H326.147V49.16L329.607 43H331.927L328.887 48.2L331.967 57ZM335.581 57H333.301V43H336.921C339.374 43 340.601 44.2133 340.601 46.64V47.68C340.601 50.1067 339.374 51.32 336.921 51.32H335.581V57ZM335.581 45.02V49.32H336.921C337.414 49.32 337.767 49.2 337.981 48.96C338.207 48.7067 338.321 48.3 338.321 47.74V46.56C338.321 46 338.207 45.6067 337.981 45.38C337.767 45.14 337.414 45.02 336.921 45.02H335.581ZM345.749 57H342.109V43H344.389V48.4H345.749C348.203 48.4 349.429 49.6333 349.429 52.1V53.3C349.429 55.7667 348.203 57 345.749 57ZM353.229 57H350.949V43H353.229V57ZM344.389 50.42V54.98H345.749C346.229 54.98 346.583 54.86 346.809 54.62C347.036 54.3667 347.149 53.9667 347.149 53.42V51.98C347.149 51.4333 347.036 51.04 346.809 50.8C346.583 50.5467 346.229 50.42 345.749 50.42H344.389ZM359.554 57H357.294V45.02H354.614V43H362.234V45.02H359.554V57ZM367.253 57H363.613V43H365.893V48.4H367.253C369.707 48.4 370.933 49.6333 370.933 52.1V53.3C370.933 55.7667 369.707 57 367.253 57ZM365.893 50.42V54.98H367.253C367.733 54.98 368.087 54.86 368.313 54.62C368.54 54.3667 368.653 53.9667 368.653 53.42V51.98C368.653 51.4333 368.54 51.04 368.313 50.8C368.087 50.5467 367.733 50.42 367.253 50.42H365.893Z" fill="white"/>
<g filter="url(#filter1_ddddd_201_30446)">
<ellipse cx="379" cy="202.5" rx="22" ry="5.5" fill="#DDBA63"/>
<path d="M378.998 149.749C373.53 149.756 368.288 151.931 364.421 155.797C360.555 159.664 358.38 164.906 358.373 170.374C358.373 188.022 377.123 201.352 377.921 201.911C378.237 202.131 378.613 202.249 378.998 202.249C379.383 202.249 379.759 202.131 380.075 201.911C380.873 201.352 399.623 188.022 399.623 170.374C399.617 164.906 397.441 159.664 393.575 155.797C389.708 151.931 384.466 149.756 378.998 149.749V149.749ZM378.999 162.875C380.483 162.875 381.933 163.315 383.166 164.139C384.4 164.963 385.361 166.134 385.929 167.505C386.496 168.875 386.645 170.383 386.355 171.838C386.066 173.293 385.352 174.629 384.303 175.678C383.254 176.727 381.917 177.442 380.463 177.731C379.008 178.02 377.5 177.872 376.129 177.304C374.759 176.736 373.588 175.775 372.763 174.542C371.939 173.308 371.499 171.858 371.499 170.375C371.499 169.39 371.693 168.415 372.07 167.505C372.447 166.595 373 165.768 373.696 165.072C374.393 164.375 375.219 163.823 376.129 163.446C377.039 163.069 378.014 162.875 378.999 162.875V162.875Z" fill="#FFF9DA"/>
<ellipse cx="379" cy="170.5" rx="13" ry="12.5" fill="#C74403"/>
<path d="M382.129 178H375.769V176.48C375.769 175.44 375.929 174.553 376.249 173.82C376.569 173.087 377.142 172.287 377.969 171.42C378.822 170.5 379.389 169.773 379.669 169.24C379.976 168.653 380.129 168.04 380.129 167.4C380.129 166.813 380.036 166.4 379.849 166.16C379.662 165.92 379.376 165.8 378.989 165.8C378.229 165.8 377.849 166.26 377.849 167.18V168.68H375.769V167.32C375.769 166.187 376.049 165.32 376.609 164.72C377.169 164.107 377.982 163.8 379.049 163.8C380.116 163.8 380.929 164.107 381.489 164.72C382.049 165.32 382.329 166.187 382.329 167.32C382.329 168.187 382.122 169.013 381.709 169.8C381.296 170.613 380.596 171.54 379.609 172.58C378.969 173.26 378.529 173.82 378.289 174.26C378.062 174.7 377.949 175.18 377.949 175.7V176H382.129V178Z" fill="white"/>
</g>
<path d="M437.74 162.56L439.54 155H441.72L438.7 166.62C438.46 167.54 438.08 168.2 437.56 168.6C437.04 169 436.307 169.2 435.36 169.2C434.813 169.2 434.353 169.127 433.98 168.98V167.02C434.3 167.127 434.647 167.18 435.02 167.18C435.447 167.18 435.767 167.12 435.98 167C436.193 166.867 436.353 166.64 436.46 166.32L436.56 165.96L433.4 155H435.76L437.74 162.56ZM447.984 160.08V155H450.264V169H447.984V163.16C447.398 163.76 446.604 164.06 445.604 164.06C443.631 164.06 442.644 162.933 442.644 160.68V155H444.904V160.38C444.904 161.46 445.371 162 446.304 162C446.838 162 447.251 161.84 447.544 161.52C447.838 161.187 447.984 160.707 447.984 160.08ZM460.082 169H457.762L457.302 166.28H454.222L453.742 169H451.622L454.302 155H457.382L460.082 169ZM455.762 157.36L454.562 164.3H456.962L455.762 157.36ZM467.464 168.24C466.838 168.88 465.944 169.2 464.784 169.2C463.624 169.2 462.724 168.88 462.084 168.24C461.458 167.587 461.144 166.673 461.144 165.5V158.5C461.144 157.327 461.458 156.42 462.084 155.78C462.724 155.127 463.624 154.8 464.784 154.8C465.944 154.8 466.838 155.127 467.464 155.78C468.091 156.42 468.404 157.327 468.404 158.5V159.74H466.264V158.4C466.264 157.32 465.791 156.78 464.844 156.78C463.898 156.78 463.424 157.32 463.424 158.4V165.6C463.424 166.68 463.898 167.22 464.844 167.22C465.791 167.22 466.264 166.68 466.264 165.6V163.84H468.404V165.5C468.404 166.673 468.091 167.587 467.464 168.24ZM474.336 169H472.076V157.02H469.396V155H477.016V157.02H474.336V169ZM482.315 169H478.395V155H482.115C483.368 155 484.288 155.273 484.875 155.82C485.475 156.367 485.775 157.207 485.775 158.34V158.76C485.775 160.187 485.221 161.113 484.115 161.54V161.6C485.381 161.987 486.015 163.02 486.015 164.7V165.42C486.015 167.807 484.781 169 482.315 169ZM480.675 157.02V160.74H481.815C482.388 160.74 482.808 160.613 483.075 160.36C483.355 160.093 483.495 159.68 483.495 159.12V158.6C483.495 158.04 483.381 157.64 483.155 157.4C482.928 157.147 482.555 157.02 482.035 157.02H480.675ZM480.675 162.76V166.98H482.315C482.808 166.98 483.168 166.86 483.395 166.62C483.621 166.367 483.735 165.96 483.735 165.4V164.62C483.735 163.927 483.601 163.447 483.335 163.18C483.068 162.9 482.601 162.76 481.935 162.76H480.675ZM491.295 162.56L493.095 155H495.275L492.255 166.62C492.015 167.54 491.635 168.2 491.115 168.6C490.595 169 489.861 169.2 488.915 169.2C488.368 169.2 487.908 169.127 487.535 168.98V167.02C487.855 167.127 488.201 167.18 488.575 167.18C489.001 167.18 489.321 167.12 489.535 167C489.748 166.867 489.908 166.64 490.015 166.32L490.115 165.96L486.955 155H489.315L491.295 162.56ZM500.399 153.86C499.612 153.86 498.992 153.64 498.539 153.2C498.086 152.747 497.846 152.133 497.819 151.36H499.199C499.266 152.027 499.666 152.36 500.399 152.36C501.132 152.36 501.552 152.027 501.659 151.36H502.999C502.972 152.133 502.732 152.747 502.279 153.2C501.826 153.64 501.199 153.86 500.399 153.86ZM498.579 164.36L501.959 155H504.279V169H502.219V159.6L498.859 169H496.539V155H498.579V164.36ZM513.623 169H509.703V155H513.423C514.676 155 515.596 155.273 516.183 155.82C516.783 156.367 517.083 157.207 517.083 158.34V158.76C517.083 160.187 516.53 161.113 515.423 161.54V161.6C516.69 161.987 517.323 163.02 517.323 164.7V165.42C517.323 167.807 516.09 169 513.623 169ZM511.983 157.02V160.74H513.123C513.696 160.74 514.116 160.613 514.383 160.36C514.663 160.093 514.803 159.68 514.803 159.12V158.6C514.803 158.04 514.69 157.64 514.463 157.4C514.236 157.147 513.863 157.02 513.343 157.02H511.983ZM511.983 162.76V166.98H513.623C514.116 166.98 514.476 166.86 514.703 166.62C514.93 166.367 515.043 165.96 515.043 165.4V164.62C515.043 163.927 514.91 163.447 514.643 163.18C514.376 162.9 513.91 162.76 513.243 162.76H511.983ZM524.62 169H522.34V155H525.96C528.413 155 529.64 156.213 529.64 158.64V159.68C529.64 162.107 528.413 163.32 525.96 163.32H524.62V169ZM524.62 157.02V161.32H525.96C526.453 161.32 526.807 161.2 527.02 160.96C527.247 160.707 527.36 160.3 527.36 159.74V158.56C527.36 158 527.247 157.607 527.02 157.38C526.807 157.14 526.453 157.02 525.96 157.02H524.62ZM530.968 165.44V158.56C530.968 157.36 531.288 156.433 531.928 155.78C532.582 155.127 533.508 154.8 534.708 154.8C535.922 154.8 536.848 155.127 537.488 155.78C538.142 156.433 538.468 157.36 538.468 158.56V165.44C538.468 166.64 538.142 167.567 537.488 168.22C536.835 168.873 535.908 169.2 534.708 169.2C533.508 169.2 532.582 168.873 531.928 168.22C531.288 167.567 530.968 166.64 530.968 165.44ZM534.708 167.18C535.695 167.18 536.188 166.64 536.188 165.56V158.44C536.188 157.36 535.695 156.82 534.708 156.82C533.735 156.82 533.248 157.36 533.248 158.44V165.56C533.248 166.64 533.735 167.18 534.708 167.18ZM543.49 169.2C542.29 169.2 541.376 168.887 540.75 168.26C540.123 167.62 539.81 166.7 539.81 165.5V164.56H541.95V165.54C541.95 166.633 542.443 167.18 543.43 167.18C543.95 167.18 544.323 167.047 544.55 166.78C544.79 166.5 544.91 166.047 544.91 165.42V164.66C544.91 163.967 544.77 163.473 544.49 163.18C544.223 162.873 543.776 162.72 543.15 162.72H542.29V160.7H543.21C544.303 160.7 544.85 160.133 544.85 159V158.38C544.85 157.34 544.376 156.82 543.43 156.82C542.496 156.82 542.03 157.32 542.03 158.32V159.02H539.89V158.5C539.89 157.3 540.196 156.387 540.81 155.76C541.423 155.12 542.323 154.8 543.51 154.8C544.683 154.8 545.576 155.107 546.19 155.72C546.803 156.333 547.11 157.22 547.11 158.38V158.76C547.11 160.213 546.516 161.153 545.33 161.58V161.6C546.556 162.027 547.17 163.053 547.17 164.68V165.48C547.17 167.96 545.943 169.2 543.49 169.2ZM552.464 169H548.824V155H551.104V160.4H552.464C554.918 160.4 556.144 161.633 556.144 164.1V165.3C556.144 167.767 554.918 169 552.464 169ZM559.944 169H557.664V155H559.944V169ZM551.104 162.42V166.98H552.464C552.944 166.98 553.298 166.86 553.524 166.62C553.751 166.367 553.864 165.967 553.864 165.42V163.98C553.864 163.433 553.751 163.04 553.524 162.8C553.298 162.547 552.944 162.42 552.464 162.42H551.104ZM564.229 169H561.949V155H568.229V157.02H564.229V169ZM571.905 169H569.625V155H573.245C575.698 155 576.925 156.213 576.925 158.64V159.68C576.925 162.107 575.698 163.32 573.245 163.32H571.905V169ZM571.905 157.02V161.32H573.245C573.738 161.32 574.092 161.2 574.305 160.96C574.532 160.707 574.645 160.3 574.645 159.74V158.56C574.645 158 574.532 157.607 574.305 157.38C574.092 157.14 573.738 157.02 573.245 157.02H571.905ZM582.074 169H578.434V155H580.714V160.4H582.074C584.527 160.4 585.754 161.633 585.754 164.1V165.3C585.754 167.767 584.527 169 582.074 169ZM589.554 169H587.274V155H589.554V169ZM580.714 162.42V166.98H582.074C582.554 166.98 582.907 166.86 583.134 166.62C583.36 166.367 583.474 165.967 583.474 165.42V163.98C583.474 163.433 583.36 163.04 583.134 162.8C582.907 162.547 582.554 162.42 582.074 162.42H580.714ZM603.119 169H591.559V155H593.839V166.98H596.219V155H598.479V166.98H600.839V155H603.119V169ZM611.833 169H605.113V155H611.833V157.02H607.393V160.78H610.953V162.8H607.393V166.98H611.833V169ZM619.034 169H616.754V155H624.334V169H622.054V157.02H619.034V169ZM628.604 169H626.324V155H629.944C632.398 155 633.624 156.213 633.624 158.64V159.68C633.624 162.107 632.398 163.32 629.944 163.32H628.604V169ZM628.604 157.02V161.32H629.944C630.438 161.32 630.791 161.2 631.004 160.96C631.231 160.707 631.344 160.3 631.344 159.74V158.56C631.344 158 631.231 157.607 631.004 157.38C630.791 157.14 630.438 157.02 629.944 157.02H628.604ZM637.173 164.36L640.553 155H642.873V169H640.813V159.6L637.453 169H635.133V155H637.173V164.36ZM648.099 169.2C646.899 169.2 645.986 168.887 645.359 168.26C644.732 167.62 644.419 166.7 644.419 165.5V164.56H646.559V165.54C646.559 166.633 647.052 167.18 648.039 167.18C648.559 167.18 648.932 167.047 649.159 166.78C649.399 166.5 649.519 166.047 649.519 165.42V164.66C649.519 163.967 649.379 163.473 649.099 163.18C648.832 162.873 648.386 162.72 647.759 162.72H646.899V160.7H647.819C648.912 160.7 649.459 160.133 649.459 159V158.38C649.459 157.34 648.986 156.82 648.039 156.82C647.106 156.82 646.639 157.32 646.639 158.32V159.02H644.499V158.5C644.499 157.3 644.806 156.387 645.419 155.76C646.032 155.12 646.932 154.8 648.119 154.8C649.292 154.8 650.186 155.107 650.799 155.72C651.412 156.333 651.719 157.22 651.719 158.38V158.76C651.719 160.213 651.126 161.153 649.939 161.58V161.6C651.166 162.027 651.779 163.053 651.779 164.68V165.48C651.779 167.96 650.552 169.2 648.099 169.2ZM653.254 165.44V158.56C653.254 157.36 653.574 156.433 654.214 155.78C654.867 155.127 655.794 154.8 656.994 154.8C658.207 154.8 659.134 155.127 659.774 155.78C660.427 156.433 660.754 157.36 660.754 158.56V165.44C660.754 166.64 660.427 167.567 659.774 168.22C659.12 168.873 658.194 169.2 656.994 169.2C655.794 169.2 654.867 168.873 654.214 168.22C653.574 167.567 653.254 166.64 653.254 165.44ZM656.994 167.18C657.98 167.18 658.474 166.64 658.474 165.56V158.44C658.474 157.36 657.98 156.82 656.994 156.82C656.02 156.82 655.534 157.36 655.534 158.44V165.56C655.534 166.64 656.02 167.18 656.994 167.18ZM666.475 169H662.555V155H666.275C667.528 155 668.448 155.273 669.035 155.82C669.635 156.367 669.935 157.207 669.935 158.34V158.76C669.935 160.187 669.381 161.113 668.275 161.54V161.6C669.541 161.987 670.175 163.02 670.175 164.7V165.42C670.175 167.807 668.941 169 666.475 169ZM664.835 157.02V160.74H665.975C666.548 160.74 666.968 160.613 667.235 160.36C667.515 160.093 667.655 159.68 667.655 159.12V158.6C667.655 158.04 667.541 157.64 667.315 157.4C667.088 157.147 666.715 157.02 666.195 157.02H664.835ZM664.835 162.76V166.98H666.475C666.968 166.98 667.328 166.86 667.555 166.62C667.781 166.367 667.895 165.96 667.895 165.4V164.62C667.895 163.927 667.761 163.447 667.495 163.18C667.228 162.9 666.761 162.76 666.095 162.76H664.835ZM442.46 185V196.98H443.66V200.88H441.38V199H435.64V200.88H433.38V196.98H434.68C434.973 196.687 435.14 196.14 435.18 195.34L435.6 185H442.46ZM436.84 196.98H440.18V187.02H437.74L437.46 195.22C437.433 195.94 437.227 196.527 436.84 196.98ZM445.056 199.02C444.776 199.02 444.556 198.993 444.396 198.94V196.96C444.556 197 444.709 197.02 444.856 197.02C445.349 197.02 445.689 196.9 445.876 196.66C446.076 196.407 446.189 195.973 446.216 195.36L446.636 185H453.476V199H451.216V187.02H448.776L448.476 195.42C448.436 196.673 448.149 197.587 447.616 198.16C447.082 198.733 446.229 199.02 445.056 199.02ZM462.684 185V199H460.404V193.08H459.364C458.724 193.08 458.271 193.22 458.004 193.5C457.751 193.78 457.624 194.267 457.624 194.96V197.16C457.624 197.947 457.551 198.56 457.404 199H455.104C455.278 198.573 455.364 197.967 455.364 197.18V195.1C455.364 194.18 455.498 193.473 455.764 192.98C456.031 192.473 456.464 192.133 457.064 191.96V191.9C455.944 191.487 455.384 190.533 455.384 189.04V188.36C455.384 187.213 455.678 186.367 456.264 185.82C456.864 185.273 457.791 185 459.044 185H462.684ZM459.324 191.06H460.404V187.02H459.084C458.591 187.02 458.231 187.147 458.004 187.4C457.778 187.653 457.664 188.053 457.664 188.6V189.4C457.664 189.987 457.798 190.413 458.064 190.68C458.331 190.933 458.751 191.06 459.324 191.06ZM470.382 199H468.102V185H471.722C474.175 185 475.402 186.213 475.402 188.64V189.68C475.402 192.107 474.175 193.32 471.722 193.32H470.382V199ZM470.382 187.02V191.32H471.722C472.215 191.32 472.568 191.2 472.782 190.96C473.008 190.707 473.122 190.3 473.122 189.74V188.56C473.122 188 473.008 187.607 472.782 187.38C472.568 187.14 472.215 187.02 471.722 187.02H470.382ZM483.63 199H476.91V185H483.63V187.02H479.19V190.78H482.75V192.8H479.19V196.98H483.63V199ZM492.992 199H490.672L490.212 196.28H487.132L486.652 199H484.532L487.212 185H490.292L492.992 199ZM488.672 187.36L487.472 194.3H489.872L488.672 187.36ZM494.45 199.02C494.17 199.02 493.95 198.993 493.79 198.94V196.96C493.95 197 494.103 197.02 494.25 197.02C494.743 197.02 495.083 196.9 495.27 196.66C495.47 196.407 495.583 195.973 495.61 195.36L496.03 185H502.87V199H500.61V187.02H498.17L497.87 195.42C497.83 196.673 497.543 197.587 497.01 198.16C496.477 198.733 495.623 199.02 494.45 199.02ZM506.919 194.36L510.299 185H512.619V199H510.559V189.6L507.199 199H504.879V185H506.919V194.36ZM517.845 199.2C516.645 199.2 515.732 198.887 515.105 198.26C514.478 197.62 514.165 196.7 514.165 195.5V194.56H516.305V195.54C516.305 196.633 516.798 197.18 517.785 197.18C518.305 197.18 518.678 197.047 518.905 196.78C519.145 196.5 519.265 196.047 519.265 195.42V194.66C519.265 193.967 519.125 193.473 518.845 193.18C518.578 192.873 518.132 192.72 517.505 192.72H516.645V190.7H517.565C518.658 190.7 519.205 190.133 519.205 189V188.38C519.205 187.34 518.732 186.82 517.785 186.82C516.852 186.82 516.385 187.32 516.385 188.32V189.02H514.245V188.5C514.245 187.3 514.552 186.387 515.165 185.76C515.778 185.12 516.678 184.8 517.865 184.8C519.038 184.8 519.932 185.107 520.545 185.72C521.158 186.333 521.465 187.22 521.465 188.38V188.76C521.465 190.213 520.872 191.153 519.685 191.58V191.6C520.912 192.027 521.525 193.053 521.525 194.68V195.48C521.525 197.96 520.298 199.2 517.845 199.2ZM530.843 199H528.523L528.063 196.28H524.983L524.503 199H522.383L525.063 185H528.143L530.843 199ZM526.523 187.36L525.323 194.3H527.723L526.523 187.36ZM541.084 200.88H538.804V199H532.184V185H534.464V196.98H537.484V185H539.764V196.98H541.084V200.88ZM544.478 194.36L547.858 185H550.178V199H548.118V189.6L544.758 199H542.438V185H544.478V194.36ZM554.224 194.36L557.604 185H559.924V199H557.864V189.6L554.504 199H552.184V185H554.224V194.36ZM571.488 198.24C570.861 198.88 569.968 199.2 568.808 199.2C567.648 199.2 566.748 198.88 566.108 198.24C565.481 197.587 565.168 196.673 565.168 195.5V188.5C565.168 187.327 565.481 186.42 566.108 185.78C566.748 185.127 567.648 184.8 568.808 184.8C569.968 184.8 570.861 185.127 571.488 185.78C572.114 186.42 572.428 187.327 572.428 188.5V189.74H570.288V188.4C570.288 187.32 569.814 186.78 568.868 186.78C567.921 186.78 567.448 187.32 567.448 188.4V195.6C567.448 196.68 567.921 197.22 568.868 197.22C569.814 197.22 570.288 196.68 570.288 195.6V193.84H572.428V195.5C572.428 196.673 572.114 197.587 571.488 198.24ZM577.959 199H574.039V185H577.759C579.012 185 579.932 185.273 580.519 185.82C581.119 186.367 581.419 187.207 581.419 188.34V188.76C581.419 190.187 580.866 191.113 579.759 191.54V191.6C581.026 191.987 581.659 193.02 581.659 194.7V195.42C581.659 197.807 580.426 199 577.959 199ZM576.319 187.02V190.74H577.459C578.032 190.74 578.452 190.613 578.719 190.36C578.999 190.093 579.139 189.68 579.139 189.12V188.6C579.139 188.04 579.026 187.64 578.799 187.4C578.572 187.147 578.199 187.02 577.679 187.02H576.319ZM576.319 192.76V196.98H577.959C578.452 196.98 578.812 196.86 579.039 196.62C579.266 196.367 579.379 195.96 579.379 195.4V194.62C579.379 193.927 579.246 193.447 578.979 193.18C578.712 192.9 578.246 192.76 577.579 192.76H576.319ZM583.078 195.44V188.56C583.078 187.36 583.398 186.433 584.038 185.78C584.691 185.127 585.618 184.8 586.818 184.8C588.031 184.8 588.958 185.127 589.598 185.78C590.251 186.433 590.578 187.36 590.578 188.56V195.44C590.578 196.64 590.251 197.567 589.598 198.22C588.944 198.873 588.018 199.2 586.818 199.2C585.618 199.2 584.691 198.873 584.038 198.22C583.398 197.567 583.078 196.64 583.078 195.44ZM586.818 197.18C587.804 197.18 588.298 196.64 588.298 195.56V188.44C588.298 187.36 587.804 186.82 586.818 186.82C585.844 186.82 585.358 187.36 585.358 188.44V195.56C585.358 196.64 585.844 197.18 586.818 197.18ZM594.419 194.36L597.799 185H600.119V199H598.059V189.6L594.699 199H592.379V185H594.419V194.36ZM603.625 199H601.465L604.425 191.82L601.585 185H604.025L605.825 189.7L607.685 185H609.885L607.045 191.82L610.005 199H607.585L605.625 193.94L603.625 199ZM616.802 194.36L620.182 185H622.502V199H620.442V189.6L617.082 199H614.762V185H616.802V194.36ZM632.968 185V196.98H634.168V200.88H631.888V199H626.148V200.88H623.888V196.98H625.188C625.481 196.687 625.648 196.14 625.688 195.34L626.108 185H632.968ZM627.348 196.98H630.688V187.02H628.248L627.968 195.22C627.941 195.94 627.734 196.527 627.348 196.98ZM642.243 199H635.523V185H642.243V187.02H637.803V190.78H641.363V192.8H637.803V196.98H642.243V199ZM647.606 183.86C646.819 183.86 646.199 183.64 645.746 183.2C645.293 182.747 645.053 182.133 645.026 181.36H646.406C646.473 182.027 646.873 182.36 647.606 182.36C648.339 182.36 648.759 182.027 648.866 181.36H650.206C650.179 182.133 649.939 182.747 649.486 183.2C649.033 183.64 648.406 183.86 647.606 183.86ZM645.786 194.36L649.166 185H651.486V199H649.426V189.6L646.066 199H643.746V185H645.786V194.36Z" fill="white"/>
<g filter="url(#filter2_ddddd_201_30446)">
<ellipse cx="91" cy="344.5" rx="22" ry="5.5" fill="#DDBA63"/>
<path d="M90.998 291.749C85.5299 291.756 80.2877 293.931 76.4211 297.797C72.5546 301.664 70.3795 306.906 70.373 312.374C70.373 330.022 89.123 343.352 89.9214 343.911C90.2371 344.131 90.6129 344.249 90.998 344.249C91.3832 344.249 91.759 344.131 92.0747 343.911C92.873 343.352 111.623 330.022 111.623 312.374C111.617 306.906 109.441 301.664 105.575 297.797C101.708 293.931 96.4661 291.756 90.998 291.749V291.749ZM90.9994 304.875C92.4828 304.875 93.9328 305.315 95.1662 306.139C96.3996 306.963 97.3609 308.134 97.9285 309.505C98.4962 310.875 98.6447 312.383 98.3553 313.838C98.0659 315.293 97.3516 316.629 96.3027 317.678C95.2538 318.727 93.9175 319.442 92.4626 319.731C91.0077 320.02 89.4997 319.872 88.1293 319.304C86.7588 318.736 85.5875 317.775 84.7634 316.542C83.9393 315.308 83.4994 313.858 83.4994 312.375C83.4994 311.39 83.6934 310.415 84.0703 309.505C84.4472 308.595 84.9996 307.768 85.6961 307.072C86.3925 306.375 87.2193 305.823 88.1293 305.446C89.0392 305.069 90.0145 304.875 90.9994 304.875V304.875Z" fill="#FFF9DA"/>
<ellipse cx="91" cy="312.5" rx="13" ry="12.5" fill="#C74403"/>
<path d="M87.6598 316.72V315.58H89.7398V316.82C89.7398 317.74 90.1198 318.2 90.8798 318.2C91.2664 318.2 91.5531 318.08 91.7398 317.84C91.9264 317.6 92.0198 317.193 92.0198 316.62V315.48C92.0198 314.84 91.9064 314.387 91.6798 314.12C91.4531 313.84 91.0864 313.7 90.5798 313.7H89.8398V311.7H90.6398C91.0931 311.7 91.4264 311.587 91.6398 311.36C91.8531 311.12 91.9598 310.74 91.9598 310.22V309.2C91.9598 308.267 91.5931 307.8 90.8598 307.8C90.1531 307.8 89.7998 308.233 89.7998 309.1V310.02H87.7198V309.28C87.7198 308.16 87.9931 307.3 88.5398 306.7C89.0998 306.1 89.8998 305.8 90.9398 305.8C91.9931 305.8 92.7931 306.1 93.3398 306.7C93.8864 307.287 94.1598 308.14 94.1598 309.26V309.76C94.1598 311.253 93.6398 312.193 92.5998 312.58V312.62C93.6798 313.02 94.2198 313.98 94.2198 315.5V316.74C94.2198 317.86 93.9398 318.72 93.3798 319.32C92.8331 319.907 92.0198 320.2 90.9398 320.2C89.8598 320.2 89.0398 319.9 88.4798 319.3C87.9331 318.7 87.6598 317.84 87.6598 316.72Z" fill="white"/>
</g>
<path d="M148.28 311H146V297H153.58V311H151.3V299.02H148.28V311ZM155.39 307.44V300.56C155.39 299.36 155.71 298.433 156.35 297.78C157.004 297.127 157.93 296.8 159.13 296.8C160.344 296.8 161.27 297.127 161.91 297.78C162.564 298.433 162.89 299.36 162.89 300.56V307.44C162.89 308.64 162.564 309.567 161.91 310.22C161.257 310.873 160.33 311.2 159.13 311.2C157.93 311.2 157.004 310.873 156.35 310.22C155.71 309.567 155.39 308.64 155.39 307.44ZM159.13 309.18C160.117 309.18 160.61 308.64 160.61 307.56V300.44C160.61 299.36 160.117 298.82 159.13 298.82C158.157 298.82 157.67 299.36 157.67 300.44V307.56C157.67 308.64 158.157 309.18 159.13 309.18ZM167.911 311.2C166.711 311.2 165.798 310.887 165.171 310.26C164.545 309.62 164.231 308.7 164.231 307.5V306.56H166.371V307.54C166.371 308.633 166.865 309.18 167.851 309.18C168.371 309.18 168.745 309.047 168.971 308.78C169.211 308.5 169.331 308.047 169.331 307.42V306.66C169.331 305.967 169.191 305.473 168.911 305.18C168.645 304.873 168.198 304.72 167.571 304.72H166.711V302.7H167.631C168.725 302.7 169.271 302.133 169.271 301V300.38C169.271 299.34 168.798 298.82 167.851 298.82C166.918 298.82 166.451 299.32 166.451 300.32V301.02H164.311V300.5C164.311 299.3 164.618 298.387 165.231 297.76C165.845 297.12 166.745 296.8 167.931 296.8C169.105 296.8 169.998 297.107 170.611 297.72C171.225 298.333 171.531 299.22 171.531 300.38V300.76C171.531 302.213 170.938 303.153 169.751 303.58V303.6C170.978 304.027 171.591 305.053 171.591 306.68V307.48C171.591 309.96 170.365 311.2 167.911 311.2ZM173.066 307.44V300.56C173.066 299.36 173.386 298.433 174.026 297.78C174.679 297.127 175.606 296.8 176.806 296.8C178.019 296.8 178.946 297.127 179.586 297.78C180.239 298.433 180.566 299.36 180.566 300.56V307.44C180.566 308.64 180.239 309.567 179.586 310.22C178.933 310.873 178.006 311.2 176.806 311.2C175.606 311.2 174.679 310.873 174.026 310.22C173.386 309.567 173.066 308.64 173.066 307.44ZM176.806 309.18C177.793 309.18 178.286 308.64 178.286 307.56V300.44C178.286 299.36 177.793 298.82 176.806 298.82C175.833 298.82 175.346 299.36 175.346 300.44V307.56C175.346 308.64 175.833 309.18 176.806 309.18ZM186.287 311H182.367V297H186.087C187.341 297 188.261 297.273 188.847 297.82C189.447 298.367 189.747 299.207 189.747 300.34V300.76C189.747 302.187 189.194 303.113 188.087 303.54V303.6C189.354 303.987 189.987 305.02 189.987 306.7V307.42C189.987 309.807 188.754 311 186.287 311ZM184.647 299.02V302.74H185.787C186.361 302.74 186.781 302.613 187.047 302.36C187.327 302.093 187.467 301.68 187.467 301.12V300.6C187.467 300.04 187.354 299.64 187.127 299.4C186.901 299.147 186.527 299.02 186.007 299.02H184.647ZM184.647 304.76V308.98H186.287C186.781 308.98 187.141 308.86 187.367 308.62C187.594 308.367 187.707 307.96 187.707 307.4V306.62C187.707 305.927 187.574 305.447 187.307 305.18C187.041 304.9 186.574 304.76 185.907 304.76H184.647ZM193.626 306.36L197.006 297H199.326V311H197.266V301.6L193.906 311H191.586V297H193.626V306.36ZM213.21 297V308.98H214.41V312.88H212.13V311H206.39V312.88H204.13V308.98H205.43C205.723 308.687 205.89 308.14 205.93 307.34L206.35 297H213.21ZM207.59 308.98H210.93V299.02H208.49L208.21 307.22C208.183 307.94 207.977 308.527 207.59 308.98ZM218.046 311H215.766V297H219.386C221.839 297 223.066 298.213 223.066 300.64V301.68C223.066 304.107 221.839 305.32 219.386 305.32H218.046V311ZM218.046 299.02V303.32H219.386C219.879 303.32 220.232 303.2 220.446 302.96C220.672 302.707 220.786 302.3 220.786 301.74V300.56C220.786 300 220.672 299.607 220.446 299.38C220.232 299.14 219.879 299.02 219.386 299.02H218.046ZM228.06 304.56L229.86 297H232.04L229.02 308.62C228.78 309.54 228.4 310.2 227.88 310.6C227.36 311 226.627 311.2 225.68 311.2C225.134 311.2 224.674 311.127 224.3 310.98V309.02C224.62 309.127 224.967 309.18 225.34 309.18C225.767 309.18 226.087 309.12 226.3 309C226.514 308.867 226.674 308.64 226.78 308.32L226.88 307.96L223.72 297H226.08L228.06 304.56ZM236.329 311.2C235.129 311.2 234.216 310.887 233.589 310.26C232.963 309.62 232.649 308.7 232.649 307.5V306.56H234.789V307.54C234.789 308.633 235.283 309.18 236.269 309.18C236.789 309.18 237.163 309.047 237.389 308.78C237.629 308.5 237.749 308.047 237.749 307.42V306.66C237.749 305.967 237.609 305.473 237.329 305.18C237.063 304.873 236.616 304.72 235.989 304.72H235.129V302.7H236.049C237.143 302.7 237.689 302.133 237.689 301V300.38C237.689 299.34 237.216 298.82 236.269 298.82C235.336 298.82 234.869 299.32 234.869 300.32V301.02H232.729V300.5C232.729 299.3 233.036 298.387 233.649 297.76C234.263 297.12 235.163 296.8 236.349 296.8C237.523 296.8 238.416 297.107 239.029 297.72C239.643 298.333 239.949 299.22 239.949 300.38V300.76C239.949 302.213 239.356 303.153 238.169 303.58V303.6C239.396 304.027 240.009 305.053 240.009 306.68V307.48C240.009 309.96 238.783 311.2 236.329 311.2ZM248.384 311H241.664V297H248.384V299.02H243.944V302.78H247.504V304.8H243.944V308.98H248.384V311ZM253.747 295.86C252.96 295.86 252.34 295.64 251.887 295.2C251.433 294.747 251.193 294.133 251.167 293.36H252.547C252.613 294.027 253.013 294.36 253.747 294.36C254.48 294.36 254.9 294.027 255.007 293.36H256.347C256.32 294.133 256.08 294.747 255.627 295.2C255.173 295.64 254.547 295.86 253.747 295.86ZM251.927 306.36L255.307 297H257.627V311H255.567V301.6L252.207 311H249.887V297H251.927V306.36ZM265.331 311H263.051V297H270.631V311H268.351V299.02H265.331V311ZM272.441 307.44V300.56C272.441 299.36 272.761 298.433 273.401 297.78C274.054 297.127 274.981 296.8 276.181 296.8C277.394 296.8 278.321 297.127 278.961 297.78C279.614 298.433 279.941 299.36 279.941 300.56V307.44C279.941 308.64 279.614 309.567 278.961 310.22C278.308 310.873 277.381 311.2 276.181 311.2C274.981 311.2 274.054 310.873 273.401 310.22C272.761 309.567 272.441 308.64 272.441 307.44ZM276.181 309.18C277.168 309.18 277.661 308.64 277.661 307.56V300.44C277.661 299.36 277.168 298.82 276.181 298.82C275.208 298.82 274.721 299.36 274.721 300.44V307.56C274.721 308.64 275.208 309.18 276.181 309.18ZM290.105 297V308.98H291.305V312.88H289.025V311H283.285V312.88H281.025V308.98H282.325C282.618 308.687 282.785 308.14 282.825 307.34L283.245 297H290.105ZM284.485 308.98H287.825V299.02H285.385L285.105 307.22C285.078 307.94 284.871 308.527 284.485 308.98ZM301.12 297V308.98H302.32V312.88H300.04V311H294.3V312.88H292.04V308.98H293.34C293.633 308.687 293.8 308.14 293.84 307.34L294.26 297H301.12ZM295.5 308.98H298.84V299.02H296.4L296.12 307.22C296.093 307.94 295.887 308.527 295.5 308.98ZM310.396 311H303.676V297H310.396V299.02H305.956V302.78H309.516V304.8H305.956V308.98H310.396V311ZM314.178 311H311.898V297H315.518C317.972 297 319.198 298.213 319.198 300.64V301.68C319.198 304.107 317.972 305.32 315.518 305.32H314.178V311ZM314.178 299.02V303.32H315.518C316.012 303.32 316.365 303.2 316.578 302.96C316.805 302.707 316.918 302.3 316.918 301.74V300.56C316.918 300 316.805 299.607 316.578 299.38C316.365 299.14 316.012 299.02 315.518 299.02H314.178ZM332.861 311H330.581L328.421 304.2L327.321 306.1V311H325.041V306.1L323.941 304.2L321.781 311H319.481L322.441 302.2L319.521 297H321.881L325.041 303.06V297H327.321V303.06L330.501 297H332.821L329.921 302.22L332.861 311ZM342.023 311H339.703L339.243 308.28H336.163L335.683 311H333.563L336.243 297H339.323L342.023 311ZM337.703 299.36L336.503 306.3H338.903L337.703 299.36ZM346.57 311H344.31V299.02H341.63V297H349.25V299.02H346.57V311ZM354.269 311H350.629V297H352.909V302.4H354.269C356.722 302.4 357.949 303.633 357.949 306.1V307.3C357.949 309.767 356.722 311 354.269 311ZM352.909 304.42V308.98H354.269C354.749 308.98 355.102 308.86 355.329 308.62C355.556 308.367 355.669 307.967 355.669 307.42V305.98C355.669 305.433 355.556 305.04 355.329 304.8C355.102 304.547 354.749 304.42 354.269 304.42H352.909ZM150.32 341H148.06V329.02H145.38V327H153V329.02H150.32V341ZM158.299 341H154.379V327H158.099C159.352 327 160.272 327.273 160.859 327.82C161.459 328.367 161.759 329.207 161.759 330.34V330.76C161.759 332.187 161.206 333.113 160.099 333.54V333.6C161.366 333.987 161.999 335.02 161.999 336.7V337.42C161.999 339.807 160.766 341 158.299 341ZM156.659 329.02V332.74H157.799C158.372 332.74 158.792 332.613 159.059 332.36C159.339 332.093 159.479 331.68 159.479 331.12V330.6C159.479 330.04 159.366 329.64 159.139 329.4C158.912 329.147 158.539 329.02 158.019 329.02H156.659ZM156.659 334.76V338.98H158.299C158.792 338.98 159.152 338.86 159.379 338.62C159.606 338.367 159.719 337.96 159.719 337.4V336.62C159.719 335.927 159.586 335.447 159.319 335.18C159.052 334.9 158.586 334.76 157.919 334.76H156.659ZM163.418 337.44V330.56C163.418 329.36 163.738 328.433 164.378 327.78C165.031 327.127 165.958 326.8 167.158 326.8C168.371 326.8 169.298 327.127 169.938 327.78C170.591 328.433 170.918 329.36 170.918 330.56V337.44C170.918 338.64 170.591 339.567 169.938 340.22C169.284 340.873 168.358 341.2 167.158 341.2C165.958 341.2 165.031 340.873 164.378 340.22C163.738 339.567 163.418 338.64 163.418 337.44ZM167.158 339.18C168.144 339.18 168.638 338.64 168.638 337.56V330.44C168.638 329.36 168.144 328.82 167.158 328.82C166.184 328.82 165.698 329.36 165.698 330.44V337.56C165.698 338.64 166.184 339.18 167.158 339.18ZM174.759 336.36L178.139 327H180.459V341H178.399V331.6L175.039 341H172.719V327H174.759V336.36ZM185.703 337.44V330.56C185.703 329.36 186.023 328.433 186.663 327.78C187.316 327.127 188.243 326.8 189.443 326.8C190.656 326.8 191.583 327.127 192.223 327.78C192.876 328.433 193.203 329.36 193.203 330.56V337.44C193.203 338.64 192.876 339.567 192.223 340.22C191.569 340.873 190.643 341.2 189.443 341.2C188.243 341.2 187.316 340.873 186.663 340.22C186.023 339.567 185.703 338.64 185.703 337.44ZM189.443 339.18C190.429 339.18 190.923 338.64 190.923 337.56V330.44C190.923 329.36 190.429 328.82 189.443 328.82C188.469 328.82 187.983 329.36 187.983 330.44V337.56C187.983 338.64 188.469 339.18 189.443 339.18ZM199.246 341H196.986V329.02H194.306V327H201.926V329.02H199.246V341ZM211.405 341H209.005L206.785 334.6L205.585 336.58V341H203.305V327H205.585V333.16L209.045 327H211.365L208.325 332.2L211.405 341ZM215.018 341H212.738V327H216.358C218.812 327 220.038 328.213 220.038 330.64V331.68C220.038 334.107 218.812 335.32 216.358 335.32H215.018V341ZM215.018 329.02V333.32H216.358C216.852 333.32 217.205 333.2 217.418 332.96C217.645 332.707 217.758 332.3 217.758 331.74V330.56C217.758 330 217.645 329.607 217.418 329.38C217.205 329.14 216.852 329.02 216.358 329.02H215.018ZM225.187 341H221.547V327H223.827V332.4H225.187C227.64 332.4 228.867 333.633 228.867 336.1V337.3C228.867 339.767 227.64 341 225.187 341ZM232.667 341H230.387V327H232.667V341ZM223.827 334.42V338.98H225.187C225.667 338.98 226.02 338.86 226.247 338.62C226.474 338.367 226.587 337.967 226.587 337.42V335.98C226.587 335.433 226.474 335.04 226.247 334.8C226.02 334.547 225.667 334.42 225.187 334.42H223.827ZM238.992 341H236.732V329.02H234.052V327H241.672V329.02H238.992V341ZM245.091 336.36L248.471 327H250.791V341H248.731V331.6L245.371 341H243.051V327H245.091V336.36ZM259.997 327V341H257.717V335.08H256.677C256.037 335.08 255.584 335.22 255.317 335.5C255.064 335.78 254.937 336.267 254.937 336.96V339.16C254.937 339.947 254.864 340.56 254.717 341H252.417C252.59 340.573 252.677 339.967 252.677 339.18V337.1C252.677 336.18 252.81 335.473 253.077 334.98C253.344 334.473 253.777 334.133 254.377 333.96V333.9C253.257 333.487 252.697 332.533 252.697 331.04V330.36C252.697 329.213 252.99 328.367 253.577 327.82C254.177 327.273 255.104 327 256.357 327H259.997ZM256.637 333.06H257.717V329.02H256.397C255.904 329.02 255.544 329.147 255.317 329.4C255.09 329.653 254.977 330.053 254.977 330.6V331.4C254.977 331.987 255.11 332.413 255.377 332.68C255.644 332.933 256.064 333.06 256.637 333.06Z" fill="white"/>
<path opacity="0.4" d="M58.4996 323C-110.5 371.5 147.499 353.5 109 437.5" stroke="#FFF8D9" stroke-width="2" stroke-linecap="round" stroke-dasharray="6 6"/>
<path opacity="0.4" d="M333.817 178.992C300.509 169.845 280.522 227.586 209.817 203.492C139.111 179.398 90.4998 236 90.5 257.5" stroke="#FFF8D9" stroke-width="2" stroke-linecap="round" stroke-dasharray="6 6"/>
<path opacity="0.4" d="M381 19.1853C421.534 12.3746 517.568 21.1293 481.5 50.4434C445.432 79.7574 381 92.5491 381 131" stroke="#FFF8D9" stroke-width="2" stroke-linecap="round" stroke-dasharray="6 6"/>
<defs>
<filter id="filter0_ddddd_201_30446" x="46" y="0" width="114" height="109" filterUnits="userSpaceOnUse" color-interpolation-filters="sRGB">
<feFlood flood-opacity="0" result="BackgroundImageFix"/>
<feColorMatrix in="SourceAlpha" type="matrix" values="0 0 0 0 0 0 0 0 0 0 0 0 0 0 0 0 0 0 127 0" result="hardAlpha"/>
<feOffset/>
<feColorMatrix type="matrix" values="0 0 0 0 0.0745098 0 0 0 0 0.12549 0 0 0 0 0.0823529 0 0 0 0.2 0"/>
<feBlend mode="normal" in2="BackgroundImageFix" result="effect1_dropShadow_201_30446"/>
<feColorMatrix in="SourceAlpha" type="matrix" values="0 0 0 0 0 0 0 0 0 0 0 0 0 0 0 0 0 0 127 0" result="hardAlpha"/>
<feOffset dx="2" dy="2"/>
<feGaussianBlur stdDeviation="3"/>
<feColorMatrix type="matrix" values="0 0 0 0 0.0745098 0 0 0 0 0.12549 0 0 0 0 0.0823529 0 0 0 0.2 0"/>
<feBlend mode="normal" in2="effect1_dropShadow_201_30446" result="effect2_dropShadow_201_30446"/>
<feColorMatrix in="SourceAlpha" type="matrix" values="0 0 0 0 0 0 0 0 0 0 0 0 0 0 0 0 0 0 127 0" result="hardAlpha"/>
<feOffset dx="8" dy="7"/>
<feGaussianBlur stdDeviation="5"/>
<feColorMatrix type="matrix" values="0 0 0 0 0.0745098 0 0 0 0 0.12549 0 0 0 0 0.0823529 0 0 0 0.17 0"/>
<feBlend mode="normal" in2="effect2_dropShadow_201_30446" result="effect3_dropShadow_201_30446"/>
<feColorMatrix in="SourceAlpha" type="matrix" values="0 0 0 0 0 0 0 0 0 0 0 0 0 0 0 0 0 0 127 0" result="hardAlpha"/>
<feOffset dx="18" dy="15"/>
<feGaussianBlur stdDeviation="7"/>
<feColorMatrix type="matrix" values="0 0 0 0 0.0745098 0 0 0 0 0.12549 0 0 0 0 0.0823529 0 0 0 0.1 0"/>
<feBlend mode="normal" in2="effect3_dropShadow_201_30446" result="effect4_dropShadow_201_30446"/>
<feColorMatrix in="SourceAlpha" type="matrix" values="0 0 0 0 0 0 0 0 0 0 0 0 0 0 0 0 0 0 127 0" result="hardAlpha"/>
<feOffset dx="33" dy="26"/>
<feGaussianBlur stdDeviation="8.5"/>
<feColorMatrix type="matrix" values="0 0 0 0 0.0745098 0 0 0 0 0.12549 0 0 0 0 0.0823529 0 0 0 0.03 0"/>
<feBlend mode="normal" in2="effect4_dropShadow_201_30446" result="effect5_dropShadow_201_30446"/>
<feBlend mode="normal" in="SourceGraphic" in2="effect5_dropShadow_201_30446" result="shape"/>
</filter>
<filter id="filter1_ddddd_201_30446" x="345" y="142" width="114" height="109" filterUnits="userSpaceOnUse" color-interpolation-filters="sRGB">
<feFlood flood-opacity="0" result="BackgroundImageFix"/>
<feColorMatrix in="SourceAlpha" type="matrix" values="0 0 0 0 0 0 0 0 0 0 0 0 0 0 0 0 0 0 127 0" result="hardAlpha"/>
<feOffset/>
<feColorMatrix type="matrix" values="0 0 0 0 0.0745098 0 0 0 0 0.12549 0 0 0 0 0.0823529 0 0 0 0.2 0"/>
<feBlend mode="normal" in2="BackgroundImageFix" result="effect1_dropShadow_201_30446"/>
<feColorMatrix in="SourceAlpha" type="matrix" values="0 0 0 0 0 0 0 0 0 0 0 0 0 0 0 0 0 0 127 0" result="hardAlpha"/>
<feOffset dx="2" dy="2"/>
<feGaussianBlur stdDeviation="3"/>
<feColorMatrix type="matrix" values="0 0 0 0 0.0745098 0 0 0 0 0.12549 0 0 0 0 0.0823529 0 0 0 0.2 0"/>
<feBlend mode="normal" in2="effect1_dropShadow_201_30446" result="effect2_dropShadow_201_30446"/>
<feColorMatrix in="SourceAlpha" type="matrix" values="0 0 0 0 0 0 0 0 0 0 0 0 0 0 0 0 0 0 127 0" result="hardAlpha"/>
<feOffset dx="8" dy="7"/>
<feGaussianBlur stdDeviation="5"/>
<feColorMatrix type="matrix" values="0 0 0 0 0.0745098 0 0 0 0 0.12549 0 0 0 0 0.0823529 0 0 0 0.17 0"/>
<feBlend mode="normal" in2="effect2_dropShadow_201_30446" result="effect3_dropShadow_201_30446"/>
<feColorMatrix in="SourceAlpha" type="matrix" values="0 0 0 0 0 0 0 0 0 0 0 0 0 0 0 0 0 0 127 0" result="hardAlpha"/>
<feOffset dx="18" dy="15"/>
<feGaussianBlur stdDeviation="7"/>
<feColorMatrix type="matrix" values="0 0 0 0 0.0745098 0 0 0 0 0.12549 0 0 0 0 0.0823529 0 0 0 0.1 0"/>
<feBlend mode="normal" in2="effect3_dropShadow_201_30446" result="effect4_dropShadow_201_30446"/>
<feColorMatrix in="SourceAlpha" type="matrix" values="0 0 0 0 0 0 0 0 0 0 0 0 0 0 0 0 0 0 127 0" result="hardAlpha"/>
<feOffset dx="33" dy="26"/>
<feGaussianBlur stdDeviation="8.5"/>
<feColorMatrix type="matrix" values="0 0 0 0 0.0745098 0 0 0 0 0.12549 0 0 0 0 0.0823529 0 0 0 0.03 0"/>
<feBlend mode="normal" in2="effect4_dropShadow_201_30446" result="effect5_dropShadow_201_30446"/>
<feBlend mode="normal" in="SourceGraphic" in2="effect5_dropShadow_201_30446" result="shape"/>
</filter>
<filter id="filter2_ddddd_201_30446" x="57" y="284" width="114" height="109" filterUnits="userSpaceOnUse" color-interpolation-filters="sRGB">
<feFlood flood-opacity="0" result="BackgroundImageFix"/>
<feColorMatrix in="SourceAlpha" type="matrix" values="0 0 0 0 0 0 0 0 0 0 0 0 0 0 0 0 0 0 127 0" result="hardAlpha"/>
<feOffset/>
<feColorMatrix type="matrix" values="0 0 0 0 0.0745098 0 0 0 0 0.12549 0 0 0 0 0.0823529 0 0 0 0.2 0"/>
<feBlend mode="normal" in2="BackgroundImageFix" result="effect1_dropShadow_201_30446"/>
<feColorMatrix in="SourceAlpha" type="matrix" values="0 0 0 0 0 0 0 0 0 0 0 0 0 0 0 0 0 0 127 0" result="hardAlpha"/>
<feOffset dx="2" dy="2"/>
<feGaussianBlur stdDeviation="3"/>
<feColorMatrix type="matrix" values="0 0 0 0 0.0745098 0 0 0 0 0.12549 0 0 0 0 0.0823529 0 0 0 0.2 0"/>
<feBlend mode="normal" in2="effect1_dropShadow_201_30446" result="effect2_dropShadow_201_30446"/>
<feColorMatrix in="SourceAlpha" type="matrix" values="0 0 0 0 0 0 0 0 0 0 0 0 0 0 0 0 0 0 127 0" result="hardAlpha"/>
<feOffset dx="8" dy="7"/>
<feGaussianBlur stdDeviation="5"/>
<feColorMatrix type="matrix" values="0 0 0 0 0.0745098 0 0 0 0 0.12549 0 0 0 0 0.0823529 0 0 0 0.17 0"/>
<feBlend mode="normal" in2="effect2_dropShadow_201_30446" result="effect3_dropShadow_201_30446"/>
<feColorMatrix in="SourceAlpha" type="matrix" values="0 0 0 0 0 0 0 0 0 0 0 0 0 0 0 0 0 0 127 0" result="hardAlpha"/>
<feOffset dx="18" dy="15"/>
<feGaussianBlur stdDeviation="7"/>
<feColorMatrix type="matrix" values="0 0 0 0 0.0745098 0 0 0 0 0.12549 0 0 0 0 0.0823529 0 0 0 0.1 0"/>
<feBlend mode="normal" in2="effect3_dropShadow_201_30446" result="effect4_dropShadow_201_30446"/>
<feColorMatrix in="SourceAlpha" type="matrix" values="0 0 0 0 0 0 0 0 0 0 0 0 0 0 0 0 0 0 127 0" result="hardAlpha"/>
<feOffset dx="33" dy="26"/>
<feGaussianBlur stdDeviation="8.5"/>
<feColorMatrix type="matrix" values="0 0 0 0 0.0745098 0 0 0 0 0.12549 0 0 0 0 0.0823529 0 0 0 0.03 0"/>
<feBlend mode="normal" in2="effect4_dropShadow_201_30446" result="effect5_dropShadow_201_30446"/>
<feBlend mode="normal" in="SourceGraphic" in2="effect5_dropShadow_201_30446" result="shape"/>
</filter>
</defs>
</svg>
