<svg width="733" height="275" viewBox="0 0 733 275" fill="none" xmlns="http://www.w3.org/2000/svg">
<g filter="url(#filter0_ddddd_201_30451)">
<ellipse cx="34" cy="60.5" rx="22" ry="5.5" fill="#DDBA63"/>
<path d="M33.9985 7.74933C28.5304 7.75582 23.2882 9.93088 19.4216 13.7974C15.5551 17.6639 13.38 22.9062 13.3735 28.3743C13.3735 46.022 32.1235 59.3521 32.9219 59.9106C33.2376 60.1311 33.6134 60.2493 33.9985 60.2493C34.3836 60.2493 34.7595 60.1311 35.0752 59.9106C35.8735 59.3521 54.6235 46.022 54.6235 28.3743C54.617 22.9062 52.442 17.6639 48.5754 13.7974C44.7089 9.93088 39.4666 7.75582 33.9985 7.74933V7.74933ZM33.9999 20.875C35.4833 20.875 36.9333 21.3149 38.1667 22.139C39.4001 22.9631 40.3613 24.1344 40.929 25.5049C41.4967 26.8753 41.6452 28.3833 41.3558 29.8382C41.0664 31.293 40.3521 32.6294 39.3032 33.6783C38.2543 34.7272 36.9179 35.4415 35.4631 35.7309C34.0082 36.0203 32.5002 35.8718 31.1298 35.3041C29.7593 34.7364 28.588 33.7752 27.7639 32.5418C26.9398 31.3084 26.4999 29.8584 26.4999 28.375C26.4999 27.3901 26.6939 26.4148 27.0708 25.5048C27.4477 24.5949 28.0001 23.7681 28.6965 23.0716C29.393 22.3752 30.2198 21.8228 31.1297 21.4459C32.0397 21.069 33.015 20.875 33.9999 20.875V20.875Z" fill="#FFF9DA"/>
<ellipse cx="34" cy="28.5" rx="13" ry="12.5" fill="#C74403"/>
<path d="M35.9498 36H33.7498V25.32H31.4498V23.76C32.3698 23.76 33.0365 23.64 33.4498 23.4C33.8765 23.1333 34.2165 22.6667 34.4698 22H35.9498V36Z" fill="white"/>
</g>
<path d="M91.28 27H89V13H92.62C95.0733 13 96.3 14.2133 96.3 16.64V17.68C96.3 20.1067 95.0733 21.32 92.62 21.32H91.28V27ZM91.28 15.02V19.32H92.62C93.1133 19.32 93.4667 19.2 93.68 18.96C93.9067 18.7067 94.02 18.3 94.02 17.74V16.56C94.02 16 93.9067 15.6067 93.68 15.38C93.4667 15.14 93.1133 15.02 92.62 15.02H91.28ZM104.828 27H102.508L102.048 24.28H98.9678L98.4878 27H96.3678L99.0478 13H102.128L104.828 27ZM100.508 15.36L99.3078 22.3H101.708L100.508 15.36ZM112.21 26.24C111.584 26.88 110.69 27.2 109.53 27.2C108.37 27.2 107.47 26.88 106.83 26.24C106.204 25.5867 105.89 24.6733 105.89 23.5V16.5C105.89 15.3267 106.204 14.42 106.83 13.78C107.47 13.1267 108.37 12.8 109.53 12.8C110.69 12.8 111.584 13.1267 112.21 13.78C112.837 14.42 113.15 15.3267 113.15 16.5V17.74H111.01V16.4C111.01 15.32 110.537 14.78 109.59 14.78C108.644 14.78 108.17 15.32 108.17 16.4V23.6C108.17 24.68 108.644 25.22 109.59 25.22C110.537 25.22 111.01 24.68 111.01 23.6V21.84H113.15V23.5C113.15 24.6733 112.837 25.5867 112.21 26.24ZM120.921 26.24C120.295 26.88 119.401 27.2 118.241 27.2C117.081 27.2 116.181 26.88 115.541 26.24C114.915 25.5867 114.601 24.6733 114.601 23.5V16.5C114.601 15.3267 114.915 14.42 115.541 13.78C116.181 13.1267 117.081 12.8 118.241 12.8C119.401 12.8 120.295 13.1267 120.921 13.78C121.548 14.42 121.861 15.3267 121.861 16.5V17.74H119.721V16.4C119.721 15.32 119.248 14.78 118.301 14.78C117.355 14.78 116.881 15.32 116.881 16.4V23.6C116.881 24.68 117.355 25.22 118.301 25.22C119.248 25.22 119.721 24.68 119.721 23.6V21.84H121.861V23.5C121.861 24.6733 121.548 25.5867 120.921 26.24ZM131.573 27H129.173L126.953 20.6L125.753 22.58V27H123.473V13H125.753V19.16L129.213 13H131.533L128.493 18.2L131.573 27ZM140.726 27H138.406L137.946 24.28H134.866L134.386 27H132.266L134.946 13H138.026L140.726 27ZM136.406 15.36L135.206 22.3H137.606L136.406 15.36ZM154.786 27H152.506L150.346 20.2L149.246 22.1V27H146.966V22.1L145.866 20.2L143.706 27H141.406L144.366 18.2L141.446 13H143.806L146.966 19.06V13H149.246V19.06L152.426 13H154.746L151.846 18.22L154.786 27ZM158.169 22.36L161.549 13H163.869V27H161.809V17.6L158.449 27H156.129V13H158.169V22.36ZM166.895 29.32H165.855L166.755 27H165.955V24.6H168.235V26.76L166.895 29.32ZM178.727 18.08V13H181.007V27H178.727V21.16C178.14 21.76 177.347 22.06 176.347 22.06C174.373 22.06 173.387 20.9333 173.387 18.68V13H175.647V18.38C175.647 19.46 176.113 20 177.047 20C177.58 20 177.993 19.84 178.287 19.52C178.58 19.1867 178.727 18.7067 178.727 18.08ZM187.324 27H185.064V15.02H182.384V13H190.004V15.02H187.324V27ZM191.125 23.44V16.56C191.125 15.36 191.445 14.4333 192.085 13.78C192.738 13.1267 193.665 12.8 194.865 12.8C196.078 12.8 197.005 13.1267 197.645 13.78C198.298 14.4333 198.625 15.36 198.625 16.56V23.44C198.625 24.64 198.298 25.5667 197.645 26.22C196.991 26.8733 196.065 27.2 194.865 27.2C193.665 27.2 192.738 26.8733 192.085 26.22C191.445 25.5667 191.125 24.64 191.125 23.44ZM194.865 25.18C195.851 25.18 196.345 24.64 196.345 23.56V16.44C196.345 15.36 195.851 14.82 194.865 14.82C193.891 14.82 193.405 15.36 193.405 16.44V23.56C193.405 24.64 193.891 25.18 194.865 25.18ZM206.124 27H203.844V13H206.124V18.78H209.144V13H211.424V27H209.144V20.8H206.124V27ZM213.234 23.44V16.56C213.234 15.36 213.554 14.4333 214.194 13.78C214.847 13.1267 215.774 12.8 216.974 12.8C218.187 12.8 219.114 13.1267 219.754 13.78C220.407 14.4333 220.734 15.36 220.734 16.56V23.44C220.734 24.64 220.407 25.5667 219.754 26.22C219.101 26.8733 218.174 27.2 216.974 27.2C215.774 27.2 214.847 26.8733 214.194 26.22C213.554 25.5667 213.234 24.64 213.234 23.44ZM216.974 25.18C217.961 25.18 218.454 24.64 218.454 23.56V16.44C218.454 15.36 217.961 14.82 216.974 14.82C216.001 14.82 215.514 15.36 215.514 16.44V23.56C215.514 24.64 216.001 25.18 216.974 25.18ZM226.455 27H222.535V13H226.255C227.508 13 228.428 13.2733 229.015 13.82C229.615 14.3667 229.915 15.2067 229.915 16.34V16.76C229.915 18.1867 229.362 19.1133 228.255 19.54V19.6C229.522 19.9867 230.155 21.02 230.155 22.7V23.42C230.155 25.8067 228.922 27 226.455 27ZM224.815 15.02V18.74H225.955C226.528 18.74 226.948 18.6133 227.215 18.36C227.495 18.0933 227.635 17.68 227.635 17.12V16.6C227.635 16.04 227.522 15.64 227.295 15.4C227.068 15.1467 226.695 15.02 226.175 15.02H224.815ZM224.815 20.76V24.98H226.455C226.948 24.98 227.308 24.86 227.535 24.62C227.762 24.3667 227.875 23.96 227.875 23.4V22.62C227.875 21.9267 227.742 21.4467 227.475 21.18C227.208 20.9 226.742 20.76 226.075 20.76H224.815ZM231.574 23.44V16.56C231.574 15.36 231.894 14.4333 232.534 13.78C233.187 13.1267 234.114 12.8 235.314 12.8C236.527 12.8 237.454 13.1267 238.094 13.78C238.747 14.4333 239.074 15.36 239.074 16.56V23.44C239.074 24.64 238.747 25.5667 238.094 26.22C237.441 26.8733 236.514 27.2 235.314 27.2C234.114 27.2 233.187 26.8733 232.534 26.22C231.894 25.5667 231.574 24.64 231.574 23.44ZM235.314 25.18C236.301 25.18 236.794 24.64 236.794 23.56V16.44C236.794 15.36 236.301 14.82 235.314 14.82C234.341 14.82 233.854 15.36 233.854 16.44V23.56C233.854 24.64 234.341 25.18 235.314 25.18ZM243.155 27H240.875V13H247.155V15.02H243.155V27ZM248.293 23.44V16.56C248.293 15.36 248.613 14.4333 249.253 13.78C249.906 13.1267 250.833 12.8 252.033 12.8C253.246 12.8 254.173 13.1267 254.813 13.78C255.466 14.4333 255.793 15.36 255.793 16.56V23.44C255.793 24.64 255.466 25.5667 254.813 26.22C254.159 26.8733 253.233 27.2 252.033 27.2C250.833 27.2 249.906 26.8733 249.253 26.22C248.613 25.5667 248.293 24.64 248.293 23.44ZM252.033 25.18C253.019 25.18 253.513 24.64 253.513 23.56V16.44C253.513 15.36 253.019 14.82 252.033 14.82C251.059 14.82 250.573 15.36 250.573 16.44V23.56C250.573 24.64 251.059 25.18 252.033 25.18ZM93.32 57H91.06V45.02H88.38V43H96V45.02H93.32V57ZM101.019 57H97.3789V43H99.6589V48.4H101.019C103.472 48.4 104.699 49.6333 104.699 52.1V53.3C104.699 55.7667 103.472 57 101.019 57ZM108.499 57H106.219V43H108.499V57ZM99.6589 50.42V54.98H101.019C101.499 54.98 101.852 54.86 102.079 54.62C102.306 54.3667 102.419 53.9667 102.419 53.42V51.98C102.419 51.4333 102.306 51.04 102.079 50.8C101.852 50.5467 101.499 50.42 101.019 50.42H99.6589ZM115.422 57H113.262L116.222 49.82L113.382 43H115.822L117.622 47.7L119.482 43H121.682L118.842 49.82L121.802 57H119.382L117.422 51.94L115.422 57ZM122.59 53.44V46.56C122.59 45.36 122.91 44.4333 123.55 43.78C124.203 43.1267 125.13 42.8 126.33 42.8C127.543 42.8 128.47 43.1267 129.11 43.78C129.763 44.4333 130.09 45.36 130.09 46.56V53.44C130.09 54.64 129.763 55.5667 129.11 56.22C128.456 56.8733 127.53 57.2 126.33 57.2C125.13 57.2 124.203 56.8733 123.55 56.22C122.91 55.5667 122.59 54.64 122.59 53.44ZM126.33 55.18C127.316 55.18 127.81 54.64 127.81 53.56V46.44C127.81 45.36 127.316 44.82 126.33 44.82C125.356 44.82 124.87 45.36 124.87 46.44V53.56C124.87 54.64 125.356 55.18 126.33 55.18ZM136.133 57H133.873V45.02H131.193V43H138.813V45.02H136.133V57ZM146.911 57H140.191V43H146.911V45.02H142.471V48.78H146.031V50.8H142.471V54.98H146.911V57ZM148.454 57.02C148.174 57.02 147.954 56.9933 147.794 56.94V54.96C147.954 55 148.107 55.02 148.254 55.02C148.747 55.02 149.087 54.9 149.274 54.66C149.474 54.4067 149.587 53.9733 149.614 53.36L150.034 43H156.874V57H154.614V45.02H152.174L151.874 53.42C151.834 54.6733 151.547 55.5867 151.014 56.16C150.481 56.7333 149.627 57.02 148.454 57.02ZM166.101 57H162.301V43H168.841V45.02H164.581V48.5H166.101C168.554 48.5 169.781 49.7333 169.781 52.2V53.3C169.781 55.7667 168.554 57 166.101 57ZM164.581 50.52V54.98H166.101C166.581 54.98 166.934 54.86 167.161 54.62C167.387 54.3667 167.501 53.9667 167.501 53.42V52.08C167.501 51.5333 167.387 51.14 167.161 50.9C166.934 50.6467 166.581 50.52 166.101 50.52H164.581ZM174.925 57H171.285V43H173.565V48.4H174.925C177.378 48.4 178.605 49.6333 178.605 52.1V53.3C178.605 55.7667 177.378 57 174.925 57ZM182.405 57H180.125V43H182.405V57ZM173.565 50.42V54.98H174.925C175.405 54.98 175.758 54.86 175.985 54.62C176.212 54.3667 176.325 53.9667 176.325 53.42V51.98C176.325 51.4333 176.212 51.04 175.985 50.8C175.758 50.5467 175.405 50.42 174.925 50.42H173.565ZM196.288 43V54.98H197.488V58.88H195.208V57H189.468V58.88H187.208V54.98H188.508C188.801 54.6867 188.968 54.14 189.008 53.34L189.428 43H196.288ZM190.668 54.98H194.008V45.02H191.568L191.288 53.22C191.261 53.94 191.055 54.5267 190.668 54.98ZM198.884 57.02C198.604 57.02 198.384 56.9933 198.224 56.94V54.96C198.384 55 198.537 55.02 198.684 55.02C199.177 55.02 199.517 54.9 199.704 54.66C199.904 54.4067 200.017 53.9733 200.044 53.36L200.464 43H207.304V57H205.044V45.02H202.604L202.304 53.42C202.264 54.6733 201.977 55.5867 201.444 56.16C200.91 56.7333 200.057 57.02 198.884 57.02ZM216.513 43V57H214.233V51.08H213.193C212.553 51.08 212.099 51.22 211.833 51.5C211.579 51.78 211.453 52.2667 211.453 52.96V55.16C211.453 55.9467 211.379 56.56 211.233 57H208.933C209.106 56.5733 209.193 55.9667 209.193 55.18V53.1C209.193 52.18 209.326 51.4733 209.593 50.98C209.859 50.4733 210.293 50.1333 210.893 49.96V49.9C209.773 49.4867 209.213 48.5333 209.213 47.04V46.36C209.213 45.2133 209.506 44.3667 210.093 43.82C210.693 43.2733 211.619 43 212.873 43H216.513ZM213.153 49.06H214.233V45.02H212.913C212.419 45.02 212.059 45.1467 211.833 45.4C211.606 45.6533 211.493 46.0533 211.493 46.6V47.4C211.493 47.9867 211.626 48.4133 211.893 48.68C212.159 48.9333 212.579 49.06 213.153 49.06ZM228.07 56.24C227.443 56.88 226.55 57.2 225.39 57.2C224.23 57.2 223.33 56.88 222.69 56.24C222.063 55.5867 221.75 54.6733 221.75 53.5V46.5C221.75 45.3267 222.063 44.42 222.69 43.78C223.33 43.1267 224.23 42.8 225.39 42.8C226.55 42.8 227.443 43.1267 228.07 43.78C228.696 44.42 229.01 45.3267 229.01 46.5V47.74H226.87V46.4C226.87 45.32 226.396 44.78 225.45 44.78C224.503 44.78 224.03 45.32 224.03 46.4V53.6C224.03 54.68 224.503 55.22 225.45 55.22C226.396 55.22 226.87 54.68 226.87 53.6V51.84H229.01V53.5C229.01 54.6733 228.696 55.5867 228.07 56.24ZM237.341 57H230.621V43H237.341V45.02H232.901V48.78H236.461V50.8H232.901V54.98H237.341V57ZM242.644 57H238.844V43H245.384V45.02H241.124V48.5H242.644C245.097 48.5 246.324 49.7333 246.324 52.2V53.3C246.324 55.7667 245.097 57 242.644 57ZM241.124 50.52V54.98H242.644C243.124 54.98 243.477 54.86 243.704 54.62C243.93 54.3667 244.044 53.9667 244.044 53.42V52.08C244.044 51.5333 243.93 51.14 243.704 50.9C243.477 50.6467 243.124 50.52 242.644 50.52H241.124ZM255.028 43V57H252.748V51.08H251.708C251.068 51.08 250.615 51.22 250.348 51.5C250.095 51.78 249.968 52.2667 249.968 52.96V55.16C249.968 55.9467 249.895 56.56 249.748 57H247.448C247.621 56.5733 247.708 55.9667 247.708 55.18V53.1C247.708 52.18 247.841 51.4733 248.108 50.98C248.375 50.4733 248.808 50.1333 249.408 49.96V49.9C248.288 49.4867 247.728 48.5333 247.728 47.04V46.36C247.728 45.2133 248.021 44.3667 248.608 43.82C249.208 43.2733 250.135 43 251.388 43H255.028ZM251.668 49.06H252.748V45.02H251.428C250.935 45.02 250.575 45.1467 250.348 45.4C250.121 45.6533 250.008 46.0533 250.008 46.6V47.4C250.008 47.9867 250.141 48.4133 250.408 48.68C250.675 48.9333 251.095 49.06 251.668 49.06ZM260.265 53.44V46.56C260.265 45.36 260.585 44.4333 261.225 43.78C261.879 43.1267 262.805 42.8 264.005 42.8C265.219 42.8 266.145 43.1267 266.785 43.78C267.439 44.4333 267.765 45.36 267.765 46.56V53.44C267.765 54.64 267.439 55.5667 266.785 56.22C266.132 56.8733 265.205 57.2 264.005 57.2C262.805 57.2 261.879 56.8733 261.225 56.22C260.585 55.5667 260.265 54.64 260.265 53.44ZM264.005 55.18C264.992 55.18 265.485 54.64 265.485 53.56V46.44C265.485 45.36 264.992 44.82 264.005 44.82C263.032 44.82 262.545 45.36 262.545 46.44V53.56C262.545 54.64 263.032 55.18 264.005 55.18ZM273.808 57H271.548V45.02H268.868V43H276.488V45.02H273.808V57ZM285.967 57H283.567L281.347 50.6L280.147 52.58V57H277.867V43H280.147V49.16L283.607 43H285.927L282.887 48.2L285.967 57ZM289.581 57H287.301V43H290.921C293.374 43 294.601 44.2133 294.601 46.64V47.68C294.601 50.1067 293.374 51.32 290.921 51.32H289.581V57ZM289.581 45.02V49.32H290.921C291.414 49.32 291.767 49.2 291.981 48.96C292.207 48.7067 292.321 48.3 292.321 47.74V46.56C292.321 46 292.207 45.6067 291.981 45.38C291.767 45.14 291.414 45.02 290.921 45.02H289.581ZM299.749 57H296.109V43H298.389V48.4H299.749C302.203 48.4 303.429 49.6333 303.429 52.1V53.3C303.429 55.7667 302.203 57 299.749 57ZM307.229 57H304.949V43H307.229V57ZM298.389 50.42V54.98H299.749C300.229 54.98 300.583 54.86 300.809 54.62C301.036 54.3667 301.149 53.9667 301.149 53.42V51.98C301.149 51.4333 301.036 51.04 300.809 50.8C300.583 50.5467 300.229 50.42 299.749 50.42H298.389ZM313.554 57H311.294V45.02H308.614V43H316.234V45.02H313.554V57ZM321.253 57H317.613V43H319.893V48.4H321.253C323.707 48.4 324.933 49.6333 324.933 52.1V53.3C324.933 55.7667 323.707 57 321.253 57ZM319.893 50.42V54.98H321.253C321.733 54.98 322.087 54.86 322.313 54.62C322.54 54.3667 322.653 53.9667 322.653 53.42V51.98C322.653 51.4333 322.54 51.04 322.313 50.8C322.087 50.5467 321.733 50.42 321.253 50.42H319.893Z" fill="white"/>
<g filter="url(#filter1_ddddd_201_30451)">
<ellipse cx="437" cy="142.5" rx="22" ry="5.5" fill="#DDBA63"/>
<path d="M436.999 89.7493C431.53 89.7558 426.288 91.9309 422.422 95.7974C418.555 99.6639 416.38 104.906 416.374 110.374C416.374 128.022 435.124 141.352 435.922 141.911C436.238 142.131 436.613 142.249 436.999 142.249C437.384 142.249 437.759 142.131 438.075 141.911C438.874 141.352 457.624 128.022 457.624 110.374C457.617 104.906 455.442 99.6639 451.575 95.7974C447.709 91.9309 442.467 89.7558 436.999 89.7493V89.7493ZM437 102.875C438.483 102.875 439.933 103.315 441.167 104.139C442.4 104.963 443.361 106.134 443.929 107.505C444.497 108.875 444.645 110.383 444.356 111.838C444.066 113.293 443.352 114.629 442.303 115.678C441.254 116.727 439.918 117.442 438.463 117.731C437.008 118.02 435.5 117.872 434.13 117.304C432.759 116.736 431.588 115.775 430.764 114.542C429.94 113.308 429.5 111.858 429.5 110.375C429.5 109.39 429.694 108.415 430.071 107.505C430.448 106.595 431 105.768 431.697 105.072C432.393 104.375 433.22 103.823 434.13 103.446C435.04 103.069 436.015 102.875 437 102.875V102.875Z" fill="#FFF9DA"/>
<ellipse cx="437" cy="110.5" rx="13" ry="12.5" fill="#C74403"/>
<path d="M440.129 118H433.769V116.48C433.769 115.44 433.929 114.553 434.249 113.82C434.569 113.087 435.142 112.287 435.969 111.42C436.822 110.5 437.389 109.773 437.669 109.24C437.976 108.653 438.129 108.04 438.129 107.4C438.129 106.813 438.036 106.4 437.849 106.16C437.662 105.92 437.376 105.8 436.989 105.8C436.229 105.8 435.849 106.26 435.849 107.18V108.68H433.769V107.32C433.769 106.187 434.049 105.32 434.609 104.72C435.169 104.107 435.982 103.8 437.049 103.8C438.116 103.8 438.929 104.107 439.489 104.72C440.049 105.32 440.329 106.187 440.329 107.32C440.329 108.187 440.122 109.013 439.709 109.8C439.296 110.613 438.596 111.54 437.609 112.58C436.969 113.26 436.529 113.82 436.289 114.26C436.062 114.7 435.949 115.18 435.949 115.7V116H440.129V118Z" fill="white"/>
</g>
<path d="M495.74 102.56L497.54 95H499.72L496.7 106.62C496.46 107.54 496.08 108.2 495.56 108.6C495.04 109 494.307 109.2 493.36 109.2C492.813 109.2 492.353 109.127 491.98 108.98V107.02C492.3 107.127 492.647 107.18 493.02 107.18C493.447 107.18 493.767 107.12 493.98 107C494.193 106.867 494.353 106.64 494.46 106.32L494.56 105.96L491.4 95H493.76L495.74 102.56ZM505.984 100.08V95H508.264V109H505.984V103.16C505.398 103.76 504.604 104.06 503.604 104.06C501.631 104.06 500.644 102.933 500.644 100.68V95H502.904V100.38C502.904 101.46 503.371 102 504.304 102C504.838 102 505.251 101.84 505.544 101.52C505.838 101.187 505.984 100.707 505.984 100.08ZM518.082 109H515.762L515.302 106.28H512.222L511.742 109H509.622L512.302 95H515.382L518.082 109ZM513.762 97.36L512.562 104.3H514.962L513.762 97.36ZM525.464 108.24C524.838 108.88 523.944 109.2 522.784 109.2C521.624 109.2 520.724 108.88 520.084 108.24C519.458 107.587 519.144 106.673 519.144 105.5V98.5C519.144 97.3267 519.458 96.42 520.084 95.78C520.724 95.1267 521.624 94.8 522.784 94.8C523.944 94.8 524.838 95.1267 525.464 95.78C526.091 96.42 526.404 97.3267 526.404 98.5V99.74H524.264V98.4C524.264 97.32 523.791 96.78 522.844 96.78C521.898 96.78 521.424 97.32 521.424 98.4V105.6C521.424 106.68 521.898 107.22 522.844 107.22C523.791 107.22 524.264 106.68 524.264 105.6V103.84H526.404V105.5C526.404 106.673 526.091 107.587 525.464 108.24ZM532.336 109H530.076V97.02H527.396V95H535.016V97.02H532.336V109ZM540.315 109H536.395V95H540.115C541.368 95 542.288 95.2733 542.875 95.82C543.475 96.3667 543.775 97.2067 543.775 98.34V98.76C543.775 100.187 543.221 101.113 542.115 101.54V101.6C543.381 101.987 544.015 103.02 544.015 104.7V105.42C544.015 107.807 542.781 109 540.315 109ZM538.675 97.02V100.74H539.815C540.388 100.74 540.808 100.613 541.075 100.36C541.355 100.093 541.495 99.68 541.495 99.12V98.6C541.495 98.04 541.381 97.64 541.155 97.4C540.928 97.1467 540.555 97.02 540.035 97.02H538.675ZM538.675 102.76V106.98H540.315C540.808 106.98 541.168 106.86 541.395 106.62C541.621 106.367 541.735 105.96 541.735 105.4V104.62C541.735 103.927 541.601 103.447 541.335 103.18C541.068 102.9 540.601 102.76 539.935 102.76H538.675ZM549.295 102.56L551.095 95H553.275L550.255 106.62C550.015 107.54 549.635 108.2 549.115 108.6C548.595 109 547.861 109.2 546.915 109.2C546.368 109.2 545.908 109.127 545.535 108.98V107.02C545.855 107.127 546.201 107.18 546.575 107.18C547.001 107.18 547.321 107.12 547.535 107C547.748 106.867 547.908 106.64 548.015 106.32L548.115 105.96L544.955 95H547.315L549.295 102.56ZM558.399 93.86C557.612 93.86 556.992 93.64 556.539 93.2C556.086 92.7467 555.846 92.1333 555.819 91.36H557.199C557.266 92.0267 557.666 92.36 558.399 92.36C559.132 92.36 559.552 92.0267 559.659 91.36H560.999C560.972 92.1333 560.732 92.7467 560.279 93.2C559.826 93.64 559.199 93.86 558.399 93.86ZM556.579 104.36L559.959 95H562.279V109H560.219V99.6L556.859 109H554.539V95H556.579V104.36ZM571.623 109H567.703V95H571.423C572.676 95 573.596 95.2733 574.183 95.82C574.783 96.3667 575.083 97.2067 575.083 98.34V98.76C575.083 100.187 574.53 101.113 573.423 101.54V101.6C574.69 101.987 575.323 103.02 575.323 104.7V105.42C575.323 107.807 574.09 109 571.623 109ZM569.983 97.02V100.74H571.123C571.696 100.74 572.116 100.613 572.383 100.36C572.663 100.093 572.803 99.68 572.803 99.12V98.6C572.803 98.04 572.69 97.64 572.463 97.4C572.236 97.1467 571.863 97.02 571.343 97.02H569.983ZM569.983 102.76V106.98H571.623C572.116 106.98 572.476 106.86 572.703 106.62C572.93 106.367 573.043 105.96 573.043 105.4V104.62C573.043 103.927 572.91 103.447 572.643 103.18C572.376 102.9 571.91 102.76 571.243 102.76H569.983ZM582.62 109H580.34V95H583.96C586.413 95 587.64 96.2133 587.64 98.64V99.68C587.64 102.107 586.413 103.32 583.96 103.32H582.62V109ZM582.62 97.02V101.32H583.96C584.453 101.32 584.807 101.2 585.02 100.96C585.247 100.707 585.36 100.3 585.36 99.74V98.56C585.36 98 585.247 97.6067 585.02 97.38C584.807 97.14 584.453 97.02 583.96 97.02H582.62ZM588.968 105.44V98.56C588.968 97.36 589.288 96.4333 589.928 95.78C590.582 95.1267 591.508 94.8 592.708 94.8C593.922 94.8 594.848 95.1267 595.488 95.78C596.142 96.4333 596.468 97.36 596.468 98.56V105.44C596.468 106.64 596.142 107.567 595.488 108.22C594.835 108.873 593.908 109.2 592.708 109.2C591.508 109.2 590.582 108.873 589.928 108.22C589.288 107.567 588.968 106.64 588.968 105.44ZM592.708 107.18C593.695 107.18 594.188 106.64 594.188 105.56V98.44C594.188 97.36 593.695 96.82 592.708 96.82C591.735 96.82 591.248 97.36 591.248 98.44V105.56C591.248 106.64 591.735 107.18 592.708 107.18ZM601.49 109.2C600.29 109.2 599.376 108.887 598.75 108.26C598.123 107.62 597.81 106.7 597.81 105.5V104.56H599.95V105.54C599.95 106.633 600.443 107.18 601.43 107.18C601.95 107.18 602.323 107.047 602.55 106.78C602.79 106.5 602.91 106.047 602.91 105.42V104.66C602.91 103.967 602.77 103.473 602.49 103.18C602.223 102.873 601.776 102.72 601.15 102.72H600.29V100.7H601.21C602.303 100.7 602.85 100.133 602.85 99V98.38C602.85 97.34 602.376 96.82 601.43 96.82C600.496 96.82 600.03 97.32 600.03 98.32V99.02H597.89V98.5C597.89 97.3 598.196 96.3867 598.81 95.76C599.423 95.12 600.323 94.8 601.51 94.8C602.683 94.8 603.576 95.1067 604.19 95.72C604.803 96.3333 605.11 97.22 605.11 98.38V98.76C605.11 100.213 604.516 101.153 603.33 101.58V101.6C604.556 102.027 605.17 103.053 605.17 104.68V105.48C605.17 107.96 603.943 109.2 601.49 109.2ZM610.464 109H606.824V95H609.104V100.4H610.464C612.918 100.4 614.144 101.633 614.144 104.1V105.3C614.144 107.767 612.918 109 610.464 109ZM617.944 109H615.664V95H617.944V109ZM609.104 102.42V106.98H610.464C610.944 106.98 611.298 106.86 611.524 106.62C611.751 106.367 611.864 105.967 611.864 105.42V103.98C611.864 103.433 611.751 103.04 611.524 102.8C611.298 102.547 610.944 102.42 610.464 102.42H609.104ZM622.229 109H619.949V95H626.229V97.02H622.229V109ZM629.905 109H627.625V95H631.245C633.698 95 634.925 96.2133 634.925 98.64V99.68C634.925 102.107 633.698 103.32 631.245 103.32H629.905V109ZM629.905 97.02V101.32H631.245C631.738 101.32 632.092 101.2 632.305 100.96C632.532 100.707 632.645 100.3 632.645 99.74V98.56C632.645 98 632.532 97.6067 632.305 97.38C632.092 97.14 631.738 97.02 631.245 97.02H629.905ZM640.074 109H636.434V95H638.714V100.4H640.074C642.527 100.4 643.754 101.633 643.754 104.1V105.3C643.754 107.767 642.527 109 640.074 109ZM647.554 109H645.274V95H647.554V109ZM638.714 102.42V106.98H640.074C640.554 106.98 640.907 106.86 641.134 106.62C641.36 106.367 641.474 105.967 641.474 105.42V103.98C641.474 103.433 641.36 103.04 641.134 102.8C640.907 102.547 640.554 102.42 640.074 102.42H638.714ZM661.119 109H649.559V95H651.839V106.98H654.219V95H656.479V106.98H658.839V95H661.119V109ZM669.833 109H663.113V95H669.833V97.02H665.393V100.78H668.953V102.8H665.393V106.98H669.833V109ZM677.034 109H674.754V95H682.334V109H680.054V97.02H677.034V109ZM686.604 109H684.324V95H687.944C690.398 95 691.624 96.2133 691.624 98.64V99.68C691.624 102.107 690.398 103.32 687.944 103.32H686.604V109ZM686.604 97.02V101.32H687.944C688.438 101.32 688.791 101.2 689.004 100.96C689.231 100.707 689.344 100.3 689.344 99.74V98.56C689.344 98 689.231 97.6067 689.004 97.38C688.791 97.14 688.438 97.02 687.944 97.02H686.604ZM695.173 104.36L698.553 95H700.873V109H698.813V99.6L695.453 109H693.133V95H695.173V104.36ZM706.099 109.2C704.899 109.2 703.986 108.887 703.359 108.26C702.732 107.62 702.419 106.7 702.419 105.5V104.56H704.559V105.54C704.559 106.633 705.052 107.18 706.039 107.18C706.559 107.18 706.932 107.047 707.159 106.78C707.399 106.5 707.519 106.047 707.519 105.42V104.66C707.519 103.967 707.379 103.473 707.099 103.18C706.832 102.873 706.386 102.72 705.759 102.72H704.899V100.7H705.819C706.912 100.7 707.459 100.133 707.459 99V98.38C707.459 97.34 706.986 96.82 706.039 96.82C705.106 96.82 704.639 97.32 704.639 98.32V99.02H702.499V98.5C702.499 97.3 702.806 96.3867 703.419 95.76C704.032 95.12 704.932 94.8 706.119 94.8C707.292 94.8 708.186 95.1067 708.799 95.72C709.412 96.3333 709.719 97.22 709.719 98.38V98.76C709.719 100.213 709.126 101.153 707.939 101.58V101.6C709.166 102.027 709.779 103.053 709.779 104.68V105.48C709.779 107.96 708.552 109.2 706.099 109.2ZM711.254 105.44V98.56C711.254 97.36 711.574 96.4333 712.214 95.78C712.867 95.1267 713.794 94.8 714.994 94.8C716.207 94.8 717.134 95.1267 717.774 95.78C718.427 96.4333 718.754 97.36 718.754 98.56V105.44C718.754 106.64 718.427 107.567 717.774 108.22C717.12 108.873 716.194 109.2 714.994 109.2C713.794 109.2 712.867 108.873 712.214 108.22C711.574 107.567 711.254 106.64 711.254 105.44ZM714.994 107.18C715.98 107.18 716.474 106.64 716.474 105.56V98.44C716.474 97.36 715.98 96.82 714.994 96.82C714.02 96.82 713.534 97.36 713.534 98.44V105.56C713.534 106.64 714.02 107.18 714.994 107.18ZM724.475 109H720.555V95H724.275C725.528 95 726.448 95.2733 727.035 95.82C727.635 96.3667 727.935 97.2067 727.935 98.34V98.76C727.935 100.187 727.381 101.113 726.275 101.54V101.6C727.541 101.987 728.175 103.02 728.175 104.7V105.42C728.175 107.807 726.941 109 724.475 109ZM722.835 97.02V100.74H723.975C724.548 100.74 724.968 100.613 725.235 100.36C725.515 100.093 725.655 99.68 725.655 99.12V98.6C725.655 98.04 725.541 97.64 725.315 97.4C725.088 97.1467 724.715 97.02 724.195 97.02H722.835ZM722.835 102.76V106.98H724.475C724.968 106.98 725.328 106.86 725.555 106.62C725.781 106.367 725.895 105.96 725.895 105.4V104.62C725.895 103.927 725.761 103.447 725.495 103.18C725.228 102.9 724.761 102.76 724.095 102.76H722.835ZM500.46 125V136.98H501.66V140.88H499.38V139H493.64V140.88H491.38V136.98H492.68C492.973 136.687 493.14 136.14 493.18 135.34L493.6 125H500.46ZM494.84 136.98H498.18V127.02H495.74L495.46 135.22C495.433 135.94 495.227 136.527 494.84 136.98ZM503.056 139.02C502.776 139.02 502.556 138.993 502.396 138.94V136.96C502.556 137 502.709 137.02 502.856 137.02C503.349 137.02 503.689 136.9 503.876 136.66C504.076 136.407 504.189 135.973 504.216 135.36L504.636 125H511.476V139H509.216V127.02H506.776L506.476 135.42C506.436 136.673 506.149 137.587 505.616 138.16C505.082 138.733 504.229 139.02 503.056 139.02ZM520.684 125V139H518.404V133.08H517.364C516.724 133.08 516.271 133.22 516.004 133.5C515.751 133.78 515.624 134.267 515.624 134.96V137.16C515.624 137.947 515.551 138.56 515.404 139H513.104C513.278 138.573 513.364 137.967 513.364 137.18V135.1C513.364 134.18 513.498 133.473 513.764 132.98C514.031 132.473 514.464 132.133 515.064 131.96V131.9C513.944 131.487 513.384 130.533 513.384 129.04V128.36C513.384 127.213 513.678 126.367 514.264 125.82C514.864 125.273 515.791 125 517.044 125H520.684ZM517.324 131.06H518.404V127.02H517.084C516.591 127.02 516.231 127.147 516.004 127.4C515.778 127.653 515.664 128.053 515.664 128.6V129.4C515.664 129.987 515.798 130.413 516.064 130.68C516.331 130.933 516.751 131.06 517.324 131.06ZM528.382 139H526.102V125H529.722C532.175 125 533.402 126.213 533.402 128.64V129.68C533.402 132.107 532.175 133.32 529.722 133.32H528.382V139ZM528.382 127.02V131.32H529.722C530.215 131.32 530.568 131.2 530.782 130.96C531.008 130.707 531.122 130.3 531.122 129.74V128.56C531.122 128 531.008 127.607 530.782 127.38C530.568 127.14 530.215 127.02 529.722 127.02H528.382ZM541.63 139H534.91V125H541.63V127.02H537.19V130.78H540.75V132.8H537.19V136.98H541.63V139ZM550.992 139H548.672L548.212 136.28H545.132L544.652 139H542.532L545.212 125H548.292L550.992 139ZM546.672 127.36L545.472 134.3H547.872L546.672 127.36ZM552.45 139.02C552.17 139.02 551.95 138.993 551.79 138.94V136.96C551.95 137 552.103 137.02 552.25 137.02C552.743 137.02 553.083 136.9 553.27 136.66C553.47 136.407 553.583 135.973 553.61 135.36L554.03 125H560.87V139H558.61V127.02H556.17L555.87 135.42C555.83 136.673 555.543 137.587 555.01 138.16C554.477 138.733 553.623 139.02 552.45 139.02ZM564.919 134.36L568.299 125H570.619V139H568.559V129.6L565.199 139H562.879V125H564.919V134.36ZM575.845 139.2C574.645 139.2 573.732 138.887 573.105 138.26C572.478 137.62 572.165 136.7 572.165 135.5V134.56H574.305V135.54C574.305 136.633 574.798 137.18 575.785 137.18C576.305 137.18 576.678 137.047 576.905 136.78C577.145 136.5 577.265 136.047 577.265 135.42V134.66C577.265 133.967 577.125 133.473 576.845 133.18C576.578 132.873 576.132 132.72 575.505 132.72H574.645V130.7H575.565C576.658 130.7 577.205 130.133 577.205 129V128.38C577.205 127.34 576.732 126.82 575.785 126.82C574.852 126.82 574.385 127.32 574.385 128.32V129.02H572.245V128.5C572.245 127.3 572.552 126.387 573.165 125.76C573.778 125.12 574.678 124.8 575.865 124.8C577.038 124.8 577.932 125.107 578.545 125.72C579.158 126.333 579.465 127.22 579.465 128.38V128.76C579.465 130.213 578.872 131.153 577.685 131.58V131.6C578.912 132.027 579.525 133.053 579.525 134.68V135.48C579.525 137.96 578.298 139.2 575.845 139.2ZM588.843 139H586.523L586.063 136.28H582.983L582.503 139H580.383L583.063 125H586.143L588.843 139ZM584.523 127.36L583.323 134.3H585.723L584.523 127.36ZM599.084 140.88H596.804V139H590.184V125H592.464V136.98H595.484V125H597.764V136.98H599.084V140.88ZM602.478 134.36L605.858 125H608.178V139H606.118V129.6L602.758 139H600.438V125H602.478V134.36ZM612.224 134.36L615.604 125H617.924V139H615.864V129.6L612.504 139H610.184V125H612.224V134.36ZM629.488 138.24C628.861 138.88 627.968 139.2 626.808 139.2C625.648 139.2 624.748 138.88 624.108 138.24C623.481 137.587 623.168 136.673 623.168 135.5V128.5C623.168 127.327 623.481 126.42 624.108 125.78C624.748 125.127 625.648 124.8 626.808 124.8C627.968 124.8 628.861 125.127 629.488 125.78C630.114 126.42 630.428 127.327 630.428 128.5V129.74H628.288V128.4C628.288 127.32 627.814 126.78 626.868 126.78C625.921 126.78 625.448 127.32 625.448 128.4V135.6C625.448 136.68 625.921 137.22 626.868 137.22C627.814 137.22 628.288 136.68 628.288 135.6V133.84H630.428V135.5C630.428 136.673 630.114 137.587 629.488 138.24ZM635.959 139H632.039V125H635.759C637.012 125 637.932 125.273 638.519 125.82C639.119 126.367 639.419 127.207 639.419 128.34V128.76C639.419 130.187 638.866 131.113 637.759 131.54V131.6C639.026 131.987 639.659 133.02 639.659 134.7V135.42C639.659 137.807 638.426 139 635.959 139ZM634.319 127.02V130.74H635.459C636.032 130.74 636.452 130.613 636.719 130.36C636.999 130.093 637.139 129.68 637.139 129.12V128.6C637.139 128.04 637.026 127.64 636.799 127.4C636.572 127.147 636.199 127.02 635.679 127.02H634.319ZM634.319 132.76V136.98H635.959C636.452 136.98 636.812 136.86 637.039 136.62C637.266 136.367 637.379 135.96 637.379 135.4V134.62C637.379 133.927 637.246 133.447 636.979 133.18C636.712 132.9 636.246 132.76 635.579 132.76H634.319ZM641.078 135.44V128.56C641.078 127.36 641.398 126.433 642.038 125.78C642.691 125.127 643.618 124.8 644.818 124.8C646.031 124.8 646.958 125.127 647.598 125.78C648.251 126.433 648.578 127.36 648.578 128.56V135.44C648.578 136.64 648.251 137.567 647.598 138.22C646.944 138.873 646.018 139.2 644.818 139.2C643.618 139.2 642.691 138.873 642.038 138.22C641.398 137.567 641.078 136.64 641.078 135.44ZM644.818 137.18C645.804 137.18 646.298 136.64 646.298 135.56V128.44C646.298 127.36 645.804 126.82 644.818 126.82C643.844 126.82 643.358 127.36 643.358 128.44V135.56C643.358 136.64 643.844 137.18 644.818 137.18ZM652.419 134.36L655.799 125H658.119V139H656.059V129.6L652.699 139H650.379V125H652.419V134.36ZM661.625 139H659.465L662.425 131.82L659.585 125H662.025L663.825 129.7L665.685 125H667.885L665.045 131.82L668.005 139H665.585L663.625 133.94L661.625 139ZM674.802 134.36L678.182 125H680.502V139H678.442V129.6L675.082 139H672.762V125H674.802V134.36ZM690.968 125V136.98H692.168V140.88H689.888V139H684.148V140.88H681.888V136.98H683.188C683.481 136.687 683.648 136.14 683.688 135.34L684.108 125H690.968ZM685.348 136.98H688.688V127.02H686.248L685.968 135.22C685.941 135.94 685.734 136.527 685.348 136.98ZM700.243 139H693.523V125H700.243V127.02H695.803V130.78H699.363V132.8H695.803V136.98H700.243V139ZM705.606 123.86C704.819 123.86 704.199 123.64 703.746 123.2C703.293 122.747 703.053 122.133 703.026 121.36H704.406C704.473 122.027 704.873 122.36 705.606 122.36C706.339 122.36 706.759 122.027 706.866 121.36H708.206C708.179 122.133 707.939 122.747 707.486 123.2C707.033 123.64 706.406 123.86 705.606 123.86ZM703.786 134.36L707.166 125H709.486V139H707.426V129.6L704.066 139H701.746V125H703.786V134.36Z" fill="white"/>
<g filter="url(#filter2_ddddd_201_30451)">
<ellipse cx="58" cy="226.5" rx="22" ry="5.5" fill="#DDBA63"/>
<path d="M57.9985 173.749C52.5304 173.756 47.2882 175.931 43.4216 179.797C39.5551 183.664 37.38 188.906 37.3735 194.374C37.3735 212.022 56.1235 225.352 56.9219 225.911C57.2376 226.131 57.6134 226.249 57.9985 226.249C58.3836 226.249 58.7595 226.131 59.0752 225.911C59.8735 225.352 78.6235 212.022 78.6235 194.374C78.617 188.906 76.442 183.664 72.5754 179.797C68.7089 175.931 63.4666 173.756 57.9985 173.749V173.749ZM57.9999 186.875C59.4833 186.875 60.9333 187.315 62.1667 188.139C63.4001 188.963 64.3613 190.134 64.929 191.505C65.4967 192.875 65.6452 194.383 65.3558 195.838C65.0664 197.293 64.3521 198.629 63.3032 199.678C62.2543 200.727 60.9179 201.442 59.4631 201.731C58.0082 202.02 56.5002 201.872 55.1298 201.304C53.7593 200.736 52.588 199.775 51.7639 198.542C50.9398 197.308 50.4999 195.858 50.4999 194.375C50.4999 193.39 50.6939 192.415 51.0708 191.505C51.4477 190.595 52.0001 189.768 52.6965 189.072C53.393 188.375 54.2198 187.823 55.1297 187.446C56.0397 187.069 57.015 186.875 57.9999 186.875V186.875Z" fill="#FFF9DA"/>
<ellipse cx="58" cy="194.5" rx="13" ry="12.5" fill="#C74403"/>
<path d="M54.6598 198.72V197.58H56.7398V198.82C56.7398 199.74 57.1198 200.2 57.8798 200.2C58.2664 200.2 58.5531 200.08 58.7398 199.84C58.9264 199.6 59.0198 199.193 59.0198 198.62V197.48C59.0198 196.84 58.9064 196.387 58.6798 196.12C58.4531 195.84 58.0864 195.7 57.5798 195.7H56.8398V193.7H57.6398C58.0931 193.7 58.4264 193.587 58.6398 193.36C58.8531 193.12 58.9598 192.74 58.9598 192.22V191.2C58.9598 190.267 58.5931 189.8 57.8598 189.8C57.1531 189.8 56.7998 190.233 56.7998 191.1V192.02H54.7198V191.28C54.7198 190.16 54.9931 189.3 55.5398 188.7C56.0998 188.1 56.8998 187.8 57.9398 187.8C58.9931 187.8 59.7931 188.1 60.3398 188.7C60.8864 189.287 61.1598 190.14 61.1598 191.26V191.76C61.1598 193.253 60.6398 194.193 59.5998 194.58V194.62C60.6798 195.02 61.2198 195.98 61.2198 197.5V198.74C61.2198 199.86 60.9398 200.72 60.3798 201.32C59.8331 201.907 59.0198 202.2 57.9398 202.2C56.8598 202.2 56.0398 201.9 55.4798 201.3C54.9331 200.7 54.6598 199.84 54.6598 198.72Z" fill="white"/>
</g>
<path d="M115.28 193H113V179H120.58V193H118.3V181.02H115.28V193ZM122.39 189.44V182.56C122.39 181.36 122.71 180.433 123.35 179.78C124.004 179.127 124.93 178.8 126.13 178.8C127.344 178.8 128.27 179.127 128.91 179.78C129.564 180.433 129.89 181.36 129.89 182.56V189.44C129.89 190.64 129.564 191.567 128.91 192.22C128.257 192.873 127.33 193.2 126.13 193.2C124.93 193.2 124.004 192.873 123.35 192.22C122.71 191.567 122.39 190.64 122.39 189.44ZM126.13 191.18C127.117 191.18 127.61 190.64 127.61 189.56V182.44C127.61 181.36 127.117 180.82 126.13 180.82C125.157 180.82 124.67 181.36 124.67 182.44V189.56C124.67 190.64 125.157 191.18 126.13 191.18ZM134.911 193.2C133.711 193.2 132.798 192.887 132.171 192.26C131.545 191.62 131.231 190.7 131.231 189.5V188.56H133.371V189.54C133.371 190.633 133.865 191.18 134.851 191.18C135.371 191.18 135.745 191.047 135.971 190.78C136.211 190.5 136.331 190.047 136.331 189.42V188.66C136.331 187.967 136.191 187.473 135.911 187.18C135.645 186.873 135.198 186.72 134.571 186.72H133.711V184.7H134.631C135.725 184.7 136.271 184.133 136.271 183V182.38C136.271 181.34 135.798 180.82 134.851 180.82C133.918 180.82 133.451 181.32 133.451 182.32V183.02H131.311V182.5C131.311 181.3 131.618 180.387 132.231 179.76C132.845 179.12 133.745 178.8 134.931 178.8C136.105 178.8 136.998 179.107 137.611 179.72C138.225 180.333 138.531 181.22 138.531 182.38V182.76C138.531 184.213 137.938 185.153 136.751 185.58V185.6C137.978 186.027 138.591 187.053 138.591 188.68V189.48C138.591 191.96 137.365 193.2 134.911 193.2ZM140.066 189.44V182.56C140.066 181.36 140.386 180.433 141.026 179.78C141.679 179.127 142.606 178.8 143.806 178.8C145.019 178.8 145.946 179.127 146.586 179.78C147.239 180.433 147.566 181.36 147.566 182.56V189.44C147.566 190.64 147.239 191.567 146.586 192.22C145.933 192.873 145.006 193.2 143.806 193.2C142.606 193.2 141.679 192.873 141.026 192.22C140.386 191.567 140.066 190.64 140.066 189.44ZM143.806 191.18C144.793 191.18 145.286 190.64 145.286 189.56V182.44C145.286 181.36 144.793 180.82 143.806 180.82C142.833 180.82 142.346 181.36 142.346 182.44V189.56C142.346 190.64 142.833 191.18 143.806 191.18ZM153.287 193H149.367V179H153.087C154.341 179 155.261 179.273 155.847 179.82C156.447 180.367 156.747 181.207 156.747 182.34V182.76C156.747 184.187 156.194 185.113 155.087 185.54V185.6C156.354 185.987 156.987 187.02 156.987 188.7V189.42C156.987 191.807 155.754 193 153.287 193ZM151.647 181.02V184.74H152.787C153.361 184.74 153.781 184.613 154.047 184.36C154.327 184.093 154.467 183.68 154.467 183.12V182.6C154.467 182.04 154.354 181.64 154.127 181.4C153.901 181.147 153.527 181.02 153.007 181.02H151.647ZM151.647 186.76V190.98H153.287C153.781 190.98 154.141 190.86 154.367 190.62C154.594 190.367 154.707 189.96 154.707 189.4V188.62C154.707 187.927 154.574 187.447 154.307 187.18C154.041 186.9 153.574 186.76 152.907 186.76H151.647ZM160.626 188.36L164.006 179H166.326V193H164.266V183.6L160.906 193H158.586V179H160.626V188.36ZM180.21 179V190.98H181.41V194.88H179.13V193H173.39V194.88H171.13V190.98H172.43C172.723 190.687 172.89 190.14 172.93 189.34L173.35 179H180.21ZM174.59 190.98H177.93V181.02H175.49L175.21 189.22C175.183 189.94 174.977 190.527 174.59 190.98ZM185.046 193H182.766V179H186.386C188.839 179 190.066 180.213 190.066 182.64V183.68C190.066 186.107 188.839 187.32 186.386 187.32H185.046V193ZM185.046 181.02V185.32H186.386C186.879 185.32 187.232 185.2 187.446 184.96C187.672 184.707 187.786 184.3 187.786 183.74V182.56C187.786 182 187.672 181.607 187.446 181.38C187.232 181.14 186.879 181.02 186.386 181.02H185.046ZM195.06 186.56L196.86 179H199.04L196.02 190.62C195.78 191.54 195.4 192.2 194.88 192.6C194.36 193 193.627 193.2 192.68 193.2C192.134 193.2 191.674 193.127 191.3 192.98V191.02C191.62 191.127 191.967 191.18 192.34 191.18C192.767 191.18 193.087 191.12 193.3 191C193.514 190.867 193.674 190.64 193.78 190.32L193.88 189.96L190.72 179H193.08L195.06 186.56ZM203.329 193.2C202.129 193.2 201.216 192.887 200.589 192.26C199.963 191.62 199.649 190.7 199.649 189.5V188.56H201.789V189.54C201.789 190.633 202.283 191.18 203.269 191.18C203.789 191.18 204.163 191.047 204.389 190.78C204.629 190.5 204.749 190.047 204.749 189.42V188.66C204.749 187.967 204.609 187.473 204.329 187.18C204.063 186.873 203.616 186.72 202.989 186.72H202.129V184.7H203.049C204.143 184.7 204.689 184.133 204.689 183V182.38C204.689 181.34 204.216 180.82 203.269 180.82C202.336 180.82 201.869 181.32 201.869 182.32V183.02H199.729V182.5C199.729 181.3 200.036 180.387 200.649 179.76C201.263 179.12 202.163 178.8 203.349 178.8C204.523 178.8 205.416 179.107 206.029 179.72C206.643 180.333 206.949 181.22 206.949 182.38V182.76C206.949 184.213 206.356 185.153 205.169 185.58V185.6C206.396 186.027 207.009 187.053 207.009 188.68V189.48C207.009 191.96 205.783 193.2 203.329 193.2ZM215.384 193H208.664V179H215.384V181.02H210.944V184.78H214.504V186.8H210.944V190.98H215.384V193ZM220.747 177.86C219.96 177.86 219.34 177.64 218.887 177.2C218.433 176.747 218.193 176.133 218.167 175.36H219.547C219.613 176.027 220.013 176.36 220.747 176.36C221.48 176.36 221.9 176.027 222.007 175.36H223.347C223.32 176.133 223.08 176.747 222.627 177.2C222.173 177.64 221.547 177.86 220.747 177.86ZM218.927 188.36L222.307 179H224.627V193H222.567V183.6L219.207 193H216.887V179H218.927V188.36ZM232.331 193H230.051V179H237.631V193H235.351V181.02H232.331V193ZM239.441 189.44V182.56C239.441 181.36 239.761 180.433 240.401 179.78C241.054 179.127 241.981 178.8 243.181 178.8C244.394 178.8 245.321 179.127 245.961 179.78C246.614 180.433 246.941 181.36 246.941 182.56V189.44C246.941 190.64 246.614 191.567 245.961 192.22C245.308 192.873 244.381 193.2 243.181 193.2C241.981 193.2 241.054 192.873 240.401 192.22C239.761 191.567 239.441 190.64 239.441 189.44ZM243.181 191.18C244.168 191.18 244.661 190.64 244.661 189.56V182.44C244.661 181.36 244.168 180.82 243.181 180.82C242.208 180.82 241.721 181.36 241.721 182.44V189.56C241.721 190.64 242.208 191.18 243.181 191.18ZM257.105 179V190.98H258.305V194.88H256.025V193H250.285V194.88H248.025V190.98H249.325C249.618 190.687 249.785 190.14 249.825 189.34L250.245 179H257.105ZM251.485 190.98H254.825V181.02H252.385L252.105 189.22C252.078 189.94 251.871 190.527 251.485 190.98ZM268.12 179V190.98H269.32V194.88H267.04V193H261.3V194.88H259.04V190.98H260.34C260.633 190.687 260.8 190.14 260.84 189.34L261.26 179H268.12ZM262.5 190.98H265.84V181.02H263.4L263.12 189.22C263.093 189.94 262.887 190.527 262.5 190.98ZM277.396 193H270.676V179H277.396V181.02H272.956V184.78H276.516V186.8H272.956V190.98H277.396V193ZM281.178 193H278.898V179H282.518C284.972 179 286.198 180.213 286.198 182.64V183.68C286.198 186.107 284.972 187.32 282.518 187.32H281.178V193ZM281.178 181.02V185.32H282.518C283.012 185.32 283.365 185.2 283.578 184.96C283.805 184.707 283.918 184.3 283.918 183.74V182.56C283.918 182 283.805 181.607 283.578 181.38C283.365 181.14 283.012 181.02 282.518 181.02H281.178ZM299.861 193H297.581L295.421 186.2L294.321 188.1V193H292.041V188.1L290.941 186.2L288.781 193H286.481L289.441 184.2L286.521 179H288.881L292.041 185.06V179H294.321V185.06L297.501 179H299.821L296.921 184.22L299.861 193ZM309.023 193H306.703L306.243 190.28H303.163L302.683 193H300.563L303.243 179H306.323L309.023 193ZM304.703 181.36L303.503 188.3H305.903L304.703 181.36ZM313.57 193H311.31V181.02H308.63V179H316.25V181.02H313.57V193ZM321.269 193H317.629V179H319.909V184.4H321.269C323.722 184.4 324.949 185.633 324.949 188.1V189.3C324.949 191.767 323.722 193 321.269 193ZM319.909 186.42V190.98H321.269C321.749 190.98 322.102 190.86 322.329 190.62C322.556 190.367 322.669 189.967 322.669 189.42V187.98C322.669 187.433 322.556 187.04 322.329 186.8C322.102 186.547 321.749 186.42 321.269 186.42H319.909ZM117.32 223H115.06V211.02H112.38V209H120V211.02H117.32V223ZM125.299 223H121.379V209H125.099C126.352 209 127.272 209.273 127.859 209.82C128.459 210.367 128.759 211.207 128.759 212.34V212.76C128.759 214.187 128.206 215.113 127.099 215.54V215.6C128.366 215.987 128.999 217.02 128.999 218.7V219.42C128.999 221.807 127.766 223 125.299 223ZM123.659 211.02V214.74H124.799C125.372 214.74 125.792 214.613 126.059 214.36C126.339 214.093 126.479 213.68 126.479 213.12V212.6C126.479 212.04 126.366 211.64 126.139 211.4C125.912 211.147 125.539 211.02 125.019 211.02H123.659ZM123.659 216.76V220.98H125.299C125.792 220.98 126.152 220.86 126.379 220.62C126.606 220.367 126.719 219.96 126.719 219.4V218.62C126.719 217.927 126.586 217.447 126.319 217.18C126.052 216.9 125.586 216.76 124.919 216.76H123.659ZM130.418 219.44V212.56C130.418 211.36 130.738 210.433 131.378 209.78C132.031 209.127 132.958 208.8 134.158 208.8C135.371 208.8 136.298 209.127 136.938 209.78C137.591 210.433 137.918 211.36 137.918 212.56V219.44C137.918 220.64 137.591 221.567 136.938 222.22C136.284 222.873 135.358 223.2 134.158 223.2C132.958 223.2 132.031 222.873 131.378 222.22C130.738 221.567 130.418 220.64 130.418 219.44ZM134.158 221.18C135.144 221.18 135.638 220.64 135.638 219.56V212.44C135.638 211.36 135.144 210.82 134.158 210.82C133.184 210.82 132.698 211.36 132.698 212.44V219.56C132.698 220.64 133.184 221.18 134.158 221.18ZM141.759 218.36L145.139 209H147.459V223H145.399V213.6L142.039 223H139.719V209H141.759V218.36ZM152.703 219.44V212.56C152.703 211.36 153.023 210.433 153.663 209.78C154.316 209.127 155.243 208.8 156.443 208.8C157.656 208.8 158.583 209.127 159.223 209.78C159.876 210.433 160.203 211.36 160.203 212.56V219.44C160.203 220.64 159.876 221.567 159.223 222.22C158.569 222.873 157.643 223.2 156.443 223.2C155.243 223.2 154.316 222.873 153.663 222.22C153.023 221.567 152.703 220.64 152.703 219.44ZM156.443 221.18C157.429 221.18 157.923 220.64 157.923 219.56V212.44C157.923 211.36 157.429 210.82 156.443 210.82C155.469 210.82 154.983 211.36 154.983 212.44V219.56C154.983 220.64 155.469 221.18 156.443 221.18ZM166.246 223H163.986V211.02H161.306V209H168.926V211.02H166.246V223ZM178.405 223H176.005L173.785 216.6L172.585 218.58V223H170.305V209H172.585V215.16L176.045 209H178.365L175.325 214.2L178.405 223ZM182.018 223H179.738V209H183.358C185.812 209 187.038 210.213 187.038 212.64V213.68C187.038 216.107 185.812 217.32 183.358 217.32H182.018V223ZM182.018 211.02V215.32H183.358C183.852 215.32 184.205 215.2 184.418 214.96C184.645 214.707 184.758 214.3 184.758 213.74V212.56C184.758 212 184.645 211.607 184.418 211.38C184.205 211.14 183.852 211.02 183.358 211.02H182.018ZM192.187 223H188.547V209H190.827V214.4H192.187C194.64 214.4 195.867 215.633 195.867 218.1V219.3C195.867 221.767 194.64 223 192.187 223ZM199.667 223H197.387V209H199.667V223ZM190.827 216.42V220.98H192.187C192.667 220.98 193.02 220.86 193.247 220.62C193.474 220.367 193.587 219.967 193.587 219.42V217.98C193.587 217.433 193.474 217.04 193.247 216.8C193.02 216.547 192.667 216.42 192.187 216.42H190.827ZM205.992 223H203.732V211.02H201.052V209H208.672V211.02H205.992V223ZM212.091 218.36L215.471 209H217.791V223H215.731V213.6L212.371 223H210.051V209H212.091V218.36ZM226.997 209V223H224.717V217.08H223.677C223.037 217.08 222.584 217.22 222.317 217.5C222.064 217.78 221.937 218.267 221.937 218.96V221.16C221.937 221.947 221.864 222.56 221.717 223H219.417C219.59 222.573 219.677 221.967 219.677 221.18V219.1C219.677 218.18 219.81 217.473 220.077 216.98C220.344 216.473 220.777 216.133 221.377 215.96V215.9C220.257 215.487 219.697 214.533 219.697 213.04V212.36C219.697 211.213 219.99 210.367 220.577 209.82C221.177 209.273 222.104 209 223.357 209H226.997ZM223.637 215.06H224.717V211.02H223.397C222.904 211.02 222.544 211.147 222.317 211.4C222.09 211.653 221.977 212.053 221.977 212.6V213.4C221.977 213.987 222.11 214.413 222.377 214.68C222.644 214.933 223.064 215.06 223.637 215.06Z" fill="white"/>
<path opacity="0.4" d="M310 24.4374C343.867 17.0193 426.613 7.26641 396.477 39.1948C366.341 71.1232 437 29.1199 437 71" stroke="#FFF8D9" stroke-width="2" stroke-linecap="round" stroke-dasharray="6 6"/>
<path opacity="0.4" d="M390 111.389C358.187 102.283 322.383 135.375 254.851 111.389C187.319 87.4027 118.742 137.344 123.207 156" stroke="#FFF8D9" stroke-width="2" stroke-linecap="round" stroke-dasharray="6 6"/>
<path opacity="0.4" d="M358 186C565.656 186 263.266 224 431.513 224" stroke="#FFF8D9" stroke-width="2" stroke-linecap="round" stroke-dasharray="6 6"/>
<defs>
<filter id="filter0_ddddd_201_30451" x="0" y="0" width="114" height="109" filterUnits="userSpaceOnUse" color-interpolation-filters="sRGB">
<feFlood flood-opacity="0" result="BackgroundImageFix"/>
<feColorMatrix in="SourceAlpha" type="matrix" values="0 0 0 0 0 0 0 0 0 0 0 0 0 0 0 0 0 0 127 0" result="hardAlpha"/>
<feOffset/>
<feColorMatrix type="matrix" values="0 0 0 0 0.0745098 0 0 0 0 0.12549 0 0 0 0 0.0823529 0 0 0 0.2 0"/>
<feBlend mode="normal" in2="BackgroundImageFix" result="effect1_dropShadow_201_30451"/>
<feColorMatrix in="SourceAlpha" type="matrix" values="0 0 0 0 0 0 0 0 0 0 0 0 0 0 0 0 0 0 127 0" result="hardAlpha"/>
<feOffset dx="2" dy="2"/>
<feGaussianBlur stdDeviation="3"/>
<feColorMatrix type="matrix" values="0 0 0 0 0.0745098 0 0 0 0 0.12549 0 0 0 0 0.0823529 0 0 0 0.2 0"/>
<feBlend mode="normal" in2="effect1_dropShadow_201_30451" result="effect2_dropShadow_201_30451"/>
<feColorMatrix in="SourceAlpha" type="matrix" values="0 0 0 0 0 0 0 0 0 0 0 0 0 0 0 0 0 0 127 0" result="hardAlpha"/>
<feOffset dx="8" dy="7"/>
<feGaussianBlur stdDeviation="5"/>
<feColorMatrix type="matrix" values="0 0 0 0 0.0745098 0 0 0 0 0.12549 0 0 0 0 0.0823529 0 0 0 0.17 0"/>
<feBlend mode="normal" in2="effect2_dropShadow_201_30451" result="effect3_dropShadow_201_30451"/>
<feColorMatrix in="SourceAlpha" type="matrix" values="0 0 0 0 0 0 0 0 0 0 0 0 0 0 0 0 0 0 127 0" result="hardAlpha"/>
<feOffset dx="18" dy="15"/>
<feGaussianBlur stdDeviation="7"/>
<feColorMatrix type="matrix" values="0 0 0 0 0.0745098 0 0 0 0 0.12549 0 0 0 0 0.0823529 0 0 0 0.1 0"/>
<feBlend mode="normal" in2="effect3_dropShadow_201_30451" result="effect4_dropShadow_201_30451"/>
<feColorMatrix in="SourceAlpha" type="matrix" values="0 0 0 0 0 0 0 0 0 0 0 0 0 0 0 0 0 0 127 0" result="hardAlpha"/>
<feOffset dx="33" dy="26"/>
<feGaussianBlur stdDeviation="8.5"/>
<feColorMatrix type="matrix" values="0 0 0 0 0.0745098 0 0 0 0 0.12549 0 0 0 0 0.0823529 0 0 0 0.03 0"/>
<feBlend mode="normal" in2="effect4_dropShadow_201_30451" result="effect5_dropShadow_201_30451"/>
<feBlend mode="normal" in="SourceGraphic" in2="effect5_dropShadow_201_30451" result="shape"/>
</filter>
<filter id="filter1_ddddd_201_30451" x="403" y="82" width="114" height="109" filterUnits="userSpaceOnUse" color-interpolation-filters="sRGB">
<feFlood flood-opacity="0" result="BackgroundImageFix"/>
<feColorMatrix in="SourceAlpha" type="matrix" values="0 0 0 0 0 0 0 0 0 0 0 0 0 0 0 0 0 0 127 0" result="hardAlpha"/>
<feOffset/>
<feColorMatrix type="matrix" values="0 0 0 0 0.0745098 0 0 0 0 0.12549 0 0 0 0 0.0823529 0 0 0 0.2 0"/>
<feBlend mode="normal" in2="BackgroundImageFix" result="effect1_dropShadow_201_30451"/>
<feColorMatrix in="SourceAlpha" type="matrix" values="0 0 0 0 0 0 0 0 0 0 0 0 0 0 0 0 0 0 127 0" result="hardAlpha"/>
<feOffset dx="2" dy="2"/>
<feGaussianBlur stdDeviation="3"/>
<feColorMatrix type="matrix" values="0 0 0 0 0.0745098 0 0 0 0 0.12549 0 0 0 0 0.0823529 0 0 0 0.2 0"/>
<feBlend mode="normal" in2="effect1_dropShadow_201_30451" result="effect2_dropShadow_201_30451"/>
<feColorMatrix in="SourceAlpha" type="matrix" values="0 0 0 0 0 0 0 0 0 0 0 0 0 0 0 0 0 0 127 0" result="hardAlpha"/>
<feOffset dx="8" dy="7"/>
<feGaussianBlur stdDeviation="5"/>
<feColorMatrix type="matrix" values="0 0 0 0 0.0745098 0 0 0 0 0.12549 0 0 0 0 0.0823529 0 0 0 0.17 0"/>
<feBlend mode="normal" in2="effect2_dropShadow_201_30451" result="effect3_dropShadow_201_30451"/>
<feColorMatrix in="SourceAlpha" type="matrix" values="0 0 0 0 0 0 0 0 0 0 0 0 0 0 0 0 0 0 127 0" result="hardAlpha"/>
<feOffset dx="18" dy="15"/>
<feGaussianBlur stdDeviation="7"/>
<feColorMatrix type="matrix" values="0 0 0 0 0.0745098 0 0 0 0 0.12549 0 0 0 0 0.0823529 0 0 0 0.1 0"/>
<feBlend mode="normal" in2="effect3_dropShadow_201_30451" result="effect4_dropShadow_201_30451"/>
<feColorMatrix in="SourceAlpha" type="matrix" values="0 0 0 0 0 0 0 0 0 0 0 0 0 0 0 0 0 0 127 0" result="hardAlpha"/>
<feOffset dx="33" dy="26"/>
<feGaussianBlur stdDeviation="8.5"/>
<feColorMatrix type="matrix" values="0 0 0 0 0.0745098 0 0 0 0 0.12549 0 0 0 0 0.0823529 0 0 0 0.03 0"/>
<feBlend mode="normal" in2="effect4_dropShadow_201_30451" result="effect5_dropShadow_201_30451"/>
<feBlend mode="normal" in="SourceGraphic" in2="effect5_dropShadow_201_30451" result="shape"/>
</filter>
<filter id="filter2_ddddd_201_30451" x="24" y="166" width="114" height="109" filterUnits="userSpaceOnUse" color-interpolation-filters="sRGB">
<feFlood flood-opacity="0" result="BackgroundImageFix"/>
<feColorMatrix in="SourceAlpha" type="matrix" values="0 0 0 0 0 0 0 0 0 0 0 0 0 0 0 0 0 0 127 0" result="hardAlpha"/>
<feOffset/>
<feColorMatrix type="matrix" values="0 0 0 0 0.0745098 0 0 0 0 0.12549 0 0 0 0 0.0823529 0 0 0 0.2 0"/>
<feBlend mode="normal" in2="BackgroundImageFix" result="effect1_dropShadow_201_30451"/>
<feColorMatrix in="SourceAlpha" type="matrix" values="0 0 0 0 0 0 0 0 0 0 0 0 0 0 0 0 0 0 127 0" result="hardAlpha"/>
<feOffset dx="2" dy="2"/>
<feGaussianBlur stdDeviation="3"/>
<feColorMatrix type="matrix" values="0 0 0 0 0.0745098 0 0 0 0 0.12549 0 0 0 0 0.0823529 0 0 0 0.2 0"/>
<feBlend mode="normal" in2="effect1_dropShadow_201_30451" result="effect2_dropShadow_201_30451"/>
<feColorMatrix in="SourceAlpha" type="matrix" values="0 0 0 0 0 0 0 0 0 0 0 0 0 0 0 0 0 0 127 0" result="hardAlpha"/>
<feOffset dx="8" dy="7"/>
<feGaussianBlur stdDeviation="5"/>
<feColorMatrix type="matrix" values="0 0 0 0 0.0745098 0 0 0 0 0.12549 0 0 0 0 0.0823529 0 0 0 0.17 0"/>
<feBlend mode="normal" in2="effect2_dropShadow_201_30451" result="effect3_dropShadow_201_30451"/>
<feColorMatrix in="SourceAlpha" type="matrix" values="0 0 0 0 0 0 0 0 0 0 0 0 0 0 0 0 0 0 127 0" result="hardAlpha"/>
<feOffset dx="18" dy="15"/>
<feGaussianBlur stdDeviation="7"/>
<feColorMatrix type="matrix" values="0 0 0 0 0.0745098 0 0 0 0 0.12549 0 0 0 0 0.0823529 0 0 0 0.1 0"/>
<feBlend mode="normal" in2="effect3_dropShadow_201_30451" result="effect4_dropShadow_201_30451"/>
<feColorMatrix in="SourceAlpha" type="matrix" values="0 0 0 0 0 0 0 0 0 0 0 0 0 0 0 0 0 0 127 0" result="hardAlpha"/>
<feOffset dx="33" dy="26"/>
<feGaussianBlur stdDeviation="8.5"/>
<feColorMatrix type="matrix" values="0 0 0 0 0.0745098 0 0 0 0 0.12549 0 0 0 0 0.0823529 0 0 0 0.03 0"/>
<feBlend mode="normal" in2="effect4_dropShadow_201_30451" result="effect5_dropShadow_201_30451"/>
<feBlend mode="normal" in="SourceGraphic" in2="effect5_dropShadow_201_30451" result="shape"/>
</filter>
</defs>
</svg>
