<svg width="922" height="522" viewBox="0 0 922 522" fill="none" xmlns="http://www.w3.org/2000/svg">
<g filter="url(#filter0_ddddd_201_30449)">
<ellipse cx="170" cy="79.5" rx="29" ry="7.5" fill="#DDBA63"/>
<path d="M169.998 8.99915C162.707 9.0078 155.718 11.9079 150.562 17.0633C145.407 22.2186 142.507 29.2083 142.498 36.4991C142.498 60.0294 167.498 77.8029 168.562 78.5475C168.983 78.8415 169.485 78.9991 169.998 78.9991C170.512 78.9991 171.013 78.8415 171.434 78.5475C172.498 77.8029 197.498 60.0294 197.498 36.4991C197.489 29.2083 194.589 22.2186 189.434 17.0633C184.279 11.9079 177.289 9.0078 169.998 8.99915V8.99915ZM170 26.5001C171.978 26.5001 173.911 27.0865 175.556 28.1854C177.2 29.2842 178.482 30.846 179.239 32.6732C179.996 34.5005 180.194 36.5111 179.808 38.451C179.422 40.3908 178.469 42.1726 177.071 43.5711C175.672 44.9696 173.891 45.9221 171.951 46.3079C170.011 46.6938 168 46.4957 166.173 45.7388C164.346 44.982 162.784 43.7002 161.685 42.0558C160.586 40.4113 160 38.4779 160 36.5001C160 35.1868 160.258 33.8864 160.761 32.6732C161.264 31.4599 162 30.3575 162.929 29.4289C163.857 28.5003 164.96 27.7637 166.173 27.2612C167.386 26.7586 168.687 26.5 170 26.5001V26.5001Z" fill="#FFF9DA"/>
<circle cx="170" cy="37" r="17" fill="#C74403"/>
<path d="M172.34 45H169.7V32.184H166.94V30.312C168.044 30.312 168.844 30.168 169.34 29.88C169.852 29.56 170.26 29 170.564 28.2H172.34V45Z" fill="white"/>
</g>
<path d="M237.936 36.5H235.2V19.7H239.544C242.488 19.7 243.96 21.156 243.96 24.068V25.316C243.96 28.228 242.488 29.684 239.544 29.684H237.936V36.5ZM237.936 22.124V27.284H239.544C240.136 27.284 240.56 27.14 240.816 26.852C241.088 26.548 241.224 26.06 241.224 25.388V23.972C241.224 23.3 241.088 22.828 240.816 22.556C240.56 22.268 240.136 22.124 239.544 22.124H237.936ZM254.193 36.5H251.409L250.857 33.236H247.161L246.585 36.5H244.041L247.257 19.7H250.953L254.193 36.5ZM249.009 22.532L247.569 30.86H250.449L249.009 22.532ZM263.052 35.588C262.3 36.356 261.228 36.74 259.836 36.74C258.444 36.74 257.364 36.356 256.596 35.588C255.844 34.804 255.468 33.708 255.468 32.3V23.9C255.468 22.492 255.844 21.404 256.596 20.636C257.364 19.852 258.444 19.46 259.836 19.46C261.228 19.46 262.3 19.852 263.052 20.636C263.804 21.404 264.18 22.492 264.18 23.9V25.388H261.612V23.78C261.612 22.484 261.044 21.836 259.908 21.836C258.772 21.836 258.204 22.484 258.204 23.78V32.42C258.204 33.716 258.772 34.364 259.908 34.364C261.044 34.364 261.612 33.716 261.612 32.42V30.308H264.18V32.3C264.18 33.708 263.804 34.804 263.052 35.588ZM273.506 35.588C272.754 36.356 271.682 36.74 270.29 36.74C268.898 36.74 267.818 36.356 267.05 35.588C266.298 34.804 265.922 33.708 265.922 32.3V23.9C265.922 22.492 266.298 21.404 267.05 20.636C267.818 19.852 268.898 19.46 270.29 19.46C271.682 19.46 272.754 19.852 273.506 20.636C274.258 21.404 274.634 22.492 274.634 23.9V25.388H272.066V23.78C272.066 22.484 271.498 21.836 270.362 21.836C269.226 21.836 268.658 22.484 268.658 23.78V32.42C268.658 33.716 269.226 34.364 270.362 34.364C271.498 34.364 272.066 33.716 272.066 32.42V30.308H274.634V32.3C274.634 33.708 274.258 34.804 273.506 35.588ZM286.287 36.5H283.407L280.743 28.82L279.303 31.196V36.5H276.567V19.7H279.303V27.092L283.455 19.7H286.239L282.591 25.94L286.287 36.5ZM297.272 36.5H294.488L293.936 33.236H290.24L289.664 36.5H287.12L290.336 19.7H294.032L297.272 36.5ZM292.088 22.532L290.648 30.86H293.528L292.088 22.532ZM314.144 36.5H311.408L308.816 28.34L307.496 30.62V36.5H304.76V30.62L303.44 28.34L300.848 36.5H298.088L301.64 25.94L298.136 19.7H300.968L304.76 26.972V19.7H307.496V26.972L311.312 19.7H314.096L310.616 25.964L314.144 36.5ZM318.203 30.932L322.259 19.7H325.043V36.5H322.571V25.22L318.539 36.5H315.755V19.7H318.203V30.932ZM328.674 39.284H327.426L328.506 36.5H327.546V33.62H330.282V36.212L328.674 39.284ZM342.872 25.796V19.7H345.608V36.5H342.872V29.492C342.168 30.212 341.216 30.572 340.016 30.572C337.648 30.572 336.464 29.22 336.464 26.516V19.7H339.176V26.156C339.176 27.452 339.736 28.1 340.856 28.1C341.496 28.1 341.992 27.908 342.344 27.524C342.696 27.124 342.872 26.548 342.872 25.796ZM353.189 36.5H350.477V22.124H347.261V19.7H356.405V22.124H353.189V36.5ZM357.75 32.228V23.972C357.75 22.532 358.134 21.42 358.902 20.636C359.686 19.852 360.798 19.46 362.238 19.46C363.694 19.46 364.806 19.852 365.574 20.636C366.358 21.42 366.75 22.532 366.75 23.972V32.228C366.75 33.668 366.358 34.78 365.574 35.564C364.79 36.348 363.678 36.74 362.238 36.74C360.798 36.74 359.686 36.348 358.902 35.564C358.134 34.78 357.75 33.668 357.75 32.228ZM362.238 34.316C363.422 34.316 364.014 33.668 364.014 32.372V23.828C364.014 22.532 363.422 21.884 362.238 21.884C361.07 21.884 360.486 22.532 360.486 23.828V32.372C360.486 33.668 361.07 34.316 362.238 34.316ZM375.749 36.5H373.013V19.7H375.749V26.636H379.373V19.7H382.109V36.5H379.373V29.06H375.749V36.5ZM384.281 32.228V23.972C384.281 22.532 384.665 21.42 385.433 20.636C386.217 19.852 387.329 19.46 388.769 19.46C390.225 19.46 391.337 19.852 392.105 20.636C392.889 21.42 393.281 22.532 393.281 23.972V32.228C393.281 33.668 392.889 34.78 392.105 35.564C391.321 36.348 390.209 36.74 388.769 36.74C387.329 36.74 386.217 36.348 385.433 35.564C384.665 34.78 384.281 33.668 384.281 32.228ZM388.769 34.316C389.953 34.316 390.545 33.668 390.545 32.372V23.828C390.545 22.532 389.953 21.884 388.769 21.884C387.601 21.884 387.017 22.532 387.017 23.828V32.372C387.017 33.668 387.601 34.316 388.769 34.316ZM400.146 36.5H395.442V19.7H399.906C401.41 19.7 402.514 20.028 403.218 20.684C403.938 21.34 404.298 22.348 404.298 23.708V24.212C404.298 25.924 403.634 27.036 402.306 27.548V27.62C403.826 28.084 404.586 29.324 404.586 31.34V32.204C404.586 35.068 403.106 36.5 400.146 36.5ZM398.178 22.124V26.588H399.546C400.234 26.588 400.738 26.436 401.058 26.132C401.394 25.812 401.562 25.316 401.562 24.644V24.02C401.562 23.348 401.426 22.868 401.154 22.58C400.882 22.276 400.434 22.124 399.81 22.124H398.178ZM398.178 29.012V34.076H400.146C400.738 34.076 401.17 33.932 401.442 33.644C401.714 33.34 401.85 32.852 401.85 32.18V31.244C401.85 30.412 401.69 29.836 401.37 29.516C401.05 29.18 400.49 29.012 399.69 29.012H398.178ZM406.289 32.228V23.972C406.289 22.532 406.673 21.42 407.441 20.636C408.225 19.852 409.337 19.46 410.777 19.46C412.233 19.46 413.345 19.852 414.113 20.636C414.897 21.42 415.289 22.532 415.289 23.972V32.228C415.289 33.668 414.897 34.78 414.113 35.564C413.329 36.348 412.217 36.74 410.777 36.74C409.337 36.74 408.225 36.348 407.441 35.564C406.673 34.78 406.289 33.668 406.289 32.228ZM410.777 34.316C411.961 34.316 412.553 33.668 412.553 32.372V23.828C412.553 22.532 411.961 21.884 410.777 21.884C409.609 21.884 409.025 22.532 409.025 23.828V32.372C409.025 33.668 409.609 34.316 410.777 34.316ZM420.186 36.5H417.45V19.7H424.986V22.124H420.186V36.5ZM426.351 32.228V23.972C426.351 22.532 426.735 21.42 427.503 20.636C428.287 19.852 429.399 19.46 430.839 19.46C432.295 19.46 433.407 19.852 434.175 20.636C434.959 21.42 435.351 22.532 435.351 23.972V32.228C435.351 33.668 434.959 34.78 434.175 35.564C433.391 36.348 432.279 36.74 430.839 36.74C429.399 36.74 428.287 36.348 427.503 35.564C426.735 34.78 426.351 33.668 426.351 32.228ZM430.839 34.316C432.023 34.316 432.615 33.668 432.615 32.372V23.828C432.615 22.532 432.023 21.884 430.839 21.884C429.671 21.884 429.087 22.532 429.087 23.828V32.372C429.087 33.668 429.671 34.316 430.839 34.316ZM240.384 72.5H237.672V58.124H234.456V55.7H243.6V58.124H240.384V72.5ZM249.623 72.5H245.255V55.7H247.991V62.18H249.623C252.567 62.18 254.039 63.66 254.039 66.62V68.06C254.039 71.02 252.567 72.5 249.623 72.5ZM258.599 72.5H255.863V55.7H258.599V72.5ZM247.991 64.604V70.076H249.623C250.199 70.076 250.623 69.932 250.895 69.644C251.167 69.34 251.303 68.86 251.303 68.204V66.476C251.303 65.82 251.167 65.348 250.895 65.06C250.623 64.756 250.199 64.604 249.623 64.604H247.991ZM266.906 72.5H264.314L267.866 63.884L264.458 55.7H267.386L269.546 61.34L271.778 55.7H274.418L271.01 63.884L274.562 72.5H271.658L269.306 66.428L266.906 72.5ZM275.507 68.228V59.972C275.507 58.532 275.891 57.42 276.659 56.636C277.443 55.852 278.555 55.46 279.995 55.46C281.451 55.46 282.563 55.852 283.331 56.636C284.115 57.42 284.507 58.532 284.507 59.972V68.228C284.507 69.668 284.115 70.78 283.331 71.564C282.547 72.348 281.435 72.74 279.995 72.74C278.555 72.74 277.443 72.348 276.659 71.564C275.891 70.78 275.507 69.668 275.507 68.228ZM279.995 70.316C281.179 70.316 281.771 69.668 281.771 68.372V59.828C281.771 58.532 281.179 57.884 279.995 57.884C278.827 57.884 278.243 58.532 278.243 59.828V68.372C278.243 69.668 278.827 70.316 279.995 70.316ZM291.759 72.5H289.047V58.124H285.831V55.7H294.975V58.124H291.759V72.5ZM304.694 72.5H296.63V55.7H304.694V58.124H299.366V62.636H303.638V65.06H299.366V70.076H304.694V72.5ZM306.545 72.524C306.209 72.524 305.945 72.492 305.753 72.428V70.052C305.945 70.1 306.129 70.124 306.305 70.124C306.897 70.124 307.305 69.98 307.529 69.692C307.769 69.388 307.905 68.868 307.937 68.132L308.441 55.7H316.649V72.5H313.937V58.124H311.009L310.649 68.204C310.601 69.708 310.257 70.804 309.617 71.492C308.977 72.18 307.953 72.524 306.545 72.524ZM327.721 72.5H323.161V55.7H331.009V58.124H325.897V62.3H327.721C330.665 62.3 332.137 63.78 332.137 66.74V68.06C332.137 71.02 330.665 72.5 327.721 72.5ZM325.897 64.724V70.076H327.721C328.297 70.076 328.721 69.932 328.993 69.644C329.265 69.34 329.401 68.86 329.401 68.204V66.596C329.401 65.94 329.265 65.468 328.993 65.18C328.721 64.876 328.297 64.724 327.721 64.724H325.897ZM338.31 72.5H333.942V55.7H336.678V62.18H338.31C341.254 62.18 342.726 63.66 342.726 66.62V68.06C342.726 71.02 341.254 72.5 338.31 72.5ZM347.286 72.5H344.55V55.7H347.286V72.5ZM336.678 64.604V70.076H338.31C338.886 70.076 339.31 69.932 339.582 69.644C339.854 69.34 339.99 68.86 339.99 68.204V66.476C339.99 65.82 339.854 65.348 339.582 65.06C339.31 64.756 338.886 64.604 338.31 64.604H336.678ZM363.946 55.7V70.076H365.386V74.756H362.65V72.5H355.762V74.756H353.05V70.076H354.61C354.962 69.724 355.162 69.068 355.21 68.108L355.714 55.7H363.946ZM357.202 70.076H361.21V58.124H358.282L357.946 67.964C357.914 68.828 357.666 69.532 357.202 70.076ZM367.061 72.524C366.725 72.524 366.461 72.492 366.269 72.428V70.052C366.461 70.1 366.645 70.124 366.821 70.124C367.413 70.124 367.821 69.98 368.045 69.692C368.285 69.388 368.421 68.868 368.453 68.132L368.957 55.7H377.165V72.5H374.453V58.124H371.525L371.165 68.204C371.117 69.708 370.773 70.804 370.133 71.492C369.493 72.18 368.469 72.524 367.061 72.524ZM388.215 55.7V72.5H385.479V65.396H384.231C383.463 65.396 382.919 65.564 382.599 65.9C382.295 66.236 382.143 66.82 382.143 67.652V70.292C382.143 71.236 382.055 71.972 381.879 72.5H379.119C379.327 71.988 379.431 71.26 379.431 70.316V67.82C379.431 66.716 379.591 65.868 379.911 65.276C380.231 64.668 380.751 64.26 381.471 64.052V63.98C380.127 63.484 379.455 62.34 379.455 60.548V59.732C379.455 58.356 379.807 57.34 380.511 56.684C381.231 56.028 382.343 55.7 383.847 55.7H388.215ZM384.183 62.972H385.479V58.124H383.895C383.303 58.124 382.871 58.276 382.599 58.58C382.327 58.884 382.191 59.364 382.191 60.02V60.98C382.191 61.684 382.351 62.196 382.671 62.516C382.991 62.82 383.495 62.972 384.183 62.972ZM402.084 71.588C401.332 72.356 400.26 72.74 398.868 72.74C397.476 72.74 396.396 72.356 395.628 71.588C394.876 70.804 394.5 69.708 394.5 68.3V59.9C394.5 58.492 394.876 57.404 395.628 56.636C396.396 55.852 397.476 55.46 398.868 55.46C400.26 55.46 401.332 55.852 402.084 56.636C402.836 57.404 403.212 58.492 403.212 59.9V61.388H400.644V59.78C400.644 58.484 400.076 57.836 398.94 57.836C397.804 57.836 397.236 58.484 397.236 59.78V68.42C397.236 69.716 397.804 70.364 398.94 70.364C400.076 70.364 400.644 69.716 400.644 68.42V66.308H403.212V68.3C403.212 69.708 402.836 70.804 402.084 71.588ZM413.209 72.5H405.145V55.7H413.209V58.124H407.881V62.636H412.153V65.06H407.881V70.076H413.209V72.5ZM419.573 72.5H415.013V55.7H422.861V58.124H417.749V62.3H419.573C422.517 62.3 423.989 63.78 423.989 66.74V68.06C423.989 71.02 422.517 72.5 419.573 72.5ZM417.749 64.724V70.076H419.573C420.149 70.076 420.573 69.932 420.845 69.644C421.117 69.34 421.253 68.86 421.253 68.204V66.596C421.253 65.94 421.117 65.468 420.845 65.18C420.573 64.876 420.149 64.724 419.573 64.724H417.749ZM434.434 55.7V72.5H431.698V65.396H430.45C429.682 65.396 429.138 65.564 428.818 65.9C428.514 66.236 428.362 66.82 428.362 67.652V70.292C428.362 71.236 428.274 71.972 428.098 72.5H425.338C425.546 71.988 425.65 71.26 425.65 70.316V67.82C425.65 66.716 425.81 65.868 426.13 65.276C426.45 64.668 426.97 64.26 427.69 64.052V63.98C426.346 63.484 425.674 62.34 425.674 60.548V59.732C425.674 58.356 426.026 57.34 426.73 56.684C427.45 56.028 428.562 55.7 430.066 55.7H434.434ZM430.402 62.972H431.698V58.124H430.114C429.522 58.124 429.09 58.276 428.818 58.58C428.546 58.884 428.41 59.364 428.41 60.02V60.98C428.41 61.684 428.57 62.196 428.89 62.516C429.21 62.82 429.714 62.972 430.402 62.972ZM440.718 68.228V59.972C440.718 58.532 441.102 57.42 441.87 56.636C442.654 55.852 443.766 55.46 445.206 55.46C446.662 55.46 447.774 55.852 448.542 56.636C449.326 57.42 449.718 58.532 449.718 59.972V68.228C449.718 69.668 449.326 70.78 448.542 71.564C447.758 72.348 446.646 72.74 445.206 72.74C443.766 72.74 442.654 72.348 441.87 71.564C441.102 70.78 440.718 69.668 440.718 68.228ZM445.206 70.316C446.39 70.316 446.982 69.668 446.982 68.372V59.828C446.982 58.532 446.39 57.884 445.206 57.884C444.038 57.884 443.454 58.532 443.454 59.828V68.372C443.454 69.668 444.038 70.316 445.206 70.316ZM456.97 72.5H454.258V58.124H451.042V55.7H460.186V58.124H456.97V72.5ZM471.561 72.5H468.681L466.017 64.82L464.577 67.196V72.5H461.841V55.7H464.577V63.092L468.729 55.7H471.513L467.865 61.94L471.561 72.5ZM475.897 72.5H473.161V55.7H477.505C480.449 55.7 481.921 57.156 481.921 60.068V61.316C481.921 64.228 480.449 65.684 477.505 65.684H475.897V72.5ZM475.897 58.124V63.284H477.505C478.097 63.284 478.521 63.14 478.777 62.852C479.049 62.548 479.185 62.06 479.185 61.388V59.972C479.185 59.3 479.049 58.828 478.777 58.556C478.521 58.268 478.097 58.124 477.505 58.124H475.897ZM488.099 72.5H483.731V55.7H486.467V62.18H488.099C491.043 62.18 492.515 63.66 492.515 66.62V68.06C492.515 71.02 491.043 72.5 488.099 72.5ZM497.075 72.5H494.339V55.7H497.075V72.5ZM486.467 64.604V70.076H488.099C488.675 70.076 489.099 69.932 489.371 69.644C489.643 69.34 489.779 68.86 489.779 68.204V66.476C489.779 65.82 489.643 65.348 489.371 65.06C489.099 64.756 488.675 64.604 488.099 64.604H486.467ZM504.665 72.5H501.953V58.124H498.737V55.7H507.881V58.124H504.665V72.5ZM513.904 72.5H509.536V55.7H512.272V62.18H513.904C516.848 62.18 518.32 63.66 518.32 66.62V68.06C518.32 71.02 516.848 72.5 513.904 72.5ZM512.272 64.604V70.076H513.904C514.48 70.076 514.904 69.932 515.176 69.644C515.448 69.34 515.584 68.86 515.584 68.204V66.476C515.584 65.82 515.448 65.348 515.176 65.06C514.904 64.756 514.48 64.604 513.904 64.604H512.272Z" fill="white"/>
<g filter="url(#filter1_ddddd_201_30449)">
<ellipse cx="568" cy="215.5" rx="29" ry="7.5" fill="#DDBA63"/>
<path d="M567.998 144.999C560.707 145.008 553.718 147.908 548.562 153.063C543.407 158.219 540.507 165.208 540.498 172.499C540.498 196.029 565.498 213.803 566.562 214.547C566.983 214.841 567.485 214.999 567.998 214.999C568.512 214.999 569.013 214.841 569.434 214.547C570.498 213.803 595.498 196.029 595.498 172.499C595.489 165.208 592.589 158.219 587.434 153.063C582.279 147.908 575.289 145.008 567.998 144.999V144.999ZM568 162.5C569.978 162.5 571.911 163.086 573.556 164.185C575.2 165.284 576.482 166.846 577.239 168.673C577.996 170.5 578.194 172.511 577.808 174.451C577.422 176.391 576.469 178.173 575.071 179.571C573.672 180.97 571.891 181.922 569.951 182.308C568.011 182.694 566 182.496 564.173 181.739C562.346 180.982 560.784 179.7 559.685 178.056C558.586 176.411 558 174.478 558 172.5C558 171.187 558.258 169.886 558.761 168.673C559.264 167.46 560 166.357 560.929 165.429C561.857 164.5 562.96 163.764 564.173 163.261C565.386 162.759 566.687 162.5 568 162.5V162.5Z" fill="#FFF9DA"/>
<circle cx="568" cy="173" r="17" fill="#C74403"/>
<path d="M571.755 181H564.123V179.176C564.123 177.928 564.315 176.864 564.699 175.984C565.083 175.104 565.771 174.144 566.763 173.104C567.787 172 568.467 171.128 568.803 170.488C569.171 169.784 569.355 169.048 569.355 168.28C569.355 167.576 569.243 167.08 569.019 166.792C568.795 166.504 568.451 166.36 567.987 166.36C567.075 166.36 566.619 166.912 566.619 168.016V169.816H564.123V168.184C564.123 166.824 564.459 165.784 565.131 165.064C565.803 164.328 566.779 163.96 568.059 163.96C569.339 163.96 570.315 164.328 570.987 165.064C571.659 165.784 571.995 166.824 571.995 168.184C571.995 169.224 571.747 170.216 571.251 171.16C570.755 172.136 569.915 173.248 568.731 174.496C567.963 175.312 567.435 175.984 567.147 176.512C566.875 177.04 566.739 177.616 566.739 178.24V178.6H571.755V181Z" fill="white"/>
</g>
<path d="M637.688 164.772L639.848 155.7H642.464L638.84 169.644C638.552 170.748 638.096 171.54 637.472 172.02C636.848 172.5 635.968 172.74 634.832 172.74C634.176 172.74 633.624 172.652 633.176 172.476V170.124C633.56 170.252 633.976 170.316 634.424 170.316C634.936 170.316 635.32 170.244 635.576 170.1C635.832 169.94 636.024 169.668 636.152 169.284L636.272 168.852L632.48 155.7H635.312L637.688 164.772ZM649.981 161.796V155.7H652.717V172.5H649.981V165.492C649.277 166.212 648.325 166.572 647.125 166.572C644.757 166.572 643.573 165.22 643.573 162.516V155.7H646.285V162.156C646.285 163.452 646.845 164.1 647.965 164.1C648.605 164.1 649.101 163.908 649.453 163.524C649.805 163.124 649.981 162.548 649.981 161.796ZM664.498 172.5H661.714L661.162 169.236H657.466L656.89 172.5H654.346L657.562 155.7H661.258L664.498 172.5ZM659.314 158.532L657.874 166.86H660.754L659.314 158.532ZM673.357 171.588C672.605 172.356 671.533 172.74 670.141 172.74C668.749 172.74 667.669 172.356 666.901 171.588C666.149 170.804 665.773 169.708 665.773 168.3V159.9C665.773 158.492 666.149 157.404 666.901 156.636C667.669 155.852 668.749 155.46 670.141 155.46C671.533 155.46 672.605 155.852 673.357 156.636C674.109 157.404 674.485 158.492 674.485 159.9V161.388H671.917V159.78C671.917 158.484 671.349 157.836 670.213 157.836C669.077 157.836 668.509 158.484 668.509 159.78V168.42C668.509 169.716 669.077 170.364 670.213 170.364C671.349 170.364 671.917 169.716 671.917 168.42V166.308H674.485V168.3C674.485 169.708 674.109 170.804 673.357 171.588ZM681.603 172.5H678.891V158.124H675.675V155.7H684.819V158.124H681.603V172.5ZM691.177 172.5H686.473V155.7H690.937C692.441 155.7 693.545 156.028 694.249 156.684C694.969 157.34 695.329 158.348 695.329 159.708V160.212C695.329 161.924 694.665 163.036 693.337 163.548V163.62C694.857 164.084 695.617 165.324 695.617 167.34V168.204C695.617 171.068 694.137 172.5 691.177 172.5ZM689.209 158.124V162.588H690.577C691.265 162.588 691.769 162.436 692.089 162.132C692.425 161.812 692.593 161.316 692.593 160.644V160.02C692.593 159.348 692.457 158.868 692.185 158.58C691.913 158.276 691.465 158.124 690.841 158.124H689.209ZM689.209 165.012V170.076H691.177C691.769 170.076 692.201 169.932 692.473 169.644C692.745 169.34 692.881 168.852 692.881 168.18V167.244C692.881 166.412 692.721 165.836 692.401 165.516C692.081 165.18 691.521 165.012 690.721 165.012H689.209ZM701.954 164.772L704.114 155.7H706.73L703.106 169.644C702.818 170.748 702.362 171.54 701.738 172.02C701.114 172.5 700.234 172.74 699.098 172.74C698.442 172.74 697.89 172.652 697.442 172.476V170.124C697.826 170.252 698.242 170.316 698.69 170.316C699.202 170.316 699.586 170.244 699.842 170.1C700.098 169.94 700.29 169.668 700.418 169.284L700.538 168.852L696.746 155.7H699.578L701.954 164.772ZM712.879 154.332C711.935 154.332 711.191 154.068 710.647 153.54C710.103 152.996 709.815 152.26 709.783 151.332H711.439C711.519 152.132 711.999 152.532 712.879 152.532C713.759 152.532 714.263 152.132 714.391 151.332H715.999C715.967 152.26 715.679 152.996 715.135 153.54C714.591 154.068 713.839 154.332 712.879 154.332ZM710.695 166.932L714.751 155.7H717.535V172.5H715.063V161.22L711.031 172.5H708.247V155.7H710.695V166.932ZM728.748 172.5H724.044V155.7H728.508C730.012 155.7 731.116 156.028 731.82 156.684C732.54 157.34 732.9 158.348 732.9 159.708V160.212C732.9 161.924 732.236 163.036 730.908 163.548V163.62C732.428 164.084 733.188 165.324 733.188 167.34V168.204C733.188 171.068 731.708 172.5 728.748 172.5ZM726.78 158.124V162.588H728.148C728.836 162.588 729.34 162.436 729.66 162.132C729.996 161.812 730.164 161.316 730.164 160.644V160.02C730.164 159.348 730.028 158.868 729.756 158.58C729.484 158.276 729.036 158.124 728.412 158.124H726.78ZM726.78 165.012V170.076H728.748C729.34 170.076 729.772 169.932 730.044 169.644C730.316 169.34 730.452 168.852 730.452 168.18V167.244C730.452 166.412 730.292 165.836 729.972 165.516C729.652 165.18 729.092 165.012 728.292 165.012H726.78ZM741.944 172.5H739.208V155.7H743.552C746.496 155.7 747.968 157.156 747.968 160.068V161.316C747.968 164.228 746.496 165.684 743.552 165.684H741.944V172.5ZM741.944 158.124V163.284H743.552C744.144 163.284 744.568 163.14 744.824 162.852C745.096 162.548 745.232 162.06 745.232 161.388V159.972C745.232 159.3 745.096 158.828 744.824 158.556C744.568 158.268 744.144 158.124 743.552 158.124H741.944ZM749.562 168.228V159.972C749.562 158.532 749.946 157.42 750.714 156.636C751.498 155.852 752.61 155.46 754.05 155.46C755.506 155.46 756.618 155.852 757.386 156.636C758.17 157.42 758.562 158.532 758.562 159.972V168.228C758.562 169.668 758.17 170.78 757.386 171.564C756.602 172.348 755.49 172.74 754.05 172.74C752.61 172.74 751.498 172.348 750.714 171.564C749.946 170.78 749.562 169.668 749.562 168.228ZM754.05 170.316C755.234 170.316 755.826 169.668 755.826 168.372V159.828C755.826 158.532 755.234 157.884 754.05 157.884C752.882 157.884 752.298 158.532 752.298 159.828V168.372C752.298 169.668 752.882 170.316 754.05 170.316ZM764.587 172.74C763.147 172.74 762.051 172.364 761.299 171.612C760.547 170.844 760.171 169.74 760.171 168.3V167.172H762.739V168.348C762.739 169.66 763.331 170.316 764.515 170.316C765.139 170.316 765.587 170.156 765.859 169.836C766.147 169.5 766.291 168.956 766.291 168.204V167.292C766.291 166.46 766.123 165.868 765.787 165.516C765.467 165.148 764.931 164.964 764.179 164.964H763.147V162.54H764.251C765.563 162.54 766.219 161.86 766.219 160.5V159.756C766.219 158.508 765.651 157.884 764.515 157.884C763.395 157.884 762.835 158.484 762.835 159.684V160.524H760.267V159.9C760.267 158.46 760.635 157.364 761.371 156.612C762.107 155.844 763.187 155.46 764.611 155.46C766.019 155.46 767.091 155.828 767.827 156.564C768.563 157.3 768.931 158.364 768.931 159.756V160.212C768.931 161.956 768.219 163.084 766.795 163.596V163.62C768.267 164.132 769.003 165.364 769.003 167.316V168.276C769.003 171.252 767.531 172.74 764.587 172.74ZM775.357 172.5H770.989V155.7H773.725V162.18H775.357C778.301 162.18 779.773 163.66 779.773 166.62V168.06C779.773 171.02 778.301 172.5 775.357 172.5ZM784.333 172.5H781.597V155.7H784.333V172.5ZM773.725 164.604V170.076H775.357C775.933 170.076 776.357 169.932 776.629 169.644C776.901 169.34 777.037 168.86 777.037 168.204V166.476C777.037 165.82 776.901 165.348 776.629 165.06C776.357 164.756 775.933 164.604 775.357 164.604H773.725ZM789.475 172.5H786.739V155.7H794.275V158.124H789.475V172.5ZM798.686 172.5H795.95V155.7H800.294C803.238 155.7 804.71 157.156 804.71 160.068V161.316C804.71 164.228 803.238 165.684 800.294 165.684H798.686V172.5ZM798.686 158.124V163.284H800.294C800.886 163.284 801.31 163.14 801.566 162.852C801.838 162.548 801.974 162.06 801.974 161.388V159.972C801.974 159.3 801.838 158.828 801.566 158.556C801.31 158.268 800.886 158.124 800.294 158.124H798.686ZM810.888 172.5H806.52V155.7H809.256V162.18H810.888C813.832 162.18 815.304 163.66 815.304 166.62V168.06C815.304 171.02 813.832 172.5 810.888 172.5ZM819.864 172.5H817.128V155.7H819.864V172.5ZM809.256 164.604V170.076H810.888C811.464 170.076 811.888 169.932 812.16 169.644C812.432 169.34 812.568 168.86 812.568 168.204V166.476C812.568 165.82 812.432 165.348 812.16 165.06C811.888 164.756 811.464 164.604 810.888 164.604H809.256ZM836.142 172.5H822.27V155.7H825.006V170.076H827.862V155.7H830.574V170.076H833.406V155.7H836.142V172.5ZM846.6 172.5H838.536V155.7H846.6V158.124H841.272V162.636H845.544V165.06H841.272V170.076H846.6V172.5ZM855.241 172.5H852.505V155.7H861.601V172.5H858.865V158.124H855.241V172.5ZM866.725 172.5H863.989V155.7H868.333C871.277 155.7 872.749 157.156 872.749 160.068V161.316C872.749 164.228 871.277 165.684 868.333 165.684H866.725V172.5ZM866.725 158.124V163.284H868.333C868.925 163.284 869.349 163.14 869.605 162.852C869.877 162.548 870.013 162.06 870.013 161.388V159.972C870.013 159.3 869.877 158.828 869.605 158.556C869.349 158.268 868.925 158.124 868.333 158.124H866.725ZM877.007 166.932L881.063 155.7H883.847V172.5H881.375V161.22L877.343 172.5H874.559V155.7H877.007V166.932ZM890.119 172.74C888.679 172.74 887.583 172.364 886.831 171.612C886.079 170.844 885.703 169.74 885.703 168.3V167.172H888.271V168.348C888.271 169.66 888.863 170.316 890.047 170.316C890.671 170.316 891.119 170.156 891.391 169.836C891.679 169.5 891.823 168.956 891.823 168.204V167.292C891.823 166.46 891.655 165.868 891.319 165.516C890.999 165.148 890.463 164.964 889.711 164.964H888.679V162.54H889.783C891.095 162.54 891.751 161.86 891.751 160.5V159.756C891.751 158.508 891.183 157.884 890.047 157.884C888.927 157.884 888.367 158.484 888.367 159.684V160.524H885.799V159.9C885.799 158.46 886.167 157.364 886.903 156.612C887.639 155.844 888.719 155.46 890.143 155.46C891.551 155.46 892.623 155.828 893.359 156.564C894.095 157.3 894.463 158.364 894.463 159.756V160.212C894.463 161.956 893.751 163.084 892.327 163.596V163.62C893.799 164.132 894.535 165.364 894.535 167.316V168.276C894.535 171.252 893.063 172.74 890.119 172.74ZM896.304 168.228V159.972C896.304 158.532 896.688 157.42 897.456 156.636C898.24 155.852 899.352 155.46 900.792 155.46C902.248 155.46 903.36 155.852 904.128 156.636C904.912 157.42 905.304 158.532 905.304 159.972V168.228C905.304 169.668 904.912 170.78 904.128 171.564C903.344 172.348 902.232 172.74 900.792 172.74C899.352 172.74 898.24 172.348 897.456 171.564C896.688 170.78 896.304 169.668 896.304 168.228ZM900.792 170.316C901.976 170.316 902.568 169.668 902.568 168.372V159.828C902.568 158.532 901.976 157.884 900.792 157.884C899.624 157.884 899.04 158.532 899.04 159.828V168.372C899.04 169.668 899.624 170.316 900.792 170.316ZM912.17 172.5H907.466V155.7H911.93C913.434 155.7 914.538 156.028 915.242 156.684C915.962 157.34 916.322 158.348 916.322 159.708V160.212C916.322 161.924 915.658 163.036 914.33 163.548V163.62C915.85 164.084 916.61 165.324 916.61 167.34V168.204C916.61 171.068 915.13 172.5 912.17 172.5ZM910.202 158.124V162.588H911.57C912.258 162.588 912.762 162.436 913.082 162.132C913.418 161.812 913.586 161.316 913.586 160.644V160.02C913.586 159.348 913.45 158.868 913.178 158.58C912.906 158.276 912.458 158.124 911.834 158.124H910.202ZM910.202 165.012V170.076H912.17C912.762 170.076 913.194 169.932 913.466 169.644C913.738 169.34 913.874 168.852 913.874 168.18V167.244C913.874 166.412 913.714 165.836 913.394 165.516C913.074 165.18 912.514 165.012 911.714 165.012H910.202ZM643.352 191.7V206.076H644.792V210.756H642.056V208.5H635.168V210.756H632.456V206.076H634.016C634.368 205.724 634.568 205.068 634.616 204.108L635.12 191.7H643.352ZM636.608 206.076H640.616V194.124H637.688L637.352 203.964C637.32 204.828 637.072 205.532 636.608 206.076ZM646.467 208.524C646.131 208.524 645.867 208.492 645.675 208.428V206.052C645.867 206.1 646.051 206.124 646.227 206.124C646.819 206.124 647.227 205.98 647.451 205.692C647.691 205.388 647.827 204.868 647.859 204.132L648.363 191.7H656.571V208.5H653.859V194.124H650.931L650.571 204.204C650.523 205.708 650.179 206.804 649.539 207.492C648.899 208.18 647.875 208.524 646.467 208.524ZM667.621 191.7V208.5H664.885V201.396H663.637C662.869 201.396 662.325 201.564 662.005 201.9C661.701 202.236 661.549 202.82 661.549 203.652V206.292C661.549 207.236 661.461 207.972 661.285 208.5H658.525C658.733 207.988 658.837 207.26 658.837 206.316V203.82C658.837 202.716 658.997 201.868 659.317 201.276C659.637 200.668 660.157 200.26 660.877 200.052V199.98C659.533 199.484 658.861 198.34 658.861 196.548V195.732C658.861 194.356 659.213 193.34 659.917 192.684C660.637 192.028 661.749 191.7 663.253 191.7H667.621ZM663.589 198.972H664.885V194.124H663.301C662.709 194.124 662.277 194.276 662.005 194.58C661.733 194.884 661.597 195.364 661.597 196.02V196.98C661.597 197.684 661.757 198.196 662.077 198.516C662.397 198.82 662.901 198.972 663.589 198.972ZM676.858 208.5H674.122V191.7H678.466C681.41 191.7 682.882 193.156 682.882 196.068V197.316C682.882 200.228 681.41 201.684 678.466 201.684H676.858V208.5ZM676.858 194.124V199.284H678.466C679.058 199.284 679.482 199.14 679.738 198.852C680.01 198.548 680.146 198.06 680.146 197.388V195.972C680.146 195.3 680.01 194.828 679.738 194.556C679.482 194.268 679.058 194.124 678.466 194.124H676.858ZM692.756 208.5H684.692V191.7H692.756V194.124H687.428V198.636H691.7V201.06H687.428V206.076H692.756V208.5ZM703.99 208.5H701.206L700.654 205.236H696.958L696.382 208.5H693.838L697.054 191.7H700.75L703.99 208.5ZM698.806 194.532L697.366 202.86H700.246L698.806 194.532ZM705.74 208.524C705.404 208.524 705.14 208.492 704.948 208.428V206.052C705.14 206.1 705.324 206.124 705.5 206.124C706.092 206.124 706.5 205.98 706.724 205.692C706.964 205.388 707.1 204.868 707.132 204.132L707.636 191.7H715.844V208.5H713.132V194.124H710.204L709.844 204.204C709.796 205.708 709.452 206.804 708.812 207.492C708.172 208.18 707.148 208.524 705.74 208.524ZM720.703 202.932L724.759 191.7H727.543V208.5H725.071V197.22L721.039 208.5H718.255V191.7H720.703V202.932ZM733.814 208.74C732.374 208.74 731.278 208.364 730.526 207.612C729.774 206.844 729.398 205.74 729.398 204.3V203.172H731.966V204.348C731.966 205.66 732.558 206.316 733.742 206.316C734.366 206.316 734.814 206.156 735.086 205.836C735.374 205.5 735.518 204.956 735.518 204.204V203.292C735.518 202.46 735.35 201.868 735.014 201.516C734.694 201.148 734.158 200.964 733.406 200.964H732.374V198.54H733.478C734.79 198.54 735.446 197.86 735.446 196.5V195.756C735.446 194.508 734.878 193.884 733.742 193.884C732.622 193.884 732.062 194.484 732.062 195.684V196.524H729.494V195.9C729.494 194.46 729.862 193.364 730.598 192.612C731.334 191.844 732.414 191.46 733.838 191.46C735.246 191.46 736.318 191.828 737.054 192.564C737.79 193.3 738.158 194.364 738.158 195.756V196.212C738.158 197.956 737.446 199.084 736.022 199.596V199.62C737.494 200.132 738.23 201.364 738.23 203.316V204.276C738.23 207.252 736.758 208.74 733.814 208.74ZM749.412 208.5H746.628L746.076 205.236H742.38L741.804 208.5H739.26L742.476 191.7H746.172L749.412 208.5ZM744.228 194.532L742.788 202.86H745.668L744.228 194.532ZM761.7 210.756H758.964V208.5H751.02V191.7H753.756V206.076H757.38V191.7H760.116V206.076H761.7V210.756ZM765.773 202.932L769.829 191.7H772.613V208.5H770.141V197.22L766.109 208.5H763.325V191.7H765.773V202.932ZM777.468 202.932L781.524 191.7H784.308V208.5H781.836V197.22L777.804 208.5H775.02V191.7H777.468V202.932ZM798.185 207.588C797.433 208.356 796.361 208.74 794.969 208.74C793.577 208.74 792.497 208.356 791.729 207.588C790.977 206.804 790.601 205.708 790.601 204.3V195.9C790.601 194.492 790.977 193.404 791.729 192.636C792.497 191.852 793.577 191.46 794.969 191.46C796.361 191.46 797.433 191.852 798.185 192.636C798.937 193.404 799.313 194.492 799.313 195.9V197.388H796.745V195.78C796.745 194.484 796.177 193.836 795.041 193.836C793.905 193.836 793.337 194.484 793.337 195.78V204.42C793.337 205.716 793.905 206.364 795.041 206.364C796.177 206.364 796.745 205.716 796.745 204.42V202.308H799.313V204.3C799.313 205.708 798.937 206.804 798.185 207.588ZM805.951 208.5H801.247V191.7H805.711C807.215 191.7 808.319 192.028 809.023 192.684C809.743 193.34 810.103 194.348 810.103 195.708V196.212C810.103 197.924 809.439 199.036 808.111 199.548V199.62C809.631 200.084 810.391 201.324 810.391 203.34V204.204C810.391 207.068 808.911 208.5 805.951 208.5ZM803.983 194.124V198.588H805.351C806.039 198.588 806.543 198.436 806.863 198.132C807.199 197.812 807.367 197.316 807.367 196.644V196.02C807.367 195.348 807.231 194.868 806.959 194.58C806.687 194.276 806.239 194.124 805.615 194.124H803.983ZM803.983 201.012V206.076H805.951C806.543 206.076 806.975 205.932 807.247 205.644C807.519 205.34 807.655 204.852 807.655 204.18V203.244C807.655 202.412 807.495 201.836 807.175 201.516C806.855 201.18 806.295 201.012 805.495 201.012H803.983ZM812.093 204.228V195.972C812.093 194.532 812.477 193.42 813.245 192.636C814.029 191.852 815.141 191.46 816.581 191.46C818.037 191.46 819.149 191.852 819.917 192.636C820.701 193.42 821.093 194.532 821.093 195.972V204.228C821.093 205.668 820.701 206.78 819.917 207.564C819.133 208.348 818.021 208.74 816.581 208.74C815.141 208.74 814.029 208.348 813.245 207.564C812.477 206.78 812.093 205.668 812.093 204.228ZM816.581 206.316C817.765 206.316 818.357 205.668 818.357 204.372V195.828C818.357 194.532 817.765 193.884 816.581 193.884C815.413 193.884 814.829 194.532 814.829 195.828V204.372C814.829 205.668 815.413 206.316 816.581 206.316ZM825.703 202.932L829.759 191.7H832.543V208.5H830.071V197.22L826.039 208.5H823.255V191.7H825.703V202.932ZM836.75 208.5H834.158L837.71 199.884L834.302 191.7H837.23L839.39 197.34L841.622 191.7H844.262L840.854 199.884L844.406 208.5H841.502L839.15 202.428L836.75 208.5ZM852.562 202.932L856.618 191.7H859.402V208.5H856.93V197.22L852.898 208.5H850.114V191.7H852.562V202.932ZM871.961 191.7V206.076H873.401V210.756H870.665V208.5H863.777V210.756H861.065V206.076H862.625C862.977 205.724 863.177 205.068 863.225 204.108L863.729 191.7H871.961ZM865.217 206.076H869.225V194.124H866.297L865.961 203.964C865.929 204.828 865.681 205.532 865.217 206.076ZM883.092 208.5H875.028V191.7H883.092V194.124H877.764V198.636H882.036V201.06H877.764V206.076H883.092V208.5ZM889.527 190.332C888.583 190.332 887.839 190.068 887.295 189.54C886.751 188.996 886.463 188.26 886.431 187.332H888.087C888.167 188.132 888.647 188.532 889.527 188.532C890.407 188.532 890.911 188.132 891.039 187.332H892.647C892.615 188.26 892.327 188.996 891.783 189.54C891.239 190.068 890.487 190.332 889.527 190.332ZM887.343 202.932L891.399 191.7H894.183V208.5H891.711V197.22L887.679 208.5H884.895V191.7H887.343V202.932Z" fill="white"/>
<g filter="url(#filter2_ddddd_201_30449)">
<ellipse cx="44" cy="388.5" rx="29" ry="7.5" fill="#DDBA63"/>
<path d="M43.998 317.999C36.7072 318.008 29.7175 320.908 24.5622 326.063C19.4068 331.219 16.5067 338.208 16.498 345.499C16.498 369.029 41.498 386.803 42.5625 387.547C42.9835 387.841 43.4846 387.999 43.998 387.999C44.5115 387.999 45.0126 387.841 45.4336 387.547C46.498 386.803 71.498 369.029 71.498 345.499C71.4894 338.208 68.5893 331.219 63.4339 326.063C58.2786 320.908 51.2888 318.008 43.998 317.999V317.999ZM43.9999 335.5C45.9777 335.5 47.9111 336.086 49.5556 337.185C51.2001 338.284 52.4818 339.846 53.2387 341.673C53.9956 343.5 54.1936 345.511 53.8077 347.451C53.4219 349.391 52.4695 351.173 51.0709 352.571C49.6724 353.97 47.8906 354.922 45.9508 355.308C44.011 355.694 42.0003 355.496 40.173 354.739C38.3458 353.982 36.784 352.7 35.6852 351.056C34.5864 349.411 33.9999 347.478 33.9999 345.5C33.9998 344.187 34.2585 342.886 34.761 341.673C35.2635 340.46 36.0001 339.357 36.9287 338.429C37.8573 337.5 38.9597 336.764 40.173 336.261C41.3863 335.759 42.6866 335.5 43.9999 335.5V335.5Z" fill="#FFF9DA"/>
<circle cx="44" cy="346" r="17" fill="#C74403"/>
<path d="M39.9917 350.064V348.696H42.4877V350.184C42.4877 351.288 42.9437 351.84 43.8557 351.84C44.3197 351.84 44.6637 351.696 44.8877 351.408C45.1117 351.12 45.2237 350.632 45.2237 349.944V348.576C45.2237 347.808 45.0877 347.264 44.8157 346.944C44.5437 346.608 44.1037 346.44 43.4957 346.44H42.6077V344.04H43.5677C44.1117 344.04 44.5117 343.904 44.7677 343.632C45.0237 343.344 45.1517 342.888 45.1517 342.264V341.04C45.1517 339.92 44.7117 339.36 43.8317 339.36C42.9837 339.36 42.5597 339.88 42.5597 340.92V342.024H40.0637V341.136C40.0637 339.792 40.3917 338.76 41.0477 338.04C41.7197 337.32 42.6797 336.96 43.9277 336.96C45.1917 336.96 46.1517 337.32 46.8077 338.04C47.4637 338.744 47.7917 339.768 47.7917 341.112V341.712C47.7917 343.504 47.1677 344.632 45.9197 345.096V345.144C47.2157 345.624 47.8637 346.776 47.8637 348.6V350.088C47.8637 351.432 47.5277 352.464 46.8557 353.184C46.1997 353.888 45.2237 354.24 43.9277 354.24C42.6317 354.24 41.6477 353.88 40.9757 353.16C40.3197 352.44 39.9917 351.408 39.9917 350.064Z" fill="white"/>
</g>
<path d="M111.936 345.5H109.2V328.7H118.296V345.5H115.56V331.124H111.936V345.5ZM120.468 341.228V332.972C120.468 331.532 120.852 330.42 121.62 329.636C122.404 328.852 123.516 328.46 124.956 328.46C126.412 328.46 127.524 328.852 128.292 329.636C129.076 330.42 129.468 331.532 129.468 332.972V341.228C129.468 342.668 129.076 343.78 128.292 344.564C127.508 345.348 126.396 345.74 124.956 345.74C123.516 345.74 122.404 345.348 121.62 344.564C120.852 343.78 120.468 342.668 120.468 341.228ZM124.956 343.316C126.14 343.316 126.732 342.668 126.732 341.372V332.828C126.732 331.532 126.14 330.884 124.956 330.884C123.788 330.884 123.204 331.532 123.204 332.828V341.372C123.204 342.668 123.788 343.316 124.956 343.316ZM135.494 345.74C134.054 345.74 132.958 345.364 132.206 344.612C131.454 343.844 131.078 342.74 131.078 341.3V340.172H133.646V341.348C133.646 342.66 134.238 343.316 135.422 343.316C136.046 343.316 136.494 343.156 136.766 342.836C137.054 342.5 137.198 341.956 137.198 341.204V340.292C137.198 339.46 137.03 338.868 136.694 338.516C136.374 338.148 135.838 337.964 135.086 337.964H134.054V335.54H135.158C136.47 335.54 137.126 334.86 137.126 333.5V332.756C137.126 331.508 136.558 330.884 135.422 330.884C134.302 330.884 133.742 331.484 133.742 332.684V333.524H131.174V332.9C131.174 331.46 131.542 330.364 132.278 329.612C133.014 328.844 134.094 328.46 135.518 328.46C136.926 328.46 137.998 328.828 138.734 329.564C139.47 330.3 139.838 331.364 139.838 332.756V333.212C139.838 334.956 139.126 336.084 137.702 336.596V336.62C139.174 337.132 139.91 338.364 139.91 340.316V341.276C139.91 344.252 138.438 345.74 135.494 345.74ZM141.679 341.228V332.972C141.679 331.532 142.063 330.42 142.831 329.636C143.615 328.852 144.727 328.46 146.167 328.46C147.623 328.46 148.735 328.852 149.503 329.636C150.287 330.42 150.679 331.532 150.679 332.972V341.228C150.679 342.668 150.287 343.78 149.503 344.564C148.719 345.348 147.607 345.74 146.167 345.74C144.727 345.74 143.615 345.348 142.831 344.564C142.063 343.78 141.679 342.668 141.679 341.228ZM146.167 343.316C147.351 343.316 147.943 342.668 147.943 341.372V332.828C147.943 331.532 147.351 330.884 146.167 330.884C144.999 330.884 144.415 331.532 144.415 332.828V341.372C144.415 342.668 144.999 343.316 146.167 343.316ZM157.545 345.5H152.841V328.7H157.305C158.809 328.7 159.913 329.028 160.617 329.684C161.337 330.34 161.697 331.348 161.697 332.708V333.212C161.697 334.924 161.033 336.036 159.705 336.548V336.62C161.225 337.084 161.985 338.324 161.985 340.34V341.204C161.985 344.068 160.505 345.5 157.545 345.5ZM155.577 331.124V335.588H156.945C157.633 335.588 158.137 335.436 158.457 335.132C158.793 334.812 158.961 334.316 158.961 333.644V333.02C158.961 332.348 158.825 331.868 158.553 331.58C158.281 331.276 157.833 331.124 157.209 331.124H155.577ZM155.577 338.012V343.076H157.545C158.137 343.076 158.569 342.932 158.841 342.644C159.113 342.34 159.249 341.852 159.249 341.18V340.244C159.249 339.412 159.089 338.836 158.769 338.516C158.449 338.18 157.889 338.012 157.089 338.012H155.577ZM166.351 339.932L170.407 328.7H173.191V345.5H170.719V334.22L166.687 345.5H163.903V328.7H166.351V339.932ZM189.852 328.7V343.076H191.292V347.756H188.556V345.5H181.668V347.756H178.956V343.076H180.516C180.868 342.724 181.068 342.068 181.116 341.108L181.62 328.7H189.852ZM183.108 343.076H187.116V331.124H184.188L183.852 340.964C183.82 341.828 183.572 342.532 183.108 343.076ZM195.655 345.5H192.919V328.7H197.263C200.207 328.7 201.679 330.156 201.679 333.068V334.316C201.679 337.228 200.207 338.684 197.263 338.684H195.655V345.5ZM195.655 331.124V336.284H197.263C197.855 336.284 198.279 336.14 198.535 335.852C198.807 335.548 198.943 335.06 198.943 334.388V332.972C198.943 332.3 198.807 331.828 198.535 331.556C198.279 331.268 197.855 331.124 197.263 331.124H195.655ZM207.672 337.772L209.832 328.7H212.448L208.824 342.644C208.536 343.748 208.08 344.54 207.456 345.02C206.832 345.5 205.952 345.74 204.816 345.74C204.16 345.74 203.608 345.652 203.16 345.476V343.124C203.544 343.252 203.96 343.316 204.408 343.316C204.92 343.316 205.304 343.244 205.56 343.1C205.816 342.94 206.008 342.668 206.136 342.284L206.256 341.852L202.464 328.7H205.296L207.672 337.772ZM217.595 345.74C216.155 345.74 215.059 345.364 214.307 344.612C213.555 343.844 213.179 342.74 213.179 341.3V340.172H215.747V341.348C215.747 342.66 216.339 343.316 217.523 343.316C218.147 343.316 218.595 343.156 218.867 342.836C219.155 342.5 219.299 341.956 219.299 341.204V340.292C219.299 339.46 219.131 338.868 218.795 338.516C218.475 338.148 217.939 337.964 217.187 337.964H216.155V335.54H217.259C218.571 335.54 219.227 334.86 219.227 333.5V332.756C219.227 331.508 218.659 330.884 217.523 330.884C216.403 330.884 215.843 331.484 215.843 332.684V333.524H213.275V332.9C213.275 331.46 213.643 330.364 214.379 329.612C215.115 328.844 216.195 328.46 217.619 328.46C219.027 328.46 220.099 328.828 220.835 329.564C221.571 330.3 221.939 331.364 221.939 332.756V333.212C221.939 334.956 221.227 336.084 219.803 336.596V336.62C221.275 337.132 222.011 338.364 222.011 340.316V341.276C222.011 344.252 220.539 345.74 217.595 345.74ZM232.061 345.5H223.997V328.7H232.061V331.124H226.733V335.636H231.005V338.06H226.733V343.076H232.061V345.5ZM238.496 327.332C237.552 327.332 236.808 327.068 236.264 326.54C235.72 325.996 235.432 325.26 235.4 324.332H237.056C237.136 325.132 237.616 325.532 238.496 325.532C239.376 325.532 239.88 325.132 240.008 324.332H241.616C241.584 325.26 241.296 325.996 240.752 326.54C240.208 327.068 239.456 327.332 238.496 327.332ZM236.312 339.932L240.368 328.7H243.152V345.5H240.68V334.22L236.648 345.5H233.864V328.7H236.312V339.932ZM252.397 345.5H249.661V328.7H258.757V345.5H256.021V331.124H252.397V345.5ZM260.929 341.228V332.972C260.929 331.532 261.313 330.42 262.081 329.636C262.865 328.852 263.977 328.46 265.417 328.46C266.873 328.46 267.985 328.852 268.753 329.636C269.537 330.42 269.929 331.532 269.929 332.972V341.228C269.929 342.668 269.537 343.78 268.753 344.564C267.969 345.348 266.857 345.74 265.417 345.74C263.977 345.74 262.865 345.348 262.081 344.564C261.313 343.78 260.929 342.668 260.929 341.228ZM265.417 343.316C266.601 343.316 267.193 342.668 267.193 341.372V332.828C267.193 331.532 266.601 330.884 265.417 330.884C264.249 330.884 263.665 331.532 263.665 332.828V341.372C263.665 342.668 264.249 343.316 265.417 343.316ZM282.125 328.7V343.076H283.565V347.756H280.829V345.5H273.941V347.756H271.229V343.076H272.789C273.141 342.724 273.341 342.068 273.389 341.108L273.893 328.7H282.125ZM275.381 343.076H279.389V331.124H276.461L276.125 340.964C276.093 341.828 275.845 342.532 275.381 343.076ZM295.344 328.7V343.076H296.784V347.756H294.048V345.5H287.16V347.756H284.448V343.076H286.008C286.36 342.724 286.56 342.068 286.608 341.108L287.112 328.7H295.344ZM288.6 343.076H292.608V331.124H289.68L289.344 340.964C289.312 341.828 289.064 342.532 288.6 343.076ZM306.475 345.5H298.411V328.7H306.475V331.124H301.147V335.636H305.419V338.06H301.147V343.076H306.475V345.5ZM311.014 345.5H308.278V328.7H312.622C315.566 328.7 317.038 330.156 317.038 333.068V334.316C317.038 337.228 315.566 338.684 312.622 338.684H311.014V345.5ZM311.014 331.124V336.284H312.622C313.214 336.284 313.638 336.14 313.894 335.852C314.166 335.548 314.302 335.06 314.302 334.388V332.972C314.302 332.3 314.166 331.828 313.894 331.556C313.638 331.268 313.214 331.124 312.622 331.124H311.014ZM333.433 345.5H330.697L328.105 337.34L326.785 339.62V345.5H324.049V339.62L322.729 337.34L320.137 345.5H317.377L320.929 334.94L317.425 328.7H320.257L324.049 335.972V328.7H326.785V335.972L330.601 328.7H333.385L329.905 334.964L333.433 345.5ZM344.428 345.5H341.644L341.092 342.236H337.396L336.82 345.5H334.276L337.492 328.7H341.188L344.428 345.5ZM339.244 331.532L337.804 339.86H340.684L339.244 331.532ZM349.884 345.5H347.172V331.124H343.956V328.7H353.1V331.124H349.884V345.5ZM359.123 345.5H354.755V328.7H357.491V335.18H359.123C362.067 335.18 363.539 336.66 363.539 339.62V341.06C363.539 344.02 362.067 345.5 359.123 345.5ZM357.491 337.604V343.076H359.123C359.699 343.076 360.123 342.932 360.395 342.644C360.667 342.34 360.803 341.86 360.803 341.204V339.476C360.803 338.82 360.667 338.348 360.395 338.06C360.123 337.756 359.699 337.604 359.123 337.604H357.491ZM114.384 381.5H111.672V367.124H108.456V364.7H117.6V367.124H114.384V381.5ZM123.959 381.5H119.255V364.7H123.719C125.223 364.7 126.327 365.028 127.031 365.684C127.751 366.34 128.111 367.348 128.111 368.708V369.212C128.111 370.924 127.447 372.036 126.119 372.548V372.62C127.639 373.084 128.399 374.324 128.399 376.34V377.204C128.399 380.068 126.919 381.5 123.959 381.5ZM121.991 367.124V371.588H123.359C124.047 371.588 124.551 371.436 124.871 371.132C125.207 370.812 125.375 370.316 125.375 369.644V369.02C125.375 368.348 125.239 367.868 124.967 367.58C124.695 367.276 124.247 367.124 123.623 367.124H121.991ZM121.991 374.012V379.076H123.959C124.551 379.076 124.983 378.932 125.255 378.644C125.527 378.34 125.663 377.852 125.663 377.18V376.244C125.663 375.412 125.503 374.836 125.183 374.516C124.863 374.18 124.303 374.012 123.503 374.012H121.991ZM130.101 377.228V368.972C130.101 367.532 130.485 366.42 131.253 365.636C132.037 364.852 133.149 364.46 134.589 364.46C136.045 364.46 137.157 364.852 137.925 365.636C138.709 366.42 139.101 367.532 139.101 368.972V377.228C139.101 378.668 138.709 379.78 137.925 380.564C137.141 381.348 136.029 381.74 134.589 381.74C133.149 381.74 132.037 381.348 131.253 380.564C130.485 379.78 130.101 378.668 130.101 377.228ZM134.589 379.316C135.773 379.316 136.365 378.668 136.365 377.372V368.828C136.365 367.532 135.773 366.884 134.589 366.884C133.421 366.884 132.837 367.532 132.837 368.828V377.372C132.837 378.668 133.421 379.316 134.589 379.316ZM143.711 375.932L147.767 364.7H150.551V381.5H148.079V370.22L144.047 381.5H141.263V364.7H143.711V375.932ZM156.843 377.228V368.972C156.843 367.532 157.227 366.42 157.995 365.636C158.779 364.852 159.891 364.46 161.331 364.46C162.787 364.46 163.899 364.852 164.667 365.636C165.451 366.42 165.843 367.532 165.843 368.972V377.228C165.843 378.668 165.451 379.78 164.667 380.564C163.883 381.348 162.771 381.74 161.331 381.74C159.891 381.74 158.779 381.348 157.995 380.564C157.227 379.78 156.843 378.668 156.843 377.228ZM161.331 379.316C162.515 379.316 163.107 378.668 163.107 377.372V368.828C163.107 367.532 162.515 366.884 161.331 366.884C160.163 366.884 159.579 367.532 159.579 368.828V377.372C159.579 378.668 160.163 379.316 161.331 379.316ZM173.095 381.5H170.383V367.124H167.167V364.7H176.311V367.124H173.095V381.5ZM187.686 381.5H184.806L182.142 373.82L180.702 376.196V381.5H177.966V364.7H180.702V372.092L184.854 364.7H187.638L183.99 370.94L187.686 381.5ZM192.022 381.5H189.286V364.7H193.63C196.574 364.7 198.046 366.156 198.046 369.068V370.316C198.046 373.228 196.574 374.684 193.63 374.684H192.022V381.5ZM192.022 367.124V372.284H193.63C194.222 372.284 194.646 372.14 194.902 371.852C195.174 371.548 195.31 371.06 195.31 370.388V368.972C195.31 368.3 195.174 367.828 194.902 367.556C194.646 367.268 194.222 367.124 193.63 367.124H192.022ZM204.224 381.5H199.856V364.7H202.592V371.18H204.224C207.168 371.18 208.64 372.66 208.64 375.62V377.06C208.64 380.02 207.168 381.5 204.224 381.5ZM213.2 381.5H210.464V364.7H213.2V381.5ZM202.592 373.604V379.076H204.224C204.8 379.076 205.224 378.932 205.496 378.644C205.768 378.34 205.904 377.86 205.904 377.204V375.476C205.904 374.82 205.768 374.348 205.496 374.06C205.224 373.756 204.8 373.604 204.224 373.604H202.592ZM220.79 381.5H218.078V367.124H214.862V364.7H224.006V367.124H220.79V381.5ZM228.109 375.932L232.165 364.7H234.949V381.5H232.477V370.22L228.445 381.5H225.661V364.7H228.109V375.932ZM245.996 364.7V381.5H243.26V374.396H242.012C241.244 374.396 240.7 374.564 240.38 374.9C240.076 375.236 239.924 375.82 239.924 376.652V379.292C239.924 380.236 239.836 380.972 239.66 381.5H236.9C237.108 380.988 237.212 380.26 237.212 379.316V376.82C237.212 375.716 237.372 374.868 237.692 374.276C238.012 373.668 238.532 373.26 239.252 373.052V372.98C237.908 372.484 237.236 371.34 237.236 369.548V368.732C237.236 367.356 237.588 366.34 238.292 365.684C239.012 365.028 240.124 364.7 241.628 364.7H245.996ZM241.964 371.972H243.26V367.124H241.676C241.084 367.124 240.652 367.276 240.38 367.58C240.108 367.884 239.972 368.364 239.972 369.02V369.98C239.972 370.684 240.132 371.196 240.452 371.516C240.772 371.82 241.276 371.972 241.964 371.972Z" fill="white"/>
<path opacity="0.4" d="M530 37.0001C570.457 28.0552 676 21.5 640 60C604 98.5 572.5 76.5 572.5 127" stroke="#FFF8D9" stroke-width="2" stroke-linecap="round" stroke-dasharray="6 6"/>
<path opacity="0.4" d="M507 173C450 152.5 445.001 256.5 324.001 202.5C203.001 148.5 29.0009 258.5 37.0006 300.5" stroke="#FFF8D9" stroke-width="2" stroke-linecap="round" stroke-dasharray="6 6"/>
<path opacity="0.4" d="M401.5 349.5C734 340 487.5 400 546 520.5" stroke="#FFF8D9" stroke-width="2" stroke-linecap="round" stroke-dasharray="6 6"/>
<defs>
<filter id="filter0_ddddd_201_30449" x="126" y="0" width="134" height="132" filterUnits="userSpaceOnUse" color-interpolation-filters="sRGB">
<feFlood flood-opacity="0" result="BackgroundImageFix"/>
<feColorMatrix in="SourceAlpha" type="matrix" values="0 0 0 0 0 0 0 0 0 0 0 0 0 0 0 0 0 0 127 0" result="hardAlpha"/>
<feOffset/>
<feColorMatrix type="matrix" values="0 0 0 0 0.0745098 0 0 0 0 0.12549 0 0 0 0 0.0823529 0 0 0 0.2 0"/>
<feBlend mode="normal" in2="BackgroundImageFix" result="effect1_dropShadow_201_30449"/>
<feColorMatrix in="SourceAlpha" type="matrix" values="0 0 0 0 0 0 0 0 0 0 0 0 0 0 0 0 0 0 127 0" result="hardAlpha"/>
<feOffset dx="2" dy="2"/>
<feGaussianBlur stdDeviation="3"/>
<feColorMatrix type="matrix" values="0 0 0 0 0.0745098 0 0 0 0 0.12549 0 0 0 0 0.0823529 0 0 0 0.2 0"/>
<feBlend mode="normal" in2="effect1_dropShadow_201_30449" result="effect2_dropShadow_201_30449"/>
<feColorMatrix in="SourceAlpha" type="matrix" values="0 0 0 0 0 0 0 0 0 0 0 0 0 0 0 0 0 0 127 0" result="hardAlpha"/>
<feOffset dx="8" dy="7"/>
<feGaussianBlur stdDeviation="5"/>
<feColorMatrix type="matrix" values="0 0 0 0 0.0745098 0 0 0 0 0.12549 0 0 0 0 0.0823529 0 0 0 0.17 0"/>
<feBlend mode="normal" in2="effect2_dropShadow_201_30449" result="effect3_dropShadow_201_30449"/>
<feColorMatrix in="SourceAlpha" type="matrix" values="0 0 0 0 0 0 0 0 0 0 0 0 0 0 0 0 0 0 127 0" result="hardAlpha"/>
<feOffset dx="18" dy="15"/>
<feGaussianBlur stdDeviation="7"/>
<feColorMatrix type="matrix" values="0 0 0 0 0.0745098 0 0 0 0 0.12549 0 0 0 0 0.0823529 0 0 0 0.1 0"/>
<feBlend mode="normal" in2="effect3_dropShadow_201_30449" result="effect4_dropShadow_201_30449"/>
<feColorMatrix in="SourceAlpha" type="matrix" values="0 0 0 0 0 0 0 0 0 0 0 0 0 0 0 0 0 0 127 0" result="hardAlpha"/>
<feOffset dx="33" dy="26"/>
<feGaussianBlur stdDeviation="8.5"/>
<feColorMatrix type="matrix" values="0 0 0 0 0.0745098 0 0 0 0 0.12549 0 0 0 0 0.0823529 0 0 0 0.03 0"/>
<feBlend mode="normal" in2="effect4_dropShadow_201_30449" result="effect5_dropShadow_201_30449"/>
<feBlend mode="normal" in="SourceGraphic" in2="effect5_dropShadow_201_30449" result="shape"/>
</filter>
<filter id="filter1_ddddd_201_30449" x="524" y="136" width="134" height="132" filterUnits="userSpaceOnUse" color-interpolation-filters="sRGB">
<feFlood flood-opacity="0" result="BackgroundImageFix"/>
<feColorMatrix in="SourceAlpha" type="matrix" values="0 0 0 0 0 0 0 0 0 0 0 0 0 0 0 0 0 0 127 0" result="hardAlpha"/>
<feOffset/>
<feColorMatrix type="matrix" values="0 0 0 0 0.0745098 0 0 0 0 0.12549 0 0 0 0 0.0823529 0 0 0 0.2 0"/>
<feBlend mode="normal" in2="BackgroundImageFix" result="effect1_dropShadow_201_30449"/>
<feColorMatrix in="SourceAlpha" type="matrix" values="0 0 0 0 0 0 0 0 0 0 0 0 0 0 0 0 0 0 127 0" result="hardAlpha"/>
<feOffset dx="2" dy="2"/>
<feGaussianBlur stdDeviation="3"/>
<feColorMatrix type="matrix" values="0 0 0 0 0.0745098 0 0 0 0 0.12549 0 0 0 0 0.0823529 0 0 0 0.2 0"/>
<feBlend mode="normal" in2="effect1_dropShadow_201_30449" result="effect2_dropShadow_201_30449"/>
<feColorMatrix in="SourceAlpha" type="matrix" values="0 0 0 0 0 0 0 0 0 0 0 0 0 0 0 0 0 0 127 0" result="hardAlpha"/>
<feOffset dx="8" dy="7"/>
<feGaussianBlur stdDeviation="5"/>
<feColorMatrix type="matrix" values="0 0 0 0 0.0745098 0 0 0 0 0.12549 0 0 0 0 0.0823529 0 0 0 0.17 0"/>
<feBlend mode="normal" in2="effect2_dropShadow_201_30449" result="effect3_dropShadow_201_30449"/>
<feColorMatrix in="SourceAlpha" type="matrix" values="0 0 0 0 0 0 0 0 0 0 0 0 0 0 0 0 0 0 127 0" result="hardAlpha"/>
<feOffset dx="18" dy="15"/>
<feGaussianBlur stdDeviation="7"/>
<feColorMatrix type="matrix" values="0 0 0 0 0.0745098 0 0 0 0 0.12549 0 0 0 0 0.0823529 0 0 0 0.1 0"/>
<feBlend mode="normal" in2="effect3_dropShadow_201_30449" result="effect4_dropShadow_201_30449"/>
<feColorMatrix in="SourceAlpha" type="matrix" values="0 0 0 0 0 0 0 0 0 0 0 0 0 0 0 0 0 0 127 0" result="hardAlpha"/>
<feOffset dx="33" dy="26"/>
<feGaussianBlur stdDeviation="8.5"/>
<feColorMatrix type="matrix" values="0 0 0 0 0.0745098 0 0 0 0 0.12549 0 0 0 0 0.0823529 0 0 0 0.03 0"/>
<feBlend mode="normal" in2="effect4_dropShadow_201_30449" result="effect5_dropShadow_201_30449"/>
<feBlend mode="normal" in="SourceGraphic" in2="effect5_dropShadow_201_30449" result="shape"/>
</filter>
<filter id="filter2_ddddd_201_30449" x="0" y="309" width="134" height="132" filterUnits="userSpaceOnUse" color-interpolation-filters="sRGB">
<feFlood flood-opacity="0" result="BackgroundImageFix"/>
<feColorMatrix in="SourceAlpha" type="matrix" values="0 0 0 0 0 0 0 0 0 0 0 0 0 0 0 0 0 0 127 0" result="hardAlpha"/>
<feOffset/>
<feColorMatrix type="matrix" values="0 0 0 0 0.0745098 0 0 0 0 0.12549 0 0 0 0 0.0823529 0 0 0 0.2 0"/>
<feBlend mode="normal" in2="BackgroundImageFix" result="effect1_dropShadow_201_30449"/>
<feColorMatrix in="SourceAlpha" type="matrix" values="0 0 0 0 0 0 0 0 0 0 0 0 0 0 0 0 0 0 127 0" result="hardAlpha"/>
<feOffset dx="2" dy="2"/>
<feGaussianBlur stdDeviation="3"/>
<feColorMatrix type="matrix" values="0 0 0 0 0.0745098 0 0 0 0 0.12549 0 0 0 0 0.0823529 0 0 0 0.2 0"/>
<feBlend mode="normal" in2="effect1_dropShadow_201_30449" result="effect2_dropShadow_201_30449"/>
<feColorMatrix in="SourceAlpha" type="matrix" values="0 0 0 0 0 0 0 0 0 0 0 0 0 0 0 0 0 0 127 0" result="hardAlpha"/>
<feOffset dx="8" dy="7"/>
<feGaussianBlur stdDeviation="5"/>
<feColorMatrix type="matrix" values="0 0 0 0 0.0745098 0 0 0 0 0.12549 0 0 0 0 0.0823529 0 0 0 0.17 0"/>
<feBlend mode="normal" in2="effect2_dropShadow_201_30449" result="effect3_dropShadow_201_30449"/>
<feColorMatrix in="SourceAlpha" type="matrix" values="0 0 0 0 0 0 0 0 0 0 0 0 0 0 0 0 0 0 127 0" result="hardAlpha"/>
<feOffset dx="18" dy="15"/>
<feGaussianBlur stdDeviation="7"/>
<feColorMatrix type="matrix" values="0 0 0 0 0.0745098 0 0 0 0 0.12549 0 0 0 0 0.0823529 0 0 0 0.1 0"/>
<feBlend mode="normal" in2="effect3_dropShadow_201_30449" result="effect4_dropShadow_201_30449"/>
<feColorMatrix in="SourceAlpha" type="matrix" values="0 0 0 0 0 0 0 0 0 0 0 0 0 0 0 0 0 0 127 0" result="hardAlpha"/>
<feOffset dx="33" dy="26"/>
<feGaussianBlur stdDeviation="8.5"/>
<feColorMatrix type="matrix" values="0 0 0 0 0.0745098 0 0 0 0 0.12549 0 0 0 0 0.0823529 0 0 0 0.03 0"/>
<feBlend mode="normal" in2="effect4_dropShadow_201_30449" result="effect5_dropShadow_201_30449"/>
<feBlend mode="normal" in="SourceGraphic" in2="effect5_dropShadow_201_30449" result="shape"/>
</filter>
</defs>
</svg>
