<svg width="845" height="582" viewBox="0 0 845 582" fill="none" xmlns="http://www.w3.org/2000/svg">
<g filter="url(#filter0_ddddd_702_390997)">
<ellipse cx="76" cy="79.5" rx="29" ry="7.5" fill="#DDBA63"/>
<path d="M75.998 8.99908C68.7072 9.00774 61.7175 11.9078 56.5622 17.0632C51.4068 22.2186 48.5067 29.2083 48.498 36.4991C48.498 60.0294 73.498 77.8028 74.5625 78.5474C74.9835 78.8414 75.4846 78.9991 75.998 78.9991C76.5115 78.9991 77.0126 78.8414 77.4336 78.5474C78.498 77.8028 103.498 60.0294 103.498 36.4991C103.489 29.2083 100.589 22.2186 95.4339 17.0632C90.2786 11.9078 83.2888 9.00773 75.998 8.99908V8.99908ZM75.9999 26.5C77.9777 26.5 79.9111 27.0865 81.5556 28.1853C83.2001 29.2841 84.4818 30.8459 85.2387 32.6732C85.9956 34.5004 86.1936 36.5111 85.8077 38.4509C85.4219 40.3907 84.4695 42.1725 83.0709 43.5711C81.6724 44.9696 79.8906 45.922 77.9508 46.3078C76.011 46.6937 74.0003 46.4957 72.173 45.7388C70.3458 44.9819 68.784 43.7002 67.6852 42.0557C66.5864 40.4112 65.9999 38.4778 65.9999 36.5C65.9998 35.1868 66.2585 33.8864 66.761 32.6731C67.2635 31.4598 68.0001 30.3574 68.9287 29.4288C69.8573 28.5002 70.9597 27.7637 72.173 27.2611C73.3863 26.7586 74.6866 26.5 75.9999 26.5V26.5Z" fill="#FFF9DA"/>
<circle cx="76" cy="37" r="17" fill="#C74403"/>
<path d="M78.3398 45H75.6998V32.184H72.9398V30.312C74.0438 30.312 74.8438 30.168 75.3398 29.88C75.8518 29.56 76.2598 29 76.5638 28.2H78.3398V45Z" fill="white"/>
</g>
<path d="M143.936 36.5H141.2V19.7H145.544C148.488 19.7 149.96 21.156 149.96 24.068V25.316C149.96 28.228 148.488 29.684 145.544 29.684H143.936V36.5ZM143.936 22.124V27.284H145.544C146.136 27.284 146.56 27.14 146.816 26.852C147.088 26.548 147.224 26.06 147.224 25.388V23.972C147.224 23.3 147.088 22.828 146.816 22.556C146.56 22.268 146.136 22.124 145.544 22.124H143.936ZM160.193 36.5H157.409L156.857 33.236H153.161L152.585 36.5H150.041L153.257 19.7H156.953L160.193 36.5ZM155.009 22.532L153.569 30.86H156.449L155.009 22.532ZM169.052 35.588C168.3 36.356 167.228 36.74 165.836 36.74C164.444 36.74 163.364 36.356 162.596 35.588C161.844 34.804 161.468 33.708 161.468 32.3V23.9C161.468 22.492 161.844 21.404 162.596 20.636C163.364 19.852 164.444 19.46 165.836 19.46C167.228 19.46 168.3 19.852 169.052 20.636C169.804 21.404 170.18 22.492 170.18 23.9V25.388H167.612V23.78C167.612 22.484 167.044 21.836 165.908 21.836C164.772 21.836 164.204 22.484 164.204 23.78V32.42C164.204 33.716 164.772 34.364 165.908 34.364C167.044 34.364 167.612 33.716 167.612 32.42V30.308H170.18V32.3C170.18 33.708 169.804 34.804 169.052 35.588ZM179.506 35.588C178.754 36.356 177.682 36.74 176.29 36.74C174.898 36.74 173.818 36.356 173.05 35.588C172.298 34.804 171.922 33.708 171.922 32.3V23.9C171.922 22.492 172.298 21.404 173.05 20.636C173.818 19.852 174.898 19.46 176.29 19.46C177.682 19.46 178.754 19.852 179.506 20.636C180.258 21.404 180.634 22.492 180.634 23.9V25.388H178.066V23.78C178.066 22.484 177.498 21.836 176.362 21.836C175.226 21.836 174.658 22.484 174.658 23.78V32.42C174.658 33.716 175.226 34.364 176.362 34.364C177.498 34.364 178.066 33.716 178.066 32.42V30.308H180.634V32.3C180.634 33.708 180.258 34.804 179.506 35.588ZM192.287 36.5H189.407L186.743 28.82L185.303 31.196V36.5H182.567V19.7H185.303V27.092L189.455 19.7H192.239L188.591 25.94L192.287 36.5ZM203.272 36.5H200.488L199.936 33.236H196.24L195.664 36.5H193.12L196.336 19.7H200.032L203.272 36.5ZM198.088 22.532L196.648 30.86H199.528L198.088 22.532ZM220.144 36.5H217.408L214.816 28.34L213.496 30.62V36.5H210.76V30.62L209.44 28.34L206.848 36.5H204.088L207.64 25.94L204.136 19.7H206.968L210.76 26.972V19.7H213.496V26.972L217.312 19.7H220.096L216.616 25.964L220.144 36.5ZM224.203 30.932L228.259 19.7H231.043V36.5H228.571V25.22L224.539 36.5H221.755V19.7H224.203V30.932ZM234.674 39.284H233.426L234.506 36.5H233.546V33.62H236.282V36.212L234.674 39.284ZM248.872 25.796V19.7H251.608V36.5H248.872V29.492C248.168 30.212 247.216 30.572 246.016 30.572C243.648 30.572 242.464 29.22 242.464 26.516V19.7H245.176V26.156C245.176 27.452 245.736 28.1 246.856 28.1C247.496 28.1 247.992 27.908 248.344 27.524C248.696 27.124 248.872 26.548 248.872 25.796ZM259.189 36.5H256.477V22.124H253.261V19.7H262.405V22.124H259.189V36.5ZM263.75 32.228V23.972C263.75 22.532 264.134 21.42 264.902 20.636C265.686 19.852 266.798 19.46 268.238 19.46C269.694 19.46 270.806 19.852 271.574 20.636C272.358 21.42 272.75 22.532 272.75 23.972V32.228C272.75 33.668 272.358 34.78 271.574 35.564C270.79 36.348 269.678 36.74 268.238 36.74C266.798 36.74 265.686 36.348 264.902 35.564C264.134 34.78 263.75 33.668 263.75 32.228ZM268.238 34.316C269.422 34.316 270.014 33.668 270.014 32.372V23.828C270.014 22.532 269.422 21.884 268.238 21.884C267.07 21.884 266.486 22.532 266.486 23.828V32.372C266.486 33.668 267.07 34.316 268.238 34.316ZM281.749 36.5H279.013V19.7H281.749V26.636H285.373V19.7H288.109V36.5H285.373V29.06H281.749V36.5ZM290.281 32.228V23.972C290.281 22.532 290.665 21.42 291.433 20.636C292.217 19.852 293.329 19.46 294.769 19.46C296.225 19.46 297.337 19.852 298.105 20.636C298.889 21.42 299.281 22.532 299.281 23.972V32.228C299.281 33.668 298.889 34.78 298.105 35.564C297.321 36.348 296.209 36.74 294.769 36.74C293.329 36.74 292.217 36.348 291.433 35.564C290.665 34.78 290.281 33.668 290.281 32.228ZM294.769 34.316C295.953 34.316 296.545 33.668 296.545 32.372V23.828C296.545 22.532 295.953 21.884 294.769 21.884C293.601 21.884 293.017 22.532 293.017 23.828V32.372C293.017 33.668 293.601 34.316 294.769 34.316ZM306.146 36.5H301.442V19.7H305.906C307.41 19.7 308.514 20.028 309.218 20.684C309.938 21.34 310.298 22.348 310.298 23.708V24.212C310.298 25.924 309.634 27.036 308.306 27.548V27.62C309.826 28.084 310.586 29.324 310.586 31.34V32.204C310.586 35.068 309.106 36.5 306.146 36.5ZM304.178 22.124V26.588H305.546C306.234 26.588 306.738 26.436 307.058 26.132C307.394 25.812 307.562 25.316 307.562 24.644V24.02C307.562 23.348 307.426 22.868 307.154 22.58C306.882 22.276 306.434 22.124 305.81 22.124H304.178ZM304.178 29.012V34.076H306.146C306.738 34.076 307.17 33.932 307.442 33.644C307.714 33.34 307.85 32.852 307.85 32.18V31.244C307.85 30.412 307.69 29.836 307.37 29.516C307.05 29.18 306.49 29.012 305.69 29.012H304.178ZM312.289 32.228V23.972C312.289 22.532 312.673 21.42 313.441 20.636C314.225 19.852 315.337 19.46 316.777 19.46C318.233 19.46 319.345 19.852 320.113 20.636C320.897 21.42 321.289 22.532 321.289 23.972V32.228C321.289 33.668 320.897 34.78 320.113 35.564C319.329 36.348 318.217 36.74 316.777 36.74C315.337 36.74 314.225 36.348 313.441 35.564C312.673 34.78 312.289 33.668 312.289 32.228ZM316.777 34.316C317.961 34.316 318.553 33.668 318.553 32.372V23.828C318.553 22.532 317.961 21.884 316.777 21.884C315.609 21.884 315.025 22.532 315.025 23.828V32.372C315.025 33.668 315.609 34.316 316.777 34.316ZM326.186 36.5H323.45V19.7H330.986V22.124H326.186V36.5ZM332.351 32.228V23.972C332.351 22.532 332.735 21.42 333.503 20.636C334.287 19.852 335.399 19.46 336.839 19.46C338.295 19.46 339.407 19.852 340.175 20.636C340.959 21.42 341.351 22.532 341.351 23.972V32.228C341.351 33.668 340.959 34.78 340.175 35.564C339.391 36.348 338.279 36.74 336.839 36.74C335.399 36.74 334.287 36.348 333.503 35.564C332.735 34.78 332.351 33.668 332.351 32.228ZM336.839 34.316C338.023 34.316 338.615 33.668 338.615 32.372V23.828C338.615 22.532 338.023 21.884 336.839 21.884C335.671 21.884 335.087 22.532 335.087 23.828V32.372C335.087 33.668 335.671 34.316 336.839 34.316ZM146.384 72.5H143.672V58.124H140.456V55.7H149.6V58.124H146.384V72.5ZM155.623 72.5H151.255V55.7H153.991V62.18H155.623C158.567 62.18 160.039 63.66 160.039 66.62V68.06C160.039 71.02 158.567 72.5 155.623 72.5ZM164.599 72.5H161.863V55.7H164.599V72.5ZM153.991 64.604V70.076H155.623C156.199 70.076 156.623 69.932 156.895 69.644C157.167 69.34 157.303 68.86 157.303 68.204V66.476C157.303 65.82 157.167 65.348 156.895 65.06C156.623 64.756 156.199 64.604 155.623 64.604H153.991ZM172.906 72.5H170.314L173.866 63.884L170.458 55.7H173.386L175.546 61.34L177.778 55.7H180.418L177.01 63.884L180.562 72.5H177.658L175.306 66.428L172.906 72.5ZM181.507 68.228V59.972C181.507 58.532 181.891 57.42 182.659 56.636C183.443 55.852 184.555 55.46 185.995 55.46C187.451 55.46 188.563 55.852 189.331 56.636C190.115 57.42 190.507 58.532 190.507 59.972V68.228C190.507 69.668 190.115 70.78 189.331 71.564C188.547 72.348 187.435 72.74 185.995 72.74C184.555 72.74 183.443 72.348 182.659 71.564C181.891 70.78 181.507 69.668 181.507 68.228ZM185.995 70.316C187.179 70.316 187.771 69.668 187.771 68.372V59.828C187.771 58.532 187.179 57.884 185.995 57.884C184.827 57.884 184.243 58.532 184.243 59.828V68.372C184.243 69.668 184.827 70.316 185.995 70.316ZM197.759 72.5H195.047V58.124H191.831V55.7H200.975V58.124H197.759V72.5ZM210.694 72.5H202.63V55.7H210.694V58.124H205.366V62.636H209.638V65.06H205.366V70.076H210.694V72.5ZM212.545 72.524C212.209 72.524 211.945 72.492 211.753 72.428V70.052C211.945 70.1 212.129 70.124 212.305 70.124C212.897 70.124 213.305 69.98 213.529 69.692C213.769 69.388 213.905 68.868 213.937 68.132L214.441 55.7H222.649V72.5H219.937V58.124H217.009L216.649 68.204C216.601 69.708 216.257 70.804 215.617 71.492C214.977 72.18 213.953 72.524 212.545 72.524ZM233.721 72.5H229.161V55.7H237.009V58.124H231.897V62.3H233.721C236.665 62.3 238.137 63.78 238.137 66.74V68.06C238.137 71.02 236.665 72.5 233.721 72.5ZM231.897 64.724V70.076H233.721C234.297 70.076 234.721 69.932 234.993 69.644C235.265 69.34 235.401 68.86 235.401 68.204V66.596C235.401 65.94 235.265 65.468 234.993 65.18C234.721 64.876 234.297 64.724 233.721 64.724H231.897ZM244.31 72.5H239.942V55.7H242.678V62.18H244.31C247.254 62.18 248.726 63.66 248.726 66.62V68.06C248.726 71.02 247.254 72.5 244.31 72.5ZM253.286 72.5H250.55V55.7H253.286V72.5ZM242.678 64.604V70.076H244.31C244.886 70.076 245.31 69.932 245.582 69.644C245.854 69.34 245.99 68.86 245.99 68.204V66.476C245.99 65.82 245.854 65.348 245.582 65.06C245.31 64.756 244.886 64.604 244.31 64.604H242.678ZM269.946 55.7V70.076H271.386V74.756H268.65V72.5H261.762V74.756H259.05V70.076H260.61C260.962 69.724 261.162 69.068 261.21 68.108L261.714 55.7H269.946ZM263.202 70.076H267.21V58.124H264.282L263.946 67.964C263.914 68.828 263.666 69.532 263.202 70.076ZM273.061 72.524C272.725 72.524 272.461 72.492 272.269 72.428V70.052C272.461 70.1 272.645 70.124 272.821 70.124C273.413 70.124 273.821 69.98 274.045 69.692C274.285 69.388 274.421 68.868 274.453 68.132L274.957 55.7H283.165V72.5H280.453V58.124H277.525L277.165 68.204C277.117 69.708 276.773 70.804 276.133 71.492C275.493 72.18 274.469 72.524 273.061 72.524ZM294.215 55.7V72.5H291.479V65.396H290.231C289.463 65.396 288.919 65.564 288.599 65.9C288.295 66.236 288.143 66.82 288.143 67.652V70.292C288.143 71.236 288.055 71.972 287.879 72.5H285.119C285.327 71.988 285.431 71.26 285.431 70.316V67.82C285.431 66.716 285.591 65.868 285.911 65.276C286.231 64.668 286.751 64.26 287.471 64.052V63.98C286.127 63.484 285.455 62.34 285.455 60.548V59.732C285.455 58.356 285.807 57.34 286.511 56.684C287.231 56.028 288.343 55.7 289.847 55.7H294.215ZM290.183 62.972H291.479V58.124H289.895C289.303 58.124 288.871 58.276 288.599 58.58C288.327 58.884 288.191 59.364 288.191 60.02V60.98C288.191 61.684 288.351 62.196 288.671 62.516C288.991 62.82 289.495 62.972 290.183 62.972ZM308.084 71.588C307.332 72.356 306.26 72.74 304.868 72.74C303.476 72.74 302.396 72.356 301.628 71.588C300.876 70.804 300.5 69.708 300.5 68.3V59.9C300.5 58.492 300.876 57.404 301.628 56.636C302.396 55.852 303.476 55.46 304.868 55.46C306.26 55.46 307.332 55.852 308.084 56.636C308.836 57.404 309.212 58.492 309.212 59.9V61.388H306.644V59.78C306.644 58.484 306.076 57.836 304.94 57.836C303.804 57.836 303.236 58.484 303.236 59.78V68.42C303.236 69.716 303.804 70.364 304.94 70.364C306.076 70.364 306.644 69.716 306.644 68.42V66.308H309.212V68.3C309.212 69.708 308.836 70.804 308.084 71.588ZM319.209 72.5H311.145V55.7H319.209V58.124H313.881V62.636H318.153V65.06H313.881V70.076H319.209V72.5ZM325.573 72.5H321.013V55.7H328.861V58.124H323.749V62.3H325.573C328.517 62.3 329.989 63.78 329.989 66.74V68.06C329.989 71.02 328.517 72.5 325.573 72.5ZM323.749 64.724V70.076H325.573C326.149 70.076 326.573 69.932 326.845 69.644C327.117 69.34 327.253 68.86 327.253 68.204V66.596C327.253 65.94 327.117 65.468 326.845 65.18C326.573 64.876 326.149 64.724 325.573 64.724H323.749ZM340.434 55.7V72.5H337.698V65.396H336.45C335.682 65.396 335.138 65.564 334.818 65.9C334.514 66.236 334.362 66.82 334.362 67.652V70.292C334.362 71.236 334.274 71.972 334.098 72.5H331.338C331.546 71.988 331.65 71.26 331.65 70.316V67.82C331.65 66.716 331.81 65.868 332.13 65.276C332.45 64.668 332.97 64.26 333.69 64.052V63.98C332.346 63.484 331.674 62.34 331.674 60.548V59.732C331.674 58.356 332.026 57.34 332.73 56.684C333.45 56.028 334.562 55.7 336.066 55.7H340.434ZM336.402 62.972H337.698V58.124H336.114C335.522 58.124 335.09 58.276 334.818 58.58C334.546 58.884 334.41 59.364 334.41 60.02V60.98C334.41 61.684 334.57 62.196 334.89 62.516C335.21 62.82 335.714 62.972 336.402 62.972ZM346.718 68.228V59.972C346.718 58.532 347.102 57.42 347.87 56.636C348.654 55.852 349.766 55.46 351.206 55.46C352.662 55.46 353.774 55.852 354.542 56.636C355.326 57.42 355.718 58.532 355.718 59.972V68.228C355.718 69.668 355.326 70.78 354.542 71.564C353.758 72.348 352.646 72.74 351.206 72.74C349.766 72.74 348.654 72.348 347.87 71.564C347.102 70.78 346.718 69.668 346.718 68.228ZM351.206 70.316C352.39 70.316 352.982 69.668 352.982 68.372V59.828C352.982 58.532 352.39 57.884 351.206 57.884C350.038 57.884 349.454 58.532 349.454 59.828V68.372C349.454 69.668 350.038 70.316 351.206 70.316ZM362.97 72.5H360.258V58.124H357.042V55.7H366.186V58.124H362.97V72.5ZM377.561 72.5H374.681L372.017 64.82L370.577 67.196V72.5H367.841V55.7H370.577V63.092L374.729 55.7H377.513L373.865 61.94L377.561 72.5ZM381.897 72.5H379.161V55.7H383.505C386.449 55.7 387.921 57.156 387.921 60.068V61.316C387.921 64.228 386.449 65.684 383.505 65.684H381.897V72.5ZM381.897 58.124V63.284H383.505C384.097 63.284 384.521 63.14 384.777 62.852C385.049 62.548 385.185 62.06 385.185 61.388V59.972C385.185 59.3 385.049 58.828 384.777 58.556C384.521 58.268 384.097 58.124 383.505 58.124H381.897ZM394.099 72.5H389.731V55.7H392.467V62.18H394.099C397.043 62.18 398.515 63.66 398.515 66.62V68.06C398.515 71.02 397.043 72.5 394.099 72.5ZM403.075 72.5H400.339V55.7H403.075V72.5ZM392.467 64.604V70.076H394.099C394.675 70.076 395.099 69.932 395.371 69.644C395.643 69.34 395.779 68.86 395.779 68.204V66.476C395.779 65.82 395.643 65.348 395.371 65.06C395.099 64.756 394.675 64.604 394.099 64.604H392.467ZM410.665 72.5H407.953V58.124H404.737V55.7H413.881V58.124H410.665V72.5ZM419.904 72.5H415.536V55.7H418.272V62.18H419.904C422.848 62.18 424.32 63.66 424.32 66.62V68.06C424.32 71.02 422.848 72.5 419.904 72.5ZM418.272 64.604V70.076H419.904C420.48 70.076 420.904 69.932 421.176 69.644C421.448 69.34 421.584 68.86 421.584 68.204V66.476C421.584 65.82 421.448 65.348 421.176 65.06C420.904 64.756 420.48 64.604 419.904 64.604H418.272Z" fill="white"/>
<g filter="url(#filter1_ddddd_702_390997)">
<ellipse cx="520" cy="215.5" rx="29" ry="7.5" fill="#DDBA63"/>
<path d="M519.998 144.999C512.707 145.008 505.718 147.908 500.562 153.063C495.407 158.219 492.507 165.208 492.498 172.499C492.498 196.029 517.498 213.803 518.562 214.547C518.983 214.841 519.485 214.999 519.998 214.999C520.512 214.999 521.013 214.841 521.434 214.547C522.498 213.803 547.498 196.029 547.498 172.499C547.489 165.208 544.589 158.219 539.434 153.063C534.279 147.908 527.289 145.008 519.998 144.999V144.999ZM520 162.5C521.978 162.5 523.911 163.086 525.556 164.185C527.2 165.284 528.482 166.846 529.239 168.673C529.996 170.5 530.194 172.511 529.808 174.451C529.422 176.391 528.469 178.173 527.071 179.571C525.672 180.97 523.891 181.922 521.951 182.308C520.011 182.694 518 182.496 516.173 181.739C514.346 180.982 512.784 179.7 511.685 178.056C510.586 176.411 510 174.478 510 172.5C510 171.187 510.258 169.886 510.761 168.673C511.264 167.46 512 166.357 512.929 165.429C513.857 164.5 514.96 163.764 516.173 163.261C517.386 162.759 518.687 162.5 520 162.5V162.5Z" fill="#FFF9DA"/>
<circle cx="520" cy="173" r="17" fill="#C74403"/>
<path d="M523.755 181H516.123V179.176C516.123 177.928 516.315 176.864 516.699 175.984C517.083 175.104 517.771 174.144 518.763 173.104C519.787 172 520.467 171.128 520.803 170.488C521.171 169.784 521.355 169.048 521.355 168.28C521.355 167.576 521.243 167.08 521.019 166.792C520.795 166.504 520.451 166.36 519.987 166.36C519.075 166.36 518.619 166.912 518.619 168.016V169.816H516.123V168.184C516.123 166.824 516.459 165.784 517.131 165.064C517.803 164.328 518.779 163.96 520.059 163.96C521.339 163.96 522.315 164.328 522.987 165.064C523.659 165.784 523.995 166.824 523.995 168.184C523.995 169.224 523.747 170.216 523.251 171.16C522.755 172.136 521.915 173.248 520.731 174.496C519.963 175.312 519.435 175.984 519.147 176.512C518.875 177.04 518.739 177.616 518.739 178.24V178.6H523.755V181Z" fill="white"/>
</g>
<path d="M587.936 172.5H585.2V155.7H594.296V172.5H591.56V158.124H587.936V172.5ZM596.468 168.228V159.972C596.468 158.532 596.852 157.42 597.62 156.636C598.404 155.852 599.516 155.46 600.956 155.46C602.412 155.46 603.524 155.852 604.292 156.636C605.076 157.42 605.468 158.532 605.468 159.972V168.228C605.468 169.668 605.076 170.78 604.292 171.564C603.508 172.348 602.396 172.74 600.956 172.74C599.516 172.74 598.404 172.348 597.62 171.564C596.852 170.78 596.468 169.668 596.468 168.228ZM600.956 170.316C602.14 170.316 602.732 169.668 602.732 168.372V159.828C602.732 158.532 602.14 157.884 600.956 157.884C599.788 157.884 599.204 158.532 599.204 159.828V168.372C599.204 169.668 599.788 170.316 600.956 170.316ZM611.494 172.74C610.054 172.74 608.958 172.364 608.206 171.612C607.454 170.844 607.078 169.74 607.078 168.3V167.172H609.646V168.348C609.646 169.66 610.238 170.316 611.422 170.316C612.046 170.316 612.494 170.156 612.766 169.836C613.054 169.5 613.198 168.956 613.198 168.204V167.292C613.198 166.46 613.03 165.868 612.694 165.516C612.374 165.148 611.838 164.964 611.086 164.964H610.054V162.54H611.158C612.47 162.54 613.126 161.86 613.126 160.5V159.756C613.126 158.508 612.558 157.884 611.422 157.884C610.302 157.884 609.742 158.484 609.742 159.684V160.524H607.174V159.9C607.174 158.46 607.542 157.364 608.278 156.612C609.014 155.844 610.094 155.46 611.518 155.46C612.926 155.46 613.998 155.828 614.734 156.564C615.47 157.3 615.838 158.364 615.838 159.756V160.212C615.838 161.956 615.126 163.084 613.702 163.596V163.62C615.174 164.132 615.91 165.364 615.91 167.316V168.276C615.91 171.252 614.438 172.74 611.494 172.74ZM617.679 168.228V159.972C617.679 158.532 618.063 157.42 618.831 156.636C619.615 155.852 620.727 155.46 622.167 155.46C623.623 155.46 624.735 155.852 625.503 156.636C626.287 157.42 626.679 158.532 626.679 159.972V168.228C626.679 169.668 626.287 170.78 625.503 171.564C624.719 172.348 623.607 172.74 622.167 172.74C620.727 172.74 619.615 172.348 618.831 171.564C618.063 170.78 617.679 169.668 617.679 168.228ZM622.167 170.316C623.351 170.316 623.943 169.668 623.943 168.372V159.828C623.943 158.532 623.351 157.884 622.167 157.884C620.999 157.884 620.415 158.532 620.415 159.828V168.372C620.415 169.668 620.999 170.316 622.167 170.316ZM633.545 172.5H628.841V155.7H633.305C634.809 155.7 635.913 156.028 636.617 156.684C637.337 157.34 637.697 158.348 637.697 159.708V160.212C637.697 161.924 637.033 163.036 635.705 163.548V163.62C637.225 164.084 637.985 165.324 637.985 167.34V168.204C637.985 171.068 636.505 172.5 633.545 172.5ZM631.577 158.124V162.588H632.945C633.633 162.588 634.137 162.436 634.457 162.132C634.793 161.812 634.961 161.316 634.961 160.644V160.02C634.961 159.348 634.825 158.868 634.553 158.58C634.281 158.276 633.833 158.124 633.209 158.124H631.577ZM631.577 165.012V170.076H633.545C634.137 170.076 634.569 169.932 634.841 169.644C635.113 169.34 635.249 168.852 635.249 168.18V167.244C635.249 166.412 635.089 165.836 634.769 165.516C634.449 165.18 633.889 165.012 633.089 165.012H631.577ZM642.351 166.932L646.407 155.7H649.191V172.5H646.719V161.22L642.687 172.5H639.903V155.7H642.351V166.932ZM665.852 155.7V170.076H667.292V174.756H664.556V172.5H657.668V174.756H654.956V170.076H656.516C656.868 169.724 657.068 169.068 657.116 168.108L657.62 155.7H665.852ZM659.108 170.076H663.116V158.124H660.188L659.852 167.964C659.82 168.828 659.572 169.532 659.108 170.076ZM671.655 172.5H668.919V155.7H673.263C676.207 155.7 677.679 157.156 677.679 160.068V161.316C677.679 164.228 676.207 165.684 673.263 165.684H671.655V172.5ZM671.655 158.124V163.284H673.263C673.855 163.284 674.279 163.14 674.535 162.852C674.807 162.548 674.943 162.06 674.943 161.388V159.972C674.943 159.3 674.807 158.828 674.535 158.556C674.279 158.268 673.855 158.124 673.263 158.124H671.655ZM683.672 164.772L685.832 155.7H688.448L684.824 169.644C684.536 170.748 684.08 171.54 683.456 172.02C682.832 172.5 681.952 172.74 680.816 172.74C680.16 172.74 679.608 172.652 679.16 172.476V170.124C679.544 170.252 679.96 170.316 680.408 170.316C680.92 170.316 681.304 170.244 681.56 170.1C681.816 169.94 682.008 169.668 682.136 169.284L682.256 168.852L678.464 155.7H681.296L683.672 164.772ZM693.595 172.74C692.155 172.74 691.059 172.364 690.307 171.612C689.555 170.844 689.179 169.74 689.179 168.3V167.172H691.747V168.348C691.747 169.66 692.339 170.316 693.523 170.316C694.147 170.316 694.595 170.156 694.867 169.836C695.155 169.5 695.299 168.956 695.299 168.204V167.292C695.299 166.46 695.131 165.868 694.795 165.516C694.475 165.148 693.939 164.964 693.187 164.964H692.155V162.54H693.259C694.571 162.54 695.227 161.86 695.227 160.5V159.756C695.227 158.508 694.659 157.884 693.523 157.884C692.403 157.884 691.843 158.484 691.843 159.684V160.524H689.275V159.9C689.275 158.46 689.643 157.364 690.379 156.612C691.115 155.844 692.195 155.46 693.619 155.46C695.027 155.46 696.099 155.828 696.835 156.564C697.571 157.3 697.939 158.364 697.939 159.756V160.212C697.939 161.956 697.227 163.084 695.803 163.596V163.62C697.275 164.132 698.011 165.364 698.011 167.316V168.276C698.011 171.252 696.539 172.74 693.595 172.74ZM708.061 172.5H699.997V155.7H708.061V158.124H702.733V162.636H707.005V165.06H702.733V170.076H708.061V172.5ZM714.496 154.332C713.552 154.332 712.808 154.068 712.264 153.54C711.72 152.996 711.432 152.26 711.4 151.332H713.056C713.136 152.132 713.616 152.532 714.496 152.532C715.376 152.532 715.88 152.132 716.008 151.332H717.616C717.584 152.26 717.296 152.996 716.752 153.54C716.208 154.068 715.456 154.332 714.496 154.332ZM712.312 166.932L716.368 155.7H719.152V172.5H716.68V161.22L712.648 172.5H709.864V155.7H712.312V166.932ZM728.397 172.5H725.661V155.7H734.757V172.5H732.021V158.124H728.397V172.5ZM736.929 168.228V159.972C736.929 158.532 737.313 157.42 738.081 156.636C738.865 155.852 739.977 155.46 741.417 155.46C742.873 155.46 743.985 155.852 744.753 156.636C745.537 157.42 745.929 158.532 745.929 159.972V168.228C745.929 169.668 745.537 170.78 744.753 171.564C743.969 172.348 742.857 172.74 741.417 172.74C739.977 172.74 738.865 172.348 738.081 171.564C737.313 170.78 736.929 169.668 736.929 168.228ZM741.417 170.316C742.601 170.316 743.193 169.668 743.193 168.372V159.828C743.193 158.532 742.601 157.884 741.417 157.884C740.249 157.884 739.665 158.532 739.665 159.828V168.372C739.665 169.668 740.249 170.316 741.417 170.316ZM758.125 155.7V170.076H759.565V174.756H756.829V172.5H749.941V174.756H747.229V170.076H748.789C749.141 169.724 749.341 169.068 749.389 168.108L749.893 155.7H758.125ZM751.381 170.076H755.389V158.124H752.461L752.125 167.964C752.093 168.828 751.845 169.532 751.381 170.076ZM771.344 155.7V170.076H772.784V174.756H770.048V172.5H763.16V174.756H760.448V170.076H762.008C762.36 169.724 762.56 169.068 762.608 168.108L763.112 155.7H771.344ZM764.6 170.076H768.608V158.124H765.68L765.344 167.964C765.312 168.828 765.064 169.532 764.6 170.076ZM782.475 172.5H774.411V155.7H782.475V158.124H777.147V162.636H781.419V165.06H777.147V170.076H782.475V172.5ZM787.014 172.5H784.278V155.7H788.622C791.566 155.7 793.038 157.156 793.038 160.068V161.316C793.038 164.228 791.566 165.684 788.622 165.684H787.014V172.5ZM787.014 158.124V163.284H788.622C789.214 163.284 789.638 163.14 789.894 162.852C790.166 162.548 790.302 162.06 790.302 161.388V159.972C790.302 159.3 790.166 158.828 789.894 158.556C789.638 158.268 789.214 158.124 788.622 158.124H787.014ZM809.433 172.5H806.697L804.105 164.34L802.785 166.62V172.5H800.049V166.62L798.729 164.34L796.137 172.5H793.377L796.929 161.94L793.425 155.7H796.257L800.049 162.972V155.7H802.785V162.972L806.601 155.7H809.385L805.905 161.964L809.433 172.5ZM820.428 172.5H817.644L817.092 169.236H813.396L812.82 172.5H810.276L813.492 155.7H817.188L820.428 172.5ZM815.244 158.532L813.804 166.86H816.684L815.244 158.532ZM825.884 172.5H823.172V158.124H819.956V155.7H829.1V158.124H825.884V172.5ZM835.123 172.5H830.755V155.7H833.491V162.18H835.123C838.067 162.18 839.539 163.66 839.539 166.62V168.06C839.539 171.02 838.067 172.5 835.123 172.5ZM833.491 164.604V170.076H835.123C835.699 170.076 836.123 169.932 836.395 169.644C836.667 169.34 836.803 168.86 836.803 168.204V166.476C836.803 165.82 836.667 165.348 836.395 165.06C836.123 164.756 835.699 164.604 835.123 164.604H833.491ZM590.384 208.5H587.672V194.124H584.456V191.7H593.6V194.124H590.384V208.5ZM599.959 208.5H595.255V191.7H599.719C601.223 191.7 602.327 192.028 603.031 192.684C603.751 193.34 604.111 194.348 604.111 195.708V196.212C604.111 197.924 603.447 199.036 602.119 199.548V199.62C603.639 200.084 604.399 201.324 604.399 203.34V204.204C604.399 207.068 602.919 208.5 599.959 208.5ZM597.991 194.124V198.588H599.359C600.047 198.588 600.551 198.436 600.871 198.132C601.207 197.812 601.375 197.316 601.375 196.644V196.02C601.375 195.348 601.239 194.868 600.967 194.58C600.695 194.276 600.247 194.124 599.623 194.124H597.991ZM597.991 201.012V206.076H599.959C600.551 206.076 600.983 205.932 601.255 205.644C601.527 205.34 601.663 204.852 601.663 204.18V203.244C601.663 202.412 601.503 201.836 601.183 201.516C600.863 201.18 600.303 201.012 599.503 201.012H597.991ZM606.101 204.228V195.972C606.101 194.532 606.485 193.42 607.253 192.636C608.037 191.852 609.149 191.46 610.589 191.46C612.045 191.46 613.157 191.852 613.925 192.636C614.709 193.42 615.101 194.532 615.101 195.972V204.228C615.101 205.668 614.709 206.78 613.925 207.564C613.141 208.348 612.029 208.74 610.589 208.74C609.149 208.74 608.037 208.348 607.253 207.564C606.485 206.78 606.101 205.668 606.101 204.228ZM610.589 206.316C611.773 206.316 612.365 205.668 612.365 204.372V195.828C612.365 194.532 611.773 193.884 610.589 193.884C609.421 193.884 608.837 194.532 608.837 195.828V204.372C608.837 205.668 609.421 206.316 610.589 206.316ZM619.711 202.932L623.767 191.7H626.551V208.5H624.079V197.22L620.047 208.5H617.263V191.7H619.711V202.932ZM632.843 204.228V195.972C632.843 194.532 633.227 193.42 633.995 192.636C634.779 191.852 635.891 191.46 637.331 191.46C638.787 191.46 639.899 191.852 640.667 192.636C641.451 193.42 641.843 194.532 641.843 195.972V204.228C641.843 205.668 641.451 206.78 640.667 207.564C639.883 208.348 638.771 208.74 637.331 208.74C635.891 208.74 634.779 208.348 633.995 207.564C633.227 206.78 632.843 205.668 632.843 204.228ZM637.331 206.316C638.515 206.316 639.107 205.668 639.107 204.372V195.828C639.107 194.532 638.515 193.884 637.331 193.884C636.163 193.884 635.579 194.532 635.579 195.828V204.372C635.579 205.668 636.163 206.316 637.331 206.316ZM649.095 208.5H646.383V194.124H643.167V191.7H652.311V194.124H649.095V208.5ZM663.686 208.5H660.806L658.142 200.82L656.702 203.196V208.5H653.966V191.7H656.702V199.092L660.854 191.7H663.638L659.99 197.94L663.686 208.5ZM668.022 208.5H665.286V191.7H669.63C672.574 191.7 674.046 193.156 674.046 196.068V197.316C674.046 200.228 672.574 201.684 669.63 201.684H668.022V208.5ZM668.022 194.124V199.284H669.63C670.222 199.284 670.646 199.14 670.902 198.852C671.174 198.548 671.31 198.06 671.31 197.388V195.972C671.31 195.3 671.174 194.828 670.902 194.556C670.646 194.268 670.222 194.124 669.63 194.124H668.022ZM680.224 208.5H675.856V191.7H678.592V198.18H680.224C683.168 198.18 684.64 199.66 684.64 202.62V204.06C684.64 207.02 683.168 208.5 680.224 208.5ZM689.2 208.5H686.464V191.7H689.2V208.5ZM678.592 200.604V206.076H680.224C680.8 206.076 681.224 205.932 681.496 205.644C681.768 205.34 681.904 204.86 681.904 204.204V202.476C681.904 201.82 681.768 201.348 681.496 201.06C681.224 200.756 680.8 200.604 680.224 200.604H678.592ZM696.79 208.5H694.078V194.124H690.862V191.7H700.006V194.124H696.79V208.5ZM704.109 202.932L708.165 191.7H710.949V208.5H708.477V197.22L704.445 208.5H701.661V191.7H704.109V202.932ZM721.996 191.7V208.5H719.26V201.396H718.012C717.244 201.396 716.7 201.564 716.38 201.9C716.076 202.236 715.924 202.82 715.924 203.652V206.292C715.924 207.236 715.836 207.972 715.66 208.5H712.9C713.108 207.988 713.212 207.26 713.212 206.316V203.82C713.212 202.716 713.372 201.868 713.692 201.276C714.012 200.668 714.532 200.26 715.252 200.052V199.98C713.908 199.484 713.236 198.34 713.236 196.548V195.732C713.236 194.356 713.588 193.34 714.292 192.684C715.012 192.028 716.124 191.7 717.628 191.7H721.996ZM717.964 198.972H719.26V194.124H717.676C717.084 194.124 716.652 194.276 716.38 194.58C716.108 194.884 715.972 195.364 715.972 196.02V196.98C715.972 197.684 716.132 198.196 716.452 198.516C716.772 198.82 717.276 198.972 717.964 198.972Z" fill="white"/>
<g filter="url(#filter2_ddddd_702_390997)">
<ellipse cx="156" cy="388.5" rx="29" ry="7.5" fill="#DDBA63"/>
<path d="M155.998 317.999C148.707 318.008 141.718 320.908 136.562 326.063C131.407 331.219 128.507 338.208 128.498 345.499C128.498 369.029 153.498 386.803 154.562 387.547C154.983 387.841 155.485 387.999 155.998 387.999C156.512 387.999 157.013 387.841 157.434 387.547C158.498 386.803 183.498 369.029 183.498 345.499C183.489 338.208 180.589 331.219 175.434 326.063C170.279 320.908 163.289 318.008 155.998 317.999V317.999ZM156 335.5C157.978 335.5 159.911 336.086 161.556 337.185C163.2 338.284 164.482 339.846 165.239 341.673C165.996 343.5 166.194 345.511 165.808 347.451C165.422 349.391 164.469 351.173 163.071 352.571C161.672 353.97 159.891 354.922 157.951 355.308C156.011 355.694 154 355.496 152.173 354.739C150.346 353.982 148.784 352.7 147.685 351.056C146.586 349.411 146 347.478 146 345.5C146 344.187 146.258 342.886 146.761 341.673C147.264 340.46 148 339.357 148.929 338.429C149.857 337.5 150.96 336.764 152.173 336.261C153.386 335.759 154.687 335.5 156 335.5V335.5Z" fill="#FFF9DA"/>
<circle cx="156" cy="346" r="17" fill="#C74403"/>
<path d="M151.992 350.064V348.696H154.488V350.184C154.488 351.288 154.944 351.84 155.856 351.84C156.32 351.84 156.664 351.696 156.888 351.408C157.112 351.12 157.224 350.632 157.224 349.944V348.576C157.224 347.808 157.088 347.264 156.816 346.944C156.544 346.608 156.104 346.44 155.496 346.44H154.608V344.04H155.568C156.112 344.04 156.512 343.904 156.768 343.632C157.024 343.344 157.152 342.888 157.152 342.264V341.04C157.152 339.92 156.712 339.36 155.832 339.36C154.984 339.36 154.56 339.88 154.56 340.92V342.024H152.064V341.136C152.064 339.792 152.392 338.76 153.048 338.04C153.72 337.32 154.68 336.96 155.928 336.96C157.192 336.96 158.152 337.32 158.808 338.04C159.464 338.744 159.792 339.768 159.792 341.112V341.712C159.792 343.504 159.168 344.632 157.92 345.096V345.144C159.216 345.624 159.864 346.776 159.864 348.6V350.088C159.864 351.432 159.528 352.464 158.856 353.184C158.2 353.888 157.224 354.24 155.928 354.24C154.632 354.24 153.648 353.88 152.976 353.16C152.32 352.44 151.992 351.408 151.992 350.064Z" fill="white"/>
</g>
<path d="M225.688 337.772L227.848 328.7H230.464L226.84 342.644C226.552 343.748 226.096 344.54 225.472 345.02C224.848 345.5 223.968 345.74 222.832 345.74C222.176 345.74 221.624 345.652 221.176 345.476V343.124C221.56 343.252 221.976 343.316 222.424 343.316C222.936 343.316 223.32 343.244 223.576 343.1C223.832 342.94 224.024 342.668 224.152 342.284L224.272 341.852L220.48 328.7H223.312L225.688 337.772ZM237.981 334.796V328.7H240.717V345.5H237.981V338.492C237.277 339.212 236.325 339.572 235.125 339.572C232.757 339.572 231.573 338.22 231.573 335.516V328.7H234.285V335.156C234.285 336.452 234.845 337.1 235.965 337.1C236.605 337.1 237.101 336.908 237.453 336.524C237.805 336.124 237.981 335.548 237.981 334.796ZM252.498 345.5H249.714L249.162 342.236H245.466L244.89 345.5H242.346L245.562 328.7H249.258L252.498 345.5ZM247.314 331.532L245.874 339.86H248.754L247.314 331.532ZM261.357 344.588C260.605 345.356 259.533 345.74 258.141 345.74C256.749 345.74 255.669 345.356 254.901 344.588C254.149 343.804 253.773 342.708 253.773 341.3V332.9C253.773 331.492 254.149 330.404 254.901 329.636C255.669 328.852 256.749 328.46 258.141 328.46C259.533 328.46 260.605 328.852 261.357 329.636C262.109 330.404 262.485 331.492 262.485 332.9V334.388H259.917V332.78C259.917 331.484 259.349 330.836 258.213 330.836C257.077 330.836 256.509 331.484 256.509 332.78V341.42C256.509 342.716 257.077 343.364 258.213 343.364C259.349 343.364 259.917 342.716 259.917 341.42V339.308H262.485V341.3C262.485 342.708 262.109 343.804 261.357 344.588ZM269.603 345.5H266.891V331.124H263.675V328.7H272.819V331.124H269.603V345.5ZM279.177 345.5H274.473V328.7H278.937C280.441 328.7 281.545 329.028 282.249 329.684C282.969 330.34 283.329 331.348 283.329 332.708V333.212C283.329 334.924 282.665 336.036 281.337 336.548V336.62C282.857 337.084 283.617 338.324 283.617 340.34V341.204C283.617 344.068 282.137 345.5 279.177 345.5ZM277.209 331.124V335.588H278.577C279.265 335.588 279.769 335.436 280.089 335.132C280.425 334.812 280.593 334.316 280.593 333.644V333.02C280.593 332.348 280.457 331.868 280.185 331.58C279.913 331.276 279.465 331.124 278.841 331.124H277.209ZM277.209 338.012V343.076H279.177C279.769 343.076 280.201 342.932 280.473 342.644C280.745 342.34 280.881 341.852 280.881 341.18V340.244C280.881 339.412 280.721 338.836 280.401 338.516C280.081 338.18 279.521 338.012 278.721 338.012H277.209ZM289.954 337.772L292.114 328.7H294.73L291.106 342.644C290.818 343.748 290.362 344.54 289.738 345.02C289.114 345.5 288.234 345.74 287.098 345.74C286.442 345.74 285.89 345.652 285.442 345.476V343.124C285.826 343.252 286.242 343.316 286.69 343.316C287.202 343.316 287.586 343.244 287.842 343.1C288.098 342.94 288.29 342.668 288.418 342.284L288.538 341.852L284.746 328.7H287.578L289.954 337.772ZM300.879 327.332C299.935 327.332 299.191 327.068 298.647 326.54C298.103 325.996 297.815 325.26 297.783 324.332H299.439C299.519 325.132 299.999 325.532 300.879 325.532C301.759 325.532 302.263 325.132 302.391 324.332H303.999C303.967 325.26 303.679 325.996 303.135 326.54C302.591 327.068 301.839 327.332 300.879 327.332ZM298.695 339.932L302.751 328.7H305.535V345.5H303.063V334.22L299.031 345.5H296.247V328.7H298.695V339.932ZM316.748 345.5H312.044V328.7H316.508C318.012 328.7 319.116 329.028 319.82 329.684C320.54 330.34 320.9 331.348 320.9 332.708V333.212C320.9 334.924 320.236 336.036 318.908 336.548V336.62C320.428 337.084 321.188 338.324 321.188 340.34V341.204C321.188 344.068 319.708 345.5 316.748 345.5ZM314.78 331.124V335.588H316.148C316.836 335.588 317.34 335.436 317.66 335.132C317.996 334.812 318.164 334.316 318.164 333.644V333.02C318.164 332.348 318.028 331.868 317.756 331.58C317.484 331.276 317.036 331.124 316.412 331.124H314.78ZM314.78 338.012V343.076H316.748C317.34 343.076 317.772 342.932 318.044 342.644C318.316 342.34 318.452 341.852 318.452 341.18V340.244C318.452 339.412 318.292 338.836 317.972 338.516C317.652 338.18 317.092 338.012 316.292 338.012H314.78ZM329.944 345.5H327.208V328.7H331.552C334.496 328.7 335.968 330.156 335.968 333.068V334.316C335.968 337.228 334.496 338.684 331.552 338.684H329.944V345.5ZM329.944 331.124V336.284H331.552C332.144 336.284 332.568 336.14 332.824 335.852C333.096 335.548 333.232 335.06 333.232 334.388V332.972C333.232 332.3 333.096 331.828 332.824 331.556C332.568 331.268 332.144 331.124 331.552 331.124H329.944ZM337.562 341.228V332.972C337.562 331.532 337.946 330.42 338.714 329.636C339.498 328.852 340.61 328.46 342.05 328.46C343.506 328.46 344.618 328.852 345.386 329.636C346.17 330.42 346.562 331.532 346.562 332.972V341.228C346.562 342.668 346.17 343.78 345.386 344.564C344.602 345.348 343.49 345.74 342.05 345.74C340.61 345.74 339.498 345.348 338.714 344.564C337.946 343.78 337.562 342.668 337.562 341.228ZM342.05 343.316C343.234 343.316 343.826 342.668 343.826 341.372V332.828C343.826 331.532 343.234 330.884 342.05 330.884C340.882 330.884 340.298 331.532 340.298 332.828V341.372C340.298 342.668 340.882 343.316 342.05 343.316ZM352.587 345.74C351.147 345.74 350.051 345.364 349.299 344.612C348.547 343.844 348.171 342.74 348.171 341.3V340.172H350.739V341.348C350.739 342.66 351.331 343.316 352.515 343.316C353.139 343.316 353.587 343.156 353.859 342.836C354.147 342.5 354.291 341.956 354.291 341.204V340.292C354.291 339.46 354.123 338.868 353.787 338.516C353.467 338.148 352.931 337.964 352.179 337.964H351.147V335.54H352.251C353.563 335.54 354.219 334.86 354.219 333.5V332.756C354.219 331.508 353.651 330.884 352.515 330.884C351.395 330.884 350.835 331.484 350.835 332.684V333.524H348.267V332.9C348.267 331.46 348.635 330.364 349.371 329.612C350.107 328.844 351.187 328.46 352.611 328.46C354.019 328.46 355.091 328.828 355.827 329.564C356.563 330.3 356.931 331.364 356.931 332.756V333.212C356.931 334.956 356.219 336.084 354.795 336.596V336.62C356.267 337.132 357.003 338.364 357.003 340.316V341.276C357.003 344.252 355.531 345.74 352.587 345.74ZM363.357 345.5H358.989V328.7H361.725V335.18H363.357C366.301 335.18 367.773 336.66 367.773 339.62V341.06C367.773 344.02 366.301 345.5 363.357 345.5ZM372.333 345.5H369.597V328.7H372.333V345.5ZM361.725 337.604V343.076H363.357C363.933 343.076 364.357 342.932 364.629 342.644C364.901 342.34 365.037 341.86 365.037 341.204V339.476C365.037 338.82 364.901 338.348 364.629 338.06C364.357 337.756 363.933 337.604 363.357 337.604H361.725ZM377.475 345.5H374.739V328.7H382.275V331.124H377.475V345.5ZM386.686 345.5H383.95V328.7H388.294C391.238 328.7 392.71 330.156 392.71 333.068V334.316C392.71 337.228 391.238 338.684 388.294 338.684H386.686V345.5ZM386.686 331.124V336.284H388.294C388.886 336.284 389.31 336.14 389.566 335.852C389.838 335.548 389.974 335.06 389.974 334.388V332.972C389.974 332.3 389.838 331.828 389.566 331.556C389.31 331.268 388.886 331.124 388.294 331.124H386.686ZM398.888 345.5H394.52V328.7H397.256V335.18H398.888C401.832 335.18 403.304 336.66 403.304 339.62V341.06C403.304 344.02 401.832 345.5 398.888 345.5ZM407.864 345.5H405.128V328.7H407.864V345.5ZM397.256 337.604V343.076H398.888C399.464 343.076 399.888 342.932 400.16 342.644C400.432 342.34 400.568 341.86 400.568 341.204V339.476C400.568 338.82 400.432 338.348 400.16 338.06C399.888 337.756 399.464 337.604 398.888 337.604H397.256ZM424.142 345.5H410.27V328.7H413.006V343.076H415.862V328.7H418.574V343.076H421.406V328.7H424.142V345.5ZM434.6 345.5H426.536V328.7H434.6V331.124H429.272V335.636H433.544V338.06H429.272V343.076H434.6V345.5ZM443.241 345.5H440.505V328.7H449.601V345.5H446.865V331.124H443.241V345.5ZM454.725 345.5H451.989V328.7H456.333C459.277 328.7 460.749 330.156 460.749 333.068V334.316C460.749 337.228 459.277 338.684 456.333 338.684H454.725V345.5ZM454.725 331.124V336.284H456.333C456.925 336.284 457.349 336.14 457.605 335.852C457.877 335.548 458.013 335.06 458.013 334.388V332.972C458.013 332.3 457.877 331.828 457.605 331.556C457.349 331.268 456.925 331.124 456.333 331.124H454.725ZM465.007 339.932L469.063 328.7H471.847V345.5H469.375V334.22L465.343 345.5H462.559V328.7H465.007V339.932ZM478.119 345.74C476.679 345.74 475.583 345.364 474.831 344.612C474.079 343.844 473.703 342.74 473.703 341.3V340.172H476.271V341.348C476.271 342.66 476.863 343.316 478.047 343.316C478.671 343.316 479.119 343.156 479.391 342.836C479.679 342.5 479.823 341.956 479.823 341.204V340.292C479.823 339.46 479.655 338.868 479.319 338.516C478.999 338.148 478.463 337.964 477.711 337.964H476.679V335.54H477.783C479.095 335.54 479.751 334.86 479.751 333.5V332.756C479.751 331.508 479.183 330.884 478.047 330.884C476.927 330.884 476.367 331.484 476.367 332.684V333.524H473.799V332.9C473.799 331.46 474.167 330.364 474.903 329.612C475.639 328.844 476.719 328.46 478.143 328.46C479.551 328.46 480.623 328.828 481.359 329.564C482.095 330.3 482.463 331.364 482.463 332.756V333.212C482.463 334.956 481.751 336.084 480.327 336.596V336.62C481.799 337.132 482.535 338.364 482.535 340.316V341.276C482.535 344.252 481.063 345.74 478.119 345.74ZM484.304 341.228V332.972C484.304 331.532 484.688 330.42 485.456 329.636C486.24 328.852 487.352 328.46 488.792 328.46C490.248 328.46 491.36 328.852 492.128 329.636C492.912 330.42 493.304 331.532 493.304 332.972V341.228C493.304 342.668 492.912 343.78 492.128 344.564C491.344 345.348 490.232 345.74 488.792 345.74C487.352 345.74 486.24 345.348 485.456 344.564C484.688 343.78 484.304 342.668 484.304 341.228ZM488.792 343.316C489.976 343.316 490.568 342.668 490.568 341.372V332.828C490.568 331.532 489.976 330.884 488.792 330.884C487.624 330.884 487.04 331.532 487.04 332.828V341.372C487.04 342.668 487.624 343.316 488.792 343.316ZM500.17 345.5H495.466V328.7H499.93C501.434 328.7 502.538 329.028 503.242 329.684C503.962 330.34 504.322 331.348 504.322 332.708V333.212C504.322 334.924 503.658 336.036 502.33 336.548V336.62C503.85 337.084 504.61 338.324 504.61 340.34V341.204C504.61 344.068 503.13 345.5 500.17 345.5ZM498.202 331.124V335.588H499.57C500.258 335.588 500.762 335.436 501.082 335.132C501.418 334.812 501.586 334.316 501.586 333.644V333.02C501.586 332.348 501.45 331.868 501.178 331.58C500.906 331.276 500.458 331.124 499.834 331.124H498.202ZM498.202 338.012V343.076H500.17C500.762 343.076 501.194 342.932 501.466 342.644C501.738 342.34 501.874 341.852 501.874 341.18V340.244C501.874 339.412 501.714 338.836 501.394 338.516C501.074 338.18 500.514 338.012 499.714 338.012H498.202ZM231.352 364.7V379.076H232.792V383.756H230.056V381.5H223.168V383.756H220.456V379.076H222.016C222.368 378.724 222.568 378.068 222.616 377.108L223.12 364.7H231.352ZM224.608 379.076H228.616V367.124H225.688L225.352 376.964C225.32 377.828 225.072 378.532 224.608 379.076ZM234.467 381.524C234.131 381.524 233.867 381.492 233.675 381.428V379.052C233.867 379.1 234.051 379.124 234.227 379.124C234.819 379.124 235.227 378.98 235.451 378.692C235.691 378.388 235.827 377.868 235.859 377.132L236.363 364.7H244.571V381.5H241.859V367.124H238.931L238.571 377.204C238.523 378.708 238.179 379.804 237.539 380.492C236.899 381.18 235.875 381.524 234.467 381.524ZM255.621 364.7V381.5H252.885V374.396H251.637C250.869 374.396 250.325 374.564 250.005 374.9C249.701 375.236 249.549 375.82 249.549 376.652V379.292C249.549 380.236 249.461 380.972 249.285 381.5H246.525C246.733 380.988 246.837 380.26 246.837 379.316V376.82C246.837 375.716 246.997 374.868 247.317 374.276C247.637 373.668 248.157 373.26 248.877 373.052V372.98C247.533 372.484 246.861 371.34 246.861 369.548V368.732C246.861 367.356 247.213 366.34 247.917 365.684C248.637 365.028 249.749 364.7 251.253 364.7H255.621ZM251.589 371.972H252.885V367.124H251.301C250.709 367.124 250.277 367.276 250.005 367.58C249.733 367.884 249.597 368.364 249.597 369.02V369.98C249.597 370.684 249.757 371.196 250.077 371.516C250.397 371.82 250.901 371.972 251.589 371.972ZM264.858 381.5H262.122V364.7H266.466C269.41 364.7 270.882 366.156 270.882 369.068V370.316C270.882 373.228 269.41 374.684 266.466 374.684H264.858V381.5ZM264.858 367.124V372.284H266.466C267.058 372.284 267.482 372.14 267.738 371.852C268.01 371.548 268.146 371.06 268.146 370.388V368.972C268.146 368.3 268.01 367.828 267.738 367.556C267.482 367.268 267.058 367.124 266.466 367.124H264.858ZM280.756 381.5H272.692V364.7H280.756V367.124H275.428V371.636H279.7V374.06H275.428V379.076H280.756V381.5ZM291.99 381.5H289.206L288.654 378.236H284.958L284.382 381.5H281.838L285.054 364.7H288.75L291.99 381.5ZM286.806 367.532L285.366 375.86H288.246L286.806 367.532ZM293.74 381.524C293.404 381.524 293.14 381.492 292.948 381.428V379.052C293.14 379.1 293.324 379.124 293.5 379.124C294.092 379.124 294.5 378.98 294.724 378.692C294.964 378.388 295.1 377.868 295.132 377.132L295.636 364.7H303.844V381.5H301.132V367.124H298.204L297.844 377.204C297.796 378.708 297.452 379.804 296.812 380.492C296.172 381.18 295.148 381.524 293.74 381.524ZM308.703 375.932L312.759 364.7H315.543V381.5H313.071V370.22L309.039 381.5H306.255V364.7H308.703V375.932ZM321.814 381.74C320.374 381.74 319.278 381.364 318.526 380.612C317.774 379.844 317.398 378.74 317.398 377.3V376.172H319.966V377.348C319.966 378.66 320.558 379.316 321.742 379.316C322.366 379.316 322.814 379.156 323.086 378.836C323.374 378.5 323.518 377.956 323.518 377.204V376.292C323.518 375.46 323.35 374.868 323.014 374.516C322.694 374.148 322.158 373.964 321.406 373.964H320.374V371.54H321.478C322.79 371.54 323.446 370.86 323.446 369.5V368.756C323.446 367.508 322.878 366.884 321.742 366.884C320.622 366.884 320.062 367.484 320.062 368.684V369.524H317.494V368.9C317.494 367.46 317.862 366.364 318.598 365.612C319.334 364.844 320.414 364.46 321.838 364.46C323.246 364.46 324.318 364.828 325.054 365.564C325.79 366.3 326.158 367.364 326.158 368.756V369.212C326.158 370.956 325.446 372.084 324.022 372.596V372.62C325.494 373.132 326.23 374.364 326.23 376.316V377.276C326.23 380.252 324.758 381.74 321.814 381.74ZM337.412 381.5H334.628L334.076 378.236H330.38L329.804 381.5H327.26L330.476 364.7H334.172L337.412 381.5ZM332.228 367.532L330.788 375.86H333.668L332.228 367.532ZM349.7 383.756H346.964V381.5H339.02V364.7H341.756V379.076H345.38V364.7H348.116V379.076H349.7V383.756ZM353.773 375.932L357.829 364.7H360.613V381.5H358.141V370.22L354.109 381.5H351.325V364.7H353.773V375.932ZM365.468 375.932L369.524 364.7H372.308V381.5H369.836V370.22L365.804 381.5H363.02V364.7H365.468V375.932ZM386.185 380.588C385.433 381.356 384.361 381.74 382.969 381.74C381.577 381.74 380.497 381.356 379.729 380.588C378.977 379.804 378.601 378.708 378.601 377.3V368.9C378.601 367.492 378.977 366.404 379.729 365.636C380.497 364.852 381.577 364.46 382.969 364.46C384.361 364.46 385.433 364.852 386.185 365.636C386.937 366.404 387.313 367.492 387.313 368.9V370.388H384.745V368.78C384.745 367.484 384.177 366.836 383.041 366.836C381.905 366.836 381.337 367.484 381.337 368.78V377.42C381.337 378.716 381.905 379.364 383.041 379.364C384.177 379.364 384.745 378.716 384.745 377.42V375.308H387.313V377.3C387.313 378.708 386.937 379.804 386.185 380.588ZM393.951 381.5H389.247V364.7H393.711C395.215 364.7 396.319 365.028 397.023 365.684C397.743 366.34 398.103 367.348 398.103 368.708V369.212C398.103 370.924 397.439 372.036 396.111 372.548V372.62C397.631 373.084 398.391 374.324 398.391 376.34V377.204C398.391 380.068 396.911 381.5 393.951 381.5ZM391.983 367.124V371.588H393.351C394.039 371.588 394.543 371.436 394.863 371.132C395.199 370.812 395.367 370.316 395.367 369.644V369.02C395.367 368.348 395.231 367.868 394.959 367.58C394.687 367.276 394.239 367.124 393.615 367.124H391.983ZM391.983 374.012V379.076H393.951C394.543 379.076 394.975 378.932 395.247 378.644C395.519 378.34 395.655 377.852 395.655 377.18V376.244C395.655 375.412 395.495 374.836 395.175 374.516C394.855 374.18 394.295 374.012 393.495 374.012H391.983ZM400.093 377.228V368.972C400.093 367.532 400.477 366.42 401.245 365.636C402.029 364.852 403.141 364.46 404.581 364.46C406.037 364.46 407.149 364.852 407.917 365.636C408.701 366.42 409.093 367.532 409.093 368.972V377.228C409.093 378.668 408.701 379.78 407.917 380.564C407.133 381.348 406.021 381.74 404.581 381.74C403.141 381.74 402.029 381.348 401.245 380.564C400.477 379.78 400.093 378.668 400.093 377.228ZM404.581 379.316C405.765 379.316 406.357 378.668 406.357 377.372V368.828C406.357 367.532 405.765 366.884 404.581 366.884C403.413 366.884 402.829 367.532 402.829 368.828V377.372C402.829 378.668 403.413 379.316 404.581 379.316ZM413.703 375.932L417.759 364.7H420.543V381.5H418.071V370.22L414.039 381.5H411.255V364.7H413.703V375.932ZM424.75 381.5H422.158L425.71 372.884L422.302 364.7H425.23L427.39 370.34L429.622 364.7H432.262L428.854 372.884L432.406 381.5H429.502L427.15 375.428L424.75 381.5ZM440.562 375.932L444.618 364.7H447.402V381.5H444.93V370.22L440.898 381.5H438.114V364.7H440.562V375.932ZM459.961 364.7V379.076H461.401V383.756H458.665V381.5H451.777V383.756H449.065V379.076H450.625C450.977 378.724 451.177 378.068 451.225 377.108L451.729 364.7H459.961ZM453.217 379.076H457.225V367.124H454.297L453.961 376.964C453.929 377.828 453.681 378.532 453.217 379.076ZM471.092 381.5H463.028V364.7H471.092V367.124H465.764V371.636H470.036V374.06H465.764V379.076H471.092V381.5ZM477.527 363.332C476.583 363.332 475.839 363.068 475.295 362.54C474.751 361.996 474.463 361.26 474.431 360.332H476.087C476.167 361.132 476.647 361.532 477.527 361.532C478.407 361.532 478.911 361.132 479.039 360.332H480.647C480.615 361.26 480.327 361.996 479.783 362.54C479.239 363.068 478.487 363.332 477.527 363.332ZM475.343 375.932L479.399 364.7H482.183V381.5H479.711V370.22L475.679 381.5H472.895V364.7H475.343V375.932Z" fill="white"/>
<path opacity="0.4" d="M436 37.0001C476.457 28.0552 596.5 19.5 560.5 58C524.5 96.5 514 77 514 127.5" stroke="#FFF8D9" stroke-width="2" stroke-linecap="round" stroke-dasharray="6 6"/>
<path opacity="0.4" d="M467.5 163.5C410.5 143 397 256.5 276 202.5C155 148.5 134.5 259 142.5 301" stroke="#FFF8D9" stroke-width="2" stroke-linecap="round" stroke-dasharray="6 6"/>
<path opacity="0.4" d="M148 427C156 499 -96.4999 397 44.9998 580.5" stroke="#FFF8D9" stroke-width="2" stroke-linecap="round" stroke-dasharray="6 6"/>
<defs>
<filter id="filter0_ddddd_702_390997" x="32" y="0" width="134" height="132" filterUnits="userSpaceOnUse" color-interpolation-filters="sRGB">
<feFlood flood-opacity="0" result="BackgroundImageFix"/>
<feColorMatrix in="SourceAlpha" type="matrix" values="0 0 0 0 0 0 0 0 0 0 0 0 0 0 0 0 0 0 127 0" result="hardAlpha"/>
<feOffset/>
<feColorMatrix type="matrix" values="0 0 0 0 0.0745098 0 0 0 0 0.12549 0 0 0 0 0.0823529 0 0 0 0.2 0"/>
<feBlend mode="normal" in2="BackgroundImageFix" result="effect1_dropShadow_702_390997"/>
<feColorMatrix in="SourceAlpha" type="matrix" values="0 0 0 0 0 0 0 0 0 0 0 0 0 0 0 0 0 0 127 0" result="hardAlpha"/>
<feOffset dx="2" dy="2"/>
<feGaussianBlur stdDeviation="3"/>
<feColorMatrix type="matrix" values="0 0 0 0 0.0745098 0 0 0 0 0.12549 0 0 0 0 0.0823529 0 0 0 0.2 0"/>
<feBlend mode="normal" in2="effect1_dropShadow_702_390997" result="effect2_dropShadow_702_390997"/>
<feColorMatrix in="SourceAlpha" type="matrix" values="0 0 0 0 0 0 0 0 0 0 0 0 0 0 0 0 0 0 127 0" result="hardAlpha"/>
<feOffset dx="8" dy="7"/>
<feGaussianBlur stdDeviation="5"/>
<feColorMatrix type="matrix" values="0 0 0 0 0.0745098 0 0 0 0 0.12549 0 0 0 0 0.0823529 0 0 0 0.17 0"/>
<feBlend mode="normal" in2="effect2_dropShadow_702_390997" result="effect3_dropShadow_702_390997"/>
<feColorMatrix in="SourceAlpha" type="matrix" values="0 0 0 0 0 0 0 0 0 0 0 0 0 0 0 0 0 0 127 0" result="hardAlpha"/>
<feOffset dx="18" dy="15"/>
<feGaussianBlur stdDeviation="7"/>
<feColorMatrix type="matrix" values="0 0 0 0 0.0745098 0 0 0 0 0.12549 0 0 0 0 0.0823529 0 0 0 0.1 0"/>
<feBlend mode="normal" in2="effect3_dropShadow_702_390997" result="effect4_dropShadow_702_390997"/>
<feColorMatrix in="SourceAlpha" type="matrix" values="0 0 0 0 0 0 0 0 0 0 0 0 0 0 0 0 0 0 127 0" result="hardAlpha"/>
<feOffset dx="33" dy="26"/>
<feGaussianBlur stdDeviation="8.5"/>
<feColorMatrix type="matrix" values="0 0 0 0 0.0745098 0 0 0 0 0.12549 0 0 0 0 0.0823529 0 0 0 0.03 0"/>
<feBlend mode="normal" in2="effect4_dropShadow_702_390997" result="effect5_dropShadow_702_390997"/>
<feBlend mode="normal" in="SourceGraphic" in2="effect5_dropShadow_702_390997" result="shape"/>
</filter>
<filter id="filter1_ddddd_702_390997" x="476" y="136" width="134" height="132" filterUnits="userSpaceOnUse" color-interpolation-filters="sRGB">
<feFlood flood-opacity="0" result="BackgroundImageFix"/>
<feColorMatrix in="SourceAlpha" type="matrix" values="0 0 0 0 0 0 0 0 0 0 0 0 0 0 0 0 0 0 127 0" result="hardAlpha"/>
<feOffset/>
<feColorMatrix type="matrix" values="0 0 0 0 0.0745098 0 0 0 0 0.12549 0 0 0 0 0.0823529 0 0 0 0.2 0"/>
<feBlend mode="normal" in2="BackgroundImageFix" result="effect1_dropShadow_702_390997"/>
<feColorMatrix in="SourceAlpha" type="matrix" values="0 0 0 0 0 0 0 0 0 0 0 0 0 0 0 0 0 0 127 0" result="hardAlpha"/>
<feOffset dx="2" dy="2"/>
<feGaussianBlur stdDeviation="3"/>
<feColorMatrix type="matrix" values="0 0 0 0 0.0745098 0 0 0 0 0.12549 0 0 0 0 0.0823529 0 0 0 0.2 0"/>
<feBlend mode="normal" in2="effect1_dropShadow_702_390997" result="effect2_dropShadow_702_390997"/>
<feColorMatrix in="SourceAlpha" type="matrix" values="0 0 0 0 0 0 0 0 0 0 0 0 0 0 0 0 0 0 127 0" result="hardAlpha"/>
<feOffset dx="8" dy="7"/>
<feGaussianBlur stdDeviation="5"/>
<feColorMatrix type="matrix" values="0 0 0 0 0.0745098 0 0 0 0 0.12549 0 0 0 0 0.0823529 0 0 0 0.17 0"/>
<feBlend mode="normal" in2="effect2_dropShadow_702_390997" result="effect3_dropShadow_702_390997"/>
<feColorMatrix in="SourceAlpha" type="matrix" values="0 0 0 0 0 0 0 0 0 0 0 0 0 0 0 0 0 0 127 0" result="hardAlpha"/>
<feOffset dx="18" dy="15"/>
<feGaussianBlur stdDeviation="7"/>
<feColorMatrix type="matrix" values="0 0 0 0 0.0745098 0 0 0 0 0.12549 0 0 0 0 0.0823529 0 0 0 0.1 0"/>
<feBlend mode="normal" in2="effect3_dropShadow_702_390997" result="effect4_dropShadow_702_390997"/>
<feColorMatrix in="SourceAlpha" type="matrix" values="0 0 0 0 0 0 0 0 0 0 0 0 0 0 0 0 0 0 127 0" result="hardAlpha"/>
<feOffset dx="33" dy="26"/>
<feGaussianBlur stdDeviation="8.5"/>
<feColorMatrix type="matrix" values="0 0 0 0 0.0745098 0 0 0 0 0.12549 0 0 0 0 0.0823529 0 0 0 0.03 0"/>
<feBlend mode="normal" in2="effect4_dropShadow_702_390997" result="effect5_dropShadow_702_390997"/>
<feBlend mode="normal" in="SourceGraphic" in2="effect5_dropShadow_702_390997" result="shape"/>
</filter>
<filter id="filter2_ddddd_702_390997" x="112" y="309" width="134" height="132" filterUnits="userSpaceOnUse" color-interpolation-filters="sRGB">
<feFlood flood-opacity="0" result="BackgroundImageFix"/>
<feColorMatrix in="SourceAlpha" type="matrix" values="0 0 0 0 0 0 0 0 0 0 0 0 0 0 0 0 0 0 127 0" result="hardAlpha"/>
<feOffset/>
<feColorMatrix type="matrix" values="0 0 0 0 0.0745098 0 0 0 0 0.12549 0 0 0 0 0.0823529 0 0 0 0.2 0"/>
<feBlend mode="normal" in2="BackgroundImageFix" result="effect1_dropShadow_702_390997"/>
<feColorMatrix in="SourceAlpha" type="matrix" values="0 0 0 0 0 0 0 0 0 0 0 0 0 0 0 0 0 0 127 0" result="hardAlpha"/>
<feOffset dx="2" dy="2"/>
<feGaussianBlur stdDeviation="3"/>
<feColorMatrix type="matrix" values="0 0 0 0 0.0745098 0 0 0 0 0.12549 0 0 0 0 0.0823529 0 0 0 0.2 0"/>
<feBlend mode="normal" in2="effect1_dropShadow_702_390997" result="effect2_dropShadow_702_390997"/>
<feColorMatrix in="SourceAlpha" type="matrix" values="0 0 0 0 0 0 0 0 0 0 0 0 0 0 0 0 0 0 127 0" result="hardAlpha"/>
<feOffset dx="8" dy="7"/>
<feGaussianBlur stdDeviation="5"/>
<feColorMatrix type="matrix" values="0 0 0 0 0.0745098 0 0 0 0 0.12549 0 0 0 0 0.0823529 0 0 0 0.17 0"/>
<feBlend mode="normal" in2="effect2_dropShadow_702_390997" result="effect3_dropShadow_702_390997"/>
<feColorMatrix in="SourceAlpha" type="matrix" values="0 0 0 0 0 0 0 0 0 0 0 0 0 0 0 0 0 0 127 0" result="hardAlpha"/>
<feOffset dx="18" dy="15"/>
<feGaussianBlur stdDeviation="7"/>
<feColorMatrix type="matrix" values="0 0 0 0 0.0745098 0 0 0 0 0.12549 0 0 0 0 0.0823529 0 0 0 0.1 0"/>
<feBlend mode="normal" in2="effect3_dropShadow_702_390997" result="effect4_dropShadow_702_390997"/>
<feColorMatrix in="SourceAlpha" type="matrix" values="0 0 0 0 0 0 0 0 0 0 0 0 0 0 0 0 0 0 127 0" result="hardAlpha"/>
<feOffset dx="33" dy="26"/>
<feGaussianBlur stdDeviation="8.5"/>
<feColorMatrix type="matrix" values="0 0 0 0 0.0745098 0 0 0 0 0.12549 0 0 0 0 0.0823529 0 0 0 0.03 0"/>
<feBlend mode="normal" in2="effect4_dropShadow_702_390997" result="effect5_dropShadow_702_390997"/>
<feBlend mode="normal" in="SourceGraphic" in2="effect5_dropShadow_702_390997" result="shape"/>
</filter>
</defs>
</svg>
