<svg width="897" height="535" viewBox="0 0 897 535" fill="none" xmlns="http://www.w3.org/2000/svg">
<g filter="url(#filter0_ddddd_504_403137)">
<path d="M149 313L154.174 315.354L159.792 314.483L164.139 318.146L169.783 318.823L172.981 323.523L178.233 325.698L180.045 331.086L184.515 334.597L184.806 340.275L188.163 344.862L186.911 350.407L188.907 355.73L186.205 360.731L186.69 366.395L182.74 370.482L181.679 376.067L176.772 378.937L174.244 384.028L168.744 385.468L164.936 389.688L159.252 389.591L154.447 392.627L149 391L143.553 392.627L138.748 389.591L133.064 389.688L129.256 385.468L123.756 384.028L121.228 378.937L116.321 376.067L115.26 370.482L111.31 366.395L111.795 360.731L109.093 355.73L111.089 350.407L109.837 344.862L113.194 340.275L113.485 334.597L117.955 331.086L119.767 325.698L125.019 323.523L128.217 318.823L133.861 318.146L138.208 314.483L143.826 315.354L149 313Z" fill="#DCD1A1"/>
<path d="M149 313L154.174 315.354L159.792 314.483L164.139 318.146L169.783 318.823L172.981 323.523L178.233 325.698L180.045 331.086L184.515 334.597L184.806 340.275L188.163 344.862L186.911 350.407L188.907 355.73L186.205 360.731L186.69 366.395L182.74 370.482L181.679 376.067L176.772 378.937L174.244 384.028L168.744 385.468L164.936 389.688L159.252 389.591L154.447 392.627L149 391L143.553 392.627L138.748 389.591L133.064 389.688L129.256 385.468L123.756 384.028L121.228 378.937L116.321 376.067L115.26 370.482L111.31 366.395L111.795 360.731L109.093 355.73L111.089 350.407L109.837 344.862L113.194 340.275L113.485 334.597L117.955 331.086L119.767 325.698L125.019 323.523L128.217 318.823L133.861 318.146L138.208 314.483L143.826 315.354L149 313Z" fill="url(#paint0_radial_504_403137)"/>
<path opacity="0.2" d="M153.621 318.541L153.729 318.591L153.848 318.573L158.864 317.795L162.746 321.066L162.837 321.143L162.956 321.157L167.996 321.762L170.852 325.959L170.919 326.058L171.03 326.103L175.72 328.045L177.337 332.857L177.375 332.97L177.469 333.044L181.462 336.18L181.721 341.249L181.727 341.369L181.798 341.465L184.796 345.562L183.678 350.513L183.652 350.63L183.694 350.742L185.475 355.495L183.063 359.961L183.006 360.067L183.016 360.186L183.45 365.243L179.922 368.893L179.839 368.979L179.816 369.097L178.869 374.084L174.487 376.646L174.384 376.707L174.331 376.814L172.073 381.36L167.162 382.646L167.046 382.676L166.966 382.765L163.566 386.534L158.49 386.447L158.371 386.445L158.27 386.508L153.978 389.22L149.115 387.767L149 387.733L148.885 387.767L144.022 389.22L139.73 386.508L139.629 386.445L139.51 386.447L134.434 386.534L131.034 382.765L130.954 382.676L130.838 382.646L125.927 381.36L123.669 376.814L123.616 376.707L123.513 376.646L119.131 374.084L118.184 369.097L118.162 368.979L118.078 368.893L114.55 365.243L114.984 360.186L114.994 360.067L114.937 359.961L112.525 355.495L114.306 350.742L114.348 350.63L114.322 350.513L113.204 345.562L116.202 341.465L116.273 341.369L116.279 341.249L116.538 336.18L120.531 333.044L120.625 332.97L120.663 332.857L122.28 328.045L126.97 326.103L127.081 326.058L127.148 325.959L130.004 321.762L135.044 321.157L135.163 321.143L135.254 321.066L139.136 317.795L144.152 318.573L144.271 318.591L144.379 318.541L149 316.439L153.621 318.541Z" stroke="black" stroke-width="0.8"/>
<path d="M143.72 359.596V357.544H147.464V359.776C147.464 361.432 148.148 362.26 149.516 362.26C150.212 362.26 150.728 362.044 151.064 361.612C151.4 361.18 151.568 360.448 151.568 359.416V357.364C151.568 356.212 151.364 355.396 150.956 354.916C150.548 354.412 149.888 354.16 148.976 354.16H147.644V350.56H149.084C149.9 350.56 150.5 350.356 150.884 349.948C151.268 349.516 151.46 348.832 151.46 347.896V346.06C151.46 344.38 150.8 343.54 149.48 343.54C148.208 343.54 147.572 344.32 147.572 345.88V347.536H143.828V346.204C143.828 344.188 144.32 342.64 145.304 341.56C146.312 340.48 147.752 339.94 149.624 339.94C151.52 339.94 152.96 340.48 153.944 341.56C154.928 342.616 155.42 344.152 155.42 346.168V347.068C155.42 349.756 154.484 351.448 152.612 352.144V352.216C154.556 352.936 155.528 354.664 155.528 357.4V359.632C155.528 361.648 155.024 363.196 154.016 364.276C153.032 365.332 151.568 365.86 149.624 365.86C147.68 365.86 146.204 365.32 145.196 364.24C144.212 363.16 143.72 361.612 143.72 359.596Z" fill="#C74403"/>
</g>
<path d="M223.584 343H220.8L220.248 339.736H216.552L215.976 343H213.432L216.648 326.2H220.344L223.584 343ZM218.4 329.032L216.96 337.36H219.84L218.4 329.032ZM229.896 343H225.192V326.2H229.656C231.16 326.2 232.264 326.528 232.968 327.184C233.688 327.84 234.048 328.848 234.048 330.208V330.712C234.048 332.424 233.384 333.536 232.056 334.048V334.12C233.576 334.584 234.336 335.824 234.336 337.84V338.704C234.336 341.568 232.856 343 229.896 343ZM227.928 328.624V333.088H229.296C229.984 333.088 230.488 332.936 230.808 332.632C231.144 332.312 231.312 331.816 231.312 331.144V330.52C231.312 329.848 231.176 329.368 230.904 329.08C230.632 328.776 230.184 328.624 229.56 328.624H227.928ZM227.928 335.512V340.576H229.896C230.488 340.576 230.92 340.432 231.192 340.144C231.464 339.84 231.6 339.352 231.6 338.68V337.744C231.6 336.912 231.44 336.336 231.12 336.016C230.8 335.68 230.24 335.512 229.44 335.512H227.928ZM241.392 343H238.68V328.624H235.464V326.2H244.608V328.624H241.392V343ZM245.953 338.728V330.472C245.953 329.032 246.337 327.92 247.105 327.136C247.889 326.352 249.001 325.96 250.441 325.96C251.897 325.96 253.009 326.352 253.777 327.136C254.561 327.92 254.953 329.032 254.953 330.472V338.728C254.953 340.168 254.561 341.28 253.777 342.064C252.993 342.848 251.881 343.24 250.441 343.24C249.001 343.24 247.889 342.848 247.105 342.064C246.337 341.28 245.953 340.168 245.953 338.728ZM250.441 340.816C251.625 340.816 252.217 340.168 252.217 338.872V330.328C252.217 329.032 251.625 328.384 250.441 328.384C249.273 328.384 248.689 329.032 248.689 330.328V338.872C248.689 340.168 249.273 340.816 250.441 340.816ZM259.85 343H257.114V326.2H261.458C264.402 326.2 265.874 327.656 265.874 330.568V331.816C265.874 334.728 264.402 336.184 261.458 336.184H259.85V343ZM259.85 328.624V333.784H261.458C262.05 333.784 262.474 333.64 262.73 333.352C263.002 333.048 263.138 332.56 263.138 331.888V330.472C263.138 329.8 263.002 329.328 262.73 329.056C262.474 328.768 262.05 328.624 261.458 328.624H259.85ZM272.052 343H267.684V326.2H270.42V332.68H272.052C274.996 332.68 276.468 334.16 276.468 337.12V338.56C276.468 341.52 274.996 343 272.052 343ZM281.028 343H278.292V326.2H281.028V343ZM270.42 335.104V340.576H272.052C272.628 340.576 273.052 340.432 273.324 340.144C273.596 339.84 273.732 339.36 273.732 338.704V336.976C273.732 336.32 273.596 335.848 273.324 335.56C273.052 335.256 272.628 335.104 272.052 335.104H270.42ZM294.904 342.088C294.152 342.856 293.08 343.24 291.688 343.24C290.296 343.24 289.216 342.856 288.448 342.088C287.696 341.304 287.32 340.208 287.32 338.8V330.4C287.32 328.992 287.696 327.904 288.448 327.136C289.216 326.352 290.296 325.96 291.688 325.96C293.08 325.96 294.152 326.352 294.904 327.136C295.656 327.904 296.032 328.992 296.032 330.4V331.888H293.464V330.28C293.464 328.984 292.896 328.336 291.76 328.336C290.624 328.336 290.056 328.984 290.056 330.28V338.92C290.056 340.216 290.624 340.864 291.76 340.864C292.896 340.864 293.464 340.216 293.464 338.92V336.808H296.032V338.8C296.032 340.208 295.656 341.304 294.904 342.088ZM307.303 343H304.519L303.967 339.736H300.271L299.695 343H297.151L300.367 326.2H304.063L307.303 343ZM302.119 329.032L300.679 337.36H303.559L302.119 329.032ZM311.311 343H308.911V326.2H312.775L315.031 338.536L317.263 326.2H321.127V343H318.535V329.992L316.063 343H313.783L311.311 329.992V343ZM327.904 343H323.536V326.2H326.272V332.68H327.904C330.848 332.68 332.32 334.16 332.32 337.12V338.56C332.32 341.52 330.848 343 327.904 343ZM336.88 343H334.144V326.2H336.88V343ZM326.272 335.104V340.576H327.904C328.48 340.576 328.904 340.432 329.176 340.144C329.448 339.84 329.584 339.36 329.584 338.704V336.976C329.584 336.32 329.448 335.848 329.176 335.56C328.904 335.256 328.48 335.104 327.904 335.104H326.272ZM341.086 343H338.494L342.046 334.384L338.638 326.2H341.566L343.726 331.84L345.958 326.2H348.598L345.19 334.384L348.742 343H345.838L343.486 336.928L341.086 343ZM364.17 343H361.29L358.626 335.32L357.186 337.696V343H354.45V326.2H357.186V333.592L361.338 326.2H364.122L360.474 332.44L364.17 343ZM368.506 343H365.77V326.2H370.114C373.058 326.2 374.53 327.656 374.53 330.568V331.816C374.53 334.728 373.058 336.184 370.114 336.184H368.506V343ZM368.506 328.624V333.784H370.114C370.706 333.784 371.13 333.64 371.386 333.352C371.658 333.048 371.794 332.56 371.794 331.888V330.472C371.794 329.8 371.658 329.328 371.386 329.056C371.13 328.768 370.706 328.624 370.114 328.624H368.506ZM384.405 343H376.341V326.2H384.405V328.624H379.077V333.136H383.349V335.56H379.077V340.576H384.405V343ZM395.639 343H392.855L392.303 339.736H388.607L388.031 343H385.487L388.703 326.2H392.399L395.639 343ZM390.455 329.032L389.015 337.36H391.895L390.455 329.032ZM401.095 343H398.383V328.624H395.167V326.2H404.311V328.624H401.095V343ZM408.414 337.432L412.47 326.2H415.254V343H412.782V331.72L408.75 343H405.966V326.2H408.414V337.432ZM422.365 343H417.661V326.2H422.125C423.629 326.2 424.733 326.528 425.437 327.184C426.157 327.84 426.517 328.848 426.517 330.208V330.712C426.517 332.424 425.853 333.536 424.525 334.048V334.12C426.045 334.584 426.805 335.824 426.805 337.84V338.704C426.805 341.568 425.325 343 422.365 343ZM420.397 328.624V333.088H421.765C422.453 333.088 422.957 332.936 423.277 332.632C423.613 332.312 423.781 331.816 423.781 331.144V330.52C423.781 329.848 423.645 329.368 423.373 329.08C423.101 328.776 422.653 328.624 422.029 328.624H420.397ZM420.397 335.512V340.576H422.365C422.957 340.576 423.389 340.432 423.661 340.144C423.933 339.84 424.069 339.352 424.069 338.68V337.744C424.069 336.912 423.909 336.336 423.589 336.016C423.269 335.68 422.709 335.512 421.909 335.512H420.397ZM431.459 343H428.723V326.2H431.459V333.136H435.083V326.2H437.819V343H435.083V335.56H431.459V343ZM444.576 343H440.208V326.2H442.944V332.68H444.576C447.52 332.68 448.992 334.16 448.992 337.12V338.56C448.992 341.52 447.52 343 444.576 343ZM453.552 343H450.816V326.2H453.552V343ZM442.944 335.104V340.576H444.576C445.152 340.576 445.576 340.432 445.848 340.144C446.12 339.84 446.256 339.36 446.256 338.704V336.976C446.256 336.32 446.12 335.848 445.848 335.56C445.576 335.256 445.152 335.104 444.576 335.104H442.944ZM457.758 343H455.166L458.718 334.384L455.31 326.2H458.238L460.398 331.84L462.63 326.2H465.27L461.862 334.384L465.414 343H462.51L460.158 336.928L457.758 343ZM473.57 337.432L477.626 326.2H480.41V343H477.938V331.72L473.906 343H471.122V326.2H473.57V337.432ZM489.655 343H486.919V326.2H496.015V343H493.279V328.624H489.655V343ZM498.187 338.728V330.472C498.187 329.032 498.571 327.92 499.339 327.136C500.123 326.352 501.235 325.96 502.675 325.96C504.131 325.96 505.243 326.352 506.011 327.136C506.795 327.92 507.187 329.032 507.187 330.472V338.728C507.187 340.168 506.795 341.28 506.011 342.064C505.227 342.848 504.115 343.24 502.675 343.24C501.235 343.24 500.123 342.848 499.339 342.064C498.571 341.28 498.187 340.168 498.187 338.728ZM502.675 340.816C503.859 340.816 504.451 340.168 504.451 338.872V330.328C504.451 329.032 503.859 328.384 502.675 328.384C501.507 328.384 500.923 329.032 500.923 330.328V338.872C500.923 340.168 501.507 340.816 502.675 340.816ZM512.084 343H509.348V326.2H518.444V343H515.708V328.624H512.084V343ZM525.321 335.272L527.481 326.2H530.097L526.473 340.144C526.185 341.248 525.729 342.04 525.105 342.52C524.481 343 523.601 343.24 522.465 343.24C521.809 343.24 521.257 343.152 520.809 342.976V340.624C521.193 340.752 521.609 340.816 522.057 340.816C522.569 340.816 522.953 340.744 523.209 340.6C523.465 340.44 523.657 340.168 523.785 339.784L523.905 339.352L520.113 326.2H522.945L525.321 335.272ZM530.232 343.024C529.896 343.024 529.632 342.992 529.44 342.928V340.552C529.632 340.6 529.816 340.624 529.992 340.624C530.584 340.624 530.992 340.48 531.216 340.192C531.456 339.888 531.592 339.368 531.624 338.632L532.128 326.2H540.336V343H537.624V328.624H534.696L534.336 338.704C534.288 340.208 533.944 341.304 533.304 341.992C532.664 342.68 531.64 343.024 530.232 343.024ZM551.387 326.2V343H548.651V335.896H547.403C546.635 335.896 546.091 336.064 545.771 336.4C545.467 336.736 545.315 337.32 545.315 338.152V340.792C545.315 341.736 545.227 342.472 545.051 343H542.291C542.499 342.488 542.603 341.76 542.603 340.816V338.32C542.603 337.216 542.763 336.368 543.083 335.776C543.403 335.168 543.923 334.76 544.643 334.552V334.48C543.299 333.984 542.627 332.84 542.627 331.048V330.232C542.627 328.856 542.979 327.84 543.683 327.184C544.403 326.528 545.515 326.2 547.019 326.2H551.387ZM547.355 333.472H548.651V328.624H547.067C546.475 328.624 546.043 328.776 545.771 329.08C545.499 329.384 545.363 329.864 545.363 330.52V331.48C545.363 332.184 545.523 332.696 545.843 333.016C546.163 333.32 546.667 333.472 547.355 333.472ZM556.522 343H553.786V326.2H558.13C561.074 326.2 562.546 327.656 562.546 330.568V331.816C562.546 334.728 561.074 336.184 558.13 336.184H556.522V343ZM556.522 328.624V333.784H558.13C558.722 333.784 559.146 333.64 559.402 333.352C559.674 333.048 559.81 332.56 559.81 331.888V330.472C559.81 329.8 559.674 329.328 559.402 329.056C559.146 328.768 558.722 328.624 558.13 328.624H556.522ZM567.092 343H564.356V326.2H567.092V333.136H570.716V326.2H573.452V343H570.716V335.56H567.092V343ZM580.209 343H575.841V326.2H578.577V332.68H580.209C583.153 332.68 584.625 334.16 584.625 337.12V338.56C584.625 341.52 583.153 343 580.209 343ZM589.185 343H586.449V326.2H589.185V343ZM578.577 335.104V340.576H580.209C580.785 340.576 581.209 340.432 581.481 340.144C581.753 339.84 581.889 339.36 581.889 338.704V336.976C581.889 336.32 581.753 335.848 581.481 335.56C581.209 335.256 580.785 335.104 580.209 335.104H578.577ZM593.391 343H590.799L594.351 334.384L590.943 326.2H593.871L596.031 331.84L598.263 326.2H600.903L597.495 334.384L601.047 343H598.143L595.791 336.928L593.391 343ZM609.203 337.432L613.259 326.2H616.043V343H613.571V331.72L609.539 343H606.755V326.2H609.203V337.432ZM625.818 342.088C625.066 342.856 623.994 343.24 622.602 343.24C621.21 343.24 620.13 342.856 619.362 342.088C618.61 341.304 618.234 340.208 618.234 338.8V330.4C618.234 328.992 618.61 327.904 619.362 327.136C620.13 326.352 621.21 325.96 622.602 325.96C623.994 325.96 625.066 326.352 625.818 327.136C626.57 327.904 626.946 328.992 626.946 330.4V331.888H624.378V330.28C624.378 328.984 623.81 328.336 622.674 328.336C621.538 328.336 620.97 328.984 620.97 330.28V338.92C620.97 340.216 621.538 340.864 622.674 340.864C623.81 340.864 624.378 340.216 624.378 338.92V336.808H626.946V338.8C626.946 340.208 626.57 341.304 625.818 342.088ZM634.064 343H631.352V328.624H628.136V326.2H637.28V328.624H634.064V343ZM638.625 338.728V330.472C638.625 329.032 639.009 327.92 639.777 327.136C640.561 326.352 641.673 325.96 643.113 325.96C644.569 325.96 645.681 326.352 646.449 327.136C647.233 327.92 647.625 329.032 647.625 330.472V338.728C647.625 340.168 647.233 341.28 646.449 342.064C645.665 342.848 644.553 343.24 643.113 343.24C641.673 343.24 640.561 342.848 639.777 342.064C639.009 341.28 638.625 340.168 638.625 338.728ZM643.113 340.816C644.297 340.816 644.889 340.168 644.889 338.872V330.328C644.889 329.032 644.297 328.384 643.113 328.384C641.945 328.384 641.361 329.032 641.361 330.328V338.872C641.361 340.168 641.945 340.816 643.113 340.816ZM652.522 343H649.786V326.2H654.13C657.074 326.2 658.546 327.656 658.546 330.568V331.816C658.546 334.728 657.074 336.184 654.13 336.184H652.522V343ZM652.522 328.624V333.784H654.13C654.722 333.784 655.146 333.64 655.402 333.352C655.674 333.048 655.81 332.56 655.81 331.888V330.472C655.81 329.8 655.674 329.328 655.402 329.056C655.146 328.768 654.722 328.624 654.13 328.624H652.522ZM662.804 337.432L666.86 326.2H669.644V343H667.172V331.72L663.14 343H660.356V326.2H662.804V337.432ZM676.684 324.832C675.74 324.832 674.996 324.568 674.452 324.04C673.908 323.496 673.62 322.76 673.588 321.832H675.244C675.324 322.632 675.804 323.032 676.684 323.032C677.564 323.032 678.068 322.632 678.196 321.832H679.804C679.772 322.76 679.484 323.496 678.94 324.04C678.396 324.568 677.644 324.832 676.684 324.832ZM674.5 337.432L678.556 326.2H681.34V343H678.868V331.72L674.836 343H672.052V326.2H674.5V337.432ZM216.936 379H214.2V362.2H223.296V379H220.56V364.624H216.936V379ZM225.468 374.728V366.472C225.468 365.032 225.852 363.92 226.62 363.136C227.404 362.352 228.516 361.96 229.956 361.96C231.412 361.96 232.524 362.352 233.292 363.136C234.076 363.92 234.468 365.032 234.468 366.472V374.728C234.468 376.168 234.076 377.28 233.292 378.064C232.508 378.848 231.396 379.24 229.956 379.24C228.516 379.24 227.404 378.848 226.62 378.064C225.852 377.28 225.468 376.168 225.468 374.728ZM229.956 376.816C231.14 376.816 231.732 376.168 231.732 374.872V366.328C231.732 365.032 231.14 364.384 229.956 364.384C228.788 364.384 228.204 365.032 228.204 366.328V374.872C228.204 376.168 228.788 376.816 229.956 376.816ZM236.561 379.024C236.225 379.024 235.961 378.992 235.769 378.928V376.552C235.961 376.6 236.145 376.624 236.321 376.624C236.913 376.624 237.321 376.48 237.545 376.192C237.785 375.888 237.921 375.368 237.953 374.632L238.457 362.2H246.665V379H243.953V364.624H241.025L240.665 374.704C240.617 376.208 240.273 377.304 239.633 377.992C238.993 378.68 237.969 379.024 236.561 379.024ZM253.563 371.272L255.723 362.2H258.339L254.715 376.144C254.427 377.248 253.971 378.04 253.347 378.52C252.723 379 251.843 379.24 250.707 379.24C250.051 379.24 249.499 379.152 249.051 378.976V376.624C249.435 376.752 249.851 376.816 250.299 376.816C250.811 376.816 251.195 376.744 251.451 376.6C251.707 376.44 251.899 376.168 252.027 375.784L252.147 375.352L248.355 362.2H251.187L253.563 371.272ZM265.856 368.296V362.2H268.592V379H265.856V371.992C265.152 372.712 264.2 373.072 263 373.072C260.632 373.072 259.448 371.72 259.448 369.016V362.2H262.16V368.656C262.16 369.952 262.72 370.6 263.84 370.6C264.48 370.6 264.976 370.408 265.328 370.024C265.68 369.624 265.856 369.048 265.856 368.296ZM280.373 379H277.589L277.037 375.736H273.341L272.765 379H270.221L273.437 362.2H277.133L280.373 379ZM275.189 365.032L273.749 373.36H276.629L275.189 365.032ZM285.829 379H283.117V364.624H279.901V362.2H289.045V364.624H285.829V379ZM297.538 379H294.802V362.2H303.898V379H301.162V364.624H297.538V379ZM309.022 379H306.286V362.2H310.63C313.574 362.2 315.046 363.656 315.046 366.568V367.816C315.046 370.728 313.574 372.184 310.63 372.184H309.022V379ZM309.022 364.624V369.784H310.63C311.222 369.784 311.646 369.64 311.902 369.352C312.174 369.048 312.31 368.56 312.31 367.888V366.472C312.31 365.8 312.174 365.328 311.902 365.056C311.646 364.768 311.222 364.624 310.63 364.624H309.022ZM319.304 373.432L323.36 362.2H326.144V379H323.672V367.72L319.64 379H316.856V362.2H319.304V373.432ZM332.416 379.24C330.976 379.24 329.88 378.864 329.128 378.112C328.376 377.344 328 376.24 328 374.8V373.672H330.568V374.848C330.568 376.16 331.16 376.816 332.344 376.816C332.968 376.816 333.416 376.656 333.688 376.336C333.976 376 334.12 375.456 334.12 374.704V373.792C334.12 372.96 333.952 372.368 333.616 372.016C333.296 371.648 332.76 371.464 332.008 371.464H330.976V369.04H332.08C333.392 369.04 334.048 368.36 334.048 367V366.256C334.048 365.008 333.48 364.384 332.344 364.384C331.224 364.384 330.664 364.984 330.664 366.184V367.024H328.096V366.4C328.096 364.96 328.464 363.864 329.2 363.112C329.936 362.344 331.016 361.96 332.44 361.96C333.848 361.96 334.92 362.328 335.656 363.064C336.392 363.8 336.76 364.864 336.76 366.256V366.712C336.76 368.456 336.048 369.584 334.624 370.096V370.12C336.096 370.632 336.832 371.864 336.832 373.816V374.776C336.832 377.752 335.36 379.24 332.416 379.24ZM343.185 379H338.817V362.2H341.553V368.68H343.185C346.129 368.68 347.601 370.16 347.601 373.12V374.56C347.601 377.52 346.129 379 343.185 379ZM352.161 379H349.425V362.2H352.161V379ZM341.553 371.104V376.576H343.185C343.761 376.576 344.185 376.432 344.457 376.144C344.729 375.84 344.865 375.36 344.865 374.704V372.976C344.865 372.32 344.729 371.848 344.457 371.56C344.185 371.256 343.761 371.104 343.185 371.104H341.553ZM368.821 362.2V376.576H370.261V381.256H367.525V379H360.637V381.256H357.925V376.576H359.485C359.837 376.224 360.037 375.568 360.085 374.608L360.589 362.2H368.821ZM362.077 376.576H366.085V364.624H363.157L362.821 374.464C362.789 375.328 362.541 376.032 362.077 376.576ZM371.936 379.024C371.6 379.024 371.336 378.992 371.144 378.928V376.552C371.336 376.6 371.52 376.624 371.696 376.624C372.288 376.624 372.696 376.48 372.92 376.192C373.16 375.888 373.296 375.368 373.328 374.632L373.832 362.2H382.04V379H379.328V364.624H376.4L376.04 374.704C375.992 376.208 375.648 377.304 375.008 377.992C374.368 378.68 373.344 379.024 371.936 379.024ZM393.09 362.2V379H390.354V371.896H389.106C388.338 371.896 387.794 372.064 387.474 372.4C387.17 372.736 387.018 373.32 387.018 374.152V376.792C387.018 377.736 386.93 378.472 386.754 379H383.994C384.202 378.488 384.306 377.76 384.306 376.816V374.32C384.306 373.216 384.466 372.368 384.786 371.776C385.106 371.168 385.626 370.76 386.346 370.552V370.48C385.002 369.984 384.33 368.84 384.33 367.048V366.232C384.33 364.856 384.682 363.84 385.386 363.184C386.106 362.528 387.218 362.2 388.722 362.2H393.09ZM389.058 369.472H390.354V364.624H388.77C388.178 364.624 387.746 364.776 387.474 365.08C387.202 365.384 387.066 365.864 387.066 366.52V367.48C387.066 368.184 387.226 368.696 387.546 369.016C387.866 369.32 388.37 369.472 389.058 369.472ZM408.231 362.2V379H405.495V371.896H404.247C403.479 371.896 402.935 372.064 402.615 372.4C402.311 372.736 402.159 373.32 402.159 374.152V376.792C402.159 377.736 402.071 378.472 401.895 379H399.135C399.343 378.488 399.447 377.76 399.447 376.816V374.32C399.447 373.216 399.607 372.368 399.927 371.776C400.247 371.168 400.767 370.76 401.487 370.552V370.48C400.143 369.984 399.471 368.84 399.471 367.048V366.232C399.471 364.856 399.823 363.84 400.527 363.184C401.247 362.528 402.359 362.2 403.863 362.2H408.231ZM404.199 369.472H405.495V364.624H403.911C403.319 364.624 402.887 364.776 402.615 365.08C402.343 365.384 402.207 365.864 402.207 366.52V367.48C402.207 368.184 402.367 368.696 402.687 369.016C403.007 369.32 403.511 369.472 404.199 369.472ZM413.366 379H410.63V362.2H414.974C417.918 362.2 419.39 363.656 419.39 366.568V367.816C419.39 370.728 417.918 372.184 414.974 372.184H413.366V379ZM413.366 364.624V369.784H414.974C415.566 369.784 415.99 369.64 416.246 369.352C416.518 369.048 416.654 368.56 416.654 367.888V366.472C416.654 365.8 416.518 365.328 416.246 365.056C415.99 364.768 415.566 364.624 414.974 364.624H413.366ZM430.92 379H428.04L425.376 371.32L423.936 373.696V379H421.2V362.2H423.936V369.592L428.088 362.2H430.872L427.224 368.44L430.92 379ZM431.882 374.728V366.472C431.882 365.032 432.266 363.92 433.034 363.136C433.818 362.352 434.93 361.96 436.37 361.96C437.826 361.96 438.938 362.352 439.706 363.136C440.49 363.92 440.882 365.032 440.882 366.472V374.728C440.882 376.168 440.49 377.28 439.706 378.064C438.922 378.848 437.81 379.24 436.37 379.24C434.93 379.24 433.818 378.848 433.034 378.064C432.266 377.28 431.882 376.168 431.882 374.728ZM436.37 376.816C437.554 376.816 438.146 376.168 438.146 374.872V366.328C438.146 365.032 437.554 364.384 436.37 364.384C435.202 364.384 434.618 365.032 434.618 366.328V374.872C434.618 376.168 435.202 376.816 436.37 376.816ZM445.78 379H443.044V362.2H450.58V364.624H445.78V379ZM451.945 374.728V366.472C451.945 365.032 452.329 363.92 453.097 363.136C453.881 362.352 454.993 361.96 456.433 361.96C457.889 361.96 459.001 362.352 459.769 363.136C460.553 363.92 460.945 365.032 460.945 366.472V374.728C460.945 376.168 460.553 377.28 459.769 378.064C458.985 378.848 457.873 379.24 456.433 379.24C454.993 379.24 453.881 378.848 453.097 378.064C452.329 377.28 451.945 376.168 451.945 374.728ZM456.433 376.816C457.617 376.816 458.209 376.168 458.209 374.872V366.328C458.209 365.032 457.617 364.384 456.433 364.384C455.265 364.384 454.681 365.032 454.681 366.328V374.872C454.681 376.168 455.265 376.816 456.433 376.816ZM467.256 379.024C466.92 379.024 466.656 378.992 466.464 378.928V376.552C466.656 376.6 466.84 376.624 467.016 376.624C467.608 376.624 468.016 376.48 468.24 376.192C468.48 375.888 468.616 375.368 468.648 374.632L469.152 362.2H477.36V379H474.648V364.624H471.72L471.36 374.704C471.312 376.208 470.968 377.304 470.328 377.992C469.688 378.68 468.664 379.024 467.256 379.024ZM487.834 379H479.77V362.2H487.834V364.624H482.506V369.136H486.778V371.56H482.506V376.576H487.834V379ZM494.822 379H492.11V364.624H488.894V362.2H498.038V364.624H494.822V379ZM502.428 379H499.692V362.2H502.428V369.136H506.052V362.2H508.788V379H506.052V371.56H502.428V379ZM519.241 379H511.177V362.2H519.241V364.624H513.913V369.136H518.185V371.56H513.913V376.576H519.241V379ZM523.78 379H521.044V362.2H528.58V364.624H523.78V379ZM529.945 374.728V366.472C529.945 365.032 530.329 363.92 531.097 363.136C531.881 362.352 532.993 361.96 534.433 361.96C535.889 361.96 537.001 362.352 537.769 363.136C538.553 363.92 538.945 365.032 538.945 366.472V374.728C538.945 376.168 538.553 377.28 537.769 378.064C536.985 378.848 535.873 379.24 534.433 379.24C532.993 379.24 531.881 378.848 531.097 378.064C530.329 377.28 529.945 376.168 529.945 374.728ZM534.433 376.816C535.617 376.816 536.209 376.168 536.209 374.872V366.328C536.209 365.032 535.617 364.384 534.433 364.384C533.265 364.384 532.681 365.032 532.681 366.328V374.872C532.681 376.168 533.265 376.816 534.433 376.816ZM544.992 374.728V366.472C544.992 365.032 545.376 363.92 546.144 363.136C546.928 362.352 548.04 361.96 549.48 361.96C550.936 361.96 552.048 362.352 552.816 363.136C553.6 363.92 553.992 365.032 553.992 366.472V374.728C553.992 376.168 553.6 377.28 552.816 378.064C552.032 378.848 550.92 379.24 549.48 379.24C548.04 379.24 546.928 378.848 546.144 378.064C545.376 377.28 544.992 376.168 544.992 374.728ZM549.48 376.816C550.664 376.816 551.256 376.168 551.256 374.872V366.328C551.256 365.032 550.664 364.384 549.48 364.384C548.312 364.384 547.728 365.032 547.728 366.328V374.872C547.728 376.168 548.312 376.816 549.48 376.816ZM561.243 379H558.531V364.624H555.315V362.2H564.459V364.624H561.243V379ZM575.024 362.2V376.576H576.464V381.256H573.728V379H566.84V381.256H564.128V376.576H565.688C566.04 376.224 566.24 375.568 566.288 374.608L566.792 362.2H575.024ZM568.28 376.576H572.288V364.624H569.36L569.024 374.464C568.992 375.328 568.744 376.032 568.28 376.576ZM582.459 379H578.091V362.2H580.827V368.68H582.459C585.403 368.68 586.875 370.16 586.875 373.12V374.56C586.875 377.52 585.403 379 582.459 379ZM591.435 379H588.699V362.2H591.435V379ZM580.827 371.104V376.576H582.459C583.035 376.576 583.459 376.432 583.731 376.144C584.003 375.84 584.139 375.36 584.139 374.704V372.976C584.139 372.32 584.003 371.848 583.731 371.56C583.459 371.256 583.035 371.104 582.459 371.104H580.827ZM595.641 379H593.049L596.601 370.384L593.193 362.2H596.121L598.281 367.84L600.513 362.2H603.153L599.745 370.384L603.297 379H600.393L598.041 372.928L595.641 379ZM614.287 379H611.503L610.951 375.736H607.255L606.679 379H604.135L607.351 362.2H611.047L614.287 379ZM609.103 365.032L607.663 373.36H610.543L609.103 365.032Z" fill="white"/>
<g filter="url(#filter1_ddddd_504_403137)">
<path d="M572 140L577.174 142.354L582.792 141.483L587.139 145.146L592.783 145.823L595.981 150.523L601.233 152.698L603.045 158.086L607.515 161.597L607.806 167.275L611.163 171.862L609.911 177.407L611.907 182.73L609.205 187.731L609.69 193.395L605.74 197.482L604.679 203.067L599.772 205.937L597.244 211.028L591.744 212.468L587.936 216.688L582.252 216.591L577.447 219.627L572 218L566.553 219.627L561.748 216.591L556.064 216.688L552.256 212.468L546.756 211.028L544.228 205.937L539.321 203.067L538.26 197.482L534.31 193.395L534.795 187.731L532.093 182.73L534.089 177.407L532.837 171.862L536.194 167.275L536.485 161.597L540.955 158.086L542.767 152.698L548.019 150.523L551.217 145.823L556.861 145.146L561.208 141.483L566.826 142.354L572 140Z" fill="#DCD1A1"/>
<path d="M572 140L577.174 142.354L582.792 141.483L587.139 145.146L592.783 145.823L595.981 150.523L601.233 152.698L603.045 158.086L607.515 161.597L607.806 167.275L611.163 171.862L609.911 177.407L611.907 182.73L609.205 187.731L609.69 193.395L605.74 197.482L604.679 203.067L599.772 205.937L597.244 211.028L591.744 212.468L587.936 216.688L582.252 216.591L577.447 219.627L572 218L566.553 219.627L561.748 216.591L556.064 216.688L552.256 212.468L546.756 211.028L544.228 205.937L539.321 203.067L538.26 197.482L534.31 193.395L534.795 187.731L532.093 182.73L534.089 177.407L532.837 171.862L536.194 167.275L536.485 161.597L540.955 158.086L542.767 152.698L548.019 150.523L551.217 145.823L556.861 145.146L561.208 141.483L566.826 142.354L572 140Z" fill="url(#paint1_radial_504_403137)"/>
<path opacity="0.2" d="M576.621 145.541L576.729 145.591L576.848 145.573L581.864 144.795L585.746 148.066L585.837 148.143L585.956 148.157L590.996 148.762L593.852 152.959L593.919 153.058L594.03 153.103L598.72 155.045L600.337 159.857L600.375 159.97L600.469 160.044L604.462 163.18L604.721 168.249L604.727 168.369L604.798 168.465L607.796 172.562L606.678 177.513L606.652 177.63L606.694 177.742L608.475 182.495L606.063 186.961L606.006 187.067L606.016 187.186L606.45 192.243L602.922 195.893L602.839 195.979L602.816 196.097L601.869 201.084L597.487 203.646L597.384 203.707L597.331 203.814L595.073 208.36L590.162 209.646L590.046 209.676L589.966 209.765L586.566 213.534L581.49 213.447L581.371 213.445L581.27 213.508L576.978 216.22L572.115 214.767L572 214.733L571.885 214.767L567.022 216.22L562.73 213.508L562.629 213.445L562.51 213.447L557.434 213.534L554.034 209.765L553.954 209.676L553.838 209.646L548.927 208.36L546.669 203.814L546.616 203.707L546.513 203.646L542.131 201.084L541.184 196.097L541.162 195.979L541.078 195.893L537.55 192.243L537.984 187.186L537.994 187.067L537.937 186.961L535.525 182.495L537.306 177.742L537.348 177.63L537.322 177.513L536.204 172.562L539.202 168.465L539.273 168.369L539.279 168.249L539.538 163.18L543.531 160.044L543.625 159.97L543.663 159.857L545.28 155.045L549.97 153.103L550.081 153.058L550.148 152.959L553.004 148.762L558.044 148.157L558.163 148.143L558.254 148.066L562.136 144.795L567.152 145.573L567.271 145.591L567.379 145.541L572 143.439L576.621 145.541Z" stroke="black" stroke-width="0.8"/>
<path d="M578.312 192.5H566.864V189.764C566.864 187.892 567.152 186.296 567.728 184.976C568.304 183.656 569.336 182.216 570.824 180.656C572.36 179 573.38 177.692 573.884 176.732C574.436 175.676 574.712 174.572 574.712 173.42C574.712 172.364 574.544 171.62 574.208 171.188C573.872 170.756 573.356 170.54 572.66 170.54C571.292 170.54 570.608 171.368 570.608 173.024V175.724H566.864V173.276C566.864 171.236 567.368 169.676 568.376 168.596C569.384 167.492 570.848 166.94 572.768 166.94C574.688 166.94 576.152 167.492 577.16 168.596C578.168 169.676 578.672 171.236 578.672 173.276C578.672 174.836 578.3 176.324 577.556 177.74C576.812 179.204 575.552 180.872 573.776 182.744C572.624 183.968 571.832 184.976 571.4 185.768C570.992 186.56 570.788 187.424 570.788 188.36V188.9H578.312V192.5Z" fill="#C74403"/>
</g>
<path d="M639.936 170H637.2V153.2H646.296V170H643.56V155.624H639.936V170ZM648.468 165.728V157.472C648.468 156.032 648.852 154.92 649.62 154.136C650.404 153.352 651.516 152.96 652.956 152.96C654.412 152.96 655.524 153.352 656.292 154.136C657.076 154.92 657.468 156.032 657.468 157.472V165.728C657.468 167.168 657.076 168.28 656.292 169.064C655.508 169.848 654.396 170.24 652.956 170.24C651.516 170.24 650.404 169.848 649.62 169.064C648.852 168.28 648.468 167.168 648.468 165.728ZM652.956 167.816C654.14 167.816 654.732 167.168 654.732 165.872V157.328C654.732 156.032 654.14 155.384 652.956 155.384C651.788 155.384 651.204 156.032 651.204 157.328V165.872C651.204 167.168 651.788 167.816 652.956 167.816ZM663.494 170.24C662.054 170.24 660.958 169.864 660.206 169.112C659.454 168.344 659.078 167.24 659.078 165.8V164.672H661.646V165.848C661.646 167.16 662.238 167.816 663.422 167.816C664.046 167.816 664.494 167.656 664.766 167.336C665.054 167 665.198 166.456 665.198 165.704V164.792C665.198 163.96 665.03 163.368 664.694 163.016C664.374 162.648 663.838 162.464 663.086 162.464H662.054V160.04H663.158C664.47 160.04 665.126 159.36 665.126 158V157.256C665.126 156.008 664.558 155.384 663.422 155.384C662.302 155.384 661.742 155.984 661.742 157.184V158.024H659.174V157.4C659.174 155.96 659.542 154.864 660.278 154.112C661.014 153.344 662.094 152.96 663.518 152.96C664.926 152.96 665.998 153.328 666.734 154.064C667.47 154.8 667.838 155.864 667.838 157.256V157.712C667.838 159.456 667.126 160.584 665.702 161.096V161.12C667.174 161.632 667.91 162.864 667.91 164.816V165.776C667.91 168.752 666.438 170.24 663.494 170.24ZM669.679 165.728V157.472C669.679 156.032 670.063 154.92 670.831 154.136C671.615 153.352 672.727 152.96 674.167 152.96C675.623 152.96 676.735 153.352 677.503 154.136C678.287 154.92 678.679 156.032 678.679 157.472V165.728C678.679 167.168 678.287 168.28 677.503 169.064C676.719 169.848 675.607 170.24 674.167 170.24C672.727 170.24 671.615 169.848 670.831 169.064C670.063 168.28 669.679 167.168 669.679 165.728ZM674.167 167.816C675.351 167.816 675.943 167.168 675.943 165.872V157.328C675.943 156.032 675.351 155.384 674.167 155.384C672.999 155.384 672.415 156.032 672.415 157.328V165.872C672.415 167.168 672.999 167.816 674.167 167.816ZM685.545 170H680.841V153.2H685.305C686.809 153.2 687.913 153.528 688.617 154.184C689.337 154.84 689.697 155.848 689.697 157.208V157.712C689.697 159.424 689.033 160.536 687.705 161.048V161.12C689.225 161.584 689.985 162.824 689.985 164.84V165.704C689.985 168.568 688.505 170 685.545 170ZM683.577 155.624V160.088H684.945C685.633 160.088 686.137 159.936 686.457 159.632C686.793 159.312 686.961 158.816 686.961 158.144V157.52C686.961 156.848 686.825 156.368 686.553 156.08C686.281 155.776 685.833 155.624 685.209 155.624H683.577ZM683.577 162.512V167.576H685.545C686.137 167.576 686.569 167.432 686.841 167.144C687.113 166.84 687.249 166.352 687.249 165.68V164.744C687.249 163.912 687.089 163.336 686.769 163.016C686.449 162.68 685.889 162.512 685.089 162.512H683.577ZM694.351 164.432L698.407 153.2H701.191V170H698.719V158.72L694.687 170H691.903V153.2H694.351V164.432ZM717.852 153.2V167.576H719.292V172.256H716.556V170H709.668V172.256H706.956V167.576H708.516C708.868 167.224 709.068 166.568 709.116 165.608L709.62 153.2H717.852ZM711.108 167.576H715.116V155.624H712.188L711.852 165.464C711.82 166.328 711.572 167.032 711.108 167.576ZM723.655 170H720.919V153.2H725.263C728.207 153.2 729.679 154.656 729.679 157.568V158.816C729.679 161.728 728.207 163.184 725.263 163.184H723.655V170ZM723.655 155.624V160.784H725.263C725.855 160.784 726.279 160.64 726.535 160.352C726.807 160.048 726.943 159.56 726.943 158.888V157.472C726.943 156.8 726.807 156.328 726.535 156.056C726.279 155.768 725.855 155.624 725.263 155.624H723.655ZM735.672 162.272L737.832 153.2H740.448L736.824 167.144C736.536 168.248 736.08 169.04 735.456 169.52C734.832 170 733.952 170.24 732.816 170.24C732.16 170.24 731.608 170.152 731.16 169.976V167.624C731.544 167.752 731.96 167.816 732.408 167.816C732.92 167.816 733.304 167.744 733.56 167.6C733.816 167.44 734.008 167.168 734.136 166.784L734.256 166.352L730.464 153.2H733.296L735.672 162.272ZM745.595 170.24C744.155 170.24 743.059 169.864 742.307 169.112C741.555 168.344 741.179 167.24 741.179 165.8V164.672H743.747V165.848C743.747 167.16 744.339 167.816 745.523 167.816C746.147 167.816 746.595 167.656 746.867 167.336C747.155 167 747.299 166.456 747.299 165.704V164.792C747.299 163.96 747.131 163.368 746.795 163.016C746.475 162.648 745.939 162.464 745.187 162.464H744.155V160.04H745.259C746.571 160.04 747.227 159.36 747.227 158V157.256C747.227 156.008 746.659 155.384 745.523 155.384C744.403 155.384 743.843 155.984 743.843 157.184V158.024H741.275V157.4C741.275 155.96 741.643 154.864 742.379 154.112C743.115 153.344 744.195 152.96 745.619 152.96C747.027 152.96 748.099 153.328 748.835 154.064C749.571 154.8 749.939 155.864 749.939 157.256V157.712C749.939 159.456 749.227 160.584 747.803 161.096V161.12C749.275 161.632 750.011 162.864 750.011 164.816V165.776C750.011 168.752 748.539 170.24 745.595 170.24ZM760.061 170H751.997V153.2H760.061V155.624H754.733V160.136H759.005V162.56H754.733V167.576H760.061V170ZM766.496 151.832C765.552 151.832 764.808 151.568 764.264 151.04C763.72 150.496 763.432 149.76 763.4 148.832H765.056C765.136 149.632 765.616 150.032 766.496 150.032C767.376 150.032 767.88 149.632 768.008 148.832H769.616C769.584 149.76 769.296 150.496 768.752 151.04C768.208 151.568 767.456 151.832 766.496 151.832ZM764.312 164.432L768.368 153.2H771.152V170H768.68V158.72L764.648 170H761.864V153.2H764.312V164.432ZM780.397 170H777.661V153.2H786.757V170H784.021V155.624H780.397V170ZM788.929 165.728V157.472C788.929 156.032 789.313 154.92 790.081 154.136C790.865 153.352 791.977 152.96 793.417 152.96C794.873 152.96 795.985 153.352 796.753 154.136C797.537 154.92 797.929 156.032 797.929 157.472V165.728C797.929 167.168 797.537 168.28 796.753 169.064C795.969 169.848 794.857 170.24 793.417 170.24C791.977 170.24 790.865 169.848 790.081 169.064C789.313 168.28 788.929 167.168 788.929 165.728ZM793.417 167.816C794.601 167.816 795.193 167.168 795.193 165.872V157.328C795.193 156.032 794.601 155.384 793.417 155.384C792.249 155.384 791.665 156.032 791.665 157.328V165.872C791.665 167.168 792.249 167.816 793.417 167.816ZM810.125 153.2V167.576H811.565V172.256H808.829V170H801.941V172.256H799.229V167.576H800.789C801.141 167.224 801.341 166.568 801.389 165.608L801.893 153.2H810.125ZM803.381 167.576H807.389V155.624H804.461L804.125 165.464C804.093 166.328 803.845 167.032 803.381 167.576ZM823.344 153.2V167.576H824.784V172.256H822.048V170H815.16V172.256H812.448V167.576H814.008C814.36 167.224 814.56 166.568 814.608 165.608L815.112 153.2H823.344ZM816.6 167.576H820.608V155.624H817.68L817.344 165.464C817.312 166.328 817.064 167.032 816.6 167.576ZM834.475 170H826.411V153.2H834.475V155.624H829.147V160.136H833.419V162.56H829.147V167.576H834.475V170ZM839.014 170H836.278V153.2H840.622C843.566 153.2 845.038 154.656 845.038 157.568V158.816C845.038 161.728 843.566 163.184 840.622 163.184H839.014V170ZM839.014 155.624V160.784H840.622C841.214 160.784 841.638 160.64 841.894 160.352C842.166 160.048 842.302 159.56 842.302 158.888V157.472C842.302 156.8 842.166 156.328 841.894 156.056C841.638 155.768 841.214 155.624 840.622 155.624H839.014ZM861.433 170H858.697L856.105 161.84L854.785 164.12V170H852.049V164.12L850.729 161.84L848.137 170H845.377L848.929 159.44L845.425 153.2H848.257L852.049 160.472V153.2H854.785V160.472L858.601 153.2H861.385L857.905 159.464L861.433 170ZM872.428 170H869.644L869.092 166.736H865.396L864.82 170H862.276L865.492 153.2H869.188L872.428 170ZM867.244 156.032L865.804 164.36H868.684L867.244 156.032ZM877.884 170H875.172V155.624H871.956V153.2H881.1V155.624H877.884V170ZM887.123 170H882.755V153.2H885.491V159.68H887.123C890.067 159.68 891.539 161.16 891.539 164.12V165.56C891.539 168.52 890.067 170 887.123 170ZM885.491 162.104V167.576H887.123C887.699 167.576 888.123 167.432 888.395 167.144C888.667 166.84 888.803 166.36 888.803 165.704V163.976C888.803 163.32 888.667 162.848 888.395 162.56C888.123 162.256 887.699 162.104 887.123 162.104H885.491ZM642.384 206H639.672V191.624H636.456V189.2H645.6V191.624H642.384V206ZM651.959 206H647.255V189.2H651.719C653.223 189.2 654.327 189.528 655.031 190.184C655.751 190.84 656.111 191.848 656.111 193.208V193.712C656.111 195.424 655.447 196.536 654.119 197.048V197.12C655.639 197.584 656.399 198.824 656.399 200.84V201.704C656.399 204.568 654.919 206 651.959 206ZM649.991 191.624V196.088H651.359C652.047 196.088 652.551 195.936 652.871 195.632C653.207 195.312 653.375 194.816 653.375 194.144V193.52C653.375 192.848 653.239 192.368 652.967 192.08C652.695 191.776 652.247 191.624 651.623 191.624H649.991ZM649.991 198.512V203.576H651.959C652.551 203.576 652.983 203.432 653.255 203.144C653.527 202.84 653.663 202.352 653.663 201.68V200.744C653.663 199.912 653.503 199.336 653.183 199.016C652.863 198.68 652.303 198.512 651.503 198.512H649.991ZM658.101 201.728V193.472C658.101 192.032 658.485 190.92 659.253 190.136C660.037 189.352 661.149 188.96 662.589 188.96C664.045 188.96 665.157 189.352 665.925 190.136C666.709 190.92 667.101 192.032 667.101 193.472V201.728C667.101 203.168 666.709 204.28 665.925 205.064C665.141 205.848 664.029 206.24 662.589 206.24C661.149 206.24 660.037 205.848 659.253 205.064C658.485 204.28 658.101 203.168 658.101 201.728ZM662.589 203.816C663.773 203.816 664.365 203.168 664.365 201.872V193.328C664.365 192.032 663.773 191.384 662.589 191.384C661.421 191.384 660.837 192.032 660.837 193.328V201.872C660.837 203.168 661.421 203.816 662.589 203.816ZM671.711 200.432L675.767 189.2H678.551V206H676.079V194.72L672.047 206H669.263V189.2H671.711V200.432ZM687.795 206H685.059V189.2H694.155V206H691.419V191.624H687.795V206ZM696.592 206.024C696.256 206.024 695.992 205.992 695.8 205.928V203.552C695.992 203.6 696.176 203.624 696.352 203.624C696.944 203.624 697.352 203.48 697.576 203.192C697.816 202.888 697.952 202.368 697.984 201.632L698.488 189.2H706.696V206H703.984V191.624H701.056L700.696 201.704C700.648 203.208 700.304 204.304 699.664 204.992C699.024 205.68 698 206.024 696.592 206.024ZM718.49 206H715.706L715.154 202.736H711.458L710.882 206H708.338L711.554 189.2H715.25L718.49 206ZM713.306 192.032L711.866 200.36H714.746L713.306 192.032ZM722.834 206H720.098V189.2H722.834V196.136H726.458V189.2H729.194V206H726.458V198.56H722.834V206ZM735.951 206H731.583V189.2H734.319V195.68H735.951C738.895 195.68 740.367 197.16 740.367 200.12V201.56C740.367 204.52 738.895 206 735.951 206ZM744.927 206H742.191V189.2H744.927V206ZM734.319 198.104V203.576H735.951C736.527 203.576 736.951 203.432 737.223 203.144C737.495 202.84 737.631 202.36 737.631 201.704V199.976C737.631 199.32 737.495 198.848 737.223 198.56C736.951 198.256 736.527 198.104 735.951 198.104H734.319ZM749.973 201.512H747.933L747.597 196.112V189.2H750.309V196.112L749.973 201.512ZM750.309 206H747.597V203.312H750.309V206Z" fill="white"/>
<path opacity="0.4" d="M414 37.0001C454.457 28.0552 554 19.5001 518 58C482 96.5 571 68.5 571 119" stroke="#FFF8D9" stroke-width="2" stroke-linecap="round" stroke-dasharray="6 6"/>
<g filter="url(#filter2_ddddd_504_403137)">
<path d="M44 4L49.1743 6.35394L54.7919 5.48331L59.1392 9.14597L64.7834 9.82322L67.9813 14.523L73.2334 16.6979L75.0449 22.0861L79.5154 25.5974L79.8059 31.2746L83.1634 35.8618L81.9114 41.4068L83.9068 46.7297L81.2052 51.7313L81.6904 57.3952L77.7396 61.4825L76.6788 67.0672L71.7718 69.937L69.2435 75.0285L63.7442 76.4679L59.936 80.6885L54.2523 80.5909L49.4467 83.6274L44 82L38.5533 83.6274L33.7477 80.5909L28.064 80.6885L24.2558 76.4679L18.7565 75.0285L16.2282 69.937L11.3212 67.0672L10.2604 61.4825L6.30956 57.3952L6.7948 51.7313L4.09325 46.7297L6.08859 41.4068L4.83664 35.8618L8.19408 31.2746L8.48459 25.5974L12.9551 22.0861L14.7666 16.6979L20.0187 14.523L23.2166 9.82322L28.8608 9.14597L33.2081 5.48331L38.8257 6.35394L44 4Z" fill="#DCD1A1"/>
<path d="M44 4L49.1743 6.35394L54.7919 5.48331L59.1392 9.14597L64.7834 9.82322L67.9813 14.523L73.2334 16.6979L75.0449 22.0861L79.5154 25.5974L79.8059 31.2746L83.1634 35.8618L81.9114 41.4068L83.9068 46.7297L81.2052 51.7313L81.6904 57.3952L77.7396 61.4825L76.6788 67.0672L71.7718 69.937L69.2435 75.0285L63.7442 76.4679L59.936 80.6885L54.2523 80.5909L49.4467 83.6274L44 82L38.5533 83.6274L33.7477 80.5909L28.064 80.6885L24.2558 76.4679L18.7565 75.0285L16.2282 69.937L11.3212 67.0672L10.2604 61.4825L6.30956 57.3952L6.7948 51.7313L4.09325 46.7297L6.08859 41.4068L4.83664 35.8618L8.19408 31.2746L8.48459 25.5974L12.9551 22.0861L14.7666 16.6979L20.0187 14.523L23.2166 9.82322L28.8608 9.14597L33.2081 5.48331L38.8257 6.35394L44 4Z" fill="url(#paint2_radial_504_403137)"/>
<path opacity="0.2" d="M48.6206 9.54149L48.7294 9.59098L48.8475 9.57267L53.8639 8.79521L57.7461 12.0659L57.8375 12.1429L57.9561 12.1572L62.9963 12.762L65.852 16.9588L65.9193 17.0576L66.0297 17.1033L70.7198 19.0455L72.3373 23.8571L72.3754 23.9704L72.4694 24.0443L76.4616 27.1798L76.721 32.2494L76.7271 32.3688L76.7977 32.4652L79.7959 36.5615L78.6779 41.5132L78.6516 41.6298L78.6935 41.7417L80.4753 46.495L78.0629 50.9614L78.0061 51.0665L78.0163 51.1856L78.4496 56.2434L74.9216 59.8933L74.8385 59.9792L74.8162 60.0966L73.8689 65.0838L69.4869 67.6465L69.3838 67.7068L69.3306 67.8138L67.0729 72.3604L62.1621 73.6459L62.0465 73.6761L61.9664 73.7649L58.5658 77.5338L53.4902 77.4466L53.3707 77.4445L53.2697 77.5084L48.9783 80.22L44.1145 78.7667L44 78.7325L43.8855 78.7667L39.0217 80.22L34.7303 77.5084L34.6293 77.4445L34.5098 77.4466L29.4342 77.5338L26.0336 73.7649L25.9535 73.6761L25.8379 73.6459L20.9271 72.3604L18.6694 67.8138L18.6162 67.7068L18.5131 67.6465L14.1311 65.0838L13.1838 60.0966L13.1615 59.9792L13.0784 59.8933L9.55042 56.2434L9.98373 51.1856L9.99394 51.0665L9.93714 50.9614L7.52468 46.495L9.30649 41.7417L9.34844 41.6298L9.32212 41.5132L8.20414 36.5615L11.2023 32.4652L11.2729 32.3688L11.279 32.2494L11.5384 27.1798L15.5306 24.0443L15.6246 23.9704L15.6627 23.8571L17.2802 19.0455L21.9703 17.1033L22.0807 17.0576L22.148 16.9588L25.0037 12.762L30.0439 12.1572L30.1625 12.1429L30.2539 12.0659L34.1361 8.79521L39.1525 9.57267L39.2706 9.59098L39.3794 9.54149L44 7.43945L48.6206 9.54149Z" stroke="black" stroke-width="0.8"/>
<path d="M46.748 56.5H42.788V37.276H38.648V34.468C40.304 34.468 41.504 34.252 42.248 33.82C43.016 33.34 43.628 32.5 44.084 31.3H46.748V56.5Z" fill="#C74403"/>
</g>
<path d="M111.936 34H109.2V17.2H113.544C116.488 17.2 117.96 18.656 117.96 21.568V22.816C117.96 25.728 116.488 27.184 113.544 27.184H111.936V34ZM111.936 19.624V24.784H113.544C114.136 24.784 114.56 24.64 114.816 24.352C115.088 24.048 115.224 23.56 115.224 22.888V21.472C115.224 20.8 115.088 20.328 114.816 20.056C114.56 19.768 114.136 19.624 113.544 19.624H111.936ZM128.193 34H125.409L124.857 30.736H121.161L120.585 34H118.041L121.257 17.2H124.953L128.193 34ZM123.009 20.032L121.569 28.36H124.449L123.009 20.032ZM137.052 33.088C136.3 33.856 135.228 34.24 133.836 34.24C132.444 34.24 131.364 33.856 130.596 33.088C129.844 32.304 129.468 31.208 129.468 29.8V21.4C129.468 19.992 129.844 18.904 130.596 18.136C131.364 17.352 132.444 16.96 133.836 16.96C135.228 16.96 136.3 17.352 137.052 18.136C137.804 18.904 138.18 19.992 138.18 21.4V22.888H135.612V21.28C135.612 19.984 135.044 19.336 133.908 19.336C132.772 19.336 132.204 19.984 132.204 21.28V29.92C132.204 31.216 132.772 31.864 133.908 31.864C135.044 31.864 135.612 31.216 135.612 29.92V27.808H138.18V29.8C138.18 31.208 137.804 32.304 137.052 33.088ZM147.506 33.088C146.754 33.856 145.682 34.24 144.29 34.24C142.898 34.24 141.818 33.856 141.05 33.088C140.298 32.304 139.922 31.208 139.922 29.8V21.4C139.922 19.992 140.298 18.904 141.05 18.136C141.818 17.352 142.898 16.96 144.29 16.96C145.682 16.96 146.754 17.352 147.506 18.136C148.258 18.904 148.634 19.992 148.634 21.4V22.888H146.066V21.28C146.066 19.984 145.498 19.336 144.362 19.336C143.226 19.336 142.658 19.984 142.658 21.28V29.92C142.658 31.216 143.226 31.864 144.362 31.864C145.498 31.864 146.066 31.216 146.066 29.92V27.808H148.634V29.8C148.634 31.208 148.258 32.304 147.506 33.088ZM160.287 34H157.407L154.743 26.32L153.303 28.696V34H150.567V17.2H153.303V24.592L157.455 17.2H160.239L156.591 23.44L160.287 34ZM171.272 34H168.488L167.936 30.736H164.24L163.664 34H161.12L164.336 17.2H168.032L171.272 34ZM166.088 20.032L164.648 28.36H167.528L166.088 20.032ZM188.144 34H185.408L182.816 25.84L181.496 28.12V34H178.76V28.12L177.44 25.84L174.848 34H172.088L175.64 23.44L172.136 17.2H174.968L178.76 24.472V17.2H181.496V24.472L185.312 17.2H188.096L184.616 23.464L188.144 34ZM192.203 28.432L196.259 17.2H199.043V34H196.571V22.72L192.539 34H189.755V17.2H192.203V28.432ZM202.674 36.784H201.426L202.506 34H201.546V31.12H204.282V33.712L202.674 36.784ZM216.872 23.296V17.2H219.608V34H216.872V26.992C216.168 27.712 215.216 28.072 214.016 28.072C211.648 28.072 210.464 26.72 210.464 24.016V17.2H213.176V23.656C213.176 24.952 213.736 25.6 214.856 25.6C215.496 25.6 215.992 25.408 216.344 25.024C216.696 24.624 216.872 24.048 216.872 23.296ZM227.189 34H224.477V19.624H221.261V17.2H230.405V19.624H227.189V34ZM231.75 29.728V21.472C231.75 20.032 232.134 18.92 232.902 18.136C233.686 17.352 234.798 16.96 236.238 16.96C237.694 16.96 238.806 17.352 239.574 18.136C240.358 18.92 240.75 20.032 240.75 21.472V29.728C240.75 31.168 240.358 32.28 239.574 33.064C238.79 33.848 237.678 34.24 236.238 34.24C234.798 34.24 233.686 33.848 232.902 33.064C232.134 32.28 231.75 31.168 231.75 29.728ZM236.238 31.816C237.422 31.816 238.014 31.168 238.014 29.872V21.328C238.014 20.032 237.422 19.384 236.238 19.384C235.07 19.384 234.486 20.032 234.486 21.328V29.872C234.486 31.168 235.07 31.816 236.238 31.816ZM251.573 34H247.013V17.2H254.861V19.624H249.749V23.8H251.573C254.517 23.8 255.989 25.28 255.989 28.24V29.56C255.989 32.52 254.517 34 251.573 34ZM249.749 26.224V31.576H251.573C252.149 31.576 252.573 31.432 252.845 31.144C253.117 30.84 253.253 30.36 253.253 29.704V28.096C253.253 27.44 253.117 26.968 252.845 26.68C252.573 26.376 252.149 26.224 251.573 26.224H249.749ZM262.162 34H257.794V17.2H260.53V23.68H262.162C265.106 23.68 266.578 25.16 266.578 28.12V29.56C266.578 32.52 265.106 34 262.162 34ZM271.138 34H268.402V17.2H271.138V34ZM260.53 26.104V31.576H262.162C262.738 31.576 263.162 31.432 263.434 31.144C263.706 30.84 263.842 30.36 263.842 29.704V27.976C263.842 27.32 263.706 26.848 263.434 26.56C263.162 26.256 262.738 26.104 262.162 26.104H260.53ZM282.829 34H280.117V19.624H276.901V17.2H286.045V19.624H282.829V34ZM292.068 34H287.7V17.2H290.436V23.68H292.068C295.012 23.68 296.484 25.16 296.484 28.12V29.56C296.484 32.52 295.012 34 292.068 34ZM301.044 34H298.308V17.2H301.044V34ZM290.436 26.104V31.576H292.068C292.644 31.576 293.068 31.432 293.34 31.144C293.612 30.84 293.748 30.36 293.748 29.704V27.976C293.748 27.32 293.612 26.848 293.34 26.56C293.068 26.256 292.644 26.104 292.068 26.104H290.436ZM309.352 34H306.76L310.312 25.384L306.904 17.2H309.832L311.992 22.84L314.224 17.2H316.864L313.456 25.384L317.008 34H314.104L311.752 27.928L309.352 34ZM317.953 29.728V21.472C317.953 20.032 318.337 18.92 319.105 18.136C319.889 17.352 321.001 16.96 322.441 16.96C323.897 16.96 325.009 17.352 325.777 18.136C326.561 18.92 326.953 20.032 326.953 21.472V29.728C326.953 31.168 326.561 32.28 325.777 33.064C324.993 33.848 323.881 34.24 322.441 34.24C321.001 34.24 319.889 33.848 319.105 33.064C318.337 32.28 317.953 31.168 317.953 29.728ZM322.441 31.816C323.625 31.816 324.217 31.168 324.217 29.872V21.328C324.217 20.032 323.625 19.384 322.441 19.384C321.273 19.384 320.689 20.032 320.689 21.328V29.872C320.689 31.168 321.273 31.816 322.441 31.816ZM334.204 34H331.492V19.624H328.276V17.2H337.42V19.624H334.204V34ZM347.139 34H339.075V17.2H347.139V19.624H341.811V24.136H346.083V26.56H341.811V31.576H347.139V34ZM348.99 34.024C348.654 34.024 348.39 33.992 348.198 33.928V31.552C348.39 31.6 348.574 31.624 348.75 31.624C349.342 31.624 349.75 31.48 349.974 31.192C350.214 30.888 350.35 30.368 350.382 29.632L350.886 17.2H359.094V34H356.382V19.624H353.454L353.094 29.704C353.046 31.208 352.702 32.304 352.062 32.992C351.422 33.68 350.398 34.024 348.99 34.024ZM108.984 65.728V57.472C108.984 56.032 109.368 54.92 110.136 54.136C110.92 53.352 112.032 52.96 113.472 52.96C114.928 52.96 116.04 53.352 116.808 54.136C117.592 54.92 117.984 56.032 117.984 57.472V65.728C117.984 67.168 117.592 68.28 116.808 69.064C116.024 69.848 114.912 70.24 113.472 70.24C112.032 70.24 110.92 69.848 110.136 69.064C109.368 68.28 108.984 67.168 108.984 65.728ZM113.472 67.816C114.656 67.816 115.248 67.168 115.248 65.872V57.328C115.248 56.032 114.656 55.384 113.472 55.384C112.304 55.384 111.72 56.032 111.72 57.328V65.872C111.72 67.168 112.304 67.816 113.472 67.816ZM125.236 70H122.524V55.624H119.308V53.2H128.452V55.624H125.236V70ZM139.826 70H136.946L134.282 62.32L132.842 64.696V70H130.106V53.2H132.842V60.592L136.994 53.2H139.778L136.13 59.44L139.826 70ZM144.163 70H141.427V53.2H145.771C148.715 53.2 150.187 54.656 150.187 57.568V58.816C150.187 61.728 148.715 63.184 145.771 63.184H144.163V70ZM144.163 55.624V60.784H145.771C146.363 60.784 146.787 60.64 147.043 60.352C147.315 60.048 147.451 59.56 147.451 58.888V57.472C147.451 56.8 147.315 56.328 147.043 56.056C146.787 55.768 146.363 55.624 145.771 55.624H144.163ZM156.365 70H151.997V53.2H154.733V59.68H156.365C159.309 59.68 160.781 61.16 160.781 64.12V65.56C160.781 68.52 159.309 70 156.365 70ZM165.341 70H162.605V53.2H165.341V70ZM154.733 62.104V67.576H156.365C156.941 67.576 157.365 67.432 157.637 67.144C157.909 66.84 158.045 66.36 158.045 65.704V63.976C158.045 63.32 157.909 62.848 157.637 62.56C157.365 62.256 156.941 62.104 156.365 62.104H154.733ZM172.931 70H170.219V55.624H167.003V53.2H176.147V55.624H172.931V70ZM182.17 70H177.802V53.2H180.538V59.68H182.17C185.114 59.68 186.586 61.16 186.586 64.12V65.56C186.586 68.52 185.114 70 182.17 70ZM180.538 62.104V67.576H182.17C182.746 67.576 183.17 67.432 183.442 67.144C183.714 66.84 183.85 66.36 183.85 65.704V63.976C183.85 63.32 183.714 62.848 183.442 62.56C183.17 62.256 182.746 62.104 182.17 62.104H180.538ZM202.672 53.2V67.576H204.112V72.256H201.376V70H194.488V72.256H191.776V67.576H193.336C193.688 67.224 193.888 66.568 193.936 65.608L194.44 53.2H202.672ZM195.928 67.576H199.936V55.624H197.008L196.672 65.464C196.64 66.328 196.392 67.032 195.928 67.576ZM205.787 70.024C205.451 70.024 205.187 69.992 204.995 69.928V67.552C205.187 67.6 205.371 67.624 205.547 67.624C206.139 67.624 206.547 67.48 206.771 67.192C207.011 66.888 207.147 66.368 207.179 65.632L207.683 53.2H215.891V70H213.179V55.624H210.251L209.891 65.704C209.843 67.208 209.499 68.304 208.859 68.992C208.219 69.68 207.195 70.024 205.787 70.024ZM226.942 53.2V70H224.206V62.896H222.958C222.19 62.896 221.646 63.064 221.326 63.4C221.022 63.736 220.87 64.32 220.87 65.152V67.792C220.87 68.736 220.782 69.472 220.606 70H217.846C218.054 69.488 218.158 68.76 218.158 67.816V65.32C218.158 64.216 218.318 63.368 218.638 62.776C218.958 62.168 219.478 61.76 220.198 61.552V61.48C218.854 60.984 218.182 59.84 218.182 58.048V57.232C218.182 55.856 218.534 54.84 219.238 54.184C219.958 53.528 221.07 53.2 222.574 53.2H226.942ZM222.91 60.472H224.206V55.624H222.622C222.03 55.624 221.598 55.776 221.326 56.08C221.054 56.384 220.918 56.864 220.918 57.52V58.48C220.918 59.184 221.078 59.696 221.398 60.016C221.718 60.32 222.222 60.472 222.91 60.472ZM240.81 69.088C240.058 69.856 238.986 70.24 237.594 70.24C236.202 70.24 235.122 69.856 234.354 69.088C233.602 68.304 233.226 67.208 233.226 65.8V57.4C233.226 55.992 233.602 54.904 234.354 54.136C235.122 53.352 236.202 52.96 237.594 52.96C238.986 52.96 240.058 53.352 240.81 54.136C241.562 54.904 241.938 55.992 241.938 57.4V58.888H239.37V57.28C239.37 55.984 238.802 55.336 237.666 55.336C236.53 55.336 235.962 55.984 235.962 57.28V65.92C235.962 67.216 236.53 67.864 237.666 67.864C238.802 67.864 239.37 67.216 239.37 65.92V63.808H241.938V65.8C241.938 67.208 241.562 68.304 240.81 69.088ZM251.936 70H243.872V53.2H251.936V55.624H246.608V60.136H250.88V62.56H246.608V67.576H251.936V70ZM258.299 70H253.739V53.2H261.587V55.624H256.475V59.8H258.299C261.243 59.8 262.715 61.28 262.715 64.24V65.56C262.715 68.52 261.243 70 258.299 70ZM256.475 62.224V67.576H258.299C258.875 67.576 259.299 67.432 259.571 67.144C259.843 66.84 259.979 66.36 259.979 65.704V64.096C259.979 63.44 259.843 62.968 259.571 62.68C259.299 62.376 258.875 62.224 258.299 62.224H256.475ZM273.16 53.2V70H270.424V62.896H269.176C268.408 62.896 267.864 63.064 267.544 63.4C267.24 63.736 267.088 64.32 267.088 65.152V67.792C267.088 68.736 267 69.472 266.824 70H264.064C264.272 69.488 264.376 68.76 264.376 67.816V65.32C264.376 64.216 264.536 63.368 264.856 62.776C265.176 62.168 265.696 61.76 266.416 61.552V61.48C265.072 60.984 264.4 59.84 264.4 58.048V57.232C264.4 55.856 264.752 54.84 265.456 54.184C266.176 53.528 267.288 53.2 268.792 53.2H273.16ZM269.128 60.472H270.424V55.624H268.84C268.248 55.624 267.816 55.776 267.544 56.08C267.272 56.384 267.136 56.864 267.136 57.52V58.48C267.136 59.184 267.296 59.696 267.616 60.016C267.936 60.32 268.44 60.472 269.128 60.472ZM279.133 65.8V64.672H281.701V65.92C281.701 67.216 282.293 67.864 283.477 67.864C284.645 67.864 285.229 67.216 285.229 65.92V62.512H282.061V60.04H285.229V57.28C285.229 55.984 284.645 55.336 283.477 55.336C282.293 55.336 281.701 55.984 281.701 57.28V58.024H279.133V57.4C279.133 55.992 279.509 54.904 280.261 54.136C281.029 53.352 282.125 52.96 283.549 52.96C284.973 52.96 286.061 53.352 286.813 54.136C287.581 54.904 287.965 55.992 287.965 57.4V65.8C287.965 67.208 287.581 68.304 286.813 69.088C286.061 69.856 284.973 70.24 283.549 70.24C282.125 70.24 281.029 69.856 280.261 69.088C279.509 68.304 279.133 67.208 279.133 65.8ZM295.228 70H292.516V55.624H289.3V53.2H298.444V55.624H295.228V70ZM302.546 64.432L306.602 53.2H309.386V70H306.914V58.72L302.882 70H300.098V53.2H302.546V64.432ZM314.194 70H311.794V53.2H315.658L317.914 65.536L320.146 53.2H324.01V70H321.418V56.992L318.946 70H316.666L314.194 56.992V70ZM330.568 70.024C330.232 70.024 329.968 69.992 329.776 69.928V67.552C329.968 67.6 330.152 67.624 330.328 67.624C330.92 67.624 331.328 67.48 331.552 67.192C331.792 66.888 331.928 66.368 331.96 65.632L332.464 53.2H340.672V70H337.96V55.624H335.032L334.672 65.704C334.624 67.208 334.28 68.304 333.64 68.992C333 69.68 331.976 70.024 330.568 70.024ZM351.147 70H343.083V53.2H351.147V55.624H345.819V60.136H350.091V62.56H345.819V67.576H351.147V70ZM358.134 70H355.422V55.624H352.206V53.2H361.35V55.624H358.134V70ZM362.695 65.728V57.472C362.695 56.032 363.079 54.92 363.847 54.136C364.631 53.352 365.743 52.96 367.183 52.96C368.639 52.96 369.751 53.352 370.519 54.136C371.303 54.92 371.695 56.032 371.695 57.472V65.728C371.695 67.168 371.303 68.28 370.519 69.064C369.735 69.848 368.623 70.24 367.183 70.24C365.743 70.24 364.631 69.848 363.847 69.064C363.079 68.28 362.695 67.168 362.695 65.728ZM367.183 67.816C368.367 67.816 368.959 67.168 368.959 65.872V57.328C368.959 56.032 368.367 55.384 367.183 55.384C366.015 55.384 365.431 56.032 365.431 57.328V65.872C365.431 67.168 366.015 67.816 367.183 67.816ZM376.256 70H373.856V53.2H377.72L379.976 65.536L382.208 53.2H386.072V70H383.48V56.992L381.008 70H378.728L376.256 56.992V70Z" fill="white"/>
<path opacity="0.4" d="M732.499 351.5C904.499 419 585 427.5 585 534" stroke="#FFF8D9" stroke-width="2" stroke-linecap="round" stroke-dasharray="6 6"/>
<path opacity="0.4" d="M500.5 171.5C443.5 151 483 312.5 334.5 201C186 89.4996 134 258.5 142 300.5" stroke="#FFF8D9" stroke-width="2" stroke-linecap="round" stroke-dasharray="6 6"/>
<defs>
<filter id="filter0_ddddd_504_403137" x="105.093" y="309" width="133.813" height="126.627" filterUnits="userSpaceOnUse" color-interpolation-filters="sRGB">
<feFlood flood-opacity="0" result="BackgroundImageFix"/>
<feColorMatrix in="SourceAlpha" type="matrix" values="0 0 0 0 0 0 0 0 0 0 0 0 0 0 0 0 0 0 127 0" result="hardAlpha"/>
<feOffset/>
<feColorMatrix type="matrix" values="0 0 0 0 0.0745098 0 0 0 0 0.12549 0 0 0 0 0.0823529 0 0 0 0.2 0"/>
<feBlend mode="normal" in2="BackgroundImageFix" result="effect1_dropShadow_504_403137"/>
<feColorMatrix in="SourceAlpha" type="matrix" values="0 0 0 0 0 0 0 0 0 0 0 0 0 0 0 0 0 0 127 0" result="hardAlpha"/>
<feOffset dx="2" dy="2"/>
<feGaussianBlur stdDeviation="3"/>
<feColorMatrix type="matrix" values="0 0 0 0 0.0745098 0 0 0 0 0.12549 0 0 0 0 0.0823529 0 0 0 0.2 0"/>
<feBlend mode="normal" in2="effect1_dropShadow_504_403137" result="effect2_dropShadow_504_403137"/>
<feColorMatrix in="SourceAlpha" type="matrix" values="0 0 0 0 0 0 0 0 0 0 0 0 0 0 0 0 0 0 127 0" result="hardAlpha"/>
<feOffset dx="8" dy="7"/>
<feGaussianBlur stdDeviation="5"/>
<feColorMatrix type="matrix" values="0 0 0 0 0.0745098 0 0 0 0 0.12549 0 0 0 0 0.0823529 0 0 0 0.17 0"/>
<feBlend mode="normal" in2="effect2_dropShadow_504_403137" result="effect3_dropShadow_504_403137"/>
<feColorMatrix in="SourceAlpha" type="matrix" values="0 0 0 0 0 0 0 0 0 0 0 0 0 0 0 0 0 0 127 0" result="hardAlpha"/>
<feOffset dx="18" dy="15"/>
<feGaussianBlur stdDeviation="7"/>
<feColorMatrix type="matrix" values="0 0 0 0 0.0745098 0 0 0 0 0.12549 0 0 0 0 0.0823529 0 0 0 0.1 0"/>
<feBlend mode="normal" in2="effect3_dropShadow_504_403137" result="effect4_dropShadow_504_403137"/>
<feColorMatrix in="SourceAlpha" type="matrix" values="0 0 0 0 0 0 0 0 0 0 0 0 0 0 0 0 0 0 127 0" result="hardAlpha"/>
<feOffset dx="33" dy="26"/>
<feGaussianBlur stdDeviation="8.5"/>
<feColorMatrix type="matrix" values="0 0 0 0 0.0745098 0 0 0 0 0.12549 0 0 0 0 0.0823529 0 0 0 0.03 0"/>
<feBlend mode="normal" in2="effect4_dropShadow_504_403137" result="effect5_dropShadow_504_403137"/>
<feBlend mode="normal" in="SourceGraphic" in2="effect5_dropShadow_504_403137" result="shape"/>
</filter>
<filter id="filter1_ddddd_504_403137" x="528.093" y="136" width="133.813" height="126.627" filterUnits="userSpaceOnUse" color-interpolation-filters="sRGB">
<feFlood flood-opacity="0" result="BackgroundImageFix"/>
<feColorMatrix in="SourceAlpha" type="matrix" values="0 0 0 0 0 0 0 0 0 0 0 0 0 0 0 0 0 0 127 0" result="hardAlpha"/>
<feOffset/>
<feColorMatrix type="matrix" values="0 0 0 0 0.0745098 0 0 0 0 0.12549 0 0 0 0 0.0823529 0 0 0 0.2 0"/>
<feBlend mode="normal" in2="BackgroundImageFix" result="effect1_dropShadow_504_403137"/>
<feColorMatrix in="SourceAlpha" type="matrix" values="0 0 0 0 0 0 0 0 0 0 0 0 0 0 0 0 0 0 127 0" result="hardAlpha"/>
<feOffset dx="2" dy="2"/>
<feGaussianBlur stdDeviation="3"/>
<feColorMatrix type="matrix" values="0 0 0 0 0.0745098 0 0 0 0 0.12549 0 0 0 0 0.0823529 0 0 0 0.2 0"/>
<feBlend mode="normal" in2="effect1_dropShadow_504_403137" result="effect2_dropShadow_504_403137"/>
<feColorMatrix in="SourceAlpha" type="matrix" values="0 0 0 0 0 0 0 0 0 0 0 0 0 0 0 0 0 0 127 0" result="hardAlpha"/>
<feOffset dx="8" dy="7"/>
<feGaussianBlur stdDeviation="5"/>
<feColorMatrix type="matrix" values="0 0 0 0 0.0745098 0 0 0 0 0.12549 0 0 0 0 0.0823529 0 0 0 0.17 0"/>
<feBlend mode="normal" in2="effect2_dropShadow_504_403137" result="effect3_dropShadow_504_403137"/>
<feColorMatrix in="SourceAlpha" type="matrix" values="0 0 0 0 0 0 0 0 0 0 0 0 0 0 0 0 0 0 127 0" result="hardAlpha"/>
<feOffset dx="18" dy="15"/>
<feGaussianBlur stdDeviation="7"/>
<feColorMatrix type="matrix" values="0 0 0 0 0.0745098 0 0 0 0 0.12549 0 0 0 0 0.0823529 0 0 0 0.1 0"/>
<feBlend mode="normal" in2="effect3_dropShadow_504_403137" result="effect4_dropShadow_504_403137"/>
<feColorMatrix in="SourceAlpha" type="matrix" values="0 0 0 0 0 0 0 0 0 0 0 0 0 0 0 0 0 0 127 0" result="hardAlpha"/>
<feOffset dx="33" dy="26"/>
<feGaussianBlur stdDeviation="8.5"/>
<feColorMatrix type="matrix" values="0 0 0 0 0.0745098 0 0 0 0 0.12549 0 0 0 0 0.0823529 0 0 0 0.03 0"/>
<feBlend mode="normal" in2="effect4_dropShadow_504_403137" result="effect5_dropShadow_504_403137"/>
<feBlend mode="normal" in="SourceGraphic" in2="effect5_dropShadow_504_403137" result="shape"/>
</filter>
<filter id="filter2_ddddd_504_403137" x="0.0932617" y="0" width="133.813" height="126.627" filterUnits="userSpaceOnUse" color-interpolation-filters="sRGB">
<feFlood flood-opacity="0" result="BackgroundImageFix"/>
<feColorMatrix in="SourceAlpha" type="matrix" values="0 0 0 0 0 0 0 0 0 0 0 0 0 0 0 0 0 0 127 0" result="hardAlpha"/>
<feOffset/>
<feColorMatrix type="matrix" values="0 0 0 0 0.0745098 0 0 0 0 0.12549 0 0 0 0 0.0823529 0 0 0 0.2 0"/>
<feBlend mode="normal" in2="BackgroundImageFix" result="effect1_dropShadow_504_403137"/>
<feColorMatrix in="SourceAlpha" type="matrix" values="0 0 0 0 0 0 0 0 0 0 0 0 0 0 0 0 0 0 127 0" result="hardAlpha"/>
<feOffset dx="2" dy="2"/>
<feGaussianBlur stdDeviation="3"/>
<feColorMatrix type="matrix" values="0 0 0 0 0.0745098 0 0 0 0 0.12549 0 0 0 0 0.0823529 0 0 0 0.2 0"/>
<feBlend mode="normal" in2="effect1_dropShadow_504_403137" result="effect2_dropShadow_504_403137"/>
<feColorMatrix in="SourceAlpha" type="matrix" values="0 0 0 0 0 0 0 0 0 0 0 0 0 0 0 0 0 0 127 0" result="hardAlpha"/>
<feOffset dx="8" dy="7"/>
<feGaussianBlur stdDeviation="5"/>
<feColorMatrix type="matrix" values="0 0 0 0 0.0745098 0 0 0 0 0.12549 0 0 0 0 0.0823529 0 0 0 0.17 0"/>
<feBlend mode="normal" in2="effect2_dropShadow_504_403137" result="effect3_dropShadow_504_403137"/>
<feColorMatrix in="SourceAlpha" type="matrix" values="0 0 0 0 0 0 0 0 0 0 0 0 0 0 0 0 0 0 127 0" result="hardAlpha"/>
<feOffset dx="18" dy="15"/>
<feGaussianBlur stdDeviation="7"/>
<feColorMatrix type="matrix" values="0 0 0 0 0.0745098 0 0 0 0 0.12549 0 0 0 0 0.0823529 0 0 0 0.1 0"/>
<feBlend mode="normal" in2="effect3_dropShadow_504_403137" result="effect4_dropShadow_504_403137"/>
<feColorMatrix in="SourceAlpha" type="matrix" values="0 0 0 0 0 0 0 0 0 0 0 0 0 0 0 0 0 0 127 0" result="hardAlpha"/>
<feOffset dx="33" dy="26"/>
<feGaussianBlur stdDeviation="8.5"/>
<feColorMatrix type="matrix" values="0 0 0 0 0.0745098 0 0 0 0 0.12549 0 0 0 0 0.0823529 0 0 0 0.03 0"/>
<feBlend mode="normal" in2="effect4_dropShadow_504_403137" result="effect5_dropShadow_504_403137"/>
<feBlend mode="normal" in="SourceGraphic" in2="effect5_dropShadow_504_403137" result="shape"/>
</filter>
<radialGradient id="paint0_radial_504_403137" cx="0" cy="0" r="1" gradientUnits="userSpaceOnUse" gradientTransform="translate(149 353) rotate(90) scale(40)">
<stop offset="0.885568" stop-color="#FFF8D9"/>
<stop offset="1" stop-color="#FFF8D9" stop-opacity="0"/>
</radialGradient>
<radialGradient id="paint1_radial_504_403137" cx="0" cy="0" r="1" gradientUnits="userSpaceOnUse" gradientTransform="translate(572 180) rotate(90) scale(40)">
<stop offset="0.885568" stop-color="#FFF8D9"/>
<stop offset="1" stop-color="#FFF8D9" stop-opacity="0"/>
</radialGradient>
<radialGradient id="paint2_radial_504_403137" cx="0" cy="0" r="1" gradientUnits="userSpaceOnUse" gradientTransform="translate(44 44) rotate(90) scale(40)">
<stop offset="0.885568" stop-color="#FFF8D9"/>
<stop offset="1" stop-color="#FFF8D9" stop-opacity="0"/>
</radialGradient>
</defs>
</svg>
