<svg width="318" height="293" viewBox="0 0 318 293" fill="none" xmlns="http://www.w3.org/2000/svg">
<g filter="url(#filter0_ddddd_201_30452)">
<ellipse cx="34" cy="152.5" rx="22" ry="5.5" fill="#DDBA63"/>
<path d="M33.9985 99.7493C28.5304 99.7558 23.2882 101.931 19.4216 105.797C15.5551 109.664 13.38 114.906 13.3735 120.374C13.3735 138.022 32.1235 151.352 32.9219 151.911C33.2376 152.131 33.6134 152.249 33.9985 152.249C34.3836 152.249 34.7595 152.131 35.0752 151.911C35.8735 151.352 54.6235 138.022 54.6235 120.374C54.617 114.906 52.442 109.664 48.5754 105.797C44.7089 101.931 39.4666 99.7558 33.9985 99.7493V99.7493ZM33.9999 112.875C35.4833 112.875 36.9333 113.315 38.1667 114.139C39.4001 114.963 40.3613 116.134 40.929 117.505C41.4967 118.875 41.6452 120.383 41.3558 121.838C41.0664 123.293 40.3521 124.629 39.3032 125.678C38.2543 126.727 36.9179 127.442 35.4631 127.731C34.0082 128.02 32.5002 127.872 31.1298 127.304C29.7593 126.736 28.588 125.775 27.7639 124.542C26.9398 123.308 26.4999 121.858 26.4999 120.375C26.4999 119.39 26.6939 118.415 27.0708 117.505C27.4477 116.595 28.0001 115.768 28.6965 115.072C29.393 114.375 30.2198 113.823 31.1297 113.446C32.0397 113.069 33.015 112.875 33.9999 112.875V112.875Z" fill="#FFF9DA"/>
<ellipse cx="34" cy="120.5" rx="13" ry="12.5" fill="#C74403"/>
<path d="M37.1291 128H30.7691V126.48C30.7691 125.44 30.9291 124.553 31.2491 123.82C31.5691 123.087 32.1424 122.287 32.9691 121.42C33.8224 120.5 34.3891 119.773 34.6691 119.24C34.9757 118.653 35.1291 118.04 35.1291 117.4C35.1291 116.813 35.0357 116.4 34.8491 116.16C34.6624 115.92 34.3757 115.8 33.9891 115.8C33.2291 115.8 32.8491 116.26 32.8491 117.18V118.68H30.7691V117.32C30.7691 116.187 31.0491 115.32 31.6091 114.72C32.1691 114.107 32.9824 113.8 34.0491 113.8C35.1157 113.8 35.9291 114.107 36.4891 114.72C37.0491 115.32 37.3291 116.187 37.3291 117.32C37.3291 118.187 37.1224 119.013 36.7091 119.8C36.2957 120.613 35.5957 121.54 34.6091 122.58C33.9691 123.26 33.5291 123.82 33.2891 124.26C33.0624 124.7 32.9491 125.18 32.9491 125.7V126H37.1291V128Z" fill="white"/>
</g>
<path d="M80.74 112.56L82.54 105H84.72L81.7 116.62C81.46 117.54 81.08 118.2 80.56 118.6C80.04 119 79.3067 119.2 78.36 119.2C77.8133 119.2 77.3533 119.127 76.98 118.98V117.02C77.3 117.127 77.6467 117.18 78.02 117.18C78.4467 117.18 78.7667 117.12 78.98 117C79.1933 116.867 79.3533 116.64 79.46 116.32L79.56 115.96L76.4 105H78.76L80.74 112.56ZM90.9844 110.08V105H93.2644V119H90.9844V113.16C90.3977 113.76 89.6044 114.06 88.6044 114.06C86.631 114.06 85.6444 112.933 85.6444 110.68V105H87.9044V110.38C87.9044 111.46 88.371 112 89.3044 112C89.8377 112 90.251 111.84 90.5444 111.52C90.8377 111.187 90.9844 110.707 90.9844 110.08ZM103.082 119H100.762L100.302 116.28H97.2217L96.7417 119H94.6217L97.3017 105H100.382L103.082 119ZM98.7617 107.36L97.5617 114.3H99.9617L98.7617 107.36ZM110.464 118.24C109.838 118.88 108.944 119.2 107.784 119.2C106.624 119.2 105.724 118.88 105.084 118.24C104.458 117.587 104.144 116.673 104.144 115.5V108.5C104.144 107.327 104.458 106.42 105.084 105.78C105.724 105.127 106.624 104.8 107.784 104.8C108.944 104.8 109.838 105.127 110.464 105.78C111.091 106.42 111.404 107.327 111.404 108.5V109.74H109.264V108.4C109.264 107.32 108.791 106.78 107.844 106.78C106.898 106.78 106.424 107.32 106.424 108.4V115.6C106.424 116.68 106.898 117.22 107.844 117.22C108.791 117.22 109.264 116.68 109.264 115.6V113.84H111.404V115.5C111.404 116.673 111.091 117.587 110.464 118.24ZM117.336 119H115.076V107.02H112.396V105H120.016V107.02H117.336V119ZM125.315 119H121.395V105H125.115C126.368 105 127.288 105.273 127.875 105.82C128.475 106.367 128.775 107.207 128.775 108.34V108.76C128.775 110.187 128.221 111.113 127.115 111.54V111.6C128.381 111.987 129.015 113.02 129.015 114.7V115.42C129.015 117.807 127.781 119 125.315 119ZM123.675 107.02V110.74H124.815C125.388 110.74 125.808 110.613 126.075 110.36C126.355 110.093 126.495 109.68 126.495 109.12V108.6C126.495 108.04 126.381 107.64 126.155 107.4C125.928 107.147 125.555 107.02 125.035 107.02H123.675ZM123.675 112.76V116.98H125.315C125.808 116.98 126.168 116.86 126.395 116.62C126.621 116.367 126.735 115.96 126.735 115.4V114.62C126.735 113.927 126.601 113.447 126.335 113.18C126.068 112.9 125.601 112.76 124.935 112.76H123.675ZM134.295 112.56L136.095 105H138.275L135.255 116.62C135.015 117.54 134.635 118.2 134.115 118.6C133.595 119 132.861 119.2 131.915 119.2C131.368 119.2 130.908 119.127 130.535 118.98V117.02C130.855 117.127 131.201 117.18 131.575 117.18C132.001 117.18 132.321 117.12 132.535 117C132.748 116.867 132.908 116.64 133.015 116.32L133.115 115.96L129.955 105H132.315L134.295 112.56ZM143.399 103.86C142.612 103.86 141.992 103.64 141.539 103.2C141.086 102.747 140.846 102.133 140.819 101.36H142.199C142.266 102.027 142.666 102.36 143.399 102.36C144.132 102.36 144.552 102.027 144.659 101.36H145.999C145.972 102.133 145.732 102.747 145.279 103.2C144.826 103.64 144.199 103.86 143.399 103.86ZM141.579 114.36L144.959 105H147.279V119H145.219V109.6L141.859 119H139.539V105H141.579V114.36ZM156.623 119H152.703V105H156.423C157.676 105 158.596 105.273 159.183 105.82C159.783 106.367 160.083 107.207 160.083 108.34V108.76C160.083 110.187 159.53 111.113 158.423 111.54V111.6C159.69 111.987 160.323 113.02 160.323 114.7V115.42C160.323 117.807 159.09 119 156.623 119ZM154.983 107.02V110.74H156.123C156.696 110.74 157.116 110.613 157.383 110.36C157.663 110.093 157.803 109.68 157.803 109.12V108.6C157.803 108.04 157.69 107.64 157.463 107.4C157.236 107.147 156.863 107.02 156.343 107.02H154.983ZM154.983 112.76V116.98H156.623C157.116 116.98 157.476 116.86 157.703 116.62C157.93 116.367 158.043 115.96 158.043 115.4V114.62C158.043 113.927 157.91 113.447 157.643 113.18C157.376 112.9 156.91 112.76 156.243 112.76H154.983ZM167.62 119H165.34V105H168.96C171.413 105 172.64 106.213 172.64 108.64V109.68C172.64 112.107 171.413 113.32 168.96 113.32H167.62V119ZM167.62 107.02V111.32H168.96C169.453 111.32 169.807 111.2 170.02 110.96C170.247 110.707 170.36 110.3 170.36 109.74V108.56C170.36 108 170.247 107.607 170.02 107.38C169.807 107.14 169.453 107.02 168.96 107.02H167.62ZM173.968 115.44V108.56C173.968 107.36 174.288 106.433 174.928 105.78C175.582 105.127 176.508 104.8 177.708 104.8C178.922 104.8 179.848 105.127 180.488 105.78C181.142 106.433 181.468 107.36 181.468 108.56V115.44C181.468 116.64 181.142 117.567 180.488 118.22C179.835 118.873 178.908 119.2 177.708 119.2C176.508 119.2 175.582 118.873 174.928 118.22C174.288 117.567 173.968 116.64 173.968 115.44ZM177.708 117.18C178.695 117.18 179.188 116.64 179.188 115.56V108.44C179.188 107.36 178.695 106.82 177.708 106.82C176.735 106.82 176.248 107.36 176.248 108.44V115.56C176.248 116.64 176.735 117.18 177.708 117.18ZM186.49 119.2C185.29 119.2 184.376 118.887 183.75 118.26C183.123 117.62 182.81 116.7 182.81 115.5V114.56H184.95V115.54C184.95 116.633 185.443 117.18 186.43 117.18C186.95 117.18 187.323 117.047 187.55 116.78C187.79 116.5 187.91 116.047 187.91 115.42V114.66C187.91 113.967 187.77 113.473 187.49 113.18C187.223 112.873 186.776 112.72 186.15 112.72H185.29V110.7H186.21C187.303 110.7 187.85 110.133 187.85 109V108.38C187.85 107.34 187.376 106.82 186.43 106.82C185.496 106.82 185.03 107.32 185.03 108.32V109.02H182.89V108.5C182.89 107.3 183.196 106.387 183.81 105.76C184.423 105.12 185.323 104.8 186.51 104.8C187.683 104.8 188.576 105.107 189.19 105.72C189.803 106.333 190.11 107.22 190.11 108.38V108.76C190.11 110.213 189.516 111.153 188.33 111.58V111.6C189.556 112.027 190.17 113.053 190.17 114.68V115.48C190.17 117.96 188.943 119.2 186.49 119.2ZM195.464 119H191.824V105H194.104V110.4H195.464C197.918 110.4 199.144 111.633 199.144 114.1V115.3C199.144 117.767 197.918 119 195.464 119ZM202.944 119H200.664V105H202.944V119ZM194.104 112.42V116.98H195.464C195.944 116.98 196.298 116.86 196.524 116.62C196.751 116.367 196.864 115.967 196.864 115.42V113.98C196.864 113.433 196.751 113.04 196.524 112.8C196.298 112.547 195.944 112.42 195.464 112.42H194.104ZM207.229 119H204.949V105H211.229V107.02H207.229V119ZM214.905 119H212.625V105H216.245C218.698 105 219.925 106.213 219.925 108.64V109.68C219.925 112.107 218.698 113.32 216.245 113.32H214.905V119ZM214.905 107.02V111.32H216.245C216.738 111.32 217.092 111.2 217.305 110.96C217.532 110.707 217.645 110.3 217.645 109.74V108.56C217.645 108 217.532 107.607 217.305 107.38C217.092 107.14 216.738 107.02 216.245 107.02H214.905ZM225.074 119H221.434V105H223.714V110.4H225.074C227.527 110.4 228.754 111.633 228.754 114.1V115.3C228.754 117.767 227.527 119 225.074 119ZM232.554 119H230.274V105H232.554V119ZM223.714 112.42V116.98H225.074C225.554 116.98 225.907 116.86 226.134 116.62C226.36 116.367 226.474 115.967 226.474 115.42V113.98C226.474 113.433 226.36 113.04 226.134 112.8C225.907 112.547 225.554 112.42 225.074 112.42H223.714ZM246.119 119H234.559V105H236.839V116.98H239.219V105H241.479V116.98H243.839V105H246.119V119ZM254.833 119H248.113V105H254.833V107.02H250.393V110.78H253.953V112.8H250.393V116.98H254.833V119ZM262.034 119H259.754V105H267.334V119H265.054V107.02H262.034V119ZM271.604 119H269.324V105H272.944C275.398 105 276.624 106.213 276.624 108.64V109.68C276.624 112.107 275.398 113.32 272.944 113.32H271.604V119ZM271.604 107.02V111.32H272.944C273.438 111.32 273.791 111.2 274.004 110.96C274.231 110.707 274.344 110.3 274.344 109.74V108.56C274.344 108 274.231 107.607 274.004 107.38C273.791 107.14 273.438 107.02 272.944 107.02H271.604ZM280.173 114.36L283.553 105H285.873V119H283.813V109.6L280.453 119H278.133V105H280.173V114.36ZM291.099 119.2C289.899 119.2 288.986 118.887 288.359 118.26C287.732 117.62 287.419 116.7 287.419 115.5V114.56H289.559V115.54C289.559 116.633 290.052 117.18 291.039 117.18C291.559 117.18 291.932 117.047 292.159 116.78C292.399 116.5 292.519 116.047 292.519 115.42V114.66C292.519 113.967 292.379 113.473 292.099 113.18C291.832 112.873 291.386 112.72 290.759 112.72H289.899V110.7H290.819C291.912 110.7 292.459 110.133 292.459 109V108.38C292.459 107.34 291.986 106.82 291.039 106.82C290.106 106.82 289.639 107.32 289.639 108.32V109.02H287.499V108.5C287.499 107.3 287.806 106.387 288.419 105.76C289.032 105.12 289.932 104.8 291.119 104.8C292.292 104.8 293.186 105.107 293.799 105.72C294.412 106.333 294.719 107.22 294.719 108.38V108.76C294.719 110.213 294.126 111.153 292.939 111.58V111.6C294.166 112.027 294.779 113.053 294.779 114.68V115.48C294.779 117.96 293.552 119.2 291.099 119.2ZM296.254 115.44V108.56C296.254 107.36 296.574 106.433 297.214 105.78C297.867 105.127 298.794 104.8 299.994 104.8C301.207 104.8 302.134 105.127 302.774 105.78C303.427 106.433 303.754 107.36 303.754 108.56V115.44C303.754 116.64 303.427 117.567 302.774 118.22C302.12 118.873 301.194 119.2 299.994 119.2C298.794 119.2 297.867 118.873 297.214 118.22C296.574 117.567 296.254 116.64 296.254 115.44ZM299.994 117.18C300.98 117.18 301.474 116.64 301.474 115.56V108.44C301.474 107.36 300.98 106.82 299.994 106.82C299.02 106.82 298.534 107.36 298.534 108.44V115.56C298.534 116.64 299.02 117.18 299.994 117.18ZM309.475 119H305.555V105H309.275C310.528 105 311.448 105.273 312.035 105.82C312.635 106.367 312.935 107.207 312.935 108.34V108.76C312.935 110.187 312.381 111.113 311.275 111.54V111.6C312.541 111.987 313.175 113.02 313.175 114.7V115.42C313.175 117.807 311.941 119 309.475 119ZM307.835 107.02V110.74H308.975C309.548 110.74 309.968 110.613 310.235 110.36C310.515 110.093 310.655 109.68 310.655 109.12V108.6C310.655 108.04 310.541 107.64 310.315 107.4C310.088 107.147 309.715 107.02 309.195 107.02H307.835ZM307.835 112.76V116.98H309.475C309.968 116.98 310.328 116.86 310.555 116.62C310.781 116.367 310.895 115.96 310.895 115.4V114.62C310.895 113.927 310.761 113.447 310.495 113.18C310.228 112.9 309.761 112.76 309.095 112.76H307.835ZM85.46 135V146.98H86.66V150.88H84.38V149H78.64V150.88H76.38V146.98H77.68C77.9733 146.687 78.14 146.14 78.18 145.34L78.6 135H85.46ZM79.84 146.98H83.18V137.02H80.74L80.46 145.22C80.4333 145.94 80.2267 146.527 79.84 146.98ZM88.0556 149.02C87.7756 149.02 87.5556 148.993 87.3956 148.94V146.96C87.5556 147 87.709 147.02 87.8556 147.02C88.349 147.02 88.689 146.9 88.8756 146.66C89.0756 146.407 89.189 145.973 89.2156 145.36L89.6356 135H96.4756V149H94.2156V137.02H91.7756L91.4756 145.42C91.4356 146.673 91.149 147.587 90.6156 148.16C90.0823 148.733 89.229 149.02 88.0556 149.02ZM105.684 135V149H103.404V143.08H102.364C101.724 143.08 101.271 143.22 101.004 143.5C100.751 143.78 100.624 144.267 100.624 144.96V147.16C100.624 147.947 100.551 148.56 100.404 149H98.1044C98.2777 148.573 98.3644 147.967 98.3644 147.18V145.1C98.3644 144.18 98.4977 143.473 98.7644 142.98C99.031 142.473 99.4644 142.133 100.064 141.96V141.9C98.9444 141.487 98.3844 140.533 98.3844 139.04V138.36C98.3844 137.213 98.6777 136.367 99.2644 135.82C99.8644 135.273 100.791 135 102.044 135H105.684ZM102.324 141.06H103.404V137.02H102.084C101.591 137.02 101.231 137.147 101.004 137.4C100.778 137.653 100.664 138.053 100.664 138.6V139.4C100.664 139.987 100.798 140.413 101.064 140.68C101.331 140.933 101.751 141.06 102.324 141.06ZM113.382 149H111.102V135H114.722C117.175 135 118.402 136.213 118.402 138.64V139.68C118.402 142.107 117.175 143.32 114.722 143.32H113.382V149ZM113.382 137.02V141.32H114.722C115.215 141.32 115.568 141.2 115.782 140.96C116.008 140.707 116.122 140.3 116.122 139.74V138.56C116.122 138 116.008 137.607 115.782 137.38C115.568 137.14 115.215 137.02 114.722 137.02H113.382ZM126.63 149H119.91V135H126.63V137.02H122.19V140.78H125.75V142.8H122.19V146.98H126.63V149ZM135.992 149H133.672L133.212 146.28H130.132L129.652 149H127.532L130.212 135H133.292L135.992 149ZM131.672 137.36L130.472 144.3H132.872L131.672 137.36ZM137.45 149.02C137.17 149.02 136.95 148.993 136.79 148.94V146.96C136.95 147 137.103 147.02 137.25 147.02C137.743 147.02 138.083 146.9 138.27 146.66C138.47 146.407 138.583 145.973 138.61 145.36L139.03 135H145.87V149H143.61V137.02H141.17L140.87 145.42C140.83 146.673 140.543 147.587 140.01 148.16C139.477 148.733 138.623 149.02 137.45 149.02ZM149.919 144.36L153.299 135H155.619V149H153.559V139.6L150.199 149H147.879V135H149.919V144.36ZM160.845 149.2C159.645 149.2 158.732 148.887 158.105 148.26C157.478 147.62 157.165 146.7 157.165 145.5V144.56H159.305V145.54C159.305 146.633 159.798 147.18 160.785 147.18C161.305 147.18 161.678 147.047 161.905 146.78C162.145 146.5 162.265 146.047 162.265 145.42V144.66C162.265 143.967 162.125 143.473 161.845 143.18C161.578 142.873 161.132 142.72 160.505 142.72H159.645V140.7H160.565C161.658 140.7 162.205 140.133 162.205 139V138.38C162.205 137.34 161.732 136.82 160.785 136.82C159.852 136.82 159.385 137.32 159.385 138.32V139.02H157.245V138.5C157.245 137.3 157.552 136.387 158.165 135.76C158.778 135.12 159.678 134.8 160.865 134.8C162.038 134.8 162.932 135.107 163.545 135.72C164.158 136.333 164.465 137.22 164.465 138.38V138.76C164.465 140.213 163.872 141.153 162.685 141.58V141.6C163.912 142.027 164.525 143.053 164.525 144.68V145.48C164.525 147.96 163.298 149.2 160.845 149.2ZM173.843 149H171.523L171.063 146.28H167.983L167.503 149H165.383L168.063 135H171.143L173.843 149ZM169.523 137.36L168.323 144.3H170.723L169.523 137.36ZM184.084 150.88H181.804V149H175.184V135H177.464V146.98H180.484V135H182.764V146.98H184.084V150.88ZM187.478 144.36L190.858 135H193.178V149H191.118V139.6L187.758 149H185.438V135H187.478V144.36ZM197.224 144.36L200.604 135H202.924V149H200.864V139.6L197.504 149H195.184V135H197.224V144.36ZM214.488 148.24C213.861 148.88 212.968 149.2 211.808 149.2C210.648 149.2 209.748 148.88 209.108 148.24C208.481 147.587 208.168 146.673 208.168 145.5V138.5C208.168 137.327 208.481 136.42 209.108 135.78C209.748 135.127 210.648 134.8 211.808 134.8C212.968 134.8 213.861 135.127 214.488 135.78C215.114 136.42 215.428 137.327 215.428 138.5V139.74H213.288V138.4C213.288 137.32 212.814 136.78 211.868 136.78C210.921 136.78 210.448 137.32 210.448 138.4V145.6C210.448 146.68 210.921 147.22 211.868 147.22C212.814 147.22 213.288 146.68 213.288 145.6V143.84H215.428V145.5C215.428 146.673 215.114 147.587 214.488 148.24ZM220.959 149H217.039V135H220.759C222.012 135 222.932 135.273 223.519 135.82C224.119 136.367 224.419 137.207 224.419 138.34V138.76C224.419 140.187 223.866 141.113 222.759 141.54V141.6C224.026 141.987 224.659 143.02 224.659 144.7V145.42C224.659 147.807 223.426 149 220.959 149ZM219.319 137.02V140.74H220.459C221.032 140.74 221.452 140.613 221.719 140.36C221.999 140.093 222.139 139.68 222.139 139.12V138.6C222.139 138.04 222.026 137.64 221.799 137.4C221.572 137.147 221.199 137.02 220.679 137.02H219.319ZM219.319 142.76V146.98H220.959C221.452 146.98 221.812 146.86 222.039 146.62C222.266 146.367 222.379 145.96 222.379 145.4V144.62C222.379 143.927 222.246 143.447 221.979 143.18C221.712 142.9 221.246 142.76 220.579 142.76H219.319ZM226.078 145.44V138.56C226.078 137.36 226.398 136.433 227.038 135.78C227.691 135.127 228.618 134.8 229.818 134.8C231.031 134.8 231.958 135.127 232.598 135.78C233.251 136.433 233.578 137.36 233.578 138.56V145.44C233.578 146.64 233.251 147.567 232.598 148.22C231.944 148.873 231.018 149.2 229.818 149.2C228.618 149.2 227.691 148.873 227.038 148.22C226.398 147.567 226.078 146.64 226.078 145.44ZM229.818 147.18C230.804 147.18 231.298 146.64 231.298 145.56V138.44C231.298 137.36 230.804 136.82 229.818 136.82C228.844 136.82 228.358 137.36 228.358 138.44V145.56C228.358 146.64 228.844 147.18 229.818 147.18ZM237.419 144.36L240.799 135H243.119V149H241.059V139.6L237.699 149H235.379V135H237.419V144.36ZM246.625 149H244.465L247.425 141.82L244.585 135H247.025L248.825 139.7L250.685 135H252.885L250.045 141.82L253.005 149H250.585L248.625 143.94L246.625 149ZM259.802 144.36L263.182 135H265.502V149H263.442V139.6L260.082 149H257.762V135H259.802V144.36ZM275.968 135V146.98H277.168V150.88H274.888V149H269.148V150.88H266.888V146.98H268.188C268.481 146.687 268.648 146.14 268.688 145.34L269.108 135H275.968ZM270.348 146.98H273.688V137.02H271.248L270.968 145.22C270.941 145.94 270.734 146.527 270.348 146.98ZM285.243 149H278.523V135H285.243V137.02H280.803V140.78H284.363V142.8H280.803V146.98H285.243V149ZM290.606 133.86C289.819 133.86 289.199 133.64 288.746 133.2C288.293 132.747 288.053 132.133 288.026 131.36H289.406C289.473 132.027 289.873 132.36 290.606 132.36C291.339 132.36 291.759 132.027 291.866 131.36H293.206C293.179 132.133 292.939 132.747 292.486 133.2C292.033 133.64 291.406 133.86 290.606 133.86ZM288.786 144.36L292.166 135H294.486V149H292.426V139.6L289.066 149H286.746V135H288.786V144.36Z" fill="white"/>
<g filter="url(#filter1_ddddd_201_30452)">
<ellipse cx="34" cy="60.5" rx="22" ry="5.5" fill="#DDBA63"/>
<path d="M33.9985 7.74931C28.5304 7.7558 23.2882 9.93087 19.4216 13.7974C15.5551 17.6639 13.38 22.9062 13.3735 28.3743C13.3735 46.022 32.1235 59.3521 32.9219 59.9106C33.2376 60.1311 33.6134 60.2493 33.9985 60.2493C34.3836 60.2493 34.7595 60.1311 35.0752 59.9106C35.8735 59.3521 54.6235 46.022 54.6235 28.3743C54.617 22.9062 52.442 17.6639 48.5754 13.7974C44.7089 9.93087 39.4666 7.7558 33.9985 7.74931V7.74931ZM33.9999 20.875C35.4833 20.875 36.9333 21.3149 38.1667 22.139C39.4001 22.9631 40.3613 24.1344 40.929 25.5049C41.4967 26.8753 41.6452 28.3833 41.3558 29.8382C41.0664 31.293 40.3521 32.6294 39.3032 33.6783C38.2543 34.7272 36.9179 35.4415 35.4631 35.7309C34.0082 36.0203 32.5002 35.8717 31.1298 35.3041C29.7593 34.7364 28.588 33.7751 27.7639 32.5418C26.9398 31.3084 26.4999 29.8584 26.4999 28.375C26.4999 27.3901 26.6939 26.4148 27.0708 25.5048C27.4477 24.5949 28.0001 23.7681 28.6965 23.0716C29.393 22.3752 30.2198 21.8227 31.1297 21.4458C32.0397 21.0689 33.015 20.875 33.9999 20.875V20.875Z" fill="#FFF9DA"/>
<ellipse cx="34" cy="28.5" rx="13" ry="12.5" fill="#C74403"/>
<path d="M35.9498 36H33.7498V25.32H31.4498V23.76C32.3698 23.76 33.0365 23.64 33.4498 23.4C33.8765 23.1333 34.2165 22.6667 34.4698 22H35.9498V36Z" fill="white"/>
</g>
<path d="M79.28 27H77V13H80.62C83.0733 13 84.3 14.2133 84.3 16.64V17.68C84.3 20.1067 83.0733 21.32 80.62 21.32H79.28V27ZM79.28 15.02V19.32H80.62C81.1133 19.32 81.4667 19.2 81.68 18.96C81.9067 18.7067 82.02 18.3 82.02 17.74V16.56C82.02 16 81.9067 15.6067 81.68 15.38C81.4667 15.14 81.1133 15.02 80.62 15.02H79.28ZM92.8278 27H90.5078L90.0478 24.28H86.9678L86.4878 27H84.3678L87.0478 13H90.1278L92.8278 27ZM88.5078 15.36L87.3078 22.3H89.7078L88.5078 15.36ZM100.21 26.24C99.5836 26.88 98.6903 27.2 97.5303 27.2C96.3703 27.2 95.4703 26.88 94.8303 26.24C94.2036 25.5867 93.8903 24.6733 93.8903 23.5V16.5C93.8903 15.3267 94.2036 14.42 94.8303 13.78C95.4703 13.1267 96.3703 12.8 97.5303 12.8C98.6903 12.8 99.5836 13.1267 100.21 13.78C100.837 14.42 101.15 15.3267 101.15 16.5V17.74H99.0103V16.4C99.0103 15.32 98.537 14.78 97.5903 14.78C96.6436 14.78 96.1703 15.32 96.1703 16.4V23.6C96.1703 24.68 96.6436 25.22 97.5903 25.22C98.537 25.22 99.0103 24.68 99.0103 23.6V21.84H101.15V23.5C101.15 24.6733 100.837 25.5867 100.21 26.24ZM108.921 26.24C108.295 26.88 107.401 27.2 106.241 27.2C105.081 27.2 104.181 26.88 103.541 26.24C102.915 25.5867 102.601 24.6733 102.601 23.5V16.5C102.601 15.3267 102.915 14.42 103.541 13.78C104.181 13.1267 105.081 12.8 106.241 12.8C107.401 12.8 108.295 13.1267 108.921 13.78C109.548 14.42 109.861 15.3267 109.861 16.5V17.74H107.721V16.4C107.721 15.32 107.248 14.78 106.301 14.78C105.355 14.78 104.881 15.32 104.881 16.4V23.6C104.881 24.68 105.355 25.22 106.301 25.22C107.248 25.22 107.721 24.68 107.721 23.6V21.84H109.861V23.5C109.861 24.6733 109.548 25.5867 108.921 26.24ZM119.573 27H117.173L114.953 20.6L113.753 22.58V27H111.473V13H113.753V19.16L117.213 13H119.533L116.493 18.2L119.573 27ZM128.726 27H126.406L125.946 24.28H122.866L122.386 27H120.266L122.946 13H126.026L128.726 27ZM124.406 15.36L123.206 22.3H125.606L124.406 15.36ZM142.786 27H140.506L138.346 20.2L137.246 22.1V27H134.966V22.1L133.866 20.2L131.706 27H129.406L132.366 18.2L129.446 13H131.806L134.966 19.06V13H137.246V19.06L140.426 13H142.746L139.846 18.22L142.786 27ZM146.169 22.36L149.549 13H151.869V27H149.809V17.6L146.449 27H144.129V13H146.169V22.36ZM154.895 29.32H153.855L154.755 27H153.955V24.6H156.235V26.76L154.895 29.32ZM166.727 18.08V13H169.007V27H166.727V21.16C166.14 21.76 165.347 22.06 164.347 22.06C162.373 22.06 161.387 20.9333 161.387 18.68V13H163.647V18.38C163.647 19.46 164.113 20 165.047 20C165.58 20 165.993 19.84 166.287 19.52C166.58 19.1867 166.727 18.7067 166.727 18.08ZM175.324 27H173.064V15.02H170.384V13H178.004V15.02H175.324V27ZM179.125 23.44V16.56C179.125 15.36 179.445 14.4333 180.085 13.78C180.738 13.1267 181.665 12.8 182.865 12.8C184.078 12.8 185.005 13.1267 185.645 13.78C186.298 14.4333 186.625 15.36 186.625 16.56V23.44C186.625 24.64 186.298 25.5667 185.645 26.22C184.991 26.8733 184.065 27.2 182.865 27.2C181.665 27.2 180.738 26.8733 180.085 26.22C179.445 25.5667 179.125 24.64 179.125 23.44ZM182.865 25.18C183.851 25.18 184.345 24.64 184.345 23.56V16.44C184.345 15.36 183.851 14.82 182.865 14.82C181.891 14.82 181.405 15.36 181.405 16.44V23.56C181.405 24.64 181.891 25.18 182.865 25.18ZM194.124 27H191.844V13H194.124V18.78H197.144V13H199.424V27H197.144V20.8H194.124V27ZM201.234 23.44V16.56C201.234 15.36 201.554 14.4333 202.194 13.78C202.847 13.1267 203.774 12.8 204.974 12.8C206.187 12.8 207.114 13.1267 207.754 13.78C208.407 14.4333 208.734 15.36 208.734 16.56V23.44C208.734 24.64 208.407 25.5667 207.754 26.22C207.101 26.8733 206.174 27.2 204.974 27.2C203.774 27.2 202.847 26.8733 202.194 26.22C201.554 25.5667 201.234 24.64 201.234 23.44ZM204.974 25.18C205.961 25.18 206.454 24.64 206.454 23.56V16.44C206.454 15.36 205.961 14.82 204.974 14.82C204.001 14.82 203.514 15.36 203.514 16.44V23.56C203.514 24.64 204.001 25.18 204.974 25.18ZM214.455 27H210.535V13H214.255C215.508 13 216.428 13.2733 217.015 13.82C217.615 14.3667 217.915 15.2067 217.915 16.34V16.76C217.915 18.1867 217.362 19.1133 216.255 19.54V19.6C217.522 19.9867 218.155 21.02 218.155 22.7V23.42C218.155 25.8067 216.922 27 214.455 27ZM212.815 15.02V18.74H213.955C214.528 18.74 214.948 18.6133 215.215 18.36C215.495 18.0933 215.635 17.68 215.635 17.12V16.6C215.635 16.04 215.522 15.64 215.295 15.4C215.068 15.1467 214.695 15.02 214.175 15.02H212.815ZM212.815 20.76V24.98H214.455C214.948 24.98 215.308 24.86 215.535 24.62C215.762 24.3667 215.875 23.96 215.875 23.4V22.62C215.875 21.9267 215.742 21.4467 215.475 21.18C215.208 20.9 214.742 20.76 214.075 20.76H212.815ZM219.574 23.44V16.56C219.574 15.36 219.894 14.4333 220.534 13.78C221.187 13.1267 222.114 12.8 223.314 12.8C224.527 12.8 225.454 13.1267 226.094 13.78C226.747 14.4333 227.074 15.36 227.074 16.56V23.44C227.074 24.64 226.747 25.5667 226.094 26.22C225.441 26.8733 224.514 27.2 223.314 27.2C222.114 27.2 221.187 26.8733 220.534 26.22C219.894 25.5667 219.574 24.64 219.574 23.44ZM223.314 25.18C224.301 25.18 224.794 24.64 224.794 23.56V16.44C224.794 15.36 224.301 14.82 223.314 14.82C222.341 14.82 221.854 15.36 221.854 16.44V23.56C221.854 24.64 222.341 25.18 223.314 25.18ZM231.155 27H228.875V13H235.155V15.02H231.155V27ZM236.293 23.44V16.56C236.293 15.36 236.613 14.4333 237.253 13.78C237.906 13.1267 238.833 12.8 240.033 12.8C241.246 12.8 242.173 13.1267 242.813 13.78C243.466 14.4333 243.793 15.36 243.793 16.56V23.44C243.793 24.64 243.466 25.5667 242.813 26.22C242.159 26.8733 241.233 27.2 240.033 27.2C238.833 27.2 237.906 26.8733 237.253 26.22C236.613 25.5667 236.293 24.64 236.293 23.44ZM240.033 25.18C241.019 25.18 241.513 24.64 241.513 23.56V16.44C241.513 15.36 241.019 14.82 240.033 14.82C239.059 14.82 238.573 15.36 238.573 16.44V23.56C238.573 24.64 239.059 25.18 240.033 25.18ZM81.32 57H79.06V45.02H76.38V43H84V45.02H81.32V57ZM89.0189 57H85.3789V43H87.6589V48.4H89.0189C91.4722 48.4 92.6989 49.6333 92.6989 52.1V53.3C92.6989 55.7667 91.4722 57 89.0189 57ZM96.4989 57H94.2189V43H96.4989V57ZM87.6589 50.42V54.98H89.0189C89.4989 54.98 89.8522 54.86 90.0789 54.62C90.3056 54.3667 90.4189 53.9667 90.4189 53.42V51.98C90.4189 51.4333 90.3056 51.04 90.0789 50.8C89.8522 50.5467 89.4989 50.42 89.0189 50.42H87.6589ZM103.422 57H101.262L104.222 49.82L101.382 43H103.822L105.622 47.7L107.482 43H109.682L106.842 49.82L109.802 57H107.382L105.422 51.94L103.422 57ZM110.59 53.44V46.56C110.59 45.36 110.91 44.4333 111.55 43.78C112.203 43.1267 113.13 42.8 114.33 42.8C115.543 42.8 116.47 43.1267 117.11 43.78C117.763 44.4333 118.09 45.36 118.09 46.56V53.44C118.09 54.64 117.763 55.5667 117.11 56.22C116.456 56.8733 115.53 57.2 114.33 57.2C113.13 57.2 112.203 56.8733 111.55 56.22C110.91 55.5667 110.59 54.64 110.59 53.44ZM114.33 55.18C115.316 55.18 115.81 54.64 115.81 53.56V46.44C115.81 45.36 115.316 44.82 114.33 44.82C113.356 44.82 112.87 45.36 112.87 46.44V53.56C112.87 54.64 113.356 55.18 114.33 55.18ZM124.133 57H121.873V45.02H119.193V43H126.813V45.02H124.133V57ZM134.911 57H128.191V43H134.911V45.02H130.471V48.78H134.031V50.8H130.471V54.98H134.911V57ZM136.454 57.02C136.174 57.02 135.954 56.9933 135.794 56.94V54.96C135.954 55 136.107 55.02 136.254 55.02C136.747 55.02 137.087 54.9 137.274 54.66C137.474 54.4067 137.587 53.9733 137.614 53.36L138.034 43H144.874V57H142.614V45.02H140.174L139.874 53.42C139.834 54.6733 139.547 55.5867 139.014 56.16C138.481 56.7333 137.627 57.02 136.454 57.02ZM154.101 57H150.301V43H156.841V45.02H152.581V48.5H154.101C156.554 48.5 157.781 49.7333 157.781 52.2V53.3C157.781 55.7667 156.554 57 154.101 57ZM152.581 50.52V54.98H154.101C154.581 54.98 154.934 54.86 155.161 54.62C155.387 54.3667 155.501 53.9667 155.501 53.42V52.08C155.501 51.5333 155.387 51.14 155.161 50.9C154.934 50.6467 154.581 50.52 154.101 50.52H152.581ZM162.925 57H159.285V43H161.565V48.4H162.925C165.378 48.4 166.605 49.6333 166.605 52.1V53.3C166.605 55.7667 165.378 57 162.925 57ZM170.405 57H168.125V43H170.405V57ZM161.565 50.42V54.98H162.925C163.405 54.98 163.758 54.86 163.985 54.62C164.212 54.3667 164.325 53.9667 164.325 53.42V51.98C164.325 51.4333 164.212 51.04 163.985 50.8C163.758 50.5467 163.405 50.42 162.925 50.42H161.565ZM184.288 43V54.98H185.488V58.88H183.208V57H177.468V58.88H175.208V54.98H176.508C176.801 54.6867 176.968 54.14 177.008 53.34L177.428 43H184.288ZM178.668 54.98H182.008V45.02H179.568L179.288 53.22C179.261 53.94 179.055 54.5267 178.668 54.98ZM186.884 57.02C186.604 57.02 186.384 56.9933 186.224 56.94V54.96C186.384 55 186.537 55.02 186.684 55.02C187.177 55.02 187.517 54.9 187.704 54.66C187.904 54.4067 188.017 53.9733 188.044 53.36L188.464 43H195.304V57H193.044V45.02H190.604L190.304 53.42C190.264 54.6733 189.977 55.5867 189.444 56.16C188.91 56.7333 188.057 57.02 186.884 57.02ZM204.513 43V57H202.233V51.08H201.193C200.553 51.08 200.099 51.22 199.833 51.5C199.579 51.78 199.453 52.2667 199.453 52.96V55.16C199.453 55.9467 199.379 56.56 199.233 57H196.933C197.106 56.5733 197.193 55.9667 197.193 55.18V53.1C197.193 52.18 197.326 51.4733 197.593 50.98C197.859 50.4733 198.293 50.1333 198.893 49.96V49.9C197.773 49.4867 197.213 48.5333 197.213 47.04V46.36C197.213 45.2133 197.506 44.3667 198.093 43.82C198.693 43.2733 199.619 43 200.873 43H204.513ZM201.153 49.06H202.233V45.02H200.913C200.419 45.02 200.059 45.1467 199.833 45.4C199.606 45.6533 199.493 46.0533 199.493 46.6V47.4C199.493 47.9867 199.626 48.4133 199.893 48.68C200.159 48.9333 200.579 49.06 201.153 49.06ZM216.07 56.24C215.443 56.88 214.55 57.2 213.39 57.2C212.23 57.2 211.33 56.88 210.69 56.24C210.063 55.5867 209.75 54.6733 209.75 53.5V46.5C209.75 45.3267 210.063 44.42 210.69 43.78C211.33 43.1267 212.23 42.8 213.39 42.8C214.55 42.8 215.443 43.1267 216.07 43.78C216.696 44.42 217.01 45.3267 217.01 46.5V47.74H214.87V46.4C214.87 45.32 214.396 44.78 213.45 44.78C212.503 44.78 212.03 45.32 212.03 46.4V53.6C212.03 54.68 212.503 55.22 213.45 55.22C214.396 55.22 214.87 54.68 214.87 53.6V51.84H217.01V53.5C217.01 54.6733 216.696 55.5867 216.07 56.24ZM225.341 57H218.621V43H225.341V45.02H220.901V48.78H224.461V50.8H220.901V54.98H225.341V57ZM230.644 57H226.844V43H233.384V45.02H229.124V48.5H230.644C233.097 48.5 234.324 49.7333 234.324 52.2V53.3C234.324 55.7667 233.097 57 230.644 57ZM229.124 50.52V54.98H230.644C231.124 54.98 231.477 54.86 231.704 54.62C231.93 54.3667 232.044 53.9667 232.044 53.42V52.08C232.044 51.5333 231.93 51.14 231.704 50.9C231.477 50.6467 231.124 50.52 230.644 50.52H229.124ZM243.028 43V57H240.748V51.08H239.708C239.068 51.08 238.615 51.22 238.348 51.5C238.095 51.78 237.968 52.2667 237.968 52.96V55.16C237.968 55.9467 237.895 56.56 237.748 57H235.448C235.621 56.5733 235.708 55.9667 235.708 55.18V53.1C235.708 52.18 235.841 51.4733 236.108 50.98C236.375 50.4733 236.808 50.1333 237.408 49.96V49.9C236.288 49.4867 235.728 48.5333 235.728 47.04V46.36C235.728 45.2133 236.021 44.3667 236.608 43.82C237.208 43.2733 238.135 43 239.388 43H243.028ZM239.668 49.06H240.748V45.02H239.428C238.935 45.02 238.575 45.1467 238.348 45.4C238.121 45.6533 238.008 46.0533 238.008 46.6V47.4C238.008 47.9867 238.141 48.4133 238.408 48.68C238.675 48.9333 239.095 49.06 239.668 49.06ZM248.265 53.44V46.56C248.265 45.36 248.585 44.4333 249.225 43.78C249.879 43.1267 250.805 42.8 252.005 42.8C253.219 42.8 254.145 43.1267 254.785 43.78C255.439 44.4333 255.765 45.36 255.765 46.56V53.44C255.765 54.64 255.439 55.5667 254.785 56.22C254.132 56.8733 253.205 57.2 252.005 57.2C250.805 57.2 249.879 56.8733 249.225 56.22C248.585 55.5667 248.265 54.64 248.265 53.44ZM252.005 55.18C252.992 55.18 253.485 54.64 253.485 53.56V46.44C253.485 45.36 252.992 44.82 252.005 44.82C251.032 44.82 250.545 45.36 250.545 46.44V53.56C250.545 54.64 251.032 55.18 252.005 55.18ZM261.808 57H259.548V45.02H256.868V43H264.488V45.02H261.808V57ZM273.967 57H271.567L269.347 50.6L268.147 52.58V57H265.867V43H268.147V49.16L271.607 43H273.927L270.887 48.2L273.967 57ZM277.581 57H275.301V43H278.921C281.374 43 282.601 44.2133 282.601 46.64V47.68C282.601 50.1067 281.374 51.32 278.921 51.32H277.581V57ZM277.581 45.02V49.32H278.921C279.414 49.32 279.767 49.2 279.981 48.96C280.207 48.7067 280.321 48.3 280.321 47.74V46.56C280.321 46 280.207 45.6067 279.981 45.38C279.767 45.14 279.414 45.02 278.921 45.02H277.581ZM287.749 57H284.109V43H286.389V48.4H287.749C290.203 48.4 291.429 49.6333 291.429 52.1V53.3C291.429 55.7667 290.203 57 287.749 57ZM295.229 57H292.949V43H295.229V57ZM286.389 50.42V54.98H287.749C288.229 54.98 288.583 54.86 288.809 54.62C289.036 54.3667 289.149 53.9667 289.149 53.42V51.98C289.149 51.4333 289.036 51.04 288.809 50.8C288.583 50.5467 288.229 50.42 287.749 50.42H286.389ZM301.554 57H299.294V45.02H296.614V43H304.234V45.02H301.554V57ZM309.253 57H305.613V43H307.893V48.4H309.253C311.707 48.4 312.933 49.6333 312.933 52.1V53.3C312.933 55.7667 311.707 57 309.253 57ZM307.893 50.42V54.98H309.253C309.733 54.98 310.087 54.86 310.313 54.62C310.54 54.3667 310.653 53.9667 310.653 53.42V51.98C310.653 51.4333 310.54 51.04 310.313 50.8C310.087 50.5467 309.733 50.42 309.253 50.42H307.893Z" fill="white"/>
<g filter="url(#filter2_ddddd_201_30452)">
<ellipse cx="34" cy="244.5" rx="22" ry="5.5" fill="#DDBA63"/>
<path d="M33.9985 191.749C28.5304 191.756 23.2882 193.931 19.4216 197.797C15.5551 201.664 13.38 206.906 13.3735 212.374C13.3735 230.022 32.1235 243.352 32.9219 243.911C33.2376 244.131 33.6134 244.249 33.9985 244.249C34.3836 244.249 34.7595 244.131 35.0752 243.911C35.8735 243.352 54.6235 230.022 54.6235 212.374C54.617 206.906 52.442 201.664 48.5754 197.797C44.7089 193.931 39.4666 191.756 33.9985 191.749V191.749ZM33.9999 204.875C35.4833 204.875 36.9333 205.315 38.1667 206.139C39.4001 206.963 40.3613 208.134 40.929 209.505C41.4967 210.875 41.6452 212.383 41.3558 213.838C41.0664 215.293 40.3521 216.629 39.3032 217.678C38.2543 218.727 36.9179 219.442 35.4631 219.731C34.0082 220.02 32.5002 219.872 31.1298 219.304C29.7593 218.736 28.588 217.775 27.7639 216.542C26.9398 215.308 26.4999 213.858 26.4999 212.375C26.4999 211.39 26.6939 210.415 27.0708 209.505C27.4477 208.595 28.0001 207.768 28.6965 207.072C29.393 206.375 30.2198 205.823 31.1297 205.446C32.0397 205.069 33.015 204.875 33.9999 204.875V204.875Z" fill="#FFF9DA"/>
<ellipse cx="34" cy="212.5" rx="13" ry="12.5" fill="#C74403"/>
<path d="M30.6598 216.72V215.58H32.7398V216.82C32.7398 217.74 33.1198 218.2 33.8798 218.2C34.2664 218.2 34.5531 218.08 34.7398 217.84C34.9264 217.6 35.0198 217.193 35.0198 216.62V215.48C35.0198 214.84 34.9064 214.387 34.6798 214.12C34.4531 213.84 34.0864 213.7 33.5798 213.7H32.8398V211.7H33.6398C34.0931 211.7 34.4264 211.587 34.6398 211.36C34.8531 211.12 34.9598 210.74 34.9598 210.22V209.2C34.9598 208.267 34.5931 207.8 33.8598 207.8C33.1531 207.8 32.7998 208.233 32.7998 209.1V210.02H30.7198V209.28C30.7198 208.16 30.9931 207.3 31.5398 206.7C32.0998 206.1 32.8998 205.8 33.9398 205.8C34.9931 205.8 35.7931 206.1 36.3398 206.7C36.8864 207.287 37.1598 208.14 37.1598 209.26V209.76C37.1598 211.253 36.6398 212.193 35.5998 212.58V212.62C36.6798 213.02 37.2198 213.98 37.2198 215.5V216.74C37.2198 217.86 36.9398 218.72 36.3798 219.32C35.8331 219.907 35.0198 220.2 33.9398 220.2C32.8598 220.2 32.0398 219.9 31.4798 219.3C30.9331 218.7 30.6598 217.84 30.6598 216.72Z" fill="white"/>
</g>
<path d="M79.28 211H77V197H84.58V211H82.3V199.02H79.28V211ZM86.3903 207.44V200.56C86.3903 199.36 86.7103 198.433 87.3503 197.78C88.0036 197.127 88.9303 196.8 90.1303 196.8C91.3436 196.8 92.2703 197.127 92.9103 197.78C93.5636 198.433 93.8903 199.36 93.8903 200.56V207.44C93.8903 208.64 93.5636 209.567 92.9103 210.22C92.257 210.873 91.3303 211.2 90.1303 211.2C88.9303 211.2 88.0036 210.873 87.3503 210.22C86.7103 209.567 86.3903 208.64 86.3903 207.44ZM90.1303 209.18C91.117 209.18 91.6103 208.64 91.6103 207.56V200.44C91.6103 199.36 91.117 198.82 90.1303 198.82C89.157 198.82 88.6703 199.36 88.6703 200.44V207.56C88.6703 208.64 89.157 209.18 90.1303 209.18ZM98.9114 211.2C97.7114 211.2 96.7981 210.887 96.1714 210.26C95.5447 209.62 95.2314 208.7 95.2314 207.5V206.56H97.3714V207.54C97.3714 208.633 97.8647 209.18 98.8514 209.18C99.3714 209.18 99.7447 209.047 99.9714 208.78C100.211 208.5 100.331 208.047 100.331 207.42V206.66C100.331 205.967 100.191 205.473 99.9114 205.18C99.6447 204.873 99.1981 204.72 98.5714 204.72H97.7114V202.7H98.6314C99.7247 202.7 100.271 202.133 100.271 201V200.38C100.271 199.34 99.7981 198.82 98.8514 198.82C97.9181 198.82 97.4514 199.32 97.4514 200.32V201.02H95.3114V200.5C95.3114 199.3 95.6181 198.387 96.2314 197.76C96.8447 197.12 97.7447 196.8 98.9314 196.8C100.105 196.8 100.998 197.107 101.611 197.72C102.225 198.333 102.531 199.22 102.531 200.38V200.76C102.531 202.213 101.938 203.153 100.751 203.58V203.6C101.978 204.027 102.591 205.053 102.591 206.68V207.48C102.591 209.96 101.365 211.2 98.9114 211.2ZM104.066 207.44V200.56C104.066 199.36 104.386 198.433 105.026 197.78C105.679 197.127 106.606 196.8 107.806 196.8C109.019 196.8 109.946 197.127 110.586 197.78C111.239 198.433 111.566 199.36 111.566 200.56V207.44C111.566 208.64 111.239 209.567 110.586 210.22C109.933 210.873 109.006 211.2 107.806 211.2C106.606 211.2 105.679 210.873 105.026 210.22C104.386 209.567 104.066 208.64 104.066 207.44ZM107.806 209.18C108.793 209.18 109.286 208.64 109.286 207.56V200.44C109.286 199.36 108.793 198.82 107.806 198.82C106.833 198.82 106.346 199.36 106.346 200.44V207.56C106.346 208.64 106.833 209.18 107.806 209.18ZM117.287 211H113.367V197H117.087C118.341 197 119.261 197.273 119.847 197.82C120.447 198.367 120.747 199.207 120.747 200.34V200.76C120.747 202.187 120.194 203.113 119.087 203.54V203.6C120.354 203.987 120.987 205.02 120.987 206.7V207.42C120.987 209.807 119.754 211 117.287 211ZM115.647 199.02V202.74H116.787C117.361 202.74 117.781 202.613 118.047 202.36C118.327 202.093 118.467 201.68 118.467 201.12V200.6C118.467 200.04 118.354 199.64 118.127 199.4C117.901 199.147 117.527 199.02 117.007 199.02H115.647ZM115.647 204.76V208.98H117.287C117.781 208.98 118.141 208.86 118.367 208.62C118.594 208.367 118.707 207.96 118.707 207.4V206.62C118.707 205.927 118.574 205.447 118.307 205.18C118.041 204.9 117.574 204.76 116.907 204.76H115.647ZM124.626 206.36L128.006 197H130.326V211H128.266V201.6L124.906 211H122.586V197H124.626V206.36ZM144.21 197V208.98H145.41V212.88H143.13V211H137.39V212.88H135.13V208.98H136.43C136.723 208.687 136.89 208.14 136.93 207.34L137.35 197H144.21ZM138.59 208.98H141.93V199.02H139.49L139.21 207.22C139.183 207.94 138.977 208.527 138.59 208.98ZM149.046 211H146.766V197H150.386C152.839 197 154.066 198.213 154.066 200.64V201.68C154.066 204.107 152.839 205.32 150.386 205.32H149.046V211ZM149.046 199.02V203.32H150.386C150.879 203.32 151.232 203.2 151.446 202.96C151.672 202.707 151.786 202.3 151.786 201.74V200.56C151.786 200 151.672 199.607 151.446 199.38C151.232 199.14 150.879 199.02 150.386 199.02H149.046ZM159.06 204.56L160.86 197H163.04L160.02 208.62C159.78 209.54 159.4 210.2 158.88 210.6C158.36 211 157.627 211.2 156.68 211.2C156.134 211.2 155.674 211.127 155.3 210.98V209.02C155.62 209.127 155.967 209.18 156.34 209.18C156.767 209.18 157.087 209.12 157.3 209C157.514 208.867 157.674 208.64 157.78 208.32L157.88 207.96L154.72 197H157.08L159.06 204.56ZM167.329 211.2C166.129 211.2 165.216 210.887 164.589 210.26C163.963 209.62 163.649 208.7 163.649 207.5V206.56H165.789V207.54C165.789 208.633 166.283 209.18 167.269 209.18C167.789 209.18 168.163 209.047 168.389 208.78C168.629 208.5 168.749 208.047 168.749 207.42V206.66C168.749 205.967 168.609 205.473 168.329 205.18C168.063 204.873 167.616 204.72 166.989 204.72H166.129V202.7H167.049C168.143 202.7 168.689 202.133 168.689 201V200.38C168.689 199.34 168.216 198.82 167.269 198.82C166.336 198.82 165.869 199.32 165.869 200.32V201.02H163.729V200.5C163.729 199.3 164.036 198.387 164.649 197.76C165.263 197.12 166.163 196.8 167.349 196.8C168.523 196.8 169.416 197.107 170.029 197.72C170.643 198.333 170.949 199.22 170.949 200.38V200.76C170.949 202.213 170.356 203.153 169.169 203.58V203.6C170.396 204.027 171.009 205.053 171.009 206.68V207.48C171.009 209.96 169.783 211.2 167.329 211.2ZM179.384 211H172.664V197H179.384V199.02H174.944V202.78H178.504V204.8H174.944V208.98H179.384V211ZM184.747 195.86C183.96 195.86 183.34 195.64 182.887 195.2C182.433 194.747 182.193 194.133 182.167 193.36H183.547C183.613 194.027 184.013 194.36 184.747 194.36C185.48 194.36 185.9 194.027 186.007 193.36H187.347C187.32 194.133 187.08 194.747 186.627 195.2C186.173 195.64 185.547 195.86 184.747 195.86ZM182.927 206.36L186.307 197H188.627V211H186.567V201.6L183.207 211H180.887V197H182.927V206.36ZM196.331 211H194.051V197H201.631V211H199.351V199.02H196.331V211ZM203.441 207.44V200.56C203.441 199.36 203.761 198.433 204.401 197.78C205.054 197.127 205.981 196.8 207.181 196.8C208.394 196.8 209.321 197.127 209.961 197.78C210.614 198.433 210.941 199.36 210.941 200.56V207.44C210.941 208.64 210.614 209.567 209.961 210.22C209.308 210.873 208.381 211.2 207.181 211.2C205.981 211.2 205.054 210.873 204.401 210.22C203.761 209.567 203.441 208.64 203.441 207.44ZM207.181 209.18C208.168 209.18 208.661 208.64 208.661 207.56V200.44C208.661 199.36 208.168 198.82 207.181 198.82C206.208 198.82 205.721 199.36 205.721 200.44V207.56C205.721 208.64 206.208 209.18 207.181 209.18ZM221.105 197V208.98H222.305V212.88H220.025V211H214.285V212.88H212.025V208.98H213.325C213.618 208.687 213.785 208.14 213.825 207.34L214.245 197H221.105ZM215.485 208.98H218.825V199.02H216.385L216.105 207.22C216.078 207.94 215.871 208.527 215.485 208.98ZM232.12 197V208.98H233.32V212.88H231.04V211H225.3V212.88H223.04V208.98H224.34C224.633 208.687 224.8 208.14 224.84 207.34L225.26 197H232.12ZM226.5 208.98H229.84V199.02H227.4L227.12 207.22C227.093 207.94 226.887 208.527 226.5 208.98ZM241.396 211H234.676V197H241.396V199.02H236.956V202.78H240.516V204.8H236.956V208.98H241.396V211ZM245.178 211H242.898V197H246.518C248.972 197 250.198 198.213 250.198 200.64V201.68C250.198 204.107 248.972 205.32 246.518 205.32H245.178V211ZM245.178 199.02V203.32H246.518C247.012 203.32 247.365 203.2 247.578 202.96C247.805 202.707 247.918 202.3 247.918 201.74V200.56C247.918 200 247.805 199.607 247.578 199.38C247.365 199.14 247.012 199.02 246.518 199.02H245.178ZM263.861 211H261.581L259.421 204.2L258.321 206.1V211H256.041V206.1L254.941 204.2L252.781 211H250.481L253.441 202.2L250.521 197H252.881L256.041 203.06V197H258.321V203.06L261.501 197H263.821L260.921 202.22L263.861 211ZM273.023 211H270.703L270.243 208.28H267.163L266.683 211H264.563L267.243 197H270.323L273.023 211ZM268.703 199.36L267.503 206.3H269.903L268.703 199.36ZM277.57 211H275.31V199.02H272.63V197H280.25V199.02H277.57V211ZM285.269 211H281.629V197H283.909V202.4H285.269C287.722 202.4 288.949 203.633 288.949 206.1V207.3C288.949 209.767 287.722 211 285.269 211ZM283.909 204.42V208.98H285.269C285.749 208.98 286.102 208.86 286.329 208.62C286.556 208.367 286.669 207.967 286.669 207.42V205.98C286.669 205.433 286.556 205.04 286.329 204.8C286.102 204.547 285.749 204.42 285.269 204.42H283.909ZM81.32 241H79.06V229.02H76.38V227H84V229.02H81.32V241ZM89.2989 241H85.3789V227H89.0989C90.3522 227 91.2722 227.273 91.8589 227.82C92.4589 228.367 92.7589 229.207 92.7589 230.34V230.76C92.7589 232.187 92.2056 233.113 91.0989 233.54V233.6C92.3656 233.987 92.9989 235.02 92.9989 236.7V237.42C92.9989 239.807 91.7656 241 89.2989 241ZM87.6589 229.02V232.74H88.7989C89.3722 232.74 89.7922 232.613 90.0589 232.36C90.3389 232.093 90.4789 231.68 90.4789 231.12V230.6C90.4789 230.04 90.3656 229.64 90.1389 229.4C89.9122 229.147 89.5389 229.02 89.0189 229.02H87.6589ZM87.6589 234.76V238.98H89.2989C89.7922 238.98 90.1522 238.86 90.3789 238.62C90.6056 238.367 90.7189 237.96 90.7189 237.4V236.62C90.7189 235.927 90.5856 235.447 90.3189 235.18C90.0522 234.9 89.5856 234.76 88.9189 234.76H87.6589ZM94.4177 237.44V230.56C94.4177 229.36 94.7377 228.433 95.3777 227.78C96.031 227.127 96.9577 226.8 98.1577 226.8C99.371 226.8 100.298 227.127 100.938 227.78C101.591 228.433 101.918 229.36 101.918 230.56V237.44C101.918 238.64 101.591 239.567 100.938 240.22C100.284 240.873 99.3577 241.2 98.1577 241.2C96.9577 241.2 96.031 240.873 95.3777 240.22C94.7377 239.567 94.4177 238.64 94.4177 237.44ZM98.1577 239.18C99.1443 239.18 99.6377 238.64 99.6377 237.56V230.44C99.6377 229.36 99.1443 228.82 98.1577 228.82C97.1843 228.82 96.6977 229.36 96.6977 230.44V237.56C96.6977 238.64 97.1843 239.18 98.1577 239.18ZM105.759 236.36L109.139 227H111.459V241H109.399V231.6L106.039 241H103.719V227H105.759V236.36ZM116.703 237.44V230.56C116.703 229.36 117.023 228.433 117.663 227.78C118.316 227.127 119.243 226.8 120.443 226.8C121.656 226.8 122.583 227.127 123.223 227.78C123.876 228.433 124.203 229.36 124.203 230.56V237.44C124.203 238.64 123.876 239.567 123.223 240.22C122.569 240.873 121.643 241.2 120.443 241.2C119.243 241.2 118.316 240.873 117.663 240.22C117.023 239.567 116.703 238.64 116.703 237.44ZM120.443 239.18C121.429 239.18 121.923 238.64 121.923 237.56V230.44C121.923 229.36 121.429 228.82 120.443 228.82C119.469 228.82 118.983 229.36 118.983 230.44V237.56C118.983 238.64 119.469 239.18 120.443 239.18ZM130.246 241H127.986V229.02H125.306V227H132.926V229.02H130.246V241ZM142.405 241H140.005L137.785 234.6L136.585 236.58V241H134.305V227H136.585V233.16L140.045 227H142.365L139.325 232.2L142.405 241ZM146.018 241H143.738V227H147.358C149.812 227 151.038 228.213 151.038 230.64V231.68C151.038 234.107 149.812 235.32 147.358 235.32H146.018V241ZM146.018 229.02V233.32H147.358C147.852 233.32 148.205 233.2 148.418 232.96C148.645 232.707 148.758 232.3 148.758 231.74V230.56C148.758 230 148.645 229.607 148.418 229.38C148.205 229.14 147.852 229.02 147.358 229.02H146.018ZM156.187 241H152.547V227H154.827V232.4H156.187C158.64 232.4 159.867 233.633 159.867 236.1V237.3C159.867 239.767 158.64 241 156.187 241ZM163.667 241H161.387V227H163.667V241ZM154.827 234.42V238.98H156.187C156.667 238.98 157.02 238.86 157.247 238.62C157.474 238.367 157.587 237.967 157.587 237.42V235.98C157.587 235.433 157.474 235.04 157.247 234.8C157.02 234.547 156.667 234.42 156.187 234.42H154.827ZM169.992 241H167.732V229.02H165.052V227H172.672V229.02H169.992V241ZM176.091 236.36L179.471 227H181.791V241H179.731V231.6L176.371 241H174.051V227H176.091V236.36ZM190.997 227V241H188.717V235.08H187.677C187.037 235.08 186.584 235.22 186.317 235.5C186.064 235.78 185.937 236.267 185.937 236.96V239.16C185.937 239.947 185.864 240.56 185.717 241H183.417C183.59 240.573 183.677 239.967 183.677 239.18V237.1C183.677 236.18 183.81 235.473 184.077 234.98C184.344 234.473 184.777 234.133 185.377 233.96V233.9C184.257 233.487 183.697 232.533 183.697 231.04V230.36C183.697 229.213 183.99 228.367 184.577 227.82C185.177 227.273 186.104 227 187.357 227H190.997ZM187.637 233.06H188.717V229.02H187.397C186.904 229.02 186.544 229.147 186.317 229.4C186.09 229.653 185.977 230.053 185.977 230.6V231.4C185.977 231.987 186.11 232.413 186.377 232.68C186.644 232.933 187.064 233.06 187.637 233.06Z" fill="white"/>
<defs>
<filter id="filter0_ddddd_201_30452" x="0" y="92" width="114" height="109" filterUnits="userSpaceOnUse" color-interpolation-filters="sRGB">
<feFlood flood-opacity="0" result="BackgroundImageFix"/>
<feColorMatrix in="SourceAlpha" type="matrix" values="0 0 0 0 0 0 0 0 0 0 0 0 0 0 0 0 0 0 127 0" result="hardAlpha"/>
<feOffset/>
<feColorMatrix type="matrix" values="0 0 0 0 0.0745098 0 0 0 0 0.12549 0 0 0 0 0.0823529 0 0 0 0.2 0"/>
<feBlend mode="normal" in2="BackgroundImageFix" result="effect1_dropShadow_201_30452"/>
<feColorMatrix in="SourceAlpha" type="matrix" values="0 0 0 0 0 0 0 0 0 0 0 0 0 0 0 0 0 0 127 0" result="hardAlpha"/>
<feOffset dx="2" dy="2"/>
<feGaussianBlur stdDeviation="3"/>
<feColorMatrix type="matrix" values="0 0 0 0 0.0745098 0 0 0 0 0.12549 0 0 0 0 0.0823529 0 0 0 0.2 0"/>
<feBlend mode="normal" in2="effect1_dropShadow_201_30452" result="effect2_dropShadow_201_30452"/>
<feColorMatrix in="SourceAlpha" type="matrix" values="0 0 0 0 0 0 0 0 0 0 0 0 0 0 0 0 0 0 127 0" result="hardAlpha"/>
<feOffset dx="8" dy="7"/>
<feGaussianBlur stdDeviation="5"/>
<feColorMatrix type="matrix" values="0 0 0 0 0.0745098 0 0 0 0 0.12549 0 0 0 0 0.0823529 0 0 0 0.17 0"/>
<feBlend mode="normal" in2="effect2_dropShadow_201_30452" result="effect3_dropShadow_201_30452"/>
<feColorMatrix in="SourceAlpha" type="matrix" values="0 0 0 0 0 0 0 0 0 0 0 0 0 0 0 0 0 0 127 0" result="hardAlpha"/>
<feOffset dx="18" dy="15"/>
<feGaussianBlur stdDeviation="7"/>
<feColorMatrix type="matrix" values="0 0 0 0 0.0745098 0 0 0 0 0.12549 0 0 0 0 0.0823529 0 0 0 0.1 0"/>
<feBlend mode="normal" in2="effect3_dropShadow_201_30452" result="effect4_dropShadow_201_30452"/>
<feColorMatrix in="SourceAlpha" type="matrix" values="0 0 0 0 0 0 0 0 0 0 0 0 0 0 0 0 0 0 127 0" result="hardAlpha"/>
<feOffset dx="33" dy="26"/>
<feGaussianBlur stdDeviation="8.5"/>
<feColorMatrix type="matrix" values="0 0 0 0 0.0745098 0 0 0 0 0.12549 0 0 0 0 0.0823529 0 0 0 0.03 0"/>
<feBlend mode="normal" in2="effect4_dropShadow_201_30452" result="effect5_dropShadow_201_30452"/>
<feBlend mode="normal" in="SourceGraphic" in2="effect5_dropShadow_201_30452" result="shape"/>
</filter>
<filter id="filter1_ddddd_201_30452" x="0" y="0" width="114" height="109" filterUnits="userSpaceOnUse" color-interpolation-filters="sRGB">
<feFlood flood-opacity="0" result="BackgroundImageFix"/>
<feColorMatrix in="SourceAlpha" type="matrix" values="0 0 0 0 0 0 0 0 0 0 0 0 0 0 0 0 0 0 127 0" result="hardAlpha"/>
<feOffset/>
<feColorMatrix type="matrix" values="0 0 0 0 0.0745098 0 0 0 0 0.12549 0 0 0 0 0.0823529 0 0 0 0.2 0"/>
<feBlend mode="normal" in2="BackgroundImageFix" result="effect1_dropShadow_201_30452"/>
<feColorMatrix in="SourceAlpha" type="matrix" values="0 0 0 0 0 0 0 0 0 0 0 0 0 0 0 0 0 0 127 0" result="hardAlpha"/>
<feOffset dx="2" dy="2"/>
<feGaussianBlur stdDeviation="3"/>
<feColorMatrix type="matrix" values="0 0 0 0 0.0745098 0 0 0 0 0.12549 0 0 0 0 0.0823529 0 0 0 0.2 0"/>
<feBlend mode="normal" in2="effect1_dropShadow_201_30452" result="effect2_dropShadow_201_30452"/>
<feColorMatrix in="SourceAlpha" type="matrix" values="0 0 0 0 0 0 0 0 0 0 0 0 0 0 0 0 0 0 127 0" result="hardAlpha"/>
<feOffset dx="8" dy="7"/>
<feGaussianBlur stdDeviation="5"/>
<feColorMatrix type="matrix" values="0 0 0 0 0.0745098 0 0 0 0 0.12549 0 0 0 0 0.0823529 0 0 0 0.17 0"/>
<feBlend mode="normal" in2="effect2_dropShadow_201_30452" result="effect3_dropShadow_201_30452"/>
<feColorMatrix in="SourceAlpha" type="matrix" values="0 0 0 0 0 0 0 0 0 0 0 0 0 0 0 0 0 0 127 0" result="hardAlpha"/>
<feOffset dx="18" dy="15"/>
<feGaussianBlur stdDeviation="7"/>
<feColorMatrix type="matrix" values="0 0 0 0 0.0745098 0 0 0 0 0.12549 0 0 0 0 0.0823529 0 0 0 0.1 0"/>
<feBlend mode="normal" in2="effect3_dropShadow_201_30452" result="effect4_dropShadow_201_30452"/>
<feColorMatrix in="SourceAlpha" type="matrix" values="0 0 0 0 0 0 0 0 0 0 0 0 0 0 0 0 0 0 127 0" result="hardAlpha"/>
<feOffset dx="33" dy="26"/>
<feGaussianBlur stdDeviation="8.5"/>
<feColorMatrix type="matrix" values="0 0 0 0 0.0745098 0 0 0 0 0.12549 0 0 0 0 0.0823529 0 0 0 0.03 0"/>
<feBlend mode="normal" in2="effect4_dropShadow_201_30452" result="effect5_dropShadow_201_30452"/>
<feBlend mode="normal" in="SourceGraphic" in2="effect5_dropShadow_201_30452" result="shape"/>
</filter>
<filter id="filter2_ddddd_201_30452" x="0" y="184" width="114" height="109" filterUnits="userSpaceOnUse" color-interpolation-filters="sRGB">
<feFlood flood-opacity="0" result="BackgroundImageFix"/>
<feColorMatrix in="SourceAlpha" type="matrix" values="0 0 0 0 0 0 0 0 0 0 0 0 0 0 0 0 0 0 127 0" result="hardAlpha"/>
<feOffset/>
<feColorMatrix type="matrix" values="0 0 0 0 0.0745098 0 0 0 0 0.12549 0 0 0 0 0.0823529 0 0 0 0.2 0"/>
<feBlend mode="normal" in2="BackgroundImageFix" result="effect1_dropShadow_201_30452"/>
<feColorMatrix in="SourceAlpha" type="matrix" values="0 0 0 0 0 0 0 0 0 0 0 0 0 0 0 0 0 0 127 0" result="hardAlpha"/>
<feOffset dx="2" dy="2"/>
<feGaussianBlur stdDeviation="3"/>
<feColorMatrix type="matrix" values="0 0 0 0 0.0745098 0 0 0 0 0.12549 0 0 0 0 0.0823529 0 0 0 0.2 0"/>
<feBlend mode="normal" in2="effect1_dropShadow_201_30452" result="effect2_dropShadow_201_30452"/>
<feColorMatrix in="SourceAlpha" type="matrix" values="0 0 0 0 0 0 0 0 0 0 0 0 0 0 0 0 0 0 127 0" result="hardAlpha"/>
<feOffset dx="8" dy="7"/>
<feGaussianBlur stdDeviation="5"/>
<feColorMatrix type="matrix" values="0 0 0 0 0.0745098 0 0 0 0 0.12549 0 0 0 0 0.0823529 0 0 0 0.17 0"/>
<feBlend mode="normal" in2="effect2_dropShadow_201_30452" result="effect3_dropShadow_201_30452"/>
<feColorMatrix in="SourceAlpha" type="matrix" values="0 0 0 0 0 0 0 0 0 0 0 0 0 0 0 0 0 0 127 0" result="hardAlpha"/>
<feOffset dx="18" dy="15"/>
<feGaussianBlur stdDeviation="7"/>
<feColorMatrix type="matrix" values="0 0 0 0 0.0745098 0 0 0 0 0.12549 0 0 0 0 0.0823529 0 0 0 0.1 0"/>
<feBlend mode="normal" in2="effect3_dropShadow_201_30452" result="effect4_dropShadow_201_30452"/>
<feColorMatrix in="SourceAlpha" type="matrix" values="0 0 0 0 0 0 0 0 0 0 0 0 0 0 0 0 0 0 127 0" result="hardAlpha"/>
<feOffset dx="33" dy="26"/>
<feGaussianBlur stdDeviation="8.5"/>
<feColorMatrix type="matrix" values="0 0 0 0 0.0745098 0 0 0 0 0.12549 0 0 0 0 0.0823529 0 0 0 0.03 0"/>
<feBlend mode="normal" in2="effect4_dropShadow_201_30452" result="effect5_dropShadow_201_30452"/>
<feBlend mode="normal" in="SourceGraphic" in2="effect5_dropShadow_201_30452" result="shape"/>
</filter>
</defs>
</svg>
