<svg width="1680" height="38" viewBox="0 0 1680 38" fill="none" xmlns="http://www.w3.org/2000/svg">
<path d="M0 0.413204H2.68815V10.3449C2.68815 11.9878 3.10062 13.3357 3.92556 14.3883C4.75049 15.4312 5.95945 16.2035 7.55243 16.7052C9.15963 17.207 11.1295 17.4579 13.4621 17.4579C14.5999 17.4579 15.752 17.4185 16.9183 17.3398C18.0846 17.2611 19.2509 17.148 20.4172 17.0004C21.5977 16.8528 22.7711 16.6757 23.9374 16.4691C25.1037 16.2527 26.2486 16.0117 27.3722 15.746V17.5169C26.1206 17.7924 24.9045 18.0383 23.724 18.2548C22.5577 18.4614 21.4057 18.6335 20.2678 18.7713C19.1442 18.909 18.0206 19.0123 16.897 19.0812C15.7876 19.15 14.6639 19.1845 13.5261 19.1845C10.6104 19.1746 8.14269 18.8549 6.12302 18.2252C4.11757 17.5858 2.5957 16.6167 1.55742 15.3181C0.519141 14.0096 0 12.3518 0 10.3449V0.413204ZM27.0309 0.413204H29.5697V30.6361H27.0309V0.413204Z" fill="#998267"/>
<path d="M42.2051 30.6361V0.413204H55.6672C58.4407 0.413204 60.8159 0.806731 62.7929 1.59379C64.7841 2.38084 66.3131 3.45812 67.3799 4.82563C68.4466 6.19314 68.9799 7.75249 68.9799 9.50369C68.9799 11.2352 68.4466 12.7847 67.3799 14.1522C66.3131 15.5197 64.7841 16.6019 62.7929 17.3988C60.8159 18.1859 58.4478 18.5794 55.6885 18.5794H44.0825V16.8676H55.6245C57.8718 16.8676 59.7919 16.5528 61.3848 15.9231C62.9778 15.2836 64.201 14.4129 65.0544 13.3111C65.9078 12.1994 66.3345 10.9302 66.3345 9.50369C66.3345 8.06731 65.9078 6.79327 65.0544 5.68155C64.201 4.56984 62.9707 3.69916 61.3635 3.06951C59.7705 2.43987 57.8504 2.12505 55.6032 2.12505H44.8719V30.6361H42.2051Z" fill="#998267"/>
<path d="M79.2259 30.6361V0.413204H103.547V2.12505H81.8927V14.654H102.246V16.3658H81.8927V28.9243H104.059V30.6361H79.2259Z" fill="#998267"/>
<path d="M127.127 31.0493C124.539 31.0493 122.227 30.7099 120.194 30.0311C118.16 29.3424 116.545 28.4028 115.351 27.2124C114.17 26.0122 113.558 24.6348 113.516 23.0804H116.225C116.268 24.3102 116.773 25.3973 117.74 26.3417C118.707 27.2764 120.002 28.0093 121.623 28.5406C123.259 29.0718 125.079 29.3375 127.085 29.3375C129.261 29.3375 131.167 29.0423 132.802 28.452C134.452 27.8617 135.739 27.0649 136.664 26.0614C137.588 25.048 138.051 23.9166 138.051 22.6672C138.051 21.3292 137.546 20.1584 136.536 19.155C135.526 18.1416 134.118 17.3546 132.312 16.7938C130.505 16.2232 128.407 15.9379 126.018 15.9379H124.396V14.226H126.018C128.052 14.226 129.872 13.9702 131.48 13.4586C133.087 12.9372 134.353 12.2043 135.277 11.2598C136.216 10.3153 136.685 9.19871 136.685 7.9099C136.685 6.69981 136.28 5.62744 135.469 4.69281C134.658 3.75819 133.535 3.02524 132.098 2.49398C130.676 1.96272 129.005 1.69709 127.085 1.69709C125.236 1.69709 123.557 1.9578 122.05 2.47922C120.556 3.00065 119.369 3.73359 118.487 4.67806C117.605 5.62252 117.157 6.71948 117.143 7.96893H114.519C114.547 6.40466 115.116 5.02239 116.225 3.82214C117.349 2.62188 118.849 1.68725 120.727 1.01825C122.619 0.339418 124.752 0 127.127 0C129.545 0 131.664 0.349256 133.485 1.04777C135.32 1.74628 136.742 2.69074 137.752 3.88116C138.776 5.07158 139.288 6.39482 139.288 7.85087C139.288 9.60207 138.584 11.1024 137.176 12.3518C135.782 13.5915 133.89 14.4523 131.501 14.9344V15.0967C134.331 15.5296 136.571 16.4199 138.221 17.7678C139.871 19.1156 140.696 20.7487 140.696 22.6672C140.696 24.2413 140.113 25.6629 138.947 26.932C137.78 28.2012 136.173 29.2047 134.125 29.9425C132.091 30.6804 129.759 31.0493 127.127 31.0493Z" fill="#998267"/>
<path d="M151.918 0.413204H154.82L171.652 27.9798H171.951L188.784 0.413204H191.686V30.6361H189.125V4.79612H188.869L173.061 30.6361H170.543L154.734 4.79612H154.478V30.6361H151.918V0.413204Z" fill="#998267"/>
<path d="M204.31 30.6361V0.413204H228.632V2.12505H206.977V14.654H227.33V16.3658H206.977V28.9243H229.144V30.6361H204.31Z" fill="#998267"/>
<path d="M239.688 30.6361V0.413204H253.15C255.924 0.413204 258.299 0.806731 260.276 1.59379C262.267 2.38084 263.796 3.45812 264.863 4.82563C265.93 6.19314 266.463 7.75249 266.463 9.50369C266.463 11.2352 265.93 12.7847 264.863 14.1522C263.796 15.5197 262.267 16.6019 260.276 17.3988C258.299 18.1859 255.931 18.5794 253.172 18.5794H241.566V16.8676H253.108C255.355 16.8676 257.275 16.5528 258.868 15.9231C260.461 15.2836 261.684 14.4129 262.538 13.3111C263.391 12.1994 263.818 10.9302 263.818 9.50369C263.818 8.06731 263.391 6.79327 262.538 5.68155C261.684 4.56984 260.454 3.69916 258.847 3.06951C257.254 2.43987 255.334 2.12505 253.086 2.12505H242.355V30.6361H239.688Z" fill="#998267"/>
<path d="M276.709 30.6361V0.413204H279.376V14.654H305.703V0.413204H308.37V30.6361H305.703V16.3658H279.376V30.6361H276.709Z" fill="#998267"/>
<path d="M355.759 15.5247C355.759 18.6434 354.977 21.3685 353.412 23.7002C351.848 26.022 349.672 27.8273 346.884 29.1161C344.11 30.4049 340.91 31.0493 337.283 31.0493C333.642 31.0493 330.428 30.4049 327.64 29.1161C324.867 27.8175 322.698 26.0072 321.133 23.6854C319.568 21.3538 318.786 18.6335 318.786 15.5247C318.786 12.406 319.568 9.68569 321.133 7.36388C322.712 5.04207 324.888 3.23676 327.661 1.94796C330.435 0.64932 333.642 0 337.283 0C340.91 0 344.11 0.644401 346.884 1.9332C349.672 3.22201 351.848 5.03223 353.412 7.36388C354.977 9.68569 355.759 12.406 355.759 15.5247ZM353.156 15.5247C353.156 12.7208 352.473 10.2907 351.108 8.23456C349.757 6.17838 347.887 4.58951 345.497 3.46796C343.108 2.33657 340.37 1.77087 337.283 1.77087C334.197 1.77087 331.459 2.33165 329.069 3.4532C326.68 4.56492 324.803 6.15379 323.437 8.21981C322.086 10.276 321.41 12.7109 321.41 15.5247C321.41 18.3089 322.079 20.734 323.416 22.8C324.767 24.8562 326.637 26.45 329.027 27.5814C331.416 28.7127 334.168 29.2784 337.283 29.2784C340.37 29.2784 343.108 28.7177 345.497 27.5961C347.887 26.4647 349.757 24.8709 351.108 22.8148C352.473 20.7586 353.156 18.3285 353.156 15.5247Z" fill="#998267"/>
<path d="M366.181 30.6361V0.413204H390.502V2.12505H368.848V14.654H389.201V16.3658H368.848V28.9243H391.014V30.6361H366.181Z" fill="#998267"/>
<path d="M419.16 31.0493V29.2932H420.824C422.204 29.2932 423.349 29.1702 424.259 28.9243C425.183 28.6783 425.951 28.2946 426.563 27.7732C427.175 27.2419 427.722 26.5631 428.206 25.7367L428.974 24.4381L414.018 0.413204H416.899L430.339 22.1359L442.884 0.413204H445.7L430.659 26.327C430.033 27.3797 429.329 28.2553 428.547 28.9538C427.765 29.6523 426.769 30.1786 425.56 30.5328C424.366 30.8772 422.822 31.0493 420.931 31.0493H419.16Z" fill="#998267"/>
<path d="M483.569 0.413204V30.6361H480.881V2.12505H455.855V30.6361H453.189V0.413204H483.569Z" fill="#998267"/>
<path d="M530.244 15.5247C530.244 18.6434 529.461 21.3685 527.897 23.7002C526.332 26.022 524.156 27.8273 521.368 29.1161C518.595 30.4049 515.395 31.0493 511.768 31.0493C508.127 31.0493 504.912 30.4049 502.125 29.1161C499.351 27.8175 497.182 26.0072 495.618 23.6854C494.053 21.3538 493.271 18.6335 493.271 15.5247C493.271 12.406 494.053 9.68569 495.618 7.36388C497.196 5.04207 499.373 3.23676 502.146 1.94796C504.92 0.64932 508.127 0 511.768 0C515.395 0 518.595 0.644401 521.368 1.9332C524.156 3.22201 526.332 5.03223 527.897 7.36388C529.461 9.68569 530.244 12.406 530.244 15.5247ZM527.641 15.5247C527.641 12.7208 526.958 10.2907 525.593 8.23456C524.242 6.17838 522.371 4.58951 519.982 3.46796C517.592 2.33657 514.854 1.77087 511.768 1.77087C508.682 1.77087 505.944 2.33165 503.554 3.4532C501.165 4.56492 499.287 6.15379 497.922 8.21981C496.571 10.276 495.895 12.7109 495.895 15.5247C495.895 18.3089 496.563 20.734 497.9 22.8C499.252 24.8562 501.122 26.45 503.511 27.5814C505.901 28.7127 508.653 29.2784 511.768 29.2784C514.854 29.2784 517.592 28.7177 519.982 27.5961C522.371 26.4647 524.242 24.8709 525.593 22.8148C526.958 20.7586 527.641 18.3285 527.641 15.5247Z" fill="#998267"/>
<path d="M535.945 2.12505V0.413204H566.56V2.12505H552.586V30.6361H549.919V2.12505H535.945Z" fill="#998267"/>
<path d="M576.278 30.6361V0.413204H589.74C592.514 0.413204 594.889 0.806731 596.866 1.59379C598.857 2.38084 600.386 3.45812 601.453 4.82563C602.52 6.19314 603.053 7.75249 603.053 9.50369C603.053 11.2352 602.52 12.7847 601.453 14.1522C600.386 15.5197 598.857 16.6019 596.866 17.3988C594.889 18.1859 592.521 18.5794 589.762 18.5794H578.156V16.8676H589.698C591.945 16.8676 593.865 16.5528 595.458 15.9231C597.051 15.2836 598.274 14.4129 599.128 13.3111C599.981 12.1994 600.408 10.9302 600.408 9.50369C600.408 8.06731 599.981 6.79327 599.128 5.68155C598.274 4.56984 597.044 3.69916 595.437 3.06951C593.844 2.43987 591.924 2.12505 589.676 2.12505H578.945V30.6361H576.278Z" fill="#998267"/>
<path d="M613.299 30.6361V0.413204H637.62V2.12505H615.966V14.654H636.319V16.3658H615.966V28.9243H638.132V30.6361H613.299Z" fill="#998267"/>
<path d="M648.677 30.6361V0.413204H673.276V2.12505H651.344V14.285H665.062C667.75 14.285 670.061 14.6146 671.996 15.2738C673.944 15.9231 675.438 16.8381 676.476 18.0186C677.514 19.1992 678.033 20.5913 678.033 22.1949C678.033 23.897 677.514 25.3825 676.476 26.6516C675.452 27.9109 673.973 28.8898 672.038 29.5883C670.104 30.2869 667.779 30.6361 665.062 30.6361H648.677ZM651.344 28.939H665.062C667.238 28.939 669.094 28.6537 670.63 28.0831C672.181 27.5125 673.361 26.7156 674.172 25.6924C674.983 24.6693 675.388 23.4838 675.388 22.1359C675.388 20.3355 674.463 18.8647 672.614 17.7235C670.765 16.5724 668.248 15.9969 665.062 15.9969H651.344V28.939Z" fill="#998267"/>
<path d="M684.071 30.6361V28.88H685.138C686.93 28.88 688.366 28.452 689.447 27.5961C690.543 26.7402 691.36 25.3776 691.901 23.5083C692.456 21.6391 692.804 19.1795 692.946 16.1297L693.757 0.413204H718.377V30.6361H715.71V2.12505H696.317L695.57 16.6462C695.414 19.8633 694.98 22.5049 694.269 24.5709C693.572 26.6369 692.477 28.1667 690.983 29.1604C689.49 30.1442 687.463 30.6361 684.903 30.6361H684.071Z" fill="#998267"/>
<path d="M730.991 30.6361V0.413204H755.312V2.12505H733.658V14.654H754.011V16.3658H733.658V28.9243H755.825V30.6361H730.991Z" fill="#998267"/>
<path d="M766.369 30.6361V0.413204H769.036V14.654H795.363V0.413204H798.03V30.6361H795.363V16.3658H769.036V30.6361H766.369Z" fill="#998267"/>
<path d="M810.665 0.413204H813.31V27.3157H813.566L841.451 0.413204H844.054V30.6361H841.387V3.76311H841.131L813.289 30.6361H810.665V0.413204Z" fill="#998267"/>
<path d="M856.662 30.6361V0.413204H880.984V2.12505H859.329V14.654H879.682V16.3658H859.329V28.9243H881.496V30.6361H856.662Z" fill="#998267"/>
<path d="M938.614 0.413204V30.6361H935.925V2.12505H910.9V30.6361H908.233V0.413204H938.614Z" fill="#998267"/>
<path d="M950.534 0.413204H953.18V27.3157H953.436L981.32 0.413204H983.923V30.6361H981.256V3.76311H981L953.158 30.6361H950.534V0.413204Z" fill="#998267"/>
<path d="M996.532 30.6361V0.413204H1010.72C1013.36 0.413204 1015.6 0.737864 1017.42 1.38718C1019.24 2.0365 1020.62 2.94654 1021.56 4.11728C1022.51 5.28803 1022.99 6.65062 1022.99 8.20505C1022.99 9.42498 1022.7 10.5072 1022.13 11.4516C1021.56 12.3961 1020.77 13.1783 1019.74 13.7981C1018.73 14.408 1017.55 14.8311 1016.18 15.0672V15.2443C1017.69 15.323 1019.09 15.687 1020.38 16.3363C1021.68 16.9758 1022.72 17.8465 1023.5 18.9483C1024.29 20.0502 1024.69 21.3341 1024.69 22.8C1024.69 24.3446 1024.21 25.7072 1023.24 26.8878C1022.29 28.0585 1020.86 28.9784 1018.95 29.6474C1017.05 30.3065 1014.69 30.6361 1011.87 30.6361H996.532ZM999.198 28.9243H1011.87C1015.16 28.9243 1017.68 28.3537 1019.44 27.2124C1021.22 26.0712 1022.11 24.6004 1022.11 22.8C1022.11 21.5309 1021.68 20.3946 1020.81 19.3911C1019.96 18.3876 1018.77 17.5956 1017.25 17.0151C1015.73 16.4249 1013.96 16.1297 1011.96 16.1297H999.198V28.9243ZM999.198 14.4474H1011.64C1013.5 14.4474 1015.08 14.167 1016.37 13.6062C1017.68 13.0454 1018.68 12.2928 1019.36 11.3483C1020.06 10.4039 1020.4 9.35612 1020.4 8.20505C1020.4 6.33579 1019.57 4.85515 1017.89 3.76311C1016.21 2.67107 1013.82 2.12505 1010.72 2.12505H999.198V14.4474Z" fill="#998267"/>
<path d="M1033.51 30.6361H1030.69L1046.46 0.413204H1049.53L1065.3 30.6361H1062.48L1048.1 2.78913H1047.89L1033.51 30.6361ZM1037.5 19.2583H1058.49V20.9701H1037.5V19.2583Z" fill="#998267"/>
<path d="M1090.34 30.6361V0.413204H1104.53C1107.18 0.413204 1109.41 0.737864 1111.23 1.38718C1113.05 2.0365 1114.43 2.94654 1115.37 4.11728C1116.32 5.28803 1116.8 6.65062 1116.8 8.20505C1116.8 9.42498 1116.52 10.5072 1115.95 11.4516C1115.38 12.3961 1114.58 13.1783 1113.56 13.7981C1112.55 14.408 1111.36 14.8311 1109.99 15.0672V15.2443C1111.5 15.323 1112.9 15.687 1114.2 16.3363C1115.49 16.9758 1116.53 17.8465 1117.31 18.9483C1118.11 20.0502 1118.51 21.3341 1118.51 22.8C1118.51 24.3446 1118.02 25.7072 1117.06 26.8878C1116.1 28.0585 1114.67 28.9784 1112.77 29.6474C1110.86 30.3065 1108.5 30.6361 1105.68 30.6361H1090.34ZM1093.01 28.9243H1105.68C1108.97 28.9243 1111.49 28.3537 1113.26 27.2124C1115.04 26.0712 1115.93 24.6004 1115.93 22.8C1115.93 21.5309 1115.49 20.3946 1114.62 19.3911C1113.77 18.3876 1112.58 17.5956 1111.06 17.0151C1109.54 16.4249 1107.78 16.1297 1105.77 16.1297H1093.01V28.9243ZM1093.01 14.4474H1105.45C1107.31 14.4474 1108.89 14.167 1110.19 13.6062C1111.49 13.0454 1112.49 12.2928 1113.17 11.3483C1113.87 10.4039 1114.22 9.35612 1114.22 8.20505C1114.22 6.33579 1113.38 4.85515 1111.7 3.76311C1110.02 2.67107 1107.63 2.12505 1104.53 2.12505H1093.01V14.4474Z" fill="#998267"/>
<path d="M1129.01 30.6361V0.413204H1142.47C1145.24 0.413204 1147.62 0.806731 1149.6 1.59379C1151.59 2.38084 1153.12 3.45812 1154.18 4.82563C1155.25 6.19314 1155.78 7.75249 1155.78 9.50369C1155.78 11.2352 1155.25 12.7847 1154.18 14.1522C1153.12 15.5197 1151.59 16.6019 1149.6 17.3988C1147.62 18.1859 1145.25 18.5794 1142.49 18.5794H1130.89V16.8676H1142.43C1144.68 16.8676 1146.6 16.5528 1148.19 15.9231C1149.78 15.2836 1151 14.4129 1151.86 13.3111C1152.71 12.1994 1153.14 10.9302 1153.14 9.50369C1153.14 8.06731 1152.71 6.79327 1151.86 5.68155C1151 4.56984 1149.77 3.69916 1148.17 3.06951C1146.57 2.43987 1144.65 2.12505 1142.41 2.12505H1131.68V30.6361H1129.01Z" fill="#998267"/>
<path d="M1166.03 30.6361V0.413204H1190.35V2.12505H1168.7V14.654H1189.05V16.3658H1168.7V28.9243H1190.86V30.6361H1166.03Z" fill="#998267"/>
<path d="M1196.91 38V28.9243H1199.64C1200.7 28.0683 1201.66 27.0107 1202.5 25.7515C1203.33 24.4823 1204.02 22.8885 1204.56 20.9701C1205.12 19.0516 1205.48 16.7003 1205.65 13.9161L1206.44 0.413204H1230.49V28.9243H1235.69V37.8967H1233.09V30.6361H1199.51V38H1196.91ZM1202.88 28.9243H1227.88V2.12505H1208.92L1208.23 13.9161C1208.09 16.3166 1207.81 18.4368 1207.38 20.2765C1206.95 22.1064 1206.36 23.7248 1205.61 25.1316C1204.87 26.5287 1203.96 27.7929 1202.88 28.9243Z" fill="#998267"/>
<path d="M1244.82 0.413204H1247.47V27.3157H1247.72L1275.61 0.413204H1278.21V30.6361H1275.54V3.76311H1275.29L1247.45 30.6361H1244.82V0.413204Z" fill="#998267"/>
<path d="M1287.92 2.12505V0.413204H1318.53V2.12505H1304.56V30.6361H1301.89V2.12505H1287.92Z" fill="#998267"/>
<path d="M1357.67 31.0493C1355.08 31.0493 1352.77 30.7099 1350.74 30.0311C1348.7 29.3424 1347.09 28.4028 1345.9 27.2124C1344.72 26.0122 1344.1 24.6348 1344.06 23.0804H1346.77C1346.81 24.3102 1347.32 25.3973 1348.29 26.3417C1349.25 27.2764 1350.55 28.0093 1352.17 28.5406C1353.8 29.0718 1355.62 29.3375 1357.63 29.3375C1359.81 29.3375 1361.71 29.0423 1363.35 28.452C1365 27.8617 1366.28 27.0649 1367.21 26.0614C1368.13 25.048 1368.6 23.9166 1368.6 22.6672C1368.6 21.3292 1368.09 20.1584 1367.08 19.155C1366.07 18.1416 1364.66 17.3546 1362.86 16.7938C1361.05 16.2232 1358.95 15.9379 1356.56 15.9379H1354.94V14.226H1356.56C1358.6 14.226 1360.42 13.9702 1362.02 13.4586C1363.63 12.9372 1364.9 12.2043 1365.82 11.2598C1366.76 10.3153 1367.23 9.19871 1367.23 7.9099C1367.23 6.69981 1366.82 5.62744 1366.01 4.69281C1365.2 3.75819 1364.08 3.02524 1362.64 2.49398C1361.22 1.96272 1359.55 1.69709 1357.63 1.69709C1355.78 1.69709 1354.1 1.9578 1352.59 2.47922C1351.1 3.00065 1349.91 3.73359 1349.03 4.67806C1348.15 5.62252 1347.7 6.71948 1347.69 7.96893H1345.06C1345.09 6.40466 1345.66 5.02239 1346.77 3.82214C1347.89 2.62188 1349.39 1.68725 1351.27 1.01825C1353.16 0.339418 1355.3 0 1357.67 0C1360.09 0 1362.21 0.349256 1364.03 1.04777C1365.86 1.74628 1367.29 2.69074 1368.3 3.88116C1369.32 5.07158 1369.83 6.39482 1369.83 7.85087C1369.83 9.60207 1369.13 11.1024 1367.72 12.3518C1366.33 13.5915 1364.44 14.4523 1362.05 14.9344V15.0967C1364.88 15.5296 1367.12 16.4199 1368.77 17.7678C1370.42 19.1156 1371.24 20.7487 1371.24 22.6672C1371.24 24.2413 1370.66 25.6629 1369.49 26.932C1368.33 28.2012 1366.72 29.2047 1364.67 29.9425C1362.64 30.6804 1360.3 31.0493 1357.67 31.0493Z" fill="#998267"/>
<path d="M1377.96 38V28.9243H1380.69C1381.76 28.0683 1382.71 27.0107 1383.55 25.7515C1384.39 24.4823 1385.08 22.8885 1385.62 20.9701C1386.18 19.0516 1386.54 16.7003 1386.71 13.9161L1387.5 0.413204H1411.54V28.9243H1416.75V37.8967H1414.14V30.6361H1380.56V38H1377.96ZM1383.94 28.9243H1408.94V2.12505H1389.97L1389.29 13.9161C1389.15 16.3166 1388.86 18.4368 1388.44 20.2765C1388.01 22.1064 1387.42 23.7248 1386.67 25.1316C1385.93 26.5287 1385.02 27.7929 1383.94 28.9243Z" fill="#998267"/>
<path d="M1460.63 15.5247C1460.63 18.6434 1459.85 21.3685 1458.29 23.7002C1456.72 26.022 1454.55 27.8273 1451.76 29.1161C1448.98 30.4049 1445.78 31.0493 1442.16 31.0493C1438.52 31.0493 1435.3 30.4049 1432.51 29.1161C1429.74 27.8175 1427.57 26.0072 1426.01 23.6854C1424.44 21.3538 1423.66 18.6335 1423.66 15.5247C1423.66 12.406 1424.44 9.68569 1426.01 7.36388C1427.59 5.04207 1429.76 3.23676 1432.54 1.94796C1435.31 0.64932 1438.52 0 1442.16 0C1445.78 0 1448.98 0.644401 1451.76 1.9332C1454.55 3.22201 1456.72 5.03223 1458.29 7.36388C1459.85 9.68569 1460.63 12.406 1460.63 15.5247ZM1458.03 15.5247C1458.03 12.7208 1457.35 10.2907 1455.98 8.23456C1454.63 6.17838 1452.76 4.58951 1450.37 3.46796C1447.98 2.33657 1445.24 1.77087 1442.16 1.77087C1439.07 1.77087 1436.33 2.33165 1433.94 3.4532C1431.55 4.56492 1429.68 6.15379 1428.31 8.21981C1426.96 10.276 1426.28 12.7109 1426.28 15.5247C1426.28 18.3089 1426.95 20.734 1428.29 22.8C1429.64 24.8562 1431.51 26.45 1433.9 27.5814C1436.29 28.7127 1439.04 29.2784 1442.16 29.2784C1445.24 29.2784 1447.98 28.7177 1450.37 27.5961C1452.76 26.4647 1454.63 24.8709 1455.98 22.8148C1457.35 20.7586 1458.03 18.3285 1458.03 15.5247Z" fill="#998267"/>
<path d="M1471.05 30.6361V0.413204H1484.52C1487.29 0.413204 1489.67 0.806731 1491.64 1.59379C1493.63 2.38084 1495.16 3.45812 1496.23 4.82563C1497.3 6.19314 1497.83 7.75249 1497.83 9.50369C1497.83 11.2352 1497.3 12.7847 1496.23 14.1522C1495.16 15.5197 1493.63 16.6019 1491.64 17.3988C1489.67 18.1859 1487.3 18.5794 1484.54 18.5794H1472.93V16.8676H1484.47C1486.72 16.8676 1488.64 16.5528 1490.23 15.9231C1491.83 15.2836 1493.05 14.4129 1493.9 13.3111C1494.76 12.1994 1495.18 10.9302 1495.18 9.50369C1495.18 8.06731 1494.76 6.79327 1493.9 5.68155C1493.05 4.56984 1491.82 3.69916 1490.21 3.06951C1488.62 2.43987 1486.7 2.12505 1484.45 2.12505H1473.72V30.6361H1471.05Z" fill="#998267"/>
<path d="M1542.83 15.5247C1542.83 18.6434 1542.05 21.3685 1540.48 23.7002C1538.92 26.022 1536.74 27.8273 1533.95 29.1161C1531.18 30.4049 1527.98 31.0493 1524.35 31.0493C1520.71 31.0493 1517.5 30.4049 1514.71 29.1161C1511.94 27.8175 1509.77 26.0072 1508.2 23.6854C1506.64 21.3538 1505.86 18.6335 1505.86 15.5247C1505.86 12.406 1506.64 9.68569 1508.2 7.36388C1509.78 5.04207 1511.96 3.23676 1514.73 1.94796C1517.51 0.64932 1520.71 0 1524.35 0C1527.98 0 1531.18 0.644401 1533.95 1.9332C1536.74 3.22201 1538.92 5.03223 1540.48 7.36388C1542.05 9.68569 1542.83 12.406 1542.83 15.5247ZM1540.23 15.5247C1540.23 12.7208 1539.54 10.2907 1538.18 8.23456C1536.83 6.17838 1534.96 4.58951 1532.57 3.46796C1530.18 2.33657 1527.44 1.77087 1524.35 1.77087C1521.27 1.77087 1518.53 2.33165 1516.14 3.4532C1513.75 4.56492 1511.87 6.15379 1510.51 8.21981C1509.16 10.276 1508.48 12.7109 1508.48 15.5247C1508.48 18.3089 1509.15 20.734 1510.49 22.8C1511.84 24.8562 1513.71 26.45 1516.1 27.5814C1518.49 28.7127 1521.24 29.2784 1524.35 29.2784C1527.44 29.2784 1530.18 28.7177 1532.57 27.5961C1534.96 26.4647 1536.83 24.8709 1538.18 22.8148C1539.54 20.7586 1540.23 18.3285 1540.23 15.5247Z" fill="#998267"/>
<path d="M1553.25 30.6361V0.413204H1567.44C1570.08 0.413204 1572.32 0.737864 1574.14 1.38718C1575.96 2.0365 1577.34 2.94654 1578.28 4.11728C1579.23 5.28803 1579.71 6.65062 1579.71 8.20505C1579.71 9.42498 1579.42 10.5072 1578.85 11.4516C1578.28 12.3961 1577.49 13.1783 1576.46 13.7981C1575.45 14.408 1574.27 14.8311 1572.9 15.0672V15.2443C1574.41 15.323 1575.81 15.687 1577.1 16.3363C1578.4 16.9758 1579.44 17.8465 1580.22 18.9483C1581.01 20.0502 1581.41 21.3341 1581.41 22.8C1581.41 24.3446 1580.93 25.7072 1579.96 26.8878C1579.01 28.0585 1577.58 28.9784 1575.67 29.6474C1573.77 30.3065 1571.41 30.6361 1568.59 30.6361H1553.25ZM1555.92 28.9243H1568.59C1571.88 28.9243 1574.4 28.3537 1576.16 27.2124C1577.94 26.0712 1578.83 24.6004 1578.83 22.8C1578.83 21.5309 1578.4 20.3946 1577.53 19.3911C1576.68 18.3876 1575.49 17.5956 1573.97 17.0151C1572.45 16.4249 1570.68 16.1297 1568.68 16.1297H1555.92V28.9243ZM1555.92 14.4474H1568.36C1570.22 14.4474 1571.8 14.167 1573.09 13.6062C1574.4 13.0454 1575.4 12.2928 1576.08 11.3483C1576.78 10.4039 1577.12 9.35612 1577.12 8.20505C1577.12 6.33579 1576.29 4.85515 1574.61 3.76311C1572.93 2.67107 1570.54 2.12505 1567.44 2.12505H1555.92V14.4474Z" fill="#998267"/>
<path d="M1593.73 14.285H1608.3C1610.99 14.285 1613.3 14.6097 1615.23 15.259C1617.18 15.9083 1618.68 16.8282 1619.71 18.0186C1620.75 19.1992 1621.27 20.5913 1621.27 22.1949C1621.27 23.897 1620.75 25.3825 1619.71 26.6516C1618.69 27.9208 1617.21 28.9046 1615.28 29.6031C1613.34 30.2918 1611.02 30.6361 1608.3 30.6361H1591.92V0.413204H1594.58V28.939H1608.3C1610.48 28.939 1612.33 28.6537 1613.87 28.0831C1615.42 27.5125 1616.6 26.7156 1617.41 25.6924C1618.22 24.6693 1618.63 23.4838 1618.63 22.1359C1618.64 20.3355 1617.72 18.8647 1615.85 17.7235C1614 16.5724 1611.49 15.9969 1608.3 15.9969H1593.73V14.285Z" fill="#998267"/>
<path d="M1633.83 0.427962V30.6509H1631.17V0.427962H1633.83ZM1644.09 15.1262V16.8381H1632.04V15.1262H1644.09ZM1680 15.5247C1680 18.6434 1679.22 21.3685 1677.65 23.7002C1676.09 26.022 1673.91 27.8273 1671.12 29.1161C1668.35 30.4049 1665.15 31.0493 1661.52 31.0493C1657.88 31.0493 1654.67 30.4049 1651.88 29.1161C1649.11 27.8175 1646.94 26.0072 1645.37 23.6854C1643.81 21.3538 1643.03 18.6335 1643.03 15.5247C1643.03 12.406 1643.81 9.68569 1645.37 7.36388C1646.95 5.04207 1649.13 3.23676 1651.9 1.94796C1654.68 0.64932 1657.88 0 1661.52 0C1665.15 0 1668.35 0.644401 1671.12 1.9332C1673.91 3.22201 1676.09 5.03223 1677.65 7.36388C1679.22 9.68569 1680 12.406 1680 15.5247ZM1677.4 15.5247C1677.4 12.7208 1676.71 10.2907 1675.35 8.23456C1674 6.17838 1672.13 4.58951 1669.74 3.46796C1667.35 2.33657 1664.61 1.77087 1661.52 1.77087C1658.44 1.77087 1655.7 2.33165 1653.31 3.4532C1650.92 4.56492 1649.04 6.15379 1647.68 8.21981C1646.33 10.276 1645.65 12.7109 1645.65 15.5247C1645.65 18.3089 1646.32 20.734 1647.66 22.8C1649.01 24.8562 1650.88 26.45 1653.27 27.5814C1655.66 28.7127 1658.41 29.2784 1661.52 29.2784C1664.61 29.2784 1667.35 28.7177 1669.74 27.5961C1672.13 26.4647 1674 24.8709 1675.35 22.8148C1676.71 20.7586 1677.4 18.3285 1677.4 15.5247Z" fill="#998267"/>
</svg>
