<svg width="324" height="43" viewBox="0 0 324 43" fill="none" xmlns="http://www.w3.org/2000/svg">
<path d="M0 0.200174H1.0468V5.05438C1.0468 5.81218 1.14998 6.42224 1.35634 6.88454C1.56645 7.34208 1.86849 7.67332 2.26245 7.87826C2.65641 8.0832 3.13103 8.18567 3.68633 8.18567C3.99024 8.18567 4.29227 8.16899 4.59243 8.13563C4.89259 8.10227 5.189 8.05461 5.48165 7.99265C5.77806 7.92592 6.07071 7.84728 6.35962 7.75673C6.64852 7.66617 6.9318 7.56132 7.20944 7.44217V8.67181C6.91679 8.79096 6.63164 8.89581 6.35399 8.98637C6.07634 9.07692 5.79682 9.15556 5.51542 9.22229C5.23777 9.28424 4.94887 9.33191 4.64871 9.36527C4.34855 9.39386 4.02963 9.40816 3.69196 9.40816C2.91154 9.40816 2.24556 9.25803 1.69402 8.95777C1.14248 8.65751 0.722257 8.18806 0.433354 7.54941C0.144451 6.90599 0 6.07432 0 5.05438V0.200174ZM7.07437 0.200174H8.10429V14.8414H7.07437V0.200174Z" fill="#607367"/>
<path d="M11.1645 14.8414V0.200174H14.8846C15.7025 0.200174 16.3854 0.400348 16.9332 0.800695C17.4847 1.19628 17.8993 1.73484 18.177 2.41638C18.4584 3.09793 18.5991 3.86526 18.5991 4.71838C18.5991 5.5715 18.4602 6.34122 18.1826 7.02752C17.9049 7.70907 17.4922 8.25001 16.9444 8.65036C16.3967 9.04594 15.7157 9.24373 14.9015 9.24373H11.9749V8.04269H14.8733C15.4774 8.04269 15.9783 7.89971 16.376 7.61375C16.7737 7.32302 17.0701 6.92744 17.2652 6.427C17.4641 5.92657 17.5635 5.35703 17.5635 4.71838C17.5635 4.07973 17.4641 3.51019 17.2652 3.00975C17.0701 2.50932 16.7719 2.11612 16.3704 1.83016C15.9727 1.5442 15.468 1.40122 14.8565 1.40122H12.2169V14.8414H11.1645Z" fill="#607367"/>
<path d="M21.0697 14.8414V0.200174H27.7558V1.40122H22.1222V6.91314H27.4012V8.11418H22.1222V13.6404H27.8684V14.8414H21.0697Z" fill="#607367"/>
<path d="M33.9747 15.0416C33.2656 15.0416 32.6315 14.8796 32.0725 14.5555C31.5134 14.2266 31.0707 13.7715 30.7442 13.19C30.4178 12.6086 30.2452 11.9389 30.2265 11.1811H31.2902C31.3089 11.7149 31.4384 12.182 31.6785 12.5823C31.9186 12.9779 32.2375 13.2877 32.6353 13.5117C33.033 13.731 33.4757 13.8406 33.9635 13.8406C34.4962 13.8406 34.9652 13.7143 35.3704 13.4617C35.7794 13.2091 36.0983 12.8635 36.3272 12.4251C36.5598 11.9818 36.6761 11.4814 36.6761 10.9238C36.6761 10.3328 36.558 9.81089 36.3216 9.35812C36.0852 8.90534 35.7456 8.55266 35.3029 8.30006C34.8639 8.04746 34.3387 7.92116 33.7271 7.92116H33.0517V6.72012H33.7271C34.2261 6.72012 34.667 6.60573 35.0497 6.37696C35.4361 6.14342 35.74 5.81695 35.9614 5.39754C36.1828 4.97813 36.2934 4.48484 36.2934 3.91768C36.2934 3.37912 36.1978 2.9049 36.0064 2.49502C35.8151 2.08514 35.5449 1.76343 35.196 1.5299C34.8508 1.29636 34.4475 1.17959 33.986 1.17959C33.5395 1.17959 33.1305 1.28921 32.7591 1.50845C32.3876 1.72769 32.0875 2.03748 31.8586 2.43783C31.6335 2.83818 31.5134 3.3124 31.4984 3.86049H30.4797C30.4947 3.09793 30.6598 2.4283 30.975 1.85161C31.2939 1.27015 31.716 0.817376 32.2413 0.493286C32.7703 0.164429 33.3556 0 33.9972 0C34.6763 0 35.2635 0.176344 35.7588 0.529031C36.254 0.881717 36.6367 1.35117 36.9069 1.9374C37.1808 2.51885 37.3177 3.15988 37.3177 3.86049C37.3177 4.69455 37.1395 5.40945 36.7831 6.00521C36.4266 6.5962 35.9464 7.00608 35.3423 7.23485V7.32779C36.0777 7.51366 36.6555 7.92831 37.0757 8.57172C37.4997 9.21037 37.7117 9.99438 37.7117 10.9238C37.7117 11.7054 37.5504 12.4084 37.2277 13.0327C36.905 13.6523 36.4623 14.1432 35.8995 14.5054C35.3404 14.8629 34.6988 15.0416 33.9747 15.0416Z" fill="#607367"/>
<path d="M40.4469 0.200174H41.6625L45.8441 12.9541H45.9454L50.127 0.200174H51.3427V14.8414H50.3521V3.02405H50.2621L46.3731 14.8414H45.4164L41.5275 3.02405H41.4374V14.8414H40.4469V0.200174Z" fill="#607367"/>
<path d="M54.4071 14.8414V0.200174H61.0931V1.40122H55.4595V6.91314H60.7386V8.11418H55.4595V13.6404H61.2057V14.8414H54.4071Z" fill="#607367"/>
<path d="M63.8171 14.8414V0.200174H67.5372C68.3551 0.200174 69.038 0.400348 69.5857 0.800695C70.1373 1.19628 70.5519 1.73484 70.8295 2.41638C71.1109 3.09793 71.2516 3.86526 71.2516 4.71838C71.2516 5.5715 71.1128 6.34122 70.8352 7.02752C70.5575 7.70907 70.1448 8.25001 69.597 8.65036C69.0492 9.04594 68.3682 9.24373 67.5541 9.24373H64.6275V8.04269H67.5259C68.13 8.04269 68.6309 7.89971 69.0286 7.61375C69.4263 7.32302 69.7227 6.92744 69.9178 6.427C70.1167 5.92657 70.2161 5.35703 70.2161 4.71838C70.2161 4.07973 70.1167 3.51019 69.9178 3.00975C69.7227 2.50932 69.4244 2.11612 69.023 1.83016C68.6252 1.5442 68.1206 1.40122 67.509 1.40122H64.8695V14.8414H63.8171Z" fill="#607367"/>
<path d="M73.7223 14.8414V0.200174H74.7747V6.91314H81.3145V0.200174H82.3669V14.8414H81.3145V8.11418H74.7747V14.8414H73.7223Z" fill="#607367"/>
<path d="M94.8723 7.52081C94.8723 9.04594 94.6584 10.3733 94.2307 11.5028C93.8029 12.6276 93.2139 13.4998 92.4635 14.1194C91.7168 14.7342 90.8576 15.0416 89.8859 15.0416C88.9141 15.0416 88.053 14.7342 87.3026 14.1194C86.556 13.4998 85.9688 12.6276 85.5411 11.5028C85.1171 10.3733 84.9051 9.04594 84.9051 7.52081C84.9051 5.99568 85.1171 4.67072 85.5411 3.54593C85.9688 2.41638 86.5579 1.5442 87.3083 0.929377C88.0587 0.309792 88.9179 0 89.8859 0C90.8576 0 91.7168 0.309792 92.4635 0.929377C93.2139 1.5442 93.8029 2.41638 94.2307 3.54593C94.6584 4.67072 94.8723 5.99568 94.8723 7.52081ZM93.848 7.52081C93.848 6.21015 93.6754 5.08775 93.3302 4.1536C92.985 3.21469 92.5141 2.4974 91.9176 2.00174C91.321 1.50607 90.6438 1.25823 89.8859 1.25823C89.1317 1.25823 88.4564 1.50607 87.8598 2.00174C87.2632 2.4974 86.7905 3.21231 86.4416 4.14645C86.0964 5.0806 85.9238 6.20538 85.9238 7.52081C85.9238 8.83147 86.0964 9.95387 86.4416 10.888C86.7867 11.8222 87.2576 12.5394 87.8542 13.0399C88.4507 13.5356 89.128 13.7834 89.8859 13.7834C90.6438 13.7834 91.321 13.5356 91.9176 13.0399C92.5179 12.5442 92.9906 11.8293 93.3358 10.8952C93.681 9.95626 93.8517 8.83147 93.848 7.52081Z" fill="#607367"/>
<path d="M97.4175 14.8414V0.200174H104.104V1.40122H98.47V6.91314H103.749V8.11418H98.47V13.6404H104.216V14.8414H97.4175Z" fill="#607367"/>
<path d="M111.684 15.0416V13.7905H112.259C112.581 13.7905 112.849 13.7262 113.063 13.5975C113.281 13.4641 113.461 13.2806 113.604 13.047C113.75 12.8087 113.876 12.5299 113.981 12.2106L114.172 11.6244L110.204 0.200174H111.336L114.701 10.0087L117.808 0.200174H118.922L114.943 12.6109C114.782 13.0971 114.598 13.5236 114.392 13.8906C114.189 14.2528 113.923 14.5364 113.592 14.7414C113.262 14.9415 112.827 15.0416 112.287 15.0416H111.684Z" fill="#607367"/>
<path d="M129.119 0.200174V14.8414H128.072V1.40122H121.864V14.8414H120.812V0.200174H129.119Z" fill="#607367"/>
<path d="M141.551 7.52081C141.551 9.04594 141.337 10.3733 140.909 11.5028C140.481 12.6276 139.892 13.4998 139.142 14.1194C138.395 14.7342 137.536 15.0416 136.564 15.0416C135.593 15.0416 134.732 14.7342 133.981 14.1194C133.234 13.4998 132.647 12.6276 132.22 11.5028C131.796 10.3733 131.584 9.04594 131.584 7.52081C131.584 5.99568 131.796 4.67072 132.22 3.54593C132.647 2.41638 133.236 1.5442 133.987 0.929377C134.737 0.309792 135.596 0 136.564 0C137.536 0 138.395 0.309792 139.142 0.929377C139.892 1.5442 140.481 2.41638 140.909 3.54593C141.337 4.67072 141.551 5.99568 141.551 7.52081ZM140.526 7.52081C140.526 6.21015 140.354 5.08775 140.009 4.1536C139.663 3.21469 139.193 2.4974 138.596 2.00174C137.999 1.50607 137.322 1.25823 136.564 1.25823C135.81 1.25823 135.135 1.50607 134.538 2.00174C133.942 2.4974 133.469 3.21231 133.12 4.14645C132.775 5.0806 132.602 6.20538 132.602 7.52081C132.602 8.83147 132.775 9.95387 133.12 10.888C133.465 11.8222 133.936 12.5394 134.533 13.0399C135.129 13.5356 135.806 13.7834 136.564 13.7834C137.322 13.7834 137.999 13.5356 138.596 13.0399C139.196 12.5442 139.669 11.8293 140.014 10.8952C140.359 9.95626 140.53 8.83147 140.526 7.52081Z" fill="#607367"/>
<path d="M142.918 1.40122V0.200174H151.276V1.40122H147.623V14.8414H146.571V1.40122H142.918Z" fill="#607367"/>
<path d="M153.645 14.8414V0.200174H157.365C158.183 0.200174 158.866 0.400348 159.414 0.800695C159.965 1.19628 160.38 1.73484 160.658 2.41638C160.939 3.09793 161.08 3.86526 161.08 4.71838C161.08 5.5715 160.941 6.34122 160.663 7.02752C160.386 7.70907 159.973 8.25001 159.425 8.65036C158.877 9.04594 158.196 9.24373 157.382 9.24373H154.456V8.04269H157.354C157.958 8.04269 158.459 7.89971 158.857 7.61375C159.254 7.32302 159.551 6.92744 159.746 6.427C159.945 5.92657 160.044 5.35703 160.044 4.71838C160.044 4.07973 159.945 3.51019 159.746 3.00975C159.551 2.50932 159.253 2.11612 158.851 1.83016C158.453 1.5442 157.949 1.40122 157.337 1.40122H154.698V14.8414H153.645Z" fill="#607367"/>
<path d="M163.551 14.8414V0.200174H170.237V1.40122H164.603V6.91314H169.882V8.11418H164.603V13.6404H170.349V14.8414H163.551Z" fill="#607367"/>
<path d="M172.96 14.8414V0.200174H179.686V1.40122H174.013V6.63433H177.283C178.052 6.63433 178.705 6.79875 179.241 7.12761C179.782 7.45647 180.194 7.92116 180.479 8.52168C180.765 9.1222 180.907 9.82757 180.907 10.6378C180.907 11.4766 180.765 12.2106 180.479 12.8397C180.198 13.4688 179.787 13.9597 179.247 14.3124C178.71 14.6651 178.056 14.8414 177.283 14.8414H172.96ZM174.013 13.6619H177.283C177.834 13.6619 178.301 13.526 178.684 13.2544C179.071 12.9779 179.365 12.6109 179.568 12.1534C179.77 11.6911 179.872 11.1764 179.872 10.6092C179.872 9.82281 179.643 9.16509 179.185 8.63606C178.731 8.10227 178.097 7.83537 177.283 7.83537H174.013V13.6619Z" fill="#607367"/>
<path d="M182.352 14.8414V13.6047H182.656C183.133 13.6047 183.51 13.4045 183.787 13.0041C184.065 12.599 184.269 11.9508 184.401 11.0596C184.532 10.1683 184.618 8.9959 184.66 7.54226L184.862 0.200174H191.627V14.8414H190.575V1.40122H185.864L185.678 7.83537C185.633 9.38433 185.521 10.6783 185.341 11.7173C185.161 12.7515 184.86 13.5308 184.44 14.055C184.024 14.5793 183.435 14.8414 182.673 14.8414H182.352Z" fill="#607367"/>
<path d="M194.69 14.8414V0.200174H201.376V1.40122H195.743V6.91314H201.022V8.11418H195.743V13.6404H201.489V14.8414H194.69Z" fill="#607367"/>
<path d="M204.1 14.8414V0.200174H205.153V6.91314H211.692V0.200174H212.745V14.8414H211.692V8.11418H205.153V14.8414H204.1Z" fill="#607367"/>
<path d="M215.801 0.200174H216.836V12.4751H216.926L223.753 0.200174H224.777V14.8414H223.725V2.58081H223.635L216.819 14.8414H215.801V0.200174Z" fill="#607367"/>
<path d="M227.842 14.8414V0.200174H234.528V1.40122H228.894V6.91314H234.173V8.11418H228.894V13.6404H234.64V14.8414H227.842Z" fill="#607367"/>
<path d="M241.726 14.8414H240.623L244.816 0.200174H245.941L250.134 14.8414H249.031L245.418 1.9374H245.339L241.726 14.8414ZM242.52 9.22943H248.238V10.4305H242.52V9.22943Z" fill="#607367"/>
<path d="M251.023 14.8414V13.6047H251.327C251.804 13.6047 252.181 13.4045 252.459 13.0041C252.736 12.599 252.941 11.9508 253.072 11.0596C253.203 10.1683 253.29 8.9959 253.331 7.54226L253.533 0.200174H260.298V14.8414H259.246V1.40122H254.535L254.35 7.83537C254.304 9.38433 254.192 10.6783 254.012 11.7173C253.832 12.7515 253.532 13.5308 253.111 14.055C252.695 14.5793 252.106 14.8414 251.344 14.8414H251.023Z" fill="#607367"/>
<path d="M270.042 14.8414L266.074 7.93546H264.414V14.8414H263.361V0.200174H264.414V6.74156H265.455L269.704 0.200174H270.953L266.682 6.79876L271.302 14.8414H270.042Z" fill="#607367"/>
<path d="M282.159 7.52081C282.159 9.04594 281.945 10.3733 281.517 11.5028C281.089 12.6276 280.5 13.4998 279.75 14.1194C279.003 14.7342 278.144 15.0416 277.172 15.0416C276.201 15.0416 275.34 14.7342 274.589 14.1194C273.842 13.4998 273.255 12.6276 272.828 11.5028C272.404 10.3733 272.192 9.04594 272.192 7.52081C272.192 5.99568 272.404 4.67072 272.828 3.54593C273.255 2.41638 273.844 1.5442 274.595 0.929377C275.345 0.309792 276.204 0 277.172 0C278.144 0 279.003 0.309792 279.75 0.929377C280.5 1.5442 281.089 2.41638 281.517 3.54593C281.945 4.67072 282.159 5.99568 282.159 7.52081ZM281.134 7.52081C281.134 6.21015 280.962 5.08775 280.617 4.1536C280.272 3.21469 279.801 2.4974 279.204 2.00174C278.608 1.50607 277.93 1.25823 277.172 1.25823C276.418 1.25823 275.743 1.50607 275.146 2.00174C274.55 2.4974 274.077 3.21231 273.728 4.14645C273.383 5.0806 273.21 6.20538 273.21 7.52081C273.21 8.83147 273.383 9.95387 273.728 10.888C274.073 11.8222 274.544 12.5394 275.141 13.0399C275.737 13.5356 276.414 13.7834 277.172 13.7834C277.93 13.7834 278.608 13.5356 279.204 13.0399C279.804 12.5442 280.277 11.8293 280.622 10.8952C280.968 9.95626 281.138 8.83147 281.134 7.52081Z" fill="#607367"/>
<path d="M291.435 0.200174V1.40122H285.756V14.8414H284.704V0.200174H291.435Z" fill="#607367"/>
<path d="M302.774 7.52081C302.774 9.04594 302.56 10.3733 302.132 11.5028C301.705 12.6276 301.116 13.4998 300.365 14.1194C299.619 14.7342 298.759 15.0416 297.788 15.0416C296.816 15.0416 295.955 14.7342 295.204 14.1194C294.458 13.4998 293.871 12.6276 293.443 11.5028C293.019 10.3733 292.807 9.04594 292.807 7.52081C292.807 5.99568 293.019 4.67072 293.443 3.54593C293.871 2.41638 294.46 1.5442 295.21 0.929377C295.96 0.309792 296.82 0 297.788 0C298.759 0 299.619 0.309792 300.365 0.929377C301.116 1.5442 301.705 2.41638 302.132 3.54593C302.56 4.67072 302.774 5.99568 302.774 7.52081ZM301.75 7.52081C301.75 6.21015 301.577 5.08775 301.232 4.1536C300.887 3.21469 300.416 2.4974 299.819 2.00174C299.223 1.50607 298.546 1.25823 297.788 1.25823C297.034 1.25823 296.358 1.50607 295.762 2.00174C295.165 2.4974 294.692 3.21231 294.343 4.14645C293.998 5.0806 293.826 6.20538 293.826 7.52081C293.826 8.83147 293.998 9.95387 294.343 10.888C294.689 11.8222 295.159 12.5394 295.756 13.0399C296.353 13.5356 297.03 13.7834 297.788 13.7834C298.546 13.7834 299.223 13.5356 299.819 13.0399C300.42 12.5442 300.892 11.8293 301.238 10.8952C301.583 9.95626 301.754 8.83147 301.75 7.52081Z" fill="#607367"/>
<path d="M304.233 14.8414V13.6047H304.537C305.014 13.6047 305.391 13.4045 305.668 13.0041C305.946 12.599 306.15 11.9508 306.282 11.0596C306.413 10.1683 306.499 8.9959 306.541 7.54226L306.743 0.200174H313.508V14.8414H312.456V1.40122H307.745L307.559 7.83537C307.514 9.38433 307.402 10.6783 307.222 11.7173C307.041 12.7515 306.741 13.5308 306.321 14.055C305.905 14.5793 305.316 14.8414 304.554 14.8414H304.233Z" fill="#607367"/>
<path d="M324 14.8414H322.948V1.40122H320.308C319.7 1.40122 319.196 1.53228 318.794 1.79441C318.396 2.05655 318.098 2.4283 317.899 2.90967C317.7 3.38627 317.601 3.9439 317.601 4.58255C317.601 5.2212 317.699 5.77406 317.894 6.24113C318.092 6.7082 318.391 7.06804 318.789 7.32064C319.19 7.57324 319.691 7.69954 320.291 7.69954H323.432V8.92203H320.263C319.453 8.92203 318.773 8.73853 318.226 8.37155C317.678 8.00456 317.263 7.4946 316.982 6.84165C316.704 6.1887 316.565 5.43567 316.565 4.58255C316.565 3.72943 316.704 2.97401 316.982 2.31629C317.263 1.65382 317.678 1.1367 318.226 0.76495C318.777 0.388432 319.462 0.200174 320.28 0.200174H324V14.8414ZM318.918 8.23572H320.105L317.297 14.8414H316.081L318.918 8.23572Z" fill="#607367"/>
<path d="M49.3926 39.4469V24.8056H53.2815C54.0319 24.8056 54.6566 24.9725 55.1556 25.3061C55.6584 25.6397 56.0355 26.0949 56.2868 26.6715C56.5382 27.2482 56.6639 27.9036 56.6639 28.6375C56.6639 29.2476 56.5832 29.7695 56.4219 30.2032C56.2606 30.6369 56.0411 30.9872 55.7634 31.2541C55.4858 31.521 55.1762 31.714 54.8348 31.8332V31.9476C55.2063 31.9809 55.5665 32.1477 55.9154 32.448C56.2643 32.7435 56.5513 33.1581 56.7765 33.6919C57.0016 34.2257 57.1141 34.8644 57.1141 35.6079C57.1141 36.3466 56.9847 37.0067 56.7258 37.5882C56.4669 38.1649 56.0692 38.62 55.5327 38.9536C54.9999 39.2825 54.3208 39.4469 53.4954 39.4469H49.3926ZM50.445 38.2459H53.4954C54.3846 38.2459 55.0412 37.9957 55.4651 37.4952C55.8929 36.9948 56.1067 36.3657 56.1067 35.6079C56.1067 35.0502 55.9998 34.545 55.7859 34.0923C55.5758 33.6347 55.2775 33.2725 54.8911 33.0056C54.5084 32.7387 54.0582 32.6053 53.5404 32.6053H50.445V38.2459ZM50.445 31.4185H53.3772C53.8312 31.4185 54.2289 31.2994 54.5703 31.0611C54.9117 30.8228 55.1781 30.4939 55.3695 30.0745C55.5608 29.6551 55.6565 29.1761 55.6565 28.6375C55.6565 27.8607 55.4576 27.2292 55.0599 26.743C54.6622 26.2521 54.0694 26.0067 53.2815 26.0067H50.445V31.4185Z" fill="#607367"/>
<path d="M59.6538 39.4469V24.8056H63.3739C64.1918 24.8056 64.8747 25.0058 65.4225 25.4062C65.974 25.8017 66.3886 26.3403 66.6662 27.0219C66.9476 27.7034 67.0883 28.4707 67.0883 29.3238C67.0883 30.177 66.9495 30.9467 66.6719 31.633C66.3942 32.3145 65.9815 32.8555 65.4337 33.2558C64.8859 33.6514 64.2049 33.8492 63.3908 33.8492H60.4642V32.6482H63.3626C63.9667 32.6482 64.4676 32.5052 64.8653 32.2192C65.263 31.9285 65.5594 31.5329 65.7545 31.0325C65.9534 30.532 66.0528 29.9625 66.0528 29.3238C66.0528 28.6852 65.9534 28.1157 65.7545 27.6152C65.5594 27.1148 65.2611 26.7216 64.8597 26.4356C64.462 26.1497 63.9573 26.0067 63.3457 26.0067H60.7062V39.4469H59.6538Z" fill="#607367"/>
<path d="M69.559 39.4469V24.8056H76.2451V26.0067H70.6115V31.5186H75.8905V32.7197H70.6115V38.2459H76.3576V39.4469H69.559Z" fill="#607367"/>
<path d="M77.8828 43V38.2459H78.6144C78.8808 37.8932 79.1266 37.4285 79.3517 36.8518C79.5768 36.2704 79.7644 35.5221 79.9145 34.607C80.0683 33.6872 80.1678 32.5385 80.2128 31.1612L80.4435 24.8056H87.0339V38.2459H88.3846V42.9643H87.3828V39.4469H78.8846V43H77.8828ZM79.8751 38.2459H86.0321V26.0067H81.4003L81.2202 31.1612C81.1789 32.2812 81.102 33.2797 80.9894 34.1566C80.8769 35.0288 80.7268 35.8033 80.5392 36.4801C80.3554 37.1521 80.134 37.7407 79.8751 38.2459Z" fill="#607367"/>
<path d="M90.6541 24.8056H91.6896V37.0806H91.7797L98.6064 24.8056H99.6307V39.4469H98.5783V27.1863H98.4882L91.6728 39.4469H90.6541V24.8056Z" fill="#607367"/>
<path d="M101.997 26.0067V24.8056H110.355V26.0067H106.702V39.4469H105.65V26.0067H101.997Z" fill="#607367"/>
<path d="M117.182 39.4469V24.8056H121.071C121.821 24.8056 122.446 24.9725 122.945 25.3061C123.447 25.6397 123.824 26.0949 124.076 26.6715C124.327 27.2482 124.453 27.9036 124.453 28.6375C124.453 29.2476 124.372 29.7695 124.211 30.2032C124.05 30.6369 123.83 30.9872 123.552 31.2541C123.275 31.521 122.965 31.714 122.624 31.8332V31.9476C122.995 31.9809 123.355 32.1477 123.704 32.448C124.053 32.7435 124.34 33.1581 124.565 33.6919C124.791 34.2257 124.903 34.8644 124.903 35.6079C124.903 36.3466 124.774 37.0067 124.515 37.5882C124.256 38.1649 123.858 38.62 123.322 38.9536C122.789 39.2825 122.11 39.4469 121.284 39.4469H117.182ZM118.234 38.2459H121.284C122.174 38.2459 122.83 37.9957 123.254 37.4952C123.682 36.9948 123.896 36.3657 123.896 35.6079C123.896 35.0502 123.789 34.545 123.575 34.0923C123.365 33.6347 123.067 33.2725 122.68 33.0056C122.297 32.7387 121.847 32.6053 121.329 32.6053H118.234V38.2459ZM118.234 31.4185H121.166C121.62 31.4185 122.018 31.2994 122.359 31.0611C122.701 30.8228 122.967 30.4939 123.158 30.0745C123.35 29.6551 123.446 29.1761 123.446 28.6375C123.446 27.8607 123.247 27.2292 122.849 26.743C122.451 26.2521 121.858 26.0067 121.071 26.0067H118.234V31.4185Z" fill="#607367"/>
<path d="M127.46 39.4469H126.357L130.549 24.8056H131.675L135.868 39.4469H134.765L131.152 26.5429H131.073L127.46 39.4469ZM128.253 33.8349H133.971V35.0359H128.253V33.8349Z" fill="#607367"/>
<path d="M137.843 24.8056H138.896V38.2101H143.218V24.8056H144.27V38.2101H148.598V24.8056H149.645V39.4469H137.843V24.8056Z" fill="#607367"/>
<path d="M152.701 39.4469V24.8056H159.387V26.0067H153.754V31.5186H159.033V32.7197H153.754V38.2459H159.5V39.4469H152.701Z" fill="#607367"/>
<path d="M162.111 24.8056H163.327L167.508 37.5596H167.61L171.791 24.8056H173.007V39.4469H172.016V27.6295H171.926L168.037 39.4469H167.081L163.192 27.6295H163.102V39.4469H162.111V24.8056Z" fill="#607367"/>
<path d="M176.471 39.6471V38.396H177.045C177.368 38.396 177.636 38.3317 177.85 38.203C178.067 38.0695 178.247 37.886 178.39 37.6525C178.536 37.4142 178.662 37.1354 178.767 36.8161L178.959 36.2298L174.991 24.8056H176.122L179.488 34.6142L182.594 24.8056H183.709L179.73 37.2164C179.568 37.7025 179.384 38.1291 179.178 38.4961C178.975 38.8583 178.709 39.1419 178.379 39.3468C178.049 39.547 177.613 39.6471 177.073 39.6471H176.471Z" fill="#607367"/>
<path d="M193.635 39.6471C192.926 39.6471 192.292 39.485 191.733 39.161C191.174 38.8321 190.731 38.3769 190.404 37.7955C190.078 37.214 189.905 36.5444 189.887 35.7866H190.95C190.969 36.3204 191.099 36.7875 191.339 37.1878C191.579 37.5834 191.898 37.8932 192.295 38.1172C192.693 38.3364 193.136 38.446 193.624 38.446C194.156 38.446 194.625 38.3197 195.031 38.0671C195.44 37.8145 195.758 37.469 195.987 37.0305C196.22 36.5873 196.336 36.0869 196.336 35.5292C196.336 34.9382 196.218 34.4164 195.982 33.9636C195.745 33.5108 195.406 33.1581 194.963 32.9055C194.524 32.6529 193.999 32.5266 193.387 32.5266H192.712V31.3256H193.387C193.886 31.3256 194.327 31.2112 194.71 30.9824C195.096 30.7489 195.4 30.4224 195.622 30.003C195.843 29.5836 195.954 29.0903 195.954 28.5232C195.954 27.9846 195.858 27.5104 195.667 27.1005C195.475 26.6906 195.205 26.3689 194.856 26.1354C194.511 25.9018 194.108 25.7851 193.646 25.7851C193.2 25.7851 192.791 25.8947 192.419 26.1139C192.048 26.3332 191.748 26.643 191.519 27.0433C191.294 27.4436 191.174 27.9179 191.159 28.466H190.14C190.155 27.7034 190.32 27.0338 190.635 26.4571C190.954 25.8756 191.376 25.4228 191.901 25.0988C192.43 24.7699 193.016 24.6055 193.657 24.6055C194.337 24.6055 194.924 24.7818 195.419 25.1345C195.914 25.4872 196.297 25.9566 196.567 26.5429C196.841 27.1243 196.978 27.7654 196.978 28.466C196.978 29.3 196.8 30.0149 196.443 30.6107C196.087 31.2017 195.607 31.6115 195.002 31.8403V31.9333C195.738 32.1191 196.316 32.5338 196.736 33.1772C197.16 33.8158 197.372 34.5999 197.372 35.5292C197.372 36.3109 197.211 37.0139 196.888 37.6382C196.565 38.2578 196.122 38.7487 195.56 39.1109C195.001 39.4684 194.359 39.6471 193.635 39.6471Z" fill="#607367"/>
<path d="M199.021 43V38.2459H199.753C200.019 37.8932 200.265 37.4285 200.49 36.8518C200.715 36.2704 200.902 35.5221 201.053 34.607C201.206 33.6872 201.306 32.5385 201.351 31.1612L201.582 24.8056H208.172V38.2459H209.523V42.9643H208.521V39.4469H200.023V43H199.021ZM201.013 38.2459H207.17V26.0067H202.538L202.358 31.1612C202.317 32.2812 202.24 33.2797 202.128 34.1566C202.015 35.0288 201.865 35.8033 201.677 36.4801C201.493 37.1521 201.272 37.7407 201.013 38.2459Z" fill="#607367"/>
<path d="M221.242 32.1263C221.242 33.6514 221.028 34.9788 220.6 36.1083C220.172 37.2331 219.583 38.1053 218.833 38.7249C218.086 39.3397 217.227 39.6471 216.255 39.6471C215.283 39.6471 214.422 39.3397 213.672 38.7249C212.925 38.1053 212.338 37.2331 211.91 36.1083C211.486 34.9788 211.274 33.6514 211.274 32.1263C211.274 30.6011 211.486 29.2762 211.91 28.1514C212.338 27.0219 212.927 26.1497 213.678 25.5348C214.428 24.9153 215.287 24.6055 216.255 24.6055C217.227 24.6055 218.086 24.9153 218.833 25.5348C219.583 26.1497 220.172 27.0219 220.6 28.1514C221.028 29.2762 221.242 30.6011 221.242 32.1263ZM220.217 32.1263C220.217 30.8156 220.045 29.6932 219.699 28.7591C219.354 27.8202 218.883 27.1029 218.287 26.6072C217.69 26.1115 217.013 25.8637 216.255 25.8637C215.501 25.8637 214.826 26.1115 214.229 26.6072C213.633 27.1029 213.16 27.8178 212.811 28.7519C212.466 29.6861 212.293 30.8109 212.293 32.1263C212.293 33.4369 212.466 34.5593 212.811 35.4935C213.156 36.4276 213.627 37.1449 214.223 37.6454C214.82 38.141 215.497 38.3889 216.255 38.3889C217.013 38.3889 217.69 38.141 218.287 37.6454C218.887 37.1497 219.36 36.4348 219.705 35.5006C220.05 34.5617 220.221 33.4369 220.217 32.1263Z" fill="#607367"/>
<path d="M223.787 39.4469V24.8056H227.507C228.325 24.8056 229.008 25.0058 229.555 25.4062C230.107 25.8017 230.522 26.3403 230.799 27.0219C231.081 27.7034 231.221 28.4707 231.221 29.3238C231.221 30.177 231.083 30.9467 230.805 31.633C230.527 32.3145 230.115 32.8555 229.567 33.2558C229.019 33.6514 228.338 33.8492 227.524 33.8492H224.597V32.6482H227.496C228.1 32.6482 228.601 32.5052 228.998 32.2192C229.396 31.9285 229.692 31.5329 229.888 31.0325C230.086 30.532 230.186 29.9625 230.186 29.3238C230.186 28.6852 230.086 28.1157 229.888 27.6152C229.692 27.1148 229.394 26.7216 228.993 26.4356C228.595 26.1497 228.09 26.0067 227.479 26.0067H224.839V39.4469H223.787Z" fill="#607367"/>
<path d="M243.141 32.1263C243.141 33.6514 242.928 34.9788 242.5 36.1083C242.072 37.2331 241.483 38.1053 240.733 38.7249C239.986 39.3397 239.127 39.6471 238.155 39.6471C237.183 39.6471 236.322 39.3397 235.572 38.7249C234.825 38.1053 234.238 37.2331 233.81 36.1083C233.386 34.9788 233.174 33.6514 233.174 32.1263C233.174 30.6011 233.386 29.2762 233.81 28.1514C234.238 27.0219 234.827 26.1497 235.577 25.5348C236.328 24.9153 237.187 24.6055 238.155 24.6055C239.127 24.6055 239.986 24.9153 240.733 25.5348C241.483 26.1497 242.072 27.0219 242.5 28.1514C242.928 29.2762 243.141 30.6011 243.141 32.1263ZM242.117 32.1263C242.117 30.8156 241.945 29.6932 241.599 28.7591C241.254 27.8202 240.783 27.1029 240.187 26.6072C239.59 26.1115 238.913 25.8637 238.155 25.8637C237.401 25.8637 236.725 26.1115 236.129 26.6072C235.532 27.1029 235.06 27.8178 234.711 28.7519C234.366 29.6861 234.193 30.8109 234.193 32.1263C234.193 33.4369 234.366 34.5593 234.711 35.4935C235.056 36.4276 235.527 37.1449 236.123 37.6454C236.72 38.141 237.397 38.3889 238.155 38.3889C238.913 38.3889 239.59 38.141 240.187 37.6454C240.787 37.1497 241.26 36.4348 241.605 35.5006C241.95 34.5617 242.121 33.4369 242.117 32.1263Z" fill="#607367"/>
<path d="M245.687 39.4469V24.8056H249.576C250.326 24.8056 250.951 24.9725 251.45 25.3061C251.952 25.6397 252.33 26.0949 252.581 26.6715C252.832 27.2482 252.958 27.9036 252.958 28.6375C252.958 29.2476 252.877 29.7695 252.716 30.2032C252.555 30.6369 252.335 30.9872 252.058 31.2541C251.78 31.521 251.47 31.714 251.129 31.8332V31.9476C251.5 31.9809 251.861 32.1477 252.209 32.448C252.558 32.7435 252.845 33.1581 253.071 33.6919C253.296 34.2257 253.408 34.8644 253.408 35.6079C253.408 36.3466 253.279 37.0067 253.02 37.5882C252.761 38.1649 252.363 38.62 251.827 38.9536C251.294 39.2825 250.615 39.4469 249.789 39.4469H245.687ZM246.739 38.2459H249.789C250.679 38.2459 251.335 37.9957 251.759 37.4952C252.187 36.9948 252.401 36.3657 252.401 35.6079C252.401 35.0502 252.294 34.545 252.08 34.0923C251.87 33.6347 251.572 33.2725 251.185 33.0056C250.803 32.7387 250.352 32.6053 249.834 32.6053H246.739V38.2459ZM246.739 31.4185H249.671C250.125 31.4185 250.523 31.2994 250.864 31.0611C251.206 30.8228 251.472 30.4939 251.664 30.0745C251.855 29.6551 251.951 29.1761 251.951 28.6375C251.951 27.8607 251.752 27.2292 251.354 26.743C250.956 26.2521 250.364 26.0067 249.576 26.0067H246.739V31.4185Z" fill="#607367"/>
<path d="M256.708 31.2398H260.27C261.039 31.2398 261.692 31.4042 262.229 31.7331C262.769 32.0619 263.182 32.5266 263.467 33.1271C263.752 33.7229 263.895 34.4283 263.895 35.2433C263.895 36.0821 263.752 36.8161 263.467 37.4452C263.185 38.0743 262.775 38.5652 262.234 38.9179C261.698 39.2706 261.043 39.4469 260.27 39.4469H255.948V24.8056H257V38.2673H260.27C260.822 38.2673 261.289 38.1315 261.672 37.8598C262.058 37.5834 262.353 37.2164 262.555 36.7589C262.758 36.2966 262.859 35.7818 262.859 35.2147C262.859 34.4283 262.63 33.7706 262.172 33.2415C261.718 32.7077 261.084 32.4408 260.27 32.4408H256.708V31.2398Z" fill="#607367"/>
<path d="M267.354 24.8128V39.4541H266.302V24.8128H267.354ZM269.966 31.7045V32.9055H266.606V31.7045H269.966ZM279.59 32.1263C279.59 33.6514 279.376 34.9788 278.948 36.1083C278.52 37.2331 277.931 38.1053 277.181 38.7249C276.434 39.3397 275.575 39.6471 274.603 39.6471C273.631 39.6471 272.77 39.3397 272.02 38.7249C271.273 38.1053 270.686 37.2331 270.258 36.1083C269.834 34.9788 269.622 33.6514 269.622 32.1263C269.622 30.6011 269.834 29.2762 270.258 28.1514C270.686 27.0219 271.275 26.1497 272.026 25.5348C272.776 24.9153 273.635 24.6055 274.603 24.6055C275.575 24.6055 276.434 24.9153 277.181 25.5348C277.931 26.1497 278.52 27.0219 278.948 28.1514C279.376 29.2762 279.59 30.6011 279.59 32.1263ZM278.565 32.1263C278.565 30.8156 278.393 29.6932 278.048 28.7591C277.702 27.8202 277.231 27.1029 276.635 26.6072C276.038 26.1115 275.361 25.8637 274.603 25.8637C273.849 25.8637 273.174 26.1115 272.577 26.6072C271.981 27.1029 271.508 27.8178 271.159 28.7519C270.814 29.6861 270.641 30.8109 270.641 32.1263C270.641 33.4369 270.814 34.5593 271.159 35.4935C271.504 36.4276 271.975 37.1449 272.572 37.6454C273.168 38.141 273.845 38.3889 274.603 38.3889C275.361 38.3889 276.038 38.141 276.635 37.6454C277.235 37.1497 277.708 36.4348 278.053 35.5006C278.398 34.5617 278.569 33.4369 278.565 32.1263Z" fill="#607367"/>
</svg>
