<svg width="1680" height="35" viewBox="0 0 1680 35" fill="none" xmlns="http://www.w3.org/2000/svg">
<path d="M0 0.380583H2.554V9.52816C2.554 11.0414 2.94588 12.2828 3.72965 13.2524C4.51341 14.2129 5.66204 14.9243 7.17552 15.3864C8.70251 15.8485 10.5741 16.0796 12.7903 16.0796C13.8713 16.0796 14.9659 16.0434 16.074 15.9709C17.1821 15.8984 18.2901 15.7942 19.3982 15.6583C20.5198 15.5223 21.6347 15.3592 22.7427 15.1689C23.8508 14.9696 24.9386 14.7476 26.0062 14.5029V16.134C24.817 16.3877 23.6616 16.6142 22.54 16.8136C21.432 17.0039 20.3374 17.1625 19.2563 17.2893C18.1888 17.4162 17.1212 17.5113 16.0537 17.5748C14.9997 17.6382 13.9321 17.6699 12.8511 17.6699C10.0809 17.6608 7.73632 17.3663 5.81744 16.7864C3.91208 16.1974 2.46616 15.3049 1.4797 14.1087C0.493232 12.9036 0 11.3767 0 9.52816V0.380583ZM25.6819 0.380583H28.094V28.2175H25.6819V0.380583Z" fill="#607367"/>
<path d="M41.2404 28.2175V0.380583H64.348V1.95728H43.7741V13.4971H63.1115V15.0738H43.7741V26.6408H64.8344V28.2175H41.2404Z" fill="#607367"/>
<path d="M75.9944 28.2175V0.380583H88.7847C91.4197 0.380583 93.6764 0.743042 95.5548 1.46796C97.4466 2.19288 98.8993 3.18511 99.9128 4.44466C100.926 5.70421 101.433 7.14045 101.433 8.7534C101.433 10.3482 100.926 11.7754 99.9128 13.035C98.8993 14.2945 97.4466 15.2913 95.5548 16.0252C93.6764 16.7502 91.4265 17.1126 88.8049 17.1126H77.7781V15.5359H88.7441C90.8792 15.5359 92.7035 15.246 94.217 14.666C95.7305 14.077 96.8926 13.2751 97.7034 12.2602C98.5142 11.2362 98.9196 10.0673 98.9196 8.7534C98.9196 7.43042 98.5142 6.25696 97.7034 5.23301C96.8926 4.20906 95.7237 3.40712 94.1967 2.82718C92.6832 2.24725 90.8589 1.95728 88.7238 1.95728H78.5281V28.2175H75.9944Z" fill="#607367"/>
<path d="M112.309 28.2175V0.380583H135.417V1.95728H114.843V13.4971H134.18V15.0738H114.843V26.6408H135.903V28.2175H112.309Z" fill="#607367"/>
<path d="M158.962 28.5981C156.502 28.5981 154.306 28.2854 152.374 27.6602C150.442 27.0259 148.908 26.1605 147.773 25.0641C146.651 23.9586 146.07 22.69 146.029 21.2583H148.604C148.644 22.3909 149.124 23.3922 150.043 24.2621C150.962 25.123 152.191 25.7981 153.732 26.2874C155.286 26.7767 157.016 27.0214 158.921 27.0214C160.989 27.0214 162.799 26.7495 164.353 26.2058C165.921 25.6621 167.144 24.9282 168.022 24.0039C168.901 23.0706 169.34 22.0285 169.34 20.8777C169.34 19.6453 168.86 18.567 167.901 17.6427C166.941 16.7094 165.603 15.9845 163.887 15.468C162.171 14.9424 160.178 14.6796 157.908 14.6796H156.367V13.1029H157.908C159.84 13.1029 161.57 12.8673 163.097 12.3961C164.624 11.9159 165.826 11.2408 166.705 10.3709C167.597 9.50097 168.043 8.47249 168.043 7.28544C168.043 6.17087 167.657 5.18317 166.887 4.32233C166.117 3.46149 165.049 2.78641 163.684 2.29709C162.333 1.80777 160.745 1.56311 158.921 1.56311C157.164 1.56311 155.57 1.80324 154.137 2.2835C152.719 2.76375 151.59 3.43884 150.752 4.30874C149.915 5.17864 149.489 6.189 149.475 7.33981H146.982C147.009 5.89903 147.55 4.62589 148.604 3.52039C149.671 2.41489 151.097 1.55405 152.881 0.937865C154.678 0.312622 156.705 0 158.962 0C161.259 0 163.272 0.321683 165.002 0.965048C166.745 1.60841 168.097 2.47832 169.056 3.57476C170.029 4.6712 170.515 5.88997 170.515 7.23107C170.515 8.84401 169.847 10.2259 168.509 11.3767C167.184 12.5184 165.387 13.3113 163.117 13.7553V13.9049C165.806 14.3036 167.934 15.1236 169.502 16.365C171.069 17.6065 171.853 19.1107 171.853 20.8777C171.853 22.3275 171.299 23.6369 170.191 24.8058C169.083 25.9748 167.556 26.899 165.61 27.5786C163.678 28.2583 161.462 28.5981 158.962 28.5981Z" fill="#607367"/>
<path d="M183.657 0.380583H186.413L202.406 25.7709H202.69L218.683 0.380583H221.44V28.2175H219.007V4.41748H218.764L203.744 28.2175H201.352L186.332 4.41748H186.089V28.2175H183.657V0.380583Z" fill="#607367"/>
<path d="M234.576 28.2175V0.380583H257.684V1.95728H237.11V13.4971H256.447V15.0738H237.11V26.6408H258.17V28.2175H234.576Z" fill="#607367"/>
<path d="M269.33 28.2175V0.380583H282.12C284.755 0.380583 287.012 0.743042 288.89 1.46796C290.782 2.19288 292.235 3.18511 293.248 4.44466C294.262 5.70421 294.769 7.14045 294.769 8.7534C294.769 10.3482 294.262 11.7754 293.248 13.035C292.235 14.2945 290.782 15.2913 288.89 16.0252C287.012 16.7502 284.762 17.1126 282.141 17.1126H271.114V15.5359H282.08C284.215 15.5359 286.039 15.246 287.553 14.666C289.066 14.077 290.228 13.2751 291.039 12.2602C291.85 11.2362 292.255 10.0673 292.255 8.7534C292.255 7.43042 291.85 6.25696 291.039 5.23301C290.228 4.20906 289.059 3.40712 287.532 2.82718C286.019 2.24725 284.195 1.95728 282.059 1.95728H271.864V28.2175H269.33Z" fill="#607367"/>
<path d="M305.645 28.2175V0.380583H308.179V13.4971H333.191V0.380583H335.725V28.2175H333.191V15.0738H308.179V28.2175H305.645Z" fill="#607367"/>
<path d="M381.891 14.299C381.891 17.1715 381.148 19.6816 379.661 21.8291C378.175 23.9676 376.108 25.6304 373.459 26.8175C370.824 28.0045 367.783 28.5981 364.338 28.5981C360.878 28.5981 357.824 28.0045 355.176 26.8175C352.54 25.6214 350.48 23.954 348.993 21.8155C347.507 19.668 346.764 17.1625 346.764 14.299C346.764 11.4265 347.507 8.92103 348.993 6.78252C350.493 4.64401 352.561 2.98123 355.196 1.79417C357.831 0.598058 360.878 0 364.338 0C367.783 0 370.824 0.593527 373.459 1.78058C376.108 2.96764 378.175 4.63495 379.661 6.78252C381.148 8.92103 381.891 11.4265 381.891 14.299ZM379.418 14.299C379.418 11.7165 378.77 9.47832 377.472 7.58447C376.189 5.69062 374.412 4.22718 372.141 3.19417C369.871 2.1521 367.27 1.63107 364.338 1.63107C361.405 1.63107 358.804 2.14757 356.534 3.18058C354.263 4.20453 352.48 5.66796 351.182 7.57087C349.899 9.46473 349.257 11.7074 349.257 14.299C349.257 16.8634 349.892 19.0971 351.162 21C352.446 22.8939 354.223 24.3618 356.493 25.4039C358.763 26.446 361.378 26.967 364.338 26.967C367.27 26.967 369.871 26.4505 372.141 25.4175C374.412 24.3754 376.189 22.9074 377.472 21.0136C378.77 19.1197 379.418 16.8816 379.418 14.299Z" fill="#607367"/>
<path d="M392.935 28.2175V0.380583H416.042V1.95728H395.468V13.4971H414.806V15.0738H395.468V26.6408H416.529V28.2175H392.935Z" fill="#607367"/>
<path d="M445.553 28.5981V26.9806H447.134C448.445 26.9806 449.532 26.8673 450.397 26.6408C451.276 26.4142 452.005 26.0608 452.586 25.5806C453.168 25.0913 453.688 24.466 454.147 23.7049L454.877 22.5087L440.668 0.380583H443.404L456.174 20.3883L468.093 0.380583H470.768L456.478 24.2485C455.884 25.2181 455.215 26.0246 454.472 26.668C453.728 27.3113 452.782 27.7961 451.634 28.1223C450.499 28.4395 449.032 28.5981 447.235 28.5981H445.553Z" fill="#607367"/>
<path d="M507.889 0.380583V28.2175H505.335V1.95728H481.559V28.2175H479.025V0.380583H507.889Z" fill="#607367"/>
<path d="M553.376 14.299C553.376 17.1715 552.633 19.6816 551.146 21.8291C549.66 23.9676 547.592 25.6304 544.944 26.8175C542.309 28.0045 539.268 28.5981 535.822 28.5981C532.363 28.5981 529.309 28.0045 526.66 26.8175C524.025 25.6214 521.964 23.954 520.478 21.8155C518.992 19.668 518.248 17.1625 518.248 14.299C518.248 11.4265 518.992 8.92103 520.478 6.78252C521.978 4.64401 524.045 2.98123 526.681 1.79417C529.316 0.598058 532.363 0 535.822 0C539.268 0 542.309 0.593527 544.944 1.78058C547.592 2.96764 549.66 4.63495 551.146 6.78252C552.633 8.92103 553.376 11.4265 553.376 14.299ZM550.903 14.299C550.903 11.7165 550.254 9.47832 548.957 7.58447C547.673 5.69062 545.896 4.22718 543.626 3.19417C541.356 2.1521 538.755 1.63107 535.822 1.63107C532.89 1.63107 530.289 2.14757 528.018 3.18058C525.748 4.20453 523.964 5.66796 522.667 7.57087C521.383 9.46473 520.742 11.7074 520.742 14.299C520.742 16.8634 521.377 19.0971 522.647 21C523.931 22.8939 525.708 24.3618 527.978 25.4039C530.248 26.446 532.863 26.967 535.822 26.967C538.755 26.967 541.356 26.4505 543.626 25.4175C545.896 24.3754 547.673 22.9074 548.957 21.0136C550.254 19.1197 550.903 16.8816 550.903 14.299Z" fill="#607367"/>
<path d="M559.935 1.95728V0.380583H589.022V1.95728H575.745V28.2175H573.211V1.95728H559.935Z" fill="#607367"/>
<path d="M599.396 28.2175V0.380583H612.187C614.822 0.380583 617.078 0.743042 618.957 1.46796C620.849 2.19288 622.301 3.18511 623.315 4.44466C624.328 5.70421 624.835 7.14045 624.835 8.7534C624.835 10.3482 624.328 11.7754 623.315 13.035C622.301 14.2945 620.849 15.2913 618.957 16.0252C617.078 16.7502 614.828 17.1126 612.207 17.1126H601.18V15.5359H612.146C614.281 15.5359 616.105 15.246 617.619 14.666C619.132 14.077 620.294 13.2751 621.105 12.2602C621.916 11.2362 622.321 10.0673 622.321 8.7534C622.321 7.43042 621.916 6.25696 621.105 5.23301C620.294 4.20906 619.126 3.40712 617.599 2.82718C616.085 2.24725 614.261 1.95728 612.126 1.95728H601.93V28.2175H599.396Z" fill="#607367"/>
<path d="M635.711 28.2175V0.380583H658.819V1.95728H638.245V13.4971H657.582V15.0738H638.245V26.6408H659.305V28.2175H635.711Z" fill="#607367"/>
<path d="M670.465 28.2175V0.380583H693.836V1.95728H672.999V13.1573H686.032C688.586 13.1573 690.782 13.4608 692.62 14.068C694.471 14.666 695.89 15.5087 696.877 16.5961C697.863 17.6835 698.357 18.9657 698.357 20.4427C698.357 22.0104 697.863 23.3786 696.877 24.5476C695.904 25.7074 694.498 26.6091 692.661 27.2524C690.823 27.8958 688.613 28.2175 686.032 28.2175H670.465ZM672.999 26.6544H686.032C688.1 26.6544 689.863 26.3916 691.323 25.866C692.796 25.3405 693.917 24.6065 694.688 23.6641C695.458 22.7217 695.843 21.6298 695.843 20.3883C695.843 18.7301 694.965 17.3754 693.208 16.3243C691.451 15.2641 689.059 14.734 686.032 14.734H672.999V26.6544Z" fill="#607367"/>
<path d="M705.234 28.2175V26.6H706.248C707.951 26.6 709.315 26.2058 710.342 25.4175C711.383 24.6291 712.16 23.3741 712.673 21.6524C713.2 19.9307 713.531 17.6654 713.667 14.8563L714.437 0.380583H737.828V28.2175H735.294V1.95728H716.869L716.16 15.332C716.011 18.2951 715.599 20.7282 714.923 22.6311C714.261 24.534 713.221 25.943 711.802 26.8583C710.383 27.7644 708.457 28.2175 706.025 28.2175H705.234Z" fill="#607367"/>
<path d="M750.954 28.2175V0.380583H774.062V1.95728H753.488V13.4971H772.826V15.0738H753.488V26.6408H774.549V28.2175H750.954Z" fill="#607367"/>
<path d="M785.708 28.2175V0.380583H788.242V13.4971H813.255V0.380583H815.789V28.2175H813.255V15.0738H788.242V28.2175H785.708Z" fill="#607367"/>
<path d="M828.935 0.380583H831.449V25.1592H831.692L858.185 0.380583H860.657V28.2175H858.124V3.46602H857.881L831.428 28.2175H828.935V0.380583Z" fill="#607367"/>
<path d="M873.779 28.2175V0.380583H896.886V1.95728H876.312V13.4971H895.65V15.0738H876.312V26.6408H897.373V28.2175H873.779Z" fill="#607367"/>
<path d="M953.923 0.380583V28.2175H951.369V1.95728H927.593V28.2175H925.059V0.380583H953.923Z" fill="#607367"/>
<path d="M966.391 0.380583H968.904V25.1592H969.147L995.64 0.380583H998.113V28.2175H995.579V3.46602H995.336L968.884 28.2175H966.391V0.380583Z" fill="#607367"/>
<path d="M1011.23 28.2175V0.380583H1024.71C1027.23 0.380583 1029.35 0.679612 1031.08 1.27767C1032.81 1.87573 1034.12 2.71392 1035.01 3.79223C1035.92 4.87055 1036.37 6.12557 1036.37 7.55728C1036.37 8.68091 1036.1 9.67767 1035.56 10.5476C1035.02 11.4175 1034.26 12.1379 1033.29 12.7087C1032.33 13.2706 1031.2 13.6602 1029.9 13.8777V14.0408C1031.33 14.1133 1032.67 14.4485 1033.9 15.0466C1035.13 15.6356 1036.11 16.4375 1036.85 17.4524C1037.61 18.4673 1037.99 19.6498 1037.99 21C1037.99 22.4227 1037.53 23.6777 1036.61 24.765C1035.71 25.8434 1034.35 26.6906 1032.54 27.3068C1030.73 27.9139 1028.48 28.2175 1025.81 28.2175H1011.23ZM1013.77 26.6408H1025.81C1028.93 26.6408 1031.33 26.1152 1033 25.0641C1034.69 24.0129 1035.54 22.6583 1035.54 21C1035.54 19.8311 1035.13 18.7845 1034.3 17.8602C1033.49 16.9359 1032.36 16.2065 1030.92 15.6718C1029.47 15.1282 1027.79 14.8563 1025.89 14.8563H1013.77V26.6408ZM1013.77 13.3068H1025.58C1027.36 13.3068 1028.86 13.0485 1030.08 12.532C1031.33 12.0155 1032.27 11.3223 1032.92 10.4524C1033.58 9.58253 1033.92 8.61748 1033.92 7.55728C1033.92 5.8356 1033.12 4.47185 1031.52 3.46602C1029.93 2.46019 1027.66 1.95728 1024.71 1.95728H1013.77V13.3068Z" fill="#607367"/>
<path d="M1047.51 28.2175H1044.83L1059.81 0.380583H1062.73L1077.71 28.2175H1075.03L1061.37 2.56893H1061.17L1047.51 28.2175ZM1051.3 17.7379H1071.24V19.3146H1051.3V17.7379Z" fill="#607367"/>
<path d="M1103.79 28.2175V0.380583H1117.27C1119.78 0.380583 1121.9 0.679612 1123.63 1.27767C1125.36 1.87573 1126.67 2.71392 1127.57 3.79223C1128.47 4.87055 1128.92 6.12557 1128.92 7.55728C1128.92 8.68091 1128.65 9.67767 1128.11 10.5476C1127.57 11.4175 1126.82 12.1379 1125.84 12.7087C1124.88 13.2706 1123.76 13.6602 1122.46 13.8777V14.0408C1123.89 14.1133 1125.22 14.4485 1126.45 15.0466C1127.68 15.6356 1128.67 16.4375 1129.41 17.4524C1130.17 18.4673 1130.55 19.6498 1130.55 21C1130.55 22.4227 1130.09 23.6777 1129.17 24.765C1128.26 25.8434 1126.9 26.6906 1125.09 27.3068C1123.28 27.9139 1121.04 28.2175 1118.36 28.2175H1103.79ZM1106.32 26.6408H1118.36C1121.49 26.6408 1123.88 26.1152 1125.56 25.0641C1127.25 24.0129 1128.09 22.6583 1128.09 21C1128.09 19.8311 1127.68 18.7845 1126.86 17.8602C1126.05 16.9359 1124.92 16.2065 1123.47 15.6718C1122.03 15.1282 1120.35 14.8563 1118.45 14.8563H1106.32V26.6408ZM1106.32 13.3068H1118.14C1119.91 13.3068 1121.41 13.0485 1122.64 12.532C1123.88 12.0155 1124.83 11.3223 1125.48 10.4524C1126.14 9.58253 1126.47 8.61748 1126.47 7.55728C1126.47 5.8356 1125.67 4.47185 1124.08 3.46602C1122.49 2.46019 1120.22 1.95728 1117.27 1.95728H1106.32V13.3068Z" fill="#607367"/>
<path d="M1141.67 28.2175V0.380583H1154.46C1157.09 0.380583 1159.35 0.743042 1161.23 1.46796C1163.12 2.19288 1164.57 3.18511 1165.58 4.44466C1166.6 5.70421 1167.1 7.14045 1167.1 8.7534C1167.1 10.3482 1166.6 11.7754 1165.58 13.035C1164.57 14.2945 1163.12 15.2913 1161.23 16.0252C1159.35 16.7502 1157.1 17.1126 1154.48 17.1126H1143.45V15.5359H1154.42C1156.55 15.5359 1158.37 15.246 1159.89 14.666C1161.4 14.077 1162.56 13.2751 1163.37 12.2602C1164.19 11.2362 1164.59 10.0673 1164.59 8.7534C1164.59 7.43042 1164.19 6.25696 1163.37 5.23301C1162.56 4.20906 1161.4 3.40712 1159.87 2.82718C1158.35 2.24725 1156.53 1.95728 1154.4 1.95728H1144.2V28.2175H1141.67Z" fill="#607367"/>
<path d="M1177.98 28.2175V0.380583H1201.09V1.95728H1180.51V13.4971H1199.85V15.0738H1180.51V26.6408H1201.57V28.2175H1177.98Z" fill="#607367"/>
<path d="M1208.46 35V26.6408H1211.05C1212.07 25.8524 1212.97 24.8783 1213.77 23.7184C1214.57 22.5495 1215.22 21.0816 1215.73 19.3146C1216.26 17.5476 1216.61 15.3819 1216.77 12.8175L1217.52 0.380583H1240.36V26.6408H1245.31V34.9049H1242.84V28.2175H1210.93V35H1208.46ZM1214.13 26.6408H1237.89V1.95728H1219.87L1219.22 12.8175C1219.09 15.0285 1218.82 16.9812 1218.41 18.6757C1218 20.3612 1217.44 21.8518 1216.73 23.1476C1216.03 24.4343 1215.16 25.5987 1214.13 26.6408Z" fill="#607367"/>
<path d="M1255.13 0.380583H1257.64V25.1592H1257.88L1284.37 0.380583H1286.85V28.2175H1284.31V3.46602H1284.07L1257.62 28.2175H1255.13V0.380583Z" fill="#607367"/>
<path d="M1297.21 1.95728V0.380583H1326.3V1.95728H1313.02V28.2175H1310.49V1.95728H1297.21Z" fill="#607367"/>
<path d="M1365.77 28.5981C1363.31 28.5981 1361.11 28.2854 1359.18 27.6602C1357.25 27.0259 1355.71 26.1605 1354.58 25.0641C1353.46 23.9586 1352.88 22.69 1352.84 21.2583H1355.41C1355.45 22.3909 1355.93 23.3922 1356.85 24.2621C1357.77 25.123 1359 25.7981 1360.54 26.2874C1362.09 26.7767 1363.82 27.0214 1365.73 27.0214C1367.79 27.0214 1369.6 26.7495 1371.16 26.2058C1372.73 25.6621 1373.95 24.9282 1374.83 24.0039C1375.71 23.0706 1376.15 22.0285 1376.15 20.8777C1376.15 19.6453 1375.67 18.567 1374.71 17.6427C1373.75 16.7094 1372.41 15.9845 1370.69 15.468C1368.98 14.9424 1366.98 14.6796 1364.71 14.6796H1363.17V13.1029H1364.71C1366.65 13.1029 1368.38 12.8673 1369.9 12.3961C1371.43 11.9159 1372.63 11.2408 1373.51 10.3709C1374.4 9.50097 1374.85 8.47249 1374.85 7.28544C1374.85 6.17087 1374.46 5.18317 1373.69 4.32233C1372.92 3.46149 1371.85 2.78641 1370.49 2.29709C1369.14 1.80777 1367.55 1.56311 1365.73 1.56311C1363.97 1.56311 1362.38 1.80324 1360.94 2.2835C1359.52 2.76375 1358.4 3.43884 1357.56 4.30874C1356.72 5.17864 1356.29 6.189 1356.28 7.33981H1353.79C1353.81 5.89903 1354.36 4.62589 1355.41 3.52039C1356.48 2.41489 1357.9 1.55405 1359.69 0.937865C1361.48 0.312622 1363.51 0 1365.77 0C1368.06 0 1370.08 0.321683 1371.81 0.965048C1373.55 1.60841 1374.9 2.47832 1375.86 3.57476C1376.83 4.6712 1377.32 5.88997 1377.32 7.23107C1377.32 8.84401 1376.65 10.2259 1375.31 11.3767C1373.99 12.5184 1372.19 13.3113 1369.92 13.7553V13.9049C1372.61 14.3036 1374.74 15.1236 1376.31 16.365C1377.88 17.6065 1378.66 19.1107 1378.66 20.8777C1378.66 22.3275 1378.1 23.6369 1377 24.8058C1375.89 25.9748 1374.36 26.899 1372.42 27.5786C1370.48 28.2583 1368.27 28.5981 1365.77 28.5981Z" fill="#607367"/>
<path d="M1386.19 35V26.6408H1388.78C1389.79 25.8524 1390.7 24.8783 1391.5 23.7184C1392.29 22.5495 1392.95 21.0816 1393.46 19.3146C1393.99 17.5476 1394.33 15.3819 1394.5 12.8175L1395.25 0.380583H1418.09V26.6408H1423.04V34.9049H1420.56V28.2175H1388.66V35H1386.19ZM1391.86 26.6408H1415.62V1.95728H1397.6L1396.95 12.8175C1396.81 15.0285 1396.54 16.9812 1396.14 18.6757C1395.73 20.3612 1395.17 21.8518 1394.46 23.1476C1393.75 24.4343 1392.89 25.5987 1391.86 26.6408Z" fill="#607367"/>
<path d="M1465.87 14.299C1465.87 17.1715 1465.13 19.6816 1463.64 21.8291C1462.16 23.9676 1460.09 25.6304 1457.44 26.8175C1454.81 28.0045 1451.76 28.5981 1448.32 28.5981C1444.86 28.5981 1441.81 28.0045 1439.16 26.8175C1436.52 25.6214 1434.46 23.954 1432.97 21.8155C1431.49 19.668 1430.74 17.1625 1430.74 14.299C1430.74 11.4265 1431.49 8.92103 1432.97 6.78252C1434.47 4.64401 1436.54 2.98123 1439.18 1.79417C1441.81 0.598058 1444.86 0 1448.32 0C1451.76 0 1454.81 0.593527 1457.44 1.78058C1460.09 2.96764 1462.16 4.63495 1463.64 6.78252C1465.13 8.92103 1465.87 11.4265 1465.87 14.299ZM1463.4 14.299C1463.4 11.7165 1462.75 9.47832 1461.45 7.58447C1460.17 5.69062 1458.39 4.22718 1456.12 3.19417C1453.85 2.1521 1451.25 1.63107 1448.32 1.63107C1445.39 1.63107 1442.79 2.14757 1440.52 3.18058C1438.24 4.20453 1436.46 5.66796 1435.16 7.57087C1433.88 9.46473 1433.24 11.7074 1433.24 14.299C1433.24 16.8634 1433.87 19.0971 1435.14 21C1436.43 22.8939 1438.2 24.3618 1440.47 25.4039C1442.74 26.446 1445.36 26.967 1448.32 26.967C1451.25 26.967 1453.85 26.4505 1456.12 25.4175C1458.39 24.3754 1460.17 22.9074 1461.45 21.0136C1462.75 19.1197 1463.4 16.8816 1463.4 14.299Z" fill="#607367"/>
<path d="M1476.92 28.2175V0.380583H1489.71C1492.34 0.380583 1494.6 0.743042 1496.48 1.46796C1498.37 2.19288 1499.82 3.18511 1500.83 4.44466C1501.85 5.70421 1502.35 7.14045 1502.35 8.7534C1502.35 10.3482 1501.85 11.7754 1500.83 13.035C1499.82 14.2945 1498.37 15.2913 1496.48 16.0252C1494.6 16.7502 1492.35 17.1126 1489.73 17.1126H1478.7V15.5359H1489.67C1491.8 15.5359 1493.63 15.246 1495.14 14.666C1496.65 14.077 1497.81 13.2751 1498.63 12.2602C1499.44 11.2362 1499.84 10.0673 1499.84 8.7534C1499.84 7.43042 1499.44 6.25696 1498.63 5.23301C1497.81 4.20906 1496.65 3.40712 1495.12 2.82718C1493.6 2.24725 1491.78 1.95728 1489.65 1.95728H1479.45V28.2175H1476.92Z" fill="#607367"/>
<path d="M1546.25 14.299C1546.25 17.1715 1545.51 19.6816 1544.02 21.8291C1542.53 23.9676 1540.47 25.6304 1537.82 26.8175C1535.18 28.0045 1532.14 28.5981 1528.7 28.5981C1525.24 28.5981 1522.18 28.0045 1519.53 26.8175C1516.9 25.6214 1514.84 23.954 1513.35 21.8155C1511.87 19.668 1511.12 17.1625 1511.12 14.299C1511.12 11.4265 1511.87 8.92103 1513.35 6.78252C1514.85 4.64401 1516.92 2.98123 1519.56 1.79417C1522.19 0.598058 1525.24 0 1528.7 0C1532.14 0 1535.18 0.593527 1537.82 1.78058C1540.47 2.96764 1542.53 4.63495 1544.02 6.78252C1545.51 8.92103 1546.25 11.4265 1546.25 14.299ZM1543.78 14.299C1543.78 11.7165 1543.13 9.47832 1541.83 7.58447C1540.55 5.69062 1538.77 4.22718 1536.5 3.19417C1534.23 2.1521 1531.63 1.63107 1528.7 1.63107C1525.76 1.63107 1523.16 2.14757 1520.89 3.18058C1518.62 4.20453 1516.84 5.66796 1515.54 7.57087C1514.26 9.46473 1513.62 11.7074 1513.62 14.299C1513.62 16.8634 1514.25 19.0971 1515.52 21C1516.81 22.8939 1518.58 24.3618 1520.85 25.4039C1523.12 26.446 1525.74 26.967 1528.7 26.967C1531.63 26.967 1534.23 26.4505 1536.5 25.4175C1538.77 24.3754 1540.55 22.9074 1541.83 21.0136C1543.13 19.1197 1543.78 16.8816 1543.78 14.299Z" fill="#607367"/>
<path d="M1557.29 28.2175V0.380583H1570.77C1573.29 0.380583 1575.41 0.679612 1577.14 1.27767C1578.87 1.87573 1580.18 2.71392 1581.07 3.79223C1581.98 4.87055 1582.43 6.12557 1582.43 7.55728C1582.43 8.68091 1582.16 9.67767 1581.62 10.5476C1581.08 11.4175 1580.32 12.1379 1579.35 12.7087C1578.39 13.2706 1577.26 13.6602 1575.96 13.8777V14.0408C1577.39 14.1133 1578.73 14.4485 1579.96 15.0466C1581.19 15.6356 1582.17 16.4375 1582.91 17.4524C1583.67 18.4673 1584.05 19.6498 1584.05 21C1584.05 22.4227 1583.59 23.6777 1582.67 24.765C1581.77 25.8434 1580.41 26.6906 1578.6 27.3068C1576.79 27.9139 1574.54 28.2175 1571.87 28.2175H1557.29ZM1559.83 26.6408H1571.87C1574.99 26.6408 1577.39 26.1152 1579.06 25.0641C1580.75 24.0129 1581.6 22.6583 1581.6 21C1581.6 19.8311 1581.19 18.7845 1580.36 17.8602C1579.55 16.9359 1578.42 16.2065 1576.98 15.6718C1575.53 15.1282 1573.85 14.8563 1571.95 14.8563H1559.83V26.6408ZM1559.83 13.3068H1571.64C1573.42 13.3068 1574.91 13.0485 1576.14 12.532C1577.39 12.0155 1578.33 11.3223 1578.98 10.4524C1579.64 9.58253 1579.98 8.61748 1579.98 7.55728C1579.98 5.8356 1579.18 4.47185 1577.58 3.46602C1575.99 2.46019 1573.72 1.95728 1570.77 1.95728H1559.83V13.3068Z" fill="#607367"/>
<path d="M1596.89 13.1573H1610.74C1613.29 13.1573 1615.49 13.4563 1617.32 14.0544C1619.18 14.6524 1620.59 15.4997 1621.58 16.5961C1622.57 17.6835 1623.06 18.9657 1623.06 20.4427C1623.06 22.0104 1622.57 23.3786 1621.58 24.5476C1620.61 25.7165 1619.2 26.6227 1617.36 27.266C1615.53 27.9003 1613.32 28.2175 1610.74 28.2175H1595.17V0.380583H1597.7V26.6544H1610.74C1612.8 26.6544 1614.57 26.3916 1616.03 25.866C1617.5 25.3405 1618.62 24.6065 1619.39 23.6641C1620.16 22.7217 1620.55 21.6298 1620.55 20.3883C1620.56 18.7301 1619.68 17.3754 1617.91 16.3243C1616.16 15.2641 1613.76 14.734 1610.74 14.734H1596.89V13.1573Z" fill="#607367"/>
<path d="M1636.14 0.394175V28.2311H1633.6V0.394175H1636.14ZM1645.89 13.932V15.5087H1634.43V13.932H1645.89ZM1680 14.299C1680 17.1715 1679.26 19.6816 1677.77 21.8291C1676.28 23.9676 1674.22 25.6304 1671.57 26.8175C1668.93 28.0045 1665.89 28.5981 1662.45 28.5981C1658.99 28.5981 1655.93 28.0045 1653.28 26.8175C1650.65 25.6214 1648.59 23.954 1647.1 21.8155C1645.62 19.668 1644.87 17.1625 1644.87 14.299C1644.87 11.4265 1645.62 8.92103 1647.1 6.78252C1648.6 4.64401 1650.67 2.98123 1653.3 1.79417C1655.94 0.598058 1658.99 0 1662.45 0C1665.89 0 1668.93 0.593527 1671.57 1.78058C1674.22 2.96764 1676.28 4.63495 1677.77 6.78252C1679.26 8.92103 1680 11.4265 1680 14.299ZM1677.53 14.299C1677.53 11.7165 1676.88 9.47832 1675.58 7.58447C1674.3 5.69062 1672.52 4.22718 1670.25 3.19417C1667.98 2.1521 1665.38 1.63107 1662.45 1.63107C1659.51 1.63107 1656.91 2.14757 1654.64 3.18058C1652.37 4.20453 1650.59 5.66796 1649.29 7.57087C1648.01 9.46473 1647.37 11.7074 1647.37 14.299C1647.37 16.8634 1648 19.0971 1649.27 21C1650.55 22.8939 1652.33 24.3618 1654.6 25.4039C1656.87 26.446 1659.49 26.967 1662.45 26.967C1665.38 26.967 1667.98 26.4505 1670.25 25.4175C1672.52 24.3754 1674.3 22.9074 1675.58 21.0136C1676.88 19.1197 1677.53 16.8816 1677.53 14.299Z" fill="#607367"/>
</svg>
