<svg width="324" height="43" viewBox="0 0 324 43" fill="none" xmlns="http://www.w3.org/2000/svg">
<path d="M0 0.188469H0.959283V4.71845C0.959283 5.46783 1.10647 6.0826 1.40086 6.56275C1.69524 7.0384 2.12666 7.39066 2.69513 7.61952C3.26867 7.84837 3.97163 7.9628 4.80403 7.9628C5.21007 7.9628 5.6212 7.94485 6.03739 7.90895C6.45359 7.87305 6.86979 7.82145 7.28598 7.75414C7.70725 7.68683 8.12599 7.60605 8.54219 7.51182C8.95838 7.4131 9.36697 7.30316 9.76794 7.182V7.98972C9.32129 8.11537 8.88733 8.22755 8.46605 8.32627C8.04986 8.42051 7.63873 8.49904 7.23269 8.56186C6.83172 8.62468 6.43075 8.6718 6.02978 8.70321C5.63388 8.73462 5.23291 8.75033 4.82687 8.75033C3.78638 8.74584 2.90576 8.6 2.18503 8.31281C1.46938 8.02113 0.926292 7.57913 0.555775 6.9868C0.185258 6.38998 0 5.63386 0 4.71845V0.188469ZM9.64612 0.188469H10.5521V13.9736H9.64612V0.188469Z" fill="#B59B81"/>
<path d="M15.4899 13.9736V0.188469H20.2939C21.2837 0.188469 22.1313 0.367962 22.8368 0.72695C23.5474 1.08594 24.093 1.5773 24.4737 2.20104C24.8543 2.82478 25.0447 3.53603 25.0447 4.33478C25.0447 5.12455 24.8543 5.83131 24.4737 6.45505C24.093 7.07879 23.5474 7.5724 22.8368 7.93587C22.1313 8.29486 21.2862 8.47435 20.3015 8.47435H16.1599V7.69356H20.2787C21.0806 7.69356 21.7659 7.54996 22.3343 7.26277C22.9028 6.97109 23.3393 6.57396 23.6438 6.07138C23.9483 5.56431 24.1006 4.98544 24.1006 4.33478C24.1006 3.67962 23.9483 3.09851 23.6438 2.59144C23.3393 2.08437 22.9002 1.68724 22.3267 1.40005C21.7582 1.11286 21.073 0.969267 20.2711 0.969267H16.4416V13.9736H15.4899Z" fill="#B59B81"/>
<path d="M29.1298 13.9736V0.188469H37.809V0.969267H30.0814V6.6839H37.3446V7.4647H30.0814V13.1928H37.9917V13.9736H29.1298Z" fill="#B59B81"/>
<path d="M46.6524 14.1621C45.7287 14.1621 44.9039 14.0073 44.1781 13.6976C43.4523 13.3835 42.8762 12.955 42.4499 12.412C42.0286 11.8645 41.8103 11.2363 41.7951 10.5273H42.762C42.7772 11.0882 42.9574 11.5841 43.3026 12.0149C43.6477 12.4412 44.1096 12.7755 44.6882 13.0178C45.2719 13.2601 45.9216 13.3813 46.6372 13.3813C47.4138 13.3813 48.0939 13.2466 48.6776 12.9774C49.2664 12.7082 49.7257 12.3447 50.0556 11.887C50.3855 11.4248 50.5505 10.9087 50.5505 10.3388C50.5505 9.72857 50.3703 9.19457 50.0099 8.73687C49.6496 8.27467 49.1471 7.91568 48.5025 7.6599C47.8579 7.39964 47.1092 7.2695 46.2565 7.2695H45.6779V6.4887H46.2565C46.9824 6.4887 47.632 6.37203 48.2056 6.13869C48.7791 5.90086 49.2308 5.56655 49.5607 5.13577C49.8957 4.70498 50.0632 4.19567 50.0632 3.60783C50.0632 3.05588 49.9186 2.56676 49.6293 2.14046C49.34 1.71417 48.939 1.37986 48.4264 1.13754C47.9188 0.895226 47.3224 0.774067 46.6372 0.774067C45.9774 0.774067 45.3785 0.892982 44.8405 1.13081C44.3075 1.36864 43.8837 1.70295 43.569 2.13373C43.2543 2.56452 43.0945 3.06486 43.0894 3.63475H42.1529C42.1631 2.92126 42.3661 2.29079 42.762 1.74333C43.163 1.19588 43.6985 0.76958 44.3684 0.464441C45.0435 0.154814 45.8048 0 46.6524 0C47.5153 0 48.2715 0.159301 48.9212 0.477902C49.576 0.796504 50.0835 1.22729 50.4439 1.77026C50.8093 2.31323 50.9921 2.91678 50.9921 3.5809C50.9921 4.37965 50.7408 5.06397 50.2383 5.63386C49.7409 6.19927 49.0659 6.59191 48.2132 6.81179V6.88583C49.2232 7.08328 50.0226 7.48938 50.6114 8.10415C51.2002 8.71892 51.4945 9.46382 51.4945 10.3388C51.4945 11.0568 51.2864 11.7052 50.8702 12.2841C50.454 12.863 49.8805 13.3207 49.1496 13.6572C48.4238 13.9938 47.5914 14.1621 46.6524 14.1621Z" fill="#B59B81"/>
<path d="M55.9279 0.188469H56.9634L62.9703 12.762H63.0769L69.0838 0.188469H70.1192V13.9736H69.2056V2.18758H69.1143L63.4728 13.9736H62.5744L56.9329 2.18758H56.8415V13.9736H55.9279V0.188469Z" fill="#B59B81"/>
<path d="M75.0532 13.9736V0.188469H83.7325V0.969267H76.0049V6.6839H83.268V7.4647H76.0049V13.1928H83.9152V13.9736H75.0532Z" fill="#B59B81"/>
<path d="M88.1069 13.9736V0.188469H92.9109C93.9006 0.188469 94.7482 0.367962 95.4538 0.72695C96.1643 1.08594 96.71 1.5773 97.0906 2.20104C97.4713 2.82478 97.6616 3.53603 97.6616 4.33478C97.6616 5.12455 97.4713 5.83131 97.0906 6.45505C96.71 7.07879 96.1643 7.5724 95.4538 7.93587C94.7482 8.29486 93.9032 8.47435 92.9185 8.47435H88.7768V7.69356H92.8957C93.6976 7.69356 94.3828 7.54996 94.9513 7.26277C95.5197 6.97109 95.9562 6.57396 96.2608 6.07138C96.5653 5.56431 96.7176 4.98544 96.7176 4.33478C96.7176 3.67962 96.5653 3.09851 96.2608 2.59144C95.9562 2.08437 95.5172 1.68724 94.9437 1.40005C94.3752 1.11286 93.69 0.969267 92.8881 0.969267H89.0585V13.9736H88.1069Z" fill="#B59B81"/>
<path d="M101.747 13.9736V0.188469H102.698V6.6839H112.093V0.188469H113.045V13.9736H112.093V7.4647H102.698V13.9736H101.747Z" fill="#B59B81"/>
<path d="M130.385 7.08103C130.385 8.50352 130.106 9.74652 129.547 10.81C128.989 11.869 128.213 12.6925 127.218 13.2803C126.228 13.8681 125.086 14.1621 123.792 14.1621C122.492 14.1621 121.345 13.8681 120.35 13.2803C119.361 12.688 118.587 11.8623 118.028 10.8033C117.47 9.73979 117.191 8.49904 117.191 7.08103C117.191 5.65854 117.47 4.41779 118.028 3.35878C118.592 2.29977 119.368 1.47634 120.358 0.888495C121.348 0.296165 122.492 0 123.792 0C125.086 0 126.228 0.293921 127.218 0.881763C128.213 1.46961 128.989 2.29528 129.547 3.35878C130.106 4.41779 130.385 5.65854 130.385 7.08103ZM129.456 7.08103C129.456 5.80214 129.212 4.69377 128.725 3.75591C128.243 2.81805 127.576 2.09335 126.723 1.58179C125.87 1.06574 124.893 0.807722 123.792 0.807722C122.69 0.807722 121.713 1.0635 120.861 1.57506C120.008 2.08213 119.338 2.80684 118.851 3.74918C118.368 4.68703 118.127 5.79765 118.127 7.08103C118.127 8.35095 118.366 9.45708 118.843 10.3994C119.325 11.3373 119.993 12.0642 120.845 12.5803C121.698 13.0963 122.68 13.3543 123.792 13.3543C124.893 13.3543 125.87 13.0986 126.723 12.587C127.576 12.071 128.243 11.344 128.725 10.4062C129.212 9.4683 129.456 8.35993 129.456 7.08103Z" fill="#B59B81"/>
<path d="M134.533 13.9736V0.188469H143.212V0.969267H135.484V6.6839H142.748V7.4647H135.484V13.1928H143.395V13.9736H134.533Z" fill="#B59B81"/>
<path d="M154.296 14.1621V13.3611H154.89C155.382 13.3611 155.791 13.305 156.116 13.1928C156.446 13.0806 156.72 12.9056 156.938 12.6678C157.156 12.4255 157.352 12.1158 157.524 11.7389L157.798 11.1466L152.461 0.188469H153.489L158.286 10.0965L162.762 0.188469H163.767L158.4 12.0081C158.177 12.4883 157.925 12.8877 157.646 13.2063C157.367 13.5249 157.012 13.7649 156.58 13.9265C156.154 14.0835 155.603 14.1621 154.928 14.1621H154.296Z" fill="#B59B81"/>
<path d="M177.71 0.188469V13.9736H176.75V0.969267H167.82V13.9736H166.868V0.188469H177.71Z" fill="#B59B81"/>
<path d="M194.795 7.08103C194.795 8.50352 194.516 9.74652 193.957 10.81C193.399 11.869 192.622 12.6925 191.628 13.2803C190.638 13.8681 189.496 14.1621 188.202 14.1621C186.902 14.1621 185.755 13.8681 184.76 13.2803C183.771 12.688 182.997 11.8623 182.438 10.8033C181.88 9.73979 181.601 8.49904 181.601 7.08103C181.601 5.65854 181.88 4.41779 182.438 3.35878C183.002 2.29977 183.778 1.47634 184.768 0.888495C185.758 0.296165 186.902 0 188.202 0C189.496 0 190.638 0.293921 191.628 0.881763C192.622 1.46961 193.399 2.29528 193.957 3.35878C194.516 4.41779 194.795 5.65854 194.795 7.08103ZM193.866 7.08103C193.866 5.80214 193.622 4.69377 193.135 3.75591C192.653 2.81805 191.985 2.09335 191.133 1.58179C190.28 1.06574 189.303 0.807722 188.202 0.807722C187.1 0.807722 186.123 1.0635 185.27 1.57506C184.418 2.08213 183.748 2.80684 183.26 3.74918C182.778 4.68703 182.537 5.79765 182.537 7.08103C182.537 8.35095 182.776 9.45708 183.253 10.3994C183.735 11.3373 184.402 12.0642 185.255 12.5803C186.108 13.0963 187.09 13.3543 188.202 13.3543C189.303 13.3543 190.28 13.0986 191.133 12.587C191.985 12.071 192.653 11.344 193.135 10.4062C193.622 9.4683 193.866 8.35993 193.866 7.08103Z" fill="#B59B81"/>
<path d="M197.258 0.969267V0.188469H208.183V0.969267H203.197V13.9736H202.245V0.969267H197.258Z" fill="#B59B81"/>
<path d="M212.08 13.9736V0.188469H216.884C217.874 0.188469 218.721 0.367962 219.427 0.72695C220.137 1.08594 220.683 1.5773 221.064 2.20104C221.444 2.82478 221.635 3.53603 221.635 4.33478C221.635 5.12455 221.444 5.83131 221.064 6.45505C220.683 7.07879 220.137 7.5724 219.427 7.93587C218.721 8.29486 217.876 8.47435 216.892 8.47435H212.75V7.69356H216.869C217.671 7.69356 218.356 7.54996 218.924 7.26277C219.493 6.97109 219.929 6.57396 220.234 6.07138C220.538 5.56431 220.691 4.98544 220.691 4.33478C220.691 3.67962 220.538 3.09851 220.234 2.59144C219.929 2.08437 219.49 1.68724 218.917 1.40005C218.348 1.11286 217.663 0.969267 216.861 0.969267H213.032V13.9736H212.08Z" fill="#B59B81"/>
<path d="M225.72 13.9736V0.188469H234.399V0.969267H226.671V6.6839H233.935V7.4647H226.671V13.1928H234.582V13.9736H225.72Z" fill="#B59B81"/>
<path d="M238.773 13.9736V0.188469H247.552V0.969267H239.725V6.51563H244.621C245.58 6.51563 246.405 6.66595 247.095 6.96661C247.79 7.26277 248.323 7.68009 248.694 8.21858C249.064 8.75706 249.249 9.39202 249.249 10.1235C249.249 10.8998 249.064 11.5774 248.694 12.1562C248.328 12.7306 247.8 13.1771 247.11 13.4957C246.42 13.8143 245.59 13.9736 244.621 13.9736H238.773ZM239.725 13.1995H244.621C245.397 13.1995 246.059 13.0694 246.608 12.8091C247.161 12.5489 247.582 12.1854 247.871 11.7187C248.161 11.252 248.305 10.7113 248.305 10.0965C248.305 9.27535 247.975 8.60449 247.316 8.08396C246.656 7.55894 245.757 7.29643 244.621 7.29643H239.725V13.1995Z" fill="#B59B81"/>
<path d="M251.833 13.9736V13.1726H252.213C252.853 13.1726 253.366 12.9774 253.751 12.587C254.142 12.1966 254.434 11.5751 254.627 10.7225C254.825 9.86992 254.949 8.74808 255 7.35701L255.289 0.188469H264.075V13.9736H263.123V0.969267H256.203L255.936 7.59259C255.881 9.05995 255.726 10.2648 255.472 11.2071C255.223 12.1495 254.832 12.8473 254.3 13.3005C253.767 13.7492 253.043 13.9736 252.13 13.9736H251.833Z" fill="#B59B81"/>
<path d="M269.005 13.9736V0.188469H277.684V0.969267H269.957V6.6839H277.22V7.4647H269.957V13.1928H277.867V13.9736H269.005Z" fill="#B59B81"/>
<path d="M282.059 13.9736V0.188469H283.011V6.6839H292.405V0.188469H293.357V13.9736H292.405V7.4647H283.011V13.9736H282.059Z" fill="#B59B81"/>
<path d="M298.295 0.188469H299.239V12.4591H299.33L309.281 0.188469H310.21V13.9736H309.258V1.71641H309.167L299.231 13.9736H298.295V0.188469Z" fill="#B59B81"/>
<path d="M315.138 13.9736V0.188469H323.817V0.969267H316.09V6.6839H323.353V7.4647H316.09V13.1928H324V13.9736H315.138Z" fill="#B59B81"/>
<path d="M34.2764 25.8561V39.6412H33.3171V26.6369H24.3867V39.6412H23.435V25.8561H34.2764Z" fill="#B59B81"/>
<path d="M38.9592 25.8561H39.9032V38.1267H39.9946L49.9452 25.8561H50.8741V39.6412H49.9224V27.384H49.831L39.8956 39.6412H38.9592V25.8561Z" fill="#B59B81"/>
<path d="M55.8023 39.6412V25.8561H60.8652C61.8093 25.8561 62.6061 26.0042 63.2558 26.3003C63.9055 26.5965 64.3978 27.0116 64.7328 27.5456C65.0729 28.0796 65.2429 28.7011 65.2429 29.4101C65.2429 29.9665 65.1414 30.4601 64.9384 30.8909C64.7353 31.3217 64.4511 31.6784 64.0857 31.9611C63.7253 32.2393 63.3015 32.4323 62.8142 32.54V32.6208C63.3522 32.6567 63.8522 32.8227 64.3141 33.1189C64.7759 33.4105 65.1465 33.8077 65.4256 34.3103C65.7098 34.8128 65.852 35.3984 65.852 36.0671C65.852 36.7716 65.6794 37.3931 65.3343 37.9315C64.9942 38.4655 64.4841 38.8851 63.804 39.1902C63.1238 39.4909 62.2813 39.6412 61.2763 39.6412H55.8023ZM56.754 38.8604H61.2763C62.4488 38.8604 63.3497 38.6002 63.9791 38.0796C64.6135 37.5591 64.9307 36.8882 64.9307 36.0671C64.9307 35.4882 64.7759 34.9699 64.4663 34.5122C64.1618 34.0545 63.738 33.6932 63.1949 33.4285C62.6518 33.1593 62.0224 33.0246 61.3068 33.0246H56.754V38.8604ZM56.754 32.2573H61.1926C61.8575 32.2573 62.4209 32.1294 62.8828 31.8736C63.3497 31.6178 63.705 31.2746 63.9486 30.8438C64.1973 30.413 64.3217 29.9351 64.3217 29.4101C64.3217 28.5575 64.0222 27.8821 63.4233 27.384C62.8244 26.8859 61.9717 26.6369 60.8652 26.6369H56.754V32.2573Z" fill="#B59B81"/>
<path d="M69.427 39.6412H68.422L74.0483 25.8561H75.1446L80.7709 39.6412H79.7659L74.6345 26.9398H74.5584L69.427 39.6412ZM70.8507 34.4516H78.3422V35.2324H70.8507V34.4516Z" fill="#B59B81"/>
<path d="M90.5665 39.6412V25.8561H95.6294C96.5735 25.8561 97.3703 26.0042 98.02 26.3003C98.6697 26.5965 99.162 27.0116 99.497 27.5456C99.8371 28.0796 100.007 28.7011 100.007 29.4101C100.007 29.9665 99.9056 30.4601 99.7025 30.8909C99.4995 31.3217 99.2153 31.6784 98.8499 31.9611C98.4895 32.2393 98.0657 32.4323 97.5784 32.54V32.6208C98.1164 32.6567 98.6164 32.8227 99.0783 33.1189C99.5401 33.4105 99.9106 33.8077 100.19 34.3103C100.474 34.8128 100.616 35.3984 100.616 36.0671C100.616 36.7716 100.444 37.3931 100.098 37.9315C99.7584 38.4655 99.2483 38.8851 98.5682 39.1902C97.888 39.4909 97.0455 39.6412 96.0405 39.6412H90.5665ZM91.5182 38.8604H96.0405C97.213 38.8604 98.1139 38.6002 98.7433 38.0796C99.3777 37.5591 99.6949 36.8882 99.6949 36.0671C99.6949 35.4882 99.5401 34.9699 99.2305 34.5122C98.926 34.0545 98.5022 33.6932 97.9591 33.4285C97.416 33.1593 96.7866 33.0246 96.071 33.0246H91.5182V38.8604ZM91.5182 32.2573H95.9568C96.6217 32.2573 97.1851 32.1294 97.6469 31.8736C98.1139 31.6178 98.4692 31.2746 98.7128 30.8438C98.9615 30.413 99.0859 29.9351 99.0859 29.4101C99.0859 28.5575 98.7864 27.8821 98.1875 27.384C97.5886 26.8859 96.7359 26.6369 95.6294 26.6369H91.5182V32.2573Z" fill="#B59B81"/>
<path d="M104.793 39.6412V25.8561H109.597C110.586 25.8561 111.434 26.0356 112.139 26.3946C112.85 26.7536 113.396 27.2449 113.776 27.8687C114.157 28.4924 114.347 29.2037 114.347 30.0024C114.347 30.7922 114.157 31.4989 113.776 32.1227C113.396 32.7464 112.85 33.24 112.139 33.6035C111.434 33.9625 110.589 34.142 109.604 34.142H105.463V33.3612H109.581C110.383 33.3612 111.069 33.2176 111.637 32.9304C112.205 32.6387 112.642 32.2416 112.947 31.739C113.251 31.2319 113.403 30.6531 113.403 30.0024C113.403 29.3472 113.251 28.7661 112.947 28.2591C112.642 27.752 112.203 27.3549 111.629 27.0677C111.061 26.7805 110.376 26.6369 109.574 26.6369H105.744V39.6412H104.793Z" fill="#B59B81"/>
<path d="M118.432 39.6412V25.8561H127.112V26.6369H119.384V32.3515H126.647V33.1323H119.384V38.8604H127.294V39.6412H118.432Z" fill="#B59B81"/>
<path d="M129.88 43V38.8604H130.854C131.235 38.47 131.575 37.9876 131.874 37.4133C132.174 36.8344 132.42 36.1074 132.613 35.2324C132.811 34.3574 132.94 33.2849 133.001 32.015L133.283 25.8561H141.863V38.8604H143.721V42.9529H142.792V39.6412H130.809V43H129.88ZM132.011 38.8604H140.934V26.6369H134.166L133.922 32.015C133.872 33.1099 133.77 34.0769 133.618 34.916C133.466 35.7507 133.255 36.4889 132.986 37.1306C132.722 37.7678 132.397 38.3444 132.011 38.8604Z" fill="#B59B81"/>
<path d="M147.408 25.8561H148.352V38.1267H148.443L158.394 25.8561H159.323V39.6412H158.371V27.384H158.28L148.345 39.6412H147.408V25.8561Z" fill="#B59B81"/>
<path d="M163.216 26.6369V25.8561H174.141V26.6369H169.154V39.6412H168.203V26.6369H163.216Z" fill="#B59B81"/>
<path d="M188.965 39.8297C188.042 39.8297 187.217 39.6749 186.491 39.3653C185.765 39.0511 185.189 38.6226 184.763 38.0796C184.341 37.5322 184.123 36.9039 184.108 36.1949H185.075C185.09 36.7559 185.27 37.2517 185.615 37.6825C185.961 38.1088 186.422 38.4431 187.001 38.6854C187.585 38.9277 188.234 39.0489 188.95 39.0489C189.727 39.0489 190.407 38.9143 190.99 38.645C191.579 38.3758 192.039 38.0123 192.368 37.5546C192.698 37.0924 192.863 36.5764 192.863 36.0065C192.863 35.3962 192.683 34.8622 192.323 34.4045C191.962 33.9423 191.46 33.5833 190.815 33.3275C190.171 33.0673 189.422 32.9371 188.569 32.9371H187.991V32.1563H188.569C189.295 32.1563 189.945 32.0397 190.518 31.8063C191.092 31.5685 191.544 31.2342 191.874 30.8034C192.209 30.3726 192.376 29.8633 192.376 29.2755C192.376 28.7235 192.231 28.2344 191.942 27.8081C191.653 27.3818 191.252 27.0475 190.739 26.8052C190.232 26.5629 189.635 26.4417 188.95 26.4417C188.29 26.4417 187.691 26.5606 187.153 26.7984C186.62 27.0363 186.197 27.3706 185.882 27.8014C185.567 28.2321 185.407 28.7325 185.402 29.3024H184.466C184.476 28.5889 184.679 27.9584 185.075 27.411C185.476 26.8635 186.011 26.4372 186.681 26.1321C187.356 25.8224 188.118 25.6676 188.965 25.6676C189.828 25.6676 190.584 25.8269 191.234 26.1455C191.889 26.4641 192.396 26.8949 192.757 27.4379C193.122 27.9809 193.305 28.5844 193.305 29.2485C193.305 30.0473 193.054 30.7316 192.551 31.3015C192.054 31.8669 191.379 32.2595 190.526 32.4794V32.5535C191.536 32.7509 192.335 33.157 192.924 33.7718C193.513 34.3865 193.807 35.1314 193.807 36.0065C193.807 36.7244 193.599 37.3729 193.183 37.9517C192.767 38.5306 192.193 38.9883 191.462 39.3249C190.737 39.6614 189.904 39.8297 188.965 39.8297Z" fill="#B59B81"/>
<path d="M196.634 43V38.8604H197.609C197.99 38.47 198.33 37.9876 198.629 37.4133C198.929 36.8344 199.175 36.1074 199.368 35.2324C199.566 34.3574 199.695 33.2849 199.756 32.015L200.038 25.8561H208.618V38.8604H210.475V42.9529H209.547V39.6412H197.563V43H196.634ZM198.766 38.8604H207.689V26.6369H200.921L200.677 32.015C200.626 33.1099 200.525 34.0769 200.373 34.916C200.22 35.7507 200.01 36.4889 199.741 37.1306C199.477 37.7678 199.152 38.3444 198.766 38.8604Z" fill="#B59B81"/>
<path d="M226.565 32.7487C226.565 34.1711 226.286 35.4141 225.727 36.4776C225.169 37.5367 224.393 38.3601 223.398 38.9479C222.408 39.5358 221.266 39.8297 219.972 39.8297C218.672 39.8297 217.525 39.5358 216.53 38.9479C215.541 38.3556 214.767 37.5299 214.208 36.4709C213.65 35.4074 213.371 34.1667 213.371 32.7487C213.371 31.3262 213.65 30.0854 214.208 29.0264C214.772 27.9674 215.548 27.144 216.538 26.5561C217.528 25.9638 218.672 25.6676 219.972 25.6676C221.266 25.6676 222.408 25.9615 223.398 26.5494C224.393 27.1372 225.169 27.9629 225.727 29.0264C226.286 30.0854 226.565 31.3262 226.565 32.7487ZM225.636 32.7487C225.636 31.4698 225.392 30.3614 224.905 29.4235C224.423 28.4857 223.756 27.761 222.903 27.2494C222.05 26.7334 221.073 26.4753 219.972 26.4753C218.87 26.4753 217.893 26.7311 217.041 27.2427C216.188 27.7498 215.518 28.4745 215.031 29.4168C214.548 30.3547 214.307 31.4653 214.307 32.7487C214.307 34.0186 214.546 35.1247 215.023 36.0671C215.505 37.0049 216.173 37.7319 217.025 38.2479C217.878 38.7639 218.86 39.022 219.972 39.022C221.073 39.022 222.05 38.7662 222.903 38.2546C223.756 37.7386 224.423 37.0116 224.905 36.0738C225.392 35.1359 225.636 34.0276 225.636 32.7487Z" fill="#B59B81"/>
<path d="M230.713 39.6412V25.8561H235.517C236.507 25.8561 237.354 26.0356 238.06 26.3946C238.77 26.7536 239.316 27.2449 239.697 27.8687C240.077 28.4924 240.268 29.2037 240.268 30.0024C240.268 30.7922 240.077 31.4989 239.697 32.1227C239.316 32.7464 238.77 33.24 238.06 33.6035C237.354 33.9625 236.509 34.142 235.524 34.142H231.383V33.3612H235.502C236.304 33.3612 236.989 33.2176 237.557 32.9304C238.126 32.6387 238.562 32.2416 238.867 31.739C239.171 31.2319 239.324 30.6531 239.324 30.0024C239.324 29.3472 239.171 28.7661 238.867 28.2591C238.562 27.752 238.123 27.3549 237.55 27.0677C236.981 26.7805 236.296 26.6369 235.494 26.6369H231.664V39.6412H230.713Z" fill="#B59B81"/>
<path d="M256.755 32.7487C256.755 34.1711 256.476 35.4141 255.917 36.4776C255.359 37.5367 254.582 38.3601 253.588 38.9479C252.598 39.5358 251.456 39.8297 250.162 39.8297C248.862 39.8297 247.715 39.5358 246.72 38.9479C245.731 38.3556 244.957 37.5299 244.398 36.4709C243.84 35.4074 243.561 34.1667 243.561 32.7487C243.561 31.3262 243.84 30.0854 244.398 29.0264C244.962 27.9674 245.738 27.144 246.728 26.5561C247.718 25.9638 248.862 25.6676 250.162 25.6676C251.456 25.6676 252.598 25.9615 253.588 26.5494C254.582 27.1372 255.359 27.9629 255.917 29.0264C256.476 30.0854 256.755 31.3262 256.755 32.7487ZM255.826 32.7487C255.826 31.4698 255.582 30.3614 255.095 29.4235C254.613 28.4857 253.945 27.761 253.093 27.2494C252.24 26.7334 251.263 26.4753 250.162 26.4753C249.06 26.4753 248.083 26.7311 247.231 27.2427C246.378 27.7498 245.708 28.4745 245.221 29.4168C244.738 30.3547 244.497 31.4653 244.497 32.7487C244.497 34.0186 244.736 35.1247 245.213 36.0671C245.695 37.0049 246.363 37.7319 247.215 38.2479C248.068 38.7639 249.05 39.022 250.162 39.022C251.263 39.022 252.24 38.7662 253.093 38.2546C253.945 37.7386 254.613 37.0116 255.095 36.0738C255.582 35.1359 255.826 34.0276 255.826 32.7487Z" fill="#B59B81"/>
<path d="M260.903 39.6412V25.8561H265.966C266.91 25.8561 267.707 26.0042 268.356 26.3003C269.006 26.5965 269.498 27.0116 269.833 27.5456C270.173 28.0796 270.343 28.7011 270.343 29.4101C270.343 29.9665 270.242 30.4601 270.039 30.8909C269.836 31.3217 269.552 31.6784 269.186 31.9611C268.826 32.2393 268.402 32.4323 267.915 32.54V32.6208C268.453 32.6567 268.953 32.8227 269.414 33.1189C269.876 33.4105 270.247 33.8077 270.526 34.3103C270.81 34.8128 270.952 35.3984 270.952 36.0671C270.952 36.7716 270.78 37.3931 270.435 37.9315C270.095 38.4655 269.584 38.8851 268.904 39.1902C268.224 39.4909 267.382 39.6412 266.377 39.6412H260.903ZM261.854 38.8604H266.377C267.549 38.8604 268.45 38.6002 269.079 38.0796C269.714 37.5591 270.031 36.8882 270.031 36.0671C270.031 35.4882 269.876 34.9699 269.567 34.5122C269.262 34.0545 268.838 33.6932 268.295 33.4285C267.752 33.1593 267.123 33.0246 266.407 33.0246H261.854V38.8604ZM261.854 32.2573H266.293C266.958 32.2573 267.521 32.1294 267.983 31.8736C268.45 31.6178 268.805 31.2746 269.049 30.8438C269.298 30.413 269.422 29.9351 269.422 29.4101C269.422 28.5575 269.123 27.8821 268.524 27.384C267.925 26.8859 267.072 26.6369 265.966 26.6369H261.854V32.2573Z" fill="#B59B81"/>
<path d="M275.776 32.1833H280.976C281.935 32.1833 282.76 32.3313 283.45 32.6275C284.146 32.9237 284.679 33.3432 285.049 33.8862C285.42 34.4247 285.605 35.0596 285.605 35.7911C285.605 36.5674 285.42 37.245 285.049 37.8238C284.684 38.4027 284.156 38.8514 283.465 39.1701C282.775 39.4842 281.945 39.6412 280.976 39.6412H275.129V25.8561H276.081V38.8672H280.976C281.752 38.8672 282.415 38.737 282.963 38.4768C283.516 38.2165 283.938 37.853 284.227 37.3863C284.516 36.9196 284.661 36.3789 284.661 35.7642C284.666 34.943 284.336 34.2721 283.671 33.7516C283.011 33.2266 282.113 32.964 280.976 32.964H275.776V32.1833Z" fill="#B59B81"/>
<path d="M290.516 25.8628V39.648H289.564V25.8628H290.516ZM294.178 32.5669V33.3477H289.876V32.5669H294.178ZM306.991 32.7487C306.991 34.1711 306.712 35.4141 306.154 36.4776C305.595 37.5367 304.819 38.3601 303.824 38.9479C302.834 39.5358 301.692 39.8297 300.398 39.8297C299.099 39.8297 297.952 39.5358 296.957 38.9479C295.967 38.3556 295.193 37.5299 294.635 36.4709C294.076 35.4074 293.797 34.1667 293.797 32.7487C293.797 31.3262 294.076 30.0854 294.635 29.0264C295.198 27.9674 295.975 27.144 296.964 26.5561C297.954 25.9638 299.099 25.6676 300.398 25.6676C301.692 25.6676 302.834 25.9615 303.824 26.5494C304.819 27.1372 305.595 27.9629 306.154 29.0264C306.712 30.0854 306.991 31.3262 306.991 32.7487ZM306.062 32.7487C306.062 31.4698 305.819 30.3614 305.332 29.4235C304.849 28.4857 304.182 27.761 303.329 27.2494C302.477 26.7334 301.499 26.4753 300.398 26.4753C299.297 26.4753 298.32 26.7311 297.467 27.2427C296.614 27.7498 295.944 28.4745 295.457 29.4168C294.975 30.3547 294.734 31.4653 294.734 32.7487C294.734 34.0186 294.972 35.1247 295.449 36.0671C295.932 37.0049 296.599 37.7319 297.452 38.2479C298.304 38.7639 299.287 39.022 300.398 39.022C301.499 39.022 302.477 38.7662 303.329 38.2546C304.182 37.7386 304.849 37.0116 305.332 36.0738C305.819 35.1359 306.062 34.0276 306.062 32.7487Z" fill="#B59B81"/>
</svg>
