<svg width="32" height="32" viewBox="0 0 32 32" fill="none" xmlns="http://www.w3.org/2000/svg">
<path d="M17.2928 25.7071C17.1054 25.5195 17.0001 25.2652 17.0001 25C17.0001 24.7348 17.1054 24.4805 17.2928 24.2929L24.5858 17H5C4.73478 17 4.48043 16.8946 4.29289 16.7071C4.10536 16.5196 4 16.2652 4 16C4 15.7348 4.10536 15.4804 4.29289 15.2929C4.48043 15.1054 4.73478 15 5 15H24.5858L17.2928 7.70709C17.2 7.61422 17.1263 7.50398 17.0761 7.38265C17.0258 7.26131 17 7.13127 17 6.99995C17 6.86862 17.0259 6.73859 17.0761 6.61726C17.1264 6.49593 17.2 6.3857 17.2929 6.29284C17.3858 6.19998 17.496 6.12633 17.6173 6.07608C17.7387 6.02582 17.8687 5.99996 18 5.99997C18.1314 5.99998 18.2614 6.02585 18.3827 6.07611C18.5041 6.12637 18.6143 6.20004 18.7072 6.2929L27.7072 15.2929C27.7104 15.2961 27.7131 15.2997 27.7163 15.303C27.7361 15.3233 27.7552 15.3441 27.7732 15.366C27.7832 15.3782 27.792 15.3911 27.8014 15.4037C27.8115 15.4172 27.822 15.4305 27.8315 15.4446C27.8412 15.4592 27.8497 15.4743 27.8586 15.4893C27.8664 15.5023 27.8746 15.5151 27.8818 15.5286C27.8898 15.5436 27.8967 15.5591 27.9039 15.5744C27.9107 15.5887 27.9178 15.6027 27.9238 15.6173C27.9299 15.6321 27.9349 15.6472 27.9403 15.6622C27.9459 15.678 27.952 15.6936 27.9569 15.7097C27.9614 15.7247 27.9647 15.7399 27.9685 15.755C27.9727 15.7715 27.9773 15.7878 27.9806 15.8046C27.9841 15.8221 27.9861 15.8397 27.9887 15.8572C27.9908 15.8719 27.9936 15.8864 27.995 15.9013C27.9983 15.9341 28 15.967 28 16C28 16.033 27.9983 16.0659 27.995 16.0987C27.9936 16.1136 27.9908 16.128 27.9887 16.1428C27.9862 16.1603 27.9841 16.1779 27.9806 16.1954C27.9773 16.2121 27.9727 16.2285 27.9685 16.245C27.9647 16.2601 27.9614 16.2753 27.9569 16.2903C27.952 16.3064 27.9459 16.322 27.9403 16.3378C27.9349 16.3528 27.9299 16.3679 27.9238 16.3827C27.9178 16.3973 27.9106 16.4113 27.9039 16.4256C27.8967 16.4409 27.8898 16.4564 27.8818 16.4714C27.8746 16.4849 27.8664 16.4977 27.8586 16.5107C27.8497 16.5257 27.8412 16.5408 27.8315 16.5554C27.822 16.5695 27.8115 16.5828 27.8014 16.5963C27.792 16.6089 27.7832 16.6218 27.7732 16.634C27.7549 16.6563 27.7354 16.6775 27.7153 16.6981C27.7124 16.701 27.7101 16.7042 27.7072 16.7071L18.7072 25.7071C18.6143 25.8 18.504 25.8736 18.3827 25.9239C18.2614 25.9741 18.1313 26 18 26C17.8687 26 17.7386 25.9741 17.6173 25.9239C17.496 25.8736 17.3857 25.8 17.2928 25.7071Z" fill="#23372B"/>
</svg>
