<svg width="25" height="25" viewBox="0 0 25 25" fill="none" xmlns="http://www.w3.org/2000/svg">
<g clip-path="url(#clip0_551_404761)">
<path fill-rule="evenodd" clip-rule="evenodd" d="M15.4556 0.545968C15.7264 1.14073 15.6099 2.78637 15.1766 4.48791C15.0765 4.88102 14.9602 5.26085 14.9181 5.33202C14.8561 5.43685 14.7906 5.47719 14.572 5.54501C14.0061 5.72059 13.5163 5.67996 13.3369 5.44255C13.1725 5.225 13.1729 5.01257 13.3388 4.37076C13.5034 3.73417 13.6689 3.35307 14.1859 2.4204C14.4707 1.90651 15.3448 0.427568 15.3751 0.408312C15.3827 0.403497 15.4189 0.465421 15.4556 0.545968ZM10.8022 0.598501C10.8148 0.635468 10.4593 1.5853 10.2329 2.11982C10.0844 2.47052 9.92593 3.12135 9.78858 3.945C9.6636 4.69449 9.46238 5.37149 9.34528 5.43657C9.31555 5.45307 9.18461 5.43652 9.05156 5.39937C8.7773 5.32278 8.04473 4.9877 7.95347 4.89707C7.91991 4.86376 7.8728 4.75246 7.84872 4.64972C7.80967 4.48297 7.81918 4.40792 7.93733 3.95021C8.06212 3.4666 8.21377 3.0971 8.43761 2.73113C8.5188 2.59839 9.00701 2.01109 9.45475 1.50761C9.8164 1.10089 10.2903 0.68284 10.494 0.590715C10.6458 0.522133 10.7774 0.525475 10.8022 0.598501ZM20.0848 3.66894C20.3285 4.00585 20.383 4.63562 20.2377 5.43522C20.1056 6.16158 19.8703 6.83091 19.3934 7.83668C19.1509 8.34828 19.0729 8.43859 18.8294 8.49007C18.6645 8.52497 18.3014 8.44046 18.1827 8.33955C17.6509 7.88772 17.7523 6.93223 18.4295 6.01533C19.0505 5.17442 19.5333 4.37738 19.7529 3.83047C19.8408 3.61158 19.9009 3.50633 19.9334 3.51463C19.9602 3.52146 20.0284 3.59089 20.0848 3.66894ZM6.01173 2.06399C5.9976 2.11945 5.93086 2.27371 5.86341 2.40675C5.77076 2.58961 5.6716 2.91941 5.45758 3.75697C5.19198 4.79637 5.17289 4.89658 5.15064 5.36916C5.13108 5.78471 5.10831 5.9266 5.02073 6.17828C4.95556 6.36557 4.88809 6.49833 4.84606 6.52181C4.72817 6.58774 4.1927 6.42733 3.89958 6.23829C3.34431 5.88012 3.29384 5.6438 3.59152 4.79544C3.74114 4.3691 3.79316 4.27178 4.18905 3.67785C4.6203 3.03086 4.82728 2.78519 5.23134 2.4408C5.45296 2.25193 5.94853 1.94055 6.00469 1.95486C6.02268 1.95945 6.02586 2.00858 6.01173 2.06399ZM22.6617 7.98779C22.733 8.15461 22.8094 8.36413 22.8315 8.45337C22.901 8.73434 22.9473 9.30841 22.9319 9.69702C22.919 10.0213 22.8968 10.1314 22.7656 10.5207C22.6668 10.8136 22.5942 11.1075 22.5569 11.3652C22.4369 12.1944 22.3687 12.3311 22.0298 12.4213C21.9033 12.455 21.8113 12.4436 21.4363 12.3476C21.0995 12.2613 20.9683 12.2123 20.8919 12.1445C20.644 11.9242 20.6308 11.6877 20.853 11.4496C21.0235 11.2669 21.1515 11.0575 21.4266 10.5111C21.8441 9.68179 22.0668 9.11476 22.2519 8.40988C22.3644 7.9816 22.4458 7.73264 22.4795 7.71379C22.5175 7.69253 22.5677 7.76806 22.6617 7.98779ZM13.679 6.75606C14.0359 6.9462 14.416 7.42354 14.5942 7.9053C14.8156 8.50369 14.8286 9.12499 14.6358 9.89259C14.4251 10.7315 14.2325 11.0472 13.7757 11.3026C12.9528 11.7629 11.7604 11.7945 11.2009 11.371C10.8706 11.1208 10.6944 10.7101 10.711 10.2285C10.7234 9.8668 10.9775 9.0653 11.2346 8.57678C11.4897 8.09219 12.0034 7.29456 12.2064 7.06804C12.3816 6.87247 12.6928 6.68516 12.9223 6.63714C13.1108 6.59768 13.4952 6.65806 13.679 6.75606ZM8.86479 6.46979C9.25776 6.79802 9.50636 7.39605 9.64516 8.34727C9.81332 9.49942 9.69769 10.4219 9.31321 10.9949C9.11842 11.2852 8.74695 11.5042 8.38468 11.5423C8.16673 11.5652 8.06369 11.5516 7.64893 11.4453C7.25212 11.3435 7.09262 11.2832 6.74907 11.1051C6.36297 10.9049 6.32267 10.874 6.2138 10.6946C5.87985 10.1444 5.7423 8.90845 5.91407 8.00122C6.00217 7.53594 6.19017 7.11946 6.43723 6.84219C6.68134 6.56827 7.16911 6.32285 7.65578 6.22911C7.98152 6.16635 8.0607 6.166 8.33898 6.22585C8.62733 6.28783 8.67151 6.30835 8.86479 6.46979ZM18.195 9.16856C18.3999 9.26736 18.5232 9.43388 18.6584 9.79436C18.9222 10.4979 18.9525 11.1586 18.7567 11.9383C18.6149 12.503 18.4431 12.8713 18.1232 13.2968C17.7151 13.8394 17.3053 14.1572 16.9313 14.2212C16.7078 14.2594 16.6587 14.2529 16.0956 14.1093C15.6122 13.9861 15.4598 13.9332 15.3025 13.8341C14.7887 13.5104 14.4753 13.0988 14.4236 12.6795C14.4033 12.5152 14.4204 12.3785 14.4982 12.0823C14.585 11.7516 14.6278 11.6556 14.8062 11.3921C15.0776 10.991 15.4584 10.574 15.9281 10.1634C16.98 9.24388 17.6979 8.92886 18.195 9.16856ZM4.19383 7.441C4.70207 7.7716 5.00101 8.48035 4.99834 9.3486C4.99765 9.57383 5.00225 9.988 5.00852 10.269C5.02403 10.9622 4.98521 11.4655 4.901 11.6632C4.69446 12.1483 4.27146 12.3499 3.45762 12.3514C2.05859 12.3538 1.33473 11.8122 1.34258 10.7688C1.34533 10.4009 1.60483 9.50706 1.84528 9.03689C2.07804 8.5819 2.44895 8.03117 2.67811 7.80027C3.19343 7.28112 3.74652 7.15001 4.19383 7.441ZM21.2783 13.459C21.8096 13.6835 22.1113 14.006 22.1992 14.4431C22.2462 14.6769 22.2418 14.7389 22.1541 15.0682C22.0325 15.5247 21.8457 15.8569 21.4628 16.2973C20.5068 17.3968 19.2279 17.9864 18.5511 17.6396C18.0989 17.4079 17.8849 16.587 18.0186 15.5967C18.1715 14.4645 18.852 13.5081 19.6558 13.2959C20.1053 13.1771 20.7694 13.2439 21.2783 13.459ZM11.893 13.1797C12.3479 13.3504 12.7678 13.587 13.1365 13.8801C13.5572 14.2147 13.8109 14.4855 14.4583 15.2913C15.3302 16.3764 15.8595 16.8791 16.6771 17.3986C17.2145 17.74 17.3942 17.9022 17.6131 18.2432C18.0688 18.9531 18.1596 20.042 17.8608 21.2142C17.5032 22.6174 16.777 23.6198 15.8493 23.9908C15.0804 24.2984 14.4263 24.3216 13.4589 24.0759C12.5756 23.8515 11.9929 23.5881 10.2463 22.6236C9.07009 21.9741 8.56381 21.7214 8.02607 21.5152C7.58864 21.3475 7.30698 21.2922 6.00321 21.1179C4.32438 20.8933 3.36264 20.6932 2.65994 20.4222C0.570024 19.6163 0.186049 18.1621 1.46313 15.8901C2.3708 14.2753 3.61409 13.5947 5.87828 13.4731C6.34495 13.448 6.76007 13.3928 7.26121 13.2889C8.77373 12.9754 8.98705 12.9358 9.39709 12.8923C10.3397 12.7922 11.0909 12.8787 11.893 13.1797Z" fill="#C74403"/>
</g>
<defs>
<clipPath id="clip0_551_404761">
<rect width="24" height="24" fill="white" transform="translate(0.09375 0.463623) rotate(-0.7)"/>
</clipPath>
</defs>
</svg>
