<svg xmlns="http://www.w3.org/2000/svg" width="32" height="32" viewBox="0 0 32 32" fill="none">
<g clip-path="url(#clip0_835_47480)">
<path fill-rule="evenodd" clip-rule="evenodd" d="M7.99314 0.0906169C6.56451 0.484617 5.57133 2.14262 5.40058 4.41874L5.35745 4.99374L3.35051 5.01249C1.4057 5.03074 1.33545 5.03568 1.07976 5.1723C0.68639 5.38249 0.42089 5.64018 0.215265 6.01137L0.0311397 6.34381L0.0130772 9.15306C-0.000172822 11.2062 0.0148272 12.0102 0.0687022 12.1404C0.170327 12.3857 0.42539 12.5001 0.870952 12.5001H1.24826L1.2647 21.5782L1.28114 30.6563L1.42214 30.9202C1.63233 31.3136 1.89001 31.5791 2.2612 31.7847L2.59364 31.9688L15.6874 31.9854C28.6526 32.0018 28.7852 32.0007 29.1965 31.8762C29.8492 31.6786 30.3673 31.2432 30.6246 30.6763C30.7445 30.4122 30.7472 30.2111 30.7485 21.4532L30.7499 12.5001H31.122C31.5833 12.5001 31.7761 12.4156 31.937 12.1429C32.0574 11.9389 32.0624 11.8207 32.0624 9.18031C32.0624 7.61699 32.0387 6.44481 32.0075 6.46412C31.9773 6.48274 31.937 6.42012 31.918 6.32499C31.8238 5.85374 31.1727 5.21368 30.636 5.06462C30.5096 5.02949 29.8941 5.00062 29.2683 5.00043L28.1306 5.00005L28.0996 4.79693C28.0825 4.68524 28.0518 4.37424 28.0313 4.10593C27.89 2.25618 26.9456 0.637992 25.7383 0.176679C25.3229 0.0179919 24.5691 -0.0385706 24.1285 0.0559294C23.5115 0.188242 23.0461 0.484242 21.1702 1.93743L19.3093 3.37905L19.1034 3.22199C18.3076 2.61499 16.8406 2.35143 15.6379 2.59937C15.1546 2.69899 14.3053 3.04737 14.2236 3.17949C14.1996 3.2183 14.1384 3.25005 14.0875 3.25005C14.0366 3.25005 13.196 2.63055 12.2194 1.87343C11.2428 1.1163 10.2806 0.416492 10.0812 0.318304C9.44595 0.00555441 8.62601 -0.0838831 7.99314 0.0906169ZM8.20358 1.3498C7.58889 1.57655 7.05583 2.39699 6.80033 3.50962C6.60833 4.34562 6.6077 5.80374 6.79895 6.57562C6.9792 7.30306 7.24195 7.86393 7.56833 8.21799C7.91083 8.58962 8.09839 8.68418 8.57976 8.72799C9.12139 8.77737 9.32339 8.68831 11.3115 7.52374C12.7374 6.68856 12.9999 6.51262 12.9999 6.39243V6.25006H11.9403C10.7869 6.25006 10.6103 6.21162 10.464 5.92849C10.3512 5.71049 10.3512 5.53962 10.464 5.32162C10.6103 5.03849 10.7869 5.00005 11.9403 5.00005C12.9073 5.00005 13 4.99049 13.0013 4.89068C13.002 4.83049 13.0561 4.66343 13.1215 4.51943L13.2405 4.25749L11.5108 2.91874C10.5595 2.18243 9.66045 1.51862 9.51289 1.44368C9.15826 1.26343 8.55495 1.22018 8.20358 1.3498ZM24.1501 1.36043C23.975 1.42312 23.7218 1.55968 23.5876 1.66405C23.4535 1.76837 22.6099 2.42005 21.7131 3.11218L20.0826 4.37068L20.1819 4.68449L20.2811 4.99837L21.3251 4.99924C22.4617 5.00012 22.6399 5.03943 22.7858 5.32162C22.8945 5.53174 22.8985 5.69256 22.8002 5.90806C22.6639 6.20731 22.4784 6.25006 21.3155 6.25006C20.5042 6.25006 20.2501 6.26868 20.2508 6.32818C20.252 6.43418 23.8338 8.52612 24.2433 8.66006C24.6403 8.78993 25.123 8.75481 25.4859 8.56968C25.9491 8.33337 26.3208 7.75818 26.602 6.84243C26.765 6.31124 26.7742 6.21631 26.7736 5.06255C26.773 3.72093 26.6925 3.26155 26.318 2.46112C25.8566 1.47518 25.0188 1.0498 24.1501 1.36043ZM15.8367 3.84305C15.1158 3.99993 14.6165 4.35099 14.3478 4.89012C14.0223 5.54343 14.1895 6.40205 14.7356 6.88155C15.655 7.68874 17.5948 7.68874 18.5141 6.88155C19.2412 6.24324 19.2466 5.01162 18.5252 4.37824C17.9094 3.83755 16.8404 3.62474 15.8367 3.84305ZM1.46239 6.46256L1.24989 6.67506V8.96256V11.2501H5.48839H9.72689L10.5766 10.1094C11.0439 9.48212 11.4193 8.96162 11.4106 8.95281C11.4021 8.94406 11.1022 9.10618 10.7443 9.31318C9.89295 9.80562 9.51439 9.94356 8.90614 9.98306C7.64383 10.065 6.67108 9.45262 6.04333 8.18093C5.86601 7.82174 5.70108 7.36331 5.61839 7.00006C5.54402 6.67349 5.47383 6.37118 5.46227 6.32818C5.44608 6.26787 5.01183 6.25006 3.55808 6.25006H1.67489L1.46239 6.46256ZM27.8616 6.95331C27.5284 8.33562 26.8843 9.27237 25.949 9.73468C25.4875 9.96274 25.4575 9.96881 24.7845 9.96793C23.9363 9.96693 23.6636 9.87631 22.6068 9.24437C22.1991 9.00056 21.8566 8.81074 21.8457 8.82243C21.8348 8.83418 22.2203 9.38518 22.7023 10.0469L23.5786 11.2501H27.1643H30.7499V8.96256V6.67506L30.5374 6.46256L30.3249 6.25006L29.178 6.25018L28.0311 6.25024L27.8616 6.95331ZM0.0286397 9.28131C0.0286397 10.8282 0.0367647 11.4521 0.0467022 10.6677C0.0566397 9.88331 0.0566397 8.61768 0.0467022 7.85518C0.0367647 7.09268 0.0286397 7.73443 0.0286397 9.28131ZM19.2463 7.91062C19.0646 8.10449 18.1908 8.53674 17.8593 8.59662C17.7304 8.61993 17.6249 8.66806 17.6249 8.70362C17.6249 8.77187 21.3583 16.1829 21.4359 16.2687C21.4608 16.2962 21.5893 15.9052 21.7215 15.3997C21.9741 14.4334 22.1118 14.1733 22.4097 14.0985C22.5097 14.0734 22.8875 14.1426 23.4153 14.2826C23.8802 14.4059 24.2831 14.4983 24.3105 14.4879C24.3626 14.468 19.5368 7.79393 19.449 7.76449C19.4215 7.75524 19.3303 7.82099 19.2463 7.91062ZM11.3851 11.1304C10.0332 12.9551 8.94089 14.4619 8.95776 14.4787C8.97458 14.4956 9.36995 14.4081 9.83633 14.2844C10.3585 14.1459 10.745 14.0746 10.8423 14.0991C11.1379 14.1732 11.2761 14.4352 11.5283 15.3997C11.6605 15.9052 11.789 16.2962 11.8139 16.2687C11.8915 16.1829 15.6249 8.77187 15.6249 8.70362C15.6249 8.66806 15.5206 8.61943 15.3931 8.59549C15.0668 8.53424 14.3863 8.21637 14.113 7.99737C13.986 7.89568 13.8734 7.81256 13.8626 7.81256C13.8519 7.81256 12.737 9.30556 11.3851 11.1304ZM15.9835 10.8442L15.3749 12.0634V21.4067V30.7501H16.6249H17.8749V21.4067V12.0634L17.2663 10.8442C16.9315 10.1737 16.6429 9.62506 16.6249 9.62506C16.6069 9.62506 16.3183 10.1737 15.9835 10.8442ZM2.49989 21.4126V30.3251L2.71239 30.5376L2.92489 30.7501H8.52489H14.1249L14.1215 22.6407L14.1181 14.5313L13.125 16.5084C12.1201 18.5087 11.9615 18.7501 11.6518 18.7501C11.4256 18.7501 11.2021 18.6434 11.1013 18.4872C11.0504 18.4084 10.8406 17.716 10.6352 16.9487C10.4298 16.1814 10.2478 15.5396 10.2306 15.5225C10.2136 15.5054 9.56164 15.6621 8.78201 15.8707C8.00233 16.0794 7.29864 16.2501 7.2182 16.2501C7.01639 16.2501 6.70501 15.9726 6.65589 15.7489C6.59876 15.4888 6.6632 15.3815 7.77158 13.8919C8.30964 13.1687 8.74989 12.5597 8.74989 12.5386C8.74989 12.5174 7.34364 12.5001 5.62489 12.5001H2.49989V21.4126ZM24.7055 12.7969C26.2219 14.8792 26.522 15.303 26.5718 15.4328C26.6038 15.5161 26.6128 15.663 26.5916 15.7592C26.5445 15.9741 26.2295 16.2501 26.0316 16.2501C25.9511 16.2501 25.2475 16.0794 24.4678 15.8707C23.6881 15.6621 23.0359 15.5057 23.0185 15.5232C23.001 15.5406 22.85 16.0663 22.683 16.6914C22.2173 18.4344 22.2017 18.4797 22.0221 18.6209C21.811 18.787 21.4996 18.7857 21.2861 18.6178C21.176 18.5312 20.7758 17.8044 20.1248 16.5084L19.1316 14.5313L19.1283 22.6407L19.1249 30.7501H23.852C27.3495 30.7501 28.6443 30.7306 28.8296 30.675C28.9674 30.6337 29.1746 30.5109 29.29 30.402L29.4999 30.2041V21.3521V12.5001H26.9946H24.4893L24.7055 12.7969Z" fill="white"/>
</g>
<defs>
<clipPath id="clip0_835_47480">
<rect width="32" height="32" fill="white"/>
</clipPath>
</defs>
</svg>