<svg width="38" height="38" viewBox="0 0 38 38" fill="none" xmlns="http://www.w3.org/2000/svg">
<g clip-path="url(#clip0_600_6810)">
<path d="M37.8384 34.6636C37.5831 34.343 37.1161 34.2901 36.7957 34.5454C35.9957 35.1826 34.8776 35.1836 34.0759 34.5475L34.0648 34.5387C32.7196 33.4712 30.8418 33.4729 29.4985 34.5428C28.6981 35.1803 27.5807 35.1812 26.7796 34.5456C26.7783 34.5446 26.7771 34.5436 26.7758 34.5427C25.4326 33.4729 23.5549 33.4711 22.2093 34.539L22.195 34.5504C21.3955 35.185 20.2784 35.185 19.4788 34.5505L19.4638 34.5386C18.1184 33.471 16.2409 33.4729 14.8945 34.5451C14.0945 35.1824 12.9762 35.1833 12.1747 34.5472L12.1607 34.5361C10.8175 33.47 8.94144 33.4701 7.59831 34.5366L7.58443 34.5476C6.78324 35.1837 5.66469 35.1828 4.86743 34.5478L4.86149 34.543C3.51791 33.4729 1.64025 33.4713 0.294365 34.5393L0.280263 34.5505C-0.0405104 34.8055 -0.0937994 35.2722 0.161216 35.593C0.416232 35.9137 0.882845 35.9672 1.20377 35.7121L1.2175 35.7013C2.01854 35.0655 3.13694 35.0664 3.93405 35.7015L3.93999 35.7062C5.28379 36.7766 7.16197 36.7781 8.50749 35.7097L8.52137 35.6987C9.32115 35.0635 10.4385 35.0636 11.2386 35.6986L11.2526 35.7098C12.598 36.7777 14.4758 36.776 15.8223 35.7035C16.6222 35.0664 17.7404 35.0655 18.5415 35.701L18.5565 35.713C19.2278 36.2458 20.0322 36.5121 20.8369 36.5121C21.6415 36.512 22.4465 36.2455 23.118 35.7125L23.1323 35.7012C23.9321 35.0663 25.0484 35.0662 25.8483 35.7009L25.8518 35.7038C27.1976 36.7755 29.0774 36.7755 30.4231 35.7036C31.2231 35.0664 32.3412 35.0655 33.143 35.7016L33.1541 35.7104C34.4992 36.7778 36.3768 36.7762 37.7203 35.7062C38.0408 35.4509 38.0936 34.9841 37.8384 34.6636ZM8.87784 26.1905C8.73864 26.0514 8.55 25.9733 8.35326 25.9731C8.15814 25.9731 7.96673 26.0518 7.82868 26.1905C7.69006 26.3299 7.61195 26.5184 7.6113 26.715C7.612 26.9117 7.6901 27.1001 7.82868 27.2396C7.96815 27.3783 8.15662 27.4564 8.35326 27.457C8.54912 27.457 8.73979 27.3776 8.87784 27.2396C9.01646 27.1002 9.09457 26.9117 9.09522 26.715C9.09452 26.5184 9.01642 26.33 8.87784 26.1905ZM5.23385 31.9302L5.22345 31.9216C3.76643 30.7145 2.60883 29.1863 1.84145 27.4568H4.93719C5.34688 27.4568 5.67916 27.1246 5.67916 26.7148C5.67916 26.3051 5.34688 25.9729 4.93719 25.9729H0.753333C0.635155 25.9729 0.518688 26.0011 0.41362 26.0552C0.308553 26.1093 0.217922 26.1877 0.149267 26.2839C0.0806545 26.3801 0.0360038 26.4913 0.0190284 26.6083C0.00205299 26.7252 0.0132435 26.8445 0.0516693 26.9563C0.872177 29.3415 2.33374 31.4547 4.27605 33.064L4.28607 33.0723C4.41896 33.183 4.58649 33.2435 4.75944 33.2433C4.86859 33.2435 4.97642 33.2195 5.07523 33.1731C5.17403 33.1267 5.26137 33.0591 5.331 32.975C5.59269 32.6597 5.54913 32.1919 5.23385 31.9302ZM37.8621 26.2839C37.7935 26.1877 37.7028 26.1093 37.5978 26.0552C37.4927 26.0011 37.3762 25.9729 37.2581 25.9729H19.7476V2.22991C19.7476 1.82015 19.4153 1.48795 19.0057 1.48795C18.596 1.48795 18.2637 1.82015 18.2637 2.22991V25.9729H11.4005C10.9908 25.9729 10.6585 26.3051 10.6585 26.7148C10.6585 27.1246 10.9908 27.4568 11.4005 27.4568H36.1699C35.4025 29.1864 34.2448 30.7148 32.7876 31.9219L32.7776 31.9302C32.4623 32.1919 32.4187 32.6597 32.6803 32.975C32.7499 33.0591 32.8372 33.1267 32.936 33.1731C33.0348 33.2194 33.1427 33.2434 33.2518 33.2433C33.4247 33.2434 33.5922 33.1829 33.7252 33.0723L33.7348 33.0643C35.6773 31.4549 37.139 29.3416 37.9596 26.9562C37.9981 26.8445 38.0093 26.7252 37.9924 26.6082C37.9754 26.4913 37.9308 26.3801 37.8621 26.2839Z" fill="white"/>
<path d="M22.4984 11.7496C22.359 11.6109 22.1705 11.5328 21.9739 11.5322C21.7788 11.5322 21.5874 11.6116 21.4493 11.7496C21.3107 11.889 21.2326 12.0775 21.2319 12.2742C21.2319 12.4693 21.3113 12.6607 21.4493 12.7987C21.5873 12.9368 21.7788 13.0161 21.9739 13.0161C22.169 13.0161 22.3604 12.9367 22.4984 12.7987C22.6371 12.6593 22.7152 12.4708 22.7159 12.2742C22.7159 12.079 22.6364 11.8876 22.4984 11.7496Z" fill="white"/>
<path d="M31.1671 11.5922C29.3183 7.93378 26.5968 4.71484 23.2967 2.28344L22.4135 1.63269C22.303 1.55127 22.1721 1.50209 22.0353 1.49063C21.8985 1.47917 21.7613 1.50587 21.6388 1.56776C21.5163 1.62966 21.4134 1.72432 21.3414 1.84122C21.2695 1.95812 21.2315 2.09268 21.2315 2.22992V9.08996C21.2315 9.49973 21.5637 9.83193 21.9734 9.83193C22.3831 9.83193 22.7154 9.49973 22.7154 9.08996V3.70176C28.6582 8.22146 32.2725 15.2561 32.4982 22.7083H22.7154V14.8759C22.7154 14.4661 22.3831 14.1339 21.9734 14.1339C21.5637 14.1339 21.2315 14.4661 21.2315 14.8759V23.4502C21.2315 23.6469 21.3097 23.8357 21.4488 23.9748C21.5879 24.114 21.7767 24.1921 21.9734 24.1921H33.2512C33.6609 24.1921 33.9932 23.8599 33.9932 23.4502C33.9932 19.3511 33.0158 15.2507 31.1671 11.5922ZM16.2169 5.25894C16.0563 5.21888 15.8868 5.23374 15.7355 5.30117C15.5843 5.3686 15.4599 5.48471 15.3823 5.631L6.10768 23.1022C6.04763 23.2153 6.01786 23.342 6.02126 23.47C6.02466 23.5979 6.06111 23.7228 6.12708 23.8326C6.19305 23.9423 6.28629 24.0331 6.39773 24.0961C6.50917 24.1591 6.63502 24.1922 6.76304 24.1921H16.0376C16.4473 24.1921 16.7796 23.8599 16.7796 23.4502V5.97894C16.7796 5.81335 16.7242 5.65251 16.6223 5.52204C16.5203 5.39156 16.3776 5.29895 16.2169 5.25894ZM15.2957 22.7082H7.99692L15.2957 8.95912V22.7082Z" fill="white"/>
</g>
<defs>
<clipPath id="clip0_600_6810">
<rect width="38" height="38" fill="white"/>
</clipPath>
</defs>
</svg>
