<svg width="318" height="293" viewBox="0 0 318 293" fill="none" xmlns="http://www.w3.org/2000/svg">
<path opacity="0.4" d="M34 41C34 135 34 212.833 34 240" stroke="#FFF8D9" stroke-width="2" stroke-linecap="round" stroke-dasharray="6 6"/>
<g filter="url(#filter0_ddddd_702_391000)">
<ellipse cx="34" cy="60.5" rx="22" ry="5.5" fill="#DDBA63"/>
<path d="M33.9987 7.74933C28.5306 7.75582 23.2883 9.93088 19.4217 13.7974C15.5552 17.6639 13.3801 22.9062 13.3737 28.3743C13.3737 46.022 32.1237 59.3521 32.922 59.9106C33.2377 60.1311 33.6136 60.2493 33.9987 60.2493C34.3838 60.2493 34.7596 60.1311 35.0753 59.9106C35.8737 59.3521 54.6237 46.022 54.6237 28.3743C54.6172 22.9062 52.4421 17.6639 48.5756 13.7974C44.709 9.93088 39.4668 7.75582 33.9987 7.74933V7.74933ZM34 20.875C35.4834 20.875 36.9334 21.3149 38.1668 22.139C39.4002 22.9631 40.3615 24.1344 40.9291 25.5049C41.4968 26.8753 41.6453 28.3833 41.3559 29.8382C41.0665 31.293 40.3522 32.6294 39.3033 33.6783C38.2544 34.7272 36.9181 35.4415 35.4632 35.7309C34.0084 36.0203 32.5004 35.8718 31.1299 35.3041C29.7595 34.7364 28.5881 33.7752 27.764 32.5418C26.9399 31.3084 26.5 29.8584 26.5 28.375C26.5 27.3901 26.694 26.4148 27.0709 25.5048C27.4478 24.5949 28.0002 23.7681 28.6967 23.0716C29.3931 22.3752 30.2199 21.8228 31.1299 21.4459C32.0398 21.069 33.0151 20.875 34 20.875V20.875Z" fill="#FFF9DA"/>
<ellipse cx="34" cy="28.5" rx="13" ry="12.5" fill="#C74403"/>
<path d="M35.9498 36H33.7498V25.32H31.4498V23.76C32.3698 23.76 33.0365 23.64 33.4498 23.4C33.8765 23.1333 34.2165 22.6667 34.4698 22H35.9498V36Z" fill="white"/>
</g>
<path d="M79.28 27H77V13H80.62C83.0733 13 84.3 14.2133 84.3 16.64V17.68C84.3 20.1067 83.0733 21.32 80.62 21.32H79.28V27ZM79.28 15.02V19.32H80.62C81.1133 19.32 81.4667 19.2 81.68 18.96C81.9067 18.7067 82.02 18.3 82.02 17.74V16.56C82.02 16 81.9067 15.6067 81.68 15.38C81.4667 15.14 81.1133 15.02 80.62 15.02H79.28ZM92.8278 27H90.5078L90.0478 24.28H86.9678L86.4878 27H84.3678L87.0478 13H90.1278L92.8278 27ZM88.5078 15.36L87.3078 22.3H89.7078L88.5078 15.36ZM100.21 26.24C99.5836 26.88 98.6903 27.2 97.5303 27.2C96.3703 27.2 95.4703 26.88 94.8303 26.24C94.2036 25.5867 93.8903 24.6733 93.8903 23.5V16.5C93.8903 15.3267 94.2036 14.42 94.8303 13.78C95.4703 13.1267 96.3703 12.8 97.5303 12.8C98.6903 12.8 99.5836 13.1267 100.21 13.78C100.837 14.42 101.15 15.3267 101.15 16.5V17.74H99.0103V16.4C99.0103 15.32 98.537 14.78 97.5903 14.78C96.6436 14.78 96.1703 15.32 96.1703 16.4V23.6C96.1703 24.68 96.6436 25.22 97.5903 25.22C98.537 25.22 99.0103 24.68 99.0103 23.6V21.84H101.15V23.5C101.15 24.6733 100.837 25.5867 100.21 26.24ZM108.921 26.24C108.295 26.88 107.401 27.2 106.241 27.2C105.081 27.2 104.181 26.88 103.541 26.24C102.915 25.5867 102.601 24.6733 102.601 23.5V16.5C102.601 15.3267 102.915 14.42 103.541 13.78C104.181 13.1267 105.081 12.8 106.241 12.8C107.401 12.8 108.295 13.1267 108.921 13.78C109.548 14.42 109.861 15.3267 109.861 16.5V17.74H107.721V16.4C107.721 15.32 107.248 14.78 106.301 14.78C105.355 14.78 104.881 15.32 104.881 16.4V23.6C104.881 24.68 105.355 25.22 106.301 25.22C107.248 25.22 107.721 24.68 107.721 23.6V21.84H109.861V23.5C109.861 24.6733 109.548 25.5867 108.921 26.24ZM119.573 27H117.173L114.953 20.6L113.753 22.58V27H111.473V13H113.753V19.16L117.213 13H119.533L116.493 18.2L119.573 27ZM128.726 27H126.406L125.946 24.28H122.866L122.386 27H120.266L122.946 13H126.026L128.726 27ZM124.406 15.36L123.206 22.3H125.606L124.406 15.36ZM142.786 27H140.506L138.346 20.2L137.246 22.1V27H134.966V22.1L133.866 20.2L131.706 27H129.406L132.366 18.2L129.446 13H131.806L134.966 19.06V13H137.246V19.06L140.426 13H142.746L139.846 18.22L142.786 27ZM146.169 22.36L149.549 13H151.869V27H149.809V17.6L146.449 27H144.129V13H146.169V22.36ZM154.895 29.32H153.855L154.755 27H153.955V24.6H156.235V26.76L154.895 29.32ZM166.727 18.08V13H169.007V27H166.727V21.16C166.14 21.76 165.347 22.06 164.347 22.06C162.373 22.06 161.387 20.9333 161.387 18.68V13H163.647V18.38C163.647 19.46 164.113 20 165.047 20C165.58 20 165.993 19.84 166.287 19.52C166.58 19.1867 166.727 18.7067 166.727 18.08ZM175.324 27H173.064V15.02H170.384V13H178.004V15.02H175.324V27ZM179.125 23.44V16.56C179.125 15.36 179.445 14.4333 180.085 13.78C180.738 13.1267 181.665 12.8 182.865 12.8C184.078 12.8 185.005 13.1267 185.645 13.78C186.298 14.4333 186.625 15.36 186.625 16.56V23.44C186.625 24.64 186.298 25.5667 185.645 26.22C184.991 26.8733 184.065 27.2 182.865 27.2C181.665 27.2 180.738 26.8733 180.085 26.22C179.445 25.5667 179.125 24.64 179.125 23.44ZM182.865 25.18C183.851 25.18 184.345 24.64 184.345 23.56V16.44C184.345 15.36 183.851 14.82 182.865 14.82C181.891 14.82 181.405 15.36 181.405 16.44V23.56C181.405 24.64 181.891 25.18 182.865 25.18ZM194.124 27H191.844V13H194.124V18.78H197.144V13H199.424V27H197.144V20.8H194.124V27ZM201.234 23.44V16.56C201.234 15.36 201.554 14.4333 202.194 13.78C202.847 13.1267 203.774 12.8 204.974 12.8C206.187 12.8 207.114 13.1267 207.754 13.78C208.407 14.4333 208.734 15.36 208.734 16.56V23.44C208.734 24.64 208.407 25.5667 207.754 26.22C207.101 26.8733 206.174 27.2 204.974 27.2C203.774 27.2 202.847 26.8733 202.194 26.22C201.554 25.5667 201.234 24.64 201.234 23.44ZM204.974 25.18C205.961 25.18 206.454 24.64 206.454 23.56V16.44C206.454 15.36 205.961 14.82 204.974 14.82C204.001 14.82 203.514 15.36 203.514 16.44V23.56C203.514 24.64 204.001 25.18 204.974 25.18ZM214.455 27H210.535V13H214.255C215.508 13 216.428 13.2733 217.015 13.82C217.615 14.3667 217.915 15.2067 217.915 16.34V16.76C217.915 18.1867 217.362 19.1133 216.255 19.54V19.6C217.522 19.9867 218.155 21.02 218.155 22.7V23.42C218.155 25.8067 216.922 27 214.455 27ZM212.815 15.02V18.74H213.955C214.528 18.74 214.948 18.6133 215.215 18.36C215.495 18.0933 215.635 17.68 215.635 17.12V16.6C215.635 16.04 215.522 15.64 215.295 15.4C215.068 15.1467 214.695 15.02 214.175 15.02H212.815ZM212.815 20.76V24.98H214.455C214.948 24.98 215.308 24.86 215.535 24.62C215.762 24.3667 215.875 23.96 215.875 23.4V22.62C215.875 21.9267 215.742 21.4467 215.475 21.18C215.208 20.9 214.742 20.76 214.075 20.76H212.815ZM219.574 23.44V16.56C219.574 15.36 219.894 14.4333 220.534 13.78C221.187 13.1267 222.114 12.8 223.314 12.8C224.527 12.8 225.454 13.1267 226.094 13.78C226.747 14.4333 227.074 15.36 227.074 16.56V23.44C227.074 24.64 226.747 25.5667 226.094 26.22C225.441 26.8733 224.514 27.2 223.314 27.2C222.114 27.2 221.187 26.8733 220.534 26.22C219.894 25.5667 219.574 24.64 219.574 23.44ZM223.314 25.18C224.301 25.18 224.794 24.64 224.794 23.56V16.44C224.794 15.36 224.301 14.82 223.314 14.82C222.341 14.82 221.854 15.36 221.854 16.44V23.56C221.854 24.64 222.341 25.18 223.314 25.18ZM231.155 27H228.875V13H235.155V15.02H231.155V27ZM236.293 23.44V16.56C236.293 15.36 236.613 14.4333 237.253 13.78C237.906 13.1267 238.833 12.8 240.033 12.8C241.246 12.8 242.173 13.1267 242.813 13.78C243.466 14.4333 243.793 15.36 243.793 16.56V23.44C243.793 24.64 243.466 25.5667 242.813 26.22C242.159 26.8733 241.233 27.2 240.033 27.2C238.833 27.2 237.906 26.8733 237.253 26.22C236.613 25.5667 236.293 24.64 236.293 23.44ZM240.033 25.18C241.019 25.18 241.513 24.64 241.513 23.56V16.44C241.513 15.36 241.019 14.82 240.033 14.82C239.059 14.82 238.573 15.36 238.573 16.44V23.56C238.573 24.64 239.059 25.18 240.033 25.18ZM81.32 57H79.06V45.02H76.38V43H84V45.02H81.32V57ZM89.0189 57H85.3789V43H87.6589V48.4H89.0189C91.4722 48.4 92.6989 49.6333 92.6989 52.1V53.3C92.6989 55.7667 91.4722 57 89.0189 57ZM96.4989 57H94.2189V43H96.4989V57ZM87.6589 50.42V54.98H89.0189C89.4989 54.98 89.8522 54.86 90.0789 54.62C90.3056 54.3667 90.4189 53.9667 90.4189 53.42V51.98C90.4189 51.4333 90.3056 51.04 90.0789 50.8C89.8522 50.5467 89.4989 50.42 89.0189 50.42H87.6589ZM103.422 57H101.262L104.222 49.82L101.382 43H103.822L105.622 47.7L107.482 43H109.682L106.842 49.82L109.802 57H107.382L105.422 51.94L103.422 57ZM110.59 53.44V46.56C110.59 45.36 110.91 44.4333 111.55 43.78C112.203 43.1267 113.13 42.8 114.33 42.8C115.543 42.8 116.47 43.1267 117.11 43.78C117.763 44.4333 118.09 45.36 118.09 46.56V53.44C118.09 54.64 117.763 55.5667 117.11 56.22C116.456 56.8733 115.53 57.2 114.33 57.2C113.13 57.2 112.203 56.8733 111.55 56.22C110.91 55.5667 110.59 54.64 110.59 53.44ZM114.33 55.18C115.316 55.18 115.81 54.64 115.81 53.56V46.44C115.81 45.36 115.316 44.82 114.33 44.82C113.356 44.82 112.87 45.36 112.87 46.44V53.56C112.87 54.64 113.356 55.18 114.33 55.18ZM124.133 57H121.873V45.02H119.193V43H126.813V45.02H124.133V57ZM134.911 57H128.191V43H134.911V45.02H130.471V48.78H134.031V50.8H130.471V54.98H134.911V57ZM136.454 57.02C136.174 57.02 135.954 56.9933 135.794 56.94V54.96C135.954 55 136.107 55.02 136.254 55.02C136.747 55.02 137.087 54.9 137.274 54.66C137.474 54.4067 137.587 53.9733 137.614 53.36L138.034 43H144.874V57H142.614V45.02H140.174L139.874 53.42C139.834 54.6733 139.547 55.5867 139.014 56.16C138.481 56.7333 137.627 57.02 136.454 57.02ZM154.101 57H150.301V43H156.841V45.02H152.581V48.5H154.101C156.554 48.5 157.781 49.7333 157.781 52.2V53.3C157.781 55.7667 156.554 57 154.101 57ZM152.581 50.52V54.98H154.101C154.581 54.98 154.934 54.86 155.161 54.62C155.387 54.3667 155.501 53.9667 155.501 53.42V52.08C155.501 51.5333 155.387 51.14 155.161 50.9C154.934 50.6467 154.581 50.52 154.101 50.52H152.581ZM162.925 57H159.285V43H161.565V48.4H162.925C165.378 48.4 166.605 49.6333 166.605 52.1V53.3C166.605 55.7667 165.378 57 162.925 57ZM170.405 57H168.125V43H170.405V57ZM161.565 50.42V54.98H162.925C163.405 54.98 163.758 54.86 163.985 54.62C164.212 54.3667 164.325 53.9667 164.325 53.42V51.98C164.325 51.4333 164.212 51.04 163.985 50.8C163.758 50.5467 163.405 50.42 162.925 50.42H161.565ZM184.288 43V54.98H185.488V58.88H183.208V57H177.468V58.88H175.208V54.98H176.508C176.801 54.6867 176.968 54.14 177.008 53.34L177.428 43H184.288ZM178.668 54.98H182.008V45.02H179.568L179.288 53.22C179.261 53.94 179.055 54.5267 178.668 54.98ZM186.884 57.02C186.604 57.02 186.384 56.9933 186.224 56.94V54.96C186.384 55 186.537 55.02 186.684 55.02C187.177 55.02 187.517 54.9 187.704 54.66C187.904 54.4067 188.017 53.9733 188.044 53.36L188.464 43H195.304V57H193.044V45.02H190.604L190.304 53.42C190.264 54.6733 189.977 55.5867 189.444 56.16C188.91 56.7333 188.057 57.02 186.884 57.02ZM204.513 43V57H202.233V51.08H201.193C200.553 51.08 200.099 51.22 199.833 51.5C199.579 51.78 199.453 52.2667 199.453 52.96V55.16C199.453 55.9467 199.379 56.56 199.233 57H196.933C197.106 56.5733 197.193 55.9667 197.193 55.18V53.1C197.193 52.18 197.326 51.4733 197.593 50.98C197.859 50.4733 198.293 50.1333 198.893 49.96V49.9C197.773 49.4867 197.213 48.5333 197.213 47.04V46.36C197.213 45.2133 197.506 44.3667 198.093 43.82C198.693 43.2733 199.619 43 200.873 43H204.513ZM201.153 49.06H202.233V45.02H200.913C200.419 45.02 200.059 45.1467 199.833 45.4C199.606 45.6533 199.493 46.0533 199.493 46.6V47.4C199.493 47.9867 199.626 48.4133 199.893 48.68C200.159 48.9333 200.579 49.06 201.153 49.06ZM216.07 56.24C215.443 56.88 214.55 57.2 213.39 57.2C212.23 57.2 211.33 56.88 210.69 56.24C210.063 55.5867 209.75 54.6733 209.75 53.5V46.5C209.75 45.3267 210.063 44.42 210.69 43.78C211.33 43.1267 212.23 42.8 213.39 42.8C214.55 42.8 215.443 43.1267 216.07 43.78C216.696 44.42 217.01 45.3267 217.01 46.5V47.74H214.87V46.4C214.87 45.32 214.396 44.78 213.45 44.78C212.503 44.78 212.03 45.32 212.03 46.4V53.6C212.03 54.68 212.503 55.22 213.45 55.22C214.396 55.22 214.87 54.68 214.87 53.6V51.84H217.01V53.5C217.01 54.6733 216.696 55.5867 216.07 56.24ZM225.341 57H218.621V43H225.341V45.02H220.901V48.78H224.461V50.8H220.901V54.98H225.341V57ZM230.644 57H226.844V43H233.384V45.02H229.124V48.5H230.644C233.097 48.5 234.324 49.7333 234.324 52.2V53.3C234.324 55.7667 233.097 57 230.644 57ZM229.124 50.52V54.98H230.644C231.124 54.98 231.477 54.86 231.704 54.62C231.93 54.3667 232.044 53.9667 232.044 53.42V52.08C232.044 51.5333 231.93 51.14 231.704 50.9C231.477 50.6467 231.124 50.52 230.644 50.52H229.124ZM243.028 43V57H240.748V51.08H239.708C239.068 51.08 238.615 51.22 238.348 51.5C238.095 51.78 237.968 52.2667 237.968 52.96V55.16C237.968 55.9467 237.895 56.56 237.748 57H235.448C235.621 56.5733 235.708 55.9667 235.708 55.18V53.1C235.708 52.18 235.841 51.4733 236.108 50.98C236.375 50.4733 236.808 50.1333 237.408 49.96V49.9C236.288 49.4867 235.728 48.5333 235.728 47.04V46.36C235.728 45.2133 236.021 44.3667 236.608 43.82C237.208 43.2733 238.135 43 239.388 43H243.028ZM239.668 49.06H240.748V45.02H239.428C238.935 45.02 238.575 45.1467 238.348 45.4C238.121 45.6533 238.008 46.0533 238.008 46.6V47.4C238.008 47.9867 238.141 48.4133 238.408 48.68C238.675 48.9333 239.095 49.06 239.668 49.06ZM248.265 53.44V46.56C248.265 45.36 248.585 44.4333 249.225 43.78C249.879 43.1267 250.805 42.8 252.005 42.8C253.219 42.8 254.145 43.1267 254.785 43.78C255.439 44.4333 255.765 45.36 255.765 46.56V53.44C255.765 54.64 255.439 55.5667 254.785 56.22C254.132 56.8733 253.205 57.2 252.005 57.2C250.805 57.2 249.879 56.8733 249.225 56.22C248.585 55.5667 248.265 54.64 248.265 53.44ZM252.005 55.18C252.992 55.18 253.485 54.64 253.485 53.56V46.44C253.485 45.36 252.992 44.82 252.005 44.82C251.032 44.82 250.545 45.36 250.545 46.44V53.56C250.545 54.64 251.032 55.18 252.005 55.18ZM261.808 57H259.548V45.02H256.868V43H264.488V45.02H261.808V57ZM273.967 57H271.567L269.347 50.6L268.147 52.58V57H265.867V43H268.147V49.16L271.607 43H273.927L270.887 48.2L273.967 57ZM277.581 57H275.301V43H278.921C281.374 43 282.601 44.2133 282.601 46.64V47.68C282.601 50.1067 281.374 51.32 278.921 51.32H277.581V57ZM277.581 45.02V49.32H278.921C279.414 49.32 279.767 49.2 279.981 48.96C280.207 48.7067 280.321 48.3 280.321 47.74V46.56C280.321 46 280.207 45.6067 279.981 45.38C279.767 45.14 279.414 45.02 278.921 45.02H277.581ZM287.749 57H284.109V43H286.389V48.4H287.749C290.203 48.4 291.429 49.6333 291.429 52.1V53.3C291.429 55.7667 290.203 57 287.749 57ZM295.229 57H292.949V43H295.229V57ZM286.389 50.42V54.98H287.749C288.229 54.98 288.583 54.86 288.809 54.62C289.036 54.3667 289.149 53.9667 289.149 53.42V51.98C289.149 51.4333 289.036 51.04 288.809 50.8C288.583 50.5467 288.229 50.42 287.749 50.42H286.389ZM301.554 57H299.294V45.02H296.614V43H304.234V45.02H301.554V57ZM309.253 57H305.613V43H307.893V48.4H309.253C311.707 48.4 312.933 49.6333 312.933 52.1V53.3C312.933 55.7667 311.707 57 309.253 57ZM307.893 50.42V54.98H309.253C309.733 54.98 310.087 54.86 310.313 54.62C310.54 54.3667 310.653 53.9667 310.653 53.42V51.98C310.653 51.4333 310.54 51.04 310.313 50.8C310.087 50.5467 309.733 50.42 309.253 50.42H307.893Z" fill="white"/>
<g filter="url(#filter1_ddddd_702_391000)">
<ellipse cx="34" cy="244.5" rx="22" ry="5.5" fill="#DDBA63"/>
<path d="M33.9987 191.749C28.5306 191.756 23.2883 193.931 19.4217 197.797C15.5552 201.664 13.3801 206.906 13.3737 212.374C13.3737 230.022 32.1237 243.352 32.922 243.911C33.2377 244.131 33.6136 244.249 33.9987 244.249C34.3838 244.249 34.7596 244.131 35.0753 243.911C35.8737 243.352 54.6237 230.022 54.6237 212.374C54.6172 206.906 52.4421 201.664 48.5756 197.797C44.709 193.931 39.4668 191.756 33.9987 191.749V191.749ZM34 204.875C35.4834 204.875 36.9334 205.315 38.1668 206.139C39.4002 206.963 40.3615 208.134 40.9291 209.505C41.4968 210.875 41.6453 212.383 41.3559 213.838C41.0665 215.293 40.3522 216.629 39.3033 217.678C38.2544 218.727 36.9181 219.442 35.4632 219.731C34.0084 220.02 32.5004 219.872 31.1299 219.304C29.7595 218.736 28.5881 217.775 27.764 216.542C26.9399 215.308 26.5 213.858 26.5 212.375C26.5 211.39 26.694 210.415 27.0709 209.505C27.4478 208.595 28.0002 207.768 28.6967 207.072C29.3931 206.375 30.2199 205.823 31.1299 205.446C32.0398 205.069 33.0151 204.875 34 204.875V204.875Z" fill="#FFF9DA"/>
<ellipse cx="34" cy="212.5" rx="13" ry="12.5" fill="#C74403"/>
<path d="M30.6598 216.72V215.58H32.7398V216.82C32.7398 217.74 33.1198 218.2 33.8798 218.2C34.2664 218.2 34.5531 218.08 34.7398 217.84C34.9264 217.6 35.0198 217.193 35.0198 216.62V215.48C35.0198 214.84 34.9064 214.387 34.6798 214.12C34.4531 213.84 34.0864 213.7 33.5798 213.7H32.8398V211.7H33.6398C34.0931 211.7 34.4264 211.587 34.6398 211.36C34.8531 211.12 34.9598 210.74 34.9598 210.22V209.2C34.9598 208.267 34.5931 207.8 33.8598 207.8C33.1531 207.8 32.7998 208.233 32.7998 209.1V210.02H30.7198V209.28C30.7198 208.16 30.9931 207.3 31.5398 206.7C32.0998 206.1 32.8998 205.8 33.9398 205.8C34.9931 205.8 35.7931 206.1 36.3398 206.7C36.8864 207.287 37.1598 208.14 37.1598 209.26V209.76C37.1598 211.253 36.6398 212.193 35.5998 212.58V212.62C36.6798 213.02 37.2198 213.98 37.2198 215.5V216.74C37.2198 217.86 36.9398 218.72 36.3798 219.32C35.8331 219.907 35.0198 220.2 33.9398 220.2C32.8598 220.2 32.0398 219.9 31.4798 219.3C30.9331 218.7 30.6598 217.84 30.6598 216.72Z" fill="white"/>
</g>
<path d="M80.74 204.56L82.54 197H84.72L81.7 208.62C81.46 209.54 81.08 210.2 80.56 210.6C80.04 211 79.3067 211.2 78.36 211.2C77.8133 211.2 77.3533 211.127 76.98 210.98V209.02C77.3 209.127 77.6467 209.18 78.02 209.18C78.4467 209.18 78.7667 209.12 78.98 209C79.1933 208.867 79.3533 208.64 79.46 208.32L79.56 207.96L76.4 197H78.76L80.74 204.56ZM90.9844 202.08V197H93.2644V211H90.9844V205.16C90.3977 205.76 89.6044 206.06 88.6044 206.06C86.631 206.06 85.6444 204.933 85.6444 202.68V197H87.9044V202.38C87.9044 203.46 88.371 204 89.3044 204C89.8377 204 90.251 203.84 90.5444 203.52C90.8377 203.187 90.9844 202.707 90.9844 202.08ZM103.082 211H100.762L100.302 208.28H97.2217L96.7417 211H94.6217L97.3017 197H100.382L103.082 211ZM98.7617 199.36L97.5617 206.3H99.9617L98.7617 199.36ZM110.464 210.24C109.838 210.88 108.944 211.2 107.784 211.2C106.624 211.2 105.724 210.88 105.084 210.24C104.458 209.587 104.144 208.673 104.144 207.5V200.5C104.144 199.327 104.458 198.42 105.084 197.78C105.724 197.127 106.624 196.8 107.784 196.8C108.944 196.8 109.838 197.127 110.464 197.78C111.091 198.42 111.404 199.327 111.404 200.5V201.74H109.264V200.4C109.264 199.32 108.791 198.78 107.844 198.78C106.898 198.78 106.424 199.32 106.424 200.4V207.6C106.424 208.68 106.898 209.22 107.844 209.22C108.791 209.22 109.264 208.68 109.264 207.6V205.84H111.404V207.5C111.404 208.673 111.091 209.587 110.464 210.24ZM117.336 211H115.076V199.02H112.396V197H120.016V199.02H117.336V211ZM125.315 211H121.395V197H125.115C126.368 197 127.288 197.273 127.875 197.82C128.475 198.367 128.775 199.207 128.775 200.34V200.76C128.775 202.187 128.221 203.113 127.115 203.54V203.6C128.381 203.987 129.015 205.02 129.015 206.7V207.42C129.015 209.807 127.781 211 125.315 211ZM123.675 199.02V202.74H124.815C125.388 202.74 125.808 202.613 126.075 202.36C126.355 202.093 126.495 201.68 126.495 201.12V200.6C126.495 200.04 126.381 199.64 126.155 199.4C125.928 199.147 125.555 199.02 125.035 199.02H123.675ZM123.675 204.76V208.98H125.315C125.808 208.98 126.168 208.86 126.395 208.62C126.621 208.367 126.735 207.96 126.735 207.4V206.62C126.735 205.927 126.601 205.447 126.335 205.18C126.068 204.9 125.601 204.76 124.935 204.76H123.675ZM134.295 204.56L136.095 197H138.275L135.255 208.62C135.015 209.54 134.635 210.2 134.115 210.6C133.595 211 132.861 211.2 131.915 211.2C131.368 211.2 130.908 211.127 130.535 210.98V209.02C130.855 209.127 131.201 209.18 131.575 209.18C132.001 209.18 132.321 209.12 132.535 209C132.748 208.867 132.908 208.64 133.015 208.32L133.115 207.96L129.955 197H132.315L134.295 204.56ZM143.399 195.86C142.612 195.86 141.992 195.64 141.539 195.2C141.086 194.747 140.846 194.133 140.819 193.36H142.199C142.266 194.027 142.666 194.36 143.399 194.36C144.132 194.36 144.552 194.027 144.659 193.36H145.999C145.972 194.133 145.732 194.747 145.279 195.2C144.826 195.64 144.199 195.86 143.399 195.86ZM141.579 206.36L144.959 197H147.279V211H145.219V201.6L141.859 211H139.539V197H141.579V206.36ZM156.623 211H152.703V197H156.423C157.676 197 158.596 197.273 159.183 197.82C159.783 198.367 160.083 199.207 160.083 200.34V200.76C160.083 202.187 159.53 203.113 158.423 203.54V203.6C159.69 203.987 160.323 205.02 160.323 206.7V207.42C160.323 209.807 159.09 211 156.623 211ZM154.983 199.02V202.74H156.123C156.696 202.74 157.116 202.613 157.383 202.36C157.663 202.093 157.803 201.68 157.803 201.12V200.6C157.803 200.04 157.69 199.64 157.463 199.4C157.236 199.147 156.863 199.02 156.343 199.02H154.983ZM154.983 204.76V208.98H156.623C157.116 208.98 157.476 208.86 157.703 208.62C157.93 208.367 158.043 207.96 158.043 207.4V206.62C158.043 205.927 157.91 205.447 157.643 205.18C157.376 204.9 156.91 204.76 156.243 204.76H154.983ZM167.62 211H165.34V197H168.96C171.413 197 172.64 198.213 172.64 200.64V201.68C172.64 204.107 171.413 205.32 168.96 205.32H167.62V211ZM167.62 199.02V203.32H168.96C169.453 203.32 169.807 203.2 170.02 202.96C170.247 202.707 170.36 202.3 170.36 201.74V200.56C170.36 200 170.247 199.607 170.02 199.38C169.807 199.14 169.453 199.02 168.96 199.02H167.62ZM173.968 207.44V200.56C173.968 199.36 174.288 198.433 174.928 197.78C175.582 197.127 176.508 196.8 177.708 196.8C178.922 196.8 179.848 197.127 180.488 197.78C181.142 198.433 181.468 199.36 181.468 200.56V207.44C181.468 208.64 181.142 209.567 180.488 210.22C179.835 210.873 178.908 211.2 177.708 211.2C176.508 211.2 175.582 210.873 174.928 210.22C174.288 209.567 173.968 208.64 173.968 207.44ZM177.708 209.18C178.695 209.18 179.188 208.64 179.188 207.56V200.44C179.188 199.36 178.695 198.82 177.708 198.82C176.735 198.82 176.248 199.36 176.248 200.44V207.56C176.248 208.64 176.735 209.18 177.708 209.18ZM186.49 211.2C185.29 211.2 184.376 210.887 183.75 210.26C183.123 209.62 182.81 208.7 182.81 207.5V206.56H184.95V207.54C184.95 208.633 185.443 209.18 186.43 209.18C186.95 209.18 187.323 209.047 187.55 208.78C187.79 208.5 187.91 208.047 187.91 207.42V206.66C187.91 205.967 187.77 205.473 187.49 205.18C187.223 204.873 186.776 204.72 186.15 204.72H185.29V202.7H186.21C187.303 202.7 187.85 202.133 187.85 201V200.38C187.85 199.34 187.376 198.82 186.43 198.82C185.496 198.82 185.03 199.32 185.03 200.32V201.02H182.89V200.5C182.89 199.3 183.196 198.387 183.81 197.76C184.423 197.12 185.323 196.8 186.51 196.8C187.683 196.8 188.576 197.107 189.19 197.72C189.803 198.333 190.11 199.22 190.11 200.38V200.76C190.11 202.213 189.516 203.153 188.33 203.58V203.6C189.556 204.027 190.17 205.053 190.17 206.68V207.48C190.17 209.96 188.943 211.2 186.49 211.2ZM195.464 211H191.824V197H194.104V202.4H195.464C197.918 202.4 199.144 203.633 199.144 206.1V207.3C199.144 209.767 197.918 211 195.464 211ZM202.944 211H200.664V197H202.944V211ZM194.104 204.42V208.98H195.464C195.944 208.98 196.298 208.86 196.524 208.62C196.751 208.367 196.864 207.967 196.864 207.42V205.98C196.864 205.433 196.751 205.04 196.524 204.8C196.298 204.547 195.944 204.42 195.464 204.42H194.104ZM207.229 211H204.949V197H211.229V199.02H207.229V211ZM214.905 211H212.625V197H216.245C218.698 197 219.925 198.213 219.925 200.64V201.68C219.925 204.107 218.698 205.32 216.245 205.32H214.905V211ZM214.905 199.02V203.32H216.245C216.738 203.32 217.092 203.2 217.305 202.96C217.532 202.707 217.645 202.3 217.645 201.74V200.56C217.645 200 217.532 199.607 217.305 199.38C217.092 199.14 216.738 199.02 216.245 199.02H214.905ZM225.074 211H221.434V197H223.714V202.4H225.074C227.527 202.4 228.754 203.633 228.754 206.1V207.3C228.754 209.767 227.527 211 225.074 211ZM232.554 211H230.274V197H232.554V211ZM223.714 204.42V208.98H225.074C225.554 208.98 225.907 208.86 226.134 208.62C226.36 208.367 226.474 207.967 226.474 207.42V205.98C226.474 205.433 226.36 205.04 226.134 204.8C225.907 204.547 225.554 204.42 225.074 204.42H223.714ZM246.119 211H234.559V197H236.839V208.98H239.219V197H241.479V208.98H243.839V197H246.119V211ZM254.833 211H248.113V197H254.833V199.02H250.393V202.78H253.953V204.8H250.393V208.98H254.833V211ZM262.034 211H259.754V197H267.334V211H265.054V199.02H262.034V211ZM271.604 211H269.324V197H272.944C275.398 197 276.624 198.213 276.624 200.64V201.68C276.624 204.107 275.398 205.32 272.944 205.32H271.604V211ZM271.604 199.02V203.32H272.944C273.438 203.32 273.791 203.2 274.004 202.96C274.231 202.707 274.344 202.3 274.344 201.74V200.56C274.344 200 274.231 199.607 274.004 199.38C273.791 199.14 273.438 199.02 272.944 199.02H271.604ZM280.173 206.36L283.553 197H285.873V211H283.813V201.6L280.453 211H278.133V197H280.173V206.36ZM291.099 211.2C289.899 211.2 288.986 210.887 288.359 210.26C287.732 209.62 287.419 208.7 287.419 207.5V206.56H289.559V207.54C289.559 208.633 290.052 209.18 291.039 209.18C291.559 209.18 291.932 209.047 292.159 208.78C292.399 208.5 292.519 208.047 292.519 207.42V206.66C292.519 205.967 292.379 205.473 292.099 205.18C291.832 204.873 291.386 204.72 290.759 204.72H289.899V202.7H290.819C291.912 202.7 292.459 202.133 292.459 201V200.38C292.459 199.34 291.986 198.82 291.039 198.82C290.106 198.82 289.639 199.32 289.639 200.32V201.02H287.499V200.5C287.499 199.3 287.806 198.387 288.419 197.76C289.032 197.12 289.932 196.8 291.119 196.8C292.292 196.8 293.186 197.107 293.799 197.72C294.412 198.333 294.719 199.22 294.719 200.38V200.76C294.719 202.213 294.126 203.153 292.939 203.58V203.6C294.166 204.027 294.779 205.053 294.779 206.68V207.48C294.779 209.96 293.552 211.2 291.099 211.2ZM296.254 207.44V200.56C296.254 199.36 296.574 198.433 297.214 197.78C297.867 197.127 298.794 196.8 299.994 196.8C301.207 196.8 302.134 197.127 302.774 197.78C303.427 198.433 303.754 199.36 303.754 200.56V207.44C303.754 208.64 303.427 209.567 302.774 210.22C302.12 210.873 301.194 211.2 299.994 211.2C298.794 211.2 297.867 210.873 297.214 210.22C296.574 209.567 296.254 208.64 296.254 207.44ZM299.994 209.18C300.98 209.18 301.474 208.64 301.474 207.56V200.44C301.474 199.36 300.98 198.82 299.994 198.82C299.02 198.82 298.534 199.36 298.534 200.44V207.56C298.534 208.64 299.02 209.18 299.994 209.18ZM309.475 211H305.555V197H309.275C310.528 197 311.448 197.273 312.035 197.82C312.635 198.367 312.935 199.207 312.935 200.34V200.76C312.935 202.187 312.381 203.113 311.275 203.54V203.6C312.541 203.987 313.175 205.02 313.175 206.7V207.42C313.175 209.807 311.941 211 309.475 211ZM307.835 199.02V202.74H308.975C309.548 202.74 309.968 202.613 310.235 202.36C310.515 202.093 310.655 201.68 310.655 201.12V200.6C310.655 200.04 310.541 199.64 310.315 199.4C310.088 199.147 309.715 199.02 309.195 199.02H307.835ZM307.835 204.76V208.98H309.475C309.968 208.98 310.328 208.86 310.555 208.62C310.781 208.367 310.895 207.96 310.895 207.4V206.62C310.895 205.927 310.761 205.447 310.495 205.18C310.228 204.9 309.761 204.76 309.095 204.76H307.835ZM85.46 227V238.98H86.66V242.88H84.38V241H78.64V242.88H76.38V238.98H77.68C77.9733 238.687 78.14 238.14 78.18 237.34L78.6 227H85.46ZM79.84 238.98H83.18V229.02H80.74L80.46 237.22C80.4333 237.94 80.2267 238.527 79.84 238.98ZM88.0556 241.02C87.7756 241.02 87.5556 240.993 87.3956 240.94V238.96C87.5556 239 87.709 239.02 87.8556 239.02C88.349 239.02 88.689 238.9 88.8756 238.66C89.0756 238.407 89.189 237.973 89.2156 237.36L89.6356 227H96.4756V241H94.2156V229.02H91.7756L91.4756 237.42C91.4356 238.673 91.149 239.587 90.6156 240.16C90.0823 240.733 89.229 241.02 88.0556 241.02ZM105.684 227V241H103.404V235.08H102.364C101.724 235.08 101.271 235.22 101.004 235.5C100.751 235.78 100.624 236.267 100.624 236.96V239.16C100.624 239.947 100.551 240.56 100.404 241H98.1044C98.2777 240.573 98.3644 239.967 98.3644 239.18V237.1C98.3644 236.18 98.4977 235.473 98.7644 234.98C99.031 234.473 99.4644 234.133 100.064 233.96V233.9C98.9444 233.487 98.3844 232.533 98.3844 231.04V230.36C98.3844 229.213 98.6777 228.367 99.2644 227.82C99.8644 227.273 100.791 227 102.044 227H105.684ZM102.324 233.06H103.404V229.02H102.084C101.591 229.02 101.231 229.147 101.004 229.4C100.778 229.653 100.664 230.053 100.664 230.6V231.4C100.664 231.987 100.798 232.413 101.064 232.68C101.331 232.933 101.751 233.06 102.324 233.06ZM113.382 241H111.102V227H114.722C117.175 227 118.402 228.213 118.402 230.64V231.68C118.402 234.107 117.175 235.32 114.722 235.32H113.382V241ZM113.382 229.02V233.32H114.722C115.215 233.32 115.568 233.2 115.782 232.96C116.008 232.707 116.122 232.3 116.122 231.74V230.56C116.122 230 116.008 229.607 115.782 229.38C115.568 229.14 115.215 229.02 114.722 229.02H113.382ZM126.63 241H119.91V227H126.63V229.02H122.19V232.78H125.75V234.8H122.19V238.98H126.63V241ZM135.992 241H133.672L133.212 238.28H130.132L129.652 241H127.532L130.212 227H133.292L135.992 241ZM131.672 229.36L130.472 236.3H132.872L131.672 229.36ZM137.45 241.02C137.17 241.02 136.95 240.993 136.79 240.94V238.96C136.95 239 137.103 239.02 137.25 239.02C137.743 239.02 138.083 238.9 138.27 238.66C138.47 238.407 138.583 237.973 138.61 237.36L139.03 227H145.87V241H143.61V229.02H141.17L140.87 237.42C140.83 238.673 140.543 239.587 140.01 240.16C139.477 240.733 138.623 241.02 137.45 241.02ZM149.919 236.36L153.299 227H155.619V241H153.559V231.6L150.199 241H147.879V227H149.919V236.36ZM160.845 241.2C159.645 241.2 158.732 240.887 158.105 240.26C157.478 239.62 157.165 238.7 157.165 237.5V236.56H159.305V237.54C159.305 238.633 159.798 239.18 160.785 239.18C161.305 239.18 161.678 239.047 161.905 238.78C162.145 238.5 162.265 238.047 162.265 237.42V236.66C162.265 235.967 162.125 235.473 161.845 235.18C161.578 234.873 161.132 234.72 160.505 234.72H159.645V232.7H160.565C161.658 232.7 162.205 232.133 162.205 231V230.38C162.205 229.34 161.732 228.82 160.785 228.82C159.852 228.82 159.385 229.32 159.385 230.32V231.02H157.245V230.5C157.245 229.3 157.552 228.387 158.165 227.76C158.778 227.12 159.678 226.8 160.865 226.8C162.038 226.8 162.932 227.107 163.545 227.72C164.158 228.333 164.465 229.22 164.465 230.38V230.76C164.465 232.213 163.872 233.153 162.685 233.58V233.6C163.912 234.027 164.525 235.053 164.525 236.68V237.48C164.525 239.96 163.298 241.2 160.845 241.2ZM173.843 241H171.523L171.063 238.28H167.983L167.503 241H165.383L168.063 227H171.143L173.843 241ZM169.523 229.36L168.323 236.3H170.723L169.523 229.36ZM184.084 242.88H181.804V241H175.184V227H177.464V238.98H180.484V227H182.764V238.98H184.084V242.88ZM187.478 236.36L190.858 227H193.178V241H191.118V231.6L187.758 241H185.438V227H187.478V236.36ZM197.224 236.36L200.604 227H202.924V241H200.864V231.6L197.504 241H195.184V227H197.224V236.36ZM214.488 240.24C213.861 240.88 212.968 241.2 211.808 241.2C210.648 241.2 209.748 240.88 209.108 240.24C208.481 239.587 208.168 238.673 208.168 237.5V230.5C208.168 229.327 208.481 228.42 209.108 227.78C209.748 227.127 210.648 226.8 211.808 226.8C212.968 226.8 213.861 227.127 214.488 227.78C215.114 228.42 215.428 229.327 215.428 230.5V231.74H213.288V230.4C213.288 229.32 212.814 228.78 211.868 228.78C210.921 228.78 210.448 229.32 210.448 230.4V237.6C210.448 238.68 210.921 239.22 211.868 239.22C212.814 239.22 213.288 238.68 213.288 237.6V235.84H215.428V237.5C215.428 238.673 215.114 239.587 214.488 240.24ZM220.959 241H217.039V227H220.759C222.012 227 222.932 227.273 223.519 227.82C224.119 228.367 224.419 229.207 224.419 230.34V230.76C224.419 232.187 223.866 233.113 222.759 233.54V233.6C224.026 233.987 224.659 235.02 224.659 236.7V237.42C224.659 239.807 223.426 241 220.959 241ZM219.319 229.02V232.74H220.459C221.032 232.74 221.452 232.613 221.719 232.36C221.999 232.093 222.139 231.68 222.139 231.12V230.6C222.139 230.04 222.026 229.64 221.799 229.4C221.572 229.147 221.199 229.02 220.679 229.02H219.319ZM219.319 234.76V238.98H220.959C221.452 238.98 221.812 238.86 222.039 238.62C222.266 238.367 222.379 237.96 222.379 237.4V236.62C222.379 235.927 222.246 235.447 221.979 235.18C221.712 234.9 221.246 234.76 220.579 234.76H219.319ZM226.078 237.44V230.56C226.078 229.36 226.398 228.433 227.038 227.78C227.691 227.127 228.618 226.8 229.818 226.8C231.031 226.8 231.958 227.127 232.598 227.78C233.251 228.433 233.578 229.36 233.578 230.56V237.44C233.578 238.64 233.251 239.567 232.598 240.22C231.944 240.873 231.018 241.2 229.818 241.2C228.618 241.2 227.691 240.873 227.038 240.22C226.398 239.567 226.078 238.64 226.078 237.44ZM229.818 239.18C230.804 239.18 231.298 238.64 231.298 237.56V230.44C231.298 229.36 230.804 228.82 229.818 228.82C228.844 228.82 228.358 229.36 228.358 230.44V237.56C228.358 238.64 228.844 239.18 229.818 239.18ZM237.419 236.36L240.799 227H243.119V241H241.059V231.6L237.699 241H235.379V227H237.419V236.36ZM246.625 241H244.465L247.425 233.82L244.585 227H247.025L248.825 231.7L250.685 227H252.885L250.045 233.82L253.005 241H250.585L248.625 235.94L246.625 241ZM259.802 236.36L263.182 227H265.502V241H263.442V231.6L260.082 241H257.762V227H259.802V236.36ZM275.968 227V238.98H277.168V242.88H274.888V241H269.148V242.88H266.888V238.98H268.188C268.481 238.687 268.648 238.14 268.688 237.34L269.108 227H275.968ZM270.348 238.98H273.688V229.02H271.248L270.968 237.22C270.941 237.94 270.734 238.527 270.348 238.98ZM285.243 241H278.523V227H285.243V229.02H280.803V232.78H284.363V234.8H280.803V238.98H285.243V241ZM290.606 225.86C289.819 225.86 289.199 225.64 288.746 225.2C288.293 224.747 288.053 224.133 288.026 223.36H289.406C289.473 224.027 289.873 224.36 290.606 224.36C291.339 224.36 291.759 224.027 291.866 223.36H293.206C293.179 224.133 292.939 224.747 292.486 225.2C292.033 225.64 291.406 225.86 290.606 225.86ZM288.786 236.36L292.166 227H294.486V241H292.426V231.6L289.066 241H286.746V227H288.786V236.36Z" fill="white"/>
<g filter="url(#filter2_ddddd_702_391000)">
<ellipse cx="34" cy="152.5" rx="22" ry="5.5" fill="#DDBA63"/>
<path d="M33.9987 99.7493C28.5306 99.7558 23.2883 101.931 19.4217 105.797C15.5552 109.664 13.3801 114.906 13.3737 120.374C13.3737 138.022 32.1237 151.352 32.922 151.911C33.2377 152.131 33.6136 152.249 33.9987 152.249C34.3838 152.249 34.7596 152.131 35.0753 151.911C35.8737 151.352 54.6237 138.022 54.6237 120.374C54.6172 114.906 52.4421 109.664 48.5756 105.797C44.709 101.931 39.4668 99.7558 33.9987 99.7493V99.7493ZM34 112.875C35.4834 112.875 36.9334 113.315 38.1668 114.139C39.4002 114.963 40.3615 116.134 40.9291 117.505C41.4968 118.875 41.6453 120.383 41.3559 121.838C41.0665 123.293 40.3522 124.629 39.3033 125.678C38.2544 126.727 36.9181 127.442 35.4632 127.731C34.0084 128.02 32.5004 127.872 31.1299 127.304C29.7595 126.736 28.5881 125.775 27.764 124.542C26.9399 123.308 26.5 121.858 26.5 120.375C26.5 119.39 26.694 118.415 27.0709 117.505C27.4478 116.595 28.0002 115.768 28.6967 115.072C29.3931 114.375 30.2199 113.823 31.1299 113.446C32.0398 113.069 33.0151 112.875 34 112.875V112.875Z" fill="#FFF9DA"/>
<ellipse cx="34" cy="120.5" rx="13" ry="12.5" fill="#C74403"/>
<path d="M37.1291 128H30.7691V126.48C30.7691 125.44 30.9291 124.553 31.2491 123.82C31.5691 123.087 32.1424 122.287 32.9691 121.42C33.8224 120.5 34.3891 119.773 34.6691 119.24C34.9757 118.653 35.1291 118.04 35.1291 117.4C35.1291 116.813 35.0357 116.4 34.8491 116.16C34.6624 115.92 34.3757 115.8 33.9891 115.8C33.2291 115.8 32.8491 116.26 32.8491 117.18V118.68H30.7691V117.32C30.7691 116.187 31.0491 115.32 31.6091 114.72C32.1691 114.107 32.9824 113.8 34.0491 113.8C35.1157 113.8 35.9291 114.107 36.4891 114.72C37.0491 115.32 37.3291 116.187 37.3291 117.32C37.3291 118.187 37.1224 119.013 36.7091 119.8C36.2957 120.613 35.5957 121.54 34.6091 122.58C33.9691 123.26 33.5291 123.82 33.2891 124.26C33.0624 124.7 32.9491 125.18 32.9491 125.7V126H37.1291V128Z" fill="white"/>
</g>
<path d="M79.28 119H77V105H84.58V119H82.3V107.02H79.28V119ZM86.3903 115.44V108.56C86.3903 107.36 86.7103 106.433 87.3503 105.78C88.0036 105.127 88.9303 104.8 90.1303 104.8C91.3436 104.8 92.2703 105.127 92.9103 105.78C93.5636 106.433 93.8903 107.36 93.8903 108.56V115.44C93.8903 116.64 93.5636 117.567 92.9103 118.22C92.257 118.873 91.3303 119.2 90.1303 119.2C88.9303 119.2 88.0036 118.873 87.3503 118.22C86.7103 117.567 86.3903 116.64 86.3903 115.44ZM90.1303 117.18C91.117 117.18 91.6103 116.64 91.6103 115.56V108.44C91.6103 107.36 91.117 106.82 90.1303 106.82C89.157 106.82 88.6703 107.36 88.6703 108.44V115.56C88.6703 116.64 89.157 117.18 90.1303 117.18ZM98.9114 119.2C97.7114 119.2 96.7981 118.887 96.1714 118.26C95.5447 117.62 95.2314 116.7 95.2314 115.5V114.56H97.3714V115.54C97.3714 116.633 97.8647 117.18 98.8514 117.18C99.3714 117.18 99.7447 117.047 99.9714 116.78C100.211 116.5 100.331 116.047 100.331 115.42V114.66C100.331 113.967 100.191 113.473 99.9114 113.18C99.6447 112.873 99.1981 112.72 98.5714 112.72H97.7114V110.7H98.6314C99.7247 110.7 100.271 110.133 100.271 109V108.38C100.271 107.34 99.7981 106.82 98.8514 106.82C97.9181 106.82 97.4514 107.32 97.4514 108.32V109.02H95.3114V108.5C95.3114 107.3 95.6181 106.387 96.2314 105.76C96.8447 105.12 97.7447 104.8 98.9314 104.8C100.105 104.8 100.998 105.107 101.611 105.72C102.225 106.333 102.531 107.22 102.531 108.38V108.76C102.531 110.213 101.938 111.153 100.751 111.58V111.6C101.978 112.027 102.591 113.053 102.591 114.68V115.48C102.591 117.96 101.365 119.2 98.9114 119.2ZM104.066 115.44V108.56C104.066 107.36 104.386 106.433 105.026 105.78C105.679 105.127 106.606 104.8 107.806 104.8C109.019 104.8 109.946 105.127 110.586 105.78C111.239 106.433 111.566 107.36 111.566 108.56V115.44C111.566 116.64 111.239 117.567 110.586 118.22C109.933 118.873 109.006 119.2 107.806 119.2C106.606 119.2 105.679 118.873 105.026 118.22C104.386 117.567 104.066 116.64 104.066 115.44ZM107.806 117.18C108.793 117.18 109.286 116.64 109.286 115.56V108.44C109.286 107.36 108.793 106.82 107.806 106.82C106.833 106.82 106.346 107.36 106.346 108.44V115.56C106.346 116.64 106.833 117.18 107.806 117.18ZM117.287 119H113.367V105H117.087C118.341 105 119.261 105.273 119.847 105.82C120.447 106.367 120.747 107.207 120.747 108.34V108.76C120.747 110.187 120.194 111.113 119.087 111.54V111.6C120.354 111.987 120.987 113.02 120.987 114.7V115.42C120.987 117.807 119.754 119 117.287 119ZM115.647 107.02V110.74H116.787C117.361 110.74 117.781 110.613 118.047 110.36C118.327 110.093 118.467 109.68 118.467 109.12V108.6C118.467 108.04 118.354 107.64 118.127 107.4C117.901 107.147 117.527 107.02 117.007 107.02H115.647ZM115.647 112.76V116.98H117.287C117.781 116.98 118.141 116.86 118.367 116.62C118.594 116.367 118.707 115.96 118.707 115.4V114.62C118.707 113.927 118.574 113.447 118.307 113.18C118.041 112.9 117.574 112.76 116.907 112.76H115.647ZM124.626 114.36L128.006 105H130.326V119H128.266V109.6L124.906 119H122.586V105H124.626V114.36ZM144.21 105V116.98H145.41V120.88H143.13V119H137.39V120.88H135.13V116.98H136.43C136.723 116.687 136.89 116.14 136.93 115.34L137.35 105H144.21ZM138.59 116.98H141.93V107.02H139.49L139.21 115.22C139.183 115.94 138.977 116.527 138.59 116.98ZM149.046 119H146.766V105H150.386C152.839 105 154.066 106.213 154.066 108.64V109.68C154.066 112.107 152.839 113.32 150.386 113.32H149.046V119ZM149.046 107.02V111.32H150.386C150.879 111.32 151.232 111.2 151.446 110.96C151.672 110.707 151.786 110.3 151.786 109.74V108.56C151.786 108 151.672 107.607 151.446 107.38C151.232 107.14 150.879 107.02 150.386 107.02H149.046ZM159.06 112.56L160.86 105H163.04L160.02 116.62C159.78 117.54 159.4 118.2 158.88 118.6C158.36 119 157.627 119.2 156.68 119.2C156.134 119.2 155.674 119.127 155.3 118.98V117.02C155.62 117.127 155.967 117.18 156.34 117.18C156.767 117.18 157.087 117.12 157.3 117C157.514 116.867 157.674 116.64 157.78 116.32L157.88 115.96L154.72 105H157.08L159.06 112.56ZM167.329 119.2C166.129 119.2 165.216 118.887 164.589 118.26C163.963 117.62 163.649 116.7 163.649 115.5V114.56H165.789V115.54C165.789 116.633 166.283 117.18 167.269 117.18C167.789 117.18 168.163 117.047 168.389 116.78C168.629 116.5 168.749 116.047 168.749 115.42V114.66C168.749 113.967 168.609 113.473 168.329 113.18C168.063 112.873 167.616 112.72 166.989 112.72H166.129V110.7H167.049C168.143 110.7 168.689 110.133 168.689 109V108.38C168.689 107.34 168.216 106.82 167.269 106.82C166.336 106.82 165.869 107.32 165.869 108.32V109.02H163.729V108.5C163.729 107.3 164.036 106.387 164.649 105.76C165.263 105.12 166.163 104.8 167.349 104.8C168.523 104.8 169.416 105.107 170.029 105.72C170.643 106.333 170.949 107.22 170.949 108.38V108.76C170.949 110.213 170.356 111.153 169.169 111.58V111.6C170.396 112.027 171.009 113.053 171.009 114.68V115.48C171.009 117.96 169.783 119.2 167.329 119.2ZM179.384 119H172.664V105H179.384V107.02H174.944V110.78H178.504V112.8H174.944V116.98H179.384V119ZM184.747 103.86C183.96 103.86 183.34 103.64 182.887 103.2C182.433 102.747 182.193 102.133 182.167 101.36H183.547C183.613 102.027 184.013 102.36 184.747 102.36C185.48 102.36 185.9 102.027 186.007 101.36H187.347C187.32 102.133 187.08 102.747 186.627 103.2C186.173 103.64 185.547 103.86 184.747 103.86ZM182.927 114.36L186.307 105H188.627V119H186.567V109.6L183.207 119H180.887V105H182.927V114.36ZM196.331 119H194.051V105H201.631V119H199.351V107.02H196.331V119ZM203.441 115.44V108.56C203.441 107.36 203.761 106.433 204.401 105.78C205.054 105.127 205.981 104.8 207.181 104.8C208.394 104.8 209.321 105.127 209.961 105.78C210.614 106.433 210.941 107.36 210.941 108.56V115.44C210.941 116.64 210.614 117.567 209.961 118.22C209.308 118.873 208.381 119.2 207.181 119.2C205.981 119.2 205.054 118.873 204.401 118.22C203.761 117.567 203.441 116.64 203.441 115.44ZM207.181 117.18C208.168 117.18 208.661 116.64 208.661 115.56V108.44C208.661 107.36 208.168 106.82 207.181 106.82C206.208 106.82 205.721 107.36 205.721 108.44V115.56C205.721 116.64 206.208 117.18 207.181 117.18ZM221.105 105V116.98H222.305V120.88H220.025V119H214.285V120.88H212.025V116.98H213.325C213.618 116.687 213.785 116.14 213.825 115.34L214.245 105H221.105ZM215.485 116.98H218.825V107.02H216.385L216.105 115.22C216.078 115.94 215.871 116.527 215.485 116.98ZM232.12 105V116.98H233.32V120.88H231.04V119H225.3V120.88H223.04V116.98H224.34C224.633 116.687 224.8 116.14 224.84 115.34L225.26 105H232.12ZM226.5 116.98H229.84V107.02H227.4L227.12 115.22C227.093 115.94 226.887 116.527 226.5 116.98ZM241.396 119H234.676V105H241.396V107.02H236.956V110.78H240.516V112.8H236.956V116.98H241.396V119ZM245.178 119H242.898V105H246.518C248.972 105 250.198 106.213 250.198 108.64V109.68C250.198 112.107 248.972 113.32 246.518 113.32H245.178V119ZM245.178 107.02V111.32H246.518C247.012 111.32 247.365 111.2 247.578 110.96C247.805 110.707 247.918 110.3 247.918 109.74V108.56C247.918 108 247.805 107.607 247.578 107.38C247.365 107.14 247.012 107.02 246.518 107.02H245.178ZM263.861 119H261.581L259.421 112.2L258.321 114.1V119H256.041V114.1L254.941 112.2L252.781 119H250.481L253.441 110.2L250.521 105H252.881L256.041 111.06V105H258.321V111.06L261.501 105H263.821L260.921 110.22L263.861 119ZM273.023 119H270.703L270.243 116.28H267.163L266.683 119H264.563L267.243 105H270.323L273.023 119ZM268.703 107.36L267.503 114.3H269.903L268.703 107.36ZM277.57 119H275.31V107.02H272.63V105H280.25V107.02H277.57V119ZM285.269 119H281.629V105H283.909V110.4H285.269C287.722 110.4 288.949 111.633 288.949 114.1V115.3C288.949 117.767 287.722 119 285.269 119ZM283.909 112.42V116.98H285.269C285.749 116.98 286.102 116.86 286.329 116.62C286.556 116.367 286.669 115.967 286.669 115.42V113.98C286.669 113.433 286.556 113.04 286.329 112.8C286.102 112.547 285.749 112.42 285.269 112.42H283.909ZM81.32 149H79.06V137.02H76.38V135H84V137.02H81.32V149ZM89.2989 149H85.3789V135H89.0989C90.3522 135 91.2722 135.273 91.8589 135.82C92.4589 136.367 92.7589 137.207 92.7589 138.34V138.76C92.7589 140.187 92.2056 141.113 91.0989 141.54V141.6C92.3656 141.987 92.9989 143.02 92.9989 144.7V145.42C92.9989 147.807 91.7656 149 89.2989 149ZM87.6589 137.02V140.74H88.7989C89.3722 140.74 89.7922 140.613 90.0589 140.36C90.3389 140.093 90.4789 139.68 90.4789 139.12V138.6C90.4789 138.04 90.3656 137.64 90.1389 137.4C89.9122 137.147 89.5389 137.02 89.0189 137.02H87.6589ZM87.6589 142.76V146.98H89.2989C89.7922 146.98 90.1522 146.86 90.3789 146.62C90.6056 146.367 90.7189 145.96 90.7189 145.4V144.62C90.7189 143.927 90.5856 143.447 90.3189 143.18C90.0522 142.9 89.5856 142.76 88.9189 142.76H87.6589ZM94.4177 145.44V138.56C94.4177 137.36 94.7377 136.433 95.3777 135.78C96.031 135.127 96.9577 134.8 98.1577 134.8C99.371 134.8 100.298 135.127 100.938 135.78C101.591 136.433 101.918 137.36 101.918 138.56V145.44C101.918 146.64 101.591 147.567 100.938 148.22C100.284 148.873 99.3577 149.2 98.1577 149.2C96.9577 149.2 96.031 148.873 95.3777 148.22C94.7377 147.567 94.4177 146.64 94.4177 145.44ZM98.1577 147.18C99.1443 147.18 99.6377 146.64 99.6377 145.56V138.44C99.6377 137.36 99.1443 136.82 98.1577 136.82C97.1843 136.82 96.6977 137.36 96.6977 138.44V145.56C96.6977 146.64 97.1843 147.18 98.1577 147.18ZM105.759 144.36L109.139 135H111.459V149H109.399V139.6L106.039 149H103.719V135H105.759V144.36ZM116.703 145.44V138.56C116.703 137.36 117.023 136.433 117.663 135.78C118.316 135.127 119.243 134.8 120.443 134.8C121.656 134.8 122.583 135.127 123.223 135.78C123.876 136.433 124.203 137.36 124.203 138.56V145.44C124.203 146.64 123.876 147.567 123.223 148.22C122.569 148.873 121.643 149.2 120.443 149.2C119.243 149.2 118.316 148.873 117.663 148.22C117.023 147.567 116.703 146.64 116.703 145.44ZM120.443 147.18C121.429 147.18 121.923 146.64 121.923 145.56V138.44C121.923 137.36 121.429 136.82 120.443 136.82C119.469 136.82 118.983 137.36 118.983 138.44V145.56C118.983 146.64 119.469 147.18 120.443 147.18ZM130.246 149H127.986V137.02H125.306V135H132.926V137.02H130.246V149ZM142.405 149H140.005L137.785 142.6L136.585 144.58V149H134.305V135H136.585V141.16L140.045 135H142.365L139.325 140.2L142.405 149ZM146.018 149H143.738V135H147.358C149.812 135 151.038 136.213 151.038 138.64V139.68C151.038 142.107 149.812 143.32 147.358 143.32H146.018V149ZM146.018 137.02V141.32H147.358C147.852 141.32 148.205 141.2 148.418 140.96C148.645 140.707 148.758 140.3 148.758 139.74V138.56C148.758 138 148.645 137.607 148.418 137.38C148.205 137.14 147.852 137.02 147.358 137.02H146.018ZM156.187 149H152.547V135H154.827V140.4H156.187C158.64 140.4 159.867 141.633 159.867 144.1V145.3C159.867 147.767 158.64 149 156.187 149ZM163.667 149H161.387V135H163.667V149ZM154.827 142.42V146.98H156.187C156.667 146.98 157.02 146.86 157.247 146.62C157.474 146.367 157.587 145.967 157.587 145.42V143.98C157.587 143.433 157.474 143.04 157.247 142.8C157.02 142.547 156.667 142.42 156.187 142.42H154.827ZM169.992 149H167.732V137.02H165.052V135H172.672V137.02H169.992V149ZM176.091 144.36L179.471 135H181.791V149H179.731V139.6L176.371 149H174.051V135H176.091V144.36ZM190.997 135V149H188.717V143.08H187.677C187.037 143.08 186.584 143.22 186.317 143.5C186.064 143.78 185.937 144.267 185.937 144.96V147.16C185.937 147.947 185.864 148.56 185.717 149H183.417C183.59 148.573 183.677 147.967 183.677 147.18V145.1C183.677 144.18 183.81 143.473 184.077 142.98C184.344 142.473 184.777 142.133 185.377 141.96V141.9C184.257 141.487 183.697 140.533 183.697 139.04V138.36C183.697 137.213 183.99 136.367 184.577 135.82C185.177 135.273 186.104 135 187.357 135H190.997ZM187.637 141.06H188.717V137.02H187.397C186.904 137.02 186.544 137.147 186.317 137.4C186.09 137.653 185.977 138.053 185.977 138.6V139.4C185.977 139.987 186.11 140.413 186.377 140.68C186.644 140.933 187.064 141.06 187.637 141.06Z" fill="white"/>
<defs>
<filter id="filter0_ddddd_702_391000" x="0" y="0" width="114" height="109" filterUnits="userSpaceOnUse" color-interpolation-filters="sRGB">
<feFlood flood-opacity="0" result="BackgroundImageFix"/>
<feColorMatrix in="SourceAlpha" type="matrix" values="0 0 0 0 0 0 0 0 0 0 0 0 0 0 0 0 0 0 127 0" result="hardAlpha"/>
<feOffset/>
<feColorMatrix type="matrix" values="0 0 0 0 0.0745098 0 0 0 0 0.12549 0 0 0 0 0.0823529 0 0 0 0.2 0"/>
<feBlend mode="normal" in2="BackgroundImageFix" result="effect1_dropShadow_702_391000"/>
<feColorMatrix in="SourceAlpha" type="matrix" values="0 0 0 0 0 0 0 0 0 0 0 0 0 0 0 0 0 0 127 0" result="hardAlpha"/>
<feOffset dx="2" dy="2"/>
<feGaussianBlur stdDeviation="3"/>
<feColorMatrix type="matrix" values="0 0 0 0 0.0745098 0 0 0 0 0.12549 0 0 0 0 0.0823529 0 0 0 0.2 0"/>
<feBlend mode="normal" in2="effect1_dropShadow_702_391000" result="effect2_dropShadow_702_391000"/>
<feColorMatrix in="SourceAlpha" type="matrix" values="0 0 0 0 0 0 0 0 0 0 0 0 0 0 0 0 0 0 127 0" result="hardAlpha"/>
<feOffset dx="8" dy="7"/>
<feGaussianBlur stdDeviation="5"/>
<feColorMatrix type="matrix" values="0 0 0 0 0.0745098 0 0 0 0 0.12549 0 0 0 0 0.0823529 0 0 0 0.17 0"/>
<feBlend mode="normal" in2="effect2_dropShadow_702_391000" result="effect3_dropShadow_702_391000"/>
<feColorMatrix in="SourceAlpha" type="matrix" values="0 0 0 0 0 0 0 0 0 0 0 0 0 0 0 0 0 0 127 0" result="hardAlpha"/>
<feOffset dx="18" dy="15"/>
<feGaussianBlur stdDeviation="7"/>
<feColorMatrix type="matrix" values="0 0 0 0 0.0745098 0 0 0 0 0.12549 0 0 0 0 0.0823529 0 0 0 0.1 0"/>
<feBlend mode="normal" in2="effect3_dropShadow_702_391000" result="effect4_dropShadow_702_391000"/>
<feColorMatrix in="SourceAlpha" type="matrix" values="0 0 0 0 0 0 0 0 0 0 0 0 0 0 0 0 0 0 127 0" result="hardAlpha"/>
<feOffset dx="33" dy="26"/>
<feGaussianBlur stdDeviation="8.5"/>
<feColorMatrix type="matrix" values="0 0 0 0 0.0745098 0 0 0 0 0.12549 0 0 0 0 0.0823529 0 0 0 0.03 0"/>
<feBlend mode="normal" in2="effect4_dropShadow_702_391000" result="effect5_dropShadow_702_391000"/>
<feBlend mode="normal" in="SourceGraphic" in2="effect5_dropShadow_702_391000" result="shape"/>
</filter>
<filter id="filter1_ddddd_702_391000" x="0" y="184" width="114" height="109" filterUnits="userSpaceOnUse" color-interpolation-filters="sRGB">
<feFlood flood-opacity="0" result="BackgroundImageFix"/>
<feColorMatrix in="SourceAlpha" type="matrix" values="0 0 0 0 0 0 0 0 0 0 0 0 0 0 0 0 0 0 127 0" result="hardAlpha"/>
<feOffset/>
<feColorMatrix type="matrix" values="0 0 0 0 0.0745098 0 0 0 0 0.12549 0 0 0 0 0.0823529 0 0 0 0.2 0"/>
<feBlend mode="normal" in2="BackgroundImageFix" result="effect1_dropShadow_702_391000"/>
<feColorMatrix in="SourceAlpha" type="matrix" values="0 0 0 0 0 0 0 0 0 0 0 0 0 0 0 0 0 0 127 0" result="hardAlpha"/>
<feOffset dx="2" dy="2"/>
<feGaussianBlur stdDeviation="3"/>
<feColorMatrix type="matrix" values="0 0 0 0 0.0745098 0 0 0 0 0.12549 0 0 0 0 0.0823529 0 0 0 0.2 0"/>
<feBlend mode="normal" in2="effect1_dropShadow_702_391000" result="effect2_dropShadow_702_391000"/>
<feColorMatrix in="SourceAlpha" type="matrix" values="0 0 0 0 0 0 0 0 0 0 0 0 0 0 0 0 0 0 127 0" result="hardAlpha"/>
<feOffset dx="8" dy="7"/>
<feGaussianBlur stdDeviation="5"/>
<feColorMatrix type="matrix" values="0 0 0 0 0.0745098 0 0 0 0 0.12549 0 0 0 0 0.0823529 0 0 0 0.17 0"/>
<feBlend mode="normal" in2="effect2_dropShadow_702_391000" result="effect3_dropShadow_702_391000"/>
<feColorMatrix in="SourceAlpha" type="matrix" values="0 0 0 0 0 0 0 0 0 0 0 0 0 0 0 0 0 0 127 0" result="hardAlpha"/>
<feOffset dx="18" dy="15"/>
<feGaussianBlur stdDeviation="7"/>
<feColorMatrix type="matrix" values="0 0 0 0 0.0745098 0 0 0 0 0.12549 0 0 0 0 0.0823529 0 0 0 0.1 0"/>
<feBlend mode="normal" in2="effect3_dropShadow_702_391000" result="effect4_dropShadow_702_391000"/>
<feColorMatrix in="SourceAlpha" type="matrix" values="0 0 0 0 0 0 0 0 0 0 0 0 0 0 0 0 0 0 127 0" result="hardAlpha"/>
<feOffset dx="33" dy="26"/>
<feGaussianBlur stdDeviation="8.5"/>
<feColorMatrix type="matrix" values="0 0 0 0 0.0745098 0 0 0 0 0.12549 0 0 0 0 0.0823529 0 0 0 0.03 0"/>
<feBlend mode="normal" in2="effect4_dropShadow_702_391000" result="effect5_dropShadow_702_391000"/>
<feBlend mode="normal" in="SourceGraphic" in2="effect5_dropShadow_702_391000" result="shape"/>
</filter>
<filter id="filter2_ddddd_702_391000" x="0" y="92" width="114" height="109" filterUnits="userSpaceOnUse" color-interpolation-filters="sRGB">
<feFlood flood-opacity="0" result="BackgroundImageFix"/>
<feColorMatrix in="SourceAlpha" type="matrix" values="0 0 0 0 0 0 0 0 0 0 0 0 0 0 0 0 0 0 127 0" result="hardAlpha"/>
<feOffset/>
<feColorMatrix type="matrix" values="0 0 0 0 0.0745098 0 0 0 0 0.12549 0 0 0 0 0.0823529 0 0 0 0.2 0"/>
<feBlend mode="normal" in2="BackgroundImageFix" result="effect1_dropShadow_702_391000"/>
<feColorMatrix in="SourceAlpha" type="matrix" values="0 0 0 0 0 0 0 0 0 0 0 0 0 0 0 0 0 0 127 0" result="hardAlpha"/>
<feOffset dx="2" dy="2"/>
<feGaussianBlur stdDeviation="3"/>
<feColorMatrix type="matrix" values="0 0 0 0 0.0745098 0 0 0 0 0.12549 0 0 0 0 0.0823529 0 0 0 0.2 0"/>
<feBlend mode="normal" in2="effect1_dropShadow_702_391000" result="effect2_dropShadow_702_391000"/>
<feColorMatrix in="SourceAlpha" type="matrix" values="0 0 0 0 0 0 0 0 0 0 0 0 0 0 0 0 0 0 127 0" result="hardAlpha"/>
<feOffset dx="8" dy="7"/>
<feGaussianBlur stdDeviation="5"/>
<feColorMatrix type="matrix" values="0 0 0 0 0.0745098 0 0 0 0 0.12549 0 0 0 0 0.0823529 0 0 0 0.17 0"/>
<feBlend mode="normal" in2="effect2_dropShadow_702_391000" result="effect3_dropShadow_702_391000"/>
<feColorMatrix in="SourceAlpha" type="matrix" values="0 0 0 0 0 0 0 0 0 0 0 0 0 0 0 0 0 0 127 0" result="hardAlpha"/>
<feOffset dx="18" dy="15"/>
<feGaussianBlur stdDeviation="7"/>
<feColorMatrix type="matrix" values="0 0 0 0 0.0745098 0 0 0 0 0.12549 0 0 0 0 0.0823529 0 0 0 0.1 0"/>
<feBlend mode="normal" in2="effect3_dropShadow_702_391000" result="effect4_dropShadow_702_391000"/>
<feColorMatrix in="SourceAlpha" type="matrix" values="0 0 0 0 0 0 0 0 0 0 0 0 0 0 0 0 0 0 127 0" result="hardAlpha"/>
<feOffset dx="33" dy="26"/>
<feGaussianBlur stdDeviation="8.5"/>
<feColorMatrix type="matrix" values="0 0 0 0 0.0745098 0 0 0 0 0.12549 0 0 0 0 0.0823529 0 0 0 0.03 0"/>
<feBlend mode="normal" in2="effect4_dropShadow_702_391000" result="effect5_dropShadow_702_391000"/>
<feBlend mode="normal" in="SourceGraphic" in2="effect5_dropShadow_702_391000" result="shape"/>
</filter>
</defs>
</svg>
