<svg width="893" height="522" viewBox="0 0 893 522" fill="none" xmlns="http://www.w3.org/2000/svg">
<g filter="url(#filter0_ddddd_442_403160)">
<ellipse cx="124" cy="79.5" rx="29" ry="7.5" fill="#DDBA63"/>
<path d="M123.998 8.99915C116.707 9.0078 109.718 11.9079 104.562 17.0633C99.4068 22.2186 96.5067 29.2083 96.498 36.4991C96.498 60.0294 121.498 77.8029 122.562 78.5475C122.983 78.8415 123.485 78.9991 123.998 78.9991C124.512 78.9991 125.013 78.8415 125.434 78.5475C126.498 77.8029 151.498 60.0294 151.498 36.4991C151.489 29.2083 148.589 22.2186 143.434 17.0633C138.279 11.9079 131.289 9.0078 123.998 8.99915V8.99915ZM124 26.5001C125.978 26.5001 127.911 27.0865 129.556 28.1854C131.2 29.2842 132.482 30.846 133.239 32.6732C133.996 34.5005 134.194 36.5111 133.808 38.451C133.422 40.3908 132.469 42.1726 131.071 43.5711C129.672 44.9696 127.891 45.9221 125.951 46.3079C124.011 46.6938 122 46.4957 120.173 45.7388C118.346 44.982 116.784 43.7002 115.685 42.0558C114.586 40.4113 114 38.4779 114 36.5001C114 35.1868 114.258 33.8864 114.761 32.6732C115.264 31.4599 116 30.3575 116.929 29.4289C117.857 28.5003 118.96 27.7637 120.173 27.2612C121.386 26.7586 122.687 26.5 124 26.5001V26.5001Z" fill="#FFF9DA"/>
<circle cx="124" cy="37" r="17" fill="#C74403"/>
<path d="M126.34 45H123.7V32.184H120.94V30.312C122.044 30.312 122.844 30.168 123.34 29.88C123.852 29.56 124.26 29 124.564 28.2H126.34V45Z" fill="white"/>
</g>
<path d="M191.936 36.5H189.2V19.7H193.544C196.488 19.7 197.96 21.156 197.96 24.068V25.316C197.96 28.228 196.488 29.684 193.544 29.684H191.936V36.5ZM191.936 22.124V27.284H193.544C194.136 27.284 194.56 27.14 194.816 26.852C195.088 26.548 195.224 26.06 195.224 25.388V23.972C195.224 23.3 195.088 22.828 194.816 22.556C194.56 22.268 194.136 22.124 193.544 22.124H191.936ZM208.193 36.5H205.409L204.857 33.236H201.161L200.585 36.5H198.041L201.257 19.7H204.953L208.193 36.5ZM203.009 22.532L201.569 30.86H204.449L203.009 22.532ZM217.052 35.588C216.3 36.356 215.228 36.74 213.836 36.74C212.444 36.74 211.364 36.356 210.596 35.588C209.844 34.804 209.468 33.708 209.468 32.3V23.9C209.468 22.492 209.844 21.404 210.596 20.636C211.364 19.852 212.444 19.46 213.836 19.46C215.228 19.46 216.3 19.852 217.052 20.636C217.804 21.404 218.18 22.492 218.18 23.9V25.388H215.612V23.78C215.612 22.484 215.044 21.836 213.908 21.836C212.772 21.836 212.204 22.484 212.204 23.78V32.42C212.204 33.716 212.772 34.364 213.908 34.364C215.044 34.364 215.612 33.716 215.612 32.42V30.308H218.18V32.3C218.18 33.708 217.804 34.804 217.052 35.588ZM227.506 35.588C226.754 36.356 225.682 36.74 224.29 36.74C222.898 36.74 221.818 36.356 221.05 35.588C220.298 34.804 219.922 33.708 219.922 32.3V23.9C219.922 22.492 220.298 21.404 221.05 20.636C221.818 19.852 222.898 19.46 224.29 19.46C225.682 19.46 226.754 19.852 227.506 20.636C228.258 21.404 228.634 22.492 228.634 23.9V25.388H226.066V23.78C226.066 22.484 225.498 21.836 224.362 21.836C223.226 21.836 222.658 22.484 222.658 23.78V32.42C222.658 33.716 223.226 34.364 224.362 34.364C225.498 34.364 226.066 33.716 226.066 32.42V30.308H228.634V32.3C228.634 33.708 228.258 34.804 227.506 35.588ZM240.287 36.5H237.407L234.743 28.82L233.303 31.196V36.5H230.567V19.7H233.303V27.092L237.455 19.7H240.239L236.591 25.94L240.287 36.5ZM251.272 36.5H248.488L247.936 33.236H244.24L243.664 36.5H241.12L244.336 19.7H248.032L251.272 36.5ZM246.088 22.532L244.648 30.86H247.528L246.088 22.532ZM268.144 36.5H265.408L262.816 28.34L261.496 30.62V36.5H258.76V30.62L257.44 28.34L254.848 36.5H252.088L255.64 25.94L252.136 19.7H254.968L258.76 26.972V19.7H261.496V26.972L265.312 19.7H268.096L264.616 25.964L268.144 36.5ZM272.203 30.932L276.259 19.7H279.043V36.5H276.571V25.22L272.539 36.5H269.755V19.7H272.203V30.932ZM282.674 39.284H281.426L282.506 36.5H281.546V33.62H284.282V36.212L282.674 39.284ZM296.872 25.796V19.7H299.608V36.5H296.872V29.492C296.168 30.212 295.216 30.572 294.016 30.572C291.648 30.572 290.464 29.22 290.464 26.516V19.7H293.176V26.156C293.176 27.452 293.736 28.1 294.856 28.1C295.496 28.1 295.992 27.908 296.344 27.524C296.696 27.124 296.872 26.548 296.872 25.796ZM307.189 36.5H304.477V22.124H301.261V19.7H310.405V22.124H307.189V36.5ZM311.75 32.228V23.972C311.75 22.532 312.134 21.42 312.902 20.636C313.686 19.852 314.798 19.46 316.238 19.46C317.694 19.46 318.806 19.852 319.574 20.636C320.358 21.42 320.75 22.532 320.75 23.972V32.228C320.75 33.668 320.358 34.78 319.574 35.564C318.79 36.348 317.678 36.74 316.238 36.74C314.798 36.74 313.686 36.348 312.902 35.564C312.134 34.78 311.75 33.668 311.75 32.228ZM316.238 34.316C317.422 34.316 318.014 33.668 318.014 32.372V23.828C318.014 22.532 317.422 21.884 316.238 21.884C315.07 21.884 314.486 22.532 314.486 23.828V32.372C314.486 33.668 315.07 34.316 316.238 34.316ZM331.573 36.5H327.013V19.7H334.861V22.124H329.749V26.3H331.573C334.517 26.3 335.989 27.78 335.989 30.74V32.06C335.989 35.02 334.517 36.5 331.573 36.5ZM329.749 28.724V34.076H331.573C332.149 34.076 332.573 33.932 332.845 33.644C333.117 33.34 333.253 32.86 333.253 32.204V30.596C333.253 29.94 333.117 29.468 332.845 29.18C332.573 28.876 332.149 28.724 331.573 28.724H329.749ZM342.162 36.5H337.794V19.7H340.53V26.18H342.162C345.106 26.18 346.578 27.66 346.578 30.62V32.06C346.578 35.02 345.106 36.5 342.162 36.5ZM351.138 36.5H348.402V19.7H351.138V36.5ZM340.53 28.604V34.076H342.162C342.738 34.076 343.162 33.932 343.434 33.644C343.706 33.34 343.842 32.86 343.842 32.204V30.476C343.842 29.82 343.706 29.348 343.434 29.06C343.162 28.756 342.738 28.604 342.162 28.604H340.53ZM362.829 36.5H360.117V22.124H356.901V19.7H366.045V22.124H362.829V36.5ZM372.068 36.5H367.7V19.7H370.436V26.18H372.068C375.012 26.18 376.484 27.66 376.484 30.62V32.06C376.484 35.02 375.012 36.5 372.068 36.5ZM381.044 36.5H378.308V19.7H381.044V36.5ZM370.436 28.604V34.076H372.068C372.644 34.076 373.068 33.932 373.34 33.644C373.612 33.34 373.748 32.86 373.748 32.204V30.476C373.748 29.82 373.612 29.348 373.34 29.06C373.068 28.756 372.644 28.604 372.068 28.604H370.436ZM389.352 36.5H386.76L390.312 27.884L386.904 19.7H389.832L391.992 25.34L394.224 19.7H396.864L393.456 27.884L397.008 36.5H394.104L391.752 30.428L389.352 36.5ZM397.953 32.228V23.972C397.953 22.532 398.337 21.42 399.105 20.636C399.889 19.852 401.001 19.46 402.441 19.46C403.897 19.46 405.009 19.852 405.777 20.636C406.561 21.42 406.953 22.532 406.953 23.972V32.228C406.953 33.668 406.561 34.78 405.777 35.564C404.993 36.348 403.881 36.74 402.441 36.74C401.001 36.74 399.889 36.348 399.105 35.564C398.337 34.78 397.953 33.668 397.953 32.228ZM402.441 34.316C403.625 34.316 404.217 33.668 404.217 32.372V23.828C404.217 22.532 403.625 21.884 402.441 21.884C401.273 21.884 400.689 22.532 400.689 23.828V32.372C400.689 33.668 401.273 34.316 402.441 34.316ZM414.204 36.5H411.492V22.124H408.276V19.7H417.42V22.124H414.204V36.5ZM427.139 36.5H419.075V19.7H427.139V22.124H421.811V26.636H426.083V29.06H421.811V34.076H427.139V36.5ZM428.99 36.524C428.654 36.524 428.39 36.492 428.198 36.428V34.052C428.39 34.1 428.574 34.124 428.75 34.124C429.342 34.124 429.75 33.98 429.974 33.692C430.214 33.388 430.35 32.868 430.382 32.132L430.886 19.7H439.094V36.5H436.382V22.124H433.454L433.094 32.204C433.046 33.708 432.702 34.804 432.062 35.492C431.422 36.18 430.398 36.524 428.99 36.524ZM188.984 68.228V59.972C188.984 58.532 189.368 57.42 190.136 56.636C190.92 55.852 192.032 55.46 193.472 55.46C194.928 55.46 196.04 55.852 196.808 56.636C197.592 57.42 197.984 58.532 197.984 59.972V68.228C197.984 69.668 197.592 70.78 196.808 71.564C196.024 72.348 194.912 72.74 193.472 72.74C192.032 72.74 190.92 72.348 190.136 71.564C189.368 70.78 188.984 69.668 188.984 68.228ZM193.472 70.316C194.656 70.316 195.248 69.668 195.248 68.372V59.828C195.248 58.532 194.656 57.884 193.472 57.884C192.304 57.884 191.72 58.532 191.72 59.828V68.372C191.72 69.668 192.304 70.316 193.472 70.316ZM205.236 72.5H202.524V58.124H199.308V55.7H208.452V58.124H205.236V72.5ZM219.826 72.5H216.946L214.282 64.82L212.842 67.196V72.5H210.106V55.7H212.842V63.092L216.994 55.7H219.778L216.13 61.94L219.826 72.5ZM224.163 72.5H221.427V55.7H225.771C228.715 55.7 230.187 57.156 230.187 60.068V61.316C230.187 64.228 228.715 65.684 225.771 65.684H224.163V72.5ZM224.163 58.124V63.284H225.771C226.363 63.284 226.787 63.14 227.043 62.852C227.315 62.548 227.451 62.06 227.451 61.388V59.972C227.451 59.3 227.315 58.828 227.043 58.556C226.787 58.268 226.363 58.124 225.771 58.124H224.163ZM236.365 72.5H231.997V55.7H234.733V62.18H236.365C239.309 62.18 240.781 63.66 240.781 66.62V68.06C240.781 71.02 239.309 72.5 236.365 72.5ZM245.341 72.5H242.605V55.7H245.341V72.5ZM234.733 64.604V70.076H236.365C236.941 70.076 237.365 69.932 237.637 69.644C237.909 69.34 238.045 68.86 238.045 68.204V66.476C238.045 65.82 237.909 65.348 237.637 65.06C237.365 64.756 236.941 64.604 236.365 64.604H234.733ZM252.931 72.5H250.219V58.124H247.003V55.7H256.147V58.124H252.931V72.5ZM262.17 72.5H257.802V55.7H260.538V62.18H262.17C265.114 62.18 266.586 63.66 266.586 66.62V68.06C266.586 71.02 265.114 72.5 262.17 72.5ZM260.538 64.604V70.076H262.17C262.746 70.076 263.17 69.932 263.442 69.644C263.714 69.34 263.85 68.86 263.85 68.204V66.476C263.85 65.82 263.714 65.348 263.442 65.06C263.17 64.756 262.746 64.604 262.17 64.604H260.538ZM282.672 55.7V70.076H284.112V74.756H281.376V72.5H274.488V74.756H271.776V70.076H273.336C273.688 69.724 273.888 69.068 273.936 68.108L274.44 55.7H282.672ZM275.928 70.076H279.936V58.124H277.008L276.672 67.964C276.64 68.828 276.392 69.532 275.928 70.076ZM285.787 72.524C285.451 72.524 285.187 72.492 284.995 72.428V70.052C285.187 70.1 285.371 70.124 285.547 70.124C286.139 70.124 286.547 69.98 286.771 69.692C287.011 69.388 287.147 68.868 287.179 68.132L287.683 55.7H295.891V72.5H293.179V58.124H290.251L289.891 68.204C289.843 69.708 289.499 70.804 288.859 71.492C288.219 72.18 287.195 72.524 285.787 72.524ZM306.942 55.7V72.5H304.206V65.396H302.958C302.19 65.396 301.646 65.564 301.326 65.9C301.022 66.236 300.87 66.82 300.87 67.652V70.292C300.87 71.236 300.782 71.972 300.606 72.5H297.846C298.054 71.988 298.158 71.26 298.158 70.316V67.82C298.158 66.716 298.318 65.868 298.638 65.276C298.958 64.668 299.478 64.26 300.198 64.052V63.98C298.854 63.484 298.182 62.34 298.182 60.548V59.732C298.182 58.356 298.534 57.34 299.238 56.684C299.958 56.028 301.07 55.7 302.574 55.7H306.942ZM302.91 62.972H304.206V58.124H302.622C302.03 58.124 301.598 58.276 301.326 58.58C301.054 58.884 300.918 59.364 300.918 60.02V60.98C300.918 61.684 301.078 62.196 301.398 62.516C301.718 62.82 302.222 62.972 302.91 62.972ZM320.81 71.588C320.058 72.356 318.986 72.74 317.594 72.74C316.202 72.74 315.122 72.356 314.354 71.588C313.602 70.804 313.226 69.708 313.226 68.3V59.9C313.226 58.492 313.602 57.404 314.354 56.636C315.122 55.852 316.202 55.46 317.594 55.46C318.986 55.46 320.058 55.852 320.81 56.636C321.562 57.404 321.938 58.492 321.938 59.9V61.388H319.37V59.78C319.37 58.484 318.802 57.836 317.666 57.836C316.53 57.836 315.962 58.484 315.962 59.78V68.42C315.962 69.716 316.53 70.364 317.666 70.364C318.802 70.364 319.37 69.716 319.37 68.42V66.308H321.938V68.3C321.938 69.708 321.562 70.804 320.81 71.588ZM331.936 72.5H323.872V55.7H331.936V58.124H326.608V62.636H330.88V65.06H326.608V70.076H331.936V72.5ZM338.299 72.5H333.739V55.7H341.587V58.124H336.475V62.3H338.299C341.243 62.3 342.715 63.78 342.715 66.74V68.06C342.715 71.02 341.243 72.5 338.299 72.5ZM336.475 64.724V70.076H338.299C338.875 70.076 339.299 69.932 339.571 69.644C339.843 69.34 339.979 68.86 339.979 68.204V66.596C339.979 65.94 339.843 65.468 339.571 65.18C339.299 64.876 338.875 64.724 338.299 64.724H336.475ZM353.16 55.7V72.5H350.424V65.396H349.176C348.408 65.396 347.864 65.564 347.544 65.9C347.24 66.236 347.088 66.82 347.088 67.652V70.292C347.088 71.236 347 71.972 346.824 72.5H344.064C344.272 71.988 344.376 71.26 344.376 70.316V67.82C344.376 66.716 344.536 65.868 344.856 65.276C345.176 64.668 345.696 64.26 346.416 64.052V63.98C345.072 63.484 344.4 62.34 344.4 60.548V59.732C344.4 58.356 344.752 57.34 345.456 56.684C346.176 56.028 347.288 55.7 348.792 55.7H353.16ZM349.128 62.972H350.424V58.124H348.84C348.248 58.124 347.816 58.276 347.544 58.58C347.272 58.884 347.136 59.364 347.136 60.02V60.98C347.136 61.684 347.296 62.196 347.616 62.516C347.936 62.82 348.44 62.972 349.128 62.972ZM359.133 68.3V67.172H361.701V68.42C361.701 69.716 362.293 70.364 363.477 70.364C364.645 70.364 365.229 69.716 365.229 68.42V65.012H362.061V62.54H365.229V59.78C365.229 58.484 364.645 57.836 363.477 57.836C362.293 57.836 361.701 58.484 361.701 59.78V60.524H359.133V59.9C359.133 58.492 359.509 57.404 360.261 56.636C361.029 55.852 362.125 55.46 363.549 55.46C364.973 55.46 366.061 55.852 366.813 56.636C367.581 57.404 367.965 58.492 367.965 59.9V68.3C367.965 69.708 367.581 70.804 366.813 71.588C366.061 72.356 364.973 72.74 363.549 72.74C362.125 72.74 361.029 72.356 360.261 71.588C359.509 70.804 359.133 69.708 359.133 68.3ZM375.228 72.5H372.516V58.124H369.3V55.7H378.444V58.124H375.228V72.5ZM382.546 66.932L386.602 55.7H389.386V72.5H386.914V61.22L382.882 72.5H380.098V55.7H382.546V66.932ZM394.194 72.5H391.794V55.7H395.658L397.914 68.036L400.146 55.7H404.01V72.5H401.418V59.492L398.946 72.5H396.666L394.194 59.492V72.5ZM410.568 72.524C410.232 72.524 409.968 72.492 409.776 72.428V70.052C409.968 70.1 410.152 70.124 410.328 70.124C410.92 70.124 411.328 69.98 411.552 69.692C411.792 69.388 411.928 68.868 411.96 68.132L412.464 55.7H420.672V72.5H417.96V58.124H415.032L414.672 68.204C414.624 69.708 414.28 70.804 413.64 71.492C413 72.18 411.976 72.524 410.568 72.524ZM431.147 72.5H423.083V55.7H431.147V58.124H425.819V62.636H430.091V65.06H425.819V70.076H431.147V72.5ZM438.134 72.5H435.422V58.124H432.206V55.7H441.35V58.124H438.134V72.5ZM442.695 68.228V59.972C442.695 58.532 443.079 57.42 443.847 56.636C444.631 55.852 445.743 55.46 447.183 55.46C448.639 55.46 449.751 55.852 450.519 56.636C451.303 57.42 451.695 58.532 451.695 59.972V68.228C451.695 69.668 451.303 70.78 450.519 71.564C449.735 72.348 448.623 72.74 447.183 72.74C445.743 72.74 444.631 72.348 443.847 71.564C443.079 70.78 442.695 69.668 442.695 68.228ZM447.183 70.316C448.367 70.316 448.959 69.668 448.959 68.372V59.828C448.959 58.532 448.367 57.884 447.183 57.884C446.015 57.884 445.431 58.532 445.431 59.828V68.372C445.431 69.668 446.015 70.316 447.183 70.316ZM456.256 72.5H453.856V55.7H457.72L459.976 68.036L462.208 55.7H466.072V72.5H463.48V59.492L461.008 72.5H458.728L456.256 59.492V72.5Z" fill="white"/>
<g filter="url(#filter1_ddddd_442_403160)">
<ellipse cx="568" cy="215.5" rx="29" ry="7.5" fill="#DDBA63"/>
<path d="M567.998 144.999C560.707 145.008 553.718 147.908 548.562 153.063C543.407 158.219 540.507 165.208 540.498 172.499C540.498 196.029 565.498 213.803 566.562 214.547C566.983 214.841 567.485 214.999 567.998 214.999C568.512 214.999 569.013 214.841 569.434 214.547C570.498 213.803 595.498 196.029 595.498 172.499C595.489 165.208 592.589 158.219 587.434 153.063C582.279 147.908 575.289 145.008 567.998 144.999V144.999ZM568 162.5C569.978 162.5 571.911 163.087 573.556 164.185C575.2 165.284 576.482 166.846 577.239 168.673C577.996 170.5 578.194 172.511 577.808 174.451C577.422 176.391 576.469 178.173 575.071 179.571C573.672 180.97 571.891 181.922 569.951 182.308C568.011 182.694 566 182.496 564.173 181.739C562.346 180.982 560.784 179.7 559.685 178.056C558.586 176.411 558 174.478 558 172.5C558 171.187 558.258 169.886 558.761 168.673C559.264 167.46 560 166.357 560.929 165.429C561.857 164.5 562.96 163.764 564.173 163.261C565.386 162.759 566.687 162.5 568 162.5V162.5Z" fill="#FFF9DA"/>
<circle cx="568" cy="173" r="17" fill="#C74403"/>
<path d="M571.755 181H564.123V179.176C564.123 177.928 564.315 176.864 564.699 175.984C565.083 175.104 565.771 174.144 566.763 173.104C567.787 172 568.467 171.128 568.803 170.488C569.171 169.784 569.355 169.048 569.355 168.28C569.355 167.576 569.243 167.08 569.019 166.792C568.795 166.504 568.451 166.36 567.987 166.36C567.075 166.36 566.619 166.912 566.619 168.016V169.816H564.123V168.184C564.123 166.824 564.459 165.784 565.131 165.064C565.803 164.328 566.779 163.96 568.059 163.96C569.339 163.96 570.315 164.328 570.987 165.064C571.659 165.784 571.995 166.824 571.995 168.184C571.995 169.224 571.747 170.216 571.251 171.16C570.755 172.136 569.915 173.248 568.731 174.496C567.963 175.312 567.435 175.984 567.147 176.512C566.875 177.04 566.739 177.616 566.739 178.24V178.6H571.755V181Z" fill="white"/>
</g>
<path d="M635.936 172.5H633.2V155.7H642.296V172.5H639.56V158.124H635.936V172.5ZM644.468 168.228V159.972C644.468 158.532 644.852 157.42 645.62 156.636C646.404 155.852 647.516 155.46 648.956 155.46C650.412 155.46 651.524 155.852 652.292 156.636C653.076 157.42 653.468 158.532 653.468 159.972V168.228C653.468 169.668 653.076 170.78 652.292 171.564C651.508 172.348 650.396 172.74 648.956 172.74C647.516 172.74 646.404 172.348 645.62 171.564C644.852 170.78 644.468 169.668 644.468 168.228ZM648.956 170.316C650.14 170.316 650.732 169.668 650.732 168.372V159.828C650.732 158.532 650.14 157.884 648.956 157.884C647.788 157.884 647.204 158.532 647.204 159.828V168.372C647.204 169.668 647.788 170.316 648.956 170.316ZM659.494 172.74C658.054 172.74 656.958 172.364 656.206 171.612C655.454 170.844 655.078 169.74 655.078 168.3V167.172H657.646V168.348C657.646 169.66 658.238 170.316 659.422 170.316C660.046 170.316 660.494 170.156 660.766 169.836C661.054 169.5 661.198 168.956 661.198 168.204V167.292C661.198 166.46 661.03 165.868 660.694 165.516C660.374 165.148 659.838 164.964 659.086 164.964H658.054V162.54H659.158C660.47 162.54 661.126 161.86 661.126 160.5V159.756C661.126 158.508 660.558 157.884 659.422 157.884C658.302 157.884 657.742 158.484 657.742 159.684V160.524H655.174V159.9C655.174 158.46 655.542 157.364 656.278 156.612C657.014 155.844 658.094 155.46 659.518 155.46C660.926 155.46 661.998 155.828 662.734 156.564C663.47 157.3 663.838 158.364 663.838 159.756V160.212C663.838 161.956 663.126 163.084 661.702 163.596V163.62C663.174 164.132 663.91 165.364 663.91 167.316V168.276C663.91 171.252 662.438 172.74 659.494 172.74ZM665.679 168.228V159.972C665.679 158.532 666.063 157.42 666.831 156.636C667.615 155.852 668.727 155.46 670.167 155.46C671.623 155.46 672.735 155.852 673.503 156.636C674.287 157.42 674.679 158.532 674.679 159.972V168.228C674.679 169.668 674.287 170.78 673.503 171.564C672.719 172.348 671.607 172.74 670.167 172.74C668.727 172.74 667.615 172.348 666.831 171.564C666.063 170.78 665.679 169.668 665.679 168.228ZM670.167 170.316C671.351 170.316 671.943 169.668 671.943 168.372V159.828C671.943 158.532 671.351 157.884 670.167 157.884C668.999 157.884 668.415 158.532 668.415 159.828V168.372C668.415 169.668 668.999 170.316 670.167 170.316ZM681.545 172.5H676.841V155.7H681.305C682.809 155.7 683.913 156.028 684.617 156.684C685.337 157.34 685.697 158.348 685.697 159.708V160.212C685.697 161.924 685.033 163.036 683.705 163.548V163.62C685.225 164.084 685.985 165.324 685.985 167.34V168.204C685.985 171.068 684.505 172.5 681.545 172.5ZM679.577 158.124V162.588H680.945C681.633 162.588 682.137 162.436 682.457 162.132C682.793 161.812 682.961 161.316 682.961 160.644V160.02C682.961 159.348 682.825 158.868 682.553 158.58C682.281 158.276 681.833 158.124 681.209 158.124H679.577ZM679.577 165.012V170.076H681.545C682.137 170.076 682.569 169.932 682.841 169.644C683.113 169.34 683.249 168.852 683.249 168.18V167.244C683.249 166.412 683.089 165.836 682.769 165.516C682.449 165.18 681.889 165.012 681.089 165.012H679.577ZM690.351 166.932L694.407 155.7H697.191V172.5H694.719V161.22L690.687 172.5H687.903V155.7H690.351V166.932ZM713.852 155.7V170.076H715.292V174.756H712.556V172.5H705.668V174.756H702.956V170.076H704.516C704.868 169.724 705.068 169.068 705.116 168.108L705.62 155.7H713.852ZM707.108 170.076H711.116V158.124H708.188L707.852 167.964C707.82 168.828 707.572 169.532 707.108 170.076ZM719.655 172.5H716.919V155.7H721.263C724.207 155.7 725.679 157.156 725.679 160.068V161.316C725.679 164.228 724.207 165.684 721.263 165.684H719.655V172.5ZM719.655 158.124V163.284H721.263C721.855 163.284 722.279 163.14 722.535 162.852C722.807 162.548 722.943 162.06 722.943 161.388V159.972C722.943 159.3 722.807 158.828 722.535 158.556C722.279 158.268 721.855 158.124 721.263 158.124H719.655ZM731.672 164.772L733.832 155.7H736.448L732.824 169.644C732.536 170.748 732.08 171.54 731.456 172.02C730.832 172.5 729.952 172.74 728.816 172.74C728.16 172.74 727.608 172.652 727.16 172.476V170.124C727.544 170.252 727.96 170.316 728.408 170.316C728.92 170.316 729.304 170.244 729.56 170.1C729.816 169.94 730.008 169.668 730.136 169.284L730.256 168.852L726.464 155.7H729.296L731.672 164.772ZM741.595 172.74C740.155 172.74 739.059 172.364 738.307 171.612C737.555 170.844 737.179 169.74 737.179 168.3V167.172H739.747V168.348C739.747 169.66 740.339 170.316 741.523 170.316C742.147 170.316 742.595 170.156 742.867 169.836C743.155 169.5 743.299 168.956 743.299 168.204V167.292C743.299 166.46 743.131 165.868 742.795 165.516C742.475 165.148 741.939 164.964 741.187 164.964H740.155V162.54H741.259C742.571 162.54 743.227 161.86 743.227 160.5V159.756C743.227 158.508 742.659 157.884 741.523 157.884C740.403 157.884 739.843 158.484 739.843 159.684V160.524H737.275V159.9C737.275 158.46 737.643 157.364 738.379 156.612C739.115 155.844 740.195 155.46 741.619 155.46C743.027 155.46 744.099 155.828 744.835 156.564C745.571 157.3 745.939 158.364 745.939 159.756V160.212C745.939 161.956 745.227 163.084 743.803 163.596V163.62C745.275 164.132 746.011 165.364 746.011 167.316V168.276C746.011 171.252 744.539 172.74 741.595 172.74ZM756.061 172.5H747.997V155.7H756.061V158.124H750.733V162.636H755.005V165.06H750.733V170.076H756.061V172.5ZM762.496 154.332C761.552 154.332 760.808 154.068 760.264 153.54C759.72 152.996 759.432 152.26 759.4 151.332H761.056C761.136 152.132 761.616 152.532 762.496 152.532C763.376 152.532 763.88 152.132 764.008 151.332H765.616C765.584 152.26 765.296 152.996 764.752 153.54C764.208 154.068 763.456 154.332 762.496 154.332ZM760.312 166.932L764.368 155.7H767.152V172.5H764.68V161.22L760.648 172.5H757.864V155.7H760.312V166.932ZM776.397 172.5H773.661V155.7H782.757V172.5H780.021V158.124H776.397V172.5ZM784.929 168.228V159.972C784.929 158.532 785.313 157.42 786.081 156.636C786.865 155.852 787.977 155.46 789.417 155.46C790.873 155.46 791.985 155.852 792.753 156.636C793.537 157.42 793.929 158.532 793.929 159.972V168.228C793.929 169.668 793.537 170.78 792.753 171.564C791.969 172.348 790.857 172.74 789.417 172.74C787.977 172.74 786.865 172.348 786.081 171.564C785.313 170.78 784.929 169.668 784.929 168.228ZM789.417 170.316C790.601 170.316 791.193 169.668 791.193 168.372V159.828C791.193 158.532 790.601 157.884 789.417 157.884C788.249 157.884 787.665 158.532 787.665 159.828V168.372C787.665 169.668 788.249 170.316 789.417 170.316ZM806.125 155.7V170.076H807.565V174.756H804.829V172.5H797.941V174.756H795.229V170.076H796.789C797.141 169.724 797.341 169.068 797.389 168.108L797.893 155.7H806.125ZM799.381 170.076H803.389V158.124H800.461L800.125 167.964C800.093 168.828 799.845 169.532 799.381 170.076ZM819.344 155.7V170.076H820.784V174.756H818.048V172.5H811.16V174.756H808.448V170.076H810.008C810.36 169.724 810.56 169.068 810.608 168.108L811.112 155.7H819.344ZM812.6 170.076H816.608V158.124H813.68L813.344 167.964C813.312 168.828 813.064 169.532 812.6 170.076ZM830.475 172.5H822.411V155.7H830.475V158.124H825.147V162.636H829.419V165.06H825.147V170.076H830.475V172.5ZM835.014 172.5H832.278V155.7H836.622C839.566 155.7 841.038 157.156 841.038 160.068V161.316C841.038 164.228 839.566 165.684 836.622 165.684H835.014V172.5ZM835.014 158.124V163.284H836.622C837.214 163.284 837.638 163.14 837.894 162.852C838.166 162.548 838.302 162.06 838.302 161.388V159.972C838.302 159.3 838.166 158.828 837.894 158.556C837.638 158.268 837.214 158.124 836.622 158.124H835.014ZM857.433 172.5H854.697L852.105 164.34L850.785 166.62V172.5H848.049V166.62L846.729 164.34L844.137 172.5H841.377L844.929 161.94L841.425 155.7H844.257L848.049 162.972V155.7H850.785V162.972L854.601 155.7H857.385L853.905 161.964L857.433 172.5ZM868.428 172.5H865.644L865.092 169.236H861.396L860.82 172.5H858.276L861.492 155.7H865.188L868.428 172.5ZM863.244 158.532L861.804 166.86H864.684L863.244 158.532ZM873.884 172.5H871.172V158.124H867.956V155.7H877.1V158.124H873.884V172.5ZM883.123 172.5H878.755V155.7H881.491V162.18H883.123C886.067 162.18 887.539 163.66 887.539 166.62V168.06C887.539 171.02 886.067 172.5 883.123 172.5ZM881.491 164.604V170.076H883.123C883.699 170.076 884.123 169.932 884.395 169.644C884.667 169.34 884.803 168.86 884.803 168.204V166.476C884.803 165.82 884.667 165.348 884.395 165.06C884.123 164.756 883.699 164.604 883.123 164.604H881.491ZM638.384 208.5H635.672V194.124H632.456V191.7H641.6V194.124H638.384V208.5ZM647.959 208.5H643.255V191.7H647.719C649.223 191.7 650.327 192.028 651.031 192.684C651.751 193.34 652.111 194.348 652.111 195.708V196.212C652.111 197.924 651.447 199.036 650.119 199.548V199.62C651.639 200.084 652.399 201.324 652.399 203.34V204.204C652.399 207.068 650.919 208.5 647.959 208.5ZM645.991 194.124V198.588H647.359C648.047 198.588 648.551 198.436 648.871 198.132C649.207 197.812 649.375 197.316 649.375 196.644V196.02C649.375 195.348 649.239 194.868 648.967 194.58C648.695 194.276 648.247 194.124 647.623 194.124H645.991ZM645.991 201.012V206.076H647.959C648.551 206.076 648.983 205.932 649.255 205.644C649.527 205.34 649.663 204.852 649.663 204.18V203.244C649.663 202.412 649.503 201.836 649.183 201.516C648.863 201.18 648.303 201.012 647.503 201.012H645.991ZM654.101 204.228V195.972C654.101 194.532 654.485 193.42 655.253 192.636C656.037 191.852 657.149 191.46 658.589 191.46C660.045 191.46 661.157 191.852 661.925 192.636C662.709 193.42 663.101 194.532 663.101 195.972V204.228C663.101 205.668 662.709 206.78 661.925 207.564C661.141 208.348 660.029 208.74 658.589 208.74C657.149 208.74 656.037 208.348 655.253 207.564C654.485 206.78 654.101 205.668 654.101 204.228ZM658.589 206.316C659.773 206.316 660.365 205.668 660.365 204.372V195.828C660.365 194.532 659.773 193.884 658.589 193.884C657.421 193.884 656.837 194.532 656.837 195.828V204.372C656.837 205.668 657.421 206.316 658.589 206.316ZM667.711 202.932L671.767 191.7H674.551V208.5H672.079V197.22L668.047 208.5H665.263V191.7H667.711V202.932ZM683.795 208.5H681.059V191.7H690.155V208.5H687.419V194.124H683.795V208.5ZM692.592 208.524C692.256 208.524 691.992 208.492 691.8 208.428V206.052C691.992 206.1 692.176 206.124 692.352 206.124C692.944 206.124 693.352 205.98 693.576 205.692C693.816 205.388 693.952 204.868 693.984 204.132L694.488 191.7H702.696V208.5H699.984V194.124H697.056L696.696 204.204C696.648 205.708 696.304 206.804 695.664 207.492C695.024 208.18 694 208.524 692.592 208.524ZM714.49 208.5H711.706L711.154 205.236H707.458L706.882 208.5H704.338L707.554 191.7H711.25L714.49 208.5ZM709.306 194.532L707.866 202.86H710.746L709.306 194.532ZM718.834 208.5H716.098V191.7H718.834V198.636H722.458V191.7H725.194V208.5H722.458V201.06H718.834V208.5ZM731.951 208.5H727.583V191.7H730.319V198.18H731.951C734.895 198.18 736.367 199.66 736.367 202.62V204.06C736.367 207.02 734.895 208.5 731.951 208.5ZM740.927 208.5H738.191V191.7H740.927V208.5ZM730.319 200.604V206.076H731.951C732.527 206.076 732.951 205.932 733.223 205.644C733.495 205.34 733.631 204.86 733.631 204.204V202.476C733.631 201.82 733.495 201.348 733.223 201.06C732.951 200.756 732.527 200.604 731.951 200.604H730.319ZM745.973 204.012H743.933L743.597 198.612V191.7H746.309V198.612L745.973 204.012ZM746.309 208.5H743.597V205.812H746.309V208.5Z" fill="white"/>
<g filter="url(#filter2_ddddd_442_403160)">
<ellipse cx="44" cy="388.5" rx="29" ry="7.5" fill="#DDBA63"/>
<path d="M43.998 317.999C36.7072 318.008 29.7175 320.908 24.5622 326.063C19.4068 331.219 16.5067 338.208 16.498 345.499C16.498 369.029 41.498 386.803 42.5625 387.547C42.9835 387.841 43.4846 387.999 43.998 387.999C44.5115 387.999 45.0126 387.841 45.4336 387.547C46.498 386.803 71.498 369.029 71.498 345.499C71.4894 338.208 68.5893 331.219 63.4339 326.063C58.2786 320.908 51.2888 318.008 43.998 317.999V317.999ZM43.9999 335.5C45.9777 335.5 47.9111 336.087 49.5556 337.185C51.2001 338.284 52.4818 339.846 53.2387 341.673C53.9956 343.5 54.1936 345.511 53.8077 347.451C53.4219 349.391 52.4695 351.173 51.0709 352.571C49.6724 353.97 47.8906 354.922 45.9508 355.308C44.011 355.694 42.0003 355.496 40.173 354.739C38.3458 353.982 36.784 352.7 35.6852 351.056C34.5864 349.411 33.9999 347.478 33.9999 345.5C33.9998 344.187 34.2585 342.886 34.761 341.673C35.2635 340.46 36.0001 339.357 36.9287 338.429C37.8573 337.5 38.9597 336.764 40.173 336.261C41.3863 335.759 42.6866 335.5 43.9999 335.5V335.5Z" fill="#FFF9DA"/>
<circle cx="44" cy="346" r="17" fill="#C74403"/>
<path d="M39.9917 350.064V348.696H42.4877V350.184C42.4877 351.288 42.9437 351.84 43.8557 351.84C44.3197 351.84 44.6637 351.696 44.8877 351.408C45.1117 351.12 45.2237 350.632 45.2237 349.944V348.576C45.2237 347.808 45.0877 347.264 44.8157 346.944C44.5437 346.608 44.1037 346.44 43.4957 346.44H42.6077V344.04H43.5677C44.1117 344.04 44.5117 343.904 44.7677 343.632C45.0237 343.344 45.1517 342.888 45.1517 342.264V341.04C45.1517 339.92 44.7117 339.36 43.8317 339.36C42.9837 339.36 42.5597 339.88 42.5597 340.92V342.024H40.0637V341.136C40.0637 339.792 40.3917 338.76 41.0477 338.04C41.7197 337.32 42.6797 336.96 43.9277 336.96C45.1917 336.96 46.1517 337.32 46.8077 338.04C47.4637 338.744 47.7917 339.768 47.7917 341.112V341.712C47.7917 343.504 47.1677 344.632 45.9197 345.096V345.144C47.2157 345.624 47.8637 346.776 47.8637 348.6V350.088C47.8637 351.432 47.5277 352.464 46.8557 353.184C46.1997 353.888 45.2237 354.24 43.9277 354.24C42.6317 354.24 41.6477 353.88 40.9757 353.16C40.3197 352.44 39.9917 351.408 39.9917 350.064Z" fill="white"/>
</g>
<path d="M113.688 337.772L115.848 328.7H118.464L114.84 342.644C114.552 343.748 114.096 344.54 113.472 345.02C112.848 345.5 111.968 345.74 110.832 345.74C110.176 345.74 109.624 345.652 109.176 345.476V343.124C109.56 343.252 109.976 343.316 110.424 343.316C110.936 343.316 111.32 343.244 111.576 343.1C111.832 342.94 112.024 342.668 112.152 342.284L112.272 341.852L108.48 328.7H111.312L113.688 337.772ZM125.981 334.796V328.7H128.717V345.5H125.981V338.492C125.277 339.212 124.325 339.572 123.125 339.572C120.757 339.572 119.573 338.22 119.573 335.516V328.7H122.285V335.156C122.285 336.452 122.845 337.1 123.965 337.1C124.605 337.1 125.101 336.908 125.453 336.524C125.805 336.124 125.981 335.548 125.981 334.796ZM140.498 345.5H137.714L137.162 342.236H133.466L132.89 345.5H130.346L133.562 328.7H137.258L140.498 345.5ZM135.314 331.532L133.874 339.86H136.754L135.314 331.532ZM149.357 344.588C148.605 345.356 147.533 345.74 146.141 345.74C144.749 345.74 143.669 345.356 142.901 344.588C142.149 343.804 141.773 342.708 141.773 341.3V332.9C141.773 331.492 142.149 330.404 142.901 329.636C143.669 328.852 144.749 328.46 146.141 328.46C147.533 328.46 148.605 328.852 149.357 329.636C150.109 330.404 150.485 331.492 150.485 332.9V334.388H147.917V332.78C147.917 331.484 147.349 330.836 146.213 330.836C145.077 330.836 144.509 331.484 144.509 332.78V341.42C144.509 342.716 145.077 343.364 146.213 343.364C147.349 343.364 147.917 342.716 147.917 341.42V339.308H150.485V341.3C150.485 342.708 150.109 343.804 149.357 344.588ZM157.603 345.5H154.891V331.124H151.675V328.7H160.819V331.124H157.603V345.5ZM167.177 345.5H162.473V328.7H166.937C168.441 328.7 169.545 329.028 170.249 329.684C170.969 330.34 171.329 331.348 171.329 332.708V333.212C171.329 334.924 170.665 336.036 169.337 336.548V336.62C170.857 337.084 171.617 338.324 171.617 340.34V341.204C171.617 344.068 170.137 345.5 167.177 345.5ZM165.209 331.124V335.588H166.577C167.265 335.588 167.769 335.436 168.089 335.132C168.425 334.812 168.593 334.316 168.593 333.644V333.02C168.593 332.348 168.457 331.868 168.185 331.58C167.913 331.276 167.465 331.124 166.841 331.124H165.209ZM165.209 338.012V343.076H167.177C167.769 343.076 168.201 342.932 168.473 342.644C168.745 342.34 168.881 341.852 168.881 341.18V340.244C168.881 339.412 168.721 338.836 168.401 338.516C168.081 338.18 167.521 338.012 166.721 338.012H165.209ZM177.954 337.772L180.114 328.7H182.73L179.106 342.644C178.818 343.748 178.362 344.54 177.738 345.02C177.114 345.5 176.234 345.74 175.098 345.74C174.442 345.74 173.89 345.652 173.442 345.476V343.124C173.826 343.252 174.242 343.316 174.69 343.316C175.202 343.316 175.586 343.244 175.842 343.1C176.098 342.94 176.29 342.668 176.418 342.284L176.538 341.852L172.746 328.7H175.578L177.954 337.772ZM188.879 327.332C187.935 327.332 187.191 327.068 186.647 326.54C186.103 325.996 185.815 325.26 185.783 324.332H187.439C187.519 325.132 187.999 325.532 188.879 325.532C189.759 325.532 190.263 325.132 190.391 324.332H191.999C191.967 325.26 191.679 325.996 191.135 326.54C190.591 327.068 189.839 327.332 188.879 327.332ZM186.695 339.932L190.751 328.7H193.535V345.5H191.063V334.22L187.031 345.5H184.247V328.7H186.695V339.932ZM204.748 345.5H200.044V328.7H204.508C206.012 328.7 207.116 329.028 207.82 329.684C208.54 330.34 208.9 331.348 208.9 332.708V333.212C208.9 334.924 208.236 336.036 206.908 336.548V336.62C208.428 337.084 209.188 338.324 209.188 340.34V341.204C209.188 344.068 207.708 345.5 204.748 345.5ZM202.78 331.124V335.588H204.148C204.836 335.588 205.34 335.436 205.66 335.132C205.996 334.812 206.164 334.316 206.164 333.644V333.02C206.164 332.348 206.028 331.868 205.756 331.58C205.484 331.276 205.036 331.124 204.412 331.124H202.78ZM202.78 338.012V343.076H204.748C205.34 343.076 205.772 342.932 206.044 342.644C206.316 342.34 206.452 341.852 206.452 341.18V340.244C206.452 339.412 206.292 338.836 205.972 338.516C205.652 338.18 205.092 338.012 204.292 338.012H202.78ZM217.944 345.5H215.208V328.7H219.552C222.496 328.7 223.968 330.156 223.968 333.068V334.316C223.968 337.228 222.496 338.684 219.552 338.684H217.944V345.5ZM217.944 331.124V336.284H219.552C220.144 336.284 220.568 336.14 220.824 335.852C221.096 335.548 221.232 335.06 221.232 334.388V332.972C221.232 332.3 221.096 331.828 220.824 331.556C220.568 331.268 220.144 331.124 219.552 331.124H217.944ZM225.562 341.228V332.972C225.562 331.532 225.946 330.42 226.714 329.636C227.498 328.852 228.61 328.46 230.05 328.46C231.506 328.46 232.618 328.852 233.386 329.636C234.17 330.42 234.562 331.532 234.562 332.972V341.228C234.562 342.668 234.17 343.78 233.386 344.564C232.602 345.348 231.49 345.74 230.05 345.74C228.61 345.74 227.498 345.348 226.714 344.564C225.946 343.78 225.562 342.668 225.562 341.228ZM230.05 343.316C231.234 343.316 231.826 342.668 231.826 341.372V332.828C231.826 331.532 231.234 330.884 230.05 330.884C228.882 330.884 228.298 331.532 228.298 332.828V341.372C228.298 342.668 228.882 343.316 230.05 343.316ZM240.587 345.74C239.147 345.74 238.051 345.364 237.299 344.612C236.547 343.844 236.171 342.74 236.171 341.3V340.172H238.739V341.348C238.739 342.66 239.331 343.316 240.515 343.316C241.139 343.316 241.587 343.156 241.859 342.836C242.147 342.5 242.291 341.956 242.291 341.204V340.292C242.291 339.46 242.123 338.868 241.787 338.516C241.467 338.148 240.931 337.964 240.179 337.964H239.147V335.54H240.251C241.563 335.54 242.219 334.86 242.219 333.5V332.756C242.219 331.508 241.651 330.884 240.515 330.884C239.395 330.884 238.835 331.484 238.835 332.684V333.524H236.267V332.9C236.267 331.46 236.635 330.364 237.371 329.612C238.107 328.844 239.187 328.46 240.611 328.46C242.019 328.46 243.091 328.828 243.827 329.564C244.563 330.3 244.931 331.364 244.931 332.756V333.212C244.931 334.956 244.219 336.084 242.795 336.596V336.62C244.267 337.132 245.003 338.364 245.003 340.316V341.276C245.003 344.252 243.531 345.74 240.587 345.74ZM251.357 345.5H246.989V328.7H249.725V335.18H251.357C254.301 335.18 255.773 336.66 255.773 339.62V341.06C255.773 344.02 254.301 345.5 251.357 345.5ZM260.333 345.5H257.597V328.7H260.333V345.5ZM249.725 337.604V343.076H251.357C251.933 343.076 252.357 342.932 252.629 342.644C252.901 342.34 253.037 341.86 253.037 341.204V339.476C253.037 338.82 252.901 338.348 252.629 338.06C252.357 337.756 251.933 337.604 251.357 337.604H249.725ZM265.475 345.5H262.739V328.7H270.275V331.124H265.475V345.5ZM274.686 345.5H271.95V328.7H276.294C279.238 328.7 280.71 330.156 280.71 333.068V334.316C280.71 337.228 279.238 338.684 276.294 338.684H274.686V345.5ZM274.686 331.124V336.284H276.294C276.886 336.284 277.31 336.14 277.566 335.852C277.838 335.548 277.974 335.06 277.974 334.388V332.972C277.974 332.3 277.838 331.828 277.566 331.556C277.31 331.268 276.886 331.124 276.294 331.124H274.686ZM286.888 345.5H282.52V328.7H285.256V335.18H286.888C289.832 335.18 291.304 336.66 291.304 339.62V341.06C291.304 344.02 289.832 345.5 286.888 345.5ZM295.864 345.5H293.128V328.7H295.864V345.5ZM285.256 337.604V343.076H286.888C287.464 343.076 287.888 342.932 288.16 342.644C288.432 342.34 288.568 341.86 288.568 341.204V339.476C288.568 338.82 288.432 338.348 288.16 338.06C287.888 337.756 287.464 337.604 286.888 337.604H285.256ZM312.142 345.5H298.27V328.7H301.006V343.076H303.862V328.7H306.574V343.076H309.406V328.7H312.142V345.5ZM322.6 345.5H314.536V328.7H322.6V331.124H317.272V335.636H321.544V338.06H317.272V343.076H322.6V345.5ZM331.241 345.5H328.505V328.7H337.601V345.5H334.865V331.124H331.241V345.5ZM342.725 345.5H339.989V328.7H344.333C347.277 328.7 348.749 330.156 348.749 333.068V334.316C348.749 337.228 347.277 338.684 344.333 338.684H342.725V345.5ZM342.725 331.124V336.284H344.333C344.925 336.284 345.349 336.14 345.605 335.852C345.877 335.548 346.013 335.06 346.013 334.388V332.972C346.013 332.3 345.877 331.828 345.605 331.556C345.349 331.268 344.925 331.124 344.333 331.124H342.725ZM353.007 339.932L357.063 328.7H359.847V345.5H357.375V334.22L353.343 345.5H350.559V328.7H353.007V339.932ZM366.119 345.74C364.679 345.74 363.583 345.364 362.831 344.612C362.079 343.844 361.703 342.74 361.703 341.3V340.172H364.271V341.348C364.271 342.66 364.863 343.316 366.047 343.316C366.671 343.316 367.119 343.156 367.391 342.836C367.679 342.5 367.823 341.956 367.823 341.204V340.292C367.823 339.46 367.655 338.868 367.319 338.516C366.999 338.148 366.463 337.964 365.711 337.964H364.679V335.54H365.783C367.095 335.54 367.751 334.86 367.751 333.5V332.756C367.751 331.508 367.183 330.884 366.047 330.884C364.927 330.884 364.367 331.484 364.367 332.684V333.524H361.799V332.9C361.799 331.46 362.167 330.364 362.903 329.612C363.639 328.844 364.719 328.46 366.143 328.46C367.551 328.46 368.623 328.828 369.359 329.564C370.095 330.3 370.463 331.364 370.463 332.756V333.212C370.463 334.956 369.751 336.084 368.327 336.596V336.62C369.799 337.132 370.535 338.364 370.535 340.316V341.276C370.535 344.252 369.063 345.74 366.119 345.74ZM372.304 341.228V332.972C372.304 331.532 372.688 330.42 373.456 329.636C374.24 328.852 375.352 328.46 376.792 328.46C378.248 328.46 379.36 328.852 380.128 329.636C380.912 330.42 381.304 331.532 381.304 332.972V341.228C381.304 342.668 380.912 343.78 380.128 344.564C379.344 345.348 378.232 345.74 376.792 345.74C375.352 345.74 374.24 345.348 373.456 344.564C372.688 343.78 372.304 342.668 372.304 341.228ZM376.792 343.316C377.976 343.316 378.568 342.668 378.568 341.372V332.828C378.568 331.532 377.976 330.884 376.792 330.884C375.624 330.884 375.04 331.532 375.04 332.828V341.372C375.04 342.668 375.624 343.316 376.792 343.316ZM388.17 345.5H383.466V328.7H387.93C389.434 328.7 390.538 329.028 391.242 329.684C391.962 330.34 392.322 331.348 392.322 332.708V333.212C392.322 334.924 391.658 336.036 390.33 336.548V336.62C391.85 337.084 392.61 338.324 392.61 340.34V341.204C392.61 344.068 391.13 345.5 388.17 345.5ZM386.202 331.124V335.588H387.57C388.258 335.588 388.762 335.436 389.082 335.132C389.418 334.812 389.586 334.316 389.586 333.644V333.02C389.586 332.348 389.45 331.868 389.178 331.58C388.906 331.276 388.458 331.124 387.834 331.124H386.202ZM386.202 338.012V343.076H388.17C388.762 343.076 389.194 342.932 389.466 342.644C389.738 342.34 389.874 341.852 389.874 341.18V340.244C389.874 339.412 389.714 338.836 389.394 338.516C389.074 338.18 388.514 338.012 387.714 338.012H386.202ZM119.352 364.7V379.076H120.792V383.756H118.056V381.5H111.168V383.756H108.456V379.076H110.016C110.368 378.724 110.568 378.068 110.616 377.108L111.12 364.7H119.352ZM112.608 379.076H116.616V367.124H113.688L113.352 376.964C113.32 377.828 113.072 378.532 112.608 379.076ZM122.467 381.524C122.131 381.524 121.867 381.492 121.675 381.428V379.052C121.867 379.1 122.051 379.124 122.227 379.124C122.819 379.124 123.227 378.98 123.451 378.692C123.691 378.388 123.827 377.868 123.859 377.132L124.363 364.7H132.571V381.5H129.859V367.124H126.931L126.571 377.204C126.523 378.708 126.179 379.804 125.539 380.492C124.899 381.18 123.875 381.524 122.467 381.524ZM143.621 364.7V381.5H140.885V374.396H139.637C138.869 374.396 138.325 374.564 138.005 374.9C137.701 375.236 137.549 375.82 137.549 376.652V379.292C137.549 380.236 137.461 380.972 137.285 381.5H134.525C134.733 380.988 134.837 380.26 134.837 379.316V376.82C134.837 375.716 134.997 374.868 135.317 374.276C135.637 373.668 136.157 373.26 136.877 373.052V372.98C135.533 372.484 134.861 371.34 134.861 369.548V368.732C134.861 367.356 135.213 366.34 135.917 365.684C136.637 365.028 137.749 364.7 139.253 364.7H143.621ZM139.589 371.972H140.885V367.124H139.301C138.709 367.124 138.277 367.276 138.005 367.58C137.733 367.884 137.597 368.364 137.597 369.02V369.98C137.597 370.684 137.757 371.196 138.077 371.516C138.397 371.82 138.901 371.972 139.589 371.972ZM152.858 381.5H150.122V364.7H154.466C157.41 364.7 158.882 366.156 158.882 369.068V370.316C158.882 373.228 157.41 374.684 154.466 374.684H152.858V381.5ZM152.858 367.124V372.284H154.466C155.058 372.284 155.482 372.14 155.738 371.852C156.01 371.548 156.146 371.06 156.146 370.388V368.972C156.146 368.3 156.01 367.828 155.738 367.556C155.482 367.268 155.058 367.124 154.466 367.124H152.858ZM168.756 381.5H160.692V364.7H168.756V367.124H163.428V371.636H167.7V374.06H163.428V379.076H168.756V381.5ZM179.99 381.5H177.206L176.654 378.236H172.958L172.382 381.5H169.838L173.054 364.7H176.75L179.99 381.5ZM174.806 367.532L173.366 375.86H176.246L174.806 367.532ZM181.74 381.524C181.404 381.524 181.14 381.492 180.948 381.428V379.052C181.14 379.1 181.324 379.124 181.5 379.124C182.092 379.124 182.5 378.98 182.724 378.692C182.964 378.388 183.1 377.868 183.132 377.132L183.636 364.7H191.844V381.5H189.132V367.124H186.204L185.844 377.204C185.796 378.708 185.452 379.804 184.812 380.492C184.172 381.18 183.148 381.524 181.74 381.524ZM196.703 375.932L200.759 364.7H203.543V381.5H201.071V370.22L197.039 381.5H194.255V364.7H196.703V375.932ZM209.814 381.74C208.374 381.74 207.278 381.364 206.526 380.612C205.774 379.844 205.398 378.74 205.398 377.3V376.172H207.966V377.348C207.966 378.66 208.558 379.316 209.742 379.316C210.366 379.316 210.814 379.156 211.086 378.836C211.374 378.5 211.518 377.956 211.518 377.204V376.292C211.518 375.46 211.35 374.868 211.014 374.516C210.694 374.148 210.158 373.964 209.406 373.964H208.374V371.54H209.478C210.79 371.54 211.446 370.86 211.446 369.5V368.756C211.446 367.508 210.878 366.884 209.742 366.884C208.622 366.884 208.062 367.484 208.062 368.684V369.524H205.494V368.9C205.494 367.46 205.862 366.364 206.598 365.612C207.334 364.844 208.414 364.46 209.838 364.46C211.246 364.46 212.318 364.828 213.054 365.564C213.79 366.3 214.158 367.364 214.158 368.756V369.212C214.158 370.956 213.446 372.084 212.022 372.596V372.62C213.494 373.132 214.23 374.364 214.23 376.316V377.276C214.23 380.252 212.758 381.74 209.814 381.74ZM225.412 381.5H222.628L222.076 378.236H218.38L217.804 381.5H215.26L218.476 364.7H222.172L225.412 381.5ZM220.228 367.532L218.788 375.86H221.668L220.228 367.532ZM237.7 383.756H234.964V381.5H227.02V364.7H229.756V379.076H233.38V364.7H236.116V379.076H237.7V383.756ZM241.773 375.932L245.829 364.7H248.613V381.5H246.141V370.22L242.109 381.5H239.325V364.7H241.773V375.932ZM253.468 375.932L257.524 364.7H260.308V381.5H257.836V370.22L253.804 381.5H251.02V364.7H253.468V375.932ZM274.185 380.588C273.433 381.356 272.361 381.74 270.969 381.74C269.577 381.74 268.497 381.356 267.729 380.588C266.977 379.804 266.601 378.708 266.601 377.3V368.9C266.601 367.492 266.977 366.404 267.729 365.636C268.497 364.852 269.577 364.46 270.969 364.46C272.361 364.46 273.433 364.852 274.185 365.636C274.937 366.404 275.313 367.492 275.313 368.9V370.388H272.745V368.78C272.745 367.484 272.177 366.836 271.041 366.836C269.905 366.836 269.337 367.484 269.337 368.78V377.42C269.337 378.716 269.905 379.364 271.041 379.364C272.177 379.364 272.745 378.716 272.745 377.42V375.308H275.313V377.3C275.313 378.708 274.937 379.804 274.185 380.588ZM281.951 381.5H277.247V364.7H281.711C283.215 364.7 284.319 365.028 285.023 365.684C285.743 366.34 286.103 367.348 286.103 368.708V369.212C286.103 370.924 285.439 372.036 284.111 372.548V372.62C285.631 373.084 286.391 374.324 286.391 376.34V377.204C286.391 380.068 284.911 381.5 281.951 381.5ZM279.983 367.124V371.588H281.351C282.039 371.588 282.543 371.436 282.863 371.132C283.199 370.812 283.367 370.316 283.367 369.644V369.02C283.367 368.348 283.231 367.868 282.959 367.58C282.687 367.276 282.239 367.124 281.615 367.124H279.983ZM279.983 374.012V379.076H281.951C282.543 379.076 282.975 378.932 283.247 378.644C283.519 378.34 283.655 377.852 283.655 377.18V376.244C283.655 375.412 283.495 374.836 283.175 374.516C282.855 374.18 282.295 374.012 281.495 374.012H279.983ZM288.093 377.228V368.972C288.093 367.532 288.477 366.42 289.245 365.636C290.029 364.852 291.141 364.46 292.581 364.46C294.037 364.46 295.149 364.852 295.917 365.636C296.701 366.42 297.093 367.532 297.093 368.972V377.228C297.093 378.668 296.701 379.78 295.917 380.564C295.133 381.348 294.021 381.74 292.581 381.74C291.141 381.74 290.029 381.348 289.245 380.564C288.477 379.78 288.093 378.668 288.093 377.228ZM292.581 379.316C293.765 379.316 294.357 378.668 294.357 377.372V368.828C294.357 367.532 293.765 366.884 292.581 366.884C291.413 366.884 290.829 367.532 290.829 368.828V377.372C290.829 378.668 291.413 379.316 292.581 379.316ZM301.703 375.932L305.759 364.7H308.543V381.5H306.071V370.22L302.039 381.5H299.255V364.7H301.703V375.932ZM312.75 381.5H310.158L313.71 372.884L310.302 364.7H313.23L315.39 370.34L317.622 364.7H320.262L316.854 372.884L320.406 381.5H317.502L315.15 375.428L312.75 381.5ZM328.85 381.5H326.114V364.7H335.21V381.5H332.474V367.124H328.85V381.5ZM337.646 381.524C337.31 381.524 337.046 381.492 336.854 381.428V379.052C337.046 379.1 337.23 379.124 337.406 379.124C337.998 379.124 338.406 378.98 338.63 378.692C338.87 378.388 339.006 377.868 339.038 377.132L339.542 364.7H347.75V381.5H345.038V367.124H342.11L341.75 377.204C341.702 378.708 341.358 379.804 340.718 380.492C340.078 381.18 339.054 381.524 337.646 381.524ZM359.545 381.5H356.761L356.209 378.236H352.513L351.937 381.5H349.393L352.609 364.7H356.305L359.545 381.5ZM354.361 367.532L352.921 375.86H355.801L354.361 367.532ZM363.889 381.5H361.153V364.7H363.889V371.636H367.513V364.7H370.249V381.5H367.513V374.06H363.889V381.5ZM372.422 377.228V368.972C372.422 367.532 372.806 366.42 373.574 365.636C374.358 364.852 375.47 364.46 376.91 364.46C378.366 364.46 379.478 364.852 380.246 365.636C381.03 366.42 381.422 367.532 381.422 368.972V377.228C381.422 378.668 381.03 379.78 380.246 380.564C379.462 381.348 378.35 381.74 376.91 381.74C375.47 381.74 374.358 381.348 373.574 380.564C372.806 379.78 372.422 378.668 372.422 377.228ZM376.91 379.316C378.094 379.316 378.686 378.668 378.686 377.372V368.828C378.686 367.532 378.094 366.884 376.91 366.884C375.742 366.884 375.158 367.532 375.158 368.828V377.372C375.158 378.668 375.742 379.316 376.91 379.316ZM388.287 381.5H383.583V364.7H388.047C389.551 364.7 390.655 365.028 391.359 365.684C392.079 366.34 392.439 367.348 392.439 368.708V369.212C392.439 370.924 391.775 372.036 390.447 372.548V372.62C391.967 373.084 392.727 374.324 392.727 376.34V377.204C392.727 380.068 391.247 381.5 388.287 381.5ZM386.319 367.124V371.588H387.687C388.375 371.588 388.879 371.436 389.199 371.132C389.535 370.812 389.703 370.316 389.703 369.644V369.02C389.703 368.348 389.567 367.868 389.295 367.58C389.023 367.276 388.575 367.124 387.951 367.124H386.319ZM386.319 374.012V379.076H388.287C388.879 379.076 389.311 378.932 389.583 378.644C389.855 378.34 389.991 377.852 389.991 377.18V376.244C389.991 375.412 389.831 374.836 389.511 374.516C389.191 374.18 388.631 374.012 387.831 374.012H386.319ZM397.477 381.5H394.741V378.62H397.477V381.5Z" fill="white"/>
<path opacity="0.4" d="M436.5 354.5C769 345 487.5 400 546 520.5" stroke="#FFF8D9" stroke-width="2" stroke-linecap="round" stroke-dasharray="6 6"/>
<path opacity="0.4" d="M515.5 163.5C458.5 143 445 256.5 324 202.5C203 148.5 29.0004 258.5 37.0002 300.5" stroke="#FFF8D9" stroke-width="2" stroke-linecap="round" stroke-dasharray="6 6"/>
<path opacity="0.4" d="M484 37.0001C524.457 28.0552 644.5 19.5 608.5 58C572.5 96.5 562 77 562 127.5" stroke="#FFF8D9" stroke-width="2" stroke-linecap="round" stroke-dasharray="6 6"/>
<defs>
<filter id="filter0_ddddd_442_403160" x="80" y="0" width="134" height="132" filterUnits="userSpaceOnUse" color-interpolation-filters="sRGB">
<feFlood flood-opacity="0" result="BackgroundImageFix"/>
<feColorMatrix in="SourceAlpha" type="matrix" values="0 0 0 0 0 0 0 0 0 0 0 0 0 0 0 0 0 0 127 0" result="hardAlpha"/>
<feOffset/>
<feColorMatrix type="matrix" values="0 0 0 0 0.0745098 0 0 0 0 0.12549 0 0 0 0 0.0823529 0 0 0 0.2 0"/>
<feBlend mode="normal" in2="BackgroundImageFix" result="effect1_dropShadow_442_403160"/>
<feColorMatrix in="SourceAlpha" type="matrix" values="0 0 0 0 0 0 0 0 0 0 0 0 0 0 0 0 0 0 127 0" result="hardAlpha"/>
<feOffset dx="2" dy="2"/>
<feGaussianBlur stdDeviation="3"/>
<feColorMatrix type="matrix" values="0 0 0 0 0.0745098 0 0 0 0 0.12549 0 0 0 0 0.0823529 0 0 0 0.2 0"/>
<feBlend mode="normal" in2="effect1_dropShadow_442_403160" result="effect2_dropShadow_442_403160"/>
<feColorMatrix in="SourceAlpha" type="matrix" values="0 0 0 0 0 0 0 0 0 0 0 0 0 0 0 0 0 0 127 0" result="hardAlpha"/>
<feOffset dx="8" dy="7"/>
<feGaussianBlur stdDeviation="5"/>
<feColorMatrix type="matrix" values="0 0 0 0 0.0745098 0 0 0 0 0.12549 0 0 0 0 0.0823529 0 0 0 0.17 0"/>
<feBlend mode="normal" in2="effect2_dropShadow_442_403160" result="effect3_dropShadow_442_403160"/>
<feColorMatrix in="SourceAlpha" type="matrix" values="0 0 0 0 0 0 0 0 0 0 0 0 0 0 0 0 0 0 127 0" result="hardAlpha"/>
<feOffset dx="18" dy="15"/>
<feGaussianBlur stdDeviation="7"/>
<feColorMatrix type="matrix" values="0 0 0 0 0.0745098 0 0 0 0 0.12549 0 0 0 0 0.0823529 0 0 0 0.1 0"/>
<feBlend mode="normal" in2="effect3_dropShadow_442_403160" result="effect4_dropShadow_442_403160"/>
<feColorMatrix in="SourceAlpha" type="matrix" values="0 0 0 0 0 0 0 0 0 0 0 0 0 0 0 0 0 0 127 0" result="hardAlpha"/>
<feOffset dx="33" dy="26"/>
<feGaussianBlur stdDeviation="8.5"/>
<feColorMatrix type="matrix" values="0 0 0 0 0.0745098 0 0 0 0 0.12549 0 0 0 0 0.0823529 0 0 0 0.03 0"/>
<feBlend mode="normal" in2="effect4_dropShadow_442_403160" result="effect5_dropShadow_442_403160"/>
<feBlend mode="normal" in="SourceGraphic" in2="effect5_dropShadow_442_403160" result="shape"/>
</filter>
<filter id="filter1_ddddd_442_403160" x="524" y="136" width="134" height="132" filterUnits="userSpaceOnUse" color-interpolation-filters="sRGB">
<feFlood flood-opacity="0" result="BackgroundImageFix"/>
<feColorMatrix in="SourceAlpha" type="matrix" values="0 0 0 0 0 0 0 0 0 0 0 0 0 0 0 0 0 0 127 0" result="hardAlpha"/>
<feOffset/>
<feColorMatrix type="matrix" values="0 0 0 0 0.0745098 0 0 0 0 0.12549 0 0 0 0 0.0823529 0 0 0 0.2 0"/>
<feBlend mode="normal" in2="BackgroundImageFix" result="effect1_dropShadow_442_403160"/>
<feColorMatrix in="SourceAlpha" type="matrix" values="0 0 0 0 0 0 0 0 0 0 0 0 0 0 0 0 0 0 127 0" result="hardAlpha"/>
<feOffset dx="2" dy="2"/>
<feGaussianBlur stdDeviation="3"/>
<feColorMatrix type="matrix" values="0 0 0 0 0.0745098 0 0 0 0 0.12549 0 0 0 0 0.0823529 0 0 0 0.2 0"/>
<feBlend mode="normal" in2="effect1_dropShadow_442_403160" result="effect2_dropShadow_442_403160"/>
<feColorMatrix in="SourceAlpha" type="matrix" values="0 0 0 0 0 0 0 0 0 0 0 0 0 0 0 0 0 0 127 0" result="hardAlpha"/>
<feOffset dx="8" dy="7"/>
<feGaussianBlur stdDeviation="5"/>
<feColorMatrix type="matrix" values="0 0 0 0 0.0745098 0 0 0 0 0.12549 0 0 0 0 0.0823529 0 0 0 0.17 0"/>
<feBlend mode="normal" in2="effect2_dropShadow_442_403160" result="effect3_dropShadow_442_403160"/>
<feColorMatrix in="SourceAlpha" type="matrix" values="0 0 0 0 0 0 0 0 0 0 0 0 0 0 0 0 0 0 127 0" result="hardAlpha"/>
<feOffset dx="18" dy="15"/>
<feGaussianBlur stdDeviation="7"/>
<feColorMatrix type="matrix" values="0 0 0 0 0.0745098 0 0 0 0 0.12549 0 0 0 0 0.0823529 0 0 0 0.1 0"/>
<feBlend mode="normal" in2="effect3_dropShadow_442_403160" result="effect4_dropShadow_442_403160"/>
<feColorMatrix in="SourceAlpha" type="matrix" values="0 0 0 0 0 0 0 0 0 0 0 0 0 0 0 0 0 0 127 0" result="hardAlpha"/>
<feOffset dx="33" dy="26"/>
<feGaussianBlur stdDeviation="8.5"/>
<feColorMatrix type="matrix" values="0 0 0 0 0.0745098 0 0 0 0 0.12549 0 0 0 0 0.0823529 0 0 0 0.03 0"/>
<feBlend mode="normal" in2="effect4_dropShadow_442_403160" result="effect5_dropShadow_442_403160"/>
<feBlend mode="normal" in="SourceGraphic" in2="effect5_dropShadow_442_403160" result="shape"/>
</filter>
<filter id="filter2_ddddd_442_403160" x="0" y="309" width="134" height="132" filterUnits="userSpaceOnUse" color-interpolation-filters="sRGB">
<feFlood flood-opacity="0" result="BackgroundImageFix"/>
<feColorMatrix in="SourceAlpha" type="matrix" values="0 0 0 0 0 0 0 0 0 0 0 0 0 0 0 0 0 0 127 0" result="hardAlpha"/>
<feOffset/>
<feColorMatrix type="matrix" values="0 0 0 0 0.0745098 0 0 0 0 0.12549 0 0 0 0 0.0823529 0 0 0 0.2 0"/>
<feBlend mode="normal" in2="BackgroundImageFix" result="effect1_dropShadow_442_403160"/>
<feColorMatrix in="SourceAlpha" type="matrix" values="0 0 0 0 0 0 0 0 0 0 0 0 0 0 0 0 0 0 127 0" result="hardAlpha"/>
<feOffset dx="2" dy="2"/>
<feGaussianBlur stdDeviation="3"/>
<feColorMatrix type="matrix" values="0 0 0 0 0.0745098 0 0 0 0 0.12549 0 0 0 0 0.0823529 0 0 0 0.2 0"/>
<feBlend mode="normal" in2="effect1_dropShadow_442_403160" result="effect2_dropShadow_442_403160"/>
<feColorMatrix in="SourceAlpha" type="matrix" values="0 0 0 0 0 0 0 0 0 0 0 0 0 0 0 0 0 0 127 0" result="hardAlpha"/>
<feOffset dx="8" dy="7"/>
<feGaussianBlur stdDeviation="5"/>
<feColorMatrix type="matrix" values="0 0 0 0 0.0745098 0 0 0 0 0.12549 0 0 0 0 0.0823529 0 0 0 0.17 0"/>
<feBlend mode="normal" in2="effect2_dropShadow_442_403160" result="effect3_dropShadow_442_403160"/>
<feColorMatrix in="SourceAlpha" type="matrix" values="0 0 0 0 0 0 0 0 0 0 0 0 0 0 0 0 0 0 127 0" result="hardAlpha"/>
<feOffset dx="18" dy="15"/>
<feGaussianBlur stdDeviation="7"/>
<feColorMatrix type="matrix" values="0 0 0 0 0.0745098 0 0 0 0 0.12549 0 0 0 0 0.0823529 0 0 0 0.1 0"/>
<feBlend mode="normal" in2="effect3_dropShadow_442_403160" result="effect4_dropShadow_442_403160"/>
<feColorMatrix in="SourceAlpha" type="matrix" values="0 0 0 0 0 0 0 0 0 0 0 0 0 0 0 0 0 0 127 0" result="hardAlpha"/>
<feOffset dx="33" dy="26"/>
<feGaussianBlur stdDeviation="8.5"/>
<feColorMatrix type="matrix" values="0 0 0 0 0.0745098 0 0 0 0 0.12549 0 0 0 0 0.0823529 0 0 0 0.03 0"/>
<feBlend mode="normal" in2="effect4_dropShadow_442_403160" result="effect5_dropShadow_442_403160"/>
<feBlend mode="normal" in="SourceGraphic" in2="effect5_dropShadow_442_403160" result="shape"/>
</filter>
</defs>
</svg>
