<svg width="874" height="582" viewBox="0 0 874 582" fill="none" xmlns="http://www.w3.org/2000/svg">
<g filter="url(#filter0_ddddd_201_30445)">
<ellipse cx="76" cy="79.5" rx="29" ry="7.5" fill="#DDBA63"/>
<path d="M75.998 8.9991C68.7072 9.00775 61.7175 11.9078 56.5622 17.0632C51.4068 22.2186 48.5067 29.2083 48.498 36.4991C48.498 60.0294 73.498 77.8028 74.5625 78.5474C74.9835 78.8414 75.4846 78.9991 75.998 78.9991C76.5115 78.9991 77.0126 78.8414 77.4336 78.5474C78.498 77.8028 103.498 60.0294 103.498 36.4991C103.489 29.2083 100.589 22.2186 95.4339 17.0632C90.2786 11.9078 83.2888 9.00775 75.998 8.9991V8.9991ZM75.9999 26.5C77.9777 26.5 79.9111 27.0865 81.5556 28.1853C83.2001 29.2841 84.4818 30.8459 85.2387 32.6732C85.9956 34.5004 86.1936 36.5111 85.8077 38.4509C85.4219 40.3907 84.4695 42.1725 83.0709 43.5711C81.6724 44.9696 79.8906 45.922 77.9508 46.3079C76.011 46.6937 74.0003 46.4957 72.173 45.7388C70.3458 44.9819 68.784 43.7002 67.6852 42.0557C66.5864 40.4112 65.9999 38.4778 65.9999 36.5C65.9998 35.1868 66.2585 33.8864 66.761 32.6731C67.2635 31.4599 68.0001 30.3574 68.9287 29.4289C69.8573 28.5003 70.9597 27.7637 72.173 27.2611C73.3863 26.7586 74.6866 26.5 75.9999 26.5V26.5Z" fill="#FFF9DA"/>
<circle cx="76" cy="37" r="17" fill="#C74403"/>
<path d="M78.3398 45H75.6998V32.184H72.9398V30.312C74.0438 30.312 74.8438 30.168 75.3398 29.88C75.8518 29.56 76.2598 29 76.5638 28.2H78.3398V45Z" fill="white"/>
</g>
<path d="M143.936 36.5H141.2V19.7H145.544C148.488 19.7 149.96 21.156 149.96 24.068V25.316C149.96 28.228 148.488 29.684 145.544 29.684H143.936V36.5ZM143.936 22.124V27.284H145.544C146.136 27.284 146.56 27.14 146.816 26.852C147.088 26.548 147.224 26.06 147.224 25.388V23.972C147.224 23.3 147.088 22.828 146.816 22.556C146.56 22.268 146.136 22.124 145.544 22.124H143.936ZM160.193 36.5H157.409L156.857 33.236H153.161L152.585 36.5H150.041L153.257 19.7H156.953L160.193 36.5ZM155.009 22.532L153.569 30.86H156.449L155.009 22.532ZM169.052 35.588C168.3 36.356 167.228 36.74 165.836 36.74C164.444 36.74 163.364 36.356 162.596 35.588C161.844 34.804 161.468 33.708 161.468 32.3V23.9C161.468 22.492 161.844 21.404 162.596 20.636C163.364 19.852 164.444 19.46 165.836 19.46C167.228 19.46 168.3 19.852 169.052 20.636C169.804 21.404 170.18 22.492 170.18 23.9V25.388H167.612V23.78C167.612 22.484 167.044 21.836 165.908 21.836C164.772 21.836 164.204 22.484 164.204 23.78V32.42C164.204 33.716 164.772 34.364 165.908 34.364C167.044 34.364 167.612 33.716 167.612 32.42V30.308H170.18V32.3C170.18 33.708 169.804 34.804 169.052 35.588ZM179.506 35.588C178.754 36.356 177.682 36.74 176.29 36.74C174.898 36.74 173.818 36.356 173.05 35.588C172.298 34.804 171.922 33.708 171.922 32.3V23.9C171.922 22.492 172.298 21.404 173.05 20.636C173.818 19.852 174.898 19.46 176.29 19.46C177.682 19.46 178.754 19.852 179.506 20.636C180.258 21.404 180.634 22.492 180.634 23.9V25.388H178.066V23.78C178.066 22.484 177.498 21.836 176.362 21.836C175.226 21.836 174.658 22.484 174.658 23.78V32.42C174.658 33.716 175.226 34.364 176.362 34.364C177.498 34.364 178.066 33.716 178.066 32.42V30.308H180.634V32.3C180.634 33.708 180.258 34.804 179.506 35.588ZM192.287 36.5H189.407L186.743 28.82L185.303 31.196V36.5H182.567V19.7H185.303V27.092L189.455 19.7H192.239L188.591 25.94L192.287 36.5ZM203.272 36.5H200.488L199.936 33.236H196.24L195.664 36.5H193.12L196.336 19.7H200.032L203.272 36.5ZM198.088 22.532L196.648 30.86H199.528L198.088 22.532ZM220.144 36.5H217.408L214.816 28.34L213.496 30.62V36.5H210.76V30.62L209.44 28.34L206.848 36.5H204.088L207.64 25.94L204.136 19.7H206.968L210.76 26.972V19.7H213.496V26.972L217.312 19.7H220.096L216.616 25.964L220.144 36.5ZM224.203 30.932L228.259 19.7H231.043V36.5H228.571V25.22L224.539 36.5H221.755V19.7H224.203V30.932ZM234.674 39.284H233.426L234.506 36.5H233.546V33.62H236.282V36.212L234.674 39.284ZM248.872 25.796V19.7H251.608V36.5H248.872V29.492C248.168 30.212 247.216 30.572 246.016 30.572C243.648 30.572 242.464 29.22 242.464 26.516V19.7H245.176V26.156C245.176 27.452 245.736 28.1 246.856 28.1C247.496 28.1 247.992 27.908 248.344 27.524C248.696 27.124 248.872 26.548 248.872 25.796ZM259.189 36.5H256.477V22.124H253.261V19.7H262.405V22.124H259.189V36.5ZM263.75 32.228V23.972C263.75 22.532 264.134 21.42 264.902 20.636C265.686 19.852 266.798 19.46 268.238 19.46C269.694 19.46 270.806 19.852 271.574 20.636C272.358 21.42 272.75 22.532 272.75 23.972V32.228C272.75 33.668 272.358 34.78 271.574 35.564C270.79 36.348 269.678 36.74 268.238 36.74C266.798 36.74 265.686 36.348 264.902 35.564C264.134 34.78 263.75 33.668 263.75 32.228ZM268.238 34.316C269.422 34.316 270.014 33.668 270.014 32.372V23.828C270.014 22.532 269.422 21.884 268.238 21.884C267.07 21.884 266.486 22.532 266.486 23.828V32.372C266.486 33.668 267.07 34.316 268.238 34.316ZM281.749 36.5H279.013V19.7H281.749V26.636H285.373V19.7H288.109V36.5H285.373V29.06H281.749V36.5ZM290.281 32.228V23.972C290.281 22.532 290.665 21.42 291.433 20.636C292.217 19.852 293.329 19.46 294.769 19.46C296.225 19.46 297.337 19.852 298.105 20.636C298.889 21.42 299.281 22.532 299.281 23.972V32.228C299.281 33.668 298.889 34.78 298.105 35.564C297.321 36.348 296.209 36.74 294.769 36.74C293.329 36.74 292.217 36.348 291.433 35.564C290.665 34.78 290.281 33.668 290.281 32.228ZM294.769 34.316C295.953 34.316 296.545 33.668 296.545 32.372V23.828C296.545 22.532 295.953 21.884 294.769 21.884C293.601 21.884 293.017 22.532 293.017 23.828V32.372C293.017 33.668 293.601 34.316 294.769 34.316ZM306.146 36.5H301.442V19.7H305.906C307.41 19.7 308.514 20.028 309.218 20.684C309.938 21.34 310.298 22.348 310.298 23.708V24.212C310.298 25.924 309.634 27.036 308.306 27.548V27.62C309.826 28.084 310.586 29.324 310.586 31.34V32.204C310.586 35.068 309.106 36.5 306.146 36.5ZM304.178 22.124V26.588H305.546C306.234 26.588 306.738 26.436 307.058 26.132C307.394 25.812 307.562 25.316 307.562 24.644V24.02C307.562 23.348 307.426 22.868 307.154 22.58C306.882 22.276 306.434 22.124 305.81 22.124H304.178ZM304.178 29.012V34.076H306.146C306.738 34.076 307.17 33.932 307.442 33.644C307.714 33.34 307.85 32.852 307.85 32.18V31.244C307.85 30.412 307.69 29.836 307.37 29.516C307.05 29.18 306.49 29.012 305.69 29.012H304.178ZM312.289 32.228V23.972C312.289 22.532 312.673 21.42 313.441 20.636C314.225 19.852 315.337 19.46 316.777 19.46C318.233 19.46 319.345 19.852 320.113 20.636C320.897 21.42 321.289 22.532 321.289 23.972V32.228C321.289 33.668 320.897 34.78 320.113 35.564C319.329 36.348 318.217 36.74 316.777 36.74C315.337 36.74 314.225 36.348 313.441 35.564C312.673 34.78 312.289 33.668 312.289 32.228ZM316.777 34.316C317.961 34.316 318.553 33.668 318.553 32.372V23.828C318.553 22.532 317.961 21.884 316.777 21.884C315.609 21.884 315.025 22.532 315.025 23.828V32.372C315.025 33.668 315.609 34.316 316.777 34.316ZM326.186 36.5H323.45V19.7H330.986V22.124H326.186V36.5ZM332.351 32.228V23.972C332.351 22.532 332.735 21.42 333.503 20.636C334.287 19.852 335.399 19.46 336.839 19.46C338.295 19.46 339.407 19.852 340.175 20.636C340.959 21.42 341.351 22.532 341.351 23.972V32.228C341.351 33.668 340.959 34.78 340.175 35.564C339.391 36.348 338.279 36.74 336.839 36.74C335.399 36.74 334.287 36.348 333.503 35.564C332.735 34.78 332.351 33.668 332.351 32.228ZM336.839 34.316C338.023 34.316 338.615 33.668 338.615 32.372V23.828C338.615 22.532 338.023 21.884 336.839 21.884C335.671 21.884 335.087 22.532 335.087 23.828V32.372C335.087 33.668 335.671 34.316 336.839 34.316ZM146.384 72.5H143.672V58.124H140.456V55.7H149.6V58.124H146.384V72.5ZM155.623 72.5H151.255V55.7H153.991V62.18H155.623C158.567 62.18 160.039 63.66 160.039 66.62V68.06C160.039 71.02 158.567 72.5 155.623 72.5ZM164.599 72.5H161.863V55.7H164.599V72.5ZM153.991 64.604V70.076H155.623C156.199 70.076 156.623 69.932 156.895 69.644C157.167 69.34 157.303 68.86 157.303 68.204V66.476C157.303 65.82 157.167 65.348 156.895 65.06C156.623 64.756 156.199 64.604 155.623 64.604H153.991ZM172.906 72.5H170.314L173.866 63.884L170.458 55.7H173.386L175.546 61.34L177.778 55.7H180.418L177.01 63.884L180.562 72.5H177.658L175.306 66.428L172.906 72.5ZM181.507 68.228V59.972C181.507 58.532 181.891 57.42 182.659 56.636C183.443 55.852 184.555 55.46 185.995 55.46C187.451 55.46 188.563 55.852 189.331 56.636C190.115 57.42 190.507 58.532 190.507 59.972V68.228C190.507 69.668 190.115 70.78 189.331 71.564C188.547 72.348 187.435 72.74 185.995 72.74C184.555 72.74 183.443 72.348 182.659 71.564C181.891 70.78 181.507 69.668 181.507 68.228ZM185.995 70.316C187.179 70.316 187.771 69.668 187.771 68.372V59.828C187.771 58.532 187.179 57.884 185.995 57.884C184.827 57.884 184.243 58.532 184.243 59.828V68.372C184.243 69.668 184.827 70.316 185.995 70.316ZM197.759 72.5H195.047V58.124H191.831V55.7H200.975V58.124H197.759V72.5ZM210.694 72.5H202.63V55.7H210.694V58.124H205.366V62.636H209.638V65.06H205.366V70.076H210.694V72.5ZM212.545 72.524C212.209 72.524 211.945 72.492 211.753 72.428V70.052C211.945 70.1 212.129 70.124 212.305 70.124C212.897 70.124 213.305 69.98 213.529 69.692C213.769 69.388 213.905 68.868 213.937 68.132L214.441 55.7H222.649V72.5H219.937V58.124H217.009L216.649 68.204C216.601 69.708 216.257 70.804 215.617 71.492C214.977 72.18 213.953 72.524 212.545 72.524ZM233.721 72.5H229.161V55.7H237.009V58.124H231.897V62.3H233.721C236.665 62.3 238.137 63.78 238.137 66.74V68.06C238.137 71.02 236.665 72.5 233.721 72.5ZM231.897 64.724V70.076H233.721C234.297 70.076 234.721 69.932 234.993 69.644C235.265 69.34 235.401 68.86 235.401 68.204V66.596C235.401 65.94 235.265 65.468 234.993 65.18C234.721 64.876 234.297 64.724 233.721 64.724H231.897ZM244.31 72.5H239.942V55.7H242.678V62.18H244.31C247.254 62.18 248.726 63.66 248.726 66.62V68.06C248.726 71.02 247.254 72.5 244.31 72.5ZM253.286 72.5H250.55V55.7H253.286V72.5ZM242.678 64.604V70.076H244.31C244.886 70.076 245.31 69.932 245.582 69.644C245.854 69.34 245.99 68.86 245.99 68.204V66.476C245.99 65.82 245.854 65.348 245.582 65.06C245.31 64.756 244.886 64.604 244.31 64.604H242.678ZM269.946 55.7V70.076H271.386V74.756H268.65V72.5H261.762V74.756H259.05V70.076H260.61C260.962 69.724 261.162 69.068 261.21 68.108L261.714 55.7H269.946ZM263.202 70.076H267.21V58.124H264.282L263.946 67.964C263.914 68.828 263.666 69.532 263.202 70.076ZM273.061 72.524C272.725 72.524 272.461 72.492 272.269 72.428V70.052C272.461 70.1 272.645 70.124 272.821 70.124C273.413 70.124 273.821 69.98 274.045 69.692C274.285 69.388 274.421 68.868 274.453 68.132L274.957 55.7H283.165V72.5H280.453V58.124H277.525L277.165 68.204C277.117 69.708 276.773 70.804 276.133 71.492C275.493 72.18 274.469 72.524 273.061 72.524ZM294.215 55.7V72.5H291.479V65.396H290.231C289.463 65.396 288.919 65.564 288.599 65.9C288.295 66.236 288.143 66.82 288.143 67.652V70.292C288.143 71.236 288.055 71.972 287.879 72.5H285.119C285.327 71.988 285.431 71.26 285.431 70.316V67.82C285.431 66.716 285.591 65.868 285.911 65.276C286.231 64.668 286.751 64.26 287.471 64.052V63.98C286.127 63.484 285.455 62.34 285.455 60.548V59.732C285.455 58.356 285.807 57.34 286.511 56.684C287.231 56.028 288.343 55.7 289.847 55.7H294.215ZM290.183 62.972H291.479V58.124H289.895C289.303 58.124 288.871 58.276 288.599 58.58C288.327 58.884 288.191 59.364 288.191 60.02V60.98C288.191 61.684 288.351 62.196 288.671 62.516C288.991 62.82 289.495 62.972 290.183 62.972ZM308.084 71.588C307.332 72.356 306.26 72.74 304.868 72.74C303.476 72.74 302.396 72.356 301.628 71.588C300.876 70.804 300.5 69.708 300.5 68.3V59.9C300.5 58.492 300.876 57.404 301.628 56.636C302.396 55.852 303.476 55.46 304.868 55.46C306.26 55.46 307.332 55.852 308.084 56.636C308.836 57.404 309.212 58.492 309.212 59.9V61.388H306.644V59.78C306.644 58.484 306.076 57.836 304.94 57.836C303.804 57.836 303.236 58.484 303.236 59.78V68.42C303.236 69.716 303.804 70.364 304.94 70.364C306.076 70.364 306.644 69.716 306.644 68.42V66.308H309.212V68.3C309.212 69.708 308.836 70.804 308.084 71.588ZM319.209 72.5H311.145V55.7H319.209V58.124H313.881V62.636H318.153V65.06H313.881V70.076H319.209V72.5ZM325.573 72.5H321.013V55.7H328.861V58.124H323.749V62.3H325.573C328.517 62.3 329.989 63.78 329.989 66.74V68.06C329.989 71.02 328.517 72.5 325.573 72.5ZM323.749 64.724V70.076H325.573C326.149 70.076 326.573 69.932 326.845 69.644C327.117 69.34 327.253 68.86 327.253 68.204V66.596C327.253 65.94 327.117 65.468 326.845 65.18C326.573 64.876 326.149 64.724 325.573 64.724H323.749ZM340.434 55.7V72.5H337.698V65.396H336.45C335.682 65.396 335.138 65.564 334.818 65.9C334.514 66.236 334.362 66.82 334.362 67.652V70.292C334.362 71.236 334.274 71.972 334.098 72.5H331.338C331.546 71.988 331.65 71.26 331.65 70.316V67.82C331.65 66.716 331.81 65.868 332.13 65.276C332.45 64.668 332.97 64.26 333.69 64.052V63.98C332.346 63.484 331.674 62.34 331.674 60.548V59.732C331.674 58.356 332.026 57.34 332.73 56.684C333.45 56.028 334.562 55.7 336.066 55.7H340.434ZM336.402 62.972H337.698V58.124H336.114C335.522 58.124 335.09 58.276 334.818 58.58C334.546 58.884 334.41 59.364 334.41 60.02V60.98C334.41 61.684 334.57 62.196 334.89 62.516C335.21 62.82 335.714 62.972 336.402 62.972ZM346.718 68.228V59.972C346.718 58.532 347.102 57.42 347.87 56.636C348.654 55.852 349.766 55.46 351.206 55.46C352.662 55.46 353.774 55.852 354.542 56.636C355.326 57.42 355.718 58.532 355.718 59.972V68.228C355.718 69.668 355.326 70.78 354.542 71.564C353.758 72.348 352.646 72.74 351.206 72.74C349.766 72.74 348.654 72.348 347.87 71.564C347.102 70.78 346.718 69.668 346.718 68.228ZM351.206 70.316C352.39 70.316 352.982 69.668 352.982 68.372V59.828C352.982 58.532 352.39 57.884 351.206 57.884C350.038 57.884 349.454 58.532 349.454 59.828V68.372C349.454 69.668 350.038 70.316 351.206 70.316ZM362.97 72.5H360.258V58.124H357.042V55.7H366.186V58.124H362.97V72.5ZM377.561 72.5H374.681L372.017 64.82L370.577 67.196V72.5H367.841V55.7H370.577V63.092L374.729 55.7H377.513L373.865 61.94L377.561 72.5ZM381.897 72.5H379.161V55.7H383.505C386.449 55.7 387.921 57.156 387.921 60.068V61.316C387.921 64.228 386.449 65.684 383.505 65.684H381.897V72.5ZM381.897 58.124V63.284H383.505C384.097 63.284 384.521 63.14 384.777 62.852C385.049 62.548 385.185 62.06 385.185 61.388V59.972C385.185 59.3 385.049 58.828 384.777 58.556C384.521 58.268 384.097 58.124 383.505 58.124H381.897ZM394.099 72.5H389.731V55.7H392.467V62.18H394.099C397.043 62.18 398.515 63.66 398.515 66.62V68.06C398.515 71.02 397.043 72.5 394.099 72.5ZM403.075 72.5H400.339V55.7H403.075V72.5ZM392.467 64.604V70.076H394.099C394.675 70.076 395.099 69.932 395.371 69.644C395.643 69.34 395.779 68.86 395.779 68.204V66.476C395.779 65.82 395.643 65.348 395.371 65.06C395.099 64.756 394.675 64.604 394.099 64.604H392.467ZM410.665 72.5H407.953V58.124H404.737V55.7H413.881V58.124H410.665V72.5ZM419.904 72.5H415.536V55.7H418.272V62.18H419.904C422.848 62.18 424.32 63.66 424.32 66.62V68.06C424.32 71.02 422.848 72.5 419.904 72.5ZM418.272 64.604V70.076H419.904C420.48 70.076 420.904 69.932 421.176 69.644C421.448 69.34 421.584 68.86 421.584 68.204V66.476C421.584 65.82 421.448 65.348 421.176 65.06C420.904 64.756 420.48 64.604 419.904 64.604H418.272Z" fill="white"/>
<g filter="url(#filter1_ddddd_201_30445)">
<ellipse cx="520" cy="215.5" rx="29" ry="7.5" fill="#DDBA63"/>
<path d="M519.998 144.999C512.707 145.008 505.718 147.908 500.562 153.063C495.407 158.219 492.507 165.208 492.498 172.499C492.498 196.029 517.498 213.803 518.562 214.547C518.983 214.841 519.485 214.999 519.998 214.999C520.512 214.999 521.013 214.841 521.434 214.547C522.498 213.803 547.498 196.029 547.498 172.499C547.489 165.208 544.589 158.219 539.434 153.063C534.279 147.908 527.289 145.008 519.998 144.999V144.999ZM520 162.5C521.978 162.5 523.911 163.086 525.556 164.185C527.2 165.284 528.482 166.846 529.239 168.673C529.996 170.5 530.194 172.511 529.808 174.451C529.422 176.391 528.469 178.173 527.071 179.571C525.672 180.97 523.891 181.922 521.951 182.308C520.011 182.694 518 182.496 516.173 181.739C514.346 180.982 512.784 179.7 511.685 178.056C510.586 176.411 510 174.478 510 172.5C510 171.187 510.258 169.886 510.761 168.673C511.264 167.46 512 166.357 512.929 165.429C513.857 164.5 514.96 163.764 516.173 163.261C517.386 162.759 518.687 162.5 520 162.5V162.5Z" fill="#FFF9DA"/>
<circle cx="520" cy="173" r="17" fill="#C74403"/>
<path d="M523.755 181H516.123V179.176C516.123 177.928 516.315 176.864 516.699 175.984C517.083 175.104 517.771 174.144 518.763 173.104C519.787 172 520.467 171.128 520.803 170.488C521.171 169.784 521.355 169.048 521.355 168.28C521.355 167.576 521.243 167.08 521.019 166.792C520.795 166.504 520.451 166.36 519.987 166.36C519.075 166.36 518.619 166.912 518.619 168.016V169.816H516.123V168.184C516.123 166.824 516.459 165.784 517.131 165.064C517.803 164.328 518.779 163.96 520.059 163.96C521.339 163.96 522.315 164.328 522.987 165.064C523.659 165.784 523.995 166.824 523.995 168.184C523.995 169.224 523.747 170.216 523.251 171.16C522.755 172.136 521.915 173.248 520.731 174.496C519.963 175.312 519.435 175.984 519.147 176.512C518.875 177.04 518.739 177.616 518.739 178.24V178.6H523.755V181Z" fill="white"/>
</g>
<path d="M589.688 164.772L591.848 155.7H594.464L590.84 169.644C590.552 170.748 590.096 171.54 589.472 172.02C588.848 172.5 587.968 172.74 586.832 172.74C586.176 172.74 585.624 172.652 585.176 172.476V170.124C585.56 170.252 585.976 170.316 586.424 170.316C586.936 170.316 587.32 170.244 587.576 170.1C587.832 169.94 588.024 169.668 588.152 169.284L588.272 168.852L584.48 155.7H587.312L589.688 164.772ZM601.981 161.796V155.7H604.717V172.5H601.981V165.492C601.277 166.212 600.325 166.572 599.125 166.572C596.757 166.572 595.573 165.22 595.573 162.516V155.7H598.285V162.156C598.285 163.452 598.845 164.1 599.965 164.1C600.605 164.1 601.101 163.908 601.453 163.524C601.805 163.124 601.981 162.548 601.981 161.796ZM616.498 172.5H613.714L613.162 169.236H609.466L608.89 172.5H606.346L609.562 155.7H613.258L616.498 172.5ZM611.314 158.532L609.874 166.86H612.754L611.314 158.532ZM625.357 171.588C624.605 172.356 623.533 172.74 622.141 172.74C620.749 172.74 619.669 172.356 618.901 171.588C618.149 170.804 617.773 169.708 617.773 168.3V159.9C617.773 158.492 618.149 157.404 618.901 156.636C619.669 155.852 620.749 155.46 622.141 155.46C623.533 155.46 624.605 155.852 625.357 156.636C626.109 157.404 626.485 158.492 626.485 159.9V161.388H623.917V159.78C623.917 158.484 623.349 157.836 622.213 157.836C621.077 157.836 620.509 158.484 620.509 159.78V168.42C620.509 169.716 621.077 170.364 622.213 170.364C623.349 170.364 623.917 169.716 623.917 168.42V166.308H626.485V168.3C626.485 169.708 626.109 170.804 625.357 171.588ZM633.603 172.5H630.891V158.124H627.675V155.7H636.819V158.124H633.603V172.5ZM643.177 172.5H638.473V155.7H642.937C644.441 155.7 645.545 156.028 646.249 156.684C646.969 157.34 647.329 158.348 647.329 159.708V160.212C647.329 161.924 646.665 163.036 645.337 163.548V163.62C646.857 164.084 647.617 165.324 647.617 167.34V168.204C647.617 171.068 646.137 172.5 643.177 172.5ZM641.209 158.124V162.588H642.577C643.265 162.588 643.769 162.436 644.089 162.132C644.425 161.812 644.593 161.316 644.593 160.644V160.02C644.593 159.348 644.457 158.868 644.185 158.58C643.913 158.276 643.465 158.124 642.841 158.124H641.209ZM641.209 165.012V170.076H643.177C643.769 170.076 644.201 169.932 644.473 169.644C644.745 169.34 644.881 168.852 644.881 168.18V167.244C644.881 166.412 644.721 165.836 644.401 165.516C644.081 165.18 643.521 165.012 642.721 165.012H641.209ZM653.954 164.772L656.114 155.7H658.73L655.106 169.644C654.818 170.748 654.362 171.54 653.738 172.02C653.114 172.5 652.234 172.74 651.098 172.74C650.442 172.74 649.89 172.652 649.442 172.476V170.124C649.826 170.252 650.242 170.316 650.69 170.316C651.202 170.316 651.586 170.244 651.842 170.1C652.098 169.94 652.29 169.668 652.418 169.284L652.538 168.852L648.746 155.7H651.578L653.954 164.772ZM664.879 154.332C663.935 154.332 663.191 154.068 662.647 153.54C662.103 152.996 661.815 152.26 661.783 151.332H663.439C663.519 152.132 663.999 152.532 664.879 152.532C665.759 152.532 666.263 152.132 666.391 151.332H667.999C667.967 152.26 667.679 152.996 667.135 153.54C666.591 154.068 665.839 154.332 664.879 154.332ZM662.695 166.932L666.751 155.7H669.535V172.5H667.063V161.22L663.031 172.5H660.247V155.7H662.695V166.932ZM680.748 172.5H676.044V155.7H680.508C682.012 155.7 683.116 156.028 683.82 156.684C684.54 157.34 684.9 158.348 684.9 159.708V160.212C684.9 161.924 684.236 163.036 682.908 163.548V163.62C684.428 164.084 685.188 165.324 685.188 167.34V168.204C685.188 171.068 683.708 172.5 680.748 172.5ZM678.78 158.124V162.588H680.148C680.836 162.588 681.34 162.436 681.66 162.132C681.996 161.812 682.164 161.316 682.164 160.644V160.02C682.164 159.348 682.028 158.868 681.756 158.58C681.484 158.276 681.036 158.124 680.412 158.124H678.78ZM678.78 165.012V170.076H680.748C681.34 170.076 681.772 169.932 682.044 169.644C682.316 169.34 682.452 168.852 682.452 168.18V167.244C682.452 166.412 682.292 165.836 681.972 165.516C681.652 165.18 681.092 165.012 680.292 165.012H678.78ZM693.944 172.5H691.208V155.7H695.552C698.496 155.7 699.968 157.156 699.968 160.068V161.316C699.968 164.228 698.496 165.684 695.552 165.684H693.944V172.5ZM693.944 158.124V163.284H695.552C696.144 163.284 696.568 163.14 696.824 162.852C697.096 162.548 697.232 162.06 697.232 161.388V159.972C697.232 159.3 697.096 158.828 696.824 158.556C696.568 158.268 696.144 158.124 695.552 158.124H693.944ZM701.562 168.228V159.972C701.562 158.532 701.946 157.42 702.714 156.636C703.498 155.852 704.61 155.46 706.05 155.46C707.506 155.46 708.618 155.852 709.386 156.636C710.17 157.42 710.562 158.532 710.562 159.972V168.228C710.562 169.668 710.17 170.78 709.386 171.564C708.602 172.348 707.49 172.74 706.05 172.74C704.61 172.74 703.498 172.348 702.714 171.564C701.946 170.78 701.562 169.668 701.562 168.228ZM706.05 170.316C707.234 170.316 707.826 169.668 707.826 168.372V159.828C707.826 158.532 707.234 157.884 706.05 157.884C704.882 157.884 704.298 158.532 704.298 159.828V168.372C704.298 169.668 704.882 170.316 706.05 170.316ZM716.587 172.74C715.147 172.74 714.051 172.364 713.299 171.612C712.547 170.844 712.171 169.74 712.171 168.3V167.172H714.739V168.348C714.739 169.66 715.331 170.316 716.515 170.316C717.139 170.316 717.587 170.156 717.859 169.836C718.147 169.5 718.291 168.956 718.291 168.204V167.292C718.291 166.46 718.123 165.868 717.787 165.516C717.467 165.148 716.931 164.964 716.179 164.964H715.147V162.54H716.251C717.563 162.54 718.219 161.86 718.219 160.5V159.756C718.219 158.508 717.651 157.884 716.515 157.884C715.395 157.884 714.835 158.484 714.835 159.684V160.524H712.267V159.9C712.267 158.46 712.635 157.364 713.371 156.612C714.107 155.844 715.187 155.46 716.611 155.46C718.019 155.46 719.091 155.828 719.827 156.564C720.563 157.3 720.931 158.364 720.931 159.756V160.212C720.931 161.956 720.219 163.084 718.795 163.596V163.62C720.267 164.132 721.003 165.364 721.003 167.316V168.276C721.003 171.252 719.531 172.74 716.587 172.74ZM727.357 172.5H722.989V155.7H725.725V162.18H727.357C730.301 162.18 731.773 163.66 731.773 166.62V168.06C731.773 171.02 730.301 172.5 727.357 172.5ZM736.333 172.5H733.597V155.7H736.333V172.5ZM725.725 164.604V170.076H727.357C727.933 170.076 728.357 169.932 728.629 169.644C728.901 169.34 729.037 168.86 729.037 168.204V166.476C729.037 165.82 728.901 165.348 728.629 165.06C728.357 164.756 727.933 164.604 727.357 164.604H725.725ZM741.475 172.5H738.739V155.7H746.275V158.124H741.475V172.5ZM750.686 172.5H747.95V155.7H752.294C755.238 155.7 756.71 157.156 756.71 160.068V161.316C756.71 164.228 755.238 165.684 752.294 165.684H750.686V172.5ZM750.686 158.124V163.284H752.294C752.886 163.284 753.31 163.14 753.566 162.852C753.838 162.548 753.974 162.06 753.974 161.388V159.972C753.974 159.3 753.838 158.828 753.566 158.556C753.31 158.268 752.886 158.124 752.294 158.124H750.686ZM762.888 172.5H758.52V155.7H761.256V162.18H762.888C765.832 162.18 767.304 163.66 767.304 166.62V168.06C767.304 171.02 765.832 172.5 762.888 172.5ZM771.864 172.5H769.128V155.7H771.864V172.5ZM761.256 164.604V170.076H762.888C763.464 170.076 763.888 169.932 764.16 169.644C764.432 169.34 764.568 168.86 764.568 168.204V166.476C764.568 165.82 764.432 165.348 764.16 165.06C763.888 164.756 763.464 164.604 762.888 164.604H761.256ZM788.142 172.5H774.27V155.7H777.006V170.076H779.862V155.7H782.574V170.076H785.406V155.7H788.142V172.5ZM798.6 172.5H790.536V155.7H798.6V158.124H793.272V162.636H797.544V165.06H793.272V170.076H798.6V172.5ZM807.241 172.5H804.505V155.7H813.601V172.5H810.865V158.124H807.241V172.5ZM818.725 172.5H815.989V155.7H820.333C823.277 155.7 824.749 157.156 824.749 160.068V161.316C824.749 164.228 823.277 165.684 820.333 165.684H818.725V172.5ZM818.725 158.124V163.284H820.333C820.925 163.284 821.349 163.14 821.605 162.852C821.877 162.548 822.013 162.06 822.013 161.388V159.972C822.013 159.3 821.877 158.828 821.605 158.556C821.349 158.268 820.925 158.124 820.333 158.124H818.725ZM829.007 166.932L833.063 155.7H835.847V172.5H833.375V161.22L829.343 172.5H826.559V155.7H829.007V166.932ZM842.119 172.74C840.679 172.74 839.583 172.364 838.831 171.612C838.079 170.844 837.703 169.74 837.703 168.3V167.172H840.271V168.348C840.271 169.66 840.863 170.316 842.047 170.316C842.671 170.316 843.119 170.156 843.391 169.836C843.679 169.5 843.823 168.956 843.823 168.204V167.292C843.823 166.46 843.655 165.868 843.319 165.516C842.999 165.148 842.463 164.964 841.711 164.964H840.679V162.54H841.783C843.095 162.54 843.751 161.86 843.751 160.5V159.756C843.751 158.508 843.183 157.884 842.047 157.884C840.927 157.884 840.367 158.484 840.367 159.684V160.524H837.799V159.9C837.799 158.46 838.167 157.364 838.903 156.612C839.639 155.844 840.719 155.46 842.143 155.46C843.551 155.46 844.623 155.828 845.359 156.564C846.095 157.3 846.463 158.364 846.463 159.756V160.212C846.463 161.956 845.751 163.084 844.327 163.596V163.62C845.799 164.132 846.535 165.364 846.535 167.316V168.276C846.535 171.252 845.063 172.74 842.119 172.74ZM848.304 168.228V159.972C848.304 158.532 848.688 157.42 849.456 156.636C850.24 155.852 851.352 155.46 852.792 155.46C854.248 155.46 855.36 155.852 856.128 156.636C856.912 157.42 857.304 158.532 857.304 159.972V168.228C857.304 169.668 856.912 170.78 856.128 171.564C855.344 172.348 854.232 172.74 852.792 172.74C851.352 172.74 850.24 172.348 849.456 171.564C848.688 170.78 848.304 169.668 848.304 168.228ZM852.792 170.316C853.976 170.316 854.568 169.668 854.568 168.372V159.828C854.568 158.532 853.976 157.884 852.792 157.884C851.624 157.884 851.04 158.532 851.04 159.828V168.372C851.04 169.668 851.624 170.316 852.792 170.316ZM864.17 172.5H859.466V155.7H863.93C865.434 155.7 866.538 156.028 867.242 156.684C867.962 157.34 868.322 158.348 868.322 159.708V160.212C868.322 161.924 867.658 163.036 866.33 163.548V163.62C867.85 164.084 868.61 165.324 868.61 167.34V168.204C868.61 171.068 867.13 172.5 864.17 172.5ZM862.202 158.124V162.588H863.57C864.258 162.588 864.762 162.436 865.082 162.132C865.418 161.812 865.586 161.316 865.586 160.644V160.02C865.586 159.348 865.45 158.868 865.178 158.58C864.906 158.276 864.458 158.124 863.834 158.124H862.202ZM862.202 165.012V170.076H864.17C864.762 170.076 865.194 169.932 865.466 169.644C865.738 169.34 865.874 168.852 865.874 168.18V167.244C865.874 166.412 865.714 165.836 865.394 165.516C865.074 165.18 864.514 165.012 863.714 165.012H862.202ZM595.352 191.7V206.076H596.792V210.756H594.056V208.5H587.168V210.756H584.456V206.076H586.016C586.368 205.724 586.568 205.068 586.616 204.108L587.12 191.7H595.352ZM588.608 206.076H592.616V194.124H589.688L589.352 203.964C589.32 204.828 589.072 205.532 588.608 206.076ZM598.467 208.524C598.131 208.524 597.867 208.492 597.675 208.428V206.052C597.867 206.1 598.051 206.124 598.227 206.124C598.819 206.124 599.227 205.98 599.451 205.692C599.691 205.388 599.827 204.868 599.859 204.132L600.363 191.7H608.571V208.5H605.859V194.124H602.931L602.571 204.204C602.523 205.708 602.179 206.804 601.539 207.492C600.899 208.18 599.875 208.524 598.467 208.524ZM619.621 191.7V208.5H616.885V201.396H615.637C614.869 201.396 614.325 201.564 614.005 201.9C613.701 202.236 613.549 202.82 613.549 203.652V206.292C613.549 207.236 613.461 207.972 613.285 208.5H610.525C610.733 207.988 610.837 207.26 610.837 206.316V203.82C610.837 202.716 610.997 201.868 611.317 201.276C611.637 200.668 612.157 200.26 612.877 200.052V199.98C611.533 199.484 610.861 198.34 610.861 196.548V195.732C610.861 194.356 611.213 193.34 611.917 192.684C612.637 192.028 613.749 191.7 615.253 191.7H619.621ZM615.589 198.972H616.885V194.124H615.301C614.709 194.124 614.277 194.276 614.005 194.58C613.733 194.884 613.597 195.364 613.597 196.02V196.98C613.597 197.684 613.757 198.196 614.077 198.516C614.397 198.82 614.901 198.972 615.589 198.972ZM628.858 208.5H626.122V191.7H630.466C633.41 191.7 634.882 193.156 634.882 196.068V197.316C634.882 200.228 633.41 201.684 630.466 201.684H628.858V208.5ZM628.858 194.124V199.284H630.466C631.058 199.284 631.482 199.14 631.738 198.852C632.01 198.548 632.146 198.06 632.146 197.388V195.972C632.146 195.3 632.01 194.828 631.738 194.556C631.482 194.268 631.058 194.124 630.466 194.124H628.858ZM644.756 208.5H636.692V191.7H644.756V194.124H639.428V198.636H643.7V201.06H639.428V206.076H644.756V208.5ZM655.99 208.5H653.206L652.654 205.236H648.958L648.382 208.5H645.838L649.054 191.7H652.75L655.99 208.5ZM650.806 194.532L649.366 202.86H652.246L650.806 194.532ZM657.74 208.524C657.404 208.524 657.14 208.492 656.948 208.428V206.052C657.14 206.1 657.324 206.124 657.5 206.124C658.092 206.124 658.5 205.98 658.724 205.692C658.964 205.388 659.1 204.868 659.132 204.132L659.636 191.7H667.844V208.5H665.132V194.124H662.204L661.844 204.204C661.796 205.708 661.452 206.804 660.812 207.492C660.172 208.18 659.148 208.524 657.74 208.524ZM672.703 202.932L676.759 191.7H679.543V208.5H677.071V197.22L673.039 208.5H670.255V191.7H672.703V202.932ZM685.814 208.74C684.374 208.74 683.278 208.364 682.526 207.612C681.774 206.844 681.398 205.74 681.398 204.3V203.172H683.966V204.348C683.966 205.66 684.558 206.316 685.742 206.316C686.366 206.316 686.814 206.156 687.086 205.836C687.374 205.5 687.518 204.956 687.518 204.204V203.292C687.518 202.46 687.35 201.868 687.014 201.516C686.694 201.148 686.158 200.964 685.406 200.964H684.374V198.54H685.478C686.79 198.54 687.446 197.86 687.446 196.5V195.756C687.446 194.508 686.878 193.884 685.742 193.884C684.622 193.884 684.062 194.484 684.062 195.684V196.524H681.494V195.9C681.494 194.46 681.862 193.364 682.598 192.612C683.334 191.844 684.414 191.46 685.838 191.46C687.246 191.46 688.318 191.828 689.054 192.564C689.79 193.3 690.158 194.364 690.158 195.756V196.212C690.158 197.956 689.446 199.084 688.022 199.596V199.62C689.494 200.132 690.23 201.364 690.23 203.316V204.276C690.23 207.252 688.758 208.74 685.814 208.74ZM701.412 208.5H698.628L698.076 205.236H694.38L693.804 208.5H691.26L694.476 191.7H698.172L701.412 208.5ZM696.228 194.532L694.788 202.86H697.668L696.228 194.532ZM713.7 210.756H710.964V208.5H703.02V191.7H705.756V206.076H709.38V191.7H712.116V206.076H713.7V210.756ZM717.773 202.932L721.829 191.7H724.613V208.5H722.141V197.22L718.109 208.5H715.325V191.7H717.773V202.932ZM729.468 202.932L733.524 191.7H736.308V208.5H733.836V197.22L729.804 208.5H727.02V191.7H729.468V202.932ZM750.185 207.588C749.433 208.356 748.361 208.74 746.969 208.74C745.577 208.74 744.497 208.356 743.729 207.588C742.977 206.804 742.601 205.708 742.601 204.3V195.9C742.601 194.492 742.977 193.404 743.729 192.636C744.497 191.852 745.577 191.46 746.969 191.46C748.361 191.46 749.433 191.852 750.185 192.636C750.937 193.404 751.313 194.492 751.313 195.9V197.388H748.745V195.78C748.745 194.484 748.177 193.836 747.041 193.836C745.905 193.836 745.337 194.484 745.337 195.78V204.42C745.337 205.716 745.905 206.364 747.041 206.364C748.177 206.364 748.745 205.716 748.745 204.42V202.308H751.313V204.3C751.313 205.708 750.937 206.804 750.185 207.588ZM757.951 208.5H753.247V191.7H757.711C759.215 191.7 760.319 192.028 761.023 192.684C761.743 193.34 762.103 194.348 762.103 195.708V196.212C762.103 197.924 761.439 199.036 760.111 199.548V199.62C761.631 200.084 762.391 201.324 762.391 203.34V204.204C762.391 207.068 760.911 208.5 757.951 208.5ZM755.983 194.124V198.588H757.351C758.039 198.588 758.543 198.436 758.863 198.132C759.199 197.812 759.367 197.316 759.367 196.644V196.02C759.367 195.348 759.231 194.868 758.959 194.58C758.687 194.276 758.239 194.124 757.615 194.124H755.983ZM755.983 201.012V206.076H757.951C758.543 206.076 758.975 205.932 759.247 205.644C759.519 205.34 759.655 204.852 759.655 204.18V203.244C759.655 202.412 759.495 201.836 759.175 201.516C758.855 201.18 758.295 201.012 757.495 201.012H755.983ZM764.093 204.228V195.972C764.093 194.532 764.477 193.42 765.245 192.636C766.029 191.852 767.141 191.46 768.581 191.46C770.037 191.46 771.149 191.852 771.917 192.636C772.701 193.42 773.093 194.532 773.093 195.972V204.228C773.093 205.668 772.701 206.78 771.917 207.564C771.133 208.348 770.021 208.74 768.581 208.74C767.141 208.74 766.029 208.348 765.245 207.564C764.477 206.78 764.093 205.668 764.093 204.228ZM768.581 206.316C769.765 206.316 770.357 205.668 770.357 204.372V195.828C770.357 194.532 769.765 193.884 768.581 193.884C767.413 193.884 766.829 194.532 766.829 195.828V204.372C766.829 205.668 767.413 206.316 768.581 206.316ZM777.703 202.932L781.759 191.7H784.543V208.5H782.071V197.22L778.039 208.5H775.255V191.7H777.703V202.932ZM788.75 208.5H786.158L789.71 199.884L786.302 191.7H789.23L791.39 197.34L793.622 191.7H796.262L792.854 199.884L796.406 208.5H793.502L791.15 202.428L788.75 208.5ZM804.562 202.932L808.618 191.7H811.402V208.5H808.93V197.22L804.898 208.5H802.114V191.7H804.562V202.932ZM823.961 191.7V206.076H825.401V210.756H822.665V208.5H815.777V210.756H813.065V206.076H814.625C814.977 205.724 815.177 205.068 815.225 204.108L815.729 191.7H823.961ZM817.217 206.076H821.225V194.124H818.297L817.961 203.964C817.929 204.828 817.681 205.532 817.217 206.076ZM835.092 208.5H827.028V191.7H835.092V194.124H829.764V198.636H834.036V201.06H829.764V206.076H835.092V208.5ZM841.527 190.332C840.583 190.332 839.839 190.068 839.295 189.54C838.751 188.996 838.463 188.26 838.431 187.332H840.087C840.167 188.132 840.647 188.532 841.527 188.532C842.407 188.532 842.911 188.132 843.039 187.332H844.647C844.615 188.26 844.327 188.996 843.783 189.54C843.239 190.068 842.487 190.332 841.527 190.332ZM839.343 202.932L843.399 191.7H846.183V208.5H843.711V197.22L839.679 208.5H836.895V191.7H839.343V202.932Z" fill="white"/>
<g filter="url(#filter2_ddddd_201_30445)">
<ellipse cx="156" cy="388.5" rx="29" ry="7.5" fill="#DDBA63"/>
<path d="M155.998 317.999C148.707 318.008 141.718 320.908 136.562 326.063C131.407 331.219 128.507 338.208 128.498 345.499C128.498 369.029 153.498 386.803 154.562 387.547C154.983 387.841 155.485 387.999 155.998 387.999C156.512 387.999 157.013 387.841 157.434 387.547C158.498 386.803 183.498 369.029 183.498 345.499C183.489 338.208 180.589 331.219 175.434 326.063C170.279 320.908 163.289 318.008 155.998 317.999V317.999ZM156 335.5C157.978 335.5 159.911 336.086 161.556 337.185C163.2 338.284 164.482 339.846 165.239 341.673C165.996 343.5 166.194 345.511 165.808 347.451C165.422 349.391 164.469 351.173 163.071 352.571C161.672 353.97 159.891 354.922 157.951 355.308C156.011 355.694 154 355.496 152.173 354.739C150.346 353.982 148.784 352.7 147.685 351.056C146.586 349.411 146 347.478 146 345.5C146 344.187 146.258 342.886 146.761 341.673C147.264 340.46 148 339.357 148.929 338.429C149.857 337.5 150.96 336.764 152.173 336.261C153.386 335.759 154.687 335.5 156 335.5V335.5Z" fill="#FFF9DA"/>
<circle cx="156" cy="346" r="17" fill="#C74403"/>
<path d="M151.992 350.064V348.696H154.488V350.184C154.488 351.288 154.944 351.84 155.856 351.84C156.32 351.84 156.664 351.696 156.888 351.408C157.112 351.12 157.224 350.632 157.224 349.944V348.576C157.224 347.808 157.088 347.264 156.816 346.944C156.544 346.608 156.104 346.44 155.496 346.44H154.608V344.04H155.568C156.112 344.04 156.512 343.904 156.768 343.632C157.024 343.344 157.152 342.888 157.152 342.264V341.04C157.152 339.92 156.712 339.36 155.832 339.36C154.984 339.36 154.56 339.88 154.56 340.92V342.024H152.064V341.136C152.064 339.792 152.392 338.76 153.048 338.04C153.72 337.32 154.68 336.96 155.928 336.96C157.192 336.96 158.152 337.32 158.808 338.04C159.464 338.744 159.792 339.768 159.792 341.112V341.712C159.792 343.504 159.168 344.632 157.92 345.096V345.144C159.216 345.624 159.864 346.776 159.864 348.6V350.088C159.864 351.432 159.528 352.464 158.856 353.184C158.2 353.888 157.224 354.24 155.928 354.24C154.632 354.24 153.648 353.88 152.976 353.16C152.32 352.44 151.992 351.408 151.992 350.064Z" fill="white"/>
</g>
<path d="M223.936 345.5H221.2V328.7H230.296V345.5H227.56V331.124H223.936V345.5ZM232.468 341.228V332.972C232.468 331.532 232.852 330.42 233.62 329.636C234.404 328.852 235.516 328.46 236.956 328.46C238.412 328.46 239.524 328.852 240.292 329.636C241.076 330.42 241.468 331.532 241.468 332.972V341.228C241.468 342.668 241.076 343.78 240.292 344.564C239.508 345.348 238.396 345.74 236.956 345.74C235.516 345.74 234.404 345.348 233.62 344.564C232.852 343.78 232.468 342.668 232.468 341.228ZM236.956 343.316C238.14 343.316 238.732 342.668 238.732 341.372V332.828C238.732 331.532 238.14 330.884 236.956 330.884C235.788 330.884 235.204 331.532 235.204 332.828V341.372C235.204 342.668 235.788 343.316 236.956 343.316ZM247.494 345.74C246.054 345.74 244.958 345.364 244.206 344.612C243.454 343.844 243.078 342.74 243.078 341.3V340.172H245.646V341.348C245.646 342.66 246.238 343.316 247.422 343.316C248.046 343.316 248.494 343.156 248.766 342.836C249.054 342.5 249.198 341.956 249.198 341.204V340.292C249.198 339.46 249.03 338.868 248.694 338.516C248.374 338.148 247.838 337.964 247.086 337.964H246.054V335.54H247.158C248.47 335.54 249.126 334.86 249.126 333.5V332.756C249.126 331.508 248.558 330.884 247.422 330.884C246.302 330.884 245.742 331.484 245.742 332.684V333.524H243.174V332.9C243.174 331.46 243.542 330.364 244.278 329.612C245.014 328.844 246.094 328.46 247.518 328.46C248.926 328.46 249.998 328.828 250.734 329.564C251.47 330.3 251.838 331.364 251.838 332.756V333.212C251.838 334.956 251.126 336.084 249.702 336.596V336.62C251.174 337.132 251.91 338.364 251.91 340.316V341.276C251.91 344.252 250.438 345.74 247.494 345.74ZM253.679 341.228V332.972C253.679 331.532 254.063 330.42 254.831 329.636C255.615 328.852 256.727 328.46 258.167 328.46C259.623 328.46 260.735 328.852 261.503 329.636C262.287 330.42 262.679 331.532 262.679 332.972V341.228C262.679 342.668 262.287 343.78 261.503 344.564C260.719 345.348 259.607 345.74 258.167 345.74C256.727 345.74 255.615 345.348 254.831 344.564C254.063 343.78 253.679 342.668 253.679 341.228ZM258.167 343.316C259.351 343.316 259.943 342.668 259.943 341.372V332.828C259.943 331.532 259.351 330.884 258.167 330.884C256.999 330.884 256.415 331.532 256.415 332.828V341.372C256.415 342.668 256.999 343.316 258.167 343.316ZM269.545 345.5H264.841V328.7H269.305C270.809 328.7 271.913 329.028 272.617 329.684C273.337 330.34 273.697 331.348 273.697 332.708V333.212C273.697 334.924 273.033 336.036 271.705 336.548V336.62C273.225 337.084 273.985 338.324 273.985 340.34V341.204C273.985 344.068 272.505 345.5 269.545 345.5ZM267.577 331.124V335.588H268.945C269.633 335.588 270.137 335.436 270.457 335.132C270.793 334.812 270.961 334.316 270.961 333.644V333.02C270.961 332.348 270.825 331.868 270.553 331.58C270.281 331.276 269.833 331.124 269.209 331.124H267.577ZM267.577 338.012V343.076H269.545C270.137 343.076 270.569 342.932 270.841 342.644C271.113 342.34 271.249 341.852 271.249 341.18V340.244C271.249 339.412 271.089 338.836 270.769 338.516C270.449 338.18 269.889 338.012 269.089 338.012H267.577ZM278.351 339.932L282.407 328.7H285.191V345.5H282.719V334.22L278.687 345.5H275.903V328.7H278.351V339.932ZM301.852 328.7V343.076H303.292V347.756H300.556V345.5H293.668V347.756H290.956V343.076H292.516C292.868 342.724 293.068 342.068 293.116 341.108L293.62 328.7H301.852ZM295.108 343.076H299.116V331.124H296.188L295.852 340.964C295.82 341.828 295.572 342.532 295.108 343.076ZM307.655 345.5H304.919V328.7H309.263C312.207 328.7 313.679 330.156 313.679 333.068V334.316C313.679 337.228 312.207 338.684 309.263 338.684H307.655V345.5ZM307.655 331.124V336.284H309.263C309.855 336.284 310.279 336.14 310.535 335.852C310.807 335.548 310.943 335.06 310.943 334.388V332.972C310.943 332.3 310.807 331.828 310.535 331.556C310.279 331.268 309.855 331.124 309.263 331.124H307.655ZM319.672 337.772L321.832 328.7H324.448L320.824 342.644C320.536 343.748 320.08 344.54 319.456 345.02C318.832 345.5 317.952 345.74 316.816 345.74C316.16 345.74 315.608 345.652 315.16 345.476V343.124C315.544 343.252 315.96 343.316 316.408 343.316C316.92 343.316 317.304 343.244 317.56 343.1C317.816 342.94 318.008 342.668 318.136 342.284L318.256 341.852L314.464 328.7H317.296L319.672 337.772ZM329.595 345.74C328.155 345.74 327.059 345.364 326.307 344.612C325.555 343.844 325.179 342.74 325.179 341.3V340.172H327.747V341.348C327.747 342.66 328.339 343.316 329.523 343.316C330.147 343.316 330.595 343.156 330.867 342.836C331.155 342.5 331.299 341.956 331.299 341.204V340.292C331.299 339.46 331.131 338.868 330.795 338.516C330.475 338.148 329.939 337.964 329.187 337.964H328.155V335.54H329.259C330.571 335.54 331.227 334.86 331.227 333.5V332.756C331.227 331.508 330.659 330.884 329.523 330.884C328.403 330.884 327.843 331.484 327.843 332.684V333.524H325.275V332.9C325.275 331.46 325.643 330.364 326.379 329.612C327.115 328.844 328.195 328.46 329.619 328.46C331.027 328.46 332.099 328.828 332.835 329.564C333.571 330.3 333.939 331.364 333.939 332.756V333.212C333.939 334.956 333.227 336.084 331.803 336.596V336.62C333.275 337.132 334.011 338.364 334.011 340.316V341.276C334.011 344.252 332.539 345.74 329.595 345.74ZM344.061 345.5H335.997V328.7H344.061V331.124H338.733V335.636H343.005V338.06H338.733V343.076H344.061V345.5ZM350.496 327.332C349.552 327.332 348.808 327.068 348.264 326.54C347.72 325.996 347.432 325.26 347.4 324.332H349.056C349.136 325.132 349.616 325.532 350.496 325.532C351.376 325.532 351.88 325.132 352.008 324.332H353.616C353.584 325.26 353.296 325.996 352.752 326.54C352.208 327.068 351.456 327.332 350.496 327.332ZM348.312 339.932L352.368 328.7H355.152V345.5H352.68V334.22L348.648 345.5H345.864V328.7H348.312V339.932ZM364.397 345.5H361.661V328.7H370.757V345.5H368.021V331.124H364.397V345.5ZM372.929 341.228V332.972C372.929 331.532 373.313 330.42 374.081 329.636C374.865 328.852 375.977 328.46 377.417 328.46C378.873 328.46 379.985 328.852 380.753 329.636C381.537 330.42 381.929 331.532 381.929 332.972V341.228C381.929 342.668 381.537 343.78 380.753 344.564C379.969 345.348 378.857 345.74 377.417 345.74C375.977 345.74 374.865 345.348 374.081 344.564C373.313 343.78 372.929 342.668 372.929 341.228ZM377.417 343.316C378.601 343.316 379.193 342.668 379.193 341.372V332.828C379.193 331.532 378.601 330.884 377.417 330.884C376.249 330.884 375.665 331.532 375.665 332.828V341.372C375.665 342.668 376.249 343.316 377.417 343.316ZM394.125 328.7V343.076H395.565V347.756H392.829V345.5H385.941V347.756H383.229V343.076H384.789C385.141 342.724 385.341 342.068 385.389 341.108L385.893 328.7H394.125ZM387.381 343.076H391.389V331.124H388.461L388.125 340.964C388.093 341.828 387.845 342.532 387.381 343.076ZM407.344 328.7V343.076H408.784V347.756H406.048V345.5H399.16V347.756H396.448V343.076H398.008C398.36 342.724 398.56 342.068 398.608 341.108L399.112 328.7H407.344ZM400.6 343.076H404.608V331.124H401.68L401.344 340.964C401.312 341.828 401.064 342.532 400.6 343.076ZM418.475 345.5H410.411V328.7H418.475V331.124H413.147V335.636H417.419V338.06H413.147V343.076H418.475V345.5ZM423.014 345.5H420.278V328.7H424.622C427.566 328.7 429.038 330.156 429.038 333.068V334.316C429.038 337.228 427.566 338.684 424.622 338.684H423.014V345.5ZM423.014 331.124V336.284H424.622C425.214 336.284 425.638 336.14 425.894 335.852C426.166 335.548 426.302 335.06 426.302 334.388V332.972C426.302 332.3 426.166 331.828 425.894 331.556C425.638 331.268 425.214 331.124 424.622 331.124H423.014ZM445.433 345.5H442.697L440.105 337.34L438.785 339.62V345.5H436.049V339.62L434.729 337.34L432.137 345.5H429.377L432.929 334.94L429.425 328.7H432.257L436.049 335.972V328.7H438.785V335.972L442.601 328.7H445.385L441.905 334.964L445.433 345.5ZM456.428 345.5H453.644L453.092 342.236H449.396L448.82 345.5H446.276L449.492 328.7H453.188L456.428 345.5ZM451.244 331.532L449.804 339.86H452.684L451.244 331.532ZM461.884 345.5H459.172V331.124H455.956V328.7H465.1V331.124H461.884V345.5ZM471.123 345.5H466.755V328.7H469.491V335.18H471.123C474.067 335.18 475.539 336.66 475.539 339.62V341.06C475.539 344.02 474.067 345.5 471.123 345.5ZM469.491 337.604V343.076H471.123C471.699 343.076 472.123 342.932 472.395 342.644C472.667 342.34 472.803 341.86 472.803 341.204V339.476C472.803 338.82 472.667 338.348 472.395 338.06C472.123 337.756 471.699 337.604 471.123 337.604H469.491ZM226.384 381.5H223.672V367.124H220.456V364.7H229.6V367.124H226.384V381.5ZM235.959 381.5H231.255V364.7H235.719C237.223 364.7 238.327 365.028 239.031 365.684C239.751 366.34 240.111 367.348 240.111 368.708V369.212C240.111 370.924 239.447 372.036 238.119 372.548V372.62C239.639 373.084 240.399 374.324 240.399 376.34V377.204C240.399 380.068 238.919 381.5 235.959 381.5ZM233.991 367.124V371.588H235.359C236.047 371.588 236.551 371.436 236.871 371.132C237.207 370.812 237.375 370.316 237.375 369.644V369.02C237.375 368.348 237.239 367.868 236.967 367.58C236.695 367.276 236.247 367.124 235.623 367.124H233.991ZM233.991 374.012V379.076H235.959C236.551 379.076 236.983 378.932 237.255 378.644C237.527 378.34 237.663 377.852 237.663 377.18V376.244C237.663 375.412 237.503 374.836 237.183 374.516C236.863 374.18 236.303 374.012 235.503 374.012H233.991ZM242.101 377.228V368.972C242.101 367.532 242.485 366.42 243.253 365.636C244.037 364.852 245.149 364.46 246.589 364.46C248.045 364.46 249.157 364.852 249.925 365.636C250.709 366.42 251.101 367.532 251.101 368.972V377.228C251.101 378.668 250.709 379.78 249.925 380.564C249.141 381.348 248.029 381.74 246.589 381.74C245.149 381.74 244.037 381.348 243.253 380.564C242.485 379.78 242.101 378.668 242.101 377.228ZM246.589 379.316C247.773 379.316 248.365 378.668 248.365 377.372V368.828C248.365 367.532 247.773 366.884 246.589 366.884C245.421 366.884 244.837 367.532 244.837 368.828V377.372C244.837 378.668 245.421 379.316 246.589 379.316ZM255.711 375.932L259.767 364.7H262.551V381.5H260.079V370.22L256.047 381.5H253.263V364.7H255.711V375.932ZM268.843 377.228V368.972C268.843 367.532 269.227 366.42 269.995 365.636C270.779 364.852 271.891 364.46 273.331 364.46C274.787 364.46 275.899 364.852 276.667 365.636C277.451 366.42 277.843 367.532 277.843 368.972V377.228C277.843 378.668 277.451 379.78 276.667 380.564C275.883 381.348 274.771 381.74 273.331 381.74C271.891 381.74 270.779 381.348 269.995 380.564C269.227 379.78 268.843 378.668 268.843 377.228ZM273.331 379.316C274.515 379.316 275.107 378.668 275.107 377.372V368.828C275.107 367.532 274.515 366.884 273.331 366.884C272.163 366.884 271.579 367.532 271.579 368.828V377.372C271.579 378.668 272.163 379.316 273.331 379.316ZM285.095 381.5H282.383V367.124H279.167V364.7H288.311V367.124H285.095V381.5ZM299.686 381.5H296.806L294.142 373.82L292.702 376.196V381.5H289.966V364.7H292.702V372.092L296.854 364.7H299.638L295.99 370.94L299.686 381.5ZM304.022 381.5H301.286V364.7H305.63C308.574 364.7 310.046 366.156 310.046 369.068V370.316C310.046 373.228 308.574 374.684 305.63 374.684H304.022V381.5ZM304.022 367.124V372.284H305.63C306.222 372.284 306.646 372.14 306.902 371.852C307.174 371.548 307.31 371.06 307.31 370.388V368.972C307.31 368.3 307.174 367.828 306.902 367.556C306.646 367.268 306.222 367.124 305.63 367.124H304.022ZM316.224 381.5H311.856V364.7H314.592V371.18H316.224C319.168 371.18 320.64 372.66 320.64 375.62V377.06C320.64 380.02 319.168 381.5 316.224 381.5ZM325.2 381.5H322.464V364.7H325.2V381.5ZM314.592 373.604V379.076H316.224C316.8 379.076 317.224 378.932 317.496 378.644C317.768 378.34 317.904 377.86 317.904 377.204V375.476C317.904 374.82 317.768 374.348 317.496 374.06C317.224 373.756 316.8 373.604 316.224 373.604H314.592ZM332.79 381.5H330.078V367.124H326.862V364.7H336.006V367.124H332.79V381.5ZM340.109 375.932L344.165 364.7H346.949V381.5H344.477V370.22L340.445 381.5H337.661V364.7H340.109V375.932ZM357.996 364.7V381.5H355.26V374.396H354.012C353.244 374.396 352.7 374.564 352.38 374.9C352.076 375.236 351.924 375.82 351.924 376.652V379.292C351.924 380.236 351.836 380.972 351.66 381.5H348.9C349.108 380.988 349.212 380.26 349.212 379.316V376.82C349.212 375.716 349.372 374.868 349.692 374.276C350.012 373.668 350.532 373.26 351.252 373.052V372.98C349.908 372.484 349.236 371.34 349.236 369.548V368.732C349.236 367.356 349.588 366.34 350.292 365.684C351.012 365.028 352.124 364.7 353.628 364.7H357.996ZM353.964 371.972H355.26V367.124H353.676C353.084 367.124 352.652 367.276 352.38 367.58C352.108 367.884 351.972 368.364 351.972 369.02V369.98C351.972 370.684 352.132 371.196 352.452 371.516C352.772 371.82 353.276 371.972 353.964 371.972Z" fill="white"/>
<path opacity="0.4" d="M436 37.0001C476.457 28.0552 596.5 19.5 560.5 58C524.5 96.5 514 77 514 127.5" stroke="#FFF8D9" stroke-width="2" stroke-linecap="round" stroke-dasharray="6 6"/>
<path opacity="0.4" d="M467.499 163.5C410.499 143 396.999 256.5 275.999 202.5C154.999 148.5 134.499 259 142.499 301" stroke="#FFF8D9" stroke-width="2" stroke-linecap="round" stroke-dasharray="6 6"/>
<path opacity="0.4" d="M148.001 427C156.001 499 -96.4989 397 45.0008 580.5" stroke="#FFF8D9" stroke-width="2" stroke-linecap="round" stroke-dasharray="6 6"/>
<defs>
<filter id="filter0_ddddd_201_30445" x="32" y="0" width="134" height="132" filterUnits="userSpaceOnUse" color-interpolation-filters="sRGB">
<feFlood flood-opacity="0" result="BackgroundImageFix"/>
<feColorMatrix in="SourceAlpha" type="matrix" values="0 0 0 0 0 0 0 0 0 0 0 0 0 0 0 0 0 0 127 0" result="hardAlpha"/>
<feOffset/>
<feColorMatrix type="matrix" values="0 0 0 0 0.0745098 0 0 0 0 0.12549 0 0 0 0 0.0823529 0 0 0 0.2 0"/>
<feBlend mode="normal" in2="BackgroundImageFix" result="effect1_dropShadow_201_30445"/>
<feColorMatrix in="SourceAlpha" type="matrix" values="0 0 0 0 0 0 0 0 0 0 0 0 0 0 0 0 0 0 127 0" result="hardAlpha"/>
<feOffset dx="2" dy="2"/>
<feGaussianBlur stdDeviation="3"/>
<feColorMatrix type="matrix" values="0 0 0 0 0.0745098 0 0 0 0 0.12549 0 0 0 0 0.0823529 0 0 0 0.2 0"/>
<feBlend mode="normal" in2="effect1_dropShadow_201_30445" result="effect2_dropShadow_201_30445"/>
<feColorMatrix in="SourceAlpha" type="matrix" values="0 0 0 0 0 0 0 0 0 0 0 0 0 0 0 0 0 0 127 0" result="hardAlpha"/>
<feOffset dx="8" dy="7"/>
<feGaussianBlur stdDeviation="5"/>
<feColorMatrix type="matrix" values="0 0 0 0 0.0745098 0 0 0 0 0.12549 0 0 0 0 0.0823529 0 0 0 0.17 0"/>
<feBlend mode="normal" in2="effect2_dropShadow_201_30445" result="effect3_dropShadow_201_30445"/>
<feColorMatrix in="SourceAlpha" type="matrix" values="0 0 0 0 0 0 0 0 0 0 0 0 0 0 0 0 0 0 127 0" result="hardAlpha"/>
<feOffset dx="18" dy="15"/>
<feGaussianBlur stdDeviation="7"/>
<feColorMatrix type="matrix" values="0 0 0 0 0.0745098 0 0 0 0 0.12549 0 0 0 0 0.0823529 0 0 0 0.1 0"/>
<feBlend mode="normal" in2="effect3_dropShadow_201_30445" result="effect4_dropShadow_201_30445"/>
<feColorMatrix in="SourceAlpha" type="matrix" values="0 0 0 0 0 0 0 0 0 0 0 0 0 0 0 0 0 0 127 0" result="hardAlpha"/>
<feOffset dx="33" dy="26"/>
<feGaussianBlur stdDeviation="8.5"/>
<feColorMatrix type="matrix" values="0 0 0 0 0.0745098 0 0 0 0 0.12549 0 0 0 0 0.0823529 0 0 0 0.03 0"/>
<feBlend mode="normal" in2="effect4_dropShadow_201_30445" result="effect5_dropShadow_201_30445"/>
<feBlend mode="normal" in="SourceGraphic" in2="effect5_dropShadow_201_30445" result="shape"/>
</filter>
<filter id="filter1_ddddd_201_30445" x="476" y="136" width="134" height="132" filterUnits="userSpaceOnUse" color-interpolation-filters="sRGB">
<feFlood flood-opacity="0" result="BackgroundImageFix"/>
<feColorMatrix in="SourceAlpha" type="matrix" values="0 0 0 0 0 0 0 0 0 0 0 0 0 0 0 0 0 0 127 0" result="hardAlpha"/>
<feOffset/>
<feColorMatrix type="matrix" values="0 0 0 0 0.0745098 0 0 0 0 0.12549 0 0 0 0 0.0823529 0 0 0 0.2 0"/>
<feBlend mode="normal" in2="BackgroundImageFix" result="effect1_dropShadow_201_30445"/>
<feColorMatrix in="SourceAlpha" type="matrix" values="0 0 0 0 0 0 0 0 0 0 0 0 0 0 0 0 0 0 127 0" result="hardAlpha"/>
<feOffset dx="2" dy="2"/>
<feGaussianBlur stdDeviation="3"/>
<feColorMatrix type="matrix" values="0 0 0 0 0.0745098 0 0 0 0 0.12549 0 0 0 0 0.0823529 0 0 0 0.2 0"/>
<feBlend mode="normal" in2="effect1_dropShadow_201_30445" result="effect2_dropShadow_201_30445"/>
<feColorMatrix in="SourceAlpha" type="matrix" values="0 0 0 0 0 0 0 0 0 0 0 0 0 0 0 0 0 0 127 0" result="hardAlpha"/>
<feOffset dx="8" dy="7"/>
<feGaussianBlur stdDeviation="5"/>
<feColorMatrix type="matrix" values="0 0 0 0 0.0745098 0 0 0 0 0.12549 0 0 0 0 0.0823529 0 0 0 0.17 0"/>
<feBlend mode="normal" in2="effect2_dropShadow_201_30445" result="effect3_dropShadow_201_30445"/>
<feColorMatrix in="SourceAlpha" type="matrix" values="0 0 0 0 0 0 0 0 0 0 0 0 0 0 0 0 0 0 127 0" result="hardAlpha"/>
<feOffset dx="18" dy="15"/>
<feGaussianBlur stdDeviation="7"/>
<feColorMatrix type="matrix" values="0 0 0 0 0.0745098 0 0 0 0 0.12549 0 0 0 0 0.0823529 0 0 0 0.1 0"/>
<feBlend mode="normal" in2="effect3_dropShadow_201_30445" result="effect4_dropShadow_201_30445"/>
<feColorMatrix in="SourceAlpha" type="matrix" values="0 0 0 0 0 0 0 0 0 0 0 0 0 0 0 0 0 0 127 0" result="hardAlpha"/>
<feOffset dx="33" dy="26"/>
<feGaussianBlur stdDeviation="8.5"/>
<feColorMatrix type="matrix" values="0 0 0 0 0.0745098 0 0 0 0 0.12549 0 0 0 0 0.0823529 0 0 0 0.03 0"/>
<feBlend mode="normal" in2="effect4_dropShadow_201_30445" result="effect5_dropShadow_201_30445"/>
<feBlend mode="normal" in="SourceGraphic" in2="effect5_dropShadow_201_30445" result="shape"/>
</filter>
<filter id="filter2_ddddd_201_30445" x="112" y="309" width="134" height="132" filterUnits="userSpaceOnUse" color-interpolation-filters="sRGB">
<feFlood flood-opacity="0" result="BackgroundImageFix"/>
<feColorMatrix in="SourceAlpha" type="matrix" values="0 0 0 0 0 0 0 0 0 0 0 0 0 0 0 0 0 0 127 0" result="hardAlpha"/>
<feOffset/>
<feColorMatrix type="matrix" values="0 0 0 0 0.0745098 0 0 0 0 0.12549 0 0 0 0 0.0823529 0 0 0 0.2 0"/>
<feBlend mode="normal" in2="BackgroundImageFix" result="effect1_dropShadow_201_30445"/>
<feColorMatrix in="SourceAlpha" type="matrix" values="0 0 0 0 0 0 0 0 0 0 0 0 0 0 0 0 0 0 127 0" result="hardAlpha"/>
<feOffset dx="2" dy="2"/>
<feGaussianBlur stdDeviation="3"/>
<feColorMatrix type="matrix" values="0 0 0 0 0.0745098 0 0 0 0 0.12549 0 0 0 0 0.0823529 0 0 0 0.2 0"/>
<feBlend mode="normal" in2="effect1_dropShadow_201_30445" result="effect2_dropShadow_201_30445"/>
<feColorMatrix in="SourceAlpha" type="matrix" values="0 0 0 0 0 0 0 0 0 0 0 0 0 0 0 0 0 0 127 0" result="hardAlpha"/>
<feOffset dx="8" dy="7"/>
<feGaussianBlur stdDeviation="5"/>
<feColorMatrix type="matrix" values="0 0 0 0 0.0745098 0 0 0 0 0.12549 0 0 0 0 0.0823529 0 0 0 0.17 0"/>
<feBlend mode="normal" in2="effect2_dropShadow_201_30445" result="effect3_dropShadow_201_30445"/>
<feColorMatrix in="SourceAlpha" type="matrix" values="0 0 0 0 0 0 0 0 0 0 0 0 0 0 0 0 0 0 127 0" result="hardAlpha"/>
<feOffset dx="18" dy="15"/>
<feGaussianBlur stdDeviation="7"/>
<feColorMatrix type="matrix" values="0 0 0 0 0.0745098 0 0 0 0 0.12549 0 0 0 0 0.0823529 0 0 0 0.1 0"/>
<feBlend mode="normal" in2="effect3_dropShadow_201_30445" result="effect4_dropShadow_201_30445"/>
<feColorMatrix in="SourceAlpha" type="matrix" values="0 0 0 0 0 0 0 0 0 0 0 0 0 0 0 0 0 0 127 0" result="hardAlpha"/>
<feOffset dx="33" dy="26"/>
<feGaussianBlur stdDeviation="8.5"/>
<feColorMatrix type="matrix" values="0 0 0 0 0.0745098 0 0 0 0 0.12549 0 0 0 0 0.0823529 0 0 0 0.03 0"/>
<feBlend mode="normal" in2="effect4_dropShadow_201_30445" result="effect5_dropShadow_201_30445"/>
<feBlend mode="normal" in="SourceGraphic" in2="effect5_dropShadow_201_30445" result="shape"/>
</filter>
</defs>
</svg>
