<svg width="319" height="293" viewBox="0 0 319 293" fill="none" xmlns="http://www.w3.org/2000/svg">
<path opacity="0.4" d="M34 41C34 135 34 212.833 34 240" stroke="#FFF8D9" stroke-width="2" stroke-linecap="round" stroke-dasharray="6 6"/>
<g filter="url(#filter0_ddddd_653_390847)">
<ellipse cx="34" cy="60.5" rx="22" ry="5.5" fill="#DDBA63"/>
<path d="M33.998 7.74927C28.5299 7.75576 23.2877 9.93082 19.4211 13.7974C15.5546 17.6639 13.3795 22.9062 13.373 28.3743C13.373 46.022 32.123 59.3521 32.9214 59.9105C33.2371 60.131 33.6129 60.2493 33.998 60.2493C34.3832 60.2493 34.759 60.131 35.0747 59.9105C35.873 59.3521 54.623 46.022 54.623 28.3743C54.6166 22.9062 52.4415 17.6639 48.575 13.7974C44.7084 9.93082 39.4661 7.75575 33.998 7.74927V7.74927ZM33.9994 20.8749C35.4828 20.8749 36.9328 21.3148 38.1662 22.1389C39.3996 22.963 40.3609 24.1344 40.9285 25.5048C41.4962 26.8753 41.6447 28.3833 41.3553 29.8381C41.0659 31.293 40.3516 32.6294 39.3027 33.6782C38.2538 34.7271 36.9175 35.4414 35.4626 35.7308C34.0077 36.0202 32.4997 35.8717 31.1293 35.304C29.7588 34.7364 28.5875 33.7751 27.7634 32.5417C26.9393 31.3084 26.4994 29.8583 26.4994 28.3749C26.4994 27.39 26.6934 26.4147 27.0703 25.5048C27.4472 24.5948 27.9996 23.768 28.6961 23.0716C29.3925 22.3751 30.2193 21.8227 31.1293 21.4458C32.0392 21.0689 33.0145 20.8749 33.9994 20.8749V20.8749Z" fill="#FFF9DA"/>
<ellipse cx="34" cy="28.5" rx="13" ry="12.5" fill="#C74403"/>
<path d="M35.9498 36H33.7498V25.32H31.4498V23.76C32.3698 23.76 33.0365 23.64 33.4498 23.4C33.8765 23.1333 34.2165 22.6667 34.4698 22H35.9498V36Z" fill="white"/>
</g>
<path d="M79.28 27H77V13H80.62C83.0733 13 84.3 14.2133 84.3 16.64V17.68C84.3 20.1067 83.0733 21.32 80.62 21.32H79.28V27ZM79.28 15.02V19.32H80.62C81.1133 19.32 81.4667 19.2 81.68 18.96C81.9067 18.7067 82.02 18.3 82.02 17.74V16.56C82.02 16 81.9067 15.6067 81.68 15.38C81.4667 15.14 81.1133 15.02 80.62 15.02H79.28ZM92.8278 27H90.5078L90.0478 24.28H86.9678L86.4878 27H84.3678L87.0478 13H90.1278L92.8278 27ZM88.5078 15.36L87.3078 22.3H89.7078L88.5078 15.36ZM100.21 26.24C99.5836 26.88 98.6903 27.2 97.5303 27.2C96.3703 27.2 95.4703 26.88 94.8303 26.24C94.2036 25.5867 93.8903 24.6733 93.8903 23.5V16.5C93.8903 15.3267 94.2036 14.42 94.8303 13.78C95.4703 13.1267 96.3703 12.8 97.5303 12.8C98.6903 12.8 99.5836 13.1267 100.21 13.78C100.837 14.42 101.15 15.3267 101.15 16.5V17.74H99.0103V16.4C99.0103 15.32 98.537 14.78 97.5903 14.78C96.6436 14.78 96.1703 15.32 96.1703 16.4V23.6C96.1703 24.68 96.6436 25.22 97.5903 25.22C98.537 25.22 99.0103 24.68 99.0103 23.6V21.84H101.15V23.5C101.15 24.6733 100.837 25.5867 100.21 26.24ZM108.921 26.24C108.295 26.88 107.401 27.2 106.241 27.2C105.081 27.2 104.181 26.88 103.541 26.24C102.915 25.5867 102.601 24.6733 102.601 23.5V16.5C102.601 15.3267 102.915 14.42 103.541 13.78C104.181 13.1267 105.081 12.8 106.241 12.8C107.401 12.8 108.295 13.1267 108.921 13.78C109.548 14.42 109.861 15.3267 109.861 16.5V17.74H107.721V16.4C107.721 15.32 107.248 14.78 106.301 14.78C105.355 14.78 104.881 15.32 104.881 16.4V23.6C104.881 24.68 105.355 25.22 106.301 25.22C107.248 25.22 107.721 24.68 107.721 23.6V21.84H109.861V23.5C109.861 24.6733 109.548 25.5867 108.921 26.24ZM119.573 27H117.173L114.953 20.6L113.753 22.58V27H111.473V13H113.753V19.16L117.213 13H119.533L116.493 18.2L119.573 27ZM128.726 27H126.406L125.946 24.28H122.866L122.386 27H120.266L122.946 13H126.026L128.726 27ZM124.406 15.36L123.206 22.3H125.606L124.406 15.36ZM142.786 27H140.506L138.346 20.2L137.246 22.1V27H134.966V22.1L133.866 20.2L131.706 27H129.406L132.366 18.2L129.446 13H131.806L134.966 19.06V13H137.246V19.06L140.426 13H142.746L139.846 18.22L142.786 27ZM146.169 22.36L149.549 13H151.869V27H149.809V17.6L146.449 27H144.129V13H146.169V22.36ZM154.895 29.32H153.855L154.755 27H153.955V24.6H156.235V26.76L154.895 29.32ZM166.727 18.08V13H169.007V27H166.727V21.16C166.14 21.76 165.347 22.06 164.347 22.06C162.373 22.06 161.387 20.9333 161.387 18.68V13H163.647V18.38C163.647 19.46 164.113 20 165.047 20C165.58 20 165.993 19.84 166.287 19.52C166.58 19.1867 166.727 18.7067 166.727 18.08ZM175.324 27H173.064V15.02H170.384V13H178.004V15.02H175.324V27ZM179.125 23.44V16.56C179.125 15.36 179.445 14.4333 180.085 13.78C180.738 13.1267 181.665 12.8 182.865 12.8C184.078 12.8 185.005 13.1267 185.645 13.78C186.298 14.4333 186.625 15.36 186.625 16.56V23.44C186.625 24.64 186.298 25.5667 185.645 26.22C184.991 26.8733 184.065 27.2 182.865 27.2C181.665 27.2 180.738 26.8733 180.085 26.22C179.445 25.5667 179.125 24.64 179.125 23.44ZM182.865 25.18C183.851 25.18 184.345 24.64 184.345 23.56V16.44C184.345 15.36 183.851 14.82 182.865 14.82C181.891 14.82 181.405 15.36 181.405 16.44V23.56C181.405 24.64 181.891 25.18 182.865 25.18ZM195.644 27H191.844V13H198.384V15.02H194.124V18.5H195.644C198.097 18.5 199.324 19.7333 199.324 22.2V23.3C199.324 25.7667 198.097 27 195.644 27ZM194.124 20.52V24.98H195.644C196.124 24.98 196.477 24.86 196.704 24.62C196.93 24.3667 197.044 23.9667 197.044 23.42V22.08C197.044 21.5333 196.93 21.14 196.704 20.9C196.477 20.6467 196.124 20.52 195.644 20.52H194.124ZM204.468 27H200.828V13H203.108V18.4H204.468C206.921 18.4 208.148 19.6333 208.148 22.1V23.3C208.148 25.7667 206.921 27 204.468 27ZM211.948 27H209.668V13H211.948V27ZM203.108 20.42V24.98H204.468C204.948 24.98 205.301 24.86 205.528 24.62C205.755 24.3667 205.868 23.9667 205.868 23.42V21.98C205.868 21.4333 205.755 21.04 205.528 20.8C205.301 20.5467 204.948 20.42 204.468 20.42H203.108ZM221.691 27H219.431V15.02H216.751V13H224.371V15.02H221.691V27ZM229.39 27H225.75V13H228.03V18.4H229.39C231.843 18.4 233.07 19.6333 233.07 22.1V23.3C233.07 25.7667 231.843 27 229.39 27ZM236.87 27H234.59V13H236.87V27ZM228.03 20.42V24.98H229.39C229.87 24.98 230.223 24.86 230.45 24.62C230.677 24.3667 230.79 23.9667 230.79 23.42V21.98C230.79 21.4333 230.677 21.04 230.45 20.8C230.223 20.5467 229.87 20.42 229.39 20.42H228.03ZM243.793 27H241.633L244.593 19.82L241.753 13H244.193L245.993 17.7L247.853 13H250.053L247.213 19.82L250.173 27H247.753L245.793 21.94L243.793 27ZM250.961 23.44V16.56C250.961 15.36 251.281 14.4333 251.921 13.78C252.574 13.1267 253.501 12.8 254.701 12.8C255.914 12.8 256.841 13.1267 257.481 13.78C258.134 14.4333 258.461 15.36 258.461 16.56V23.44C258.461 24.64 258.134 25.5667 257.481 26.22C256.827 26.8733 255.901 27.2 254.701 27.2C253.501 27.2 252.574 26.8733 251.921 26.22C251.281 25.5667 250.961 24.64 250.961 23.44ZM254.701 25.18C255.687 25.18 256.181 24.64 256.181 23.56V16.44C256.181 15.36 255.687 14.82 254.701 14.82C253.727 14.82 253.241 15.36 253.241 16.44V23.56C253.241 24.64 253.727 25.18 254.701 25.18ZM264.504 27H262.244V15.02H259.564V13H267.184V15.02H264.504V27ZM275.283 27H268.563V13H275.283V15.02H270.843V18.78H274.403V20.8H270.843V24.98H275.283V27ZM276.825 27.02C276.545 27.02 276.325 26.9933 276.165 26.94V24.96C276.325 25 276.478 25.02 276.625 25.02C277.118 25.02 277.458 24.9 277.645 24.66C277.845 24.4067 277.958 23.9733 277.985 23.36L278.405 13H285.245V27H282.985V15.02H280.545L280.245 23.42C280.205 24.6733 279.918 25.5867 279.385 26.16C278.852 26.7333 277.998 27.02 276.825 27.02ZM76.82 53.44V46.56C76.82 45.36 77.14 44.4333 77.78 43.78C78.4333 43.1267 79.36 42.8 80.56 42.8C81.7733 42.8 82.7 43.1267 83.34 43.78C83.9933 44.4333 84.32 45.36 84.32 46.56V53.44C84.32 54.64 83.9933 55.5667 83.34 56.22C82.6867 56.8733 81.76 57.2 80.56 57.2C79.36 57.2 78.4333 56.8733 77.78 56.22C77.14 55.5667 76.82 54.64 76.82 53.44ZM80.56 55.18C81.5467 55.18 82.04 54.64 82.04 53.56V46.44C82.04 45.36 81.5467 44.82 80.56 44.82C79.5867 44.82 79.1 45.36 79.1 46.44V53.56C79.1 54.64 79.5867 55.18 80.56 55.18ZM90.363 57H88.103V45.02H85.423V43H93.043V45.02H90.363V57ZM102.522 57H100.122L97.9019 50.6L96.7019 52.58V57H94.4219V43H96.7019V49.16L100.162 43H102.482L99.4419 48.2L102.522 57ZM106.135 57H103.855V43H107.475C109.929 43 111.155 44.2133 111.155 46.64V47.68C111.155 50.1067 109.929 51.32 107.475 51.32H106.135V57ZM106.135 45.02V49.32H107.475C107.969 49.32 108.322 49.2 108.535 48.96C108.762 48.7067 108.875 48.3 108.875 47.74V46.56C108.875 46 108.762 45.6067 108.535 45.38C108.322 45.14 107.969 45.02 107.475 45.02H106.135ZM116.304 57H112.664V43H114.944V48.4H116.304C118.757 48.4 119.984 49.6333 119.984 52.1V53.3C119.984 55.7667 118.757 57 116.304 57ZM123.784 57H121.504V43H123.784V57ZM114.944 50.42V54.98H116.304C116.784 54.98 117.137 54.86 117.364 54.62C117.591 54.3667 117.704 53.9667 117.704 53.42V51.98C117.704 51.4333 117.591 51.04 117.364 50.8C117.137 50.5467 116.784 50.42 116.304 50.42H114.944ZM130.109 57H127.849V45.02H125.169V43H132.789V45.02H130.109V57ZM137.808 57H134.168V43H136.448V48.4H137.808C140.261 48.4 141.488 49.6333 141.488 52.1V53.3C141.488 55.7667 140.261 57 137.808 57ZM136.448 50.42V54.98H137.808C138.288 54.98 138.641 54.86 138.868 54.62C139.095 54.3667 139.208 53.9667 139.208 53.42V51.98C139.208 51.4333 139.095 51.04 138.868 50.8C138.641 50.5467 138.288 50.42 137.808 50.42H136.448ZM154.894 43V54.98H156.094V58.88H153.814V57H148.074V58.88H145.814V54.98H147.114C147.407 54.6867 147.574 54.14 147.614 53.34L148.034 43H154.894ZM149.274 54.98H152.614V45.02H150.174L149.894 53.22C149.867 53.94 149.66 54.5267 149.274 54.98ZM157.489 57.02C157.209 57.02 156.989 56.9933 156.829 56.94V54.96C156.989 55 157.143 55.02 157.289 55.02C157.783 55.02 158.123 54.9 158.309 54.66C158.509 54.4067 158.623 53.9733 158.649 53.36L159.069 43H165.909V57H163.649V45.02H161.209L160.909 53.42C160.869 54.6733 160.583 55.5867 160.049 56.16C159.516 56.7333 158.663 57.02 157.489 57.02ZM175.118 43V57H172.838V51.08H171.798C171.158 51.08 170.705 51.22 170.438 51.5C170.185 51.78 170.058 52.2667 170.058 52.96V55.16C170.058 55.9467 169.985 56.56 169.838 57H167.538C167.711 56.5733 167.798 55.9667 167.798 55.18V53.1C167.798 52.18 167.931 51.4733 168.198 50.98C168.465 50.4733 168.898 50.1333 169.498 49.96V49.9C168.378 49.4867 167.818 48.5333 167.818 47.04V46.36C167.818 45.2133 168.111 44.3667 168.698 43.82C169.298 43.2733 170.225 43 171.478 43H175.118ZM171.758 49.06H172.838V45.02H171.518C171.025 45.02 170.665 45.1467 170.438 45.4C170.211 45.6533 170.098 46.0533 170.098 46.6V47.4C170.098 47.9867 170.231 48.4133 170.498 48.68C170.765 48.9333 171.185 49.06 171.758 49.06ZM186.675 56.24C186.048 56.88 185.155 57.2 183.995 57.2C182.835 57.2 181.935 56.88 181.295 56.24C180.668 55.5867 180.355 54.6733 180.355 53.5V46.5C180.355 45.3267 180.668 44.42 181.295 43.78C181.935 43.1267 182.835 42.8 183.995 42.8C185.155 42.8 186.048 43.1267 186.675 43.78C187.302 44.42 187.615 45.3267 187.615 46.5V47.74H185.475V46.4C185.475 45.32 185.002 44.78 184.055 44.78C183.108 44.78 182.635 45.32 182.635 46.4V53.6C182.635 54.68 183.108 55.22 184.055 55.22C185.002 55.22 185.475 54.68 185.475 53.6V51.84H187.615V53.5C187.615 54.6733 187.302 55.5867 186.675 56.24ZM195.947 57H189.227V43H195.947V45.02H191.507V48.78H195.067V50.8H191.507V54.98H195.947V57ZM201.249 57H197.449V43H203.989V45.02H199.729V48.5H201.249C203.703 48.5 204.929 49.7333 204.929 52.2V53.3C204.929 55.7667 203.703 57 201.249 57ZM199.729 50.52V54.98H201.249C201.729 54.98 202.083 54.86 202.309 54.62C202.536 54.3667 202.649 53.9667 202.649 53.42V52.08C202.649 51.5333 202.536 51.14 202.309 50.9C202.083 50.6467 201.729 50.52 201.249 50.52H199.729ZM213.634 43V57H211.354V51.08H210.314C209.674 51.08 209.22 51.22 208.954 51.5C208.7 51.78 208.574 52.2667 208.574 52.96V55.16C208.574 55.9467 208.5 56.56 208.354 57H206.054C206.227 56.5733 206.314 55.9667 206.314 55.18V53.1C206.314 52.18 206.447 51.4733 206.714 50.98C206.98 50.4733 207.414 50.1333 208.014 49.96V49.9C206.894 49.4867 206.334 48.5333 206.334 47.04V46.36C206.334 45.2133 206.627 44.3667 207.214 43.82C207.814 43.2733 208.74 43 209.994 43H213.634ZM210.274 49.06H211.354V45.02H210.034C209.54 45.02 209.18 45.1467 208.954 45.4C208.727 45.6533 208.614 46.0533 208.614 46.6V47.4C208.614 47.9867 208.747 48.4133 209.014 48.68C209.28 48.9333 209.7 49.06 210.274 49.06ZM218.611 53.5V52.56H220.751V53.6C220.751 54.68 221.244 55.22 222.231 55.22C223.204 55.22 223.691 54.68 223.691 53.6V50.76H221.051V48.7H223.691V46.4C223.691 45.32 223.204 44.78 222.231 44.78C221.244 44.78 220.751 45.32 220.751 46.4V47.02H218.611V46.5C218.611 45.3267 218.924 44.42 219.551 43.78C220.191 43.1267 221.104 42.8 222.291 42.8C223.477 42.8 224.384 43.1267 225.011 43.78C225.651 44.42 225.971 45.3267 225.971 46.5V53.5C225.971 54.6733 225.651 55.5867 225.011 56.24C224.384 56.88 223.477 57.2 222.291 57.2C221.104 57.2 220.191 56.88 219.551 56.24C218.924 55.5867 218.611 54.6733 218.611 53.5ZM232.023 57H229.763V45.02H227.083V43H234.703V45.02H232.023V57ZM238.122 52.36L241.502 43H243.822V57H241.762V47.6L238.402 57H236.082V43H238.122V52.36ZM247.828 57H245.828V43H249.048L250.928 53.28L252.788 43H256.008V57H253.848V46.16L251.788 57H249.888L247.828 46.16V57ZM261.474 57.02C261.194 57.02 260.974 56.9933 260.814 56.94V54.96C260.974 55 261.127 55.02 261.274 55.02C261.767 55.02 262.107 54.9 262.294 54.66C262.494 54.4067 262.607 53.9733 262.634 53.36L263.054 43H269.894V57H267.634V45.02H265.194L264.894 53.42C264.854 54.6733 264.567 55.5867 264.034 56.16C263.5 56.7333 262.647 57.02 261.474 57.02ZM278.622 57H271.902V43H278.622V45.02H274.182V48.78H277.742V50.8H274.182V54.98H278.622V57ZM284.445 57H282.185V45.02H279.505V43H287.125V45.02H284.445V57ZM288.246 53.44V46.56C288.246 45.36 288.566 44.4333 289.206 43.78C289.859 43.1267 290.786 42.8 291.986 42.8C293.199 42.8 294.126 43.1267 294.766 43.78C295.419 44.4333 295.746 45.36 295.746 46.56V53.44C295.746 54.64 295.419 55.5667 294.766 56.22C294.112 56.8733 293.186 57.2 291.986 57.2C290.786 57.2 289.859 56.8733 289.206 56.22C288.566 55.5667 288.246 54.64 288.246 53.44ZM291.986 55.18C292.972 55.18 293.466 54.64 293.466 53.56V46.44C293.466 45.36 292.972 44.82 291.986 44.82C291.012 44.82 290.526 45.36 290.526 46.44V53.56C290.526 54.64 291.012 55.18 291.986 55.18ZM299.547 57H297.547V43H300.767L302.647 53.28L304.507 43H307.727V57H305.567V46.16L303.507 57H301.607L299.547 46.16V57Z" fill="white"/>
<g filter="url(#filter1_ddddd_653_390847)">
<ellipse cx="34" cy="152.5" rx="22" ry="5.5" fill="#DDBA63"/>
<path d="M33.998 99.7493C28.5299 99.7558 23.2877 101.931 19.4211 105.797C15.5546 109.664 13.3795 114.906 13.373 120.374C13.373 138.022 32.123 151.352 32.9214 151.911C33.2371 152.131 33.6129 152.249 33.998 152.249C34.3832 152.249 34.759 152.131 35.0747 151.911C35.873 151.352 54.623 138.022 54.623 120.374C54.6166 114.906 52.4415 109.664 48.575 105.797C44.7084 101.931 39.4661 99.7558 33.998 99.7493V99.7493ZM33.9994 112.875C35.4828 112.875 36.9328 113.315 38.1662 114.139C39.3996 114.963 40.3609 116.134 40.9285 117.505C41.4962 118.875 41.6447 120.383 41.3553 121.838C41.0659 123.293 40.3516 124.629 39.3027 125.678C38.2538 126.727 36.9175 127.441 35.4626 127.731C34.0077 128.02 32.4997 127.872 31.1293 127.304C29.7588 126.736 28.5875 125.775 27.7634 124.542C26.9393 123.308 26.4994 121.858 26.4994 120.375C26.4994 119.39 26.6934 118.415 27.0703 117.505C27.4472 116.595 27.9996 115.768 28.6961 115.072C29.3925 114.375 30.2193 113.823 31.1293 113.446C32.0392 113.069 33.0145 112.875 33.9994 112.875V112.875Z" fill="#FFF9DA"/>
<ellipse cx="34" cy="120.5" rx="13" ry="12.5" fill="#C74403"/>
<path d="M37.1291 128H30.7691V126.48C30.7691 125.44 30.9291 124.553 31.2491 123.82C31.5691 123.087 32.1424 122.287 32.9691 121.42C33.8224 120.5 34.3891 119.773 34.6691 119.24C34.9757 118.653 35.1291 118.04 35.1291 117.4C35.1291 116.813 35.0357 116.4 34.8491 116.16C34.6624 115.92 34.3757 115.8 33.9891 115.8C33.2291 115.8 32.8491 116.26 32.8491 117.18V118.68H30.7691V117.32C30.7691 116.187 31.0491 115.32 31.6091 114.72C32.1691 114.107 32.9824 113.8 34.0491 113.8C35.1157 113.8 35.9291 114.107 36.4891 114.72C37.0491 115.32 37.3291 116.187 37.3291 117.32C37.3291 118.187 37.1224 119.013 36.7091 119.8C36.2957 120.613 35.5957 121.54 34.6091 122.58C33.9691 123.26 33.5291 123.82 33.2891 124.26C33.0624 124.7 32.9491 125.18 32.9491 125.7V126H37.1291V128Z" fill="white"/>
</g>
<path d="M79.28 119H77V105H84.58V119H82.3V107.02H79.28V119ZM86.3903 115.44V108.56C86.3903 107.36 86.7103 106.433 87.3503 105.78C88.0036 105.127 88.9303 104.8 90.1303 104.8C91.3436 104.8 92.2703 105.127 92.9103 105.78C93.5636 106.433 93.8903 107.36 93.8903 108.56V115.44C93.8903 116.64 93.5636 117.567 92.9103 118.22C92.257 118.873 91.3303 119.2 90.1303 119.2C88.9303 119.2 88.0036 118.873 87.3503 118.22C86.7103 117.567 86.3903 116.64 86.3903 115.44ZM90.1303 117.18C91.117 117.18 91.6103 116.64 91.6103 115.56V108.44C91.6103 107.36 91.117 106.82 90.1303 106.82C89.157 106.82 88.6703 107.36 88.6703 108.44V115.56C88.6703 116.64 89.157 117.18 90.1303 117.18ZM98.9114 119.2C97.7114 119.2 96.7981 118.887 96.1714 118.26C95.5447 117.62 95.2314 116.7 95.2314 115.5V114.56H97.3714V115.54C97.3714 116.633 97.8647 117.18 98.8514 117.18C99.3714 117.18 99.7447 117.047 99.9714 116.78C100.211 116.5 100.331 116.047 100.331 115.42V114.66C100.331 113.967 100.191 113.473 99.9114 113.18C99.6447 112.873 99.1981 112.72 98.5714 112.72H97.7114V110.7H98.6314C99.7247 110.7 100.271 110.133 100.271 109V108.38C100.271 107.34 99.7981 106.82 98.8514 106.82C97.9181 106.82 97.4514 107.32 97.4514 108.32V109.02H95.3114V108.5C95.3114 107.3 95.6181 106.387 96.2314 105.76C96.8447 105.12 97.7447 104.8 98.9314 104.8C100.105 104.8 100.998 105.107 101.611 105.72C102.225 106.333 102.531 107.22 102.531 108.38V108.76C102.531 110.213 101.938 111.153 100.751 111.58V111.6C101.978 112.027 102.591 113.053 102.591 114.68V115.48C102.591 117.96 101.365 119.2 98.9114 119.2ZM104.066 115.44V108.56C104.066 107.36 104.386 106.433 105.026 105.78C105.679 105.127 106.606 104.8 107.806 104.8C109.019 104.8 109.946 105.127 110.586 105.78C111.239 106.433 111.566 107.36 111.566 108.56V115.44C111.566 116.64 111.239 117.567 110.586 118.22C109.933 118.873 109.006 119.2 107.806 119.2C106.606 119.2 105.679 118.873 105.026 118.22C104.386 117.567 104.066 116.64 104.066 115.44ZM107.806 117.18C108.793 117.18 109.286 116.64 109.286 115.56V108.44C109.286 107.36 108.793 106.82 107.806 106.82C106.833 106.82 106.346 107.36 106.346 108.44V115.56C106.346 116.64 106.833 117.18 107.806 117.18ZM117.287 119H113.367V105H117.087C118.341 105 119.261 105.273 119.847 105.82C120.447 106.367 120.747 107.207 120.747 108.34V108.76C120.747 110.187 120.194 111.113 119.087 111.54V111.6C120.354 111.987 120.987 113.02 120.987 114.7V115.42C120.987 117.807 119.754 119 117.287 119ZM115.647 107.02V110.74H116.787C117.361 110.74 117.781 110.613 118.047 110.36C118.327 110.093 118.467 109.68 118.467 109.12V108.6C118.467 108.04 118.354 107.64 118.127 107.4C117.901 107.147 117.527 107.02 117.007 107.02H115.647ZM115.647 112.76V116.98H117.287C117.781 116.98 118.141 116.86 118.367 116.62C118.594 116.367 118.707 115.96 118.707 115.4V114.62C118.707 113.927 118.574 113.447 118.307 113.18C118.041 112.9 117.574 112.76 116.907 112.76H115.647ZM124.626 114.36L128.006 105H130.326V119H128.266V109.6L124.906 119H122.586V105H124.626V114.36ZM144.21 105V116.98H145.41V120.88H143.13V119H137.39V120.88H135.13V116.98H136.43C136.723 116.687 136.89 116.14 136.93 115.34L137.35 105H144.21ZM138.59 116.98H141.93V107.02H139.49L139.21 115.22C139.183 115.94 138.977 116.527 138.59 116.98ZM149.046 119H146.766V105H150.386C152.839 105 154.066 106.213 154.066 108.64V109.68C154.066 112.107 152.839 113.32 150.386 113.32H149.046V119ZM149.046 107.02V111.32H150.386C150.879 111.32 151.232 111.2 151.446 110.96C151.672 110.707 151.786 110.3 151.786 109.74V108.56C151.786 108 151.672 107.607 151.446 107.38C151.232 107.14 150.879 107.02 150.386 107.02H149.046ZM159.06 112.56L160.86 105H163.04L160.02 116.62C159.78 117.54 159.4 118.2 158.88 118.6C158.36 119 157.627 119.2 156.68 119.2C156.134 119.2 155.674 119.127 155.3 118.98V117.02C155.62 117.127 155.967 117.18 156.34 117.18C156.767 117.18 157.087 117.12 157.3 117C157.514 116.867 157.674 116.64 157.78 116.32L157.88 115.96L154.72 105H157.08L159.06 112.56ZM167.329 119.2C166.129 119.2 165.216 118.887 164.589 118.26C163.963 117.62 163.649 116.7 163.649 115.5V114.56H165.789V115.54C165.789 116.633 166.283 117.18 167.269 117.18C167.789 117.18 168.163 117.047 168.389 116.78C168.629 116.5 168.749 116.047 168.749 115.42V114.66C168.749 113.967 168.609 113.473 168.329 113.18C168.063 112.873 167.616 112.72 166.989 112.72H166.129V110.7H167.049C168.143 110.7 168.689 110.133 168.689 109V108.38C168.689 107.34 168.216 106.82 167.269 106.82C166.336 106.82 165.869 107.32 165.869 108.32V109.02H163.729V108.5C163.729 107.3 164.036 106.387 164.649 105.76C165.263 105.12 166.163 104.8 167.349 104.8C168.523 104.8 169.416 105.107 170.029 105.72C170.643 106.333 170.949 107.22 170.949 108.38V108.76C170.949 110.213 170.356 111.153 169.169 111.58V111.6C170.396 112.027 171.009 113.053 171.009 114.68V115.48C171.009 117.96 169.783 119.2 167.329 119.2ZM179.384 119H172.664V105H179.384V107.02H174.944V110.78H178.504V112.8H174.944V116.98H179.384V119ZM184.747 103.86C183.96 103.86 183.34 103.64 182.887 103.2C182.433 102.747 182.193 102.133 182.167 101.36H183.547C183.613 102.027 184.013 102.36 184.747 102.36C185.48 102.36 185.9 102.027 186.007 101.36H187.347C187.32 102.133 187.08 102.747 186.627 103.2C186.173 103.64 185.547 103.86 184.747 103.86ZM182.927 114.36L186.307 105H188.627V119H186.567V109.6L183.207 119H180.887V105H182.927V114.36ZM196.331 119H194.051V105H201.631V119H199.351V107.02H196.331V119ZM203.441 115.44V108.56C203.441 107.36 203.761 106.433 204.401 105.78C205.054 105.127 205.981 104.8 207.181 104.8C208.394 104.8 209.321 105.127 209.961 105.78C210.614 106.433 210.941 107.36 210.941 108.56V115.44C210.941 116.64 210.614 117.567 209.961 118.22C209.308 118.873 208.381 119.2 207.181 119.2C205.981 119.2 205.054 118.873 204.401 118.22C203.761 117.567 203.441 116.64 203.441 115.44ZM207.181 117.18C208.168 117.18 208.661 116.64 208.661 115.56V108.44C208.661 107.36 208.168 106.82 207.181 106.82C206.208 106.82 205.721 107.36 205.721 108.44V115.56C205.721 116.64 206.208 117.18 207.181 117.18ZM221.105 105V116.98H222.305V120.88H220.025V119H214.285V120.88H212.025V116.98H213.325C213.618 116.687 213.785 116.14 213.825 115.34L214.245 105H221.105ZM215.485 116.98H218.825V107.02H216.385L216.105 115.22C216.078 115.94 215.871 116.527 215.485 116.98ZM232.12 105V116.98H233.32V120.88H231.04V119H225.3V120.88H223.04V116.98H224.34C224.633 116.687 224.8 116.14 224.84 115.34L225.26 105H232.12ZM226.5 116.98H229.84V107.02H227.4L227.12 115.22C227.093 115.94 226.887 116.527 226.5 116.98ZM241.396 119H234.676V105H241.396V107.02H236.956V110.78H240.516V112.8H236.956V116.98H241.396V119ZM245.178 119H242.898V105H246.518C248.972 105 250.198 106.213 250.198 108.64V109.68C250.198 112.107 248.972 113.32 246.518 113.32H245.178V119ZM245.178 107.02V111.32H246.518C247.012 111.32 247.365 111.2 247.578 110.96C247.805 110.707 247.918 110.3 247.918 109.74V108.56C247.918 108 247.805 107.607 247.578 107.38C247.365 107.14 247.012 107.02 246.518 107.02H245.178ZM263.861 119H261.581L259.421 112.2L258.321 114.1V119H256.041V114.1L254.941 112.2L252.781 119H250.481L253.441 110.2L250.521 105H252.881L256.041 111.06V105H258.321V111.06L261.501 105H263.821L260.921 110.22L263.861 119ZM273.023 119H270.703L270.243 116.28H267.163L266.683 119H264.563L267.243 105H270.323L273.023 119ZM268.703 107.36L267.503 114.3H269.903L268.703 107.36ZM277.57 119H275.31V107.02H272.63V105H280.25V107.02H277.57V119ZM285.269 119H281.629V105H283.909V110.4H285.269C287.722 110.4 288.949 111.633 288.949 114.1V115.3C288.949 117.767 287.722 119 285.269 119ZM283.909 112.42V116.98H285.269C285.749 116.98 286.102 116.86 286.329 116.62C286.556 116.367 286.669 115.967 286.669 115.42V113.98C286.669 113.433 286.556 113.04 286.329 112.8C286.102 112.547 285.749 112.42 285.269 112.42H283.909ZM81.32 149H79.06V137.02H76.38V135H84V137.02H81.32V149ZM89.2989 149H85.3789V135H89.0989C90.3522 135 91.2722 135.273 91.8589 135.82C92.4589 136.367 92.7589 137.207 92.7589 138.34V138.76C92.7589 140.187 92.2056 141.113 91.0989 141.54V141.6C92.3656 141.987 92.9989 143.02 92.9989 144.7V145.42C92.9989 147.807 91.7656 149 89.2989 149ZM87.6589 137.02V140.74H88.7989C89.3722 140.74 89.7922 140.613 90.0589 140.36C90.3389 140.093 90.4789 139.68 90.4789 139.12V138.6C90.4789 138.04 90.3656 137.64 90.1389 137.4C89.9122 137.147 89.5389 137.02 89.0189 137.02H87.6589ZM87.6589 142.76V146.98H89.2989C89.7922 146.98 90.1522 146.86 90.3789 146.62C90.6056 146.367 90.7189 145.96 90.7189 145.4V144.62C90.7189 143.927 90.5856 143.447 90.3189 143.18C90.0522 142.9 89.5856 142.76 88.9189 142.76H87.6589ZM94.4177 145.44V138.56C94.4177 137.36 94.7377 136.433 95.3777 135.78C96.031 135.127 96.9577 134.8 98.1577 134.8C99.371 134.8 100.298 135.127 100.938 135.78C101.591 136.433 101.918 137.36 101.918 138.56V145.44C101.918 146.64 101.591 147.567 100.938 148.22C100.284 148.873 99.3577 149.2 98.1577 149.2C96.9577 149.2 96.031 148.873 95.3777 148.22C94.7377 147.567 94.4177 146.64 94.4177 145.44ZM98.1577 147.18C99.1443 147.18 99.6377 146.64 99.6377 145.56V138.44C99.6377 137.36 99.1443 136.82 98.1577 136.82C97.1843 136.82 96.6977 137.36 96.6977 138.44V145.56C96.6977 146.64 97.1843 147.18 98.1577 147.18ZM105.759 144.36L109.139 135H111.459V149H109.399V139.6L106.039 149H103.719V135H105.759V144.36ZM119.163 149H116.883V135H124.463V149H122.183V137.02H119.163V149ZM126.493 149.02C126.213 149.02 125.993 148.993 125.833 148.94V146.96C125.993 147 126.146 147.02 126.293 147.02C126.786 147.02 127.126 146.9 127.313 146.66C127.513 146.407 127.626 145.973 127.653 145.36L128.073 135H134.913V149H132.653V137.02H130.213L129.913 145.42C129.873 146.673 129.586 147.587 129.053 148.16C128.52 148.733 127.666 149.02 126.493 149.02ZM144.742 149H142.422L141.962 146.28H138.882L138.402 149H136.282L138.962 135H142.042L144.742 149ZM140.422 137.36L139.222 144.3H141.622L140.422 137.36ZM148.362 149H146.082V135H148.362V140.78H151.382V135H153.662V149H151.382V142.8H148.362V149ZM159.292 149H155.652V135H157.932V140.4H159.292C161.746 140.4 162.972 141.633 162.972 144.1V145.3C162.972 147.767 161.746 149 159.292 149ZM166.772 149H164.492V135H166.772V149ZM157.932 142.42V146.98H159.292C159.772 146.98 160.126 146.86 160.352 146.62C160.579 146.367 160.692 145.967 160.692 145.42V143.98C160.692 143.433 160.579 143.04 160.352 142.8C160.126 142.547 159.772 142.42 159.292 142.42H157.932ZM170.977 145.26H169.277L168.997 140.76V135H171.257V140.76L170.977 145.26ZM171.257 149H168.997V146.76H171.257V149Z" fill="white"/>
<g filter="url(#filter2_ddddd_653_390847)">
<ellipse cx="34" cy="244.5" rx="22" ry="5.5" fill="#DDBA63"/>
<path d="M33.998 191.749C28.5299 191.756 23.2877 193.931 19.4211 197.797C15.5546 201.664 13.3795 206.906 13.373 212.374C13.373 230.022 32.123 243.352 32.9214 243.911C33.2371 244.131 33.6129 244.249 33.998 244.249C34.3832 244.249 34.759 244.131 35.0747 243.911C35.873 243.352 54.623 230.022 54.623 212.374C54.6166 206.906 52.4415 201.664 48.575 197.797C44.7084 193.931 39.4661 191.756 33.998 191.749V191.749ZM33.9994 204.875C35.4828 204.875 36.9328 205.315 38.1662 206.139C39.3996 206.963 40.3609 208.134 40.9285 209.505C41.4962 210.875 41.6447 212.383 41.3553 213.838C41.0659 215.293 40.3516 216.629 39.3027 217.678C38.2538 218.727 36.9175 219.442 35.4626 219.731C34.0077 220.02 32.4997 219.872 31.1293 219.304C29.7588 218.736 28.5875 217.775 27.7634 216.542C26.9393 215.308 26.4994 213.858 26.4994 212.375C26.4994 211.39 26.6934 210.415 27.0703 209.505C27.4472 208.595 27.9996 207.768 28.6961 207.072C29.3925 206.375 30.2193 205.823 31.1293 205.446C32.0392 205.069 33.0145 204.875 33.9994 204.875V204.875Z" fill="#FFF9DA"/>
<ellipse cx="34" cy="212.5" rx="13" ry="12.5" fill="#C74403"/>
<path d="M30.6598 216.72V215.58H32.7398V216.82C32.7398 217.74 33.1198 218.2 33.8798 218.2C34.2664 218.2 34.5531 218.08 34.7398 217.84C34.9264 217.6 35.0198 217.193 35.0198 216.62V215.48C35.0198 214.84 34.9064 214.387 34.6798 214.12C34.4531 213.84 34.0864 213.7 33.5798 213.7H32.8398V211.7H33.6398C34.0931 211.7 34.4264 211.587 34.6398 211.36C34.8531 211.12 34.9598 210.74 34.9598 210.22V209.2C34.9598 208.267 34.5931 207.8 33.8598 207.8C33.1531 207.8 32.7998 208.233 32.7998 209.1V210.02H30.7198V209.28C30.7198 208.16 30.9931 207.3 31.5398 206.7C32.0998 206.1 32.8998 205.8 33.9398 205.8C34.9931 205.8 35.7931 206.1 36.3398 206.7C36.8864 207.287 37.1598 208.14 37.1598 209.26V209.76C37.1598 211.253 36.6398 212.193 35.5998 212.58V212.62C36.6798 213.02 37.2198 213.98 37.2198 215.5V216.74C37.2198 217.86 36.9398 218.72 36.3798 219.32C35.8331 219.907 35.0198 220.2 33.9398 220.2C32.8598 220.2 32.0398 219.9 31.4798 219.3C30.9331 218.7 30.6598 217.84 30.6598 216.72Z" fill="white"/>
</g>
<path d="M80.74 204.56L82.54 197H84.72L81.7 208.62C81.46 209.54 81.08 210.2 80.56 210.6C80.04 211 79.3067 211.2 78.36 211.2C77.8133 211.2 77.3533 211.127 76.98 210.98V209.02C77.3 209.127 77.6467 209.18 78.02 209.18C78.4467 209.18 78.7667 209.12 78.98 209C79.1933 208.867 79.3533 208.64 79.46 208.32L79.56 207.96L76.4 197H78.76L80.74 204.56ZM90.9844 202.08V197H93.2644V211H90.9844V205.16C90.3977 205.76 89.6044 206.06 88.6044 206.06C86.631 206.06 85.6444 204.933 85.6444 202.68V197H87.9044V202.38C87.9044 203.46 88.371 204 89.3044 204C89.8377 204 90.251 203.84 90.5444 203.52C90.8377 203.187 90.9844 202.707 90.9844 202.08ZM103.082 211H100.762L100.302 208.28H97.2217L96.7417 211H94.6217L97.3017 197H100.382L103.082 211ZM98.7617 199.36L97.5617 206.3H99.9617L98.7617 199.36ZM110.464 210.24C109.838 210.88 108.944 211.2 107.784 211.2C106.624 211.2 105.724 210.88 105.084 210.24C104.458 209.587 104.144 208.673 104.144 207.5V200.5C104.144 199.327 104.458 198.42 105.084 197.78C105.724 197.127 106.624 196.8 107.784 196.8C108.944 196.8 109.838 197.127 110.464 197.78C111.091 198.42 111.404 199.327 111.404 200.5V201.74H109.264V200.4C109.264 199.32 108.791 198.78 107.844 198.78C106.898 198.78 106.424 199.32 106.424 200.4V207.6C106.424 208.68 106.898 209.22 107.844 209.22C108.791 209.22 109.264 208.68 109.264 207.6V205.84H111.404V207.5C111.404 208.673 111.091 209.587 110.464 210.24ZM117.336 211H115.076V199.02H112.396V197H120.016V199.02H117.336V211ZM125.315 211H121.395V197H125.115C126.368 197 127.288 197.273 127.875 197.82C128.475 198.367 128.775 199.207 128.775 200.34V200.76C128.775 202.187 128.221 203.113 127.115 203.54V203.6C128.381 203.987 129.015 205.02 129.015 206.7V207.42C129.015 209.807 127.781 211 125.315 211ZM123.675 199.02V202.74H124.815C125.388 202.74 125.808 202.613 126.075 202.36C126.355 202.093 126.495 201.68 126.495 201.12V200.6C126.495 200.04 126.381 199.64 126.155 199.4C125.928 199.147 125.555 199.02 125.035 199.02H123.675ZM123.675 204.76V208.98H125.315C125.808 208.98 126.168 208.86 126.395 208.62C126.621 208.367 126.735 207.96 126.735 207.4V206.62C126.735 205.927 126.601 205.447 126.335 205.18C126.068 204.9 125.601 204.76 124.935 204.76H123.675ZM134.295 204.56L136.095 197H138.275L135.255 208.62C135.015 209.54 134.635 210.2 134.115 210.6C133.595 211 132.861 211.2 131.915 211.2C131.368 211.2 130.908 211.127 130.535 210.98V209.02C130.855 209.127 131.201 209.18 131.575 209.18C132.001 209.18 132.321 209.12 132.535 209C132.748 208.867 132.908 208.64 133.015 208.32L133.115 207.96L129.955 197H132.315L134.295 204.56ZM143.399 195.86C142.612 195.86 141.992 195.64 141.539 195.2C141.086 194.747 140.846 194.133 140.819 193.36H142.199C142.266 194.027 142.666 194.36 143.399 194.36C144.132 194.36 144.552 194.027 144.659 193.36H145.999C145.972 194.133 145.732 194.747 145.279 195.2C144.826 195.64 144.199 195.86 143.399 195.86ZM141.579 206.36L144.959 197H147.279V211H145.219V201.6L141.859 211H139.539V197H141.579V206.36ZM156.623 211H152.703V197H156.423C157.676 197 158.596 197.273 159.183 197.82C159.783 198.367 160.083 199.207 160.083 200.34V200.76C160.083 202.187 159.53 203.113 158.423 203.54V203.6C159.69 203.987 160.323 205.02 160.323 206.7V207.42C160.323 209.807 159.09 211 156.623 211ZM154.983 199.02V202.74H156.123C156.696 202.74 157.116 202.613 157.383 202.36C157.663 202.093 157.803 201.68 157.803 201.12V200.6C157.803 200.04 157.69 199.64 157.463 199.4C157.236 199.147 156.863 199.02 156.343 199.02H154.983ZM154.983 204.76V208.98H156.623C157.116 208.98 157.476 208.86 157.703 208.62C157.93 208.367 158.043 207.96 158.043 207.4V206.62C158.043 205.927 157.91 205.447 157.643 205.18C157.376 204.9 156.91 204.76 156.243 204.76H154.983ZM167.62 211H165.34V197H168.96C171.413 197 172.64 198.213 172.64 200.64V201.68C172.64 204.107 171.413 205.32 168.96 205.32H167.62V211ZM167.62 199.02V203.32H168.96C169.453 203.32 169.807 203.2 170.02 202.96C170.247 202.707 170.36 202.3 170.36 201.74V200.56C170.36 200 170.247 199.607 170.02 199.38C169.807 199.14 169.453 199.02 168.96 199.02H167.62ZM173.968 207.44V200.56C173.968 199.36 174.288 198.433 174.928 197.78C175.582 197.127 176.508 196.8 177.708 196.8C178.922 196.8 179.848 197.127 180.488 197.78C181.142 198.433 181.468 199.36 181.468 200.56V207.44C181.468 208.64 181.142 209.567 180.488 210.22C179.835 210.873 178.908 211.2 177.708 211.2C176.508 211.2 175.582 210.873 174.928 210.22C174.288 209.567 173.968 208.64 173.968 207.44ZM177.708 209.18C178.695 209.18 179.188 208.64 179.188 207.56V200.44C179.188 199.36 178.695 198.82 177.708 198.82C176.735 198.82 176.248 199.36 176.248 200.44V207.56C176.248 208.64 176.735 209.18 177.708 209.18ZM186.49 211.2C185.29 211.2 184.376 210.887 183.75 210.26C183.123 209.62 182.81 208.7 182.81 207.5V206.56H184.95V207.54C184.95 208.633 185.443 209.18 186.43 209.18C186.95 209.18 187.323 209.047 187.55 208.78C187.79 208.5 187.91 208.047 187.91 207.42V206.66C187.91 205.967 187.77 205.473 187.49 205.18C187.223 204.873 186.776 204.72 186.15 204.72H185.29V202.7H186.21C187.303 202.7 187.85 202.133 187.85 201V200.38C187.85 199.34 187.376 198.82 186.43 198.82C185.496 198.82 185.03 199.32 185.03 200.32V201.02H182.89V200.5C182.89 199.3 183.196 198.387 183.81 197.76C184.423 197.12 185.323 196.8 186.51 196.8C187.683 196.8 188.576 197.107 189.19 197.72C189.803 198.333 190.11 199.22 190.11 200.38V200.76C190.11 202.213 189.516 203.153 188.33 203.58V203.6C189.556 204.027 190.17 205.053 190.17 206.68V207.48C190.17 209.96 188.943 211.2 186.49 211.2ZM195.464 211H191.824V197H194.104V202.4H195.464C197.918 202.4 199.144 203.633 199.144 206.1V207.3C199.144 209.767 197.918 211 195.464 211ZM202.944 211H200.664V197H202.944V211ZM194.104 204.42V208.98H195.464C195.944 208.98 196.298 208.86 196.524 208.62C196.751 208.367 196.864 207.967 196.864 207.42V205.98C196.864 205.433 196.751 205.04 196.524 204.8C196.298 204.547 195.944 204.42 195.464 204.42H194.104ZM207.229 211H204.949V197H211.229V199.02H207.229V211ZM214.905 211H212.625V197H216.245C218.698 197 219.925 198.213 219.925 200.64V201.68C219.925 204.107 218.698 205.32 216.245 205.32H214.905V211ZM214.905 199.02V203.32H216.245C216.738 203.32 217.092 203.2 217.305 202.96C217.532 202.707 217.645 202.3 217.645 201.74V200.56C217.645 200 217.532 199.607 217.305 199.38C217.092 199.14 216.738 199.02 216.245 199.02H214.905ZM225.074 211H221.434V197H223.714V202.4H225.074C227.527 202.4 228.754 203.633 228.754 206.1V207.3C228.754 209.767 227.527 211 225.074 211ZM232.554 211H230.274V197H232.554V211ZM223.714 204.42V208.98H225.074C225.554 208.98 225.907 208.86 226.134 208.62C226.36 208.367 226.474 207.967 226.474 207.42V205.98C226.474 205.433 226.36 205.04 226.134 204.8C225.907 204.547 225.554 204.42 225.074 204.42H223.714ZM246.119 211H234.559V197H236.839V208.98H239.219V197H241.479V208.98H243.839V197H246.119V211ZM254.833 211H248.113V197H254.833V199.02H250.393V202.78H253.953V204.8H250.393V208.98H254.833V211ZM262.034 211H259.754V197H267.334V211H265.054V199.02H262.034V211ZM271.604 211H269.324V197H272.944C275.398 197 276.624 198.213 276.624 200.64V201.68C276.624 204.107 275.398 205.32 272.944 205.32H271.604V211ZM271.604 199.02V203.32H272.944C273.438 203.32 273.791 203.2 274.004 202.96C274.231 202.707 274.344 202.3 274.344 201.74V200.56C274.344 200 274.231 199.607 274.004 199.38C273.791 199.14 273.438 199.02 272.944 199.02H271.604ZM280.173 206.36L283.553 197H285.873V211H283.813V201.6L280.453 211H278.133V197H280.173V206.36ZM291.099 211.2C289.899 211.2 288.986 210.887 288.359 210.26C287.732 209.62 287.419 208.7 287.419 207.5V206.56H289.559V207.54C289.559 208.633 290.052 209.18 291.039 209.18C291.559 209.18 291.932 209.047 292.159 208.78C292.399 208.5 292.519 208.047 292.519 207.42V206.66C292.519 205.967 292.379 205.473 292.099 205.18C291.832 204.873 291.386 204.72 290.759 204.72H289.899V202.7H290.819C291.912 202.7 292.459 202.133 292.459 201V200.38C292.459 199.34 291.986 198.82 291.039 198.82C290.106 198.82 289.639 199.32 289.639 200.32V201.02H287.499V200.5C287.499 199.3 287.806 198.387 288.419 197.76C289.032 197.12 289.932 196.8 291.119 196.8C292.292 196.8 293.186 197.107 293.799 197.72C294.412 198.333 294.719 199.22 294.719 200.38V200.76C294.719 202.213 294.126 203.153 292.939 203.58V203.6C294.166 204.027 294.779 205.053 294.779 206.68V207.48C294.779 209.96 293.552 211.2 291.099 211.2ZM296.254 207.44V200.56C296.254 199.36 296.574 198.433 297.214 197.78C297.867 197.127 298.794 196.8 299.994 196.8C301.207 196.8 302.134 197.127 302.774 197.78C303.427 198.433 303.754 199.36 303.754 200.56V207.44C303.754 208.64 303.427 209.567 302.774 210.22C302.12 210.873 301.194 211.2 299.994 211.2C298.794 211.2 297.867 210.873 297.214 210.22C296.574 209.567 296.254 208.64 296.254 207.44ZM299.994 209.18C300.98 209.18 301.474 208.64 301.474 207.56V200.44C301.474 199.36 300.98 198.82 299.994 198.82C299.02 198.82 298.534 199.36 298.534 200.44V207.56C298.534 208.64 299.02 209.18 299.994 209.18ZM309.475 211H305.555V197H309.275C310.528 197 311.448 197.273 312.035 197.82C312.635 198.367 312.935 199.207 312.935 200.34V200.76C312.935 202.187 312.381 203.113 311.275 203.54V203.6C312.541 203.987 313.175 205.02 313.175 206.7V207.42C313.175 209.807 311.941 211 309.475 211ZM307.835 199.02V202.74H308.975C309.548 202.74 309.968 202.613 310.235 202.36C310.515 202.093 310.655 201.68 310.655 201.12V200.6C310.655 200.04 310.541 199.64 310.315 199.4C310.088 199.147 309.715 199.02 309.195 199.02H307.835ZM307.835 204.76V208.98H309.475C309.968 208.98 310.328 208.86 310.555 208.62C310.781 208.367 310.895 207.96 310.895 207.4V206.62C310.895 205.927 310.761 205.447 310.495 205.18C310.228 204.9 309.761 204.76 309.095 204.76H307.835ZM85.46 227V238.98H86.66V242.88H84.38V241H78.64V242.88H76.38V238.98H77.68C77.9733 238.687 78.14 238.14 78.18 237.34L78.6 227H85.46ZM79.84 238.98H83.18V229.02H80.74L80.46 237.22C80.4333 237.94 80.2267 238.527 79.84 238.98ZM88.0556 241.02C87.7756 241.02 87.5556 240.993 87.3956 240.94V238.96C87.5556 239 87.709 239.02 87.8556 239.02C88.349 239.02 88.689 238.9 88.8756 238.66C89.0756 238.407 89.189 237.973 89.2156 237.36L89.6356 227H96.4756V241H94.2156V229.02H91.7756L91.4756 237.42C91.4356 238.673 91.149 239.587 90.6156 240.16C90.0823 240.733 89.229 241.02 88.0556 241.02ZM105.684 227V241H103.404V235.08H102.364C101.724 235.08 101.271 235.22 101.004 235.5C100.751 235.78 100.624 236.267 100.624 236.96V239.16C100.624 239.947 100.551 240.56 100.404 241H98.1044C98.2777 240.573 98.3644 239.967 98.3644 239.18V237.1C98.3644 236.18 98.4977 235.473 98.7644 234.98C99.031 234.473 99.4644 234.133 100.064 233.96V233.9C98.9444 233.487 98.3844 232.533 98.3844 231.04V230.36C98.3844 229.213 98.6777 228.367 99.2644 227.82C99.8644 227.273 100.791 227 102.044 227H105.684ZM102.324 233.06H103.404V229.02H102.084C101.591 229.02 101.231 229.147 101.004 229.4C100.778 229.653 100.664 230.053 100.664 230.6V231.4C100.664 231.987 100.798 232.413 101.064 232.68C101.331 232.933 101.751 233.06 102.324 233.06ZM113.382 241H111.102V227H114.722C117.175 227 118.402 228.213 118.402 230.64V231.68C118.402 234.107 117.175 235.32 114.722 235.32H113.382V241ZM113.382 229.02V233.32H114.722C115.215 233.32 115.568 233.2 115.782 232.96C116.008 232.707 116.122 232.3 116.122 231.74V230.56C116.122 230 116.008 229.607 115.782 229.38C115.568 229.14 115.215 229.02 114.722 229.02H113.382ZM126.63 241H119.91V227H126.63V229.02H122.19V232.78H125.75V234.8H122.19V238.98H126.63V241ZM135.992 241H133.672L133.212 238.28H130.132L129.652 241H127.532L130.212 227H133.292L135.992 241ZM131.672 229.36L130.472 236.3H132.872L131.672 229.36ZM137.45 241.02C137.17 241.02 136.95 240.993 136.79 240.94V238.96C136.95 239 137.103 239.02 137.25 239.02C137.743 239.02 138.083 238.9 138.27 238.66C138.47 238.407 138.583 237.973 138.61 237.36L139.03 227H145.87V241H143.61V229.02H141.17L140.87 237.42C140.83 238.673 140.543 239.587 140.01 240.16C139.477 240.733 138.623 241.02 137.45 241.02ZM149.919 236.36L153.299 227H155.619V241H153.559V231.6L150.199 241H147.879V227H149.919V236.36ZM160.845 241.2C159.645 241.2 158.732 240.887 158.105 240.26C157.478 239.62 157.165 238.7 157.165 237.5V236.56H159.305V237.54C159.305 238.633 159.798 239.18 160.785 239.18C161.305 239.18 161.678 239.047 161.905 238.78C162.145 238.5 162.265 238.047 162.265 237.42V236.66C162.265 235.967 162.125 235.473 161.845 235.18C161.578 234.873 161.132 234.72 160.505 234.72H159.645V232.7H160.565C161.658 232.7 162.205 232.133 162.205 231V230.38C162.205 229.34 161.732 228.82 160.785 228.82C159.852 228.82 159.385 229.32 159.385 230.32V231.02H157.245V230.5C157.245 229.3 157.552 228.387 158.165 227.76C158.778 227.12 159.678 226.8 160.865 226.8C162.038 226.8 162.932 227.107 163.545 227.72C164.158 228.333 164.465 229.22 164.465 230.38V230.76C164.465 232.213 163.872 233.153 162.685 233.58V233.6C163.912 234.027 164.525 235.053 164.525 236.68V237.48C164.525 239.96 163.298 241.2 160.845 241.2ZM173.843 241H171.523L171.063 238.28H167.983L167.503 241H165.383L168.063 227H171.143L173.843 241ZM169.523 229.36L168.323 236.3H170.723L169.523 229.36ZM184.084 242.88H181.804V241H175.184V227H177.464V238.98H180.484V227H182.764V238.98H184.084V242.88ZM187.478 236.36L190.858 227H193.178V241H191.118V231.6L187.758 241H185.438V227H187.478V236.36ZM197.224 236.36L200.604 227H202.924V241H200.864V231.6L197.504 241H195.184V227H197.224V236.36ZM214.488 240.24C213.861 240.88 212.968 241.2 211.808 241.2C210.648 241.2 209.748 240.88 209.108 240.24C208.481 239.587 208.168 238.673 208.168 237.5V230.5C208.168 229.327 208.481 228.42 209.108 227.78C209.748 227.127 210.648 226.8 211.808 226.8C212.968 226.8 213.861 227.127 214.488 227.78C215.114 228.42 215.428 229.327 215.428 230.5V231.74H213.288V230.4C213.288 229.32 212.814 228.78 211.868 228.78C210.921 228.78 210.448 229.32 210.448 230.4V237.6C210.448 238.68 210.921 239.22 211.868 239.22C212.814 239.22 213.288 238.68 213.288 237.6V235.84H215.428V237.5C215.428 238.673 215.114 239.587 214.488 240.24ZM220.959 241H217.039V227H220.759C222.012 227 222.932 227.273 223.519 227.82C224.119 228.367 224.419 229.207 224.419 230.34V230.76C224.419 232.187 223.866 233.113 222.759 233.54V233.6C224.026 233.987 224.659 235.02 224.659 236.7V237.42C224.659 239.807 223.426 241 220.959 241ZM219.319 229.02V232.74H220.459C221.032 232.74 221.452 232.613 221.719 232.36C221.999 232.093 222.139 231.68 222.139 231.12V230.6C222.139 230.04 222.026 229.64 221.799 229.4C221.572 229.147 221.199 229.02 220.679 229.02H219.319ZM219.319 234.76V238.98H220.959C221.452 238.98 221.812 238.86 222.039 238.62C222.266 238.367 222.379 237.96 222.379 237.4V236.62C222.379 235.927 222.246 235.447 221.979 235.18C221.712 234.9 221.246 234.76 220.579 234.76H219.319ZM226.078 237.44V230.56C226.078 229.36 226.398 228.433 227.038 227.78C227.691 227.127 228.618 226.8 229.818 226.8C231.031 226.8 231.958 227.127 232.598 227.78C233.251 228.433 233.578 229.36 233.578 230.56V237.44C233.578 238.64 233.251 239.567 232.598 240.22C231.944 240.873 231.018 241.2 229.818 241.2C228.618 241.2 227.691 240.873 227.038 240.22C226.398 239.567 226.078 238.64 226.078 237.44ZM229.818 239.18C230.804 239.18 231.298 238.64 231.298 237.56V230.44C231.298 229.36 230.804 228.82 229.818 228.82C228.844 228.82 228.358 229.36 228.358 230.44V237.56C228.358 238.64 228.844 239.18 229.818 239.18ZM237.419 236.36L240.799 227H243.119V241H241.059V231.6L237.699 241H235.379V227H237.419V236.36ZM246.625 241H244.465L247.425 233.82L244.585 227H247.025L248.825 231.7L250.685 227H252.885L250.045 233.82L253.005 241H250.585L248.625 235.94L246.625 241ZM260.042 241H257.762V227H265.342V241H263.062V229.02H260.042V241ZM267.372 241.02C267.092 241.02 266.872 240.993 266.712 240.94V238.96C266.872 239 267.025 239.02 267.172 239.02C267.665 239.02 268.005 238.9 268.192 238.66C268.392 238.407 268.505 237.973 268.532 237.36L268.952 227H275.792V241H273.532V229.02H271.092L270.792 237.42C270.752 238.673 270.465 239.587 269.932 240.16C269.399 240.733 268.545 241.02 267.372 241.02ZM285.621 241H283.301L282.841 238.28H279.761L279.281 241H277.161L279.841 227H282.921L285.621 241ZM281.301 229.36L280.101 236.3H282.501L281.301 229.36ZM289.241 241H286.961V227H289.241V232.78H292.261V227H294.541V241H292.261V234.8H289.241V241ZM296.351 237.44V230.56C296.351 229.36 296.671 228.433 297.311 227.78C297.965 227.127 298.891 226.8 300.091 226.8C301.305 226.8 302.231 227.127 302.871 227.78C303.525 228.433 303.851 229.36 303.851 230.56V237.44C303.851 238.64 303.525 239.567 302.871 240.22C302.218 240.873 301.291 241.2 300.091 241.2C298.891 241.2 297.965 240.873 297.311 240.22C296.671 239.567 296.351 238.64 296.351 237.44ZM300.091 239.18C301.078 239.18 301.571 238.64 301.571 237.56V230.44C301.571 229.36 301.078 228.82 300.091 228.82C299.118 228.82 298.631 229.36 298.631 230.44V237.56C298.631 238.64 299.118 239.18 300.091 239.18ZM309.572 241H305.652V227H309.372C310.626 227 311.546 227.273 312.132 227.82C312.732 228.367 313.032 229.207 313.032 230.34V230.76C313.032 232.187 312.479 233.113 311.372 233.54V233.6C312.639 233.987 313.272 235.02 313.272 236.7V237.42C313.272 239.807 312.039 241 309.572 241ZM307.932 229.02V232.74H309.072C309.646 232.74 310.066 232.613 310.332 232.36C310.612 232.093 310.752 231.68 310.752 231.12V230.6C310.752 230.04 310.639 229.64 310.412 229.4C310.186 229.147 309.812 229.02 309.292 229.02H307.932ZM307.932 234.76V238.98H309.572C310.066 238.98 310.426 238.86 310.652 238.62C310.879 238.367 310.992 237.96 310.992 237.4V236.62C310.992 235.927 310.859 235.447 310.592 235.18C310.326 234.9 309.859 234.76 309.192 234.76H307.932ZM317.231 241H314.951V238.6H317.231V241Z" fill="white"/>
<defs>
<filter id="filter0_ddddd_653_390847" x="0" y="0" width="114" height="109" filterUnits="userSpaceOnUse" color-interpolation-filters="sRGB">
<feFlood flood-opacity="0" result="BackgroundImageFix"/>
<feColorMatrix in="SourceAlpha" type="matrix" values="0 0 0 0 0 0 0 0 0 0 0 0 0 0 0 0 0 0 127 0" result="hardAlpha"/>
<feOffset/>
<feColorMatrix type="matrix" values="0 0 0 0 0.0745098 0 0 0 0 0.12549 0 0 0 0 0.0823529 0 0 0 0.2 0"/>
<feBlend mode="normal" in2="BackgroundImageFix" result="effect1_dropShadow_653_390847"/>
<feColorMatrix in="SourceAlpha" type="matrix" values="0 0 0 0 0 0 0 0 0 0 0 0 0 0 0 0 0 0 127 0" result="hardAlpha"/>
<feOffset dx="2" dy="2"/>
<feGaussianBlur stdDeviation="3"/>
<feColorMatrix type="matrix" values="0 0 0 0 0.0745098 0 0 0 0 0.12549 0 0 0 0 0.0823529 0 0 0 0.2 0"/>
<feBlend mode="normal" in2="effect1_dropShadow_653_390847" result="effect2_dropShadow_653_390847"/>
<feColorMatrix in="SourceAlpha" type="matrix" values="0 0 0 0 0 0 0 0 0 0 0 0 0 0 0 0 0 0 127 0" result="hardAlpha"/>
<feOffset dx="8" dy="7"/>
<feGaussianBlur stdDeviation="5"/>
<feColorMatrix type="matrix" values="0 0 0 0 0.0745098 0 0 0 0 0.12549 0 0 0 0 0.0823529 0 0 0 0.17 0"/>
<feBlend mode="normal" in2="effect2_dropShadow_653_390847" result="effect3_dropShadow_653_390847"/>
<feColorMatrix in="SourceAlpha" type="matrix" values="0 0 0 0 0 0 0 0 0 0 0 0 0 0 0 0 0 0 127 0" result="hardAlpha"/>
<feOffset dx="18" dy="15"/>
<feGaussianBlur stdDeviation="7"/>
<feColorMatrix type="matrix" values="0 0 0 0 0.0745098 0 0 0 0 0.12549 0 0 0 0 0.0823529 0 0 0 0.1 0"/>
<feBlend mode="normal" in2="effect3_dropShadow_653_390847" result="effect4_dropShadow_653_390847"/>
<feColorMatrix in="SourceAlpha" type="matrix" values="0 0 0 0 0 0 0 0 0 0 0 0 0 0 0 0 0 0 127 0" result="hardAlpha"/>
<feOffset dx="33" dy="26"/>
<feGaussianBlur stdDeviation="8.5"/>
<feColorMatrix type="matrix" values="0 0 0 0 0.0745098 0 0 0 0 0.12549 0 0 0 0 0.0823529 0 0 0 0.03 0"/>
<feBlend mode="normal" in2="effect4_dropShadow_653_390847" result="effect5_dropShadow_653_390847"/>
<feBlend mode="normal" in="SourceGraphic" in2="effect5_dropShadow_653_390847" result="shape"/>
</filter>
<filter id="filter1_ddddd_653_390847" x="0" y="92" width="114" height="109" filterUnits="userSpaceOnUse" color-interpolation-filters="sRGB">
<feFlood flood-opacity="0" result="BackgroundImageFix"/>
<feColorMatrix in="SourceAlpha" type="matrix" values="0 0 0 0 0 0 0 0 0 0 0 0 0 0 0 0 0 0 127 0" result="hardAlpha"/>
<feOffset/>
<feColorMatrix type="matrix" values="0 0 0 0 0.0745098 0 0 0 0 0.12549 0 0 0 0 0.0823529 0 0 0 0.2 0"/>
<feBlend mode="normal" in2="BackgroundImageFix" result="effect1_dropShadow_653_390847"/>
<feColorMatrix in="SourceAlpha" type="matrix" values="0 0 0 0 0 0 0 0 0 0 0 0 0 0 0 0 0 0 127 0" result="hardAlpha"/>
<feOffset dx="2" dy="2"/>
<feGaussianBlur stdDeviation="3"/>
<feColorMatrix type="matrix" values="0 0 0 0 0.0745098 0 0 0 0 0.12549 0 0 0 0 0.0823529 0 0 0 0.2 0"/>
<feBlend mode="normal" in2="effect1_dropShadow_653_390847" result="effect2_dropShadow_653_390847"/>
<feColorMatrix in="SourceAlpha" type="matrix" values="0 0 0 0 0 0 0 0 0 0 0 0 0 0 0 0 0 0 127 0" result="hardAlpha"/>
<feOffset dx="8" dy="7"/>
<feGaussianBlur stdDeviation="5"/>
<feColorMatrix type="matrix" values="0 0 0 0 0.0745098 0 0 0 0 0.12549 0 0 0 0 0.0823529 0 0 0 0.17 0"/>
<feBlend mode="normal" in2="effect2_dropShadow_653_390847" result="effect3_dropShadow_653_390847"/>
<feColorMatrix in="SourceAlpha" type="matrix" values="0 0 0 0 0 0 0 0 0 0 0 0 0 0 0 0 0 0 127 0" result="hardAlpha"/>
<feOffset dx="18" dy="15"/>
<feGaussianBlur stdDeviation="7"/>
<feColorMatrix type="matrix" values="0 0 0 0 0.0745098 0 0 0 0 0.12549 0 0 0 0 0.0823529 0 0 0 0.1 0"/>
<feBlend mode="normal" in2="effect3_dropShadow_653_390847" result="effect4_dropShadow_653_390847"/>
<feColorMatrix in="SourceAlpha" type="matrix" values="0 0 0 0 0 0 0 0 0 0 0 0 0 0 0 0 0 0 127 0" result="hardAlpha"/>
<feOffset dx="33" dy="26"/>
<feGaussianBlur stdDeviation="8.5"/>
<feColorMatrix type="matrix" values="0 0 0 0 0.0745098 0 0 0 0 0.12549 0 0 0 0 0.0823529 0 0 0 0.03 0"/>
<feBlend mode="normal" in2="effect4_dropShadow_653_390847" result="effect5_dropShadow_653_390847"/>
<feBlend mode="normal" in="SourceGraphic" in2="effect5_dropShadow_653_390847" result="shape"/>
</filter>
<filter id="filter2_ddddd_653_390847" x="0" y="184" width="114" height="109" filterUnits="userSpaceOnUse" color-interpolation-filters="sRGB">
<feFlood flood-opacity="0" result="BackgroundImageFix"/>
<feColorMatrix in="SourceAlpha" type="matrix" values="0 0 0 0 0 0 0 0 0 0 0 0 0 0 0 0 0 0 127 0" result="hardAlpha"/>
<feOffset/>
<feColorMatrix type="matrix" values="0 0 0 0 0.0745098 0 0 0 0 0.12549 0 0 0 0 0.0823529 0 0 0 0.2 0"/>
<feBlend mode="normal" in2="BackgroundImageFix" result="effect1_dropShadow_653_390847"/>
<feColorMatrix in="SourceAlpha" type="matrix" values="0 0 0 0 0 0 0 0 0 0 0 0 0 0 0 0 0 0 127 0" result="hardAlpha"/>
<feOffset dx="2" dy="2"/>
<feGaussianBlur stdDeviation="3"/>
<feColorMatrix type="matrix" values="0 0 0 0 0.0745098 0 0 0 0 0.12549 0 0 0 0 0.0823529 0 0 0 0.2 0"/>
<feBlend mode="normal" in2="effect1_dropShadow_653_390847" result="effect2_dropShadow_653_390847"/>
<feColorMatrix in="SourceAlpha" type="matrix" values="0 0 0 0 0 0 0 0 0 0 0 0 0 0 0 0 0 0 127 0" result="hardAlpha"/>
<feOffset dx="8" dy="7"/>
<feGaussianBlur stdDeviation="5"/>
<feColorMatrix type="matrix" values="0 0 0 0 0.0745098 0 0 0 0 0.12549 0 0 0 0 0.0823529 0 0 0 0.17 0"/>
<feBlend mode="normal" in2="effect2_dropShadow_653_390847" result="effect3_dropShadow_653_390847"/>
<feColorMatrix in="SourceAlpha" type="matrix" values="0 0 0 0 0 0 0 0 0 0 0 0 0 0 0 0 0 0 127 0" result="hardAlpha"/>
<feOffset dx="18" dy="15"/>
<feGaussianBlur stdDeviation="7"/>
<feColorMatrix type="matrix" values="0 0 0 0 0.0745098 0 0 0 0 0.12549 0 0 0 0 0.0823529 0 0 0 0.1 0"/>
<feBlend mode="normal" in2="effect3_dropShadow_653_390847" result="effect4_dropShadow_653_390847"/>
<feColorMatrix in="SourceAlpha" type="matrix" values="0 0 0 0 0 0 0 0 0 0 0 0 0 0 0 0 0 0 127 0" result="hardAlpha"/>
<feOffset dx="33" dy="26"/>
<feGaussianBlur stdDeviation="8.5"/>
<feColorMatrix type="matrix" values="0 0 0 0 0.0745098 0 0 0 0 0.12549 0 0 0 0 0.0823529 0 0 0 0.03 0"/>
<feBlend mode="normal" in2="effect4_dropShadow_653_390847" result="effect5_dropShadow_653_390847"/>
<feBlend mode="normal" in="SourceGraphic" in2="effect5_dropShadow_653_390847" result="shape"/>
</filter>
</defs>
</svg>
