<svg width="553" height="384" viewBox="0 0 553 384" fill="none" xmlns="http://www.w3.org/2000/svg">
<g filter="url(#filter0_ddddd_704_391002)">
<ellipse cx="124" cy="60.5" rx="22" ry="5.5" fill="#DDBA63"/>
<path d="M123.998 7.74927C118.53 7.75576 113.288 9.93082 109.421 13.7974C105.555 17.6639 103.38 22.9062 103.373 28.3743C103.373 46.022 122.123 59.3521 122.921 59.9105C123.237 60.131 123.613 60.2493 123.998 60.2493C124.383 60.2493 124.759 60.131 125.075 59.9105C125.873 59.3521 144.623 46.022 144.623 28.3743C144.617 22.9062 142.441 17.6639 138.575 13.7974C134.708 9.93082 129.466 7.75575 123.998 7.74927V7.74927ZM123.999 20.8749C125.483 20.8749 126.933 21.3148 128.166 22.1389C129.4 22.963 130.361 24.1344 130.929 25.5048C131.496 26.8753 131.645 28.3833 131.355 29.8381C131.066 31.293 130.352 32.6294 129.303 33.6782C128.254 34.7271 126.917 35.4414 125.463 35.7308C124.008 36.0202 122.5 35.8717 121.129 35.304C119.759 34.7364 118.588 33.7751 117.763 32.5417C116.939 31.3084 116.499 29.8583 116.499 28.3749C116.499 27.39 116.693 26.4147 117.07 25.5048C117.447 24.5948 118 23.768 118.696 23.0716C119.393 22.3751 120.219 21.8227 121.129 21.4458C122.039 21.0689 123.014 20.8749 123.999 20.8749V20.8749Z" fill="#FFF9DA"/>
<ellipse cx="124" cy="28.5" rx="13" ry="12.5" fill="#C74403"/>
<path d="M125.95 36H123.75V25.32H121.45V23.76C122.37 23.76 123.037 23.64 123.45 23.4C123.877 23.1333 124.217 22.6667 124.47 22H125.95V36Z" fill="white"/>
</g>
<path d="M181.28 27H179V13H182.62C185.073 13 186.3 14.2133 186.3 16.64V17.68C186.3 20.1067 185.073 21.32 182.62 21.32H181.28V27ZM181.28 15.02V19.32H182.62C183.113 19.32 183.467 19.2 183.68 18.96C183.907 18.7067 184.02 18.3 184.02 17.74V16.56C184.02 16 183.907 15.6067 183.68 15.38C183.467 15.14 183.113 15.02 182.62 15.02H181.28ZM194.828 27H192.508L192.048 24.28H188.968L188.488 27H186.368L189.048 13H192.128L194.828 27ZM190.508 15.36L189.308 22.3H191.708L190.508 15.36ZM202.21 26.24C201.584 26.88 200.69 27.2 199.53 27.2C198.37 27.2 197.47 26.88 196.83 26.24C196.204 25.5867 195.89 24.6733 195.89 23.5V16.5C195.89 15.3267 196.204 14.42 196.83 13.78C197.47 13.1267 198.37 12.8 199.53 12.8C200.69 12.8 201.584 13.1267 202.21 13.78C202.837 14.42 203.15 15.3267 203.15 16.5V17.74H201.01V16.4C201.01 15.32 200.537 14.78 199.59 14.78C198.644 14.78 198.17 15.32 198.17 16.4V23.6C198.17 24.68 198.644 25.22 199.59 25.22C200.537 25.22 201.01 24.68 201.01 23.6V21.84H203.15V23.5C203.15 24.6733 202.837 25.5867 202.21 26.24ZM210.921 26.24C210.295 26.88 209.401 27.2 208.241 27.2C207.081 27.2 206.181 26.88 205.541 26.24C204.915 25.5867 204.601 24.6733 204.601 23.5V16.5C204.601 15.3267 204.915 14.42 205.541 13.78C206.181 13.1267 207.081 12.8 208.241 12.8C209.401 12.8 210.295 13.1267 210.921 13.78C211.548 14.42 211.861 15.3267 211.861 16.5V17.74H209.721V16.4C209.721 15.32 209.248 14.78 208.301 14.78C207.355 14.78 206.881 15.32 206.881 16.4V23.6C206.881 24.68 207.355 25.22 208.301 25.22C209.248 25.22 209.721 24.68 209.721 23.6V21.84H211.861V23.5C211.861 24.6733 211.548 25.5867 210.921 26.24ZM221.573 27H219.173L216.953 20.6L215.753 22.58V27H213.473V13H215.753V19.16L219.213 13H221.533L218.493 18.2L221.573 27ZM230.726 27H228.406L227.946 24.28H224.866L224.386 27H222.266L224.946 13H228.026L230.726 27ZM226.406 15.36L225.206 22.3H227.606L226.406 15.36ZM244.786 27H242.506L240.346 20.2L239.246 22.1V27H236.966V22.1L235.866 20.2L233.706 27H231.406L234.366 18.2L231.446 13H233.806L236.966 19.06V13H239.246V19.06L242.426 13H244.746L241.846 18.22L244.786 27ZM248.169 22.36L251.549 13H253.869V27H251.809V17.6L248.449 27H246.129V13H248.169V22.36ZM256.895 29.32H255.855L256.755 27H255.955V24.6H258.235V26.76L256.895 29.32ZM268.727 18.08V13H271.007V27H268.727V21.16C268.14 21.76 267.347 22.06 266.347 22.06C264.373 22.06 263.387 20.9333 263.387 18.68V13H265.647V18.38C265.647 19.46 266.113 20 267.047 20C267.58 20 267.993 19.84 268.287 19.52C268.58 19.1867 268.727 18.7067 268.727 18.08ZM277.324 27H275.064V15.02H272.384V13H280.004V15.02H277.324V27ZM281.125 23.44V16.56C281.125 15.36 281.445 14.4333 282.085 13.78C282.738 13.1267 283.665 12.8 284.865 12.8C286.078 12.8 287.005 13.1267 287.645 13.78C288.298 14.4333 288.625 15.36 288.625 16.56V23.44C288.625 24.64 288.298 25.5667 287.645 26.22C286.991 26.8733 286.065 27.2 284.865 27.2C283.665 27.2 282.738 26.8733 282.085 26.22C281.445 25.5667 281.125 24.64 281.125 23.44ZM284.865 25.18C285.851 25.18 286.345 24.64 286.345 23.56V16.44C286.345 15.36 285.851 14.82 284.865 14.82C283.891 14.82 283.405 15.36 283.405 16.44V23.56C283.405 24.64 283.891 25.18 284.865 25.18ZM296.124 27H293.844V13H296.124V18.78H299.144V13H301.424V27H299.144V20.8H296.124V27ZM303.234 23.44V16.56C303.234 15.36 303.554 14.4333 304.194 13.78C304.847 13.1267 305.774 12.8 306.974 12.8C308.187 12.8 309.114 13.1267 309.754 13.78C310.407 14.4333 310.734 15.36 310.734 16.56V23.44C310.734 24.64 310.407 25.5667 309.754 26.22C309.101 26.8733 308.174 27.2 306.974 27.2C305.774 27.2 304.847 26.8733 304.194 26.22C303.554 25.5667 303.234 24.64 303.234 23.44ZM306.974 25.18C307.961 25.18 308.454 24.64 308.454 23.56V16.44C308.454 15.36 307.961 14.82 306.974 14.82C306.001 14.82 305.514 15.36 305.514 16.44V23.56C305.514 24.64 306.001 25.18 306.974 25.18ZM316.455 27H312.535V13H316.255C317.508 13 318.428 13.2733 319.015 13.82C319.615 14.3667 319.915 15.2067 319.915 16.34V16.76C319.915 18.1867 319.362 19.1133 318.255 19.54V19.6C319.522 19.9867 320.155 21.02 320.155 22.7V23.42C320.155 25.8067 318.922 27 316.455 27ZM314.815 15.02V18.74H315.955C316.528 18.74 316.948 18.6133 317.215 18.36C317.495 18.0933 317.635 17.68 317.635 17.12V16.6C317.635 16.04 317.522 15.64 317.295 15.4C317.068 15.1467 316.695 15.02 316.175 15.02H314.815ZM314.815 20.76V24.98H316.455C316.948 24.98 317.308 24.86 317.535 24.62C317.762 24.3667 317.875 23.96 317.875 23.4V22.62C317.875 21.9267 317.742 21.4467 317.475 21.18C317.208 20.9 316.742 20.76 316.075 20.76H314.815ZM321.574 23.44V16.56C321.574 15.36 321.894 14.4333 322.534 13.78C323.187 13.1267 324.114 12.8 325.314 12.8C326.527 12.8 327.454 13.1267 328.094 13.78C328.747 14.4333 329.074 15.36 329.074 16.56V23.44C329.074 24.64 328.747 25.5667 328.094 26.22C327.441 26.8733 326.514 27.2 325.314 27.2C324.114 27.2 323.187 26.8733 322.534 26.22C321.894 25.5667 321.574 24.64 321.574 23.44ZM325.314 25.18C326.301 25.18 326.794 24.64 326.794 23.56V16.44C326.794 15.36 326.301 14.82 325.314 14.82C324.341 14.82 323.854 15.36 323.854 16.44V23.56C323.854 24.64 324.341 25.18 325.314 25.18ZM333.155 27H330.875V13H337.155V15.02H333.155V27ZM338.293 23.44V16.56C338.293 15.36 338.613 14.4333 339.253 13.78C339.906 13.1267 340.833 12.8 342.033 12.8C343.246 12.8 344.173 13.1267 344.813 13.78C345.466 14.4333 345.793 15.36 345.793 16.56V23.44C345.793 24.64 345.466 25.5667 344.813 26.22C344.159 26.8733 343.233 27.2 342.033 27.2C340.833 27.2 339.906 26.8733 339.253 26.22C338.613 25.5667 338.293 24.64 338.293 23.44ZM342.033 25.18C343.019 25.18 343.513 24.64 343.513 23.56V16.44C343.513 15.36 343.019 14.82 342.033 14.82C341.059 14.82 340.573 15.36 340.573 16.44V23.56C340.573 24.64 341.059 25.18 342.033 25.18ZM183.32 57H181.06V45.02H178.38V43H186V45.02H183.32V57ZM191.019 57H187.379V43H189.659V48.4H191.019C193.472 48.4 194.699 49.6333 194.699 52.1V53.3C194.699 55.7667 193.472 57 191.019 57ZM198.499 57H196.219V43H198.499V57ZM189.659 50.42V54.98H191.019C191.499 54.98 191.852 54.86 192.079 54.62C192.306 54.3667 192.419 53.9667 192.419 53.42V51.98C192.419 51.4333 192.306 51.04 192.079 50.8C191.852 50.5467 191.499 50.42 191.019 50.42H189.659ZM205.422 57H203.262L206.222 49.82L203.382 43H205.822L207.622 47.7L209.482 43H211.682L208.842 49.82L211.802 57H209.382L207.422 51.94L205.422 57ZM212.59 53.44V46.56C212.59 45.36 212.91 44.4333 213.55 43.78C214.203 43.1267 215.13 42.8 216.33 42.8C217.543 42.8 218.47 43.1267 219.11 43.78C219.763 44.4333 220.09 45.36 220.09 46.56V53.44C220.09 54.64 219.763 55.5667 219.11 56.22C218.456 56.8733 217.53 57.2 216.33 57.2C215.13 57.2 214.203 56.8733 213.55 56.22C212.91 55.5667 212.59 54.64 212.59 53.44ZM216.33 55.18C217.316 55.18 217.81 54.64 217.81 53.56V46.44C217.81 45.36 217.316 44.82 216.33 44.82C215.356 44.82 214.87 45.36 214.87 46.44V53.56C214.87 54.64 215.356 55.18 216.33 55.18ZM226.133 57H223.873V45.02H221.193V43H228.813V45.02H226.133V57ZM236.911 57H230.191V43H236.911V45.02H232.471V48.78H236.031V50.8H232.471V54.98H236.911V57ZM238.454 57.02C238.174 57.02 237.954 56.9933 237.794 56.94V54.96C237.954 55 238.107 55.02 238.254 55.02C238.747 55.02 239.087 54.9 239.274 54.66C239.474 54.4067 239.587 53.9733 239.614 53.36L240.034 43H246.874V57H244.614V45.02H242.174L241.874 53.42C241.834 54.6733 241.547 55.5867 241.014 56.16C240.481 56.7333 239.627 57.02 238.454 57.02ZM256.101 57H252.301V43H258.841V45.02H254.581V48.5H256.101C258.554 48.5 259.781 49.7333 259.781 52.2V53.3C259.781 55.7667 258.554 57 256.101 57ZM254.581 50.52V54.98H256.101C256.581 54.98 256.934 54.86 257.161 54.62C257.387 54.3667 257.501 53.9667 257.501 53.42V52.08C257.501 51.5333 257.387 51.14 257.161 50.9C256.934 50.6467 256.581 50.52 256.101 50.52H254.581ZM264.925 57H261.285V43H263.565V48.4H264.925C267.378 48.4 268.605 49.6333 268.605 52.1V53.3C268.605 55.7667 267.378 57 264.925 57ZM272.405 57H270.125V43H272.405V57ZM263.565 50.42V54.98H264.925C265.405 54.98 265.758 54.86 265.985 54.62C266.212 54.3667 266.325 53.9667 266.325 53.42V51.98C266.325 51.4333 266.212 51.04 265.985 50.8C265.758 50.5467 265.405 50.42 264.925 50.42H263.565ZM286.288 43V54.98H287.488V58.88H285.208V57H279.468V58.88H277.208V54.98H278.508C278.801 54.6867 278.968 54.14 279.008 53.34L279.428 43H286.288ZM280.668 54.98H284.008V45.02H281.568L281.288 53.22C281.261 53.94 281.055 54.5267 280.668 54.98ZM288.884 57.02C288.604 57.02 288.384 56.9933 288.224 56.94V54.96C288.384 55 288.537 55.02 288.684 55.02C289.177 55.02 289.517 54.9 289.704 54.66C289.904 54.4067 290.017 53.9733 290.044 53.36L290.464 43H297.304V57H295.044V45.02H292.604L292.304 53.42C292.264 54.6733 291.977 55.5867 291.444 56.16C290.91 56.7333 290.057 57.02 288.884 57.02ZM306.513 43V57H304.233V51.08H303.193C302.553 51.08 302.099 51.22 301.833 51.5C301.579 51.78 301.453 52.2667 301.453 52.96V55.16C301.453 55.9467 301.379 56.56 301.233 57H298.933C299.106 56.5733 299.193 55.9667 299.193 55.18V53.1C299.193 52.18 299.326 51.4733 299.593 50.98C299.859 50.4733 300.293 50.1333 300.893 49.96V49.9C299.773 49.4867 299.213 48.5333 299.213 47.04V46.36C299.213 45.2133 299.506 44.3667 300.093 43.82C300.693 43.2733 301.619 43 302.873 43H306.513ZM303.153 49.06H304.233V45.02H302.913C302.419 45.02 302.059 45.1467 301.833 45.4C301.606 45.6533 301.493 46.0533 301.493 46.6V47.4C301.493 47.9867 301.626 48.4133 301.893 48.68C302.159 48.9333 302.579 49.06 303.153 49.06ZM318.07 56.24C317.443 56.88 316.55 57.2 315.39 57.2C314.23 57.2 313.33 56.88 312.69 56.24C312.063 55.5867 311.75 54.6733 311.75 53.5V46.5C311.75 45.3267 312.063 44.42 312.69 43.78C313.33 43.1267 314.23 42.8 315.39 42.8C316.55 42.8 317.443 43.1267 318.07 43.78C318.696 44.42 319.01 45.3267 319.01 46.5V47.74H316.87V46.4C316.87 45.32 316.396 44.78 315.45 44.78C314.503 44.78 314.03 45.32 314.03 46.4V53.6C314.03 54.68 314.503 55.22 315.45 55.22C316.396 55.22 316.87 54.68 316.87 53.6V51.84H319.01V53.5C319.01 54.6733 318.696 55.5867 318.07 56.24ZM327.341 57H320.621V43H327.341V45.02H322.901V48.78H326.461V50.8H322.901V54.98H327.341V57ZM332.644 57H328.844V43H335.384V45.02H331.124V48.5H332.644C335.097 48.5 336.324 49.7333 336.324 52.2V53.3C336.324 55.7667 335.097 57 332.644 57ZM331.124 50.52V54.98H332.644C333.124 54.98 333.477 54.86 333.704 54.62C333.93 54.3667 334.044 53.9667 334.044 53.42V52.08C334.044 51.5333 333.93 51.14 333.704 50.9C333.477 50.6467 333.124 50.52 332.644 50.52H331.124ZM345.028 43V57H342.748V51.08H341.708C341.068 51.08 340.615 51.22 340.348 51.5C340.095 51.78 339.968 52.2667 339.968 52.96V55.16C339.968 55.9467 339.895 56.56 339.748 57H337.448C337.621 56.5733 337.708 55.9667 337.708 55.18V53.1C337.708 52.18 337.841 51.4733 338.108 50.98C338.375 50.4733 338.808 50.1333 339.408 49.96V49.9C338.288 49.4867 337.728 48.5333 337.728 47.04V46.36C337.728 45.2133 338.021 44.3667 338.608 43.82C339.208 43.2733 340.135 43 341.388 43H345.028ZM341.668 49.06H342.748V45.02H341.428C340.935 45.02 340.575 45.1467 340.348 45.4C340.121 45.6533 340.008 46.0533 340.008 46.6V47.4C340.008 47.9867 340.141 48.4133 340.408 48.68C340.675 48.9333 341.095 49.06 341.668 49.06ZM350.265 53.44V46.56C350.265 45.36 350.585 44.4333 351.225 43.78C351.879 43.1267 352.805 42.8 354.005 42.8C355.219 42.8 356.145 43.1267 356.785 43.78C357.439 44.4333 357.765 45.36 357.765 46.56V53.44C357.765 54.64 357.439 55.5667 356.785 56.22C356.132 56.8733 355.205 57.2 354.005 57.2C352.805 57.2 351.879 56.8733 351.225 56.22C350.585 55.5667 350.265 54.64 350.265 53.44ZM354.005 55.18C354.992 55.18 355.485 54.64 355.485 53.56V46.44C355.485 45.36 354.992 44.82 354.005 44.82C353.032 44.82 352.545 45.36 352.545 46.44V53.56C352.545 54.64 353.032 55.18 354.005 55.18ZM363.808 57H361.548V45.02H358.868V43H366.488V45.02H363.808V57ZM375.967 57H373.567L371.347 50.6L370.147 52.58V57H367.867V43H370.147V49.16L373.607 43H375.927L372.887 48.2L375.967 57ZM379.581 57H377.301V43H380.921C383.374 43 384.601 44.2133 384.601 46.64V47.68C384.601 50.1067 383.374 51.32 380.921 51.32H379.581V57ZM379.581 45.02V49.32H380.921C381.414 49.32 381.767 49.2 381.981 48.96C382.207 48.7067 382.321 48.3 382.321 47.74V46.56C382.321 46 382.207 45.6067 381.981 45.38C381.767 45.14 381.414 45.02 380.921 45.02H379.581ZM389.749 57H386.109V43H388.389V48.4H389.749C392.203 48.4 393.429 49.6333 393.429 52.1V53.3C393.429 55.7667 392.203 57 389.749 57ZM397.229 57H394.949V43H397.229V57ZM388.389 50.42V54.98H389.749C390.229 54.98 390.583 54.86 390.809 54.62C391.036 54.3667 391.149 53.9667 391.149 53.42V51.98C391.149 51.4333 391.036 51.04 390.809 50.8C390.583 50.5467 390.229 50.42 389.749 50.42H388.389ZM403.554 57H401.294V45.02H398.614V43H406.234V45.02H403.554V57ZM411.253 57H407.613V43H409.893V48.4H411.253C413.707 48.4 414.933 49.6333 414.933 52.1V53.3C414.933 55.7667 413.707 57 411.253 57ZM409.893 50.42V54.98H411.253C411.733 54.98 412.087 54.86 412.313 54.62C412.54 54.3667 412.653 53.9667 412.653 53.42V51.98C412.653 51.4333 412.54 51.04 412.313 50.8C412.087 50.5467 411.733 50.42 411.253 50.42H409.893Z" fill="white"/>
<g filter="url(#filter1_ddddd_704_391002)">
<ellipse cx="34" cy="304.5" rx="22" ry="5.5" fill="#DDBA63"/>
<path d="M33.998 251.749C28.5299 251.756 23.2877 253.931 19.4211 257.797C15.5546 261.664 13.3795 266.906 13.373 272.374C13.373 290.022 32.123 303.352 32.9214 303.911C33.2371 304.131 33.6129 304.249 33.998 304.249C34.3832 304.249 34.759 304.131 35.0747 303.911C35.873 303.352 54.623 290.022 54.623 272.374C54.6166 266.906 52.4415 261.664 48.575 257.797C44.7084 253.931 39.4661 251.756 33.998 251.749V251.749ZM33.9994 264.875C35.4828 264.875 36.9328 265.315 38.1662 266.139C39.3996 266.963 40.3609 268.134 40.9285 269.505C41.4962 270.875 41.6447 272.383 41.3553 273.838C41.0659 275.293 40.3516 276.629 39.3027 277.678C38.2538 278.727 36.9175 279.441 35.4626 279.731C34.0077 280.02 32.4997 279.872 31.1293 279.304C29.7588 278.736 28.5875 277.775 27.7634 276.542C26.9393 275.308 26.4994 273.858 26.4994 272.375C26.4994 271.39 26.6934 270.415 27.0703 269.505C27.4472 268.595 27.9996 267.768 28.6961 267.072C29.3925 266.375 30.2193 265.823 31.1293 265.446C32.0392 265.069 33.0145 264.875 33.9994 264.875V264.875Z" fill="#FFF9DA"/>
<ellipse cx="34" cy="272.5" rx="13" ry="12.5" fill="#C74403"/>
<path d="M30.6598 276.72V275.58H32.7398V276.82C32.7398 277.74 33.1198 278.2 33.8798 278.2C34.2664 278.2 34.5531 278.08 34.7398 277.84C34.9264 277.6 35.0198 277.193 35.0198 276.62V275.48C35.0198 274.84 34.9064 274.387 34.6798 274.12C34.4531 273.84 34.0864 273.7 33.5798 273.7H32.8398V271.7H33.6398C34.0931 271.7 34.4264 271.587 34.6398 271.36C34.8531 271.12 34.9598 270.74 34.9598 270.22V269.2C34.9598 268.267 34.5931 267.8 33.8598 267.8C33.1531 267.8 32.7998 268.233 32.7998 269.1V270.02H30.7198V269.28C30.7198 268.16 30.9931 267.3 31.5398 266.7C32.0998 266.1 32.8998 265.8 33.9398 265.8C34.9931 265.8 35.7931 266.1 36.3398 266.7C36.8864 267.287 37.1598 268.14 37.1598 269.26V269.76C37.1598 271.253 36.6398 272.193 35.5998 272.58V272.62C36.6798 273.02 37.2198 273.98 37.2198 275.5V276.74C37.2198 277.86 36.9398 278.72 36.3798 279.32C35.8331 279.907 35.0198 280.2 33.9398 280.2C32.8598 280.2 32.0398 279.9 31.4798 279.3C30.9331 278.7 30.6598 277.84 30.6598 276.72Z" fill="white"/>
</g>
<path d="M92.74 264.56L94.54 257H96.72L93.7 268.62C93.46 269.54 93.08 270.2 92.56 270.6C92.04 271 91.3067 271.2 90.36 271.2C89.8133 271.2 89.3533 271.127 88.98 270.98V269.02C89.3 269.127 89.6467 269.18 90.02 269.18C90.4467 269.18 90.7667 269.12 90.98 269C91.1933 268.867 91.3533 268.64 91.46 268.32L91.56 267.96L88.4 257H90.76L92.74 264.56ZM102.984 262.08V257H105.264V271H102.984V265.16C102.398 265.76 101.604 266.06 100.604 266.06C98.631 266.06 97.6444 264.933 97.6444 262.68V257H99.9044V262.38C99.9044 263.46 100.371 264 101.304 264C101.838 264 102.251 263.84 102.544 263.52C102.838 263.187 102.984 262.707 102.984 262.08ZM115.082 271H112.762L112.302 268.28H109.222L108.742 271H106.622L109.302 257H112.382L115.082 271ZM110.762 259.36L109.562 266.3H111.962L110.762 259.36ZM122.464 270.24C121.838 270.88 120.944 271.2 119.784 271.2C118.624 271.2 117.724 270.88 117.084 270.24C116.458 269.587 116.144 268.673 116.144 267.5V260.5C116.144 259.327 116.458 258.42 117.084 257.78C117.724 257.127 118.624 256.8 119.784 256.8C120.944 256.8 121.838 257.127 122.464 257.78C123.091 258.42 123.404 259.327 123.404 260.5V261.74H121.264V260.4C121.264 259.32 120.791 258.78 119.844 258.78C118.898 258.78 118.424 259.32 118.424 260.4V267.6C118.424 268.68 118.898 269.22 119.844 269.22C120.791 269.22 121.264 268.68 121.264 267.6V265.84H123.404V267.5C123.404 268.673 123.091 269.587 122.464 270.24ZM129.336 271H127.076V259.02H124.396V257H132.016V259.02H129.336V271ZM137.315 271H133.395V257H137.115C138.368 257 139.288 257.273 139.875 257.82C140.475 258.367 140.775 259.207 140.775 260.34V260.76C140.775 262.187 140.221 263.113 139.115 263.54V263.6C140.381 263.987 141.015 265.02 141.015 266.7V267.42C141.015 269.807 139.781 271 137.315 271ZM135.675 259.02V262.74H136.815C137.388 262.74 137.808 262.613 138.075 262.36C138.355 262.093 138.495 261.68 138.495 261.12V260.6C138.495 260.04 138.381 259.64 138.155 259.4C137.928 259.147 137.555 259.02 137.035 259.02H135.675ZM135.675 264.76V268.98H137.315C137.808 268.98 138.168 268.86 138.395 268.62C138.621 268.367 138.735 267.96 138.735 267.4V266.62C138.735 265.927 138.601 265.447 138.335 265.18C138.068 264.9 137.601 264.76 136.935 264.76H135.675ZM146.295 264.56L148.095 257H150.275L147.255 268.62C147.015 269.54 146.635 270.2 146.115 270.6C145.595 271 144.861 271.2 143.915 271.2C143.368 271.2 142.908 271.127 142.535 270.98V269.02C142.855 269.127 143.201 269.18 143.575 269.18C144.001 269.18 144.321 269.12 144.535 269C144.748 268.867 144.908 268.64 145.015 268.32L145.115 267.96L141.955 257H144.315L146.295 264.56ZM155.399 255.86C154.612 255.86 153.992 255.64 153.539 255.2C153.086 254.747 152.846 254.133 152.819 253.36H154.199C154.266 254.027 154.666 254.36 155.399 254.36C156.132 254.36 156.552 254.027 156.659 253.36H157.999C157.972 254.133 157.732 254.747 157.279 255.2C156.826 255.64 156.199 255.86 155.399 255.86ZM153.579 266.36L156.959 257H159.279V271H157.219V261.6L153.859 271H151.539V257H153.579V266.36ZM168.623 271H164.703V257H168.423C169.676 257 170.596 257.273 171.183 257.82C171.783 258.367 172.083 259.207 172.083 260.34V260.76C172.083 262.187 171.53 263.113 170.423 263.54V263.6C171.69 263.987 172.323 265.02 172.323 266.7V267.42C172.323 269.807 171.09 271 168.623 271ZM166.983 259.02V262.74H168.123C168.696 262.74 169.116 262.613 169.383 262.36C169.663 262.093 169.803 261.68 169.803 261.12V260.6C169.803 260.04 169.69 259.64 169.463 259.4C169.236 259.147 168.863 259.02 168.343 259.02H166.983ZM166.983 264.76V268.98H168.623C169.116 268.98 169.476 268.86 169.703 268.62C169.93 268.367 170.043 267.96 170.043 267.4V266.62C170.043 265.927 169.91 265.447 169.643 265.18C169.376 264.9 168.91 264.76 168.243 264.76H166.983ZM179.62 271H177.34V257H180.96C183.413 257 184.64 258.213 184.64 260.64V261.68C184.64 264.107 183.413 265.32 180.96 265.32H179.62V271ZM179.62 259.02V263.32H180.96C181.453 263.32 181.807 263.2 182.02 262.96C182.247 262.707 182.36 262.3 182.36 261.74V260.56C182.36 260 182.247 259.607 182.02 259.38C181.807 259.14 181.453 259.02 180.96 259.02H179.62ZM185.968 267.44V260.56C185.968 259.36 186.288 258.433 186.928 257.78C187.582 257.127 188.508 256.8 189.708 256.8C190.922 256.8 191.848 257.127 192.488 257.78C193.142 258.433 193.468 259.36 193.468 260.56V267.44C193.468 268.64 193.142 269.567 192.488 270.22C191.835 270.873 190.908 271.2 189.708 271.2C188.508 271.2 187.582 270.873 186.928 270.22C186.288 269.567 185.968 268.64 185.968 267.44ZM189.708 269.18C190.695 269.18 191.188 268.64 191.188 267.56V260.44C191.188 259.36 190.695 258.82 189.708 258.82C188.735 258.82 188.248 259.36 188.248 260.44V267.56C188.248 268.64 188.735 269.18 189.708 269.18ZM198.49 271.2C197.29 271.2 196.376 270.887 195.75 270.26C195.123 269.62 194.81 268.7 194.81 267.5V266.56H196.95V267.54C196.95 268.633 197.443 269.18 198.43 269.18C198.95 269.18 199.323 269.047 199.55 268.78C199.79 268.5 199.91 268.047 199.91 267.42V266.66C199.91 265.967 199.77 265.473 199.49 265.18C199.223 264.873 198.776 264.72 198.15 264.72H197.29V262.7H198.21C199.303 262.7 199.85 262.133 199.85 261V260.38C199.85 259.34 199.376 258.82 198.43 258.82C197.496 258.82 197.03 259.32 197.03 260.32V261.02H194.89V260.5C194.89 259.3 195.196 258.387 195.81 257.76C196.423 257.12 197.323 256.8 198.51 256.8C199.683 256.8 200.576 257.107 201.19 257.72C201.803 258.333 202.11 259.22 202.11 260.38V260.76C202.11 262.213 201.516 263.153 200.33 263.58V263.6C201.556 264.027 202.17 265.053 202.17 266.68V267.48C202.17 269.96 200.943 271.2 198.49 271.2ZM207.464 271H203.824V257H206.104V262.4H207.464C209.918 262.4 211.144 263.633 211.144 266.1V267.3C211.144 269.767 209.918 271 207.464 271ZM214.944 271H212.664V257H214.944V271ZM206.104 264.42V268.98H207.464C207.944 268.98 208.298 268.86 208.524 268.62C208.751 268.367 208.864 267.967 208.864 267.42V265.98C208.864 265.433 208.751 265.04 208.524 264.8C208.298 264.547 207.944 264.42 207.464 264.42H206.104ZM219.229 271H216.949V257H223.229V259.02H219.229V271ZM226.905 271H224.625V257H228.245C230.698 257 231.925 258.213 231.925 260.64V261.68C231.925 264.107 230.698 265.32 228.245 265.32H226.905V271ZM226.905 259.02V263.32H228.245C228.738 263.32 229.092 263.2 229.305 262.96C229.532 262.707 229.645 262.3 229.645 261.74V260.56C229.645 260 229.532 259.607 229.305 259.38C229.092 259.14 228.738 259.02 228.245 259.02H226.905ZM237.074 271H233.434V257H235.714V262.4H237.074C239.527 262.4 240.754 263.633 240.754 266.1V267.3C240.754 269.767 239.527 271 237.074 271ZM244.554 271H242.274V257H244.554V271ZM235.714 264.42V268.98H237.074C237.554 268.98 237.907 268.86 238.134 268.62C238.36 268.367 238.474 267.967 238.474 267.42V265.98C238.474 265.433 238.36 265.04 238.134 264.8C237.907 264.547 237.554 264.42 237.074 264.42H235.714ZM258.119 271H246.559V257H248.839V268.98H251.219V257H253.479V268.98H255.839V257H258.119V271ZM266.833 271H260.113V257H266.833V259.02H262.393V262.78H265.953V264.8H262.393V268.98H266.833V271ZM274.034 271H271.754V257H279.334V271H277.054V259.02H274.034V271ZM283.604 271H281.324V257H284.944C287.398 257 288.624 258.213 288.624 260.64V261.68C288.624 264.107 287.398 265.32 284.944 265.32H283.604V271ZM283.604 259.02V263.32H284.944C285.438 263.32 285.791 263.2 286.004 262.96C286.231 262.707 286.344 262.3 286.344 261.74V260.56C286.344 260 286.231 259.607 286.004 259.38C285.791 259.14 285.438 259.02 284.944 259.02H283.604ZM292.173 266.36L295.553 257H297.873V271H295.813V261.6L292.453 271H290.133V257H292.173V266.36ZM303.099 271.2C301.899 271.2 300.986 270.887 300.359 270.26C299.732 269.62 299.419 268.7 299.419 267.5V266.56H301.559V267.54C301.559 268.633 302.052 269.18 303.039 269.18C303.559 269.18 303.932 269.047 304.159 268.78C304.399 268.5 304.519 268.047 304.519 267.42V266.66C304.519 265.967 304.379 265.473 304.099 265.18C303.832 264.873 303.386 264.72 302.759 264.72H301.899V262.7H302.819C303.912 262.7 304.459 262.133 304.459 261V260.38C304.459 259.34 303.986 258.82 303.039 258.82C302.106 258.82 301.639 259.32 301.639 260.32V261.02H299.499V260.5C299.499 259.3 299.806 258.387 300.419 257.76C301.032 257.12 301.932 256.8 303.119 256.8C304.292 256.8 305.186 257.107 305.799 257.72C306.412 258.333 306.719 259.22 306.719 260.38V260.76C306.719 262.213 306.126 263.153 304.939 263.58V263.6C306.166 264.027 306.779 265.053 306.779 266.68V267.48C306.779 269.96 305.552 271.2 303.099 271.2ZM308.254 267.44V260.56C308.254 259.36 308.574 258.433 309.214 257.78C309.867 257.127 310.794 256.8 311.994 256.8C313.207 256.8 314.134 257.127 314.774 257.78C315.427 258.433 315.754 259.36 315.754 260.56V267.44C315.754 268.64 315.427 269.567 314.774 270.22C314.12 270.873 313.194 271.2 311.994 271.2C310.794 271.2 309.867 270.873 309.214 270.22C308.574 269.567 308.254 268.64 308.254 267.44ZM311.994 269.18C312.98 269.18 313.474 268.64 313.474 267.56V260.44C313.474 259.36 312.98 258.82 311.994 258.82C311.02 258.82 310.534 259.36 310.534 260.44V267.56C310.534 268.64 311.02 269.18 311.994 269.18ZM321.475 271H317.555V257H321.275C322.528 257 323.448 257.273 324.035 257.82C324.635 258.367 324.935 259.207 324.935 260.34V260.76C324.935 262.187 324.381 263.113 323.275 263.54V263.6C324.541 263.987 325.175 265.02 325.175 266.7V267.42C325.175 269.807 323.941 271 321.475 271ZM319.835 259.02V262.74H320.975C321.548 262.74 321.968 262.613 322.235 262.36C322.515 262.093 322.655 261.68 322.655 261.12V260.6C322.655 260.04 322.541 259.64 322.315 259.4C322.088 259.147 321.715 259.02 321.195 259.02H319.835ZM319.835 264.76V268.98H321.475C321.968 268.98 322.328 268.86 322.555 268.62C322.781 268.367 322.895 267.96 322.895 267.4V266.62C322.895 265.927 322.761 265.447 322.495 265.18C322.228 264.9 321.761 264.76 321.095 264.76H319.835ZM97.46 287V298.98H98.66V302.88H96.38V301H90.64V302.88H88.38V298.98H89.68C89.9733 298.687 90.14 298.14 90.18 297.34L90.6 287H97.46ZM91.84 298.98H95.18V289.02H92.74L92.46 297.22C92.4333 297.94 92.2267 298.527 91.84 298.98ZM100.056 301.02C99.7756 301.02 99.5556 300.993 99.3956 300.94V298.96C99.5556 299 99.709 299.02 99.8556 299.02C100.349 299.02 100.689 298.9 100.876 298.66C101.076 298.407 101.189 297.973 101.216 297.36L101.636 287H108.476V301H106.216V289.02H103.776L103.476 297.42C103.436 298.673 103.149 299.587 102.616 300.16C102.082 300.733 101.229 301.02 100.056 301.02ZM117.684 287V301H115.404V295.08H114.364C113.724 295.08 113.271 295.22 113.004 295.5C112.751 295.78 112.624 296.267 112.624 296.96V299.16C112.624 299.947 112.551 300.56 112.404 301H110.104C110.278 300.573 110.364 299.967 110.364 299.18V297.1C110.364 296.18 110.498 295.473 110.764 294.98C111.031 294.473 111.464 294.133 112.064 293.96V293.9C110.944 293.487 110.384 292.533 110.384 291.04V290.36C110.384 289.213 110.678 288.367 111.264 287.82C111.864 287.273 112.791 287 114.044 287H117.684ZM114.324 293.06H115.404V289.02H114.084C113.591 289.02 113.231 289.147 113.004 289.4C112.778 289.653 112.664 290.053 112.664 290.6V291.4C112.664 291.987 112.798 292.413 113.064 292.68C113.331 292.933 113.751 293.06 114.324 293.06ZM125.382 301H123.102V287H126.722C129.175 287 130.402 288.213 130.402 290.64V291.68C130.402 294.107 129.175 295.32 126.722 295.32H125.382V301ZM125.382 289.02V293.32H126.722C127.215 293.32 127.568 293.2 127.782 292.96C128.008 292.707 128.122 292.3 128.122 291.74V290.56C128.122 290 128.008 289.607 127.782 289.38C127.568 289.14 127.215 289.02 126.722 289.02H125.382ZM138.63 301H131.91V287H138.63V289.02H134.19V292.78H137.75V294.8H134.19V298.98H138.63V301ZM147.992 301H145.672L145.212 298.28H142.132L141.652 301H139.532L142.212 287H145.292L147.992 301ZM143.672 289.36L142.472 296.3H144.872L143.672 289.36ZM149.45 301.02C149.17 301.02 148.95 300.993 148.79 300.94V298.96C148.95 299 149.103 299.02 149.25 299.02C149.743 299.02 150.083 298.9 150.27 298.66C150.47 298.407 150.583 297.973 150.61 297.36L151.03 287H157.87V301H155.61V289.02H153.17L152.87 297.42C152.83 298.673 152.543 299.587 152.01 300.16C151.477 300.733 150.623 301.02 149.45 301.02ZM161.919 296.36L165.299 287H167.619V301H165.559V291.6L162.199 301H159.879V287H161.919V296.36ZM172.845 301.2C171.645 301.2 170.732 300.887 170.105 300.26C169.478 299.62 169.165 298.7 169.165 297.5V296.56H171.305V297.54C171.305 298.633 171.798 299.18 172.785 299.18C173.305 299.18 173.678 299.047 173.905 298.78C174.145 298.5 174.265 298.047 174.265 297.42V296.66C174.265 295.967 174.125 295.473 173.845 295.18C173.578 294.873 173.132 294.72 172.505 294.72H171.645V292.7H172.565C173.658 292.7 174.205 292.133 174.205 291V290.38C174.205 289.34 173.732 288.82 172.785 288.82C171.852 288.82 171.385 289.32 171.385 290.32V291.02H169.245V290.5C169.245 289.3 169.552 288.387 170.165 287.76C170.778 287.12 171.678 286.8 172.865 286.8C174.038 286.8 174.932 287.107 175.545 287.72C176.158 288.333 176.465 289.22 176.465 290.38V290.76C176.465 292.213 175.872 293.153 174.685 293.58V293.6C175.912 294.027 176.525 295.053 176.525 296.68V297.48C176.525 299.96 175.298 301.2 172.845 301.2ZM185.843 301H183.523L183.063 298.28H179.983L179.503 301H177.383L180.063 287H183.143L185.843 301ZM181.523 289.36L180.323 296.3H182.723L181.523 289.36ZM196.084 302.88H193.804V301H187.184V287H189.464V298.98H192.484V287H194.764V298.98H196.084V302.88ZM199.478 296.36L202.858 287H205.178V301H203.118V291.6L199.758 301H197.438V287H199.478V296.36ZM209.224 296.36L212.604 287H214.924V301H212.864V291.6L209.504 301H207.184V287H209.224V296.36ZM226.488 300.24C225.861 300.88 224.968 301.2 223.808 301.2C222.648 301.2 221.748 300.88 221.108 300.24C220.481 299.587 220.168 298.673 220.168 297.5V290.5C220.168 289.327 220.481 288.42 221.108 287.78C221.748 287.127 222.648 286.8 223.808 286.8C224.968 286.8 225.861 287.127 226.488 287.78C227.114 288.42 227.428 289.327 227.428 290.5V291.74H225.288V290.4C225.288 289.32 224.814 288.78 223.868 288.78C222.921 288.78 222.448 289.32 222.448 290.4V297.6C222.448 298.68 222.921 299.22 223.868 299.22C224.814 299.22 225.288 298.68 225.288 297.6V295.84H227.428V297.5C227.428 298.673 227.114 299.587 226.488 300.24ZM232.959 301H229.039V287H232.759C234.012 287 234.932 287.273 235.519 287.82C236.119 288.367 236.419 289.207 236.419 290.34V290.76C236.419 292.187 235.866 293.113 234.759 293.54V293.6C236.026 293.987 236.659 295.02 236.659 296.7V297.42C236.659 299.807 235.426 301 232.959 301ZM231.319 289.02V292.74H232.459C233.032 292.74 233.452 292.613 233.719 292.36C233.999 292.093 234.139 291.68 234.139 291.12V290.6C234.139 290.04 234.026 289.64 233.799 289.4C233.572 289.147 233.199 289.02 232.679 289.02H231.319ZM231.319 294.76V298.98H232.959C233.452 298.98 233.812 298.86 234.039 298.62C234.266 298.367 234.379 297.96 234.379 297.4V296.62C234.379 295.927 234.246 295.447 233.979 295.18C233.712 294.9 233.246 294.76 232.579 294.76H231.319ZM238.078 297.44V290.56C238.078 289.36 238.398 288.433 239.038 287.78C239.691 287.127 240.618 286.8 241.818 286.8C243.031 286.8 243.958 287.127 244.598 287.78C245.251 288.433 245.578 289.36 245.578 290.56V297.44C245.578 298.64 245.251 299.567 244.598 300.22C243.944 300.873 243.018 301.2 241.818 301.2C240.618 301.2 239.691 300.873 239.038 300.22C238.398 299.567 238.078 298.64 238.078 297.44ZM241.818 299.18C242.804 299.18 243.298 298.64 243.298 297.56V290.44C243.298 289.36 242.804 288.82 241.818 288.82C240.844 288.82 240.358 289.36 240.358 290.44V297.56C240.358 298.64 240.844 299.18 241.818 299.18ZM249.419 296.36L252.799 287H255.119V301H253.059V291.6L249.699 301H247.379V287H249.419V296.36ZM258.625 301H256.465L259.425 293.82L256.585 287H259.025L260.825 291.7L262.685 287H264.885L262.045 293.82L265.005 301H262.585L260.625 295.94L258.625 301ZM271.802 296.36L275.182 287H277.502V301H275.442V291.6L272.082 301H269.762V287H271.802V296.36ZM287.968 287V298.98H289.168V302.88H286.888V301H281.148V302.88H278.888V298.98H280.188C280.481 298.687 280.648 298.14 280.688 297.34L281.108 287H287.968ZM282.348 298.98H285.688V289.02H283.248L282.968 297.22C282.941 297.94 282.734 298.527 282.348 298.98ZM297.243 301H290.523V287H297.243V289.02H292.803V292.78H296.363V294.8H292.803V298.98H297.243V301ZM302.606 285.86C301.819 285.86 301.199 285.64 300.746 285.2C300.293 284.747 300.053 284.133 300.026 283.36H301.406C301.473 284.027 301.873 284.36 302.606 284.36C303.339 284.36 303.759 284.027 303.866 283.36H305.206C305.179 284.133 304.939 284.747 304.486 285.2C304.033 285.64 303.406 285.86 302.606 285.86ZM300.786 296.36L304.166 287H306.486V301H304.426V291.6L301.066 301H298.746V287H300.786V296.36Z" fill="white"/>
<g filter="url(#filter2_ddddd_704_391002)">
<ellipse cx="282" cy="182.5" rx="22" ry="5.5" fill="#DDBA63"/>
<path d="M281.998 129.749C276.53 129.756 271.288 131.931 267.421 135.797C263.555 139.664 261.38 144.906 261.373 150.374C261.373 168.022 280.123 181.352 280.921 181.911C281.237 182.131 281.613 182.249 281.998 182.249C282.383 182.249 282.759 182.131 283.075 181.911C283.873 181.352 302.623 168.022 302.623 150.374C302.617 144.906 300.441 139.664 296.575 135.797C292.708 131.931 287.466 129.756 281.998 129.749V129.749ZM281.999 142.875C283.483 142.875 284.933 143.315 286.166 144.139C287.4 144.963 288.361 146.134 288.929 147.505C289.496 148.875 289.645 150.383 289.355 151.838C289.066 153.293 288.352 154.629 287.303 155.678C286.254 156.727 284.917 157.441 283.463 157.731C282.008 158.02 280.5 157.872 279.129 157.304C277.759 156.736 276.588 155.775 275.763 154.542C274.939 153.308 274.499 151.858 274.499 150.375C274.499 149.39 274.693 148.415 275.07 147.505C275.447 146.595 276 145.768 276.696 145.072C277.393 144.375 278.219 143.823 279.129 143.446C280.039 143.069 281.014 142.875 281.999 142.875V142.875Z" fill="#FFF9DA"/>
<ellipse cx="282" cy="150.5" rx="13" ry="12.5" fill="#C74403"/>
<path d="M285.129 158H278.769V156.48C278.769 155.44 278.929 154.553 279.249 153.82C279.569 153.087 280.142 152.287 280.969 151.42C281.822 150.5 282.389 149.773 282.669 149.24C282.976 148.653 283.129 148.04 283.129 147.4C283.129 146.813 283.036 146.4 282.849 146.16C282.662 145.92 282.376 145.8 281.989 145.8C281.229 145.8 280.849 146.26 280.849 147.18V148.68H278.769V147.32C278.769 146.187 279.049 145.32 279.609 144.72C280.169 144.107 280.982 143.8 282.049 143.8C283.116 143.8 283.929 144.107 284.489 144.72C285.049 145.32 285.329 146.187 285.329 147.32C285.329 148.187 285.122 149.013 284.709 149.8C284.296 150.613 283.596 151.54 282.609 152.58C281.969 153.26 281.529 153.82 281.289 154.26C281.062 154.7 280.949 155.18 280.949 155.7V156H285.129V158Z" fill="white"/>
</g>
<path d="M339.28 149H337V135H344.58V149H342.3V137.02H339.28V149ZM346.39 145.44V138.56C346.39 137.36 346.71 136.433 347.35 135.78C348.004 135.127 348.93 134.8 350.13 134.8C351.344 134.8 352.27 135.127 352.91 135.78C353.564 136.433 353.89 137.36 353.89 138.56V145.44C353.89 146.64 353.564 147.567 352.91 148.22C352.257 148.873 351.33 149.2 350.13 149.2C348.93 149.2 348.004 148.873 347.35 148.22C346.71 147.567 346.39 146.64 346.39 145.44ZM350.13 147.18C351.117 147.18 351.61 146.64 351.61 145.56V138.44C351.61 137.36 351.117 136.82 350.13 136.82C349.157 136.82 348.67 137.36 348.67 138.44V145.56C348.67 146.64 349.157 147.18 350.13 147.18ZM358.911 149.2C357.711 149.2 356.798 148.887 356.171 148.26C355.545 147.62 355.231 146.7 355.231 145.5V144.56H357.371V145.54C357.371 146.633 357.865 147.18 358.851 147.18C359.371 147.18 359.745 147.047 359.971 146.78C360.211 146.5 360.331 146.047 360.331 145.42V144.66C360.331 143.967 360.191 143.473 359.911 143.18C359.645 142.873 359.198 142.72 358.571 142.72H357.711V140.7H358.631C359.725 140.7 360.271 140.133 360.271 139V138.38C360.271 137.34 359.798 136.82 358.851 136.82C357.918 136.82 357.451 137.32 357.451 138.32V139.02H355.311V138.5C355.311 137.3 355.618 136.387 356.231 135.76C356.845 135.12 357.745 134.8 358.931 134.8C360.105 134.8 360.998 135.107 361.611 135.72C362.225 136.333 362.531 137.22 362.531 138.38V138.76C362.531 140.213 361.938 141.153 360.751 141.58V141.6C361.978 142.027 362.591 143.053 362.591 144.68V145.48C362.591 147.96 361.365 149.2 358.911 149.2ZM364.066 145.44V138.56C364.066 137.36 364.386 136.433 365.026 135.78C365.679 135.127 366.606 134.8 367.806 134.8C369.019 134.8 369.946 135.127 370.586 135.78C371.239 136.433 371.566 137.36 371.566 138.56V145.44C371.566 146.64 371.239 147.567 370.586 148.22C369.933 148.873 369.006 149.2 367.806 149.2C366.606 149.2 365.679 148.873 365.026 148.22C364.386 147.567 364.066 146.64 364.066 145.44ZM367.806 147.18C368.793 147.18 369.286 146.64 369.286 145.56V138.44C369.286 137.36 368.793 136.82 367.806 136.82C366.833 136.82 366.346 137.36 366.346 138.44V145.56C366.346 146.64 366.833 147.18 367.806 147.18ZM377.287 149H373.367V135H377.087C378.341 135 379.261 135.273 379.847 135.82C380.447 136.367 380.747 137.207 380.747 138.34V138.76C380.747 140.187 380.194 141.113 379.087 141.54V141.6C380.354 141.987 380.987 143.02 380.987 144.7V145.42C380.987 147.807 379.754 149 377.287 149ZM375.647 137.02V140.74H376.787C377.361 140.74 377.781 140.613 378.047 140.36C378.327 140.093 378.467 139.68 378.467 139.12V138.6C378.467 138.04 378.354 137.64 378.127 137.4C377.901 137.147 377.527 137.02 377.007 137.02H375.647ZM375.647 142.76V146.98H377.287C377.781 146.98 378.141 146.86 378.367 146.62C378.594 146.367 378.707 145.96 378.707 145.4V144.62C378.707 143.927 378.574 143.447 378.307 143.18C378.041 142.9 377.574 142.76 376.907 142.76H375.647ZM384.626 144.36L388.006 135H390.326V149H388.266V139.6L384.906 149H382.586V135H384.626V144.36ZM404.21 135V146.98H405.41V150.88H403.13V149H397.39V150.88H395.13V146.98H396.43C396.723 146.687 396.89 146.14 396.93 145.34L397.35 135H404.21ZM398.59 146.98H401.93V137.02H399.49L399.21 145.22C399.183 145.94 398.977 146.527 398.59 146.98ZM409.046 149H406.766V135H410.386C412.839 135 414.066 136.213 414.066 138.64V139.68C414.066 142.107 412.839 143.32 410.386 143.32H409.046V149ZM409.046 137.02V141.32H410.386C410.879 141.32 411.232 141.2 411.446 140.96C411.672 140.707 411.786 140.3 411.786 139.74V138.56C411.786 138 411.672 137.607 411.446 137.38C411.232 137.14 410.879 137.02 410.386 137.02H409.046ZM419.06 142.56L420.86 135H423.04L420.02 146.62C419.78 147.54 419.4 148.2 418.88 148.6C418.36 149 417.627 149.2 416.68 149.2C416.134 149.2 415.674 149.127 415.3 148.98V147.02C415.62 147.127 415.967 147.18 416.34 147.18C416.767 147.18 417.087 147.12 417.3 147C417.514 146.867 417.674 146.64 417.78 146.32L417.88 145.96L414.72 135H417.08L419.06 142.56ZM427.329 149.2C426.129 149.2 425.216 148.887 424.589 148.26C423.963 147.62 423.649 146.7 423.649 145.5V144.56H425.789V145.54C425.789 146.633 426.283 147.18 427.269 147.18C427.789 147.18 428.163 147.047 428.389 146.78C428.629 146.5 428.749 146.047 428.749 145.42V144.66C428.749 143.967 428.609 143.473 428.329 143.18C428.063 142.873 427.616 142.72 426.989 142.72H426.129V140.7H427.049C428.143 140.7 428.689 140.133 428.689 139V138.38C428.689 137.34 428.216 136.82 427.269 136.82C426.336 136.82 425.869 137.32 425.869 138.32V139.02H423.729V138.5C423.729 137.3 424.036 136.387 424.649 135.76C425.263 135.12 426.163 134.8 427.349 134.8C428.523 134.8 429.416 135.107 430.029 135.72C430.643 136.333 430.949 137.22 430.949 138.38V138.76C430.949 140.213 430.356 141.153 429.169 141.58V141.6C430.396 142.027 431.009 143.053 431.009 144.68V145.48C431.009 147.96 429.783 149.2 427.329 149.2ZM439.384 149H432.664V135H439.384V137.02H434.944V140.78H438.504V142.8H434.944V146.98H439.384V149ZM444.747 133.86C443.96 133.86 443.34 133.64 442.887 133.2C442.433 132.747 442.193 132.133 442.167 131.36H443.547C443.613 132.027 444.013 132.36 444.747 132.36C445.48 132.36 445.9 132.027 446.007 131.36H447.347C447.32 132.133 447.08 132.747 446.627 133.2C446.173 133.64 445.547 133.86 444.747 133.86ZM442.927 144.36L446.307 135H448.627V149H446.567V139.6L443.207 149H440.887V135H442.927V144.36ZM456.331 149H454.051V135H461.631V149H459.351V137.02H456.331V149ZM463.441 145.44V138.56C463.441 137.36 463.761 136.433 464.401 135.78C465.054 135.127 465.981 134.8 467.181 134.8C468.394 134.8 469.321 135.127 469.961 135.78C470.614 136.433 470.941 137.36 470.941 138.56V145.44C470.941 146.64 470.614 147.567 469.961 148.22C469.308 148.873 468.381 149.2 467.181 149.2C465.981 149.2 465.054 148.873 464.401 148.22C463.761 147.567 463.441 146.64 463.441 145.44ZM467.181 147.18C468.168 147.18 468.661 146.64 468.661 145.56V138.44C468.661 137.36 468.168 136.82 467.181 136.82C466.208 136.82 465.721 137.36 465.721 138.44V145.56C465.721 146.64 466.208 147.18 467.181 147.18ZM481.105 135V146.98H482.305V150.88H480.025V149H474.285V150.88H472.025V146.98H473.325C473.618 146.687 473.785 146.14 473.825 145.34L474.245 135H481.105ZM475.485 146.98H478.825V137.02H476.385L476.105 145.22C476.078 145.94 475.871 146.527 475.485 146.98ZM492.12 135V146.98H493.32V150.88H491.04V149H485.3V150.88H483.04V146.98H484.34C484.633 146.687 484.8 146.14 484.84 145.34L485.26 135H492.12ZM486.5 146.98H489.84V137.02H487.4L487.12 145.22C487.093 145.94 486.887 146.527 486.5 146.98ZM501.396 149H494.676V135H501.396V137.02H496.956V140.78H500.516V142.8H496.956V146.98H501.396V149ZM505.178 149H502.898V135H506.518C508.972 135 510.198 136.213 510.198 138.64V139.68C510.198 142.107 508.972 143.32 506.518 143.32H505.178V149ZM505.178 137.02V141.32H506.518C507.012 141.32 507.365 141.2 507.578 140.96C507.805 140.707 507.918 140.3 507.918 139.74V138.56C507.918 138 507.805 137.607 507.578 137.38C507.365 137.14 507.012 137.02 506.518 137.02H505.178ZM523.861 149H521.581L519.421 142.2L518.321 144.1V149H516.041V144.1L514.941 142.2L512.781 149H510.481L513.441 140.2L510.521 135H512.881L516.041 141.06V135H518.321V141.06L521.501 135H523.821L520.921 140.22L523.861 149ZM533.023 149H530.703L530.243 146.28H527.163L526.683 149H524.563L527.243 135H530.323L533.023 149ZM528.703 137.36L527.503 144.3H529.903L528.703 137.36ZM537.57 149H535.31V137.02H532.63V135H540.25V137.02H537.57V149ZM545.269 149H541.629V135H543.909V140.4H545.269C547.722 140.4 548.949 141.633 548.949 144.1V145.3C548.949 147.767 547.722 149 545.269 149ZM543.909 142.42V146.98H545.269C545.749 146.98 546.102 146.86 546.329 146.62C546.556 146.367 546.669 145.967 546.669 145.42V143.98C546.669 143.433 546.556 143.04 546.329 142.8C546.102 142.547 545.749 142.42 545.269 142.42H543.909ZM341.32 179H339.06V167.02H336.38V165H344V167.02H341.32V179ZM349.299 179H345.379V165H349.099C350.352 165 351.272 165.273 351.859 165.82C352.459 166.367 352.759 167.207 352.759 168.34V168.76C352.759 170.187 352.206 171.113 351.099 171.54V171.6C352.366 171.987 352.999 173.02 352.999 174.7V175.42C352.999 177.807 351.766 179 349.299 179ZM347.659 167.02V170.74H348.799C349.372 170.74 349.792 170.613 350.059 170.36C350.339 170.093 350.479 169.68 350.479 169.12V168.6C350.479 168.04 350.366 167.64 350.139 167.4C349.912 167.147 349.539 167.02 349.019 167.02H347.659ZM347.659 172.76V176.98H349.299C349.792 176.98 350.152 176.86 350.379 176.62C350.606 176.367 350.719 175.96 350.719 175.4V174.62C350.719 173.927 350.586 173.447 350.319 173.18C350.052 172.9 349.586 172.76 348.919 172.76H347.659ZM354.418 175.44V168.56C354.418 167.36 354.738 166.433 355.378 165.78C356.031 165.127 356.958 164.8 358.158 164.8C359.371 164.8 360.298 165.127 360.938 165.78C361.591 166.433 361.918 167.36 361.918 168.56V175.44C361.918 176.64 361.591 177.567 360.938 178.22C360.284 178.873 359.358 179.2 358.158 179.2C356.958 179.2 356.031 178.873 355.378 178.22C354.738 177.567 354.418 176.64 354.418 175.44ZM358.158 177.18C359.144 177.18 359.638 176.64 359.638 175.56V168.44C359.638 167.36 359.144 166.82 358.158 166.82C357.184 166.82 356.698 167.36 356.698 168.44V175.56C356.698 176.64 357.184 177.18 358.158 177.18ZM365.759 174.36L369.139 165H371.459V179H369.399V169.6L366.039 179H363.719V165H365.759V174.36ZM376.703 175.44V168.56C376.703 167.36 377.023 166.433 377.663 165.78C378.316 165.127 379.243 164.8 380.443 164.8C381.656 164.8 382.583 165.127 383.223 165.78C383.876 166.433 384.203 167.36 384.203 168.56V175.44C384.203 176.64 383.876 177.567 383.223 178.22C382.569 178.873 381.643 179.2 380.443 179.2C379.243 179.2 378.316 178.873 377.663 178.22C377.023 177.567 376.703 176.64 376.703 175.44ZM380.443 177.18C381.429 177.18 381.923 176.64 381.923 175.56V168.44C381.923 167.36 381.429 166.82 380.443 166.82C379.469 166.82 378.983 167.36 378.983 168.44V175.56C378.983 176.64 379.469 177.18 380.443 177.18ZM390.246 179H387.986V167.02H385.306V165H392.926V167.02H390.246V179ZM402.405 179H400.005L397.785 172.6L396.585 174.58V179H394.305V165H396.585V171.16L400.045 165H402.365L399.325 170.2L402.405 179ZM406.018 179H403.738V165H407.358C409.812 165 411.038 166.213 411.038 168.64V169.68C411.038 172.107 409.812 173.32 407.358 173.32H406.018V179ZM406.018 167.02V171.32H407.358C407.852 171.32 408.205 171.2 408.418 170.96C408.645 170.707 408.758 170.3 408.758 169.74V168.56C408.758 168 408.645 167.607 408.418 167.38C408.205 167.14 407.852 167.02 407.358 167.02H406.018ZM416.187 179H412.547V165H414.827V170.4H416.187C418.64 170.4 419.867 171.633 419.867 174.1V175.3C419.867 177.767 418.64 179 416.187 179ZM423.667 179H421.387V165H423.667V179ZM414.827 172.42V176.98H416.187C416.667 176.98 417.02 176.86 417.247 176.62C417.474 176.367 417.587 175.967 417.587 175.42V173.98C417.587 173.433 417.474 173.04 417.247 172.8C417.02 172.547 416.667 172.42 416.187 172.42H414.827ZM429.992 179H427.732V167.02H425.052V165H432.672V167.02H429.992V179ZM436.091 174.36L439.471 165H441.791V179H439.731V169.6L436.371 179H434.051V165H436.091V174.36ZM450.997 165V179H448.717V173.08H447.677C447.037 173.08 446.584 173.22 446.317 173.5C446.064 173.78 445.937 174.267 445.937 174.96V177.16C445.937 177.947 445.864 178.56 445.717 179H443.417C443.59 178.573 443.677 177.967 443.677 177.18V175.1C443.677 174.18 443.81 173.473 444.077 172.98C444.344 172.473 444.777 172.133 445.377 171.96V171.9C444.257 171.487 443.697 170.533 443.697 169.04V168.36C443.697 167.213 443.99 166.367 444.577 165.82C445.177 165.273 446.104 165 447.357 165H450.997ZM447.637 171.06H448.717V167.02H447.397C446.904 167.02 446.544 167.147 446.317 167.4C446.09 167.653 445.977 168.053 445.977 168.6V169.4C445.977 169.987 446.11 170.413 446.377 170.68C446.644 170.933 447.064 171.06 447.637 171.06Z" fill="white"/>
<path opacity="0.4" d="M233.5 150.5C200.192 141.353 190.305 206.416 119.599 182.321C48.8937 158.227 29.9953 199.26 34.6699 218" stroke="#FFF8D9" stroke-width="2" stroke-linecap="round" stroke-dasharray="6 6"/>
<path opacity="0.4" d="M355 271.766C600.176 264.828 382.864 294.496 426 382.5" stroke="#FFF8D9" stroke-width="2" stroke-linecap="round" stroke-dasharray="6 6"/>
<path opacity="0.4" d="M438.5 22C479.034 14.5919 527.568 43.6142 491.5 75.4997C455.432 107.385 283.5 68.6759 283.5 110.5" stroke="#FFF8D9" stroke-width="2" stroke-linecap="round" stroke-dasharray="6 6"/>
<defs>
<filter id="filter0_ddddd_704_391002" x="90" y="0" width="114" height="109" filterUnits="userSpaceOnUse" color-interpolation-filters="sRGB">
<feFlood flood-opacity="0" result="BackgroundImageFix"/>
<feColorMatrix in="SourceAlpha" type="matrix" values="0 0 0 0 0 0 0 0 0 0 0 0 0 0 0 0 0 0 127 0" result="hardAlpha"/>
<feOffset/>
<feColorMatrix type="matrix" values="0 0 0 0 0.0745098 0 0 0 0 0.12549 0 0 0 0 0.0823529 0 0 0 0.2 0"/>
<feBlend mode="normal" in2="BackgroundImageFix" result="effect1_dropShadow_704_391002"/>
<feColorMatrix in="SourceAlpha" type="matrix" values="0 0 0 0 0 0 0 0 0 0 0 0 0 0 0 0 0 0 127 0" result="hardAlpha"/>
<feOffset dx="2" dy="2"/>
<feGaussianBlur stdDeviation="3"/>
<feColorMatrix type="matrix" values="0 0 0 0 0.0745098 0 0 0 0 0.12549 0 0 0 0 0.0823529 0 0 0 0.2 0"/>
<feBlend mode="normal" in2="effect1_dropShadow_704_391002" result="effect2_dropShadow_704_391002"/>
<feColorMatrix in="SourceAlpha" type="matrix" values="0 0 0 0 0 0 0 0 0 0 0 0 0 0 0 0 0 0 127 0" result="hardAlpha"/>
<feOffset dx="8" dy="7"/>
<feGaussianBlur stdDeviation="5"/>
<feColorMatrix type="matrix" values="0 0 0 0 0.0745098 0 0 0 0 0.12549 0 0 0 0 0.0823529 0 0 0 0.17 0"/>
<feBlend mode="normal" in2="effect2_dropShadow_704_391002" result="effect3_dropShadow_704_391002"/>
<feColorMatrix in="SourceAlpha" type="matrix" values="0 0 0 0 0 0 0 0 0 0 0 0 0 0 0 0 0 0 127 0" result="hardAlpha"/>
<feOffset dx="18" dy="15"/>
<feGaussianBlur stdDeviation="7"/>
<feColorMatrix type="matrix" values="0 0 0 0 0.0745098 0 0 0 0 0.12549 0 0 0 0 0.0823529 0 0 0 0.1 0"/>
<feBlend mode="normal" in2="effect3_dropShadow_704_391002" result="effect4_dropShadow_704_391002"/>
<feColorMatrix in="SourceAlpha" type="matrix" values="0 0 0 0 0 0 0 0 0 0 0 0 0 0 0 0 0 0 127 0" result="hardAlpha"/>
<feOffset dx="33" dy="26"/>
<feGaussianBlur stdDeviation="8.5"/>
<feColorMatrix type="matrix" values="0 0 0 0 0.0745098 0 0 0 0 0.12549 0 0 0 0 0.0823529 0 0 0 0.03 0"/>
<feBlend mode="normal" in2="effect4_dropShadow_704_391002" result="effect5_dropShadow_704_391002"/>
<feBlend mode="normal" in="SourceGraphic" in2="effect5_dropShadow_704_391002" result="shape"/>
</filter>
<filter id="filter1_ddddd_704_391002" x="0" y="244" width="114" height="109" filterUnits="userSpaceOnUse" color-interpolation-filters="sRGB">
<feFlood flood-opacity="0" result="BackgroundImageFix"/>
<feColorMatrix in="SourceAlpha" type="matrix" values="0 0 0 0 0 0 0 0 0 0 0 0 0 0 0 0 0 0 127 0" result="hardAlpha"/>
<feOffset/>
<feColorMatrix type="matrix" values="0 0 0 0 0.0745098 0 0 0 0 0.12549 0 0 0 0 0.0823529 0 0 0 0.2 0"/>
<feBlend mode="normal" in2="BackgroundImageFix" result="effect1_dropShadow_704_391002"/>
<feColorMatrix in="SourceAlpha" type="matrix" values="0 0 0 0 0 0 0 0 0 0 0 0 0 0 0 0 0 0 127 0" result="hardAlpha"/>
<feOffset dx="2" dy="2"/>
<feGaussianBlur stdDeviation="3"/>
<feColorMatrix type="matrix" values="0 0 0 0 0.0745098 0 0 0 0 0.12549 0 0 0 0 0.0823529 0 0 0 0.2 0"/>
<feBlend mode="normal" in2="effect1_dropShadow_704_391002" result="effect2_dropShadow_704_391002"/>
<feColorMatrix in="SourceAlpha" type="matrix" values="0 0 0 0 0 0 0 0 0 0 0 0 0 0 0 0 0 0 127 0" result="hardAlpha"/>
<feOffset dx="8" dy="7"/>
<feGaussianBlur stdDeviation="5"/>
<feColorMatrix type="matrix" values="0 0 0 0 0.0745098 0 0 0 0 0.12549 0 0 0 0 0.0823529 0 0 0 0.17 0"/>
<feBlend mode="normal" in2="effect2_dropShadow_704_391002" result="effect3_dropShadow_704_391002"/>
<feColorMatrix in="SourceAlpha" type="matrix" values="0 0 0 0 0 0 0 0 0 0 0 0 0 0 0 0 0 0 127 0" result="hardAlpha"/>
<feOffset dx="18" dy="15"/>
<feGaussianBlur stdDeviation="7"/>
<feColorMatrix type="matrix" values="0 0 0 0 0.0745098 0 0 0 0 0.12549 0 0 0 0 0.0823529 0 0 0 0.1 0"/>
<feBlend mode="normal" in2="effect3_dropShadow_704_391002" result="effect4_dropShadow_704_391002"/>
<feColorMatrix in="SourceAlpha" type="matrix" values="0 0 0 0 0 0 0 0 0 0 0 0 0 0 0 0 0 0 127 0" result="hardAlpha"/>
<feOffset dx="33" dy="26"/>
<feGaussianBlur stdDeviation="8.5"/>
<feColorMatrix type="matrix" values="0 0 0 0 0.0745098 0 0 0 0 0.12549 0 0 0 0 0.0823529 0 0 0 0.03 0"/>
<feBlend mode="normal" in2="effect4_dropShadow_704_391002" result="effect5_dropShadow_704_391002"/>
<feBlend mode="normal" in="SourceGraphic" in2="effect5_dropShadow_704_391002" result="shape"/>
</filter>
<filter id="filter2_ddddd_704_391002" x="248" y="122" width="114" height="109" filterUnits="userSpaceOnUse" color-interpolation-filters="sRGB">
<feFlood flood-opacity="0" result="BackgroundImageFix"/>
<feColorMatrix in="SourceAlpha" type="matrix" values="0 0 0 0 0 0 0 0 0 0 0 0 0 0 0 0 0 0 127 0" result="hardAlpha"/>
<feOffset/>
<feColorMatrix type="matrix" values="0 0 0 0 0.0745098 0 0 0 0 0.12549 0 0 0 0 0.0823529 0 0 0 0.2 0"/>
<feBlend mode="normal" in2="BackgroundImageFix" result="effect1_dropShadow_704_391002"/>
<feColorMatrix in="SourceAlpha" type="matrix" values="0 0 0 0 0 0 0 0 0 0 0 0 0 0 0 0 0 0 127 0" result="hardAlpha"/>
<feOffset dx="2" dy="2"/>
<feGaussianBlur stdDeviation="3"/>
<feColorMatrix type="matrix" values="0 0 0 0 0.0745098 0 0 0 0 0.12549 0 0 0 0 0.0823529 0 0 0 0.2 0"/>
<feBlend mode="normal" in2="effect1_dropShadow_704_391002" result="effect2_dropShadow_704_391002"/>
<feColorMatrix in="SourceAlpha" type="matrix" values="0 0 0 0 0 0 0 0 0 0 0 0 0 0 0 0 0 0 127 0" result="hardAlpha"/>
<feOffset dx="8" dy="7"/>
<feGaussianBlur stdDeviation="5"/>
<feColorMatrix type="matrix" values="0 0 0 0 0.0745098 0 0 0 0 0.12549 0 0 0 0 0.0823529 0 0 0 0.17 0"/>
<feBlend mode="normal" in2="effect2_dropShadow_704_391002" result="effect3_dropShadow_704_391002"/>
<feColorMatrix in="SourceAlpha" type="matrix" values="0 0 0 0 0 0 0 0 0 0 0 0 0 0 0 0 0 0 127 0" result="hardAlpha"/>
<feOffset dx="18" dy="15"/>
<feGaussianBlur stdDeviation="7"/>
<feColorMatrix type="matrix" values="0 0 0 0 0.0745098 0 0 0 0 0.12549 0 0 0 0 0.0823529 0 0 0 0.1 0"/>
<feBlend mode="normal" in2="effect3_dropShadow_704_391002" result="effect4_dropShadow_704_391002"/>
<feColorMatrix in="SourceAlpha" type="matrix" values="0 0 0 0 0 0 0 0 0 0 0 0 0 0 0 0 0 0 127 0" result="hardAlpha"/>
<feOffset dx="33" dy="26"/>
<feGaussianBlur stdDeviation="8.5"/>
<feColorMatrix type="matrix" values="0 0 0 0 0.0745098 0 0 0 0 0.12549 0 0 0 0 0.0823529 0 0 0 0.03 0"/>
<feBlend mode="normal" in2="effect4_dropShadow_704_391002" result="effect5_dropShadow_704_391002"/>
<feBlend mode="normal" in="SourceGraphic" in2="effect5_dropShadow_704_391002" result="shape"/>
</filter>
</defs>
</svg>
