<svg width="600" height="384" viewBox="0 0 600 384" fill="none" xmlns="http://www.w3.org/2000/svg">
<g filter="url(#filter0_ddddd_508_403840)">
<ellipse cx="329" cy="182.5" rx="22" ry="5.5" fill="#DDBA63"/>
<path d="M328.999 129.749C323.531 129.756 318.289 131.931 314.422 135.797C310.556 139.664 308.381 144.906 308.374 150.374C308.374 168.022 327.124 181.352 327.922 181.911C328.238 182.131 328.614 182.249 328.999 182.249C329.384 182.249 329.76 182.131 330.076 181.911C330.874 181.352 349.624 168.022 349.624 150.374C349.618 144.906 347.442 139.664 343.576 135.797C339.709 131.931 334.467 129.756 328.999 129.749V129.749ZM329 142.875C330.484 142.875 331.934 143.315 333.167 144.139C334.401 144.963 335.362 146.134 335.929 147.505C336.497 148.875 336.646 150.383 336.356 151.838C336.067 153.293 335.353 154.629 334.304 155.678C333.255 156.727 331.918 157.441 330.464 157.731C329.009 158.02 327.501 157.872 326.13 157.304C324.76 156.736 323.588 155.775 322.764 154.542C321.94 153.308 321.5 151.858 321.5 150.375C321.5 149.39 321.694 148.415 322.071 147.505C322.448 146.595 323.001 145.768 323.697 145.072C324.393 144.375 325.22 143.823 326.13 143.446C327.04 143.069 328.015 142.875 329 142.875V142.875Z" fill="#FFF9DA"/>
<ellipse cx="329" cy="150.5" rx="13" ry="12.5" fill="#C74403"/>
<path d="M332.129 158H325.769V156.48C325.769 155.44 325.929 154.553 326.249 153.82C326.569 153.087 327.142 152.287 327.969 151.42C328.822 150.5 329.389 149.773 329.669 149.24C329.976 148.653 330.129 148.04 330.129 147.4C330.129 146.813 330.036 146.4 329.849 146.16C329.662 145.92 329.376 145.8 328.989 145.8C328.229 145.8 327.849 146.26 327.849 147.18V148.68H325.769V147.32C325.769 146.187 326.049 145.32 326.609 144.72C327.169 144.107 327.982 143.8 329.049 143.8C330.116 143.8 330.929 144.107 331.489 144.72C332.049 145.32 332.329 146.187 332.329 147.32C332.329 148.187 332.122 149.013 331.709 149.8C331.296 150.613 330.596 151.54 329.609 152.58C328.969 153.26 328.529 153.82 328.289 154.26C328.062 154.7 327.949 155.18 327.949 155.7V156H332.129V158Z" fill="white"/>
</g>
<path d="M386.28 149H384V135H391.58V149H389.3V137.02H386.28V149ZM393.39 145.44V138.56C393.39 137.36 393.71 136.433 394.35 135.78C395.004 135.127 395.93 134.8 397.13 134.8C398.344 134.8 399.27 135.127 399.91 135.78C400.564 136.433 400.89 137.36 400.89 138.56V145.44C400.89 146.64 400.564 147.567 399.91 148.22C399.257 148.873 398.33 149.2 397.13 149.2C395.93 149.2 395.004 148.873 394.35 148.22C393.71 147.567 393.39 146.64 393.39 145.44ZM397.13 147.18C398.117 147.18 398.61 146.64 398.61 145.56V138.44C398.61 137.36 398.117 136.82 397.13 136.82C396.157 136.82 395.67 137.36 395.67 138.44V145.56C395.67 146.64 396.157 147.18 397.13 147.18ZM405.911 149.2C404.711 149.2 403.798 148.887 403.171 148.26C402.545 147.62 402.231 146.7 402.231 145.5V144.56H404.371V145.54C404.371 146.633 404.865 147.18 405.851 147.18C406.371 147.18 406.745 147.047 406.971 146.78C407.211 146.5 407.331 146.047 407.331 145.42V144.66C407.331 143.967 407.191 143.473 406.911 143.18C406.645 142.873 406.198 142.72 405.571 142.72H404.711V140.7H405.631C406.725 140.7 407.271 140.133 407.271 139V138.38C407.271 137.34 406.798 136.82 405.851 136.82C404.918 136.82 404.451 137.32 404.451 138.32V139.02H402.311V138.5C402.311 137.3 402.618 136.387 403.231 135.76C403.845 135.12 404.745 134.8 405.931 134.8C407.105 134.8 407.998 135.107 408.611 135.72C409.225 136.333 409.531 137.22 409.531 138.38V138.76C409.531 140.213 408.938 141.153 407.751 141.58V141.6C408.978 142.027 409.591 143.053 409.591 144.68V145.48C409.591 147.96 408.365 149.2 405.911 149.2ZM411.066 145.44V138.56C411.066 137.36 411.386 136.433 412.026 135.78C412.679 135.127 413.606 134.8 414.806 134.8C416.019 134.8 416.946 135.127 417.586 135.78C418.239 136.433 418.566 137.36 418.566 138.56V145.44C418.566 146.64 418.239 147.567 417.586 148.22C416.933 148.873 416.006 149.2 414.806 149.2C413.606 149.2 412.679 148.873 412.026 148.22C411.386 147.567 411.066 146.64 411.066 145.44ZM414.806 147.18C415.793 147.18 416.286 146.64 416.286 145.56V138.44C416.286 137.36 415.793 136.82 414.806 136.82C413.833 136.82 413.346 137.36 413.346 138.44V145.56C413.346 146.64 413.833 147.18 414.806 147.18ZM424.287 149H420.367V135H424.087C425.341 135 426.261 135.273 426.847 135.82C427.447 136.367 427.747 137.207 427.747 138.34V138.76C427.747 140.187 427.194 141.113 426.087 141.54V141.6C427.354 141.987 427.987 143.02 427.987 144.7V145.42C427.987 147.807 426.754 149 424.287 149ZM422.647 137.02V140.74H423.787C424.361 140.74 424.781 140.613 425.047 140.36C425.327 140.093 425.467 139.68 425.467 139.12V138.6C425.467 138.04 425.354 137.64 425.127 137.4C424.901 137.147 424.527 137.02 424.007 137.02H422.647ZM422.647 142.76V146.98H424.287C424.781 146.98 425.141 146.86 425.367 146.62C425.594 146.367 425.707 145.96 425.707 145.4V144.62C425.707 143.927 425.574 143.447 425.307 143.18C425.041 142.9 424.574 142.76 423.907 142.76H422.647ZM431.626 144.36L435.006 135H437.326V149H435.266V139.6L431.906 149H429.586V135H431.626V144.36ZM451.21 135V146.98H452.41V150.88H450.13V149H444.39V150.88H442.13V146.98H443.43C443.723 146.687 443.89 146.14 443.93 145.34L444.35 135H451.21ZM445.59 146.98H448.93V137.02H446.49L446.21 145.22C446.183 145.94 445.977 146.527 445.59 146.98ZM456.046 149H453.766V135H457.386C459.839 135 461.066 136.213 461.066 138.64V139.68C461.066 142.107 459.839 143.32 457.386 143.32H456.046V149ZM456.046 137.02V141.32H457.386C457.879 141.32 458.232 141.2 458.446 140.96C458.672 140.707 458.786 140.3 458.786 139.74V138.56C458.786 138 458.672 137.607 458.446 137.38C458.232 137.14 457.879 137.02 457.386 137.02H456.046ZM466.06 142.56L467.86 135H470.04L467.02 146.62C466.78 147.54 466.4 148.2 465.88 148.6C465.36 149 464.627 149.2 463.68 149.2C463.134 149.2 462.674 149.127 462.3 148.98V147.02C462.62 147.127 462.967 147.18 463.34 147.18C463.767 147.18 464.087 147.12 464.3 147C464.514 146.867 464.674 146.64 464.78 146.32L464.88 145.96L461.72 135H464.08L466.06 142.56ZM474.329 149.2C473.129 149.2 472.216 148.887 471.589 148.26C470.963 147.62 470.649 146.7 470.649 145.5V144.56H472.789V145.54C472.789 146.633 473.283 147.18 474.269 147.18C474.789 147.18 475.163 147.047 475.389 146.78C475.629 146.5 475.749 146.047 475.749 145.42V144.66C475.749 143.967 475.609 143.473 475.329 143.18C475.063 142.873 474.616 142.72 473.989 142.72H473.129V140.7H474.049C475.143 140.7 475.689 140.133 475.689 139V138.38C475.689 137.34 475.216 136.82 474.269 136.82C473.336 136.82 472.869 137.32 472.869 138.32V139.02H470.729V138.5C470.729 137.3 471.036 136.387 471.649 135.76C472.263 135.12 473.163 134.8 474.349 134.8C475.523 134.8 476.416 135.107 477.029 135.72C477.643 136.333 477.949 137.22 477.949 138.38V138.76C477.949 140.213 477.356 141.153 476.169 141.58V141.6C477.396 142.027 478.009 143.053 478.009 144.68V145.48C478.009 147.96 476.783 149.2 474.329 149.2ZM486.384 149H479.664V135H486.384V137.02H481.944V140.78H485.504V142.8H481.944V146.98H486.384V149ZM491.747 133.86C490.96 133.86 490.34 133.64 489.887 133.2C489.433 132.747 489.193 132.133 489.167 131.36H490.547C490.613 132.027 491.013 132.36 491.747 132.36C492.48 132.36 492.9 132.027 493.007 131.36H494.347C494.32 132.133 494.08 132.747 493.627 133.2C493.173 133.64 492.547 133.86 491.747 133.86ZM489.927 144.36L493.307 135H495.627V149H493.567V139.6L490.207 149H487.887V135H489.927V144.36ZM503.331 149H501.051V135H508.631V149H506.351V137.02H503.331V149ZM510.441 145.44V138.56C510.441 137.36 510.761 136.433 511.401 135.78C512.054 135.127 512.981 134.8 514.181 134.8C515.394 134.8 516.321 135.127 516.961 135.78C517.614 136.433 517.941 137.36 517.941 138.56V145.44C517.941 146.64 517.614 147.567 516.961 148.22C516.308 148.873 515.381 149.2 514.181 149.2C512.981 149.2 512.054 148.873 511.401 148.22C510.761 147.567 510.441 146.64 510.441 145.44ZM514.181 147.18C515.168 147.18 515.661 146.64 515.661 145.56V138.44C515.661 137.36 515.168 136.82 514.181 136.82C513.208 136.82 512.721 137.36 512.721 138.44V145.56C512.721 146.64 513.208 147.18 514.181 147.18ZM528.105 135V146.98H529.305V150.88H527.025V149H521.285V150.88H519.025V146.98H520.325C520.618 146.687 520.785 146.14 520.825 145.34L521.245 135H528.105ZM522.485 146.98H525.825V137.02H523.385L523.105 145.22C523.078 145.94 522.871 146.527 522.485 146.98ZM539.12 135V146.98H540.32V150.88H538.04V149H532.3V150.88H530.04V146.98H531.34C531.633 146.687 531.8 146.14 531.84 145.34L532.26 135H539.12ZM533.5 146.98H536.84V137.02H534.4L534.12 145.22C534.093 145.94 533.887 146.527 533.5 146.98ZM548.396 149H541.676V135H548.396V137.02H543.956V140.78H547.516V142.8H543.956V146.98H548.396V149ZM552.178 149H549.898V135H553.518C555.972 135 557.198 136.213 557.198 138.64V139.68C557.198 142.107 555.972 143.32 553.518 143.32H552.178V149ZM552.178 137.02V141.32H553.518C554.012 141.32 554.365 141.2 554.578 140.96C554.805 140.707 554.918 140.3 554.918 139.74V138.56C554.918 138 554.805 137.607 554.578 137.38C554.365 137.14 554.012 137.02 553.518 137.02H552.178ZM570.861 149H568.581L566.421 142.2L565.321 144.1V149H563.041V144.1L561.941 142.2L559.781 149H557.481L560.441 140.2L557.521 135H559.881L563.041 141.06V135H565.321V141.06L568.501 135H570.821L567.921 140.22L570.861 149ZM580.023 149H577.703L577.243 146.28H574.163L573.683 149H571.563L574.243 135H577.323L580.023 149ZM575.703 137.36L574.503 144.3H576.903L575.703 137.36ZM584.57 149H582.31V137.02H579.63V135H587.25V137.02H584.57V149ZM592.269 149H588.629V135H590.909V140.4H592.269C594.722 140.4 595.949 141.633 595.949 144.1V145.3C595.949 147.767 594.722 149 592.269 149ZM590.909 142.42V146.98H592.269C592.749 146.98 593.102 146.86 593.329 146.62C593.556 146.367 593.669 145.967 593.669 145.42V143.98C593.669 143.433 593.556 143.04 593.329 142.8C593.102 142.547 592.749 142.42 592.269 142.42H590.909ZM388.32 179H386.06V167.02H383.38V165H391V167.02H388.32V179ZM396.299 179H392.379V165H396.099C397.352 165 398.272 165.273 398.859 165.82C399.459 166.367 399.759 167.207 399.759 168.34V168.76C399.759 170.187 399.206 171.113 398.099 171.54V171.6C399.366 171.987 399.999 173.02 399.999 174.7V175.42C399.999 177.807 398.766 179 396.299 179ZM394.659 167.02V170.74H395.799C396.372 170.74 396.792 170.613 397.059 170.36C397.339 170.093 397.479 169.68 397.479 169.12V168.6C397.479 168.04 397.366 167.64 397.139 167.4C396.912 167.147 396.539 167.02 396.019 167.02H394.659ZM394.659 172.76V176.98H396.299C396.792 176.98 397.152 176.86 397.379 176.62C397.606 176.367 397.719 175.96 397.719 175.4V174.62C397.719 173.927 397.586 173.447 397.319 173.18C397.052 172.9 396.586 172.76 395.919 172.76H394.659ZM401.418 175.44V168.56C401.418 167.36 401.738 166.433 402.378 165.78C403.031 165.127 403.958 164.8 405.158 164.8C406.371 164.8 407.298 165.127 407.938 165.78C408.591 166.433 408.918 167.36 408.918 168.56V175.44C408.918 176.64 408.591 177.567 407.938 178.22C407.284 178.873 406.358 179.2 405.158 179.2C403.958 179.2 403.031 178.873 402.378 178.22C401.738 177.567 401.418 176.64 401.418 175.44ZM405.158 177.18C406.144 177.18 406.638 176.64 406.638 175.56V168.44C406.638 167.36 406.144 166.82 405.158 166.82C404.184 166.82 403.698 167.36 403.698 168.44V175.56C403.698 176.64 404.184 177.18 405.158 177.18ZM412.759 174.36L416.139 165H418.459V179H416.399V169.6L413.039 179H410.719V165H412.759V174.36ZM426.163 179H423.883V165H431.463V179H429.183V167.02H426.163V179ZM433.493 179.02C433.213 179.02 432.993 178.993 432.833 178.94V176.96C432.993 177 433.146 177.02 433.293 177.02C433.786 177.02 434.126 176.9 434.313 176.66C434.513 176.407 434.626 175.973 434.653 175.36L435.073 165H441.913V179H439.653V167.02H437.213L436.913 175.42C436.873 176.673 436.586 177.587 436.053 178.16C435.52 178.733 434.666 179.02 433.493 179.02ZM451.742 179H449.422L448.962 176.28H445.882L445.402 179H443.282L445.962 165H449.042L451.742 179ZM447.422 167.36L446.222 174.3H448.622L447.422 167.36ZM455.362 179H453.082V165H455.362V170.78H458.382V165H460.662V179H458.382V172.8H455.362V179ZM466.292 179H462.652V165H464.932V170.4H466.292C468.746 170.4 469.972 171.633 469.972 174.1V175.3C469.972 177.767 468.746 179 466.292 179ZM473.772 179H471.492V165H473.772V179ZM464.932 172.42V176.98H466.292C466.772 176.98 467.126 176.86 467.352 176.62C467.579 176.367 467.692 175.967 467.692 175.42V173.98C467.692 173.433 467.579 173.04 467.352 172.8C467.126 172.547 466.772 172.42 466.292 172.42H464.932ZM477.977 175.26H476.277L475.997 170.76V165H478.257V170.76L477.977 175.26ZM478.257 179H475.997V176.76H478.257V179Z" fill="white"/>
<g filter="url(#filter1_ddddd_508_403840)">
<ellipse cx="34" cy="60.5" rx="22" ry="5.5" fill="#DDBA63"/>
<path d="M33.999 7.74927C28.5309 7.75576 23.2886 9.93082 19.4221 13.7974C15.5556 17.6639 13.3805 22.9062 13.374 28.3743C13.374 46.022 32.124 59.3521 32.9224 59.9105C33.2381 60.131 33.6139 60.2493 33.999 60.2493C34.3841 60.2493 34.76 60.131 35.0757 59.9105C35.874 59.3521 54.624 46.022 54.624 28.3743C54.6175 22.9062 52.4425 17.6639 48.5759 13.7974C44.7094 9.93082 39.4671 7.75575 33.999 7.74927V7.74927ZM34.0004 20.8749C35.4838 20.8749 36.9338 21.3148 38.1672 22.1389C39.4005 22.963 40.3618 24.1344 40.9295 25.5048C41.4972 26.8753 41.6457 28.3833 41.3563 29.8381C41.0669 31.293 40.3526 32.6294 39.3037 33.6782C38.2548 34.7271 36.9184 35.4414 35.4636 35.7308C34.0087 36.0202 32.5007 35.8717 31.1303 35.304C29.7598 34.7364 28.5885 33.7751 27.7644 32.5417C26.9403 31.3084 26.5004 29.8583 26.5004 28.3749C26.5004 27.39 26.6943 26.4147 27.0712 25.5048C27.4481 24.5948 28.0006 23.768 28.697 23.0716C29.3935 22.3751 30.2203 21.8227 31.1302 21.4458C32.0402 21.0689 33.0155 20.8749 34.0004 20.8749V20.8749Z" fill="#FFF9DA"/>
<ellipse cx="34" cy="28.5" rx="13" ry="12.5" fill="#C74403"/>
<path d="M35.9498 36H33.7498V25.32H31.4498V23.76C32.3698 23.76 33.0365 23.64 33.4498 23.4C33.8765 23.1333 34.2165 22.6667 34.4698 22H35.9498V36Z" fill="white"/>
</g>
<path d="M91.28 27H89V13H92.62C95.0733 13 96.3 14.2133 96.3 16.64V17.68C96.3 20.1067 95.0733 21.32 92.62 21.32H91.28V27ZM91.28 15.02V19.32H92.62C93.1133 19.32 93.4667 19.2 93.68 18.96C93.9067 18.7067 94.02 18.3 94.02 17.74V16.56C94.02 16 93.9067 15.6067 93.68 15.38C93.4667 15.14 93.1133 15.02 92.62 15.02H91.28ZM104.828 27H102.508L102.048 24.28H98.9678L98.4878 27H96.3678L99.0478 13H102.128L104.828 27ZM100.508 15.36L99.3078 22.3H101.708L100.508 15.36ZM112.21 26.24C111.584 26.88 110.69 27.2 109.53 27.2C108.37 27.2 107.47 26.88 106.83 26.24C106.204 25.5867 105.89 24.6733 105.89 23.5V16.5C105.89 15.3267 106.204 14.42 106.83 13.78C107.47 13.1267 108.37 12.8 109.53 12.8C110.69 12.8 111.584 13.1267 112.21 13.78C112.837 14.42 113.15 15.3267 113.15 16.5V17.74H111.01V16.4C111.01 15.32 110.537 14.78 109.59 14.78C108.644 14.78 108.17 15.32 108.17 16.4V23.6C108.17 24.68 108.644 25.22 109.59 25.22C110.537 25.22 111.01 24.68 111.01 23.6V21.84H113.15V23.5C113.15 24.6733 112.837 25.5867 112.21 26.24ZM120.921 26.24C120.295 26.88 119.401 27.2 118.241 27.2C117.081 27.2 116.181 26.88 115.541 26.24C114.915 25.5867 114.601 24.6733 114.601 23.5V16.5C114.601 15.3267 114.915 14.42 115.541 13.78C116.181 13.1267 117.081 12.8 118.241 12.8C119.401 12.8 120.295 13.1267 120.921 13.78C121.548 14.42 121.861 15.3267 121.861 16.5V17.74H119.721V16.4C119.721 15.32 119.248 14.78 118.301 14.78C117.355 14.78 116.881 15.32 116.881 16.4V23.6C116.881 24.68 117.355 25.22 118.301 25.22C119.248 25.22 119.721 24.68 119.721 23.6V21.84H121.861V23.5C121.861 24.6733 121.548 25.5867 120.921 26.24ZM131.573 27H129.173L126.953 20.6L125.753 22.58V27H123.473V13H125.753V19.16L129.213 13H131.533L128.493 18.2L131.573 27ZM140.726 27H138.406L137.946 24.28H134.866L134.386 27H132.266L134.946 13H138.026L140.726 27ZM136.406 15.36L135.206 22.3H137.606L136.406 15.36ZM154.786 27H152.506L150.346 20.2L149.246 22.1V27H146.966V22.1L145.866 20.2L143.706 27H141.406L144.366 18.2L141.446 13H143.806L146.966 19.06V13H149.246V19.06L152.426 13H154.746L151.846 18.22L154.786 27ZM158.169 22.36L161.549 13H163.869V27H161.809V17.6L158.449 27H156.129V13H158.169V22.36ZM166.895 29.32H165.855L166.755 27H165.955V24.6H168.235V26.76L166.895 29.32ZM178.727 18.08V13H181.007V27H178.727V21.16C178.14 21.76 177.347 22.06 176.347 22.06C174.373 22.06 173.387 20.9333 173.387 18.68V13H175.647V18.38C175.647 19.46 176.113 20 177.047 20C177.58 20 177.993 19.84 178.287 19.52C178.58 19.1867 178.727 18.7067 178.727 18.08ZM187.324 27H185.064V15.02H182.384V13H190.004V15.02H187.324V27ZM191.125 23.44V16.56C191.125 15.36 191.445 14.4333 192.085 13.78C192.738 13.1267 193.665 12.8 194.865 12.8C196.078 12.8 197.005 13.1267 197.645 13.78C198.298 14.4333 198.625 15.36 198.625 16.56V23.44C198.625 24.64 198.298 25.5667 197.645 26.22C196.991 26.8733 196.065 27.2 194.865 27.2C193.665 27.2 192.738 26.8733 192.085 26.22C191.445 25.5667 191.125 24.64 191.125 23.44ZM194.865 25.18C195.851 25.18 196.345 24.64 196.345 23.56V16.44C196.345 15.36 195.851 14.82 194.865 14.82C193.891 14.82 193.405 15.36 193.405 16.44V23.56C193.405 24.64 193.891 25.18 194.865 25.18ZM207.644 27H203.844V13H210.384V15.02H206.124V18.5H207.644C210.097 18.5 211.324 19.7333 211.324 22.2V23.3C211.324 25.7667 210.097 27 207.644 27ZM206.124 20.52V24.98H207.644C208.124 24.98 208.477 24.86 208.704 24.62C208.93 24.3667 209.044 23.9667 209.044 23.42V22.08C209.044 21.5333 208.93 21.14 208.704 20.9C208.477 20.6467 208.124 20.52 207.644 20.52H206.124ZM216.468 27H212.828V13H215.108V18.4H216.468C218.921 18.4 220.148 19.6333 220.148 22.1V23.3C220.148 25.7667 218.921 27 216.468 27ZM223.948 27H221.668V13H223.948V27ZM215.108 20.42V24.98H216.468C216.948 24.98 217.301 24.86 217.528 24.62C217.755 24.3667 217.868 23.9667 217.868 23.42V21.98C217.868 21.4333 217.755 21.04 217.528 20.8C217.301 20.5467 216.948 20.42 216.468 20.42H215.108ZM233.691 27H231.431V15.02H228.751V13H236.371V15.02H233.691V27ZM241.39 27H237.75V13H240.03V18.4H241.39C243.843 18.4 245.07 19.6333 245.07 22.1V23.3C245.07 25.7667 243.843 27 241.39 27ZM248.87 27H246.59V13H248.87V27ZM240.03 20.42V24.98H241.39C241.87 24.98 242.223 24.86 242.45 24.62C242.677 24.3667 242.79 23.9667 242.79 23.42V21.98C242.79 21.4333 242.677 21.04 242.45 20.8C242.223 20.5467 241.87 20.42 241.39 20.42H240.03ZM255.793 27H253.633L256.593 19.82L253.753 13H256.193L257.993 17.7L259.853 13H262.053L259.213 19.82L262.173 27H259.753L257.793 21.94L255.793 27ZM262.961 23.44V16.56C262.961 15.36 263.281 14.4333 263.921 13.78C264.574 13.1267 265.501 12.8 266.701 12.8C267.914 12.8 268.841 13.1267 269.481 13.78C270.134 14.4333 270.461 15.36 270.461 16.56V23.44C270.461 24.64 270.134 25.5667 269.481 26.22C268.827 26.8733 267.901 27.2 266.701 27.2C265.501 27.2 264.574 26.8733 263.921 26.22C263.281 25.5667 262.961 24.64 262.961 23.44ZM266.701 25.18C267.687 25.18 268.181 24.64 268.181 23.56V16.44C268.181 15.36 267.687 14.82 266.701 14.82C265.727 14.82 265.241 15.36 265.241 16.44V23.56C265.241 24.64 265.727 25.18 266.701 25.18ZM276.504 27H274.244V15.02H271.564V13H279.184V15.02H276.504V27ZM287.283 27H280.563V13H287.283V15.02H282.843V18.78H286.403V20.8H282.843V24.98H287.283V27ZM288.825 27.02C288.545 27.02 288.325 26.9933 288.165 26.94V24.96C288.325 25 288.478 25.02 288.625 25.02C289.118 25.02 289.458 24.9 289.645 24.66C289.845 24.4067 289.958 23.9733 289.985 23.36L290.405 13H297.245V27H294.985V15.02H292.545L292.245 23.42C292.205 24.6733 291.918 25.5867 291.385 26.16C290.852 26.7333 289.998 27.02 288.825 27.02ZM88.82 53.44V46.56C88.82 45.36 89.14 44.4333 89.78 43.78C90.4333 43.1267 91.36 42.8 92.56 42.8C93.7733 42.8 94.7 43.1267 95.34 43.78C95.9933 44.4333 96.32 45.36 96.32 46.56V53.44C96.32 54.64 95.9933 55.5667 95.34 56.22C94.6867 56.8733 93.76 57.2 92.56 57.2C91.36 57.2 90.4333 56.8733 89.78 56.22C89.14 55.5667 88.82 54.64 88.82 53.44ZM92.56 55.18C93.5467 55.18 94.04 54.64 94.04 53.56V46.44C94.04 45.36 93.5467 44.82 92.56 44.82C91.5867 44.82 91.1 45.36 91.1 46.44V53.56C91.1 54.64 91.5867 55.18 92.56 55.18ZM102.363 57H100.103V45.02H97.423V43H105.043V45.02H102.363V57ZM114.522 57H112.122L109.902 50.6L108.702 52.58V57H106.422V43H108.702V49.16L112.162 43H114.482L111.442 48.2L114.522 57ZM118.135 57H115.855V43H119.475C121.929 43 123.155 44.2133 123.155 46.64V47.68C123.155 50.1067 121.929 51.32 119.475 51.32H118.135V57ZM118.135 45.02V49.32H119.475C119.969 49.32 120.322 49.2 120.535 48.96C120.762 48.7067 120.875 48.3 120.875 47.74V46.56C120.875 46 120.762 45.6067 120.535 45.38C120.322 45.14 119.969 45.02 119.475 45.02H118.135ZM128.304 57H124.664V43H126.944V48.4H128.304C130.757 48.4 131.984 49.6333 131.984 52.1V53.3C131.984 55.7667 130.757 57 128.304 57ZM135.784 57H133.504V43H135.784V57ZM126.944 50.42V54.98H128.304C128.784 54.98 129.137 54.86 129.364 54.62C129.591 54.3667 129.704 53.9667 129.704 53.42V51.98C129.704 51.4333 129.591 51.04 129.364 50.8C129.137 50.5467 128.784 50.42 128.304 50.42H126.944ZM142.109 57H139.849V45.02H137.169V43H144.789V45.02H142.109V57ZM149.808 57H146.168V43H148.448V48.4H149.808C152.261 48.4 153.488 49.6333 153.488 52.1V53.3C153.488 55.7667 152.261 57 149.808 57ZM148.448 50.42V54.98H149.808C150.288 54.98 150.641 54.86 150.868 54.62C151.095 54.3667 151.208 53.9667 151.208 53.42V51.98C151.208 51.4333 151.095 51.04 150.868 50.8C150.641 50.5467 150.288 50.42 149.808 50.42H148.448ZM166.894 43V54.98H168.094V58.88H165.814V57H160.074V58.88H157.814V54.98H159.114C159.407 54.6867 159.574 54.14 159.614 53.34L160.034 43H166.894ZM161.274 54.98H164.614V45.02H162.174L161.894 53.22C161.867 53.94 161.66 54.5267 161.274 54.98ZM169.489 57.02C169.209 57.02 168.989 56.9933 168.829 56.94V54.96C168.989 55 169.143 55.02 169.289 55.02C169.783 55.02 170.123 54.9 170.309 54.66C170.509 54.4067 170.623 53.9733 170.649 53.36L171.069 43H177.909V57H175.649V45.02H173.209L172.909 53.42C172.869 54.6733 172.583 55.5867 172.049 56.16C171.516 56.7333 170.663 57.02 169.489 57.02ZM187.118 43V57H184.838V51.08H183.798C183.158 51.08 182.705 51.22 182.438 51.5C182.185 51.78 182.058 52.2667 182.058 52.96V55.16C182.058 55.9467 181.985 56.56 181.838 57H179.538C179.711 56.5733 179.798 55.9667 179.798 55.18V53.1C179.798 52.18 179.931 51.4733 180.198 50.98C180.465 50.4733 180.898 50.1333 181.498 49.96V49.9C180.378 49.4867 179.818 48.5333 179.818 47.04V46.36C179.818 45.2133 180.111 44.3667 180.698 43.82C181.298 43.2733 182.225 43 183.478 43H187.118ZM183.758 49.06H184.838V45.02H183.518C183.025 45.02 182.665 45.1467 182.438 45.4C182.211 45.6533 182.098 46.0533 182.098 46.6V47.4C182.098 47.9867 182.231 48.4133 182.498 48.68C182.765 48.9333 183.185 49.06 183.758 49.06ZM198.675 56.24C198.048 56.88 197.155 57.2 195.995 57.2C194.835 57.2 193.935 56.88 193.295 56.24C192.668 55.5867 192.355 54.6733 192.355 53.5V46.5C192.355 45.3267 192.668 44.42 193.295 43.78C193.935 43.1267 194.835 42.8 195.995 42.8C197.155 42.8 198.048 43.1267 198.675 43.78C199.302 44.42 199.615 45.3267 199.615 46.5V47.74H197.475V46.4C197.475 45.32 197.002 44.78 196.055 44.78C195.108 44.78 194.635 45.32 194.635 46.4V53.6C194.635 54.68 195.108 55.22 196.055 55.22C197.002 55.22 197.475 54.68 197.475 53.6V51.84H199.615V53.5C199.615 54.6733 199.302 55.5867 198.675 56.24ZM207.947 57H201.227V43H207.947V45.02H203.507V48.78H207.067V50.8H203.507V54.98H207.947V57ZM213.249 57H209.449V43H215.989V45.02H211.729V48.5H213.249C215.703 48.5 216.929 49.7333 216.929 52.2V53.3C216.929 55.7667 215.703 57 213.249 57ZM211.729 50.52V54.98H213.249C213.729 54.98 214.083 54.86 214.309 54.62C214.536 54.3667 214.649 53.9667 214.649 53.42V52.08C214.649 51.5333 214.536 51.14 214.309 50.9C214.083 50.6467 213.729 50.52 213.249 50.52H211.729ZM225.634 43V57H223.354V51.08H222.314C221.674 51.08 221.22 51.22 220.954 51.5C220.7 51.78 220.574 52.2667 220.574 52.96V55.16C220.574 55.9467 220.5 56.56 220.354 57H218.054C218.227 56.5733 218.314 55.9667 218.314 55.18V53.1C218.314 52.18 218.447 51.4733 218.714 50.98C218.98 50.4733 219.414 50.1333 220.014 49.96V49.9C218.894 49.4867 218.334 48.5333 218.334 47.04V46.36C218.334 45.2133 218.627 44.3667 219.214 43.82C219.814 43.2733 220.74 43 221.994 43H225.634ZM222.274 49.06H223.354V45.02H222.034C221.54 45.02 221.18 45.1467 220.954 45.4C220.727 45.6533 220.614 46.0533 220.614 46.6V47.4C220.614 47.9867 220.747 48.4133 221.014 48.68C221.28 48.9333 221.7 49.06 222.274 49.06ZM230.611 53.5V52.56H232.751V53.6C232.751 54.68 233.244 55.22 234.231 55.22C235.204 55.22 235.691 54.68 235.691 53.6V50.76H233.051V48.7H235.691V46.4C235.691 45.32 235.204 44.78 234.231 44.78C233.244 44.78 232.751 45.32 232.751 46.4V47.02H230.611V46.5C230.611 45.3267 230.924 44.42 231.551 43.78C232.191 43.1267 233.104 42.8 234.291 42.8C235.477 42.8 236.384 43.1267 237.011 43.78C237.651 44.42 237.971 45.3267 237.971 46.5V53.5C237.971 54.6733 237.651 55.5867 237.011 56.24C236.384 56.88 235.477 57.2 234.291 57.2C233.104 57.2 232.191 56.88 231.551 56.24C230.924 55.5867 230.611 54.6733 230.611 53.5ZM244.023 57H241.763V45.02H239.083V43H246.703V45.02H244.023V57ZM250.122 52.36L253.502 43H255.822V57H253.762V47.6L250.402 57H248.082V43H250.122V52.36ZM259.828 57H257.828V43H261.048L262.928 53.28L264.788 43H268.008V57H265.848V46.16L263.788 57H261.888L259.828 46.16V57ZM273.474 57.02C273.194 57.02 272.974 56.9933 272.814 56.94V54.96C272.974 55 273.127 55.02 273.274 55.02C273.767 55.02 274.107 54.9 274.294 54.66C274.494 54.4067 274.607 53.9733 274.634 53.36L275.054 43H281.894V57H279.634V45.02H277.194L276.894 53.42C276.854 54.6733 276.567 55.5867 276.034 56.16C275.5 56.7333 274.647 57.02 273.474 57.02ZM290.622 57H283.902V43H290.622V45.02H286.182V48.78H289.742V50.8H286.182V54.98H290.622V57ZM296.445 57H294.185V45.02H291.505V43H299.125V45.02H296.445V57ZM300.246 53.44V46.56C300.246 45.36 300.566 44.4333 301.206 43.78C301.859 43.1267 302.786 42.8 303.986 42.8C305.199 42.8 306.126 43.1267 306.766 43.78C307.419 44.4333 307.746 45.36 307.746 46.56V53.44C307.746 54.64 307.419 55.5667 306.766 56.22C306.112 56.8733 305.186 57.2 303.986 57.2C302.786 57.2 301.859 56.8733 301.206 56.22C300.566 55.5667 300.246 54.64 300.246 53.44ZM303.986 55.18C304.972 55.18 305.466 54.64 305.466 53.56V46.44C305.466 45.36 304.972 44.82 303.986 44.82C303.012 44.82 302.526 45.36 302.526 46.44V53.56C302.526 54.64 303.012 55.18 303.986 55.18ZM311.547 57H309.547V43H312.767L314.647 53.28L316.507 43H319.727V57H317.567V46.16L315.507 57H313.607L311.547 46.16V57Z" fill="white"/>
<g filter="url(#filter2_ddddd_508_403840)">
<ellipse cx="81" cy="304.5" rx="22" ry="5.5" fill="#DDBA63"/>
<path d="M80.999 251.749C75.5309 251.756 70.2886 253.931 66.4221 257.797C62.5556 261.664 60.3805 266.906 60.374 272.374C60.374 290.022 79.124 303.352 79.9224 303.911C80.2381 304.131 80.6139 304.249 80.999 304.249C81.3841 304.249 81.76 304.131 82.0757 303.911C82.874 303.352 101.624 290.022 101.624 272.374C101.618 266.906 99.4425 261.664 95.5759 257.797C91.7094 253.931 86.4671 251.756 80.999 251.749V251.749ZM81.0004 264.875C82.4838 264.875 83.9338 265.315 85.1672 266.139C86.4005 266.963 87.3618 268.134 87.9295 269.505C88.4972 270.875 88.6457 272.383 88.3563 273.838C88.0669 275.293 87.3526 276.629 86.3037 277.678C85.2548 278.727 83.9184 279.441 82.4636 279.731C81.0087 280.02 79.5007 279.872 78.1303 279.304C76.7598 278.736 75.5885 277.775 74.7644 276.542C73.9403 275.308 73.5004 273.858 73.5004 272.375C73.5004 271.39 73.6943 270.415 74.0712 269.505C74.4481 268.595 75.0006 267.768 75.697 267.072C76.3935 266.375 77.2203 265.823 78.1302 265.446C79.0402 265.069 80.0155 264.875 81.0004 264.875V264.875Z" fill="#FFF9DA"/>
<ellipse cx="81" cy="272.5" rx="13" ry="12.5" fill="#C74403"/>
<path d="M77.6598 276.72V275.58H79.7398V276.82C79.7398 277.74 80.1198 278.2 80.8798 278.2C81.2664 278.2 81.5531 278.08 81.7398 277.84C81.9264 277.6 82.0198 277.193 82.0198 276.62V275.48C82.0198 274.84 81.9064 274.387 81.6798 274.12C81.4531 273.84 81.0864 273.7 80.5798 273.7H79.8398V271.7H80.6398C81.0931 271.7 81.4264 271.587 81.6398 271.36C81.8531 271.12 81.9598 270.74 81.9598 270.22V269.2C81.9598 268.267 81.5931 267.8 80.8598 267.8C80.1531 267.8 79.7998 268.233 79.7998 269.1V270.02H77.7198V269.28C77.7198 268.16 77.9931 267.3 78.5398 266.7C79.0998 266.1 79.8998 265.8 80.9398 265.8C81.9931 265.8 82.7931 266.1 83.3398 266.7C83.8864 267.287 84.1598 268.14 84.1598 269.26V269.76C84.1598 271.253 83.6398 272.193 82.5998 272.58V272.62C83.6798 273.02 84.2198 273.98 84.2198 275.5V276.74C84.2198 277.86 83.9398 278.72 83.3798 279.32C82.8331 279.907 82.0198 280.2 80.9398 280.2C79.8598 280.2 79.0398 279.9 78.4798 279.3C77.9331 278.7 77.6598 277.84 77.6598 276.72Z" fill="white"/>
</g>
<path d="M139.74 264.56L141.54 257H143.72L140.7 268.62C140.46 269.54 140.08 270.2 139.56 270.6C139.04 271 138.307 271.2 137.36 271.2C136.813 271.2 136.353 271.127 135.98 270.98V269.02C136.3 269.127 136.647 269.18 137.02 269.18C137.447 269.18 137.767 269.12 137.98 269C138.193 268.867 138.353 268.64 138.46 268.32L138.56 267.96L135.4 257H137.76L139.74 264.56ZM149.984 262.08V257H152.264V271H149.984V265.16C149.398 265.76 148.604 266.06 147.604 266.06C145.631 266.06 144.644 264.933 144.644 262.68V257H146.904V262.38C146.904 263.46 147.371 264 148.304 264C148.838 264 149.251 263.84 149.544 263.52C149.838 263.187 149.984 262.707 149.984 262.08ZM162.082 271H159.762L159.302 268.28H156.222L155.742 271H153.622L156.302 257H159.382L162.082 271ZM157.762 259.36L156.562 266.3H158.962L157.762 259.36ZM169.464 270.24C168.838 270.88 167.944 271.2 166.784 271.2C165.624 271.2 164.724 270.88 164.084 270.24C163.458 269.587 163.144 268.673 163.144 267.5V260.5C163.144 259.327 163.458 258.42 164.084 257.78C164.724 257.127 165.624 256.8 166.784 256.8C167.944 256.8 168.838 257.127 169.464 257.78C170.091 258.42 170.404 259.327 170.404 260.5V261.74H168.264V260.4C168.264 259.32 167.791 258.78 166.844 258.78C165.898 258.78 165.424 259.32 165.424 260.4V267.6C165.424 268.68 165.898 269.22 166.844 269.22C167.791 269.22 168.264 268.68 168.264 267.6V265.84H170.404V267.5C170.404 268.673 170.091 269.587 169.464 270.24ZM176.336 271H174.076V259.02H171.396V257H179.016V259.02H176.336V271ZM184.315 271H180.395V257H184.115C185.368 257 186.288 257.273 186.875 257.82C187.475 258.367 187.775 259.207 187.775 260.34V260.76C187.775 262.187 187.221 263.113 186.115 263.54V263.6C187.381 263.987 188.015 265.02 188.015 266.7V267.42C188.015 269.807 186.781 271 184.315 271ZM182.675 259.02V262.74H183.815C184.388 262.74 184.808 262.613 185.075 262.36C185.355 262.093 185.495 261.68 185.495 261.12V260.6C185.495 260.04 185.381 259.64 185.155 259.4C184.928 259.147 184.555 259.02 184.035 259.02H182.675ZM182.675 264.76V268.98H184.315C184.808 268.98 185.168 268.86 185.395 268.62C185.621 268.367 185.735 267.96 185.735 267.4V266.62C185.735 265.927 185.601 265.447 185.335 265.18C185.068 264.9 184.601 264.76 183.935 264.76H182.675ZM193.295 264.56L195.095 257H197.275L194.255 268.62C194.015 269.54 193.635 270.2 193.115 270.6C192.595 271 191.861 271.2 190.915 271.2C190.368 271.2 189.908 271.127 189.535 270.98V269.02C189.855 269.127 190.201 269.18 190.575 269.18C191.001 269.18 191.321 269.12 191.535 269C191.748 268.867 191.908 268.64 192.015 268.32L192.115 267.96L188.955 257H191.315L193.295 264.56ZM202.399 255.86C201.612 255.86 200.992 255.64 200.539 255.2C200.086 254.747 199.846 254.133 199.819 253.36H201.199C201.266 254.027 201.666 254.36 202.399 254.36C203.132 254.36 203.552 254.027 203.659 253.36H204.999C204.972 254.133 204.732 254.747 204.279 255.2C203.826 255.64 203.199 255.86 202.399 255.86ZM200.579 266.36L203.959 257H206.279V271H204.219V261.6L200.859 271H198.539V257H200.579V266.36ZM215.623 271H211.703V257H215.423C216.676 257 217.596 257.273 218.183 257.82C218.783 258.367 219.083 259.207 219.083 260.34V260.76C219.083 262.187 218.53 263.113 217.423 263.54V263.6C218.69 263.987 219.323 265.02 219.323 266.7V267.42C219.323 269.807 218.09 271 215.623 271ZM213.983 259.02V262.74H215.123C215.696 262.74 216.116 262.613 216.383 262.36C216.663 262.093 216.803 261.68 216.803 261.12V260.6C216.803 260.04 216.69 259.64 216.463 259.4C216.236 259.147 215.863 259.02 215.343 259.02H213.983ZM213.983 264.76V268.98H215.623C216.116 268.98 216.476 268.86 216.703 268.62C216.93 268.367 217.043 267.96 217.043 267.4V266.62C217.043 265.927 216.91 265.447 216.643 265.18C216.376 264.9 215.91 264.76 215.243 264.76H213.983ZM226.62 271H224.34V257H227.96C230.413 257 231.64 258.213 231.64 260.64V261.68C231.64 264.107 230.413 265.32 227.96 265.32H226.62V271ZM226.62 259.02V263.32H227.96C228.453 263.32 228.807 263.2 229.02 262.96C229.247 262.707 229.36 262.3 229.36 261.74V260.56C229.36 260 229.247 259.607 229.02 259.38C228.807 259.14 228.453 259.02 227.96 259.02H226.62ZM232.968 267.44V260.56C232.968 259.36 233.288 258.433 233.928 257.78C234.582 257.127 235.508 256.8 236.708 256.8C237.922 256.8 238.848 257.127 239.488 257.78C240.142 258.433 240.468 259.36 240.468 260.56V267.44C240.468 268.64 240.142 269.567 239.488 270.22C238.835 270.873 237.908 271.2 236.708 271.2C235.508 271.2 234.582 270.873 233.928 270.22C233.288 269.567 232.968 268.64 232.968 267.44ZM236.708 269.18C237.695 269.18 238.188 268.64 238.188 267.56V260.44C238.188 259.36 237.695 258.82 236.708 258.82C235.735 258.82 235.248 259.36 235.248 260.44V267.56C235.248 268.64 235.735 269.18 236.708 269.18ZM245.49 271.2C244.29 271.2 243.376 270.887 242.75 270.26C242.123 269.62 241.81 268.7 241.81 267.5V266.56H243.95V267.54C243.95 268.633 244.443 269.18 245.43 269.18C245.95 269.18 246.323 269.047 246.55 268.78C246.79 268.5 246.91 268.047 246.91 267.42V266.66C246.91 265.967 246.77 265.473 246.49 265.18C246.223 264.873 245.776 264.72 245.15 264.72H244.29V262.7H245.21C246.303 262.7 246.85 262.133 246.85 261V260.38C246.85 259.34 246.376 258.82 245.43 258.82C244.496 258.82 244.03 259.32 244.03 260.32V261.02H241.89V260.5C241.89 259.3 242.196 258.387 242.81 257.76C243.423 257.12 244.323 256.8 245.51 256.8C246.683 256.8 247.576 257.107 248.19 257.72C248.803 258.333 249.11 259.22 249.11 260.38V260.76C249.11 262.213 248.516 263.153 247.33 263.58V263.6C248.556 264.027 249.17 265.053 249.17 266.68V267.48C249.17 269.96 247.943 271.2 245.49 271.2ZM254.464 271H250.824V257H253.104V262.4H254.464C256.918 262.4 258.144 263.633 258.144 266.1V267.3C258.144 269.767 256.918 271 254.464 271ZM261.944 271H259.664V257H261.944V271ZM253.104 264.42V268.98H254.464C254.944 268.98 255.298 268.86 255.524 268.62C255.751 268.367 255.864 267.967 255.864 267.42V265.98C255.864 265.433 255.751 265.04 255.524 264.8C255.298 264.547 254.944 264.42 254.464 264.42H253.104ZM266.229 271H263.949V257H270.229V259.02H266.229V271ZM273.905 271H271.625V257H275.245C277.698 257 278.925 258.213 278.925 260.64V261.68C278.925 264.107 277.698 265.32 275.245 265.32H273.905V271ZM273.905 259.02V263.32H275.245C275.738 263.32 276.092 263.2 276.305 262.96C276.532 262.707 276.645 262.3 276.645 261.74V260.56C276.645 260 276.532 259.607 276.305 259.38C276.092 259.14 275.738 259.02 275.245 259.02H273.905ZM284.074 271H280.434V257H282.714V262.4H284.074C286.527 262.4 287.754 263.633 287.754 266.1V267.3C287.754 269.767 286.527 271 284.074 271ZM291.554 271H289.274V257H291.554V271ZM282.714 264.42V268.98H284.074C284.554 268.98 284.907 268.86 285.134 268.62C285.36 268.367 285.474 267.967 285.474 267.42V265.98C285.474 265.433 285.36 265.04 285.134 264.8C284.907 264.547 284.554 264.42 284.074 264.42H282.714ZM305.119 271H293.559V257H295.839V268.98H298.219V257H300.479V268.98H302.839V257H305.119V271ZM313.833 271H307.113V257H313.833V259.02H309.393V262.78H312.953V264.8H309.393V268.98H313.833V271ZM321.034 271H318.754V257H326.334V271H324.054V259.02H321.034V271ZM330.604 271H328.324V257H331.944C334.398 257 335.624 258.213 335.624 260.64V261.68C335.624 264.107 334.398 265.32 331.944 265.32H330.604V271ZM330.604 259.02V263.32H331.944C332.438 263.32 332.791 263.2 333.004 262.96C333.231 262.707 333.344 262.3 333.344 261.74V260.56C333.344 260 333.231 259.607 333.004 259.38C332.791 259.14 332.438 259.02 331.944 259.02H330.604ZM339.173 266.36L342.553 257H344.873V271H342.813V261.6L339.453 271H337.133V257H339.173V266.36ZM350.099 271.2C348.899 271.2 347.986 270.887 347.359 270.26C346.732 269.62 346.419 268.7 346.419 267.5V266.56H348.559V267.54C348.559 268.633 349.052 269.18 350.039 269.18C350.559 269.18 350.932 269.047 351.159 268.78C351.399 268.5 351.519 268.047 351.519 267.42V266.66C351.519 265.967 351.379 265.473 351.099 265.18C350.832 264.873 350.386 264.72 349.759 264.72H348.899V262.7H349.819C350.912 262.7 351.459 262.133 351.459 261V260.38C351.459 259.34 350.986 258.82 350.039 258.82C349.106 258.82 348.639 259.32 348.639 260.32V261.02H346.499V260.5C346.499 259.3 346.806 258.387 347.419 257.76C348.032 257.12 348.932 256.8 350.119 256.8C351.292 256.8 352.186 257.107 352.799 257.72C353.412 258.333 353.719 259.22 353.719 260.38V260.76C353.719 262.213 353.126 263.153 351.939 263.58V263.6C353.166 264.027 353.779 265.053 353.779 266.68V267.48C353.779 269.96 352.552 271.2 350.099 271.2ZM355.254 267.44V260.56C355.254 259.36 355.574 258.433 356.214 257.78C356.867 257.127 357.794 256.8 358.994 256.8C360.207 256.8 361.134 257.127 361.774 257.78C362.427 258.433 362.754 259.36 362.754 260.56V267.44C362.754 268.64 362.427 269.567 361.774 270.22C361.12 270.873 360.194 271.2 358.994 271.2C357.794 271.2 356.867 270.873 356.214 270.22C355.574 269.567 355.254 268.64 355.254 267.44ZM358.994 269.18C359.98 269.18 360.474 268.64 360.474 267.56V260.44C360.474 259.36 359.98 258.82 358.994 258.82C358.02 258.82 357.534 259.36 357.534 260.44V267.56C357.534 268.64 358.02 269.18 358.994 269.18ZM368.475 271H364.555V257H368.275C369.528 257 370.448 257.273 371.035 257.82C371.635 258.367 371.935 259.207 371.935 260.34V260.76C371.935 262.187 371.381 263.113 370.275 263.54V263.6C371.541 263.987 372.175 265.02 372.175 266.7V267.42C372.175 269.807 370.941 271 368.475 271ZM366.835 259.02V262.74H367.975C368.548 262.74 368.968 262.613 369.235 262.36C369.515 262.093 369.655 261.68 369.655 261.12V260.6C369.655 260.04 369.541 259.64 369.315 259.4C369.088 259.147 368.715 259.02 368.195 259.02H366.835ZM366.835 264.76V268.98H368.475C368.968 268.98 369.328 268.86 369.555 268.62C369.781 268.367 369.895 267.96 369.895 267.4V266.62C369.895 265.927 369.761 265.447 369.495 265.18C369.228 264.9 368.761 264.76 368.095 264.76H366.835ZM144.46 287V298.98H145.66V302.88H143.38V301H137.64V302.88H135.38V298.98H136.68C136.973 298.687 137.14 298.14 137.18 297.34L137.6 287H144.46ZM138.84 298.98H142.18V289.02H139.74L139.46 297.22C139.433 297.94 139.227 298.527 138.84 298.98ZM147.056 301.02C146.776 301.02 146.556 300.993 146.396 300.94V298.96C146.556 299 146.709 299.02 146.856 299.02C147.349 299.02 147.689 298.9 147.876 298.66C148.076 298.407 148.189 297.973 148.216 297.36L148.636 287H155.476V301H153.216V289.02H150.776L150.476 297.42C150.436 298.673 150.149 299.587 149.616 300.16C149.082 300.733 148.229 301.02 147.056 301.02ZM164.684 287V301H162.404V295.08H161.364C160.724 295.08 160.271 295.22 160.004 295.5C159.751 295.78 159.624 296.267 159.624 296.96V299.16C159.624 299.947 159.551 300.56 159.404 301H157.104C157.278 300.573 157.364 299.967 157.364 299.18V297.1C157.364 296.18 157.498 295.473 157.764 294.98C158.031 294.473 158.464 294.133 159.064 293.96V293.9C157.944 293.487 157.384 292.533 157.384 291.04V290.36C157.384 289.213 157.678 288.367 158.264 287.82C158.864 287.273 159.791 287 161.044 287H164.684ZM161.324 293.06H162.404V289.02H161.084C160.591 289.02 160.231 289.147 160.004 289.4C159.778 289.653 159.664 290.053 159.664 290.6V291.4C159.664 291.987 159.798 292.413 160.064 292.68C160.331 292.933 160.751 293.06 161.324 293.06ZM172.382 301H170.102V287H173.722C176.175 287 177.402 288.213 177.402 290.64V291.68C177.402 294.107 176.175 295.32 173.722 295.32H172.382V301ZM172.382 289.02V293.32H173.722C174.215 293.32 174.568 293.2 174.782 292.96C175.008 292.707 175.122 292.3 175.122 291.74V290.56C175.122 290 175.008 289.607 174.782 289.38C174.568 289.14 174.215 289.02 173.722 289.02H172.382ZM185.63 301H178.91V287H185.63V289.02H181.19V292.78H184.75V294.8H181.19V298.98H185.63V301ZM194.992 301H192.672L192.212 298.28H189.132L188.652 301H186.532L189.212 287H192.292L194.992 301ZM190.672 289.36L189.472 296.3H191.872L190.672 289.36ZM196.45 301.02C196.17 301.02 195.95 300.993 195.79 300.94V298.96C195.95 299 196.103 299.02 196.25 299.02C196.743 299.02 197.083 298.9 197.27 298.66C197.47 298.407 197.583 297.973 197.61 297.36L198.03 287H204.87V301H202.61V289.02H200.17L199.87 297.42C199.83 298.673 199.543 299.587 199.01 300.16C198.477 300.733 197.623 301.02 196.45 301.02ZM208.919 296.36L212.299 287H214.619V301H212.559V291.6L209.199 301H206.879V287H208.919V296.36ZM219.845 301.2C218.645 301.2 217.732 300.887 217.105 300.26C216.478 299.62 216.165 298.7 216.165 297.5V296.56H218.305V297.54C218.305 298.633 218.798 299.18 219.785 299.18C220.305 299.18 220.678 299.047 220.905 298.78C221.145 298.5 221.265 298.047 221.265 297.42V296.66C221.265 295.967 221.125 295.473 220.845 295.18C220.578 294.873 220.132 294.72 219.505 294.72H218.645V292.7H219.565C220.658 292.7 221.205 292.133 221.205 291V290.38C221.205 289.34 220.732 288.82 219.785 288.82C218.852 288.82 218.385 289.32 218.385 290.32V291.02H216.245V290.5C216.245 289.3 216.552 288.387 217.165 287.76C217.778 287.12 218.678 286.8 219.865 286.8C221.038 286.8 221.932 287.107 222.545 287.72C223.158 288.333 223.465 289.22 223.465 290.38V290.76C223.465 292.213 222.872 293.153 221.685 293.58V293.6C222.912 294.027 223.525 295.053 223.525 296.68V297.48C223.525 299.96 222.298 301.2 219.845 301.2ZM232.843 301H230.523L230.063 298.28H226.983L226.503 301H224.383L227.063 287H230.143L232.843 301ZM228.523 289.36L227.323 296.3H229.723L228.523 289.36ZM243.084 302.88H240.804V301H234.184V287H236.464V298.98H239.484V287H241.764V298.98H243.084V302.88ZM246.478 296.36L249.858 287H252.178V301H250.118V291.6L246.758 301H244.438V287H246.478V296.36ZM256.224 296.36L259.604 287H261.924V301H259.864V291.6L256.504 301H254.184V287H256.224V296.36ZM273.488 300.24C272.861 300.88 271.968 301.2 270.808 301.2C269.648 301.2 268.748 300.88 268.108 300.24C267.481 299.587 267.168 298.673 267.168 297.5V290.5C267.168 289.327 267.481 288.42 268.108 287.78C268.748 287.127 269.648 286.8 270.808 286.8C271.968 286.8 272.861 287.127 273.488 287.78C274.114 288.42 274.428 289.327 274.428 290.5V291.74H272.288V290.4C272.288 289.32 271.814 288.78 270.868 288.78C269.921 288.78 269.448 289.32 269.448 290.4V297.6C269.448 298.68 269.921 299.22 270.868 299.22C271.814 299.22 272.288 298.68 272.288 297.6V295.84H274.428V297.5C274.428 298.673 274.114 299.587 273.488 300.24ZM279.959 301H276.039V287H279.759C281.012 287 281.932 287.273 282.519 287.82C283.119 288.367 283.419 289.207 283.419 290.34V290.76C283.419 292.187 282.866 293.113 281.759 293.54V293.6C283.026 293.987 283.659 295.02 283.659 296.7V297.42C283.659 299.807 282.426 301 279.959 301ZM278.319 289.02V292.74H279.459C280.032 292.74 280.452 292.613 280.719 292.36C280.999 292.093 281.139 291.68 281.139 291.12V290.6C281.139 290.04 281.026 289.64 280.799 289.4C280.572 289.147 280.199 289.02 279.679 289.02H278.319ZM278.319 294.76V298.98H279.959C280.452 298.98 280.812 298.86 281.039 298.62C281.266 298.367 281.379 297.96 281.379 297.4V296.62C281.379 295.927 281.246 295.447 280.979 295.18C280.712 294.9 280.246 294.76 279.579 294.76H278.319ZM285.078 297.44V290.56C285.078 289.36 285.398 288.433 286.038 287.78C286.691 287.127 287.618 286.8 288.818 286.8C290.031 286.8 290.958 287.127 291.598 287.78C292.251 288.433 292.578 289.36 292.578 290.56V297.44C292.578 298.64 292.251 299.567 291.598 300.22C290.944 300.873 290.018 301.2 288.818 301.2C287.618 301.2 286.691 300.873 286.038 300.22C285.398 299.567 285.078 298.64 285.078 297.44ZM288.818 299.18C289.804 299.18 290.298 298.64 290.298 297.56V290.44C290.298 289.36 289.804 288.82 288.818 288.82C287.844 288.82 287.358 289.36 287.358 290.44V297.56C287.358 298.64 287.844 299.18 288.818 299.18ZM296.419 296.36L299.799 287H302.119V301H300.059V291.6L296.699 301H294.379V287H296.419V296.36ZM305.625 301H303.465L306.425 293.82L303.585 287H306.025L307.825 291.7L309.685 287H311.885L309.045 293.82L312.005 301H309.585L307.625 295.94L305.625 301ZM319.042 301H316.762V287H324.342V301H322.062V289.02H319.042V301ZM326.372 301.02C326.092 301.02 325.872 300.993 325.712 300.94V298.96C325.872 299 326.025 299.02 326.172 299.02C326.665 299.02 327.005 298.9 327.192 298.66C327.392 298.407 327.505 297.973 327.532 297.36L327.952 287H334.792V301H332.532V289.02H330.092L329.792 297.42C329.752 298.673 329.465 299.587 328.932 300.16C328.399 300.733 327.545 301.02 326.372 301.02ZM344.621 301H342.301L341.841 298.28H338.761L338.281 301H336.161L338.841 287H341.921L344.621 301ZM340.301 289.36L339.101 296.3H341.501L340.301 289.36ZM348.241 301H345.961V287H348.241V292.78H351.261V287H353.541V301H351.261V294.8H348.241V301ZM355.351 297.44V290.56C355.351 289.36 355.671 288.433 356.311 287.78C356.965 287.127 357.891 286.8 359.091 286.8C360.305 286.8 361.231 287.127 361.871 287.78C362.525 288.433 362.851 289.36 362.851 290.56V297.44C362.851 298.64 362.525 299.567 361.871 300.22C361.218 300.873 360.291 301.2 359.091 301.2C357.891 301.2 356.965 300.873 356.311 300.22C355.671 299.567 355.351 298.64 355.351 297.44ZM359.091 299.18C360.078 299.18 360.571 298.64 360.571 297.56V290.44C360.571 289.36 360.078 288.82 359.091 288.82C358.118 288.82 357.631 289.36 357.631 290.44V297.56C357.631 298.64 358.118 299.18 359.091 299.18ZM368.572 301H364.652V287H368.372C369.626 287 370.546 287.273 371.132 287.82C371.732 288.367 372.032 289.207 372.032 290.34V290.76C372.032 292.187 371.479 293.113 370.372 293.54V293.6C371.639 293.987 372.272 295.02 372.272 296.7V297.42C372.272 299.807 371.039 301 368.572 301ZM366.932 289.02V292.74H368.072C368.646 292.74 369.066 292.613 369.332 292.36C369.612 292.093 369.752 291.68 369.752 291.12V290.6C369.752 290.04 369.639 289.64 369.412 289.4C369.186 289.147 368.812 289.02 368.292 289.02H366.932ZM366.932 294.76V298.98H368.572C369.066 298.98 369.426 298.86 369.652 298.62C369.879 298.367 369.992 297.96 369.992 297.4V296.62C369.992 295.927 369.859 295.447 369.592 295.18C369.326 294.9 368.859 294.76 368.192 294.76H366.932ZM376.231 301H373.951V298.6H376.231V301Z" fill="white"/>
<path opacity="0.4" d="M335 19.377C375.534 11.9689 471.568 21.4915 435.5 53.377C399.432 85.2625 335 70.1762 335 112" stroke="#FFF8D9" stroke-width="2" stroke-linecap="round" stroke-dasharray="6 6"/>
<path opacity="0.4" d="M285.5 144C252.192 134.853 237.305 206.416 166.599 182.321C95.8937 158.227 76.9953 199.26 81.6699 218" stroke="#FFF8D9" stroke-width="2" stroke-linecap="round" stroke-dasharray="6 6"/>
<path opacity="0.4" d="M402 271.766C647.176 264.828 429.864 294.496 473 382.5" stroke="#FFF8D9" stroke-width="2" stroke-linecap="round" stroke-dasharray="6 6"/>
<defs>
<filter id="filter0_ddddd_508_403840" x="295" y="122" width="114" height="109" filterUnits="userSpaceOnUse" color-interpolation-filters="sRGB">
<feFlood flood-opacity="0" result="BackgroundImageFix"/>
<feColorMatrix in="SourceAlpha" type="matrix" values="0 0 0 0 0 0 0 0 0 0 0 0 0 0 0 0 0 0 127 0" result="hardAlpha"/>
<feOffset/>
<feColorMatrix type="matrix" values="0 0 0 0 0.0745098 0 0 0 0 0.12549 0 0 0 0 0.0823529 0 0 0 0.2 0"/>
<feBlend mode="normal" in2="BackgroundImageFix" result="effect1_dropShadow_508_403840"/>
<feColorMatrix in="SourceAlpha" type="matrix" values="0 0 0 0 0 0 0 0 0 0 0 0 0 0 0 0 0 0 127 0" result="hardAlpha"/>
<feOffset dx="2" dy="2"/>
<feGaussianBlur stdDeviation="3"/>
<feColorMatrix type="matrix" values="0 0 0 0 0.0745098 0 0 0 0 0.12549 0 0 0 0 0.0823529 0 0 0 0.2 0"/>
<feBlend mode="normal" in2="effect1_dropShadow_508_403840" result="effect2_dropShadow_508_403840"/>
<feColorMatrix in="SourceAlpha" type="matrix" values="0 0 0 0 0 0 0 0 0 0 0 0 0 0 0 0 0 0 127 0" result="hardAlpha"/>
<feOffset dx="8" dy="7"/>
<feGaussianBlur stdDeviation="5"/>
<feColorMatrix type="matrix" values="0 0 0 0 0.0745098 0 0 0 0 0.12549 0 0 0 0 0.0823529 0 0 0 0.17 0"/>
<feBlend mode="normal" in2="effect2_dropShadow_508_403840" result="effect3_dropShadow_508_403840"/>
<feColorMatrix in="SourceAlpha" type="matrix" values="0 0 0 0 0 0 0 0 0 0 0 0 0 0 0 0 0 0 127 0" result="hardAlpha"/>
<feOffset dx="18" dy="15"/>
<feGaussianBlur stdDeviation="7"/>
<feColorMatrix type="matrix" values="0 0 0 0 0.0745098 0 0 0 0 0.12549 0 0 0 0 0.0823529 0 0 0 0.1 0"/>
<feBlend mode="normal" in2="effect3_dropShadow_508_403840" result="effect4_dropShadow_508_403840"/>
<feColorMatrix in="SourceAlpha" type="matrix" values="0 0 0 0 0 0 0 0 0 0 0 0 0 0 0 0 0 0 127 0" result="hardAlpha"/>
<feOffset dx="33" dy="26"/>
<feGaussianBlur stdDeviation="8.5"/>
<feColorMatrix type="matrix" values="0 0 0 0 0.0745098 0 0 0 0 0.12549 0 0 0 0 0.0823529 0 0 0 0.03 0"/>
<feBlend mode="normal" in2="effect4_dropShadow_508_403840" result="effect5_dropShadow_508_403840"/>
<feBlend mode="normal" in="SourceGraphic" in2="effect5_dropShadow_508_403840" result="shape"/>
</filter>
<filter id="filter1_ddddd_508_403840" x="0" y="0" width="114" height="109" filterUnits="userSpaceOnUse" color-interpolation-filters="sRGB">
<feFlood flood-opacity="0" result="BackgroundImageFix"/>
<feColorMatrix in="SourceAlpha" type="matrix" values="0 0 0 0 0 0 0 0 0 0 0 0 0 0 0 0 0 0 127 0" result="hardAlpha"/>
<feOffset/>
<feColorMatrix type="matrix" values="0 0 0 0 0.0745098 0 0 0 0 0.12549 0 0 0 0 0.0823529 0 0 0 0.2 0"/>
<feBlend mode="normal" in2="BackgroundImageFix" result="effect1_dropShadow_508_403840"/>
<feColorMatrix in="SourceAlpha" type="matrix" values="0 0 0 0 0 0 0 0 0 0 0 0 0 0 0 0 0 0 127 0" result="hardAlpha"/>
<feOffset dx="2" dy="2"/>
<feGaussianBlur stdDeviation="3"/>
<feColorMatrix type="matrix" values="0 0 0 0 0.0745098 0 0 0 0 0.12549 0 0 0 0 0.0823529 0 0 0 0.2 0"/>
<feBlend mode="normal" in2="effect1_dropShadow_508_403840" result="effect2_dropShadow_508_403840"/>
<feColorMatrix in="SourceAlpha" type="matrix" values="0 0 0 0 0 0 0 0 0 0 0 0 0 0 0 0 0 0 127 0" result="hardAlpha"/>
<feOffset dx="8" dy="7"/>
<feGaussianBlur stdDeviation="5"/>
<feColorMatrix type="matrix" values="0 0 0 0 0.0745098 0 0 0 0 0.12549 0 0 0 0 0.0823529 0 0 0 0.17 0"/>
<feBlend mode="normal" in2="effect2_dropShadow_508_403840" result="effect3_dropShadow_508_403840"/>
<feColorMatrix in="SourceAlpha" type="matrix" values="0 0 0 0 0 0 0 0 0 0 0 0 0 0 0 0 0 0 127 0" result="hardAlpha"/>
<feOffset dx="18" dy="15"/>
<feGaussianBlur stdDeviation="7"/>
<feColorMatrix type="matrix" values="0 0 0 0 0.0745098 0 0 0 0 0.12549 0 0 0 0 0.0823529 0 0 0 0.1 0"/>
<feBlend mode="normal" in2="effect3_dropShadow_508_403840" result="effect4_dropShadow_508_403840"/>
<feColorMatrix in="SourceAlpha" type="matrix" values="0 0 0 0 0 0 0 0 0 0 0 0 0 0 0 0 0 0 127 0" result="hardAlpha"/>
<feOffset dx="33" dy="26"/>
<feGaussianBlur stdDeviation="8.5"/>
<feColorMatrix type="matrix" values="0 0 0 0 0.0745098 0 0 0 0 0.12549 0 0 0 0 0.0823529 0 0 0 0.03 0"/>
<feBlend mode="normal" in2="effect4_dropShadow_508_403840" result="effect5_dropShadow_508_403840"/>
<feBlend mode="normal" in="SourceGraphic" in2="effect5_dropShadow_508_403840" result="shape"/>
</filter>
<filter id="filter2_ddddd_508_403840" x="47" y="244" width="114" height="109" filterUnits="userSpaceOnUse" color-interpolation-filters="sRGB">
<feFlood flood-opacity="0" result="BackgroundImageFix"/>
<feColorMatrix in="SourceAlpha" type="matrix" values="0 0 0 0 0 0 0 0 0 0 0 0 0 0 0 0 0 0 127 0" result="hardAlpha"/>
<feOffset/>
<feColorMatrix type="matrix" values="0 0 0 0 0.0745098 0 0 0 0 0.12549 0 0 0 0 0.0823529 0 0 0 0.2 0"/>
<feBlend mode="normal" in2="BackgroundImageFix" result="effect1_dropShadow_508_403840"/>
<feColorMatrix in="SourceAlpha" type="matrix" values="0 0 0 0 0 0 0 0 0 0 0 0 0 0 0 0 0 0 127 0" result="hardAlpha"/>
<feOffset dx="2" dy="2"/>
<feGaussianBlur stdDeviation="3"/>
<feColorMatrix type="matrix" values="0 0 0 0 0.0745098 0 0 0 0 0.12549 0 0 0 0 0.0823529 0 0 0 0.2 0"/>
<feBlend mode="normal" in2="effect1_dropShadow_508_403840" result="effect2_dropShadow_508_403840"/>
<feColorMatrix in="SourceAlpha" type="matrix" values="0 0 0 0 0 0 0 0 0 0 0 0 0 0 0 0 0 0 127 0" result="hardAlpha"/>
<feOffset dx="8" dy="7"/>
<feGaussianBlur stdDeviation="5"/>
<feColorMatrix type="matrix" values="0 0 0 0 0.0745098 0 0 0 0 0.12549 0 0 0 0 0.0823529 0 0 0 0.17 0"/>
<feBlend mode="normal" in2="effect2_dropShadow_508_403840" result="effect3_dropShadow_508_403840"/>
<feColorMatrix in="SourceAlpha" type="matrix" values="0 0 0 0 0 0 0 0 0 0 0 0 0 0 0 0 0 0 127 0" result="hardAlpha"/>
<feOffset dx="18" dy="15"/>
<feGaussianBlur stdDeviation="7"/>
<feColorMatrix type="matrix" values="0 0 0 0 0.0745098 0 0 0 0 0.12549 0 0 0 0 0.0823529 0 0 0 0.1 0"/>
<feBlend mode="normal" in2="effect3_dropShadow_508_403840" result="effect4_dropShadow_508_403840"/>
<feColorMatrix in="SourceAlpha" type="matrix" values="0 0 0 0 0 0 0 0 0 0 0 0 0 0 0 0 0 0 127 0" result="hardAlpha"/>
<feOffset dx="33" dy="26"/>
<feGaussianBlur stdDeviation="8.5"/>
<feColorMatrix type="matrix" values="0 0 0 0 0.0745098 0 0 0 0 0.12549 0 0 0 0 0.0823529 0 0 0 0.03 0"/>
<feBlend mode="normal" in2="effect4_dropShadow_508_403840" result="effect5_dropShadow_508_403840"/>
<feBlend mode="normal" in="SourceGraphic" in2="effect5_dropShadow_508_403840" result="shape"/>
</filter>
</defs>
</svg>
