<svg width="650" height="439" viewBox="0 0 650 439" fill="none" xmlns="http://www.w3.org/2000/svg">
<g filter="url(#filter0_ddddd_702_390998)">
<ellipse cx="80" cy="60.5" rx="22" ry="5.5" fill="#DDBA63"/>
<path d="M79.9985 7.74927C74.5304 7.75576 69.2882 9.93082 65.4216 13.7974C61.5551 17.6639 59.38 22.9062 59.3735 28.3743C59.3735 46.022 78.1235 59.3521 78.9219 59.9105C79.2376 60.131 79.6134 60.2493 79.9985 60.2493C80.3836 60.2493 80.7595 60.131 81.0752 59.9105C81.8735 59.3521 100.624 46.022 100.624 28.3743C100.617 22.9062 98.442 17.6639 94.5754 13.7974C90.7089 9.93082 85.4666 7.75575 79.9985 7.74927V7.74927ZM79.9999 20.8749C81.4833 20.8749 82.9333 21.3148 84.1667 22.1389C85.4001 22.963 86.3613 24.1344 86.929 25.5048C87.4967 26.8753 87.6452 28.3833 87.3558 29.8381C87.0664 31.293 86.3521 32.6294 85.3032 33.6782C84.2543 34.7271 82.9179 35.4414 81.4631 35.7308C80.0082 36.0202 78.5002 35.8717 77.1298 35.304C75.7593 34.7364 74.588 33.7751 73.7639 32.5417C72.9398 31.3084 72.4999 29.8583 72.4999 28.3749C72.4999 27.39 72.6939 26.4147 73.0708 25.5048C73.4477 24.5948 74.0001 23.768 74.6965 23.0716C75.393 22.3751 76.2198 21.8227 77.1297 21.4458C78.0397 21.0689 79.015 20.8749 79.9999 20.8749V20.8749Z" fill="#FFF9DA"/>
<ellipse cx="80" cy="28.5" rx="13" ry="12.5" fill="#C74403"/>
<path d="M81.9498 36H79.7498V25.32H77.4498V23.76C78.3698 23.76 79.0365 23.64 79.4498 23.4C79.8765 23.1333 80.2165 22.6667 80.4698 22H81.9498V36Z" fill="white"/>
</g>
<path d="M137.28 27H135V13H138.62C141.073 13 142.3 14.2133 142.3 16.64V17.68C142.3 20.1067 141.073 21.32 138.62 21.32H137.28V27ZM137.28 15.02V19.32H138.62C139.113 19.32 139.467 19.2 139.68 18.96C139.907 18.7067 140.02 18.3 140.02 17.74V16.56C140.02 16 139.907 15.6067 139.68 15.38C139.467 15.14 139.113 15.02 138.62 15.02H137.28ZM150.828 27H148.508L148.048 24.28H144.968L144.488 27H142.368L145.048 13H148.128L150.828 27ZM146.508 15.36L145.308 22.3H147.708L146.508 15.36ZM158.21 26.24C157.584 26.88 156.69 27.2 155.53 27.2C154.37 27.2 153.47 26.88 152.83 26.24C152.204 25.5867 151.89 24.6733 151.89 23.5V16.5C151.89 15.3267 152.204 14.42 152.83 13.78C153.47 13.1267 154.37 12.8 155.53 12.8C156.69 12.8 157.584 13.1267 158.21 13.78C158.837 14.42 159.15 15.3267 159.15 16.5V17.74H157.01V16.4C157.01 15.32 156.537 14.78 155.59 14.78C154.644 14.78 154.17 15.32 154.17 16.4V23.6C154.17 24.68 154.644 25.22 155.59 25.22C156.537 25.22 157.01 24.68 157.01 23.6V21.84H159.15V23.5C159.15 24.6733 158.837 25.5867 158.21 26.24ZM166.921 26.24C166.295 26.88 165.401 27.2 164.241 27.2C163.081 27.2 162.181 26.88 161.541 26.24C160.915 25.5867 160.601 24.6733 160.601 23.5V16.5C160.601 15.3267 160.915 14.42 161.541 13.78C162.181 13.1267 163.081 12.8 164.241 12.8C165.401 12.8 166.295 13.1267 166.921 13.78C167.548 14.42 167.861 15.3267 167.861 16.5V17.74H165.721V16.4C165.721 15.32 165.248 14.78 164.301 14.78C163.355 14.78 162.881 15.32 162.881 16.4V23.6C162.881 24.68 163.355 25.22 164.301 25.22C165.248 25.22 165.721 24.68 165.721 23.6V21.84H167.861V23.5C167.861 24.6733 167.548 25.5867 166.921 26.24ZM177.573 27H175.173L172.953 20.6L171.753 22.58V27H169.473V13H171.753V19.16L175.213 13H177.533L174.493 18.2L177.573 27ZM186.726 27H184.406L183.946 24.28H180.866L180.386 27H178.266L180.946 13H184.026L186.726 27ZM182.406 15.36L181.206 22.3H183.606L182.406 15.36ZM200.786 27H198.506L196.346 20.2L195.246 22.1V27H192.966V22.1L191.866 20.2L189.706 27H187.406L190.366 18.2L187.446 13H189.806L192.966 19.06V13H195.246V19.06L198.426 13H200.746L197.846 18.22L200.786 27ZM204.169 22.36L207.549 13H209.869V27H207.809V17.6L204.449 27H202.129V13H204.169V22.36ZM212.895 29.32H211.855L212.755 27H211.955V24.6H214.235V26.76L212.895 29.32ZM224.727 18.08V13H227.007V27H224.727V21.16C224.14 21.76 223.347 22.06 222.347 22.06C220.373 22.06 219.387 20.9333 219.387 18.68V13H221.647V18.38C221.647 19.46 222.113 20 223.047 20C223.58 20 223.993 19.84 224.287 19.52C224.58 19.1867 224.727 18.7067 224.727 18.08ZM233.324 27H231.064V15.02H228.384V13H236.004V15.02H233.324V27ZM237.125 23.44V16.56C237.125 15.36 237.445 14.4333 238.085 13.78C238.738 13.1267 239.665 12.8 240.865 12.8C242.078 12.8 243.005 13.1267 243.645 13.78C244.298 14.4333 244.625 15.36 244.625 16.56V23.44C244.625 24.64 244.298 25.5667 243.645 26.22C242.991 26.8733 242.065 27.2 240.865 27.2C239.665 27.2 238.738 26.8733 238.085 26.22C237.445 25.5667 237.125 24.64 237.125 23.44ZM240.865 25.18C241.851 25.18 242.345 24.64 242.345 23.56V16.44C242.345 15.36 241.851 14.82 240.865 14.82C239.891 14.82 239.405 15.36 239.405 16.44V23.56C239.405 24.64 239.891 25.18 240.865 25.18ZM252.124 27H249.844V13H252.124V18.78H255.144V13H257.424V27H255.144V20.8H252.124V27ZM259.234 23.44V16.56C259.234 15.36 259.554 14.4333 260.194 13.78C260.847 13.1267 261.774 12.8 262.974 12.8C264.187 12.8 265.114 13.1267 265.754 13.78C266.407 14.4333 266.734 15.36 266.734 16.56V23.44C266.734 24.64 266.407 25.5667 265.754 26.22C265.101 26.8733 264.174 27.2 262.974 27.2C261.774 27.2 260.847 26.8733 260.194 26.22C259.554 25.5667 259.234 24.64 259.234 23.44ZM262.974 25.18C263.961 25.18 264.454 24.64 264.454 23.56V16.44C264.454 15.36 263.961 14.82 262.974 14.82C262.001 14.82 261.514 15.36 261.514 16.44V23.56C261.514 24.64 262.001 25.18 262.974 25.18ZM272.455 27H268.535V13H272.255C273.508 13 274.428 13.2733 275.015 13.82C275.615 14.3667 275.915 15.2067 275.915 16.34V16.76C275.915 18.1867 275.362 19.1133 274.255 19.54V19.6C275.522 19.9867 276.155 21.02 276.155 22.7V23.42C276.155 25.8067 274.922 27 272.455 27ZM270.815 15.02V18.74H271.955C272.528 18.74 272.948 18.6133 273.215 18.36C273.495 18.0933 273.635 17.68 273.635 17.12V16.6C273.635 16.04 273.522 15.64 273.295 15.4C273.068 15.1467 272.695 15.02 272.175 15.02H270.815ZM270.815 20.76V24.98H272.455C272.948 24.98 273.308 24.86 273.535 24.62C273.762 24.3667 273.875 23.96 273.875 23.4V22.62C273.875 21.9267 273.742 21.4467 273.475 21.18C273.208 20.9 272.742 20.76 272.075 20.76H270.815ZM277.574 23.44V16.56C277.574 15.36 277.894 14.4333 278.534 13.78C279.187 13.1267 280.114 12.8 281.314 12.8C282.527 12.8 283.454 13.1267 284.094 13.78C284.747 14.4333 285.074 15.36 285.074 16.56V23.44C285.074 24.64 284.747 25.5667 284.094 26.22C283.441 26.8733 282.514 27.2 281.314 27.2C280.114 27.2 279.187 26.8733 278.534 26.22C277.894 25.5667 277.574 24.64 277.574 23.44ZM281.314 25.18C282.301 25.18 282.794 24.64 282.794 23.56V16.44C282.794 15.36 282.301 14.82 281.314 14.82C280.341 14.82 279.854 15.36 279.854 16.44V23.56C279.854 24.64 280.341 25.18 281.314 25.18ZM289.155 27H286.875V13H293.155V15.02H289.155V27ZM294.293 23.44V16.56C294.293 15.36 294.613 14.4333 295.253 13.78C295.906 13.1267 296.833 12.8 298.033 12.8C299.246 12.8 300.173 13.1267 300.813 13.78C301.466 14.4333 301.793 15.36 301.793 16.56V23.44C301.793 24.64 301.466 25.5667 300.813 26.22C300.159 26.8733 299.233 27.2 298.033 27.2C296.833 27.2 295.906 26.8733 295.253 26.22C294.613 25.5667 294.293 24.64 294.293 23.44ZM298.033 25.18C299.019 25.18 299.513 24.64 299.513 23.56V16.44C299.513 15.36 299.019 14.82 298.033 14.82C297.059 14.82 296.573 15.36 296.573 16.44V23.56C296.573 24.64 297.059 25.18 298.033 25.18ZM139.32 57H137.06V45.02H134.38V43H142V45.02H139.32V57ZM147.019 57H143.379V43H145.659V48.4H147.019C149.472 48.4 150.699 49.6333 150.699 52.1V53.3C150.699 55.7667 149.472 57 147.019 57ZM154.499 57H152.219V43H154.499V57ZM145.659 50.42V54.98H147.019C147.499 54.98 147.852 54.86 148.079 54.62C148.306 54.3667 148.419 53.9667 148.419 53.42V51.98C148.419 51.4333 148.306 51.04 148.079 50.8C147.852 50.5467 147.499 50.42 147.019 50.42H145.659ZM161.422 57H159.262L162.222 49.82L159.382 43H161.822L163.622 47.7L165.482 43H167.682L164.842 49.82L167.802 57H165.382L163.422 51.94L161.422 57ZM168.59 53.44V46.56C168.59 45.36 168.91 44.4333 169.55 43.78C170.203 43.1267 171.13 42.8 172.33 42.8C173.543 42.8 174.47 43.1267 175.11 43.78C175.763 44.4333 176.09 45.36 176.09 46.56V53.44C176.09 54.64 175.763 55.5667 175.11 56.22C174.456 56.8733 173.53 57.2 172.33 57.2C171.13 57.2 170.203 56.8733 169.55 56.22C168.91 55.5667 168.59 54.64 168.59 53.44ZM172.33 55.18C173.316 55.18 173.81 54.64 173.81 53.56V46.44C173.81 45.36 173.316 44.82 172.33 44.82C171.356 44.82 170.87 45.36 170.87 46.44V53.56C170.87 54.64 171.356 55.18 172.33 55.18ZM182.133 57H179.873V45.02H177.193V43H184.813V45.02H182.133V57ZM192.911 57H186.191V43H192.911V45.02H188.471V48.78H192.031V50.8H188.471V54.98H192.911V57ZM194.454 57.02C194.174 57.02 193.954 56.9933 193.794 56.94V54.96C193.954 55 194.107 55.02 194.254 55.02C194.747 55.02 195.087 54.9 195.274 54.66C195.474 54.4067 195.587 53.9733 195.614 53.36L196.034 43H202.874V57H200.614V45.02H198.174L197.874 53.42C197.834 54.6733 197.547 55.5867 197.014 56.16C196.481 56.7333 195.627 57.02 194.454 57.02ZM212.101 57H208.301V43H214.841V45.02H210.581V48.5H212.101C214.554 48.5 215.781 49.7333 215.781 52.2V53.3C215.781 55.7667 214.554 57 212.101 57ZM210.581 50.52V54.98H212.101C212.581 54.98 212.934 54.86 213.161 54.62C213.387 54.3667 213.501 53.9667 213.501 53.42V52.08C213.501 51.5333 213.387 51.14 213.161 50.9C212.934 50.6467 212.581 50.52 212.101 50.52H210.581ZM220.925 57H217.285V43H219.565V48.4H220.925C223.378 48.4 224.605 49.6333 224.605 52.1V53.3C224.605 55.7667 223.378 57 220.925 57ZM228.405 57H226.125V43H228.405V57ZM219.565 50.42V54.98H220.925C221.405 54.98 221.758 54.86 221.985 54.62C222.212 54.3667 222.325 53.9667 222.325 53.42V51.98C222.325 51.4333 222.212 51.04 221.985 50.8C221.758 50.5467 221.405 50.42 220.925 50.42H219.565ZM242.288 43V54.98H243.488V58.88H241.208V57H235.468V58.88H233.208V54.98H234.508C234.801 54.6867 234.968 54.14 235.008 53.34L235.428 43H242.288ZM236.668 54.98H240.008V45.02H237.568L237.288 53.22C237.261 53.94 237.055 54.5267 236.668 54.98ZM244.884 57.02C244.604 57.02 244.384 56.9933 244.224 56.94V54.96C244.384 55 244.537 55.02 244.684 55.02C245.177 55.02 245.517 54.9 245.704 54.66C245.904 54.4067 246.017 53.9733 246.044 53.36L246.464 43H253.304V57H251.044V45.02H248.604L248.304 53.42C248.264 54.6733 247.977 55.5867 247.444 56.16C246.91 56.7333 246.057 57.02 244.884 57.02ZM262.513 43V57H260.233V51.08H259.193C258.553 51.08 258.099 51.22 257.833 51.5C257.579 51.78 257.453 52.2667 257.453 52.96V55.16C257.453 55.9467 257.379 56.56 257.233 57H254.933C255.106 56.5733 255.193 55.9667 255.193 55.18V53.1C255.193 52.18 255.326 51.4733 255.593 50.98C255.859 50.4733 256.293 50.1333 256.893 49.96V49.9C255.773 49.4867 255.213 48.5333 255.213 47.04V46.36C255.213 45.2133 255.506 44.3667 256.093 43.82C256.693 43.2733 257.619 43 258.873 43H262.513ZM259.153 49.06H260.233V45.02H258.913C258.419 45.02 258.059 45.1467 257.833 45.4C257.606 45.6533 257.493 46.0533 257.493 46.6V47.4C257.493 47.9867 257.626 48.4133 257.893 48.68C258.159 48.9333 258.579 49.06 259.153 49.06ZM274.07 56.24C273.443 56.88 272.55 57.2 271.39 57.2C270.23 57.2 269.33 56.88 268.69 56.24C268.063 55.5867 267.75 54.6733 267.75 53.5V46.5C267.75 45.3267 268.063 44.42 268.69 43.78C269.33 43.1267 270.23 42.8 271.39 42.8C272.55 42.8 273.443 43.1267 274.07 43.78C274.696 44.42 275.01 45.3267 275.01 46.5V47.74H272.87V46.4C272.87 45.32 272.396 44.78 271.45 44.78C270.503 44.78 270.03 45.32 270.03 46.4V53.6C270.03 54.68 270.503 55.22 271.45 55.22C272.396 55.22 272.87 54.68 272.87 53.6V51.84H275.01V53.5C275.01 54.6733 274.696 55.5867 274.07 56.24ZM283.341 57H276.621V43H283.341V45.02H278.901V48.78H282.461V50.8H278.901V54.98H283.341V57ZM288.644 57H284.844V43H291.384V45.02H287.124V48.5H288.644C291.097 48.5 292.324 49.7333 292.324 52.2V53.3C292.324 55.7667 291.097 57 288.644 57ZM287.124 50.52V54.98H288.644C289.124 54.98 289.477 54.86 289.704 54.62C289.93 54.3667 290.044 53.9667 290.044 53.42V52.08C290.044 51.5333 289.93 51.14 289.704 50.9C289.477 50.6467 289.124 50.52 288.644 50.52H287.124ZM301.028 43V57H298.748V51.08H297.708C297.068 51.08 296.615 51.22 296.348 51.5C296.095 51.78 295.968 52.2667 295.968 52.96V55.16C295.968 55.9467 295.895 56.56 295.748 57H293.448C293.621 56.5733 293.708 55.9667 293.708 55.18V53.1C293.708 52.18 293.841 51.4733 294.108 50.98C294.375 50.4733 294.808 50.1333 295.408 49.96V49.9C294.288 49.4867 293.728 48.5333 293.728 47.04V46.36C293.728 45.2133 294.021 44.3667 294.608 43.82C295.208 43.2733 296.135 43 297.388 43H301.028ZM297.668 49.06H298.748V45.02H297.428C296.935 45.02 296.575 45.1467 296.348 45.4C296.121 45.6533 296.008 46.0533 296.008 46.6V47.4C296.008 47.9867 296.141 48.4133 296.408 48.68C296.675 48.9333 297.095 49.06 297.668 49.06ZM306.265 53.44V46.56C306.265 45.36 306.585 44.4333 307.225 43.78C307.879 43.1267 308.805 42.8 310.005 42.8C311.219 42.8 312.145 43.1267 312.785 43.78C313.439 44.4333 313.765 45.36 313.765 46.56V53.44C313.765 54.64 313.439 55.5667 312.785 56.22C312.132 56.8733 311.205 57.2 310.005 57.2C308.805 57.2 307.879 56.8733 307.225 56.22C306.585 55.5667 306.265 54.64 306.265 53.44ZM310.005 55.18C310.992 55.18 311.485 54.64 311.485 53.56V46.44C311.485 45.36 310.992 44.82 310.005 44.82C309.032 44.82 308.545 45.36 308.545 46.44V53.56C308.545 54.64 309.032 55.18 310.005 55.18ZM319.808 57H317.548V45.02H314.868V43H322.488V45.02H319.808V57ZM331.967 57H329.567L327.347 50.6L326.147 52.58V57H323.867V43H326.147V49.16L329.607 43H331.927L328.887 48.2L331.967 57ZM335.581 57H333.301V43H336.921C339.374 43 340.601 44.2133 340.601 46.64V47.68C340.601 50.1067 339.374 51.32 336.921 51.32H335.581V57ZM335.581 45.02V49.32H336.921C337.414 49.32 337.767 49.2 337.981 48.96C338.207 48.7067 338.321 48.3 338.321 47.74V46.56C338.321 46 338.207 45.6067 337.981 45.38C337.767 45.14 337.414 45.02 336.921 45.02H335.581ZM345.749 57H342.109V43H344.389V48.4H345.749C348.203 48.4 349.429 49.6333 349.429 52.1V53.3C349.429 55.7667 348.203 57 345.749 57ZM353.229 57H350.949V43H353.229V57ZM344.389 50.42V54.98H345.749C346.229 54.98 346.583 54.86 346.809 54.62C347.036 54.3667 347.149 53.9667 347.149 53.42V51.98C347.149 51.4333 347.036 51.04 346.809 50.8C346.583 50.5467 346.229 50.42 345.749 50.42H344.389ZM359.554 57H357.294V45.02H354.614V43H362.234V45.02H359.554V57ZM367.253 57H363.613V43H365.893V48.4H367.253C369.707 48.4 370.933 49.6333 370.933 52.1V53.3C370.933 55.7667 369.707 57 367.253 57ZM365.893 50.42V54.98H367.253C367.733 54.98 368.087 54.86 368.313 54.62C368.54 54.3667 368.653 53.9667 368.653 53.42V51.98C368.653 51.4333 368.54 51.04 368.313 50.8C368.087 50.5467 367.733 50.42 367.253 50.42H365.893Z" fill="white"/>
<g filter="url(#filter1_ddddd_702_390998)">
<ellipse cx="379" cy="202.5" rx="22" ry="5.5" fill="#DDBA63"/>
<path d="M378.999 149.749C373.53 149.756 368.288 151.931 364.422 155.797C360.555 159.664 358.38 164.906 358.374 170.374C358.374 188.022 377.124 201.352 377.922 201.911C378.238 202.131 378.613 202.249 378.999 202.249C379.384 202.249 379.759 202.131 380.075 201.911C380.874 201.352 399.624 188.022 399.624 170.374C399.617 164.906 397.442 159.664 393.575 155.797C389.709 151.931 384.467 149.756 378.999 149.749V149.749ZM379 162.875C380.483 162.875 381.933 163.315 383.167 164.139C384.4 164.963 385.361 166.134 385.929 167.505C386.497 168.875 386.645 170.383 386.356 171.838C386.066 173.293 385.352 174.629 384.303 175.678C383.254 176.727 381.918 177.441 380.463 177.731C379.008 178.02 377.5 177.872 376.13 177.304C374.759 176.736 373.588 175.775 372.764 174.542C371.94 173.308 371.5 171.858 371.5 170.375C371.5 169.39 371.694 168.415 372.071 167.505C372.448 166.595 373 165.768 373.697 165.072C374.393 164.375 375.22 163.823 376.13 163.446C377.04 163.069 378.015 162.875 379 162.875V162.875Z" fill="#FFF9DA"/>
<ellipse cx="379" cy="170.5" rx="13" ry="12.5" fill="#C74403"/>
<path d="M382.129 178H375.769V176.48C375.769 175.44 375.929 174.553 376.249 173.82C376.569 173.087 377.142 172.287 377.969 171.42C378.822 170.5 379.389 169.773 379.669 169.24C379.976 168.653 380.129 168.04 380.129 167.4C380.129 166.813 380.036 166.4 379.849 166.16C379.662 165.92 379.376 165.8 378.989 165.8C378.229 165.8 377.849 166.26 377.849 167.18V168.68H375.769V167.32C375.769 166.187 376.049 165.32 376.609 164.72C377.169 164.107 377.982 163.8 379.049 163.8C380.116 163.8 380.929 164.107 381.489 164.72C382.049 165.32 382.329 166.187 382.329 167.32C382.329 168.187 382.122 169.013 381.709 169.8C381.296 170.613 380.596 171.54 379.609 172.58C378.969 173.26 378.529 173.82 378.289 174.26C378.062 174.7 377.949 175.18 377.949 175.7V176H382.129V178Z" fill="white"/>
</g>
<path d="M436.28 169H434V155H441.58V169H439.3V157.02H436.28V169ZM443.39 165.44V158.56C443.39 157.36 443.71 156.433 444.35 155.78C445.004 155.127 445.93 154.8 447.13 154.8C448.344 154.8 449.27 155.127 449.91 155.78C450.564 156.433 450.89 157.36 450.89 158.56V165.44C450.89 166.64 450.564 167.567 449.91 168.22C449.257 168.873 448.33 169.2 447.13 169.2C445.93 169.2 445.004 168.873 444.35 168.22C443.71 167.567 443.39 166.64 443.39 165.44ZM447.13 167.18C448.117 167.18 448.61 166.64 448.61 165.56V158.44C448.61 157.36 448.117 156.82 447.13 156.82C446.157 156.82 445.67 157.36 445.67 158.44V165.56C445.67 166.64 446.157 167.18 447.13 167.18ZM455.911 169.2C454.711 169.2 453.798 168.887 453.171 168.26C452.545 167.62 452.231 166.7 452.231 165.5V164.56H454.371V165.54C454.371 166.633 454.865 167.18 455.851 167.18C456.371 167.18 456.745 167.047 456.971 166.78C457.211 166.5 457.331 166.047 457.331 165.42V164.66C457.331 163.967 457.191 163.473 456.911 163.18C456.645 162.873 456.198 162.72 455.571 162.72H454.711V160.7H455.631C456.725 160.7 457.271 160.133 457.271 159V158.38C457.271 157.34 456.798 156.82 455.851 156.82C454.918 156.82 454.451 157.32 454.451 158.32V159.02H452.311V158.5C452.311 157.3 452.618 156.387 453.231 155.76C453.845 155.12 454.745 154.8 455.931 154.8C457.105 154.8 457.998 155.107 458.611 155.72C459.225 156.333 459.531 157.22 459.531 158.38V158.76C459.531 160.213 458.938 161.153 457.751 161.58V161.6C458.978 162.027 459.591 163.053 459.591 164.68V165.48C459.591 167.96 458.365 169.2 455.911 169.2ZM461.066 165.44V158.56C461.066 157.36 461.386 156.433 462.026 155.78C462.679 155.127 463.606 154.8 464.806 154.8C466.019 154.8 466.946 155.127 467.586 155.78C468.239 156.433 468.566 157.36 468.566 158.56V165.44C468.566 166.64 468.239 167.567 467.586 168.22C466.933 168.873 466.006 169.2 464.806 169.2C463.606 169.2 462.679 168.873 462.026 168.22C461.386 167.567 461.066 166.64 461.066 165.44ZM464.806 167.18C465.793 167.18 466.286 166.64 466.286 165.56V158.44C466.286 157.36 465.793 156.82 464.806 156.82C463.833 156.82 463.346 157.36 463.346 158.44V165.56C463.346 166.64 463.833 167.18 464.806 167.18ZM474.287 169H470.367V155H474.087C475.341 155 476.261 155.273 476.847 155.82C477.447 156.367 477.747 157.207 477.747 158.34V158.76C477.747 160.187 477.194 161.113 476.087 161.54V161.6C477.354 161.987 477.987 163.02 477.987 164.7V165.42C477.987 167.807 476.754 169 474.287 169ZM472.647 157.02V160.74H473.787C474.361 160.74 474.781 160.613 475.047 160.36C475.327 160.093 475.467 159.68 475.467 159.12V158.6C475.467 158.04 475.354 157.64 475.127 157.4C474.901 157.147 474.527 157.02 474.007 157.02H472.647ZM472.647 162.76V166.98H474.287C474.781 166.98 475.141 166.86 475.367 166.62C475.594 166.367 475.707 165.96 475.707 165.4V164.62C475.707 163.927 475.574 163.447 475.307 163.18C475.041 162.9 474.574 162.76 473.907 162.76H472.647ZM481.626 164.36L485.006 155H487.326V169H485.266V159.6L481.906 169H479.586V155H481.626V164.36ZM501.21 155V166.98H502.41V170.88H500.13V169H494.39V170.88H492.13V166.98H493.43C493.723 166.687 493.89 166.14 493.93 165.34L494.35 155H501.21ZM495.59 166.98H498.93V157.02H496.49L496.21 165.22C496.183 165.94 495.977 166.527 495.59 166.98ZM506.046 169H503.766V155H507.386C509.839 155 511.066 156.213 511.066 158.64V159.68C511.066 162.107 509.839 163.32 507.386 163.32H506.046V169ZM506.046 157.02V161.32H507.386C507.879 161.32 508.232 161.2 508.446 160.96C508.672 160.707 508.786 160.3 508.786 159.74V158.56C508.786 158 508.672 157.607 508.446 157.38C508.232 157.14 507.879 157.02 507.386 157.02H506.046ZM516.06 162.56L517.86 155H520.04L517.02 166.62C516.78 167.54 516.4 168.2 515.88 168.6C515.36 169 514.627 169.2 513.68 169.2C513.134 169.2 512.674 169.127 512.3 168.98V167.02C512.62 167.127 512.967 167.18 513.34 167.18C513.767 167.18 514.087 167.12 514.3 167C514.514 166.867 514.674 166.64 514.78 166.32L514.88 165.96L511.72 155H514.08L516.06 162.56ZM524.329 169.2C523.129 169.2 522.216 168.887 521.589 168.26C520.963 167.62 520.649 166.7 520.649 165.5V164.56H522.789V165.54C522.789 166.633 523.283 167.18 524.269 167.18C524.789 167.18 525.163 167.047 525.389 166.78C525.629 166.5 525.749 166.047 525.749 165.42V164.66C525.749 163.967 525.609 163.473 525.329 163.18C525.063 162.873 524.616 162.72 523.989 162.72H523.129V160.7H524.049C525.143 160.7 525.689 160.133 525.689 159V158.38C525.689 157.34 525.216 156.82 524.269 156.82C523.336 156.82 522.869 157.32 522.869 158.32V159.02H520.729V158.5C520.729 157.3 521.036 156.387 521.649 155.76C522.263 155.12 523.163 154.8 524.349 154.8C525.523 154.8 526.416 155.107 527.029 155.72C527.643 156.333 527.949 157.22 527.949 158.38V158.76C527.949 160.213 527.356 161.153 526.169 161.58V161.6C527.396 162.027 528.009 163.053 528.009 164.68V165.48C528.009 167.96 526.783 169.2 524.329 169.2ZM536.384 169H529.664V155H536.384V157.02H531.944V160.78H535.504V162.8H531.944V166.98H536.384V169ZM541.747 153.86C540.96 153.86 540.34 153.64 539.887 153.2C539.433 152.747 539.193 152.133 539.167 151.36H540.547C540.613 152.027 541.013 152.36 541.747 152.36C542.48 152.36 542.9 152.027 543.007 151.36H544.347C544.32 152.133 544.08 152.747 543.627 153.2C543.173 153.64 542.547 153.86 541.747 153.86ZM539.927 164.36L543.307 155H545.627V169H543.567V159.6L540.207 169H537.887V155H539.927V164.36ZM553.331 169H551.051V155H558.631V169H556.351V157.02H553.331V169ZM560.441 165.44V158.56C560.441 157.36 560.761 156.433 561.401 155.78C562.054 155.127 562.981 154.8 564.181 154.8C565.394 154.8 566.321 155.127 566.961 155.78C567.614 156.433 567.941 157.36 567.941 158.56V165.44C567.941 166.64 567.614 167.567 566.961 168.22C566.308 168.873 565.381 169.2 564.181 169.2C562.981 169.2 562.054 168.873 561.401 168.22C560.761 167.567 560.441 166.64 560.441 165.44ZM564.181 167.18C565.168 167.18 565.661 166.64 565.661 165.56V158.44C565.661 157.36 565.168 156.82 564.181 156.82C563.208 156.82 562.721 157.36 562.721 158.44V165.56C562.721 166.64 563.208 167.18 564.181 167.18ZM578.105 155V166.98H579.305V170.88H577.025V169H571.285V170.88H569.025V166.98H570.325C570.618 166.687 570.785 166.14 570.825 165.34L571.245 155H578.105ZM572.485 166.98H575.825V157.02H573.385L573.105 165.22C573.078 165.94 572.871 166.527 572.485 166.98ZM589.12 155V166.98H590.32V170.88H588.04V169H582.3V170.88H580.04V166.98H581.34C581.633 166.687 581.8 166.14 581.84 165.34L582.26 155H589.12ZM583.5 166.98H586.84V157.02H584.4L584.12 165.22C584.093 165.94 583.887 166.527 583.5 166.98ZM598.396 169H591.676V155H598.396V157.02H593.956V160.78H597.516V162.8H593.956V166.98H598.396V169ZM602.178 169H599.898V155H603.518C605.972 155 607.198 156.213 607.198 158.64V159.68C607.198 162.107 605.972 163.32 603.518 163.32H602.178V169ZM602.178 157.02V161.32H603.518C604.012 161.32 604.365 161.2 604.578 160.96C604.805 160.707 604.918 160.3 604.918 159.74V158.56C604.918 158 604.805 157.607 604.578 157.38C604.365 157.14 604.012 157.02 603.518 157.02H602.178ZM620.861 169H618.581L616.421 162.2L615.321 164.1V169H613.041V164.1L611.941 162.2L609.781 169H607.481L610.441 160.2L607.521 155H609.881L613.041 161.06V155H615.321V161.06L618.501 155H620.821L617.921 160.22L620.861 169ZM630.023 169H627.703L627.243 166.28H624.163L623.683 169H621.563L624.243 155H627.323L630.023 169ZM625.703 157.36L624.503 164.3H626.903L625.703 157.36ZM634.57 169H632.31V157.02H629.63V155H637.25V157.02H634.57V169ZM642.269 169H638.629V155H640.909V160.4H642.269C644.722 160.4 645.949 161.633 645.949 164.1V165.3C645.949 167.767 644.722 169 642.269 169ZM640.909 162.42V166.98H642.269C642.749 166.98 643.102 166.86 643.329 166.62C643.556 166.367 643.669 165.967 643.669 165.42V163.98C643.669 163.433 643.556 163.04 643.329 162.8C643.102 162.547 642.749 162.42 642.269 162.42H640.909ZM438.32 199H436.06V187.02H433.38V185H441V187.02H438.32V199ZM446.299 199H442.379V185H446.099C447.352 185 448.272 185.273 448.859 185.82C449.459 186.367 449.759 187.207 449.759 188.34V188.76C449.759 190.187 449.206 191.113 448.099 191.54V191.6C449.366 191.987 449.999 193.02 449.999 194.7V195.42C449.999 197.807 448.766 199 446.299 199ZM444.659 187.02V190.74H445.799C446.372 190.74 446.792 190.613 447.059 190.36C447.339 190.093 447.479 189.68 447.479 189.12V188.6C447.479 188.04 447.366 187.64 447.139 187.4C446.912 187.147 446.539 187.02 446.019 187.02H444.659ZM444.659 192.76V196.98H446.299C446.792 196.98 447.152 196.86 447.379 196.62C447.606 196.367 447.719 195.96 447.719 195.4V194.62C447.719 193.927 447.586 193.447 447.319 193.18C447.052 192.9 446.586 192.76 445.919 192.76H444.659ZM451.418 195.44V188.56C451.418 187.36 451.738 186.433 452.378 185.78C453.031 185.127 453.958 184.8 455.158 184.8C456.371 184.8 457.298 185.127 457.938 185.78C458.591 186.433 458.918 187.36 458.918 188.56V195.44C458.918 196.64 458.591 197.567 457.938 198.22C457.284 198.873 456.358 199.2 455.158 199.2C453.958 199.2 453.031 198.873 452.378 198.22C451.738 197.567 451.418 196.64 451.418 195.44ZM455.158 197.18C456.144 197.18 456.638 196.64 456.638 195.56V188.44C456.638 187.36 456.144 186.82 455.158 186.82C454.184 186.82 453.698 187.36 453.698 188.44V195.56C453.698 196.64 454.184 197.18 455.158 197.18ZM462.759 194.36L466.139 185H468.459V199H466.399V189.6L463.039 199H460.719V185H462.759V194.36ZM473.703 195.44V188.56C473.703 187.36 474.023 186.433 474.663 185.78C475.316 185.127 476.243 184.8 477.443 184.8C478.656 184.8 479.583 185.127 480.223 185.78C480.876 186.433 481.203 187.36 481.203 188.56V195.44C481.203 196.64 480.876 197.567 480.223 198.22C479.569 198.873 478.643 199.2 477.443 199.2C476.243 199.2 475.316 198.873 474.663 198.22C474.023 197.567 473.703 196.64 473.703 195.44ZM477.443 197.18C478.429 197.18 478.923 196.64 478.923 195.56V188.44C478.923 187.36 478.429 186.82 477.443 186.82C476.469 186.82 475.983 187.36 475.983 188.44V195.56C475.983 196.64 476.469 197.18 477.443 197.18ZM487.246 199H484.986V187.02H482.306V185H489.926V187.02H487.246V199ZM499.405 199H497.005L494.785 192.6L493.585 194.58V199H491.305V185H493.585V191.16L497.045 185H499.365L496.325 190.2L499.405 199ZM503.018 199H500.738V185H504.358C506.812 185 508.038 186.213 508.038 188.64V189.68C508.038 192.107 506.812 193.32 504.358 193.32H503.018V199ZM503.018 187.02V191.32H504.358C504.852 191.32 505.205 191.2 505.418 190.96C505.645 190.707 505.758 190.3 505.758 189.74V188.56C505.758 188 505.645 187.607 505.418 187.38C505.205 187.14 504.852 187.02 504.358 187.02H503.018ZM513.187 199H509.547V185H511.827V190.4H513.187C515.64 190.4 516.867 191.633 516.867 194.1V195.3C516.867 197.767 515.64 199 513.187 199ZM520.667 199H518.387V185H520.667V199ZM511.827 192.42V196.98H513.187C513.667 196.98 514.02 196.86 514.247 196.62C514.474 196.367 514.587 195.967 514.587 195.42V193.98C514.587 193.433 514.474 193.04 514.247 192.8C514.02 192.547 513.667 192.42 513.187 192.42H511.827ZM526.992 199H524.732V187.02H522.052V185H529.672V187.02H526.992V199ZM533.091 194.36L536.471 185H538.791V199H536.731V189.6L533.371 199H531.051V185H533.091V194.36ZM547.997 185V199H545.717V193.08H544.677C544.037 193.08 543.584 193.22 543.317 193.5C543.064 193.78 542.937 194.267 542.937 194.96V197.16C542.937 197.947 542.864 198.56 542.717 199H540.417C540.59 198.573 540.677 197.967 540.677 197.18V195.1C540.677 194.18 540.81 193.473 541.077 192.98C541.344 192.473 541.777 192.133 542.377 191.96V191.9C541.257 191.487 540.697 190.533 540.697 189.04V188.36C540.697 187.213 540.99 186.367 541.577 185.82C542.177 185.273 543.104 185 544.357 185H547.997ZM544.637 191.06H545.717V187.02H544.397C543.904 187.02 543.544 187.147 543.317 187.4C543.09 187.653 542.977 188.053 542.977 188.6V189.4C542.977 189.987 543.11 190.413 543.377 190.68C543.644 190.933 544.064 191.06 544.637 191.06Z" fill="white"/>
<g filter="url(#filter2_ddddd_702_390998)">
<ellipse cx="91" cy="344.5" rx="22" ry="5.5" fill="#DDBA63"/>
<path d="M90.9985 291.749C85.5304 291.756 80.2882 293.931 76.4216 297.797C72.5551 301.664 70.38 306.906 70.3735 312.374C70.3735 330.022 89.1235 343.352 89.9219 343.911C90.2376 344.131 90.6134 344.249 90.9985 344.249C91.3836 344.249 91.7595 344.131 92.0752 343.911C92.8735 343.352 111.624 330.022 111.624 312.374C111.617 306.906 109.442 301.664 105.575 297.797C101.709 293.931 96.4666 291.756 90.9985 291.749V291.749ZM90.9999 304.875C92.4833 304.875 93.9333 305.315 95.1667 306.139C96.4001 306.963 97.3613 308.134 97.929 309.505C98.4967 310.875 98.6452 312.383 98.3558 313.838C98.0664 315.293 97.3521 316.629 96.3032 317.678C95.2543 318.727 93.9179 319.442 92.4631 319.731C91.0082 320.02 89.5002 319.872 88.1298 319.304C86.7593 318.736 85.588 317.775 84.7639 316.542C83.9398 315.308 83.4999 313.858 83.4999 312.375C83.4999 311.39 83.6939 310.415 84.0708 309.505C84.4477 308.595 85.0001 307.768 85.6965 307.072C86.393 306.375 87.2198 305.823 88.1297 305.446C89.0397 305.069 90.015 304.875 90.9999 304.875V304.875Z" fill="#FFF9DA"/>
<ellipse cx="91" cy="312.5" rx="13" ry="12.5" fill="#C74403"/>
<path d="M87.6598 316.72V315.58H89.7398V316.82C89.7398 317.74 90.1198 318.2 90.8798 318.2C91.2664 318.2 91.5531 318.08 91.7398 317.84C91.9264 317.6 92.0198 317.193 92.0198 316.62V315.48C92.0198 314.84 91.9064 314.387 91.6798 314.12C91.4531 313.84 91.0864 313.7 90.5798 313.7H89.8398V311.7H90.6398C91.0931 311.7 91.4264 311.587 91.6398 311.36C91.8531 311.12 91.9598 310.74 91.9598 310.22V309.2C91.9598 308.267 91.5931 307.8 90.8598 307.8C90.1531 307.8 89.7998 308.233 89.7998 309.1V310.02H87.7198V309.28C87.7198 308.16 87.9931 307.3 88.5398 306.7C89.0998 306.1 89.8998 305.8 90.9398 305.8C91.9931 305.8 92.7931 306.1 93.3398 306.7C93.8864 307.287 94.1598 308.14 94.1598 309.26V309.76C94.1598 311.253 93.6398 312.193 92.5998 312.58V312.62C93.6798 313.02 94.2198 313.98 94.2198 315.5V316.74C94.2198 317.86 93.9398 318.72 93.3798 319.32C92.8331 319.907 92.0198 320.2 90.9398 320.2C89.8598 320.2 89.0398 319.9 88.4798 319.3C87.9331 318.7 87.6598 317.84 87.6598 316.72Z" fill="white"/>
</g>
<path d="M149.74 304.56L151.54 297H153.72L150.7 308.62C150.46 309.54 150.08 310.2 149.56 310.6C149.04 311 148.307 311.2 147.36 311.2C146.813 311.2 146.353 311.127 145.98 310.98V309.02C146.3 309.127 146.647 309.18 147.02 309.18C147.447 309.18 147.767 309.12 147.98 309C148.193 308.867 148.353 308.64 148.46 308.32L148.56 307.96L145.4 297H147.76L149.74 304.56ZM159.984 302.08V297H162.264V311H159.984V305.16C159.398 305.76 158.604 306.06 157.604 306.06C155.631 306.06 154.644 304.933 154.644 302.68V297H156.904V302.38C156.904 303.46 157.371 304 158.304 304C158.838 304 159.251 303.84 159.544 303.52C159.838 303.187 159.984 302.707 159.984 302.08ZM172.082 311H169.762L169.302 308.28H166.222L165.742 311H163.622L166.302 297H169.382L172.082 311ZM167.762 299.36L166.562 306.3H168.962L167.762 299.36ZM179.464 310.24C178.838 310.88 177.944 311.2 176.784 311.2C175.624 311.2 174.724 310.88 174.084 310.24C173.458 309.587 173.144 308.673 173.144 307.5V300.5C173.144 299.327 173.458 298.42 174.084 297.78C174.724 297.127 175.624 296.8 176.784 296.8C177.944 296.8 178.838 297.127 179.464 297.78C180.091 298.42 180.404 299.327 180.404 300.5V301.74H178.264V300.4C178.264 299.32 177.791 298.78 176.844 298.78C175.898 298.78 175.424 299.32 175.424 300.4V307.6C175.424 308.68 175.898 309.22 176.844 309.22C177.791 309.22 178.264 308.68 178.264 307.6V305.84H180.404V307.5C180.404 308.673 180.091 309.587 179.464 310.24ZM186.336 311H184.076V299.02H181.396V297H189.016V299.02H186.336V311ZM194.315 311H190.395V297H194.115C195.368 297 196.288 297.273 196.875 297.82C197.475 298.367 197.775 299.207 197.775 300.34V300.76C197.775 302.187 197.221 303.113 196.115 303.54V303.6C197.381 303.987 198.015 305.02 198.015 306.7V307.42C198.015 309.807 196.781 311 194.315 311ZM192.675 299.02V302.74H193.815C194.388 302.74 194.808 302.613 195.075 302.36C195.355 302.093 195.495 301.68 195.495 301.12V300.6C195.495 300.04 195.381 299.64 195.155 299.4C194.928 299.147 194.555 299.02 194.035 299.02H192.675ZM192.675 304.76V308.98H194.315C194.808 308.98 195.168 308.86 195.395 308.62C195.621 308.367 195.735 307.96 195.735 307.4V306.62C195.735 305.927 195.601 305.447 195.335 305.18C195.068 304.9 194.601 304.76 193.935 304.76H192.675ZM203.295 304.56L205.095 297H207.275L204.255 308.62C204.015 309.54 203.635 310.2 203.115 310.6C202.595 311 201.861 311.2 200.915 311.2C200.368 311.2 199.908 311.127 199.535 310.98V309.02C199.855 309.127 200.201 309.18 200.575 309.18C201.001 309.18 201.321 309.12 201.535 309C201.748 308.867 201.908 308.64 202.015 308.32L202.115 307.96L198.955 297H201.315L203.295 304.56ZM212.399 295.86C211.612 295.86 210.992 295.64 210.539 295.2C210.086 294.747 209.846 294.133 209.819 293.36H211.199C211.266 294.027 211.666 294.36 212.399 294.36C213.132 294.36 213.552 294.027 213.659 293.36H214.999C214.972 294.133 214.732 294.747 214.279 295.2C213.826 295.64 213.199 295.86 212.399 295.86ZM210.579 306.36L213.959 297H216.279V311H214.219V301.6L210.859 311H208.539V297H210.579V306.36ZM225.623 311H221.703V297H225.423C226.676 297 227.596 297.273 228.183 297.82C228.783 298.367 229.083 299.207 229.083 300.34V300.76C229.083 302.187 228.53 303.113 227.423 303.54V303.6C228.69 303.987 229.323 305.02 229.323 306.7V307.42C229.323 309.807 228.09 311 225.623 311ZM223.983 299.02V302.74H225.123C225.696 302.74 226.116 302.613 226.383 302.36C226.663 302.093 226.803 301.68 226.803 301.12V300.6C226.803 300.04 226.69 299.64 226.463 299.4C226.236 299.147 225.863 299.02 225.343 299.02H223.983ZM223.983 304.76V308.98H225.623C226.116 308.98 226.476 308.86 226.703 308.62C226.93 308.367 227.043 307.96 227.043 307.4V306.62C227.043 305.927 226.91 305.447 226.643 305.18C226.376 304.9 225.91 304.76 225.243 304.76H223.983ZM236.62 311H234.34V297H237.96C240.413 297 241.64 298.213 241.64 300.64V301.68C241.64 304.107 240.413 305.32 237.96 305.32H236.62V311ZM236.62 299.02V303.32H237.96C238.453 303.32 238.807 303.2 239.02 302.96C239.247 302.707 239.36 302.3 239.36 301.74V300.56C239.36 300 239.247 299.607 239.02 299.38C238.807 299.14 238.453 299.02 237.96 299.02H236.62ZM242.968 307.44V300.56C242.968 299.36 243.288 298.433 243.928 297.78C244.582 297.127 245.508 296.8 246.708 296.8C247.922 296.8 248.848 297.127 249.488 297.78C250.142 298.433 250.468 299.36 250.468 300.56V307.44C250.468 308.64 250.142 309.567 249.488 310.22C248.835 310.873 247.908 311.2 246.708 311.2C245.508 311.2 244.582 310.873 243.928 310.22C243.288 309.567 242.968 308.64 242.968 307.44ZM246.708 309.18C247.695 309.18 248.188 308.64 248.188 307.56V300.44C248.188 299.36 247.695 298.82 246.708 298.82C245.735 298.82 245.248 299.36 245.248 300.44V307.56C245.248 308.64 245.735 309.18 246.708 309.18ZM255.49 311.2C254.29 311.2 253.376 310.887 252.75 310.26C252.123 309.62 251.81 308.7 251.81 307.5V306.56H253.95V307.54C253.95 308.633 254.443 309.18 255.43 309.18C255.95 309.18 256.323 309.047 256.55 308.78C256.79 308.5 256.91 308.047 256.91 307.42V306.66C256.91 305.967 256.77 305.473 256.49 305.18C256.223 304.873 255.776 304.72 255.15 304.72H254.29V302.7H255.21C256.303 302.7 256.85 302.133 256.85 301V300.38C256.85 299.34 256.376 298.82 255.43 298.82C254.496 298.82 254.03 299.32 254.03 300.32V301.02H251.89V300.5C251.89 299.3 252.196 298.387 252.81 297.76C253.423 297.12 254.323 296.8 255.51 296.8C256.683 296.8 257.576 297.107 258.19 297.72C258.803 298.333 259.11 299.22 259.11 300.38V300.76C259.11 302.213 258.516 303.153 257.33 303.58V303.6C258.556 304.027 259.17 305.053 259.17 306.68V307.48C259.17 309.96 257.943 311.2 255.49 311.2ZM264.464 311H260.824V297H263.104V302.4H264.464C266.918 302.4 268.144 303.633 268.144 306.1V307.3C268.144 309.767 266.918 311 264.464 311ZM271.944 311H269.664V297H271.944V311ZM263.104 304.42V308.98H264.464C264.944 308.98 265.298 308.86 265.524 308.62C265.751 308.367 265.864 307.967 265.864 307.42V305.98C265.864 305.433 265.751 305.04 265.524 304.8C265.298 304.547 264.944 304.42 264.464 304.42H263.104ZM276.229 311H273.949V297H280.229V299.02H276.229V311ZM283.905 311H281.625V297H285.245C287.698 297 288.925 298.213 288.925 300.64V301.68C288.925 304.107 287.698 305.32 285.245 305.32H283.905V311ZM283.905 299.02V303.32H285.245C285.738 303.32 286.092 303.2 286.305 302.96C286.532 302.707 286.645 302.3 286.645 301.74V300.56C286.645 300 286.532 299.607 286.305 299.38C286.092 299.14 285.738 299.02 285.245 299.02H283.905ZM294.074 311H290.434V297H292.714V302.4H294.074C296.527 302.4 297.754 303.633 297.754 306.1V307.3C297.754 309.767 296.527 311 294.074 311ZM301.554 311H299.274V297H301.554V311ZM292.714 304.42V308.98H294.074C294.554 308.98 294.907 308.86 295.134 308.62C295.36 308.367 295.474 307.967 295.474 307.42V305.98C295.474 305.433 295.36 305.04 295.134 304.8C294.907 304.547 294.554 304.42 294.074 304.42H292.714ZM315.119 311H303.559V297H305.839V308.98H308.219V297H310.479V308.98H312.839V297H315.119V311ZM323.833 311H317.113V297H323.833V299.02H319.393V302.78H322.953V304.8H319.393V308.98H323.833V311ZM331.034 311H328.754V297H336.334V311H334.054V299.02H331.034V311ZM340.604 311H338.324V297H341.944C344.398 297 345.624 298.213 345.624 300.64V301.68C345.624 304.107 344.398 305.32 341.944 305.32H340.604V311ZM340.604 299.02V303.32H341.944C342.438 303.32 342.791 303.2 343.004 302.96C343.231 302.707 343.344 302.3 343.344 301.74V300.56C343.344 300 343.231 299.607 343.004 299.38C342.791 299.14 342.438 299.02 341.944 299.02H340.604ZM349.173 306.36L352.553 297H354.873V311H352.813V301.6L349.453 311H347.133V297H349.173V306.36ZM360.099 311.2C358.899 311.2 357.986 310.887 357.359 310.26C356.732 309.62 356.419 308.7 356.419 307.5V306.56H358.559V307.54C358.559 308.633 359.052 309.18 360.039 309.18C360.559 309.18 360.932 309.047 361.159 308.78C361.399 308.5 361.519 308.047 361.519 307.42V306.66C361.519 305.967 361.379 305.473 361.099 305.18C360.832 304.873 360.386 304.72 359.759 304.72H358.899V302.7H359.819C360.912 302.7 361.459 302.133 361.459 301V300.38C361.459 299.34 360.986 298.82 360.039 298.82C359.106 298.82 358.639 299.32 358.639 300.32V301.02H356.499V300.5C356.499 299.3 356.806 298.387 357.419 297.76C358.032 297.12 358.932 296.8 360.119 296.8C361.292 296.8 362.186 297.107 362.799 297.72C363.412 298.333 363.719 299.22 363.719 300.38V300.76C363.719 302.213 363.126 303.153 361.939 303.58V303.6C363.166 304.027 363.779 305.053 363.779 306.68V307.48C363.779 309.96 362.552 311.2 360.099 311.2ZM365.254 307.44V300.56C365.254 299.36 365.574 298.433 366.214 297.78C366.867 297.127 367.794 296.8 368.994 296.8C370.207 296.8 371.134 297.127 371.774 297.78C372.427 298.433 372.754 299.36 372.754 300.56V307.44C372.754 308.64 372.427 309.567 371.774 310.22C371.12 310.873 370.194 311.2 368.994 311.2C367.794 311.2 366.867 310.873 366.214 310.22C365.574 309.567 365.254 308.64 365.254 307.44ZM368.994 309.18C369.98 309.18 370.474 308.64 370.474 307.56V300.44C370.474 299.36 369.98 298.82 368.994 298.82C368.02 298.82 367.534 299.36 367.534 300.44V307.56C367.534 308.64 368.02 309.18 368.994 309.18ZM378.475 311H374.555V297H378.275C379.528 297 380.448 297.273 381.035 297.82C381.635 298.367 381.935 299.207 381.935 300.34V300.76C381.935 302.187 381.381 303.113 380.275 303.54V303.6C381.541 303.987 382.175 305.02 382.175 306.7V307.42C382.175 309.807 380.941 311 378.475 311ZM376.835 299.02V302.74H377.975C378.548 302.74 378.968 302.613 379.235 302.36C379.515 302.093 379.655 301.68 379.655 301.12V300.6C379.655 300.04 379.541 299.64 379.315 299.4C379.088 299.147 378.715 299.02 378.195 299.02H376.835ZM376.835 304.76V308.98H378.475C378.968 308.98 379.328 308.86 379.555 308.62C379.781 308.367 379.895 307.96 379.895 307.4V306.62C379.895 305.927 379.761 305.447 379.495 305.18C379.228 304.9 378.761 304.76 378.095 304.76H376.835ZM154.46 327V338.98H155.66V342.88H153.38V341H147.64V342.88H145.38V338.98H146.68C146.973 338.687 147.14 338.14 147.18 337.34L147.6 327H154.46ZM148.84 338.98H152.18V329.02H149.74L149.46 337.22C149.433 337.94 149.227 338.527 148.84 338.98ZM157.056 341.02C156.776 341.02 156.556 340.993 156.396 340.94V338.96C156.556 339 156.709 339.02 156.856 339.02C157.349 339.02 157.689 338.9 157.876 338.66C158.076 338.407 158.189 337.973 158.216 337.36L158.636 327H165.476V341H163.216V329.02H160.776L160.476 337.42C160.436 338.673 160.149 339.587 159.616 340.16C159.082 340.733 158.229 341.02 157.056 341.02ZM174.684 327V341H172.404V335.08H171.364C170.724 335.08 170.271 335.22 170.004 335.5C169.751 335.78 169.624 336.267 169.624 336.96V339.16C169.624 339.947 169.551 340.56 169.404 341H167.104C167.278 340.573 167.364 339.967 167.364 339.18V337.1C167.364 336.18 167.498 335.473 167.764 334.98C168.031 334.473 168.464 334.133 169.064 333.96V333.9C167.944 333.487 167.384 332.533 167.384 331.04V330.36C167.384 329.213 167.678 328.367 168.264 327.82C168.864 327.273 169.791 327 171.044 327H174.684ZM171.324 333.06H172.404V329.02H171.084C170.591 329.02 170.231 329.147 170.004 329.4C169.778 329.653 169.664 330.053 169.664 330.6V331.4C169.664 331.987 169.798 332.413 170.064 332.68C170.331 332.933 170.751 333.06 171.324 333.06ZM182.382 341H180.102V327H183.722C186.175 327 187.402 328.213 187.402 330.64V331.68C187.402 334.107 186.175 335.32 183.722 335.32H182.382V341ZM182.382 329.02V333.32H183.722C184.215 333.32 184.568 333.2 184.782 332.96C185.008 332.707 185.122 332.3 185.122 331.74V330.56C185.122 330 185.008 329.607 184.782 329.38C184.568 329.14 184.215 329.02 183.722 329.02H182.382ZM195.63 341H188.91V327H195.63V329.02H191.19V332.78H194.75V334.8H191.19V338.98H195.63V341ZM204.992 341H202.672L202.212 338.28H199.132L198.652 341H196.532L199.212 327H202.292L204.992 341ZM200.672 329.36L199.472 336.3H201.872L200.672 329.36ZM206.45 341.02C206.17 341.02 205.95 340.993 205.79 340.94V338.96C205.95 339 206.103 339.02 206.25 339.02C206.743 339.02 207.083 338.9 207.27 338.66C207.47 338.407 207.583 337.973 207.61 337.36L208.03 327H214.87V341H212.61V329.02H210.17L209.87 337.42C209.83 338.673 209.543 339.587 209.01 340.16C208.477 340.733 207.623 341.02 206.45 341.02ZM218.919 336.36L222.299 327H224.619V341H222.559V331.6L219.199 341H216.879V327H218.919V336.36ZM229.845 341.2C228.645 341.2 227.732 340.887 227.105 340.26C226.478 339.62 226.165 338.7 226.165 337.5V336.56H228.305V337.54C228.305 338.633 228.798 339.18 229.785 339.18C230.305 339.18 230.678 339.047 230.905 338.78C231.145 338.5 231.265 338.047 231.265 337.42V336.66C231.265 335.967 231.125 335.473 230.845 335.18C230.578 334.873 230.132 334.72 229.505 334.72H228.645V332.7H229.565C230.658 332.7 231.205 332.133 231.205 331V330.38C231.205 329.34 230.732 328.82 229.785 328.82C228.852 328.82 228.385 329.32 228.385 330.32V331.02H226.245V330.5C226.245 329.3 226.552 328.387 227.165 327.76C227.778 327.12 228.678 326.8 229.865 326.8C231.038 326.8 231.932 327.107 232.545 327.72C233.158 328.333 233.465 329.22 233.465 330.38V330.76C233.465 332.213 232.872 333.153 231.685 333.58V333.6C232.912 334.027 233.525 335.053 233.525 336.68V337.48C233.525 339.96 232.298 341.2 229.845 341.2ZM242.843 341H240.523L240.063 338.28H236.983L236.503 341H234.383L237.063 327H240.143L242.843 341ZM238.523 329.36L237.323 336.3H239.723L238.523 329.36ZM253.084 342.88H250.804V341H244.184V327H246.464V338.98H249.484V327H251.764V338.98H253.084V342.88ZM256.478 336.36L259.858 327H262.178V341H260.118V331.6L256.758 341H254.438V327H256.478V336.36ZM266.224 336.36L269.604 327H271.924V341H269.864V331.6L266.504 341H264.184V327H266.224V336.36ZM283.488 340.24C282.861 340.88 281.968 341.2 280.808 341.2C279.648 341.2 278.748 340.88 278.108 340.24C277.481 339.587 277.168 338.673 277.168 337.5V330.5C277.168 329.327 277.481 328.42 278.108 327.78C278.748 327.127 279.648 326.8 280.808 326.8C281.968 326.8 282.861 327.127 283.488 327.78C284.114 328.42 284.428 329.327 284.428 330.5V331.74H282.288V330.4C282.288 329.32 281.814 328.78 280.868 328.78C279.921 328.78 279.448 329.32 279.448 330.4V337.6C279.448 338.68 279.921 339.22 280.868 339.22C281.814 339.22 282.288 338.68 282.288 337.6V335.84H284.428V337.5C284.428 338.673 284.114 339.587 283.488 340.24ZM289.959 341H286.039V327H289.759C291.012 327 291.932 327.273 292.519 327.82C293.119 328.367 293.419 329.207 293.419 330.34V330.76C293.419 332.187 292.866 333.113 291.759 333.54V333.6C293.026 333.987 293.659 335.02 293.659 336.7V337.42C293.659 339.807 292.426 341 289.959 341ZM288.319 329.02V332.74H289.459C290.032 332.74 290.452 332.613 290.719 332.36C290.999 332.093 291.139 331.68 291.139 331.12V330.6C291.139 330.04 291.026 329.64 290.799 329.4C290.572 329.147 290.199 329.02 289.679 329.02H288.319ZM288.319 334.76V338.98H289.959C290.452 338.98 290.812 338.86 291.039 338.62C291.266 338.367 291.379 337.96 291.379 337.4V336.62C291.379 335.927 291.246 335.447 290.979 335.18C290.712 334.9 290.246 334.76 289.579 334.76H288.319ZM295.078 337.44V330.56C295.078 329.36 295.398 328.433 296.038 327.78C296.691 327.127 297.618 326.8 298.818 326.8C300.031 326.8 300.958 327.127 301.598 327.78C302.251 328.433 302.578 329.36 302.578 330.56V337.44C302.578 338.64 302.251 339.567 301.598 340.22C300.944 340.873 300.018 341.2 298.818 341.2C297.618 341.2 296.691 340.873 296.038 340.22C295.398 339.567 295.078 338.64 295.078 337.44ZM298.818 339.18C299.804 339.18 300.298 338.64 300.298 337.56V330.44C300.298 329.36 299.804 328.82 298.818 328.82C297.844 328.82 297.358 329.36 297.358 330.44V337.56C297.358 338.64 297.844 339.18 298.818 339.18ZM306.419 336.36L309.799 327H312.119V341H310.059V331.6L306.699 341H304.379V327H306.419V336.36ZM315.625 341H313.465L316.425 333.82L313.585 327H316.025L317.825 331.7L319.685 327H321.885L319.045 333.82L322.005 341H319.585L317.625 335.94L315.625 341ZM328.802 336.36L332.182 327H334.502V341H332.442V331.6L329.082 341H326.762V327H328.802V336.36ZM344.968 327V338.98H346.168V342.88H343.888V341H338.148V342.88H335.888V338.98H337.188C337.481 338.687 337.648 338.14 337.688 337.34L338.108 327H344.968ZM339.348 338.98H342.688V329.02H340.248L339.968 337.22C339.941 337.94 339.734 338.527 339.348 338.98ZM354.243 341H347.523V327H354.243V329.02H349.803V332.78H353.363V334.8H349.803V338.98H354.243V341ZM359.606 325.86C358.819 325.86 358.199 325.64 357.746 325.2C357.293 324.747 357.053 324.133 357.026 323.36H358.406C358.473 324.027 358.873 324.36 359.606 324.36C360.339 324.36 360.759 324.027 360.866 323.36H362.206C362.179 324.133 361.939 324.747 361.486 325.2C361.033 325.64 360.406 325.86 359.606 325.86ZM357.786 336.36L361.166 327H363.486V341H361.426V331.6L358.066 341H355.746V327H357.786V336.36Z" fill="white"/>
<path opacity="0.4" d="M333.817 178.992C300.509 169.845 280.522 227.586 209.817 203.492C139.111 179.398 90.4998 236 90.5 257.5" stroke="#FFF8D9" stroke-width="2" stroke-linecap="round" stroke-dasharray="6 6"/>
<path opacity="0.4" d="M58.5001 323C-110.5 371.5 147.5 353.5 109 437.5" stroke="#FFF8D9" stroke-width="2" stroke-linecap="round" stroke-dasharray="6 6"/>
<path opacity="0.4" d="M381 19.1853C421.534 12.3746 517.568 21.1293 481.5 50.4434C445.432 79.7574 381 92.5491 381 131" stroke="#FFF8D9" stroke-width="2" stroke-linecap="round" stroke-dasharray="6 6"/>
<defs>
<filter id="filter0_ddddd_702_390998" x="46" y="0" width="114" height="109" filterUnits="userSpaceOnUse" color-interpolation-filters="sRGB">
<feFlood flood-opacity="0" result="BackgroundImageFix"/>
<feColorMatrix in="SourceAlpha" type="matrix" values="0 0 0 0 0 0 0 0 0 0 0 0 0 0 0 0 0 0 127 0" result="hardAlpha"/>
<feOffset/>
<feColorMatrix type="matrix" values="0 0 0 0 0.0745098 0 0 0 0 0.12549 0 0 0 0 0.0823529 0 0 0 0.2 0"/>
<feBlend mode="normal" in2="BackgroundImageFix" result="effect1_dropShadow_702_390998"/>
<feColorMatrix in="SourceAlpha" type="matrix" values="0 0 0 0 0 0 0 0 0 0 0 0 0 0 0 0 0 0 127 0" result="hardAlpha"/>
<feOffset dx="2" dy="2"/>
<feGaussianBlur stdDeviation="3"/>
<feColorMatrix type="matrix" values="0 0 0 0 0.0745098 0 0 0 0 0.12549 0 0 0 0 0.0823529 0 0 0 0.2 0"/>
<feBlend mode="normal" in2="effect1_dropShadow_702_390998" result="effect2_dropShadow_702_390998"/>
<feColorMatrix in="SourceAlpha" type="matrix" values="0 0 0 0 0 0 0 0 0 0 0 0 0 0 0 0 0 0 127 0" result="hardAlpha"/>
<feOffset dx="8" dy="7"/>
<feGaussianBlur stdDeviation="5"/>
<feColorMatrix type="matrix" values="0 0 0 0 0.0745098 0 0 0 0 0.12549 0 0 0 0 0.0823529 0 0 0 0.17 0"/>
<feBlend mode="normal" in2="effect2_dropShadow_702_390998" result="effect3_dropShadow_702_390998"/>
<feColorMatrix in="SourceAlpha" type="matrix" values="0 0 0 0 0 0 0 0 0 0 0 0 0 0 0 0 0 0 127 0" result="hardAlpha"/>
<feOffset dx="18" dy="15"/>
<feGaussianBlur stdDeviation="7"/>
<feColorMatrix type="matrix" values="0 0 0 0 0.0745098 0 0 0 0 0.12549 0 0 0 0 0.0823529 0 0 0 0.1 0"/>
<feBlend mode="normal" in2="effect3_dropShadow_702_390998" result="effect4_dropShadow_702_390998"/>
<feColorMatrix in="SourceAlpha" type="matrix" values="0 0 0 0 0 0 0 0 0 0 0 0 0 0 0 0 0 0 127 0" result="hardAlpha"/>
<feOffset dx="33" dy="26"/>
<feGaussianBlur stdDeviation="8.5"/>
<feColorMatrix type="matrix" values="0 0 0 0 0.0745098 0 0 0 0 0.12549 0 0 0 0 0.0823529 0 0 0 0.03 0"/>
<feBlend mode="normal" in2="effect4_dropShadow_702_390998" result="effect5_dropShadow_702_390998"/>
<feBlend mode="normal" in="SourceGraphic" in2="effect5_dropShadow_702_390998" result="shape"/>
</filter>
<filter id="filter1_ddddd_702_390998" x="345" y="142" width="114" height="109" filterUnits="userSpaceOnUse" color-interpolation-filters="sRGB">
<feFlood flood-opacity="0" result="BackgroundImageFix"/>
<feColorMatrix in="SourceAlpha" type="matrix" values="0 0 0 0 0 0 0 0 0 0 0 0 0 0 0 0 0 0 127 0" result="hardAlpha"/>
<feOffset/>
<feColorMatrix type="matrix" values="0 0 0 0 0.0745098 0 0 0 0 0.12549 0 0 0 0 0.0823529 0 0 0 0.2 0"/>
<feBlend mode="normal" in2="BackgroundImageFix" result="effect1_dropShadow_702_390998"/>
<feColorMatrix in="SourceAlpha" type="matrix" values="0 0 0 0 0 0 0 0 0 0 0 0 0 0 0 0 0 0 127 0" result="hardAlpha"/>
<feOffset dx="2" dy="2"/>
<feGaussianBlur stdDeviation="3"/>
<feColorMatrix type="matrix" values="0 0 0 0 0.0745098 0 0 0 0 0.12549 0 0 0 0 0.0823529 0 0 0 0.2 0"/>
<feBlend mode="normal" in2="effect1_dropShadow_702_390998" result="effect2_dropShadow_702_390998"/>
<feColorMatrix in="SourceAlpha" type="matrix" values="0 0 0 0 0 0 0 0 0 0 0 0 0 0 0 0 0 0 127 0" result="hardAlpha"/>
<feOffset dx="8" dy="7"/>
<feGaussianBlur stdDeviation="5"/>
<feColorMatrix type="matrix" values="0 0 0 0 0.0745098 0 0 0 0 0.12549 0 0 0 0 0.0823529 0 0 0 0.17 0"/>
<feBlend mode="normal" in2="effect2_dropShadow_702_390998" result="effect3_dropShadow_702_390998"/>
<feColorMatrix in="SourceAlpha" type="matrix" values="0 0 0 0 0 0 0 0 0 0 0 0 0 0 0 0 0 0 127 0" result="hardAlpha"/>
<feOffset dx="18" dy="15"/>
<feGaussianBlur stdDeviation="7"/>
<feColorMatrix type="matrix" values="0 0 0 0 0.0745098 0 0 0 0 0.12549 0 0 0 0 0.0823529 0 0 0 0.1 0"/>
<feBlend mode="normal" in2="effect3_dropShadow_702_390998" result="effect4_dropShadow_702_390998"/>
<feColorMatrix in="SourceAlpha" type="matrix" values="0 0 0 0 0 0 0 0 0 0 0 0 0 0 0 0 0 0 127 0" result="hardAlpha"/>
<feOffset dx="33" dy="26"/>
<feGaussianBlur stdDeviation="8.5"/>
<feColorMatrix type="matrix" values="0 0 0 0 0.0745098 0 0 0 0 0.12549 0 0 0 0 0.0823529 0 0 0 0.03 0"/>
<feBlend mode="normal" in2="effect4_dropShadow_702_390998" result="effect5_dropShadow_702_390998"/>
<feBlend mode="normal" in="SourceGraphic" in2="effect5_dropShadow_702_390998" result="shape"/>
</filter>
<filter id="filter2_ddddd_702_390998" x="57" y="284" width="114" height="109" filterUnits="userSpaceOnUse" color-interpolation-filters="sRGB">
<feFlood flood-opacity="0" result="BackgroundImageFix"/>
<feColorMatrix in="SourceAlpha" type="matrix" values="0 0 0 0 0 0 0 0 0 0 0 0 0 0 0 0 0 0 127 0" result="hardAlpha"/>
<feOffset/>
<feColorMatrix type="matrix" values="0 0 0 0 0.0745098 0 0 0 0 0.12549 0 0 0 0 0.0823529 0 0 0 0.2 0"/>
<feBlend mode="normal" in2="BackgroundImageFix" result="effect1_dropShadow_702_390998"/>
<feColorMatrix in="SourceAlpha" type="matrix" values="0 0 0 0 0 0 0 0 0 0 0 0 0 0 0 0 0 0 127 0" result="hardAlpha"/>
<feOffset dx="2" dy="2"/>
<feGaussianBlur stdDeviation="3"/>
<feColorMatrix type="matrix" values="0 0 0 0 0.0745098 0 0 0 0 0.12549 0 0 0 0 0.0823529 0 0 0 0.2 0"/>
<feBlend mode="normal" in2="effect1_dropShadow_702_390998" result="effect2_dropShadow_702_390998"/>
<feColorMatrix in="SourceAlpha" type="matrix" values="0 0 0 0 0 0 0 0 0 0 0 0 0 0 0 0 0 0 127 0" result="hardAlpha"/>
<feOffset dx="8" dy="7"/>
<feGaussianBlur stdDeviation="5"/>
<feColorMatrix type="matrix" values="0 0 0 0 0.0745098 0 0 0 0 0.12549 0 0 0 0 0.0823529 0 0 0 0.17 0"/>
<feBlend mode="normal" in2="effect2_dropShadow_702_390998" result="effect3_dropShadow_702_390998"/>
<feColorMatrix in="SourceAlpha" type="matrix" values="0 0 0 0 0 0 0 0 0 0 0 0 0 0 0 0 0 0 127 0" result="hardAlpha"/>
<feOffset dx="18" dy="15"/>
<feGaussianBlur stdDeviation="7"/>
<feColorMatrix type="matrix" values="0 0 0 0 0.0745098 0 0 0 0 0.12549 0 0 0 0 0.0823529 0 0 0 0.1 0"/>
<feBlend mode="normal" in2="effect3_dropShadow_702_390998" result="effect4_dropShadow_702_390998"/>
<feColorMatrix in="SourceAlpha" type="matrix" values="0 0 0 0 0 0 0 0 0 0 0 0 0 0 0 0 0 0 127 0" result="hardAlpha"/>
<feOffset dx="33" dy="26"/>
<feGaussianBlur stdDeviation="8.5"/>
<feColorMatrix type="matrix" values="0 0 0 0 0.0745098 0 0 0 0 0.12549 0 0 0 0 0.0823529 0 0 0 0.03 0"/>
<feBlend mode="normal" in2="effect4_dropShadow_702_390998" result="effect5_dropShadow_702_390998"/>
<feBlend mode="normal" in="SourceGraphic" in2="effect5_dropShadow_702_390998" result="shape"/>
</filter>
</defs>
</svg>
