<svg width="736" height="275" viewBox="0 0 736 275" fill="none" xmlns="http://www.w3.org/2000/svg">
<g filter="url(#filter0_ddddd_704_391003)">
<ellipse cx="465" cy="142.5" rx="22" ry="5.5" fill="#DDBA63"/>
<path d="M464.998 89.7493C459.53 89.7558 454.288 91.9308 450.421 95.7974C446.555 99.6639 444.38 104.906 444.373 110.374C444.373 128.022 463.123 141.352 463.921 141.911C464.237 142.131 464.613 142.249 464.998 142.249C465.383 142.249 465.759 142.131 466.075 141.911C466.873 141.352 485.623 128.022 485.623 110.374C485.617 104.906 483.441 99.6639 479.575 95.7974C475.708 91.9308 470.466 89.7558 464.998 89.7493V89.7493ZM464.999 102.875C466.483 102.875 467.933 103.315 469.166 104.139C470.4 104.963 471.361 106.134 471.929 107.505C472.496 108.875 472.645 110.383 472.355 111.838C472.066 113.293 471.352 114.629 470.303 115.678C469.254 116.727 467.917 117.441 466.463 117.731C465.008 118.02 463.5 117.872 462.129 117.304C460.759 116.736 459.588 115.775 458.763 114.542C457.939 113.308 457.499 111.858 457.499 110.375C457.499 109.39 457.693 108.415 458.07 107.505C458.447 106.595 459 105.768 459.696 105.072C460.393 104.375 461.219 103.823 462.129 103.446C463.039 103.069 464.014 102.875 464.999 102.875V102.875Z" fill="#FFF9DA"/>
<ellipse cx="465" cy="110.5" rx="13" ry="12.5" fill="#C74403"/>
<path d="M468.129 118H461.769V116.48C461.769 115.44 461.929 114.553 462.249 113.82C462.569 113.087 463.142 112.287 463.969 111.42C464.822 110.5 465.389 109.773 465.669 109.24C465.976 108.653 466.129 108.04 466.129 107.4C466.129 106.813 466.036 106.4 465.849 106.16C465.662 105.92 465.376 105.8 464.989 105.8C464.229 105.8 463.849 106.26 463.849 107.18V108.68H461.769V107.32C461.769 106.187 462.049 105.32 462.609 104.72C463.169 104.107 463.982 103.8 465.049 103.8C466.116 103.8 466.929 104.107 467.489 104.72C468.049 105.32 468.329 106.187 468.329 107.32C468.329 108.187 468.122 109.013 467.709 109.8C467.296 110.613 466.596 111.54 465.609 112.58C464.969 113.26 464.529 113.82 464.289 114.26C464.062 114.7 463.949 115.18 463.949 115.7V116H468.129V118Z" fill="white"/>
</g>
<path d="M522.28 109H520V95H527.58V109H525.3V97.02H522.28V109ZM529.39 105.44V98.56C529.39 97.36 529.71 96.4333 530.35 95.78C531.004 95.1267 531.93 94.8 533.13 94.8C534.344 94.8 535.27 95.1267 535.91 95.78C536.564 96.4333 536.89 97.36 536.89 98.56V105.44C536.89 106.64 536.564 107.567 535.91 108.22C535.257 108.873 534.33 109.2 533.13 109.2C531.93 109.2 531.004 108.873 530.35 108.22C529.71 107.567 529.39 106.64 529.39 105.44ZM533.13 107.18C534.117 107.18 534.61 106.64 534.61 105.56V98.44C534.61 97.36 534.117 96.82 533.13 96.82C532.157 96.82 531.67 97.36 531.67 98.44V105.56C531.67 106.64 532.157 107.18 533.13 107.18ZM541.911 109.2C540.711 109.2 539.798 108.887 539.171 108.26C538.545 107.62 538.231 106.7 538.231 105.5V104.56H540.371V105.54C540.371 106.633 540.865 107.18 541.851 107.18C542.371 107.18 542.745 107.047 542.971 106.78C543.211 106.5 543.331 106.047 543.331 105.42V104.66C543.331 103.967 543.191 103.473 542.911 103.18C542.645 102.873 542.198 102.72 541.571 102.72H540.711V100.7H541.631C542.725 100.7 543.271 100.133 543.271 99V98.38C543.271 97.34 542.798 96.82 541.851 96.82C540.918 96.82 540.451 97.32 540.451 98.32V99.02H538.311V98.5C538.311 97.3 538.618 96.3867 539.231 95.76C539.845 95.12 540.745 94.8 541.931 94.8C543.105 94.8 543.998 95.1067 544.611 95.72C545.225 96.3333 545.531 97.22 545.531 98.38V98.76C545.531 100.213 544.938 101.153 543.751 101.58V101.6C544.978 102.027 545.591 103.053 545.591 104.68V105.48C545.591 107.96 544.365 109.2 541.911 109.2ZM547.066 105.44V98.56C547.066 97.36 547.386 96.4333 548.026 95.78C548.679 95.1267 549.606 94.8 550.806 94.8C552.019 94.8 552.946 95.1267 553.586 95.78C554.239 96.4333 554.566 97.36 554.566 98.56V105.44C554.566 106.64 554.239 107.567 553.586 108.22C552.933 108.873 552.006 109.2 550.806 109.2C549.606 109.2 548.679 108.873 548.026 108.22C547.386 107.567 547.066 106.64 547.066 105.44ZM550.806 107.18C551.793 107.18 552.286 106.64 552.286 105.56V98.44C552.286 97.36 551.793 96.82 550.806 96.82C549.833 96.82 549.346 97.36 549.346 98.44V105.56C549.346 106.64 549.833 107.18 550.806 107.18ZM560.287 109H556.367V95H560.087C561.341 95 562.261 95.2733 562.847 95.82C563.447 96.3667 563.747 97.2067 563.747 98.34V98.76C563.747 100.187 563.194 101.113 562.087 101.54V101.6C563.354 101.987 563.987 103.02 563.987 104.7V105.42C563.987 107.807 562.754 109 560.287 109ZM558.647 97.02V100.74H559.787C560.361 100.74 560.781 100.613 561.047 100.36C561.327 100.093 561.467 99.68 561.467 99.12V98.6C561.467 98.04 561.354 97.64 561.127 97.4C560.901 97.1467 560.527 97.02 560.007 97.02H558.647ZM558.647 102.76V106.98H560.287C560.781 106.98 561.141 106.86 561.367 106.62C561.594 106.367 561.707 105.96 561.707 105.4V104.62C561.707 103.927 561.574 103.447 561.307 103.18C561.041 102.9 560.574 102.76 559.907 102.76H558.647ZM567.626 104.36L571.006 95H573.326V109H571.266V99.6L567.906 109H565.586V95H567.626V104.36ZM587.21 95V106.98H588.41V110.88H586.13V109H580.39V110.88H578.13V106.98H579.43C579.723 106.687 579.89 106.14 579.93 105.34L580.35 95H587.21ZM581.59 106.98H584.93V97.02H582.49L582.21 105.22C582.183 105.94 581.977 106.527 581.59 106.98ZM592.046 109H589.766V95H593.386C595.839 95 597.066 96.2133 597.066 98.64V99.68C597.066 102.107 595.839 103.32 593.386 103.32H592.046V109ZM592.046 97.02V101.32H593.386C593.879 101.32 594.232 101.2 594.446 100.96C594.672 100.707 594.786 100.3 594.786 99.74V98.56C594.786 98 594.672 97.6067 594.446 97.38C594.232 97.14 593.879 97.02 593.386 97.02H592.046ZM602.06 102.56L603.86 95H606.04L603.02 106.62C602.78 107.54 602.4 108.2 601.88 108.6C601.36 109 600.627 109.2 599.68 109.2C599.134 109.2 598.674 109.127 598.3 108.98V107.02C598.62 107.127 598.967 107.18 599.34 107.18C599.767 107.18 600.087 107.12 600.3 107C600.514 106.867 600.674 106.64 600.78 106.32L600.88 105.96L597.72 95H600.08L602.06 102.56ZM610.329 109.2C609.129 109.2 608.216 108.887 607.589 108.26C606.963 107.62 606.649 106.7 606.649 105.5V104.56H608.789V105.54C608.789 106.633 609.283 107.18 610.269 107.18C610.789 107.18 611.163 107.047 611.389 106.78C611.629 106.5 611.749 106.047 611.749 105.42V104.66C611.749 103.967 611.609 103.473 611.329 103.18C611.063 102.873 610.616 102.72 609.989 102.72H609.129V100.7H610.049C611.143 100.7 611.689 100.133 611.689 99V98.38C611.689 97.34 611.216 96.82 610.269 96.82C609.336 96.82 608.869 97.32 608.869 98.32V99.02H606.729V98.5C606.729 97.3 607.036 96.3867 607.649 95.76C608.263 95.12 609.163 94.8 610.349 94.8C611.523 94.8 612.416 95.1067 613.029 95.72C613.643 96.3333 613.949 97.22 613.949 98.38V98.76C613.949 100.213 613.356 101.153 612.169 101.58V101.6C613.396 102.027 614.009 103.053 614.009 104.68V105.48C614.009 107.96 612.783 109.2 610.329 109.2ZM622.384 109H615.664V95H622.384V97.02H617.944V100.78H621.504V102.8H617.944V106.98H622.384V109ZM627.747 93.86C626.96 93.86 626.34 93.64 625.887 93.2C625.433 92.7467 625.193 92.1333 625.167 91.36H626.547C626.613 92.0267 627.013 92.36 627.747 92.36C628.48 92.36 628.9 92.0267 629.007 91.36H630.347C630.32 92.1333 630.08 92.7467 629.627 93.2C629.173 93.64 628.547 93.86 627.747 93.86ZM625.927 104.36L629.307 95H631.627V109H629.567V99.6L626.207 109H623.887V95H625.927V104.36ZM639.331 109H637.051V95H644.631V109H642.351V97.02H639.331V109ZM646.441 105.44V98.56C646.441 97.36 646.761 96.4333 647.401 95.78C648.054 95.1267 648.981 94.8 650.181 94.8C651.394 94.8 652.321 95.1267 652.961 95.78C653.614 96.4333 653.941 97.36 653.941 98.56V105.44C653.941 106.64 653.614 107.567 652.961 108.22C652.308 108.873 651.381 109.2 650.181 109.2C648.981 109.2 648.054 108.873 647.401 108.22C646.761 107.567 646.441 106.64 646.441 105.44ZM650.181 107.18C651.168 107.18 651.661 106.64 651.661 105.56V98.44C651.661 97.36 651.168 96.82 650.181 96.82C649.208 96.82 648.721 97.36 648.721 98.44V105.56C648.721 106.64 649.208 107.18 650.181 107.18ZM664.105 95V106.98H665.305V110.88H663.025V109H657.285V110.88H655.025V106.98H656.325C656.618 106.687 656.785 106.14 656.825 105.34L657.245 95H664.105ZM658.485 106.98H661.825V97.02H659.385L659.105 105.22C659.078 105.94 658.871 106.527 658.485 106.98ZM675.12 95V106.98H676.32V110.88H674.04V109H668.3V110.88H666.04V106.98H667.34C667.633 106.687 667.8 106.14 667.84 105.34L668.26 95H675.12ZM669.5 106.98H672.84V97.02H670.4L670.12 105.22C670.093 105.94 669.887 106.527 669.5 106.98ZM684.396 109H677.676V95H684.396V97.02H679.956V100.78H683.516V102.8H679.956V106.98H684.396V109ZM688.178 109H685.898V95H689.518C691.972 95 693.198 96.2133 693.198 98.64V99.68C693.198 102.107 691.972 103.32 689.518 103.32H688.178V109ZM688.178 97.02V101.32H689.518C690.012 101.32 690.365 101.2 690.578 100.96C690.805 100.707 690.918 100.3 690.918 99.74V98.56C690.918 98 690.805 97.6067 690.578 97.38C690.365 97.14 690.012 97.02 689.518 97.02H688.178ZM706.861 109H704.581L702.421 102.2L701.321 104.1V109H699.041V104.1L697.941 102.2L695.781 109H693.481L696.441 100.2L693.521 95H695.881L699.041 101.06V95H701.321V101.06L704.501 95H706.821L703.921 100.22L706.861 109ZM716.023 109H713.703L713.243 106.28H710.163L709.683 109H707.563L710.243 95H713.323L716.023 109ZM711.703 97.36L710.503 104.3H712.903L711.703 97.36ZM720.57 109H718.31V97.02H715.63V95H723.25V97.02H720.57V109ZM728.269 109H724.629V95H726.909V100.4H728.269C730.722 100.4 731.949 101.633 731.949 104.1V105.3C731.949 107.767 730.722 109 728.269 109ZM726.909 102.42V106.98H728.269C728.749 106.98 729.102 106.86 729.329 106.62C729.556 106.367 729.669 105.967 729.669 105.42V103.98C729.669 103.433 729.556 103.04 729.329 102.8C729.102 102.547 728.749 102.42 728.269 102.42H726.909ZM524.32 139H522.06V127.02H519.38V125H527V127.02H524.32V139ZM532.299 139H528.379V125H532.099C533.352 125 534.272 125.273 534.859 125.82C535.459 126.367 535.759 127.207 535.759 128.34V128.76C535.759 130.187 535.206 131.113 534.099 131.54V131.6C535.366 131.987 535.999 133.02 535.999 134.7V135.42C535.999 137.807 534.766 139 532.299 139ZM530.659 127.02V130.74H531.799C532.372 130.74 532.792 130.613 533.059 130.36C533.339 130.093 533.479 129.68 533.479 129.12V128.6C533.479 128.04 533.366 127.64 533.139 127.4C532.912 127.147 532.539 127.02 532.019 127.02H530.659ZM530.659 132.76V136.98H532.299C532.792 136.98 533.152 136.86 533.379 136.62C533.606 136.367 533.719 135.96 533.719 135.4V134.62C533.719 133.927 533.586 133.447 533.319 133.18C533.052 132.9 532.586 132.76 531.919 132.76H530.659ZM537.418 135.44V128.56C537.418 127.36 537.738 126.433 538.378 125.78C539.031 125.127 539.958 124.8 541.158 124.8C542.371 124.8 543.298 125.127 543.938 125.78C544.591 126.433 544.918 127.36 544.918 128.56V135.44C544.918 136.64 544.591 137.567 543.938 138.22C543.284 138.873 542.358 139.2 541.158 139.2C539.958 139.2 539.031 138.873 538.378 138.22C537.738 137.567 537.418 136.64 537.418 135.44ZM541.158 137.18C542.144 137.18 542.638 136.64 542.638 135.56V128.44C542.638 127.36 542.144 126.82 541.158 126.82C540.184 126.82 539.698 127.36 539.698 128.44V135.56C539.698 136.64 540.184 137.18 541.158 137.18ZM548.759 134.36L552.139 125H554.459V139H552.399V129.6L549.039 139H546.719V125H548.759V134.36ZM559.703 135.44V128.56C559.703 127.36 560.023 126.433 560.663 125.78C561.316 125.127 562.243 124.8 563.443 124.8C564.656 124.8 565.583 125.127 566.223 125.78C566.876 126.433 567.203 127.36 567.203 128.56V135.44C567.203 136.64 566.876 137.567 566.223 138.22C565.569 138.873 564.643 139.2 563.443 139.2C562.243 139.2 561.316 138.873 560.663 138.22C560.023 137.567 559.703 136.64 559.703 135.44ZM563.443 137.18C564.429 137.18 564.923 136.64 564.923 135.56V128.44C564.923 127.36 564.429 126.82 563.443 126.82C562.469 126.82 561.983 127.36 561.983 128.44V135.56C561.983 136.64 562.469 137.18 563.443 137.18ZM573.246 139H570.986V127.02H568.306V125H575.926V127.02H573.246V139ZM585.405 139H583.005L580.785 132.6L579.585 134.58V139H577.305V125H579.585V131.16L583.045 125H585.365L582.325 130.2L585.405 139ZM589.018 139H586.738V125H590.358C592.812 125 594.038 126.213 594.038 128.64V129.68C594.038 132.107 592.812 133.32 590.358 133.32H589.018V139ZM589.018 127.02V131.32H590.358C590.852 131.32 591.205 131.2 591.418 130.96C591.645 130.707 591.758 130.3 591.758 129.74V128.56C591.758 128 591.645 127.607 591.418 127.38C591.205 127.14 590.852 127.02 590.358 127.02H589.018ZM599.187 139H595.547V125H597.827V130.4H599.187C601.64 130.4 602.867 131.633 602.867 134.1V135.3C602.867 137.767 601.64 139 599.187 139ZM606.667 139H604.387V125H606.667V139ZM597.827 132.42V136.98H599.187C599.667 136.98 600.02 136.86 600.247 136.62C600.474 136.367 600.587 135.967 600.587 135.42V133.98C600.587 133.433 600.474 133.04 600.247 132.8C600.02 132.547 599.667 132.42 599.187 132.42H597.827ZM612.992 139H610.732V127.02H608.052V125H615.672V127.02H612.992V139ZM619.091 134.36L622.471 125H624.791V139H622.731V129.6L619.371 139H617.051V125H619.091V134.36ZM633.997 125V139H631.717V133.08H630.677C630.037 133.08 629.584 133.22 629.317 133.5C629.064 133.78 628.937 134.267 628.937 134.96V137.16C628.937 137.947 628.864 138.56 628.717 139H626.417C626.59 138.573 626.677 137.967 626.677 137.18V135.1C626.677 134.18 626.81 133.473 627.077 132.98C627.344 132.473 627.777 132.133 628.377 131.96V131.9C627.257 131.487 626.697 130.533 626.697 129.04V128.36C626.697 127.213 626.99 126.367 627.577 125.82C628.177 125.273 629.104 125 630.357 125H633.997ZM630.637 131.06H631.717V127.02H630.397C629.904 127.02 629.544 127.147 629.317 127.4C629.09 127.653 628.977 128.053 628.977 128.6V129.4C628.977 129.987 629.11 130.413 629.377 130.68C629.644 130.933 630.064 131.06 630.637 131.06Z" fill="white"/>
<g filter="url(#filter1_ddddd_704_391003)">
<ellipse cx="34" cy="60.5" rx="22" ry="5.5" fill="#DDBA63"/>
<path d="M33.998 7.74927C28.5299 7.75576 23.2877 9.93082 19.4211 13.7974C15.5546 17.6639 13.3795 22.9062 13.373 28.3743C13.373 46.022 32.123 59.3521 32.9214 59.9105C33.2371 60.131 33.6129 60.2493 33.998 60.2493C34.3832 60.2493 34.759 60.131 35.0747 59.9105C35.873 59.3521 54.623 46.022 54.623 28.3743C54.6166 22.9062 52.4415 17.6639 48.575 13.7974C44.7084 9.93082 39.4661 7.75575 33.998 7.74927V7.74927ZM33.9994 20.8749C35.4828 20.8749 36.9328 21.3148 38.1662 22.1389C39.3996 22.963 40.3609 24.1344 40.9285 25.5048C41.4962 26.8753 41.6447 28.3833 41.3553 29.8381C41.0659 31.293 40.3516 32.6294 39.3027 33.6782C38.2538 34.7271 36.9175 35.4414 35.4626 35.7308C34.0077 36.0202 32.4997 35.8717 31.1293 35.304C29.7588 34.7364 28.5875 33.7751 27.7634 32.5417C26.9393 31.3084 26.4994 29.8583 26.4994 28.3749C26.4994 27.39 26.6934 26.4147 27.0703 25.5048C27.4472 24.5948 27.9996 23.768 28.6961 23.0716C29.3925 22.3751 30.2193 21.8227 31.1293 21.4458C32.0392 21.0689 33.0145 20.8749 33.9994 20.8749V20.8749Z" fill="#FFF9DA"/>
<ellipse cx="34" cy="28.5" rx="13" ry="12.5" fill="#C74403"/>
<path d="M35.9498 36H33.7498V25.32H31.4498V23.76C32.3698 23.76 33.0365 23.64 33.4498 23.4C33.8765 23.1333 34.2165 22.6667 34.4698 22H35.9498V36Z" fill="white"/>
</g>
<path d="M91.28 27H89V13H92.62C95.0733 13 96.3 14.2133 96.3 16.64V17.68C96.3 20.1067 95.0733 21.32 92.62 21.32H91.28V27ZM91.28 15.02V19.32H92.62C93.1133 19.32 93.4667 19.2 93.68 18.96C93.9067 18.7067 94.02 18.3 94.02 17.74V16.56C94.02 16 93.9067 15.6067 93.68 15.38C93.4667 15.14 93.1133 15.02 92.62 15.02H91.28ZM104.828 27H102.508L102.048 24.28H98.9678L98.4878 27H96.3678L99.0478 13H102.128L104.828 27ZM100.508 15.36L99.3078 22.3H101.708L100.508 15.36ZM112.21 26.24C111.584 26.88 110.69 27.2 109.53 27.2C108.37 27.2 107.47 26.88 106.83 26.24C106.204 25.5867 105.89 24.6733 105.89 23.5V16.5C105.89 15.3267 106.204 14.42 106.83 13.78C107.47 13.1267 108.37 12.8 109.53 12.8C110.69 12.8 111.584 13.1267 112.21 13.78C112.837 14.42 113.15 15.3267 113.15 16.5V17.74H111.01V16.4C111.01 15.32 110.537 14.78 109.59 14.78C108.644 14.78 108.17 15.32 108.17 16.4V23.6C108.17 24.68 108.644 25.22 109.59 25.22C110.537 25.22 111.01 24.68 111.01 23.6V21.84H113.15V23.5C113.15 24.6733 112.837 25.5867 112.21 26.24ZM120.921 26.24C120.295 26.88 119.401 27.2 118.241 27.2C117.081 27.2 116.181 26.88 115.541 26.24C114.915 25.5867 114.601 24.6733 114.601 23.5V16.5C114.601 15.3267 114.915 14.42 115.541 13.78C116.181 13.1267 117.081 12.8 118.241 12.8C119.401 12.8 120.295 13.1267 120.921 13.78C121.548 14.42 121.861 15.3267 121.861 16.5V17.74H119.721V16.4C119.721 15.32 119.248 14.78 118.301 14.78C117.355 14.78 116.881 15.32 116.881 16.4V23.6C116.881 24.68 117.355 25.22 118.301 25.22C119.248 25.22 119.721 24.68 119.721 23.6V21.84H121.861V23.5C121.861 24.6733 121.548 25.5867 120.921 26.24ZM131.573 27H129.173L126.953 20.6L125.753 22.58V27H123.473V13H125.753V19.16L129.213 13H131.533L128.493 18.2L131.573 27ZM140.726 27H138.406L137.946 24.28H134.866L134.386 27H132.266L134.946 13H138.026L140.726 27ZM136.406 15.36L135.206 22.3H137.606L136.406 15.36ZM154.786 27H152.506L150.346 20.2L149.246 22.1V27H146.966V22.1L145.866 20.2L143.706 27H141.406L144.366 18.2L141.446 13H143.806L146.966 19.06V13H149.246V19.06L152.426 13H154.746L151.846 18.22L154.786 27ZM158.169 22.36L161.549 13H163.869V27H161.809V17.6L158.449 27H156.129V13H158.169V22.36ZM166.895 29.32H165.855L166.755 27H165.955V24.6H168.235V26.76L166.895 29.32ZM178.727 18.08V13H181.007V27H178.727V21.16C178.14 21.76 177.347 22.06 176.347 22.06C174.373 22.06 173.387 20.9333 173.387 18.68V13H175.647V18.38C175.647 19.46 176.113 20 177.047 20C177.58 20 177.993 19.84 178.287 19.52C178.58 19.1867 178.727 18.7067 178.727 18.08ZM187.324 27H185.064V15.02H182.384V13H190.004V15.02H187.324V27ZM191.125 23.44V16.56C191.125 15.36 191.445 14.4333 192.085 13.78C192.738 13.1267 193.665 12.8 194.865 12.8C196.078 12.8 197.005 13.1267 197.645 13.78C198.298 14.4333 198.625 15.36 198.625 16.56V23.44C198.625 24.64 198.298 25.5667 197.645 26.22C196.991 26.8733 196.065 27.2 194.865 27.2C193.665 27.2 192.738 26.8733 192.085 26.22C191.445 25.5667 191.125 24.64 191.125 23.44ZM194.865 25.18C195.851 25.18 196.345 24.64 196.345 23.56V16.44C196.345 15.36 195.851 14.82 194.865 14.82C193.891 14.82 193.405 15.36 193.405 16.44V23.56C193.405 24.64 193.891 25.18 194.865 25.18ZM206.124 27H203.844V13H206.124V18.78H209.144V13H211.424V27H209.144V20.8H206.124V27ZM213.234 23.44V16.56C213.234 15.36 213.554 14.4333 214.194 13.78C214.847 13.1267 215.774 12.8 216.974 12.8C218.187 12.8 219.114 13.1267 219.754 13.78C220.407 14.4333 220.734 15.36 220.734 16.56V23.44C220.734 24.64 220.407 25.5667 219.754 26.22C219.101 26.8733 218.174 27.2 216.974 27.2C215.774 27.2 214.847 26.8733 214.194 26.22C213.554 25.5667 213.234 24.64 213.234 23.44ZM216.974 25.18C217.961 25.18 218.454 24.64 218.454 23.56V16.44C218.454 15.36 217.961 14.82 216.974 14.82C216.001 14.82 215.514 15.36 215.514 16.44V23.56C215.514 24.64 216.001 25.18 216.974 25.18ZM226.455 27H222.535V13H226.255C227.508 13 228.428 13.2733 229.015 13.82C229.615 14.3667 229.915 15.2067 229.915 16.34V16.76C229.915 18.1867 229.362 19.1133 228.255 19.54V19.6C229.522 19.9867 230.155 21.02 230.155 22.7V23.42C230.155 25.8067 228.922 27 226.455 27ZM224.815 15.02V18.74H225.955C226.528 18.74 226.948 18.6133 227.215 18.36C227.495 18.0933 227.635 17.68 227.635 17.12V16.6C227.635 16.04 227.522 15.64 227.295 15.4C227.068 15.1467 226.695 15.02 226.175 15.02H224.815ZM224.815 20.76V24.98H226.455C226.948 24.98 227.308 24.86 227.535 24.62C227.762 24.3667 227.875 23.96 227.875 23.4V22.62C227.875 21.9267 227.742 21.4467 227.475 21.18C227.208 20.9 226.742 20.76 226.075 20.76H224.815ZM231.574 23.44V16.56C231.574 15.36 231.894 14.4333 232.534 13.78C233.187 13.1267 234.114 12.8 235.314 12.8C236.527 12.8 237.454 13.1267 238.094 13.78C238.747 14.4333 239.074 15.36 239.074 16.56V23.44C239.074 24.64 238.747 25.5667 238.094 26.22C237.441 26.8733 236.514 27.2 235.314 27.2C234.114 27.2 233.187 26.8733 232.534 26.22C231.894 25.5667 231.574 24.64 231.574 23.44ZM235.314 25.18C236.301 25.18 236.794 24.64 236.794 23.56V16.44C236.794 15.36 236.301 14.82 235.314 14.82C234.341 14.82 233.854 15.36 233.854 16.44V23.56C233.854 24.64 234.341 25.18 235.314 25.18ZM243.155 27H240.875V13H247.155V15.02H243.155V27ZM248.293 23.44V16.56C248.293 15.36 248.613 14.4333 249.253 13.78C249.906 13.1267 250.833 12.8 252.033 12.8C253.246 12.8 254.173 13.1267 254.813 13.78C255.466 14.4333 255.793 15.36 255.793 16.56V23.44C255.793 24.64 255.466 25.5667 254.813 26.22C254.159 26.8733 253.233 27.2 252.033 27.2C250.833 27.2 249.906 26.8733 249.253 26.22C248.613 25.5667 248.293 24.64 248.293 23.44ZM252.033 25.18C253.019 25.18 253.513 24.64 253.513 23.56V16.44C253.513 15.36 253.019 14.82 252.033 14.82C251.059 14.82 250.573 15.36 250.573 16.44V23.56C250.573 24.64 251.059 25.18 252.033 25.18ZM93.32 57H91.06V45.02H88.38V43H96V45.02H93.32V57ZM101.019 57H97.3789V43H99.6589V48.4H101.019C103.472 48.4 104.699 49.6333 104.699 52.1V53.3C104.699 55.7667 103.472 57 101.019 57ZM108.499 57H106.219V43H108.499V57ZM99.6589 50.42V54.98H101.019C101.499 54.98 101.852 54.86 102.079 54.62C102.306 54.3667 102.419 53.9667 102.419 53.42V51.98C102.419 51.4333 102.306 51.04 102.079 50.8C101.852 50.5467 101.499 50.42 101.019 50.42H99.6589ZM115.422 57H113.262L116.222 49.82L113.382 43H115.822L117.622 47.7L119.482 43H121.682L118.842 49.82L121.802 57H119.382L117.422 51.94L115.422 57ZM122.59 53.44V46.56C122.59 45.36 122.91 44.4333 123.55 43.78C124.203 43.1267 125.13 42.8 126.33 42.8C127.543 42.8 128.47 43.1267 129.11 43.78C129.763 44.4333 130.09 45.36 130.09 46.56V53.44C130.09 54.64 129.763 55.5667 129.11 56.22C128.456 56.8733 127.53 57.2 126.33 57.2C125.13 57.2 124.203 56.8733 123.55 56.22C122.91 55.5667 122.59 54.64 122.59 53.44ZM126.33 55.18C127.316 55.18 127.81 54.64 127.81 53.56V46.44C127.81 45.36 127.316 44.82 126.33 44.82C125.356 44.82 124.87 45.36 124.87 46.44V53.56C124.87 54.64 125.356 55.18 126.33 55.18ZM136.133 57H133.873V45.02H131.193V43H138.813V45.02H136.133V57ZM146.911 57H140.191V43H146.911V45.02H142.471V48.78H146.031V50.8H142.471V54.98H146.911V57ZM148.454 57.02C148.174 57.02 147.954 56.9933 147.794 56.94V54.96C147.954 55 148.107 55.02 148.254 55.02C148.747 55.02 149.087 54.9 149.274 54.66C149.474 54.4067 149.587 53.9733 149.614 53.36L150.034 43H156.874V57H154.614V45.02H152.174L151.874 53.42C151.834 54.6733 151.547 55.5867 151.014 56.16C150.481 56.7333 149.627 57.02 148.454 57.02ZM166.101 57H162.301V43H168.841V45.02H164.581V48.5H166.101C168.554 48.5 169.781 49.7333 169.781 52.2V53.3C169.781 55.7667 168.554 57 166.101 57ZM164.581 50.52V54.98H166.101C166.581 54.98 166.934 54.86 167.161 54.62C167.387 54.3667 167.501 53.9667 167.501 53.42V52.08C167.501 51.5333 167.387 51.14 167.161 50.9C166.934 50.6467 166.581 50.52 166.101 50.52H164.581ZM174.925 57H171.285V43H173.565V48.4H174.925C177.378 48.4 178.605 49.6333 178.605 52.1V53.3C178.605 55.7667 177.378 57 174.925 57ZM182.405 57H180.125V43H182.405V57ZM173.565 50.42V54.98H174.925C175.405 54.98 175.758 54.86 175.985 54.62C176.212 54.3667 176.325 53.9667 176.325 53.42V51.98C176.325 51.4333 176.212 51.04 175.985 50.8C175.758 50.5467 175.405 50.42 174.925 50.42H173.565ZM196.288 43V54.98H197.488V58.88H195.208V57H189.468V58.88H187.208V54.98H188.508C188.801 54.6867 188.968 54.14 189.008 53.34L189.428 43H196.288ZM190.668 54.98H194.008V45.02H191.568L191.288 53.22C191.261 53.94 191.055 54.5267 190.668 54.98ZM198.884 57.02C198.604 57.02 198.384 56.9933 198.224 56.94V54.96C198.384 55 198.537 55.02 198.684 55.02C199.177 55.02 199.517 54.9 199.704 54.66C199.904 54.4067 200.017 53.9733 200.044 53.36L200.464 43H207.304V57H205.044V45.02H202.604L202.304 53.42C202.264 54.6733 201.977 55.5867 201.444 56.16C200.91 56.7333 200.057 57.02 198.884 57.02ZM216.513 43V57H214.233V51.08H213.193C212.553 51.08 212.099 51.22 211.833 51.5C211.579 51.78 211.453 52.2667 211.453 52.96V55.16C211.453 55.9467 211.379 56.56 211.233 57H208.933C209.106 56.5733 209.193 55.9667 209.193 55.18V53.1C209.193 52.18 209.326 51.4733 209.593 50.98C209.859 50.4733 210.293 50.1333 210.893 49.96V49.9C209.773 49.4867 209.213 48.5333 209.213 47.04V46.36C209.213 45.2133 209.506 44.3667 210.093 43.82C210.693 43.2733 211.619 43 212.873 43H216.513ZM213.153 49.06H214.233V45.02H212.913C212.419 45.02 212.059 45.1467 211.833 45.4C211.606 45.6533 211.493 46.0533 211.493 46.6V47.4C211.493 47.9867 211.626 48.4133 211.893 48.68C212.159 48.9333 212.579 49.06 213.153 49.06ZM228.07 56.24C227.443 56.88 226.55 57.2 225.39 57.2C224.23 57.2 223.33 56.88 222.69 56.24C222.063 55.5867 221.75 54.6733 221.75 53.5V46.5C221.75 45.3267 222.063 44.42 222.69 43.78C223.33 43.1267 224.23 42.8 225.39 42.8C226.55 42.8 227.443 43.1267 228.07 43.78C228.696 44.42 229.01 45.3267 229.01 46.5V47.74H226.87V46.4C226.87 45.32 226.396 44.78 225.45 44.78C224.503 44.78 224.03 45.32 224.03 46.4V53.6C224.03 54.68 224.503 55.22 225.45 55.22C226.396 55.22 226.87 54.68 226.87 53.6V51.84H229.01V53.5C229.01 54.6733 228.696 55.5867 228.07 56.24ZM237.341 57H230.621V43H237.341V45.02H232.901V48.78H236.461V50.8H232.901V54.98H237.341V57ZM242.644 57H238.844V43H245.384V45.02H241.124V48.5H242.644C245.097 48.5 246.324 49.7333 246.324 52.2V53.3C246.324 55.7667 245.097 57 242.644 57ZM241.124 50.52V54.98H242.644C243.124 54.98 243.477 54.86 243.704 54.62C243.93 54.3667 244.044 53.9667 244.044 53.42V52.08C244.044 51.5333 243.93 51.14 243.704 50.9C243.477 50.6467 243.124 50.52 242.644 50.52H241.124ZM255.028 43V57H252.748V51.08H251.708C251.068 51.08 250.615 51.22 250.348 51.5C250.095 51.78 249.968 52.2667 249.968 52.96V55.16C249.968 55.9467 249.895 56.56 249.748 57H247.448C247.621 56.5733 247.708 55.9667 247.708 55.18V53.1C247.708 52.18 247.841 51.4733 248.108 50.98C248.375 50.4733 248.808 50.1333 249.408 49.96V49.9C248.288 49.4867 247.728 48.5333 247.728 47.04V46.36C247.728 45.2133 248.021 44.3667 248.608 43.82C249.208 43.2733 250.135 43 251.388 43H255.028ZM251.668 49.06H252.748V45.02H251.428C250.935 45.02 250.575 45.1467 250.348 45.4C250.121 45.6533 250.008 46.0533 250.008 46.6V47.4C250.008 47.9867 250.141 48.4133 250.408 48.68C250.675 48.9333 251.095 49.06 251.668 49.06ZM260.265 53.44V46.56C260.265 45.36 260.585 44.4333 261.225 43.78C261.879 43.1267 262.805 42.8 264.005 42.8C265.219 42.8 266.145 43.1267 266.785 43.78C267.439 44.4333 267.765 45.36 267.765 46.56V53.44C267.765 54.64 267.439 55.5667 266.785 56.22C266.132 56.8733 265.205 57.2 264.005 57.2C262.805 57.2 261.879 56.8733 261.225 56.22C260.585 55.5667 260.265 54.64 260.265 53.44ZM264.005 55.18C264.992 55.18 265.485 54.64 265.485 53.56V46.44C265.485 45.36 264.992 44.82 264.005 44.82C263.032 44.82 262.545 45.36 262.545 46.44V53.56C262.545 54.64 263.032 55.18 264.005 55.18ZM273.808 57H271.548V45.02H268.868V43H276.488V45.02H273.808V57ZM285.967 57H283.567L281.347 50.6L280.147 52.58V57H277.867V43H280.147V49.16L283.607 43H285.927L282.887 48.2L285.967 57ZM289.581 57H287.301V43H290.921C293.374 43 294.601 44.2133 294.601 46.64V47.68C294.601 50.1067 293.374 51.32 290.921 51.32H289.581V57ZM289.581 45.02V49.32H290.921C291.414 49.32 291.767 49.2 291.981 48.96C292.207 48.7067 292.321 48.3 292.321 47.74V46.56C292.321 46 292.207 45.6067 291.981 45.38C291.767 45.14 291.414 45.02 290.921 45.02H289.581ZM299.749 57H296.109V43H298.389V48.4H299.749C302.203 48.4 303.429 49.6333 303.429 52.1V53.3C303.429 55.7667 302.203 57 299.749 57ZM307.229 57H304.949V43H307.229V57ZM298.389 50.42V54.98H299.749C300.229 54.98 300.583 54.86 300.809 54.62C301.036 54.3667 301.149 53.9667 301.149 53.42V51.98C301.149 51.4333 301.036 51.04 300.809 50.8C300.583 50.5467 300.229 50.42 299.749 50.42H298.389ZM313.554 57H311.294V45.02H308.614V43H316.234V45.02H313.554V57ZM321.253 57H317.613V43H319.893V48.4H321.253C323.707 48.4 324.933 49.6333 324.933 52.1V53.3C324.933 55.7667 323.707 57 321.253 57ZM319.893 50.42V54.98H321.253C321.733 54.98 322.087 54.86 322.313 54.62C322.54 54.3667 322.653 53.9667 322.653 53.42V51.98C322.653 51.4333 322.54 51.04 322.313 50.8C322.087 50.5467 321.733 50.42 321.253 50.42H319.893Z" fill="white"/>
<g filter="url(#filter2_ddddd_704_391003)">
<ellipse cx="58" cy="226.5" rx="22" ry="5.5" fill="#DDBA63"/>
<path d="M57.998 173.749C52.5299 173.756 47.2877 175.931 43.4211 179.797C39.5546 183.664 37.3795 188.906 37.373 194.374C37.373 212.022 56.123 225.352 56.9214 225.911C57.2371 226.131 57.6129 226.249 57.998 226.249C58.3832 226.249 58.759 226.131 59.0747 225.911C59.873 225.352 78.623 212.022 78.623 194.374C78.6166 188.906 76.4415 183.664 72.575 179.797C68.7084 175.931 63.4661 173.756 57.998 173.749V173.749ZM57.9994 186.875C59.4828 186.875 60.9328 187.315 62.1662 188.139C63.3996 188.963 64.3609 190.134 64.9285 191.505C65.4962 192.875 65.6447 194.383 65.3553 195.838C65.0659 197.293 64.3516 198.629 63.3027 199.678C62.2538 200.727 60.9175 201.441 59.4626 201.731C58.0077 202.02 56.4997 201.872 55.1293 201.304C53.7588 200.736 52.5875 199.775 51.7634 198.542C50.9393 197.308 50.4994 195.858 50.4994 194.375C50.4994 193.39 50.6934 192.415 51.0703 191.505C51.4472 190.595 51.9996 189.768 52.6961 189.072C53.3925 188.375 54.2193 187.823 55.1293 187.446C56.0392 187.069 57.0145 186.875 57.9994 186.875V186.875Z" fill="#FFF9DA"/>
<ellipse cx="58" cy="194.5" rx="13" ry="12.5" fill="#C74403"/>
<path d="M54.6598 198.72V197.58H56.7398V198.82C56.7398 199.74 57.1198 200.2 57.8798 200.2C58.2664 200.2 58.5531 200.08 58.7398 199.84C58.9264 199.6 59.0198 199.193 59.0198 198.62V197.48C59.0198 196.84 58.9064 196.387 58.6798 196.12C58.4531 195.84 58.0864 195.7 57.5798 195.7H56.8398V193.7H57.6398C58.0931 193.7 58.4264 193.587 58.6398 193.36C58.8531 193.12 58.9598 192.74 58.9598 192.22V191.2C58.9598 190.267 58.5931 189.8 57.8598 189.8C57.1531 189.8 56.7998 190.233 56.7998 191.1V192.02H54.7198V191.28C54.7198 190.16 54.9931 189.3 55.5398 188.7C56.0998 188.1 56.8998 187.8 57.9398 187.8C58.9931 187.8 59.7931 188.1 60.3398 188.7C60.8864 189.287 61.1598 190.14 61.1598 191.26V191.76C61.1598 193.253 60.6398 194.193 59.5998 194.58V194.62C60.6798 195.02 61.2198 195.98 61.2198 197.5V198.74C61.2198 199.86 60.9398 200.72 60.3798 201.32C59.8331 201.907 59.0198 202.2 57.9398 202.2C56.8598 202.2 56.0398 201.9 55.4798 201.3C54.9331 200.7 54.6598 199.84 54.6598 198.72Z" fill="white"/>
</g>
<path d="M116.74 186.56L118.54 179H120.72L117.7 190.62C117.46 191.54 117.08 192.2 116.56 192.6C116.04 193 115.307 193.2 114.36 193.2C113.813 193.2 113.353 193.127 112.98 192.98V191.02C113.3 191.127 113.647 191.18 114.02 191.18C114.447 191.18 114.767 191.12 114.98 191C115.193 190.867 115.353 190.64 115.46 190.32L115.56 189.96L112.4 179H114.76L116.74 186.56ZM126.984 184.08V179H129.264V193H126.984V187.16C126.398 187.76 125.604 188.06 124.604 188.06C122.631 188.06 121.644 186.933 121.644 184.68V179H123.904V184.38C123.904 185.46 124.371 186 125.304 186C125.838 186 126.251 185.84 126.544 185.52C126.838 185.187 126.984 184.707 126.984 184.08ZM139.082 193H136.762L136.302 190.28H133.222L132.742 193H130.622L133.302 179H136.382L139.082 193ZM134.762 181.36L133.562 188.3H135.962L134.762 181.36ZM146.464 192.24C145.838 192.88 144.944 193.2 143.784 193.2C142.624 193.2 141.724 192.88 141.084 192.24C140.458 191.587 140.144 190.673 140.144 189.5V182.5C140.144 181.327 140.458 180.42 141.084 179.78C141.724 179.127 142.624 178.8 143.784 178.8C144.944 178.8 145.838 179.127 146.464 179.78C147.091 180.42 147.404 181.327 147.404 182.5V183.74H145.264V182.4C145.264 181.32 144.791 180.78 143.844 180.78C142.898 180.78 142.424 181.32 142.424 182.4V189.6C142.424 190.68 142.898 191.22 143.844 191.22C144.791 191.22 145.264 190.68 145.264 189.6V187.84H147.404V189.5C147.404 190.673 147.091 191.587 146.464 192.24ZM153.336 193H151.076V181.02H148.396V179H156.016V181.02H153.336V193ZM161.315 193H157.395V179H161.115C162.368 179 163.288 179.273 163.875 179.82C164.475 180.367 164.775 181.207 164.775 182.34V182.76C164.775 184.187 164.221 185.113 163.115 185.54V185.6C164.381 185.987 165.015 187.02 165.015 188.7V189.42C165.015 191.807 163.781 193 161.315 193ZM159.675 181.02V184.74H160.815C161.388 184.74 161.808 184.613 162.075 184.36C162.355 184.093 162.495 183.68 162.495 183.12V182.6C162.495 182.04 162.381 181.64 162.155 181.4C161.928 181.147 161.555 181.02 161.035 181.02H159.675ZM159.675 186.76V190.98H161.315C161.808 190.98 162.168 190.86 162.395 190.62C162.621 190.367 162.735 189.96 162.735 189.4V188.62C162.735 187.927 162.601 187.447 162.335 187.18C162.068 186.9 161.601 186.76 160.935 186.76H159.675ZM170.295 186.56L172.095 179H174.275L171.255 190.62C171.015 191.54 170.635 192.2 170.115 192.6C169.595 193 168.861 193.2 167.915 193.2C167.368 193.2 166.908 193.127 166.535 192.98V191.02C166.855 191.127 167.201 191.18 167.575 191.18C168.001 191.18 168.321 191.12 168.535 191C168.748 190.867 168.908 190.64 169.015 190.32L169.115 189.96L165.955 179H168.315L170.295 186.56ZM179.399 177.86C178.612 177.86 177.992 177.64 177.539 177.2C177.086 176.747 176.846 176.133 176.819 175.36H178.199C178.266 176.027 178.666 176.36 179.399 176.36C180.132 176.36 180.552 176.027 180.659 175.36H181.999C181.972 176.133 181.732 176.747 181.279 177.2C180.826 177.64 180.199 177.86 179.399 177.86ZM177.579 188.36L180.959 179H183.279V193H181.219V183.6L177.859 193H175.539V179H177.579V188.36ZM192.623 193H188.703V179H192.423C193.676 179 194.596 179.273 195.183 179.82C195.783 180.367 196.083 181.207 196.083 182.34V182.76C196.083 184.187 195.53 185.113 194.423 185.54V185.6C195.69 185.987 196.323 187.02 196.323 188.7V189.42C196.323 191.807 195.09 193 192.623 193ZM190.983 181.02V184.74H192.123C192.696 184.74 193.116 184.613 193.383 184.36C193.663 184.093 193.803 183.68 193.803 183.12V182.6C193.803 182.04 193.69 181.64 193.463 181.4C193.236 181.147 192.863 181.02 192.343 181.02H190.983ZM190.983 186.76V190.98H192.623C193.116 190.98 193.476 190.86 193.703 190.62C193.93 190.367 194.043 189.96 194.043 189.4V188.62C194.043 187.927 193.91 187.447 193.643 187.18C193.376 186.9 192.91 186.76 192.243 186.76H190.983ZM203.62 193H201.34V179H204.96C207.413 179 208.64 180.213 208.64 182.64V183.68C208.64 186.107 207.413 187.32 204.96 187.32H203.62V193ZM203.62 181.02V185.32H204.96C205.453 185.32 205.807 185.2 206.02 184.96C206.247 184.707 206.36 184.3 206.36 183.74V182.56C206.36 182 206.247 181.607 206.02 181.38C205.807 181.14 205.453 181.02 204.96 181.02H203.62ZM209.968 189.44V182.56C209.968 181.36 210.288 180.433 210.928 179.78C211.582 179.127 212.508 178.8 213.708 178.8C214.922 178.8 215.848 179.127 216.488 179.78C217.142 180.433 217.468 181.36 217.468 182.56V189.44C217.468 190.64 217.142 191.567 216.488 192.22C215.835 192.873 214.908 193.2 213.708 193.2C212.508 193.2 211.582 192.873 210.928 192.22C210.288 191.567 209.968 190.64 209.968 189.44ZM213.708 191.18C214.695 191.18 215.188 190.64 215.188 189.56V182.44C215.188 181.36 214.695 180.82 213.708 180.82C212.735 180.82 212.248 181.36 212.248 182.44V189.56C212.248 190.64 212.735 191.18 213.708 191.18ZM222.49 193.2C221.29 193.2 220.376 192.887 219.75 192.26C219.123 191.62 218.81 190.7 218.81 189.5V188.56H220.95V189.54C220.95 190.633 221.443 191.18 222.43 191.18C222.95 191.18 223.323 191.047 223.55 190.78C223.79 190.5 223.91 190.047 223.91 189.42V188.66C223.91 187.967 223.77 187.473 223.49 187.18C223.223 186.873 222.776 186.72 222.15 186.72H221.29V184.7H222.21C223.303 184.7 223.85 184.133 223.85 183V182.38C223.85 181.34 223.376 180.82 222.43 180.82C221.496 180.82 221.03 181.32 221.03 182.32V183.02H218.89V182.5C218.89 181.3 219.196 180.387 219.81 179.76C220.423 179.12 221.323 178.8 222.51 178.8C223.683 178.8 224.576 179.107 225.19 179.72C225.803 180.333 226.11 181.22 226.11 182.38V182.76C226.11 184.213 225.516 185.153 224.33 185.58V185.6C225.556 186.027 226.17 187.053 226.17 188.68V189.48C226.17 191.96 224.943 193.2 222.49 193.2ZM231.464 193H227.824V179H230.104V184.4H231.464C233.918 184.4 235.144 185.633 235.144 188.1V189.3C235.144 191.767 233.918 193 231.464 193ZM238.944 193H236.664V179H238.944V193ZM230.104 186.42V190.98H231.464C231.944 190.98 232.298 190.86 232.524 190.62C232.751 190.367 232.864 189.967 232.864 189.42V187.98C232.864 187.433 232.751 187.04 232.524 186.8C232.298 186.547 231.944 186.42 231.464 186.42H230.104ZM243.229 193H240.949V179H247.229V181.02H243.229V193ZM250.905 193H248.625V179H252.245C254.698 179 255.925 180.213 255.925 182.64V183.68C255.925 186.107 254.698 187.32 252.245 187.32H250.905V193ZM250.905 181.02V185.32H252.245C252.738 185.32 253.092 185.2 253.305 184.96C253.532 184.707 253.645 184.3 253.645 183.74V182.56C253.645 182 253.532 181.607 253.305 181.38C253.092 181.14 252.738 181.02 252.245 181.02H250.905ZM261.074 193H257.434V179H259.714V184.4H261.074C263.527 184.4 264.754 185.633 264.754 188.1V189.3C264.754 191.767 263.527 193 261.074 193ZM268.554 193H266.274V179H268.554V193ZM259.714 186.42V190.98H261.074C261.554 190.98 261.907 190.86 262.134 190.62C262.36 190.367 262.474 189.967 262.474 189.42V187.98C262.474 187.433 262.36 187.04 262.134 186.8C261.907 186.547 261.554 186.42 261.074 186.42H259.714ZM282.119 193H270.559V179H272.839V190.98H275.219V179H277.479V190.98H279.839V179H282.119V193ZM290.833 193H284.113V179H290.833V181.02H286.393V184.78H289.953V186.8H286.393V190.98H290.833V193ZM298.034 193H295.754V179H303.334V193H301.054V181.02H298.034V193ZM307.604 193H305.324V179H308.944C311.398 179 312.624 180.213 312.624 182.64V183.68C312.624 186.107 311.398 187.32 308.944 187.32H307.604V193ZM307.604 181.02V185.32H308.944C309.438 185.32 309.791 185.2 310.004 184.96C310.231 184.707 310.344 184.3 310.344 183.74V182.56C310.344 182 310.231 181.607 310.004 181.38C309.791 181.14 309.438 181.02 308.944 181.02H307.604ZM316.173 188.36L319.553 179H321.873V193H319.813V183.6L316.453 193H314.133V179H316.173V188.36ZM327.099 193.2C325.899 193.2 324.986 192.887 324.359 192.26C323.732 191.62 323.419 190.7 323.419 189.5V188.56H325.559V189.54C325.559 190.633 326.052 191.18 327.039 191.18C327.559 191.18 327.932 191.047 328.159 190.78C328.399 190.5 328.519 190.047 328.519 189.42V188.66C328.519 187.967 328.379 187.473 328.099 187.18C327.832 186.873 327.386 186.72 326.759 186.72H325.899V184.7H326.819C327.912 184.7 328.459 184.133 328.459 183V182.38C328.459 181.34 327.986 180.82 327.039 180.82C326.106 180.82 325.639 181.32 325.639 182.32V183.02H323.499V182.5C323.499 181.3 323.806 180.387 324.419 179.76C325.032 179.12 325.932 178.8 327.119 178.8C328.292 178.8 329.186 179.107 329.799 179.72C330.412 180.333 330.719 181.22 330.719 182.38V182.76C330.719 184.213 330.126 185.153 328.939 185.58V185.6C330.166 186.027 330.779 187.053 330.779 188.68V189.48C330.779 191.96 329.552 193.2 327.099 193.2ZM332.254 189.44V182.56C332.254 181.36 332.574 180.433 333.214 179.78C333.867 179.127 334.794 178.8 335.994 178.8C337.207 178.8 338.134 179.127 338.774 179.78C339.427 180.433 339.754 181.36 339.754 182.56V189.44C339.754 190.64 339.427 191.567 338.774 192.22C338.12 192.873 337.194 193.2 335.994 193.2C334.794 193.2 333.867 192.873 333.214 192.22C332.574 191.567 332.254 190.64 332.254 189.44ZM335.994 191.18C336.98 191.18 337.474 190.64 337.474 189.56V182.44C337.474 181.36 336.98 180.82 335.994 180.82C335.02 180.82 334.534 181.36 334.534 182.44V189.56C334.534 190.64 335.02 191.18 335.994 191.18ZM345.475 193H341.555V179H345.275C346.528 179 347.448 179.273 348.035 179.82C348.635 180.367 348.935 181.207 348.935 182.34V182.76C348.935 184.187 348.381 185.113 347.275 185.54V185.6C348.541 185.987 349.175 187.02 349.175 188.7V189.42C349.175 191.807 347.941 193 345.475 193ZM343.835 181.02V184.74H344.975C345.548 184.74 345.968 184.613 346.235 184.36C346.515 184.093 346.655 183.68 346.655 183.12V182.6C346.655 182.04 346.541 181.64 346.315 181.4C346.088 181.147 345.715 181.02 345.195 181.02H343.835ZM343.835 186.76V190.98H345.475C345.968 190.98 346.328 190.86 346.555 190.62C346.781 190.367 346.895 189.96 346.895 189.4V188.62C346.895 187.927 346.761 187.447 346.495 187.18C346.228 186.9 345.761 186.76 345.095 186.76H343.835ZM121.46 209V220.98H122.66V224.88H120.38V223H114.64V224.88H112.38V220.98H113.68C113.973 220.687 114.14 220.14 114.18 219.34L114.6 209H121.46ZM115.84 220.98H119.18V211.02H116.74L116.46 219.22C116.433 219.94 116.227 220.527 115.84 220.98ZM124.056 223.02C123.776 223.02 123.556 222.993 123.396 222.94V220.96C123.556 221 123.709 221.02 123.856 221.02C124.349 221.02 124.689 220.9 124.876 220.66C125.076 220.407 125.189 219.973 125.216 219.36L125.636 209H132.476V223H130.216V211.02H127.776L127.476 219.42C127.436 220.673 127.149 221.587 126.616 222.16C126.082 222.733 125.229 223.02 124.056 223.02ZM141.684 209V223H139.404V217.08H138.364C137.724 217.08 137.271 217.22 137.004 217.5C136.751 217.78 136.624 218.267 136.624 218.96V221.16C136.624 221.947 136.551 222.56 136.404 223H134.104C134.278 222.573 134.364 221.967 134.364 221.18V219.1C134.364 218.18 134.498 217.473 134.764 216.98C135.031 216.473 135.464 216.133 136.064 215.96V215.9C134.944 215.487 134.384 214.533 134.384 213.04V212.36C134.384 211.213 134.678 210.367 135.264 209.82C135.864 209.273 136.791 209 138.044 209H141.684ZM138.324 215.06H139.404V211.02H138.084C137.591 211.02 137.231 211.147 137.004 211.4C136.778 211.653 136.664 212.053 136.664 212.6V213.4C136.664 213.987 136.798 214.413 137.064 214.68C137.331 214.933 137.751 215.06 138.324 215.06ZM149.382 223H147.102V209H150.722C153.175 209 154.402 210.213 154.402 212.64V213.68C154.402 216.107 153.175 217.32 150.722 217.32H149.382V223ZM149.382 211.02V215.32H150.722C151.215 215.32 151.568 215.2 151.782 214.96C152.008 214.707 152.122 214.3 152.122 213.74V212.56C152.122 212 152.008 211.607 151.782 211.38C151.568 211.14 151.215 211.02 150.722 211.02H149.382ZM162.63 223H155.91V209H162.63V211.02H158.19V214.78H161.75V216.8H158.19V220.98H162.63V223ZM171.992 223H169.672L169.212 220.28H166.132L165.652 223H163.532L166.212 209H169.292L171.992 223ZM167.672 211.36L166.472 218.3H168.872L167.672 211.36ZM173.45 223.02C173.17 223.02 172.95 222.993 172.79 222.94V220.96C172.95 221 173.103 221.02 173.25 221.02C173.743 221.02 174.083 220.9 174.27 220.66C174.47 220.407 174.583 219.973 174.61 219.36L175.03 209H181.87V223H179.61V211.02H177.17L176.87 219.42C176.83 220.673 176.543 221.587 176.01 222.16C175.477 222.733 174.623 223.02 173.45 223.02ZM185.919 218.36L189.299 209H191.619V223H189.559V213.6L186.199 223H183.879V209H185.919V218.36ZM196.845 223.2C195.645 223.2 194.732 222.887 194.105 222.26C193.478 221.62 193.165 220.7 193.165 219.5V218.56H195.305V219.54C195.305 220.633 195.798 221.18 196.785 221.18C197.305 221.18 197.678 221.047 197.905 220.78C198.145 220.5 198.265 220.047 198.265 219.42V218.66C198.265 217.967 198.125 217.473 197.845 217.18C197.578 216.873 197.132 216.72 196.505 216.72H195.645V214.7H196.565C197.658 214.7 198.205 214.133 198.205 213V212.38C198.205 211.34 197.732 210.82 196.785 210.82C195.852 210.82 195.385 211.32 195.385 212.32V213.02H193.245V212.5C193.245 211.3 193.552 210.387 194.165 209.76C194.778 209.12 195.678 208.8 196.865 208.8C198.038 208.8 198.932 209.107 199.545 209.72C200.158 210.333 200.465 211.22 200.465 212.38V212.76C200.465 214.213 199.872 215.153 198.685 215.58V215.6C199.912 216.027 200.525 217.053 200.525 218.68V219.48C200.525 221.96 199.298 223.2 196.845 223.2ZM209.843 223H207.523L207.063 220.28H203.983L203.503 223H201.383L204.063 209H207.143L209.843 223ZM205.523 211.36L204.323 218.3H206.723L205.523 211.36ZM220.084 224.88H217.804V223H211.184V209H213.464V220.98H216.484V209H218.764V220.98H220.084V224.88ZM223.478 218.36L226.858 209H229.178V223H227.118V213.6L223.758 223H221.438V209H223.478V218.36ZM233.224 218.36L236.604 209H238.924V223H236.864V213.6L233.504 223H231.184V209H233.224V218.36ZM250.488 222.24C249.861 222.88 248.968 223.2 247.808 223.2C246.648 223.2 245.748 222.88 245.108 222.24C244.481 221.587 244.168 220.673 244.168 219.5V212.5C244.168 211.327 244.481 210.42 245.108 209.78C245.748 209.127 246.648 208.8 247.808 208.8C248.968 208.8 249.861 209.127 250.488 209.78C251.114 210.42 251.428 211.327 251.428 212.5V213.74H249.288V212.4C249.288 211.32 248.814 210.78 247.868 210.78C246.921 210.78 246.448 211.32 246.448 212.4V219.6C246.448 220.68 246.921 221.22 247.868 221.22C248.814 221.22 249.288 220.68 249.288 219.6V217.84H251.428V219.5C251.428 220.673 251.114 221.587 250.488 222.24ZM256.959 223H253.039V209H256.759C258.012 209 258.932 209.273 259.519 209.82C260.119 210.367 260.419 211.207 260.419 212.34V212.76C260.419 214.187 259.866 215.113 258.759 215.54V215.6C260.026 215.987 260.659 217.02 260.659 218.7V219.42C260.659 221.807 259.426 223 256.959 223ZM255.319 211.02V214.74H256.459C257.032 214.74 257.452 214.613 257.719 214.36C257.999 214.093 258.139 213.68 258.139 213.12V212.6C258.139 212.04 258.026 211.64 257.799 211.4C257.572 211.147 257.199 211.02 256.679 211.02H255.319ZM255.319 216.76V220.98H256.959C257.452 220.98 257.812 220.86 258.039 220.62C258.266 220.367 258.379 219.96 258.379 219.4V218.62C258.379 217.927 258.246 217.447 257.979 217.18C257.712 216.9 257.246 216.76 256.579 216.76H255.319ZM262.078 219.44V212.56C262.078 211.36 262.398 210.433 263.038 209.78C263.691 209.127 264.618 208.8 265.818 208.8C267.031 208.8 267.958 209.127 268.598 209.78C269.251 210.433 269.578 211.36 269.578 212.56V219.44C269.578 220.64 269.251 221.567 268.598 222.22C267.944 222.873 267.018 223.2 265.818 223.2C264.618 223.2 263.691 222.873 263.038 222.22C262.398 221.567 262.078 220.64 262.078 219.44ZM265.818 221.18C266.804 221.18 267.298 220.64 267.298 219.56V212.44C267.298 211.36 266.804 210.82 265.818 210.82C264.844 210.82 264.358 211.36 264.358 212.44V219.56C264.358 220.64 264.844 221.18 265.818 221.18ZM273.419 218.36L276.799 209H279.119V223H277.059V213.6L273.699 223H271.379V209H273.419V218.36ZM282.625 223H280.465L283.425 215.82L280.585 209H283.025L284.825 213.7L286.685 209H288.885L286.045 215.82L289.005 223H286.585L284.625 217.94L282.625 223ZM295.802 218.36L299.182 209H301.502V223H299.442V213.6L296.082 223H293.762V209H295.802V218.36ZM311.968 209V220.98H313.168V224.88H310.888V223H305.148V224.88H302.888V220.98H304.188C304.481 220.687 304.648 220.14 304.688 219.34L305.108 209H311.968ZM306.348 220.98H309.688V211.02H307.248L306.968 219.22C306.941 219.94 306.734 220.527 306.348 220.98ZM321.243 223H314.523V209H321.243V211.02H316.803V214.78H320.363V216.8H316.803V220.98H321.243V223ZM326.606 207.86C325.819 207.86 325.199 207.64 324.746 207.2C324.293 206.747 324.053 206.133 324.026 205.36H325.406C325.473 206.027 325.873 206.36 326.606 206.36C327.339 206.36 327.759 206.027 327.866 205.36H329.206C329.179 206.133 328.939 206.747 328.486 207.2C328.033 207.64 327.406 207.86 326.606 207.86ZM324.786 218.36L328.166 209H330.486V223H328.426V213.6L325.066 223H322.746V209H324.786V218.36Z" fill="white"/>
<path opacity="0.4" d="M403 111C369.692 101.853 332.206 135.094 261.5 111C190.794 86.9056 118.995 137.073 123.67 155.813" stroke="#FFF8D9" stroke-width="2" stroke-linecap="round" stroke-dasharray="6 6"/>
<path opacity="0.4" d="M384 186C521 186 321.5 224.5 432.5 224.5" stroke="#FFF8D9" stroke-width="2" stroke-linecap="round" stroke-dasharray="6 6"/>
<path opacity="0.4" d="M310 24.5C350.534 17.0919 449.568 7.35214 413.5 39.2376C377.432 71.1231 462 29.1762 462 71" stroke="#FFF8D9" stroke-width="2" stroke-linecap="round" stroke-dasharray="6 6"/>
<defs>
<filter id="filter0_ddddd_704_391003" x="431" y="82" width="114" height="109" filterUnits="userSpaceOnUse" color-interpolation-filters="sRGB">
<feFlood flood-opacity="0" result="BackgroundImageFix"/>
<feColorMatrix in="SourceAlpha" type="matrix" values="0 0 0 0 0 0 0 0 0 0 0 0 0 0 0 0 0 0 127 0" result="hardAlpha"/>
<feOffset/>
<feColorMatrix type="matrix" values="0 0 0 0 0.0745098 0 0 0 0 0.12549 0 0 0 0 0.0823529 0 0 0 0.2 0"/>
<feBlend mode="normal" in2="BackgroundImageFix" result="effect1_dropShadow_704_391003"/>
<feColorMatrix in="SourceAlpha" type="matrix" values="0 0 0 0 0 0 0 0 0 0 0 0 0 0 0 0 0 0 127 0" result="hardAlpha"/>
<feOffset dx="2" dy="2"/>
<feGaussianBlur stdDeviation="3"/>
<feColorMatrix type="matrix" values="0 0 0 0 0.0745098 0 0 0 0 0.12549 0 0 0 0 0.0823529 0 0 0 0.2 0"/>
<feBlend mode="normal" in2="effect1_dropShadow_704_391003" result="effect2_dropShadow_704_391003"/>
<feColorMatrix in="SourceAlpha" type="matrix" values="0 0 0 0 0 0 0 0 0 0 0 0 0 0 0 0 0 0 127 0" result="hardAlpha"/>
<feOffset dx="8" dy="7"/>
<feGaussianBlur stdDeviation="5"/>
<feColorMatrix type="matrix" values="0 0 0 0 0.0745098 0 0 0 0 0.12549 0 0 0 0 0.0823529 0 0 0 0.17 0"/>
<feBlend mode="normal" in2="effect2_dropShadow_704_391003" result="effect3_dropShadow_704_391003"/>
<feColorMatrix in="SourceAlpha" type="matrix" values="0 0 0 0 0 0 0 0 0 0 0 0 0 0 0 0 0 0 127 0" result="hardAlpha"/>
<feOffset dx="18" dy="15"/>
<feGaussianBlur stdDeviation="7"/>
<feColorMatrix type="matrix" values="0 0 0 0 0.0745098 0 0 0 0 0.12549 0 0 0 0 0.0823529 0 0 0 0.1 0"/>
<feBlend mode="normal" in2="effect3_dropShadow_704_391003" result="effect4_dropShadow_704_391003"/>
<feColorMatrix in="SourceAlpha" type="matrix" values="0 0 0 0 0 0 0 0 0 0 0 0 0 0 0 0 0 0 127 0" result="hardAlpha"/>
<feOffset dx="33" dy="26"/>
<feGaussianBlur stdDeviation="8.5"/>
<feColorMatrix type="matrix" values="0 0 0 0 0.0745098 0 0 0 0 0.12549 0 0 0 0 0.0823529 0 0 0 0.03 0"/>
<feBlend mode="normal" in2="effect4_dropShadow_704_391003" result="effect5_dropShadow_704_391003"/>
<feBlend mode="normal" in="SourceGraphic" in2="effect5_dropShadow_704_391003" result="shape"/>
</filter>
<filter id="filter1_ddddd_704_391003" x="0" y="0" width="114" height="109" filterUnits="userSpaceOnUse" color-interpolation-filters="sRGB">
<feFlood flood-opacity="0" result="BackgroundImageFix"/>
<feColorMatrix in="SourceAlpha" type="matrix" values="0 0 0 0 0 0 0 0 0 0 0 0 0 0 0 0 0 0 127 0" result="hardAlpha"/>
<feOffset/>
<feColorMatrix type="matrix" values="0 0 0 0 0.0745098 0 0 0 0 0.12549 0 0 0 0 0.0823529 0 0 0 0.2 0"/>
<feBlend mode="normal" in2="BackgroundImageFix" result="effect1_dropShadow_704_391003"/>
<feColorMatrix in="SourceAlpha" type="matrix" values="0 0 0 0 0 0 0 0 0 0 0 0 0 0 0 0 0 0 127 0" result="hardAlpha"/>
<feOffset dx="2" dy="2"/>
<feGaussianBlur stdDeviation="3"/>
<feColorMatrix type="matrix" values="0 0 0 0 0.0745098 0 0 0 0 0.12549 0 0 0 0 0.0823529 0 0 0 0.2 0"/>
<feBlend mode="normal" in2="effect1_dropShadow_704_391003" result="effect2_dropShadow_704_391003"/>
<feColorMatrix in="SourceAlpha" type="matrix" values="0 0 0 0 0 0 0 0 0 0 0 0 0 0 0 0 0 0 127 0" result="hardAlpha"/>
<feOffset dx="8" dy="7"/>
<feGaussianBlur stdDeviation="5"/>
<feColorMatrix type="matrix" values="0 0 0 0 0.0745098 0 0 0 0 0.12549 0 0 0 0 0.0823529 0 0 0 0.17 0"/>
<feBlend mode="normal" in2="effect2_dropShadow_704_391003" result="effect3_dropShadow_704_391003"/>
<feColorMatrix in="SourceAlpha" type="matrix" values="0 0 0 0 0 0 0 0 0 0 0 0 0 0 0 0 0 0 127 0" result="hardAlpha"/>
<feOffset dx="18" dy="15"/>
<feGaussianBlur stdDeviation="7"/>
<feColorMatrix type="matrix" values="0 0 0 0 0.0745098 0 0 0 0 0.12549 0 0 0 0 0.0823529 0 0 0 0.1 0"/>
<feBlend mode="normal" in2="effect3_dropShadow_704_391003" result="effect4_dropShadow_704_391003"/>
<feColorMatrix in="SourceAlpha" type="matrix" values="0 0 0 0 0 0 0 0 0 0 0 0 0 0 0 0 0 0 127 0" result="hardAlpha"/>
<feOffset dx="33" dy="26"/>
<feGaussianBlur stdDeviation="8.5"/>
<feColorMatrix type="matrix" values="0 0 0 0 0.0745098 0 0 0 0 0.12549 0 0 0 0 0.0823529 0 0 0 0.03 0"/>
<feBlend mode="normal" in2="effect4_dropShadow_704_391003" result="effect5_dropShadow_704_391003"/>
<feBlend mode="normal" in="SourceGraphic" in2="effect5_dropShadow_704_391003" result="shape"/>
</filter>
<filter id="filter2_ddddd_704_391003" x="24" y="166" width="114" height="109" filterUnits="userSpaceOnUse" color-interpolation-filters="sRGB">
<feFlood flood-opacity="0" result="BackgroundImageFix"/>
<feColorMatrix in="SourceAlpha" type="matrix" values="0 0 0 0 0 0 0 0 0 0 0 0 0 0 0 0 0 0 127 0" result="hardAlpha"/>
<feOffset/>
<feColorMatrix type="matrix" values="0 0 0 0 0.0745098 0 0 0 0 0.12549 0 0 0 0 0.0823529 0 0 0 0.2 0"/>
<feBlend mode="normal" in2="BackgroundImageFix" result="effect1_dropShadow_704_391003"/>
<feColorMatrix in="SourceAlpha" type="matrix" values="0 0 0 0 0 0 0 0 0 0 0 0 0 0 0 0 0 0 127 0" result="hardAlpha"/>
<feOffset dx="2" dy="2"/>
<feGaussianBlur stdDeviation="3"/>
<feColorMatrix type="matrix" values="0 0 0 0 0.0745098 0 0 0 0 0.12549 0 0 0 0 0.0823529 0 0 0 0.2 0"/>
<feBlend mode="normal" in2="effect1_dropShadow_704_391003" result="effect2_dropShadow_704_391003"/>
<feColorMatrix in="SourceAlpha" type="matrix" values="0 0 0 0 0 0 0 0 0 0 0 0 0 0 0 0 0 0 127 0" result="hardAlpha"/>
<feOffset dx="8" dy="7"/>
<feGaussianBlur stdDeviation="5"/>
<feColorMatrix type="matrix" values="0 0 0 0 0.0745098 0 0 0 0 0.12549 0 0 0 0 0.0823529 0 0 0 0.17 0"/>
<feBlend mode="normal" in2="effect2_dropShadow_704_391003" result="effect3_dropShadow_704_391003"/>
<feColorMatrix in="SourceAlpha" type="matrix" values="0 0 0 0 0 0 0 0 0 0 0 0 0 0 0 0 0 0 127 0" result="hardAlpha"/>
<feOffset dx="18" dy="15"/>
<feGaussianBlur stdDeviation="7"/>
<feColorMatrix type="matrix" values="0 0 0 0 0.0745098 0 0 0 0 0.12549 0 0 0 0 0.0823529 0 0 0 0.1 0"/>
<feBlend mode="normal" in2="effect3_dropShadow_704_391003" result="effect4_dropShadow_704_391003"/>
<feColorMatrix in="SourceAlpha" type="matrix" values="0 0 0 0 0 0 0 0 0 0 0 0 0 0 0 0 0 0 127 0" result="hardAlpha"/>
<feOffset dx="33" dy="26"/>
<feGaussianBlur stdDeviation="8.5"/>
<feColorMatrix type="matrix" values="0 0 0 0 0.0745098 0 0 0 0 0.12549 0 0 0 0 0.0823529 0 0 0 0.03 0"/>
<feBlend mode="normal" in2="effect4_dropShadow_704_391003" result="effect5_dropShadow_704_391003"/>
<feBlend mode="normal" in="SourceGraphic" in2="effect5_dropShadow_704_391003" result="shape"/>
</filter>
</defs>
</svg>
