<svg width="893" height="522" viewBox="0 0 893 522" fill="none" xmlns="http://www.w3.org/2000/svg">
<g filter="url(#filter0_ddddd_701_390961)">
<ellipse cx="170" cy="79.5" rx="29" ry="7.5" fill="#DDBA63"/>
<path d="M169.998 8.99915C162.707 9.0078 155.718 11.9079 150.562 17.0633C145.407 22.2186 142.507 29.2083 142.498 36.4991C142.498 60.0294 167.498 77.8029 168.562 78.5475C168.983 78.8415 169.485 78.9991 169.998 78.9991C170.512 78.9991 171.013 78.8415 171.434 78.5475C172.498 77.8029 197.498 60.0294 197.498 36.4991C197.489 29.2083 194.589 22.2186 189.434 17.0633C184.279 11.9079 177.289 9.0078 169.998 8.99915V8.99915ZM170 26.5001C171.978 26.5001 173.911 27.0865 175.556 28.1854C177.2 29.2842 178.482 30.846 179.239 32.6732C179.996 34.5005 180.194 36.5111 179.808 38.451C179.422 40.3908 178.469 42.1726 177.071 43.5711C175.672 44.9696 173.891 45.9221 171.951 46.3079C170.011 46.6938 168 46.4957 166.173 45.7388C164.346 44.982 162.784 43.7002 161.685 42.0558C160.586 40.4113 160 38.4779 160 36.5001C160 35.1868 160.258 33.8864 160.761 32.6732C161.264 31.4599 162 30.3575 162.929 29.4289C163.857 28.5003 164.96 27.7637 166.173 27.2612C167.386 26.7586 168.687 26.5 170 26.5001V26.5001Z" fill="#FFF9DA"/>
<circle cx="170" cy="37" r="17" fill="#C74403"/>
<path d="M172.34 45H169.7V32.184H166.94V30.312C168.044 30.312 168.844 30.168 169.34 29.88C169.852 29.56 170.26 29 170.564 28.2H172.34V45Z" fill="white"/>
</g>
<path d="M237.936 36.5H235.2V19.7H239.544C242.488 19.7 243.96 21.156 243.96 24.068V25.316C243.96 28.228 242.488 29.684 239.544 29.684H237.936V36.5ZM237.936 22.124V27.284H239.544C240.136 27.284 240.56 27.14 240.816 26.852C241.088 26.548 241.224 26.06 241.224 25.388V23.972C241.224 23.3 241.088 22.828 240.816 22.556C240.56 22.268 240.136 22.124 239.544 22.124H237.936ZM254.193 36.5H251.409L250.857 33.236H247.161L246.585 36.5H244.041L247.257 19.7H250.953L254.193 36.5ZM249.009 22.532L247.569 30.86H250.449L249.009 22.532ZM263.052 35.588C262.3 36.356 261.228 36.74 259.836 36.74C258.444 36.74 257.364 36.356 256.596 35.588C255.844 34.804 255.468 33.708 255.468 32.3V23.9C255.468 22.492 255.844 21.404 256.596 20.636C257.364 19.852 258.444 19.46 259.836 19.46C261.228 19.46 262.3 19.852 263.052 20.636C263.804 21.404 264.18 22.492 264.18 23.9V25.388H261.612V23.78C261.612 22.484 261.044 21.836 259.908 21.836C258.772 21.836 258.204 22.484 258.204 23.78V32.42C258.204 33.716 258.772 34.364 259.908 34.364C261.044 34.364 261.612 33.716 261.612 32.42V30.308H264.18V32.3C264.18 33.708 263.804 34.804 263.052 35.588ZM273.506 35.588C272.754 36.356 271.682 36.74 270.29 36.74C268.898 36.74 267.818 36.356 267.05 35.588C266.298 34.804 265.922 33.708 265.922 32.3V23.9C265.922 22.492 266.298 21.404 267.05 20.636C267.818 19.852 268.898 19.46 270.29 19.46C271.682 19.46 272.754 19.852 273.506 20.636C274.258 21.404 274.634 22.492 274.634 23.9V25.388H272.066V23.78C272.066 22.484 271.498 21.836 270.362 21.836C269.226 21.836 268.658 22.484 268.658 23.78V32.42C268.658 33.716 269.226 34.364 270.362 34.364C271.498 34.364 272.066 33.716 272.066 32.42V30.308H274.634V32.3C274.634 33.708 274.258 34.804 273.506 35.588ZM286.287 36.5H283.407L280.743 28.82L279.303 31.196V36.5H276.567V19.7H279.303V27.092L283.455 19.7H286.239L282.591 25.94L286.287 36.5ZM297.272 36.5H294.488L293.936 33.236H290.24L289.664 36.5H287.12L290.336 19.7H294.032L297.272 36.5ZM292.088 22.532L290.648 30.86H293.528L292.088 22.532ZM314.144 36.5H311.408L308.816 28.34L307.496 30.62V36.5H304.76V30.62L303.44 28.34L300.848 36.5H298.088L301.64 25.94L298.136 19.7H300.968L304.76 26.972V19.7H307.496V26.972L311.312 19.7H314.096L310.616 25.964L314.144 36.5ZM318.203 30.932L322.259 19.7H325.043V36.5H322.571V25.22L318.539 36.5H315.755V19.7H318.203V30.932ZM328.674 39.284H327.426L328.506 36.5H327.546V33.62H330.282V36.212L328.674 39.284ZM342.872 25.796V19.7H345.608V36.5H342.872V29.492C342.168 30.212 341.216 30.572 340.016 30.572C337.648 30.572 336.464 29.22 336.464 26.516V19.7H339.176V26.156C339.176 27.452 339.736 28.1 340.856 28.1C341.496 28.1 341.992 27.908 342.344 27.524C342.696 27.124 342.872 26.548 342.872 25.796ZM353.189 36.5H350.477V22.124H347.261V19.7H356.405V22.124H353.189V36.5ZM357.75 32.228V23.972C357.75 22.532 358.134 21.42 358.902 20.636C359.686 19.852 360.798 19.46 362.238 19.46C363.694 19.46 364.806 19.852 365.574 20.636C366.358 21.42 366.75 22.532 366.75 23.972V32.228C366.75 33.668 366.358 34.78 365.574 35.564C364.79 36.348 363.678 36.74 362.238 36.74C360.798 36.74 359.686 36.348 358.902 35.564C358.134 34.78 357.75 33.668 357.75 32.228ZM362.238 34.316C363.422 34.316 364.014 33.668 364.014 32.372V23.828C364.014 22.532 363.422 21.884 362.238 21.884C361.07 21.884 360.486 22.532 360.486 23.828V32.372C360.486 33.668 361.07 34.316 362.238 34.316ZM375.749 36.5H373.013V19.7H375.749V26.636H379.373V19.7H382.109V36.5H379.373V29.06H375.749V36.5ZM384.281 32.228V23.972C384.281 22.532 384.665 21.42 385.433 20.636C386.217 19.852 387.329 19.46 388.769 19.46C390.225 19.46 391.337 19.852 392.105 20.636C392.889 21.42 393.281 22.532 393.281 23.972V32.228C393.281 33.668 392.889 34.78 392.105 35.564C391.321 36.348 390.209 36.74 388.769 36.74C387.329 36.74 386.217 36.348 385.433 35.564C384.665 34.78 384.281 33.668 384.281 32.228ZM388.769 34.316C389.953 34.316 390.545 33.668 390.545 32.372V23.828C390.545 22.532 389.953 21.884 388.769 21.884C387.601 21.884 387.017 22.532 387.017 23.828V32.372C387.017 33.668 387.601 34.316 388.769 34.316ZM400.146 36.5H395.442V19.7H399.906C401.41 19.7 402.514 20.028 403.218 20.684C403.938 21.34 404.298 22.348 404.298 23.708V24.212C404.298 25.924 403.634 27.036 402.306 27.548V27.62C403.826 28.084 404.586 29.324 404.586 31.34V32.204C404.586 35.068 403.106 36.5 400.146 36.5ZM398.178 22.124V26.588H399.546C400.234 26.588 400.738 26.436 401.058 26.132C401.394 25.812 401.562 25.316 401.562 24.644V24.02C401.562 23.348 401.426 22.868 401.154 22.58C400.882 22.276 400.434 22.124 399.81 22.124H398.178ZM398.178 29.012V34.076H400.146C400.738 34.076 401.17 33.932 401.442 33.644C401.714 33.34 401.85 32.852 401.85 32.18V31.244C401.85 30.412 401.69 29.836 401.37 29.516C401.05 29.18 400.49 29.012 399.69 29.012H398.178ZM406.289 32.228V23.972C406.289 22.532 406.673 21.42 407.441 20.636C408.225 19.852 409.337 19.46 410.777 19.46C412.233 19.46 413.345 19.852 414.113 20.636C414.897 21.42 415.289 22.532 415.289 23.972V32.228C415.289 33.668 414.897 34.78 414.113 35.564C413.329 36.348 412.217 36.74 410.777 36.74C409.337 36.74 408.225 36.348 407.441 35.564C406.673 34.78 406.289 33.668 406.289 32.228ZM410.777 34.316C411.961 34.316 412.553 33.668 412.553 32.372V23.828C412.553 22.532 411.961 21.884 410.777 21.884C409.609 21.884 409.025 22.532 409.025 23.828V32.372C409.025 33.668 409.609 34.316 410.777 34.316ZM420.186 36.5H417.45V19.7H424.986V22.124H420.186V36.5ZM426.351 32.228V23.972C426.351 22.532 426.735 21.42 427.503 20.636C428.287 19.852 429.399 19.46 430.839 19.46C432.295 19.46 433.407 19.852 434.175 20.636C434.959 21.42 435.351 22.532 435.351 23.972V32.228C435.351 33.668 434.959 34.78 434.175 35.564C433.391 36.348 432.279 36.74 430.839 36.74C429.399 36.74 428.287 36.348 427.503 35.564C426.735 34.78 426.351 33.668 426.351 32.228ZM430.839 34.316C432.023 34.316 432.615 33.668 432.615 32.372V23.828C432.615 22.532 432.023 21.884 430.839 21.884C429.671 21.884 429.087 22.532 429.087 23.828V32.372C429.087 33.668 429.671 34.316 430.839 34.316ZM240.384 72.5H237.672V58.124H234.456V55.7H243.6V58.124H240.384V72.5ZM249.623 72.5H245.255V55.7H247.991V62.18H249.623C252.567 62.18 254.039 63.66 254.039 66.62V68.06C254.039 71.02 252.567 72.5 249.623 72.5ZM258.599 72.5H255.863V55.7H258.599V72.5ZM247.991 64.604V70.076H249.623C250.199 70.076 250.623 69.932 250.895 69.644C251.167 69.34 251.303 68.86 251.303 68.204V66.476C251.303 65.82 251.167 65.348 250.895 65.06C250.623 64.756 250.199 64.604 249.623 64.604H247.991ZM266.906 72.5H264.314L267.866 63.884L264.458 55.7H267.386L269.546 61.34L271.778 55.7H274.418L271.01 63.884L274.562 72.5H271.658L269.306 66.428L266.906 72.5ZM275.507 68.228V59.972C275.507 58.532 275.891 57.42 276.659 56.636C277.443 55.852 278.555 55.46 279.995 55.46C281.451 55.46 282.563 55.852 283.331 56.636C284.115 57.42 284.507 58.532 284.507 59.972V68.228C284.507 69.668 284.115 70.78 283.331 71.564C282.547 72.348 281.435 72.74 279.995 72.74C278.555 72.74 277.443 72.348 276.659 71.564C275.891 70.78 275.507 69.668 275.507 68.228ZM279.995 70.316C281.179 70.316 281.771 69.668 281.771 68.372V59.828C281.771 58.532 281.179 57.884 279.995 57.884C278.827 57.884 278.243 58.532 278.243 59.828V68.372C278.243 69.668 278.827 70.316 279.995 70.316ZM291.759 72.5H289.047V58.124H285.831V55.7H294.975V58.124H291.759V72.5ZM304.694 72.5H296.63V55.7H304.694V58.124H299.366V62.636H303.638V65.06H299.366V70.076H304.694V72.5ZM306.545 72.524C306.209 72.524 305.945 72.492 305.753 72.428V70.052C305.945 70.1 306.129 70.124 306.305 70.124C306.897 70.124 307.305 69.98 307.529 69.692C307.769 69.388 307.905 68.868 307.937 68.132L308.441 55.7H316.649V72.5H313.937V58.124H311.009L310.649 68.204C310.601 69.708 310.257 70.804 309.617 71.492C308.977 72.18 307.953 72.524 306.545 72.524ZM327.721 72.5H323.161V55.7H331.009V58.124H325.897V62.3H327.721C330.665 62.3 332.137 63.78 332.137 66.74V68.06C332.137 71.02 330.665 72.5 327.721 72.5ZM325.897 64.724V70.076H327.721C328.297 70.076 328.721 69.932 328.993 69.644C329.265 69.34 329.401 68.86 329.401 68.204V66.596C329.401 65.94 329.265 65.468 328.993 65.18C328.721 64.876 328.297 64.724 327.721 64.724H325.897ZM338.31 72.5H333.942V55.7H336.678V62.18H338.31C341.254 62.18 342.726 63.66 342.726 66.62V68.06C342.726 71.02 341.254 72.5 338.31 72.5ZM347.286 72.5H344.55V55.7H347.286V72.5ZM336.678 64.604V70.076H338.31C338.886 70.076 339.31 69.932 339.582 69.644C339.854 69.34 339.99 68.86 339.99 68.204V66.476C339.99 65.82 339.854 65.348 339.582 65.06C339.31 64.756 338.886 64.604 338.31 64.604H336.678ZM361.162 71.588C360.41 72.356 359.338 72.74 357.946 72.74C356.554 72.74 355.474 72.356 354.706 71.588C353.954 70.804 353.578 69.708 353.578 68.3V59.9C353.578 58.492 353.954 57.404 354.706 56.636C355.474 55.852 356.554 55.46 357.946 55.46C359.338 55.46 360.41 55.852 361.162 56.636C361.914 57.404 362.29 58.492 362.29 59.9V61.388H359.722V59.78C359.722 58.484 359.154 57.836 358.018 57.836C356.882 57.836 356.314 58.484 356.314 59.78V68.42C356.314 69.716 356.882 70.364 358.018 70.364C359.154 70.364 359.722 69.716 359.722 68.42V66.308H362.29V68.3C362.29 69.708 361.914 70.804 361.162 71.588ZM372.287 72.5H364.223V55.7H372.287V58.124H366.959V62.636H371.231V65.06H366.959V70.076H372.287V72.5ZM378.651 72.5H374.091V55.7H381.939V58.124H376.827V62.3H378.651C381.595 62.3 383.067 63.78 383.067 66.74V68.06C383.067 71.02 381.595 72.5 378.651 72.5ZM376.827 64.724V70.076H378.651C379.227 70.076 379.651 69.932 379.923 69.644C380.195 69.34 380.331 68.86 380.331 68.204V66.596C380.331 65.94 380.195 65.468 379.923 65.18C379.651 64.876 379.227 64.724 378.651 64.724H376.827ZM393.512 55.7V72.5H390.776V65.396H389.528C388.76 65.396 388.216 65.564 387.896 65.9C387.592 66.236 387.44 66.82 387.44 67.652V70.292C387.44 71.236 387.352 71.972 387.176 72.5H384.416C384.624 71.988 384.728 71.26 384.728 70.316V67.82C384.728 66.716 384.888 65.868 385.208 65.276C385.528 64.668 386.048 64.26 386.768 64.052V63.98C385.424 63.484 384.752 62.34 384.752 60.548V59.732C384.752 58.356 385.104 57.34 385.808 56.684C386.528 56.028 387.64 55.7 389.144 55.7H393.512ZM389.48 62.972H390.776V58.124H389.192C388.6 58.124 388.168 58.276 387.896 58.58C387.624 58.884 387.488 59.364 387.488 60.02V60.98C387.488 61.684 387.648 62.196 387.968 62.516C388.288 62.82 388.792 62.972 389.48 62.972ZM403.898 68.228V59.972C403.898 58.532 404.282 57.42 405.05 56.636C405.834 55.852 406.946 55.46 408.386 55.46C409.842 55.46 410.954 55.852 411.722 56.636C412.506 57.42 412.898 58.532 412.898 59.972V68.228C412.898 69.668 412.506 70.78 411.722 71.564C410.938 72.348 409.826 72.74 408.386 72.74C406.946 72.74 405.834 72.348 405.05 71.564C404.282 70.78 403.898 69.668 403.898 68.228ZM408.386 70.316C409.57 70.316 410.162 69.668 410.162 68.372V59.828C410.162 58.532 409.57 57.884 408.386 57.884C407.218 57.884 406.634 58.532 406.634 59.828V68.372C406.634 69.668 407.218 70.316 408.386 70.316ZM420.15 72.5H417.438V58.124H414.222V55.7H423.366V58.124H420.15V72.5ZM434.74 72.5H431.86L429.196 64.82L427.756 67.196V72.5H425.02V55.7H427.756V63.092L431.908 55.7H434.692L431.044 61.94L434.74 72.5ZM439.077 72.5H436.341V55.7H440.685C443.629 55.7 445.101 57.156 445.101 60.068V61.316C445.101 64.228 443.629 65.684 440.685 65.684H439.077V72.5ZM439.077 58.124V63.284H440.685C441.277 63.284 441.701 63.14 441.957 62.852C442.229 62.548 442.365 62.06 442.365 61.388V59.972C442.365 59.3 442.229 58.828 441.957 58.556C441.701 58.268 441.277 58.124 440.685 58.124H439.077ZM451.279 72.5H446.911V55.7H449.647V62.18H451.279C454.223 62.18 455.695 63.66 455.695 66.62V68.06C455.695 71.02 454.223 72.5 451.279 72.5ZM460.255 72.5H457.519V55.7H460.255V72.5ZM449.647 64.604V70.076H451.279C451.855 70.076 452.279 69.932 452.551 69.644C452.823 69.34 452.959 68.86 452.959 68.204V66.476C452.959 65.82 452.823 65.348 452.551 65.06C452.279 64.756 451.855 64.604 451.279 64.604H449.647ZM467.845 72.5H465.133V58.124H461.917V55.7H471.061V58.124H467.845V72.5ZM477.084 72.5H472.716V55.7H475.452V62.18H477.084C480.028 62.18 481.5 63.66 481.5 66.62V68.06C481.5 71.02 480.028 72.5 477.084 72.5ZM475.452 64.604V70.076H477.084C477.66 70.076 478.084 69.932 478.356 69.644C478.628 69.34 478.764 68.86 478.764 68.204V66.476C478.764 65.82 478.628 65.348 478.356 65.06C478.084 64.756 477.66 64.604 477.084 64.604H475.452Z" fill="white"/>
<path opacity="0.4" d="M530 37.0001C570.457 28.0552 676 21.5 640 60C604 98.5 572.5 76.5 572.5 127" stroke="#FFF8D9" stroke-width="2" stroke-linecap="round" stroke-dasharray="6 6"/>
<g filter="url(#filter1_ddddd_701_390961)">
<ellipse cx="44" cy="388.5" rx="29" ry="7.5" fill="#DDBA63"/>
<path d="M43.998 317.999C36.7072 318.008 29.7175 320.908 24.5622 326.063C19.4068 331.219 16.5067 338.208 16.498 345.499C16.498 369.029 41.498 386.803 42.5625 387.547C42.9835 387.841 43.4846 387.999 43.998 387.999C44.5115 387.999 45.0126 387.841 45.4336 387.547C46.498 386.803 71.498 369.029 71.498 345.499C71.4894 338.208 68.5893 331.219 63.4339 326.063C58.2786 320.908 51.2888 318.008 43.998 317.999V317.999ZM43.9999 335.5C45.9777 335.5 47.9111 336.087 49.5556 337.185C51.2001 338.284 52.4818 339.846 53.2387 341.673C53.9956 343.5 54.1936 345.511 53.8077 347.451C53.4219 349.391 52.4695 351.173 51.0709 352.571C49.6724 353.97 47.8906 354.922 45.9508 355.308C44.011 355.694 42.0003 355.496 40.173 354.739C38.3458 353.982 36.784 352.7 35.6852 351.056C34.5864 349.411 33.9999 347.478 33.9999 345.5C33.9998 344.187 34.2585 342.886 34.761 341.673C35.2635 340.46 36.0001 339.357 36.9287 338.429C37.8573 337.5 38.9597 336.764 40.173 336.261C41.3863 335.759 42.6866 335.5 43.9999 335.5V335.5Z" fill="#FFF9DA"/>
<circle cx="44" cy="346" r="17" fill="#C74403"/>
<path d="M39.9917 350.064V348.696H42.4877V350.184C42.4877 351.288 42.9437 351.84 43.8557 351.84C44.3197 351.84 44.6637 351.696 44.8877 351.408C45.1117 351.12 45.2237 350.632 45.2237 349.944V348.576C45.2237 347.808 45.0877 347.264 44.8157 346.944C44.5437 346.608 44.1037 346.44 43.4957 346.44H42.6077V344.04H43.5677C44.1117 344.04 44.5117 343.904 44.7677 343.632C45.0237 343.344 45.1517 342.888 45.1517 342.264V341.04C45.1517 339.92 44.7117 339.36 43.8317 339.36C42.9837 339.36 42.5597 339.88 42.5597 340.92V342.024H40.0637V341.136C40.0637 339.792 40.3917 338.76 41.0477 338.04C41.7197 337.32 42.6797 336.96 43.9277 336.96C45.1917 336.96 46.1517 337.32 46.8077 338.04C47.4637 338.744 47.7917 339.768 47.7917 341.112V341.712C47.7917 343.504 47.1677 344.632 45.9197 345.096V345.144C47.2157 345.624 47.8637 346.776 47.8637 348.6V350.088C47.8637 351.432 47.5277 352.464 46.8557 353.184C46.1997 353.888 45.2237 354.24 43.9277 354.24C42.6317 354.24 41.6477 353.88 40.9757 353.16C40.3197 352.44 39.9917 351.408 39.9917 350.064Z" fill="white"/>
</g>
<path d="M113.688 337.772L115.848 328.7H118.464L114.84 342.644C114.552 343.748 114.096 344.54 113.472 345.02C112.848 345.5 111.968 345.74 110.832 345.74C110.176 345.74 109.624 345.652 109.176 345.476V343.124C109.56 343.252 109.976 343.316 110.424 343.316C110.936 343.316 111.32 343.244 111.576 343.1C111.832 342.94 112.024 342.668 112.152 342.284L112.272 341.852L108.48 328.7H111.312L113.688 337.772ZM125.981 334.796V328.7H128.717V345.5H125.981V338.492C125.277 339.212 124.325 339.572 123.125 339.572C120.757 339.572 119.573 338.22 119.573 335.516V328.7H122.285V335.156C122.285 336.452 122.845 337.1 123.965 337.1C124.605 337.1 125.101 336.908 125.453 336.524C125.805 336.124 125.981 335.548 125.981 334.796ZM140.498 345.5H137.714L137.162 342.236H133.466L132.89 345.5H130.346L133.562 328.7H137.258L140.498 345.5ZM135.314 331.532L133.874 339.86H136.754L135.314 331.532ZM149.357 344.588C148.605 345.356 147.533 345.74 146.141 345.74C144.749 345.74 143.669 345.356 142.901 344.588C142.149 343.804 141.773 342.708 141.773 341.3V332.9C141.773 331.492 142.149 330.404 142.901 329.636C143.669 328.852 144.749 328.46 146.141 328.46C147.533 328.46 148.605 328.852 149.357 329.636C150.109 330.404 150.485 331.492 150.485 332.9V334.388H147.917V332.78C147.917 331.484 147.349 330.836 146.213 330.836C145.077 330.836 144.509 331.484 144.509 332.78V341.42C144.509 342.716 145.077 343.364 146.213 343.364C147.349 343.364 147.917 342.716 147.917 341.42V339.308H150.485V341.3C150.485 342.708 150.109 343.804 149.357 344.588ZM157.603 345.5H154.891V331.124H151.675V328.7H160.819V331.124H157.603V345.5ZM167.177 345.5H162.473V328.7H166.937C168.441 328.7 169.545 329.028 170.249 329.684C170.969 330.34 171.329 331.348 171.329 332.708V333.212C171.329 334.924 170.665 336.036 169.337 336.548V336.62C170.857 337.084 171.617 338.324 171.617 340.34V341.204C171.617 344.068 170.137 345.5 167.177 345.5ZM165.209 331.124V335.588H166.577C167.265 335.588 167.769 335.436 168.089 335.132C168.425 334.812 168.593 334.316 168.593 333.644V333.02C168.593 332.348 168.457 331.868 168.185 331.58C167.913 331.276 167.465 331.124 166.841 331.124H165.209ZM165.209 338.012V343.076H167.177C167.769 343.076 168.201 342.932 168.473 342.644C168.745 342.34 168.881 341.852 168.881 341.18V340.244C168.881 339.412 168.721 338.836 168.401 338.516C168.081 338.18 167.521 338.012 166.721 338.012H165.209ZM177.954 337.772L180.114 328.7H182.73L179.106 342.644C178.818 343.748 178.362 344.54 177.738 345.02C177.114 345.5 176.234 345.74 175.098 345.74C174.442 345.74 173.89 345.652 173.442 345.476V343.124C173.826 343.252 174.242 343.316 174.69 343.316C175.202 343.316 175.586 343.244 175.842 343.1C176.098 342.94 176.29 342.668 176.418 342.284L176.538 341.852L172.746 328.7H175.578L177.954 337.772ZM188.879 327.332C187.935 327.332 187.191 327.068 186.647 326.54C186.103 325.996 185.815 325.26 185.783 324.332H187.439C187.519 325.132 187.999 325.532 188.879 325.532C189.759 325.532 190.263 325.132 190.391 324.332H191.999C191.967 325.26 191.679 325.996 191.135 326.54C190.591 327.068 189.839 327.332 188.879 327.332ZM186.695 339.932L190.751 328.7H193.535V345.5H191.063V334.22L187.031 345.5H184.247V328.7H186.695V339.932ZM204.748 345.5H200.044V328.7H204.508C206.012 328.7 207.116 329.028 207.82 329.684C208.54 330.34 208.9 331.348 208.9 332.708V333.212C208.9 334.924 208.236 336.036 206.908 336.548V336.62C208.428 337.084 209.188 338.324 209.188 340.34V341.204C209.188 344.068 207.708 345.5 204.748 345.5ZM202.78 331.124V335.588H204.148C204.836 335.588 205.34 335.436 205.66 335.132C205.996 334.812 206.164 334.316 206.164 333.644V333.02C206.164 332.348 206.028 331.868 205.756 331.58C205.484 331.276 205.036 331.124 204.412 331.124H202.78ZM202.78 338.012V343.076H204.748C205.34 343.076 205.772 342.932 206.044 342.644C206.316 342.34 206.452 341.852 206.452 341.18V340.244C206.452 339.412 206.292 338.836 205.972 338.516C205.652 338.18 205.092 338.012 204.292 338.012H202.78ZM217.944 345.5H215.208V328.7H219.552C222.496 328.7 223.968 330.156 223.968 333.068V334.316C223.968 337.228 222.496 338.684 219.552 338.684H217.944V345.5ZM217.944 331.124V336.284H219.552C220.144 336.284 220.568 336.14 220.824 335.852C221.096 335.548 221.232 335.06 221.232 334.388V332.972C221.232 332.3 221.096 331.828 220.824 331.556C220.568 331.268 220.144 331.124 219.552 331.124H217.944ZM225.562 341.228V332.972C225.562 331.532 225.946 330.42 226.714 329.636C227.498 328.852 228.61 328.46 230.05 328.46C231.506 328.46 232.618 328.852 233.386 329.636C234.17 330.42 234.562 331.532 234.562 332.972V341.228C234.562 342.668 234.17 343.78 233.386 344.564C232.602 345.348 231.49 345.74 230.05 345.74C228.61 345.74 227.498 345.348 226.714 344.564C225.946 343.78 225.562 342.668 225.562 341.228ZM230.05 343.316C231.234 343.316 231.826 342.668 231.826 341.372V332.828C231.826 331.532 231.234 330.884 230.05 330.884C228.882 330.884 228.298 331.532 228.298 332.828V341.372C228.298 342.668 228.882 343.316 230.05 343.316ZM240.587 345.74C239.147 345.74 238.051 345.364 237.299 344.612C236.547 343.844 236.171 342.74 236.171 341.3V340.172H238.739V341.348C238.739 342.66 239.331 343.316 240.515 343.316C241.139 343.316 241.587 343.156 241.859 342.836C242.147 342.5 242.291 341.956 242.291 341.204V340.292C242.291 339.46 242.123 338.868 241.787 338.516C241.467 338.148 240.931 337.964 240.179 337.964H239.147V335.54H240.251C241.563 335.54 242.219 334.86 242.219 333.5V332.756C242.219 331.508 241.651 330.884 240.515 330.884C239.395 330.884 238.835 331.484 238.835 332.684V333.524H236.267V332.9C236.267 331.46 236.635 330.364 237.371 329.612C238.107 328.844 239.187 328.46 240.611 328.46C242.019 328.46 243.091 328.828 243.827 329.564C244.563 330.3 244.931 331.364 244.931 332.756V333.212C244.931 334.956 244.219 336.084 242.795 336.596V336.62C244.267 337.132 245.003 338.364 245.003 340.316V341.276C245.003 344.252 243.531 345.74 240.587 345.74ZM251.357 345.5H246.989V328.7H249.725V335.18H251.357C254.301 335.18 255.773 336.66 255.773 339.62V341.06C255.773 344.02 254.301 345.5 251.357 345.5ZM260.333 345.5H257.597V328.7H260.333V345.5ZM249.725 337.604V343.076H251.357C251.933 343.076 252.357 342.932 252.629 342.644C252.901 342.34 253.037 341.86 253.037 341.204V339.476C253.037 338.82 252.901 338.348 252.629 338.06C252.357 337.756 251.933 337.604 251.357 337.604H249.725ZM265.475 345.5H262.739V328.7H270.275V331.124H265.475V345.5ZM274.686 345.5H271.95V328.7H276.294C279.238 328.7 280.71 330.156 280.71 333.068V334.316C280.71 337.228 279.238 338.684 276.294 338.684H274.686V345.5ZM274.686 331.124V336.284H276.294C276.886 336.284 277.31 336.14 277.566 335.852C277.838 335.548 277.974 335.06 277.974 334.388V332.972C277.974 332.3 277.838 331.828 277.566 331.556C277.31 331.268 276.886 331.124 276.294 331.124H274.686ZM286.888 345.5H282.52V328.7H285.256V335.18H286.888C289.832 335.18 291.304 336.66 291.304 339.62V341.06C291.304 344.02 289.832 345.5 286.888 345.5ZM295.864 345.5H293.128V328.7H295.864V345.5ZM285.256 337.604V343.076H286.888C287.464 343.076 287.888 342.932 288.16 342.644C288.432 342.34 288.568 341.86 288.568 341.204V339.476C288.568 338.82 288.432 338.348 288.16 338.06C287.888 337.756 287.464 337.604 286.888 337.604H285.256ZM312.142 345.5H298.27V328.7H301.006V343.076H303.862V328.7H306.574V343.076H309.406V328.7H312.142V345.5ZM322.6 345.5H314.536V328.7H322.6V331.124H317.272V335.636H321.544V338.06H317.272V343.076H322.6V345.5ZM331.241 345.5H328.505V328.7H337.601V345.5H334.865V331.124H331.241V345.5ZM342.725 345.5H339.989V328.7H344.333C347.277 328.7 348.749 330.156 348.749 333.068V334.316C348.749 337.228 347.277 338.684 344.333 338.684H342.725V345.5ZM342.725 331.124V336.284H344.333C344.925 336.284 345.349 336.14 345.605 335.852C345.877 335.548 346.013 335.06 346.013 334.388V332.972C346.013 332.3 345.877 331.828 345.605 331.556C345.349 331.268 344.925 331.124 344.333 331.124H342.725ZM353.007 339.932L357.063 328.7H359.847V345.5H357.375V334.22L353.343 345.5H350.559V328.7H353.007V339.932ZM366.119 345.74C364.679 345.74 363.583 345.364 362.831 344.612C362.079 343.844 361.703 342.74 361.703 341.3V340.172H364.271V341.348C364.271 342.66 364.863 343.316 366.047 343.316C366.671 343.316 367.119 343.156 367.391 342.836C367.679 342.5 367.823 341.956 367.823 341.204V340.292C367.823 339.46 367.655 338.868 367.319 338.516C366.999 338.148 366.463 337.964 365.711 337.964H364.679V335.54H365.783C367.095 335.54 367.751 334.86 367.751 333.5V332.756C367.751 331.508 367.183 330.884 366.047 330.884C364.927 330.884 364.367 331.484 364.367 332.684V333.524H361.799V332.9C361.799 331.46 362.167 330.364 362.903 329.612C363.639 328.844 364.719 328.46 366.143 328.46C367.551 328.46 368.623 328.828 369.359 329.564C370.095 330.3 370.463 331.364 370.463 332.756V333.212C370.463 334.956 369.751 336.084 368.327 336.596V336.62C369.799 337.132 370.535 338.364 370.535 340.316V341.276C370.535 344.252 369.063 345.74 366.119 345.74ZM372.304 341.228V332.972C372.304 331.532 372.688 330.42 373.456 329.636C374.24 328.852 375.352 328.46 376.792 328.46C378.248 328.46 379.36 328.852 380.128 329.636C380.912 330.42 381.304 331.532 381.304 332.972V341.228C381.304 342.668 380.912 343.78 380.128 344.564C379.344 345.348 378.232 345.74 376.792 345.74C375.352 345.74 374.24 345.348 373.456 344.564C372.688 343.78 372.304 342.668 372.304 341.228ZM376.792 343.316C377.976 343.316 378.568 342.668 378.568 341.372V332.828C378.568 331.532 377.976 330.884 376.792 330.884C375.624 330.884 375.04 331.532 375.04 332.828V341.372C375.04 342.668 375.624 343.316 376.792 343.316ZM388.17 345.5H383.466V328.7H387.93C389.434 328.7 390.538 329.028 391.242 329.684C391.962 330.34 392.322 331.348 392.322 332.708V333.212C392.322 334.924 391.658 336.036 390.33 336.548V336.62C391.85 337.084 392.61 338.324 392.61 340.34V341.204C392.61 344.068 391.13 345.5 388.17 345.5ZM386.202 331.124V335.588H387.57C388.258 335.588 388.762 335.436 389.082 335.132C389.418 334.812 389.586 334.316 389.586 333.644V333.02C389.586 332.348 389.45 331.868 389.178 331.58C388.906 331.276 388.458 331.124 387.834 331.124H386.202ZM386.202 338.012V343.076H388.17C388.762 343.076 389.194 342.932 389.466 342.644C389.738 342.34 389.874 341.852 389.874 341.18V340.244C389.874 339.412 389.714 338.836 389.394 338.516C389.074 338.18 388.514 338.012 387.714 338.012H386.202ZM119.352 364.7V379.076H120.792V383.756H118.056V381.5H111.168V383.756H108.456V379.076H110.016C110.368 378.724 110.568 378.068 110.616 377.108L111.12 364.7H119.352ZM112.608 379.076H116.616V367.124H113.688L113.352 376.964C113.32 377.828 113.072 378.532 112.608 379.076ZM122.467 381.524C122.131 381.524 121.867 381.492 121.675 381.428V379.052C121.867 379.1 122.051 379.124 122.227 379.124C122.819 379.124 123.227 378.98 123.451 378.692C123.691 378.388 123.827 377.868 123.859 377.132L124.363 364.7H132.571V381.5H129.859V367.124H126.931L126.571 377.204C126.523 378.708 126.179 379.804 125.539 380.492C124.899 381.18 123.875 381.524 122.467 381.524ZM143.621 364.7V381.5H140.885V374.396H139.637C138.869 374.396 138.325 374.564 138.005 374.9C137.701 375.236 137.549 375.82 137.549 376.652V379.292C137.549 380.236 137.461 380.972 137.285 381.5H134.525C134.733 380.988 134.837 380.26 134.837 379.316V376.82C134.837 375.716 134.997 374.868 135.317 374.276C135.637 373.668 136.157 373.26 136.877 373.052V372.98C135.533 372.484 134.861 371.34 134.861 369.548V368.732C134.861 367.356 135.213 366.34 135.917 365.684C136.637 365.028 137.749 364.7 139.253 364.7H143.621ZM139.589 371.972H140.885V367.124H139.301C138.709 367.124 138.277 367.276 138.005 367.58C137.733 367.884 137.597 368.364 137.597 369.02V369.98C137.597 370.684 137.757 371.196 138.077 371.516C138.397 371.82 138.901 371.972 139.589 371.972ZM152.858 381.5H150.122V364.7H154.466C157.41 364.7 158.882 366.156 158.882 369.068V370.316C158.882 373.228 157.41 374.684 154.466 374.684H152.858V381.5ZM152.858 367.124V372.284H154.466C155.058 372.284 155.482 372.14 155.738 371.852C156.01 371.548 156.146 371.06 156.146 370.388V368.972C156.146 368.3 156.01 367.828 155.738 367.556C155.482 367.268 155.058 367.124 154.466 367.124H152.858ZM168.756 381.5H160.692V364.7H168.756V367.124H163.428V371.636H167.7V374.06H163.428V379.076H168.756V381.5ZM179.99 381.5H177.206L176.654 378.236H172.958L172.382 381.5H169.838L173.054 364.7H176.75L179.99 381.5ZM174.806 367.532L173.366 375.86H176.246L174.806 367.532ZM181.74 381.524C181.404 381.524 181.14 381.492 180.948 381.428V379.052C181.14 379.1 181.324 379.124 181.5 379.124C182.092 379.124 182.5 378.98 182.724 378.692C182.964 378.388 183.1 377.868 183.132 377.132L183.636 364.7H191.844V381.5H189.132V367.124H186.204L185.844 377.204C185.796 378.708 185.452 379.804 184.812 380.492C184.172 381.18 183.148 381.524 181.74 381.524ZM196.703 375.932L200.759 364.7H203.543V381.5H201.071V370.22L197.039 381.5H194.255V364.7H196.703V375.932ZM209.814 381.74C208.374 381.74 207.278 381.364 206.526 380.612C205.774 379.844 205.398 378.74 205.398 377.3V376.172H207.966V377.348C207.966 378.66 208.558 379.316 209.742 379.316C210.366 379.316 210.814 379.156 211.086 378.836C211.374 378.5 211.518 377.956 211.518 377.204V376.292C211.518 375.46 211.35 374.868 211.014 374.516C210.694 374.148 210.158 373.964 209.406 373.964H208.374V371.54H209.478C210.79 371.54 211.446 370.86 211.446 369.5V368.756C211.446 367.508 210.878 366.884 209.742 366.884C208.622 366.884 208.062 367.484 208.062 368.684V369.524H205.494V368.9C205.494 367.46 205.862 366.364 206.598 365.612C207.334 364.844 208.414 364.46 209.838 364.46C211.246 364.46 212.318 364.828 213.054 365.564C213.79 366.3 214.158 367.364 214.158 368.756V369.212C214.158 370.956 213.446 372.084 212.022 372.596V372.62C213.494 373.132 214.23 374.364 214.23 376.316V377.276C214.23 380.252 212.758 381.74 209.814 381.74ZM225.412 381.5H222.628L222.076 378.236H218.38L217.804 381.5H215.26L218.476 364.7H222.172L225.412 381.5ZM220.228 367.532L218.788 375.86H221.668L220.228 367.532ZM237.7 383.756H234.964V381.5H227.02V364.7H229.756V379.076H233.38V364.7H236.116V379.076H237.7V383.756ZM241.773 375.932L245.829 364.7H248.613V381.5H246.141V370.22L242.109 381.5H239.325V364.7H241.773V375.932ZM253.468 375.932L257.524 364.7H260.308V381.5H257.836V370.22L253.804 381.5H251.02V364.7H253.468V375.932ZM274.185 380.588C273.433 381.356 272.361 381.74 270.969 381.74C269.577 381.74 268.497 381.356 267.729 380.588C266.977 379.804 266.601 378.708 266.601 377.3V368.9C266.601 367.492 266.977 366.404 267.729 365.636C268.497 364.852 269.577 364.46 270.969 364.46C272.361 364.46 273.433 364.852 274.185 365.636C274.937 366.404 275.313 367.492 275.313 368.9V370.388H272.745V368.78C272.745 367.484 272.177 366.836 271.041 366.836C269.905 366.836 269.337 367.484 269.337 368.78V377.42C269.337 378.716 269.905 379.364 271.041 379.364C272.177 379.364 272.745 378.716 272.745 377.42V375.308H275.313V377.3C275.313 378.708 274.937 379.804 274.185 380.588ZM281.951 381.5H277.247V364.7H281.711C283.215 364.7 284.319 365.028 285.023 365.684C285.743 366.34 286.103 367.348 286.103 368.708V369.212C286.103 370.924 285.439 372.036 284.111 372.548V372.62C285.631 373.084 286.391 374.324 286.391 376.34V377.204C286.391 380.068 284.911 381.5 281.951 381.5ZM279.983 367.124V371.588H281.351C282.039 371.588 282.543 371.436 282.863 371.132C283.199 370.812 283.367 370.316 283.367 369.644V369.02C283.367 368.348 283.231 367.868 282.959 367.58C282.687 367.276 282.239 367.124 281.615 367.124H279.983ZM279.983 374.012V379.076H281.951C282.543 379.076 282.975 378.932 283.247 378.644C283.519 378.34 283.655 377.852 283.655 377.18V376.244C283.655 375.412 283.495 374.836 283.175 374.516C282.855 374.18 282.295 374.012 281.495 374.012H279.983ZM288.093 377.228V368.972C288.093 367.532 288.477 366.42 289.245 365.636C290.029 364.852 291.141 364.46 292.581 364.46C294.037 364.46 295.149 364.852 295.917 365.636C296.701 366.42 297.093 367.532 297.093 368.972V377.228C297.093 378.668 296.701 379.78 295.917 380.564C295.133 381.348 294.021 381.74 292.581 381.74C291.141 381.74 290.029 381.348 289.245 380.564C288.477 379.78 288.093 378.668 288.093 377.228ZM292.581 379.316C293.765 379.316 294.357 378.668 294.357 377.372V368.828C294.357 367.532 293.765 366.884 292.581 366.884C291.413 366.884 290.829 367.532 290.829 368.828V377.372C290.829 378.668 291.413 379.316 292.581 379.316ZM301.703 375.932L305.759 364.7H308.543V381.5H306.071V370.22L302.039 381.5H299.255V364.7H301.703V375.932ZM312.75 381.5H310.158L313.71 372.884L310.302 364.7H313.23L315.39 370.34L317.622 364.7H320.262L316.854 372.884L320.406 381.5H317.502L315.15 375.428L312.75 381.5ZM328.562 375.932L332.618 364.7H335.402V381.5H332.93V370.22L328.898 381.5H326.114V364.7H328.562V375.932ZM347.961 364.7V379.076H349.401V383.756H346.665V381.5H339.777V383.756H337.065V379.076H338.625C338.977 378.724 339.177 378.068 339.225 377.108L339.729 364.7H347.961ZM341.217 379.076H345.225V367.124H342.297L341.961 376.964C341.929 377.828 341.681 378.532 341.217 379.076ZM359.092 381.5H351.028V364.7H359.092V367.124H353.764V371.636H358.036V374.06H353.764V379.076H359.092V381.5ZM365.527 363.332C364.583 363.332 363.839 363.068 363.295 362.54C362.751 361.996 362.463 361.26 362.431 360.332H364.087C364.167 361.132 364.647 361.532 365.527 361.532C366.407 361.532 366.911 361.132 367.039 360.332H368.647C368.615 361.26 368.327 361.996 367.783 362.54C367.239 363.068 366.487 363.332 365.527 363.332ZM363.343 375.932L367.399 364.7H370.183V381.5H367.711V370.22L363.679 381.5H360.895V364.7H363.343V375.932Z" fill="white"/>
<g filter="url(#filter2_ddddd_701_390961)">
<ellipse cx="568" cy="215.5" rx="29" ry="7.5" fill="#DDBA63"/>
<path d="M567.998 144.999C560.707 145.008 553.718 147.908 548.562 153.063C543.407 158.219 540.507 165.208 540.498 172.499C540.498 196.029 565.498 213.803 566.562 214.547C566.983 214.841 567.485 214.999 567.998 214.999C568.512 214.999 569.013 214.841 569.434 214.547C570.498 213.803 595.498 196.029 595.498 172.499C595.489 165.208 592.589 158.219 587.434 153.063C582.279 147.908 575.289 145.008 567.998 144.999V144.999ZM568 162.5C569.978 162.5 571.911 163.087 573.556 164.185C575.2 165.284 576.482 166.846 577.239 168.673C577.996 170.5 578.194 172.511 577.808 174.451C577.422 176.391 576.469 178.173 575.071 179.571C573.672 180.97 571.891 181.922 569.951 182.308C568.011 182.694 566 182.496 564.173 181.739C562.346 180.982 560.784 179.7 559.685 178.056C558.586 176.411 558 174.478 558 172.5C558 171.187 558.258 169.886 558.761 168.673C559.264 167.46 560 166.357 560.929 165.429C561.857 164.5 562.96 163.764 564.173 163.261C565.386 162.759 566.687 162.5 568 162.5V162.5Z" fill="#FFF9DA"/>
<circle cx="568" cy="173" r="17" fill="#C74403"/>
<path d="M571.755 181H564.123V179.176C564.123 177.928 564.315 176.864 564.699 175.984C565.083 175.104 565.771 174.144 566.763 173.104C567.787 172 568.467 171.128 568.803 170.488C569.171 169.784 569.355 169.048 569.355 168.28C569.355 167.576 569.243 167.08 569.019 166.792C568.795 166.504 568.451 166.36 567.987 166.36C567.075 166.36 566.619 166.912 566.619 168.016V169.816H564.123V168.184C564.123 166.824 564.459 165.784 565.131 165.064C565.803 164.328 566.779 163.96 568.059 163.96C569.339 163.96 570.315 164.328 570.987 165.064C571.659 165.784 571.995 166.824 571.995 168.184C571.995 169.224 571.747 170.216 571.251 171.16C570.755 172.136 569.915 173.248 568.731 174.496C567.963 175.312 567.435 175.984 567.147 176.512C566.875 177.04 566.739 177.616 566.739 178.24V178.6H571.755V181Z" fill="white"/>
</g>
<path d="M635.936 172.5H633.2V155.7H642.296V172.5H639.56V158.124H635.936V172.5ZM644.468 168.228V159.972C644.468 158.532 644.852 157.42 645.62 156.636C646.404 155.852 647.516 155.46 648.956 155.46C650.412 155.46 651.524 155.852 652.292 156.636C653.076 157.42 653.468 158.532 653.468 159.972V168.228C653.468 169.668 653.076 170.78 652.292 171.564C651.508 172.348 650.396 172.74 648.956 172.74C647.516 172.74 646.404 172.348 645.62 171.564C644.852 170.78 644.468 169.668 644.468 168.228ZM648.956 170.316C650.14 170.316 650.732 169.668 650.732 168.372V159.828C650.732 158.532 650.14 157.884 648.956 157.884C647.788 157.884 647.204 158.532 647.204 159.828V168.372C647.204 169.668 647.788 170.316 648.956 170.316ZM659.494 172.74C658.054 172.74 656.958 172.364 656.206 171.612C655.454 170.844 655.078 169.74 655.078 168.3V167.172H657.646V168.348C657.646 169.66 658.238 170.316 659.422 170.316C660.046 170.316 660.494 170.156 660.766 169.836C661.054 169.5 661.198 168.956 661.198 168.204V167.292C661.198 166.46 661.03 165.868 660.694 165.516C660.374 165.148 659.838 164.964 659.086 164.964H658.054V162.54H659.158C660.47 162.54 661.126 161.86 661.126 160.5V159.756C661.126 158.508 660.558 157.884 659.422 157.884C658.302 157.884 657.742 158.484 657.742 159.684V160.524H655.174V159.9C655.174 158.46 655.542 157.364 656.278 156.612C657.014 155.844 658.094 155.46 659.518 155.46C660.926 155.46 661.998 155.828 662.734 156.564C663.47 157.3 663.838 158.364 663.838 159.756V160.212C663.838 161.956 663.126 163.084 661.702 163.596V163.62C663.174 164.132 663.91 165.364 663.91 167.316V168.276C663.91 171.252 662.438 172.74 659.494 172.74ZM665.679 168.228V159.972C665.679 158.532 666.063 157.42 666.831 156.636C667.615 155.852 668.727 155.46 670.167 155.46C671.623 155.46 672.735 155.852 673.503 156.636C674.287 157.42 674.679 158.532 674.679 159.972V168.228C674.679 169.668 674.287 170.78 673.503 171.564C672.719 172.348 671.607 172.74 670.167 172.74C668.727 172.74 667.615 172.348 666.831 171.564C666.063 170.78 665.679 169.668 665.679 168.228ZM670.167 170.316C671.351 170.316 671.943 169.668 671.943 168.372V159.828C671.943 158.532 671.351 157.884 670.167 157.884C668.999 157.884 668.415 158.532 668.415 159.828V168.372C668.415 169.668 668.999 170.316 670.167 170.316ZM681.545 172.5H676.841V155.7H681.305C682.809 155.7 683.913 156.028 684.617 156.684C685.337 157.34 685.697 158.348 685.697 159.708V160.212C685.697 161.924 685.033 163.036 683.705 163.548V163.62C685.225 164.084 685.985 165.324 685.985 167.34V168.204C685.985 171.068 684.505 172.5 681.545 172.5ZM679.577 158.124V162.588H680.945C681.633 162.588 682.137 162.436 682.457 162.132C682.793 161.812 682.961 161.316 682.961 160.644V160.02C682.961 159.348 682.825 158.868 682.553 158.58C682.281 158.276 681.833 158.124 681.209 158.124H679.577ZM679.577 165.012V170.076H681.545C682.137 170.076 682.569 169.932 682.841 169.644C683.113 169.34 683.249 168.852 683.249 168.18V167.244C683.249 166.412 683.089 165.836 682.769 165.516C682.449 165.18 681.889 165.012 681.089 165.012H679.577ZM690.351 166.932L694.407 155.7H697.191V172.5H694.719V161.22L690.687 172.5H687.903V155.7H690.351V166.932ZM713.852 155.7V170.076H715.292V174.756H712.556V172.5H705.668V174.756H702.956V170.076H704.516C704.868 169.724 705.068 169.068 705.116 168.108L705.62 155.7H713.852ZM707.108 170.076H711.116V158.124H708.188L707.852 167.964C707.82 168.828 707.572 169.532 707.108 170.076ZM719.655 172.5H716.919V155.7H721.263C724.207 155.7 725.679 157.156 725.679 160.068V161.316C725.679 164.228 724.207 165.684 721.263 165.684H719.655V172.5ZM719.655 158.124V163.284H721.263C721.855 163.284 722.279 163.14 722.535 162.852C722.807 162.548 722.943 162.06 722.943 161.388V159.972C722.943 159.3 722.807 158.828 722.535 158.556C722.279 158.268 721.855 158.124 721.263 158.124H719.655ZM731.672 164.772L733.832 155.7H736.448L732.824 169.644C732.536 170.748 732.08 171.54 731.456 172.02C730.832 172.5 729.952 172.74 728.816 172.74C728.16 172.74 727.608 172.652 727.16 172.476V170.124C727.544 170.252 727.96 170.316 728.408 170.316C728.92 170.316 729.304 170.244 729.56 170.1C729.816 169.94 730.008 169.668 730.136 169.284L730.256 168.852L726.464 155.7H729.296L731.672 164.772ZM741.595 172.74C740.155 172.74 739.059 172.364 738.307 171.612C737.555 170.844 737.179 169.74 737.179 168.3V167.172H739.747V168.348C739.747 169.66 740.339 170.316 741.523 170.316C742.147 170.316 742.595 170.156 742.867 169.836C743.155 169.5 743.299 168.956 743.299 168.204V167.292C743.299 166.46 743.131 165.868 742.795 165.516C742.475 165.148 741.939 164.964 741.187 164.964H740.155V162.54H741.259C742.571 162.54 743.227 161.86 743.227 160.5V159.756C743.227 158.508 742.659 157.884 741.523 157.884C740.403 157.884 739.843 158.484 739.843 159.684V160.524H737.275V159.9C737.275 158.46 737.643 157.364 738.379 156.612C739.115 155.844 740.195 155.46 741.619 155.46C743.027 155.46 744.099 155.828 744.835 156.564C745.571 157.3 745.939 158.364 745.939 159.756V160.212C745.939 161.956 745.227 163.084 743.803 163.596V163.62C745.275 164.132 746.011 165.364 746.011 167.316V168.276C746.011 171.252 744.539 172.74 741.595 172.74ZM756.061 172.5H747.997V155.7H756.061V158.124H750.733V162.636H755.005V165.06H750.733V170.076H756.061V172.5ZM762.496 154.332C761.552 154.332 760.808 154.068 760.264 153.54C759.72 152.996 759.432 152.26 759.4 151.332H761.056C761.136 152.132 761.616 152.532 762.496 152.532C763.376 152.532 763.88 152.132 764.008 151.332H765.616C765.584 152.26 765.296 152.996 764.752 153.54C764.208 154.068 763.456 154.332 762.496 154.332ZM760.312 166.932L764.368 155.7H767.152V172.5H764.68V161.22L760.648 172.5H757.864V155.7H760.312V166.932ZM776.397 172.5H773.661V155.7H782.757V172.5H780.021V158.124H776.397V172.5ZM784.929 168.228V159.972C784.929 158.532 785.313 157.42 786.081 156.636C786.865 155.852 787.977 155.46 789.417 155.46C790.873 155.46 791.985 155.852 792.753 156.636C793.537 157.42 793.929 158.532 793.929 159.972V168.228C793.929 169.668 793.537 170.78 792.753 171.564C791.969 172.348 790.857 172.74 789.417 172.74C787.977 172.74 786.865 172.348 786.081 171.564C785.313 170.78 784.929 169.668 784.929 168.228ZM789.417 170.316C790.601 170.316 791.193 169.668 791.193 168.372V159.828C791.193 158.532 790.601 157.884 789.417 157.884C788.249 157.884 787.665 158.532 787.665 159.828V168.372C787.665 169.668 788.249 170.316 789.417 170.316ZM806.125 155.7V170.076H807.565V174.756H804.829V172.5H797.941V174.756H795.229V170.076H796.789C797.141 169.724 797.341 169.068 797.389 168.108L797.893 155.7H806.125ZM799.381 170.076H803.389V158.124H800.461L800.125 167.964C800.093 168.828 799.845 169.532 799.381 170.076ZM819.344 155.7V170.076H820.784V174.756H818.048V172.5H811.16V174.756H808.448V170.076H810.008C810.36 169.724 810.56 169.068 810.608 168.108L811.112 155.7H819.344ZM812.6 170.076H816.608V158.124H813.68L813.344 167.964C813.312 168.828 813.064 169.532 812.6 170.076ZM830.475 172.5H822.411V155.7H830.475V158.124H825.147V162.636H829.419V165.06H825.147V170.076H830.475V172.5ZM835.014 172.5H832.278V155.7H836.622C839.566 155.7 841.038 157.156 841.038 160.068V161.316C841.038 164.228 839.566 165.684 836.622 165.684H835.014V172.5ZM835.014 158.124V163.284H836.622C837.214 163.284 837.638 163.14 837.894 162.852C838.166 162.548 838.302 162.06 838.302 161.388V159.972C838.302 159.3 838.166 158.828 837.894 158.556C837.638 158.268 837.214 158.124 836.622 158.124H835.014ZM857.433 172.5H854.697L852.105 164.34L850.785 166.62V172.5H848.049V166.62L846.729 164.34L844.137 172.5H841.377L844.929 161.94L841.425 155.7H844.257L848.049 162.972V155.7H850.785V162.972L854.601 155.7H857.385L853.905 161.964L857.433 172.5ZM868.428 172.5H865.644L865.092 169.236H861.396L860.82 172.5H858.276L861.492 155.7H865.188L868.428 172.5ZM863.244 158.532L861.804 166.86H864.684L863.244 158.532ZM873.884 172.5H871.172V158.124H867.956V155.7H877.1V158.124H873.884V172.5ZM883.123 172.5H878.755V155.7H881.491V162.18H883.123C886.067 162.18 887.539 163.66 887.539 166.62V168.06C887.539 171.02 886.067 172.5 883.123 172.5ZM881.491 164.604V170.076H883.123C883.699 170.076 884.123 169.932 884.395 169.644C884.667 169.34 884.803 168.86 884.803 168.204V166.476C884.803 165.82 884.667 165.348 884.395 165.06C884.123 164.756 883.699 164.604 883.123 164.604H881.491ZM638.384 208.5H635.672V194.124H632.456V191.7H641.6V194.124H638.384V208.5ZM647.959 208.5H643.255V191.7H647.719C649.223 191.7 650.327 192.028 651.031 192.684C651.751 193.34 652.111 194.348 652.111 195.708V196.212C652.111 197.924 651.447 199.036 650.119 199.548V199.62C651.639 200.084 652.399 201.324 652.399 203.34V204.204C652.399 207.068 650.919 208.5 647.959 208.5ZM645.991 194.124V198.588H647.359C648.047 198.588 648.551 198.436 648.871 198.132C649.207 197.812 649.375 197.316 649.375 196.644V196.02C649.375 195.348 649.239 194.868 648.967 194.58C648.695 194.276 648.247 194.124 647.623 194.124H645.991ZM645.991 201.012V206.076H647.959C648.551 206.076 648.983 205.932 649.255 205.644C649.527 205.34 649.663 204.852 649.663 204.18V203.244C649.663 202.412 649.503 201.836 649.183 201.516C648.863 201.18 648.303 201.012 647.503 201.012H645.991ZM654.101 204.228V195.972C654.101 194.532 654.485 193.42 655.253 192.636C656.037 191.852 657.149 191.46 658.589 191.46C660.045 191.46 661.157 191.852 661.925 192.636C662.709 193.42 663.101 194.532 663.101 195.972V204.228C663.101 205.668 662.709 206.78 661.925 207.564C661.141 208.348 660.029 208.74 658.589 208.74C657.149 208.74 656.037 208.348 655.253 207.564C654.485 206.78 654.101 205.668 654.101 204.228ZM658.589 206.316C659.773 206.316 660.365 205.668 660.365 204.372V195.828C660.365 194.532 659.773 193.884 658.589 193.884C657.421 193.884 656.837 194.532 656.837 195.828V204.372C656.837 205.668 657.421 206.316 658.589 206.316ZM667.711 202.932L671.767 191.7H674.551V208.5H672.079V197.22L668.047 208.5H665.263V191.7H667.711V202.932ZM680.843 204.228V195.972C680.843 194.532 681.227 193.42 681.995 192.636C682.779 191.852 683.891 191.46 685.331 191.46C686.787 191.46 687.899 191.852 688.667 192.636C689.451 193.42 689.843 194.532 689.843 195.972V204.228C689.843 205.668 689.451 206.78 688.667 207.564C687.883 208.348 686.771 208.74 685.331 208.74C683.891 208.74 682.779 208.348 681.995 207.564C681.227 206.78 680.843 205.668 680.843 204.228ZM685.331 206.316C686.515 206.316 687.107 205.668 687.107 204.372V195.828C687.107 194.532 686.515 193.884 685.331 193.884C684.163 193.884 683.579 194.532 683.579 195.828V204.372C683.579 205.668 684.163 206.316 685.331 206.316ZM697.095 208.5H694.383V194.124H691.167V191.7H700.311V194.124H697.095V208.5ZM711.686 208.5H708.806L706.142 200.82L704.702 203.196V208.5H701.966V191.7H704.702V199.092L708.854 191.7H711.638L707.99 197.94L711.686 208.5ZM716.022 208.5H713.286V191.7H717.63C720.574 191.7 722.046 193.156 722.046 196.068V197.316C722.046 200.228 720.574 201.684 717.63 201.684H716.022V208.5ZM716.022 194.124V199.284H717.63C718.222 199.284 718.646 199.14 718.902 198.852C719.174 198.548 719.31 198.06 719.31 197.388V195.972C719.31 195.3 719.174 194.828 718.902 194.556C718.646 194.268 718.222 194.124 717.63 194.124H716.022ZM728.224 208.5H723.856V191.7H726.592V198.18H728.224C731.168 198.18 732.64 199.66 732.64 202.62V204.06C732.64 207.02 731.168 208.5 728.224 208.5ZM737.2 208.5H734.464V191.7H737.2V208.5ZM726.592 200.604V206.076H728.224C728.8 206.076 729.224 205.932 729.496 205.644C729.768 205.34 729.904 204.86 729.904 204.204V202.476C729.904 201.82 729.768 201.348 729.496 201.06C729.224 200.756 728.8 200.604 728.224 200.604H726.592ZM744.79 208.5H742.078V194.124H738.862V191.7H748.006V194.124H744.79V208.5ZM752.109 202.932L756.165 191.7H758.949V208.5H756.477V197.22L752.445 208.5H749.661V191.7H752.109V202.932ZM769.996 191.7V208.5H767.26V201.396H766.012C765.244 201.396 764.7 201.564 764.38 201.9C764.076 202.236 763.924 202.82 763.924 203.652V206.292C763.924 207.236 763.836 207.972 763.66 208.5H760.9C761.108 207.988 761.212 207.26 761.212 206.316V203.82C761.212 202.716 761.372 201.868 761.692 201.276C762.012 200.668 762.532 200.26 763.252 200.052V199.98C761.908 199.484 761.236 198.34 761.236 196.548V195.732C761.236 194.356 761.588 193.34 762.292 192.684C763.012 192.028 764.124 191.7 765.628 191.7H769.996ZM765.964 198.972H767.26V194.124H765.676C765.084 194.124 764.652 194.276 764.38 194.58C764.108 194.884 763.972 195.364 763.972 196.02V196.98C763.972 197.684 764.132 198.196 764.452 198.516C764.772 198.82 765.276 198.972 765.964 198.972Z" fill="white"/>
<path opacity="0.4" d="M515.501 163.5C458.501 143 445.001 256.5 324.001 202.5C203.001 148.5 29.0009 258.5 37.0006 300.5" stroke="#FFF8D9" stroke-width="2" stroke-linecap="round" stroke-dasharray="6 6"/>
<path opacity="0.4" d="M436.5 354.5C769 345 487.5 400 546 520.5" stroke="#FFF8D9" stroke-width="2" stroke-linecap="round" stroke-dasharray="6 6"/>
<defs>
<filter id="filter0_ddddd_701_390961" x="126" y="0" width="134" height="132" filterUnits="userSpaceOnUse" color-interpolation-filters="sRGB">
<feFlood flood-opacity="0" result="BackgroundImageFix"/>
<feColorMatrix in="SourceAlpha" type="matrix" values="0 0 0 0 0 0 0 0 0 0 0 0 0 0 0 0 0 0 127 0" result="hardAlpha"/>
<feOffset/>
<feColorMatrix type="matrix" values="0 0 0 0 0.0745098 0 0 0 0 0.12549 0 0 0 0 0.0823529 0 0 0 0.2 0"/>
<feBlend mode="normal" in2="BackgroundImageFix" result="effect1_dropShadow_701_390961"/>
<feColorMatrix in="SourceAlpha" type="matrix" values="0 0 0 0 0 0 0 0 0 0 0 0 0 0 0 0 0 0 127 0" result="hardAlpha"/>
<feOffset dx="2" dy="2"/>
<feGaussianBlur stdDeviation="3"/>
<feColorMatrix type="matrix" values="0 0 0 0 0.0745098 0 0 0 0 0.12549 0 0 0 0 0.0823529 0 0 0 0.2 0"/>
<feBlend mode="normal" in2="effect1_dropShadow_701_390961" result="effect2_dropShadow_701_390961"/>
<feColorMatrix in="SourceAlpha" type="matrix" values="0 0 0 0 0 0 0 0 0 0 0 0 0 0 0 0 0 0 127 0" result="hardAlpha"/>
<feOffset dx="8" dy="7"/>
<feGaussianBlur stdDeviation="5"/>
<feColorMatrix type="matrix" values="0 0 0 0 0.0745098 0 0 0 0 0.12549 0 0 0 0 0.0823529 0 0 0 0.17 0"/>
<feBlend mode="normal" in2="effect2_dropShadow_701_390961" result="effect3_dropShadow_701_390961"/>
<feColorMatrix in="SourceAlpha" type="matrix" values="0 0 0 0 0 0 0 0 0 0 0 0 0 0 0 0 0 0 127 0" result="hardAlpha"/>
<feOffset dx="18" dy="15"/>
<feGaussianBlur stdDeviation="7"/>
<feColorMatrix type="matrix" values="0 0 0 0 0.0745098 0 0 0 0 0.12549 0 0 0 0 0.0823529 0 0 0 0.1 0"/>
<feBlend mode="normal" in2="effect3_dropShadow_701_390961" result="effect4_dropShadow_701_390961"/>
<feColorMatrix in="SourceAlpha" type="matrix" values="0 0 0 0 0 0 0 0 0 0 0 0 0 0 0 0 0 0 127 0" result="hardAlpha"/>
<feOffset dx="33" dy="26"/>
<feGaussianBlur stdDeviation="8.5"/>
<feColorMatrix type="matrix" values="0 0 0 0 0.0745098 0 0 0 0 0.12549 0 0 0 0 0.0823529 0 0 0 0.03 0"/>
<feBlend mode="normal" in2="effect4_dropShadow_701_390961" result="effect5_dropShadow_701_390961"/>
<feBlend mode="normal" in="SourceGraphic" in2="effect5_dropShadow_701_390961" result="shape"/>
</filter>
<filter id="filter1_ddddd_701_390961" x="0" y="309" width="134" height="132" filterUnits="userSpaceOnUse" color-interpolation-filters="sRGB">
<feFlood flood-opacity="0" result="BackgroundImageFix"/>
<feColorMatrix in="SourceAlpha" type="matrix" values="0 0 0 0 0 0 0 0 0 0 0 0 0 0 0 0 0 0 127 0" result="hardAlpha"/>
<feOffset/>
<feColorMatrix type="matrix" values="0 0 0 0 0.0745098 0 0 0 0 0.12549 0 0 0 0 0.0823529 0 0 0 0.2 0"/>
<feBlend mode="normal" in2="BackgroundImageFix" result="effect1_dropShadow_701_390961"/>
<feColorMatrix in="SourceAlpha" type="matrix" values="0 0 0 0 0 0 0 0 0 0 0 0 0 0 0 0 0 0 127 0" result="hardAlpha"/>
<feOffset dx="2" dy="2"/>
<feGaussianBlur stdDeviation="3"/>
<feColorMatrix type="matrix" values="0 0 0 0 0.0745098 0 0 0 0 0.12549 0 0 0 0 0.0823529 0 0 0 0.2 0"/>
<feBlend mode="normal" in2="effect1_dropShadow_701_390961" result="effect2_dropShadow_701_390961"/>
<feColorMatrix in="SourceAlpha" type="matrix" values="0 0 0 0 0 0 0 0 0 0 0 0 0 0 0 0 0 0 127 0" result="hardAlpha"/>
<feOffset dx="8" dy="7"/>
<feGaussianBlur stdDeviation="5"/>
<feColorMatrix type="matrix" values="0 0 0 0 0.0745098 0 0 0 0 0.12549 0 0 0 0 0.0823529 0 0 0 0.17 0"/>
<feBlend mode="normal" in2="effect2_dropShadow_701_390961" result="effect3_dropShadow_701_390961"/>
<feColorMatrix in="SourceAlpha" type="matrix" values="0 0 0 0 0 0 0 0 0 0 0 0 0 0 0 0 0 0 127 0" result="hardAlpha"/>
<feOffset dx="18" dy="15"/>
<feGaussianBlur stdDeviation="7"/>
<feColorMatrix type="matrix" values="0 0 0 0 0.0745098 0 0 0 0 0.12549 0 0 0 0 0.0823529 0 0 0 0.1 0"/>
<feBlend mode="normal" in2="effect3_dropShadow_701_390961" result="effect4_dropShadow_701_390961"/>
<feColorMatrix in="SourceAlpha" type="matrix" values="0 0 0 0 0 0 0 0 0 0 0 0 0 0 0 0 0 0 127 0" result="hardAlpha"/>
<feOffset dx="33" dy="26"/>
<feGaussianBlur stdDeviation="8.5"/>
<feColorMatrix type="matrix" values="0 0 0 0 0.0745098 0 0 0 0 0.12549 0 0 0 0 0.0823529 0 0 0 0.03 0"/>
<feBlend mode="normal" in2="effect4_dropShadow_701_390961" result="effect5_dropShadow_701_390961"/>
<feBlend mode="normal" in="SourceGraphic" in2="effect5_dropShadow_701_390961" result="shape"/>
</filter>
<filter id="filter2_ddddd_701_390961" x="524" y="136" width="134" height="132" filterUnits="userSpaceOnUse" color-interpolation-filters="sRGB">
<feFlood flood-opacity="0" result="BackgroundImageFix"/>
<feColorMatrix in="SourceAlpha" type="matrix" values="0 0 0 0 0 0 0 0 0 0 0 0 0 0 0 0 0 0 127 0" result="hardAlpha"/>
<feOffset/>
<feColorMatrix type="matrix" values="0 0 0 0 0.0745098 0 0 0 0 0.12549 0 0 0 0 0.0823529 0 0 0 0.2 0"/>
<feBlend mode="normal" in2="BackgroundImageFix" result="effect1_dropShadow_701_390961"/>
<feColorMatrix in="SourceAlpha" type="matrix" values="0 0 0 0 0 0 0 0 0 0 0 0 0 0 0 0 0 0 127 0" result="hardAlpha"/>
<feOffset dx="2" dy="2"/>
<feGaussianBlur stdDeviation="3"/>
<feColorMatrix type="matrix" values="0 0 0 0 0.0745098 0 0 0 0 0.12549 0 0 0 0 0.0823529 0 0 0 0.2 0"/>
<feBlend mode="normal" in2="effect1_dropShadow_701_390961" result="effect2_dropShadow_701_390961"/>
<feColorMatrix in="SourceAlpha" type="matrix" values="0 0 0 0 0 0 0 0 0 0 0 0 0 0 0 0 0 0 127 0" result="hardAlpha"/>
<feOffset dx="8" dy="7"/>
<feGaussianBlur stdDeviation="5"/>
<feColorMatrix type="matrix" values="0 0 0 0 0.0745098 0 0 0 0 0.12549 0 0 0 0 0.0823529 0 0 0 0.17 0"/>
<feBlend mode="normal" in2="effect2_dropShadow_701_390961" result="effect3_dropShadow_701_390961"/>
<feColorMatrix in="SourceAlpha" type="matrix" values="0 0 0 0 0 0 0 0 0 0 0 0 0 0 0 0 0 0 127 0" result="hardAlpha"/>
<feOffset dx="18" dy="15"/>
<feGaussianBlur stdDeviation="7"/>
<feColorMatrix type="matrix" values="0 0 0 0 0.0745098 0 0 0 0 0.12549 0 0 0 0 0.0823529 0 0 0 0.1 0"/>
<feBlend mode="normal" in2="effect3_dropShadow_701_390961" result="effect4_dropShadow_701_390961"/>
<feColorMatrix in="SourceAlpha" type="matrix" values="0 0 0 0 0 0 0 0 0 0 0 0 0 0 0 0 0 0 127 0" result="hardAlpha"/>
<feOffset dx="33" dy="26"/>
<feGaussianBlur stdDeviation="8.5"/>
<feColorMatrix type="matrix" values="0 0 0 0 0.0745098 0 0 0 0 0.12549 0 0 0 0 0.0823529 0 0 0 0.03 0"/>
<feBlend mode="normal" in2="effect4_dropShadow_701_390961" result="effect5_dropShadow_701_390961"/>
<feBlend mode="normal" in="SourceGraphic" in2="effect5_dropShadow_701_390961" result="shape"/>
</filter>
</defs>
</svg>
